<?xml version="1.0" encoding="UTF-8" standalone="no"?>
<!-- Created with Inkscape (http://www.inkscape.org/) -->

<svg
   xmlns:dc="http://purl.org/dc/elements/1.1/"
   xmlns:cc="http://creativecommons.org/ns#"
   xmlns:rdf="http://www.w3.org/1999/02/22-rdf-syntax-ns#"
   xmlns:svg="http://www.w3.org/2000/svg"
   xmlns="http://www.w3.org/2000/svg"
   xmlns:sodipodi="http://sodipodi.sourceforge.net/DTD/sodipodi-0.dtd"
   xmlns:inkscape="http://www.inkscape.org/namespaces/inkscape"
   width="236.33376"
   height="99.246246"
   id="svg3792"
   version="1.1"
   inkscape:version="0.48.5 r10040"
   sodipodi:docname="New document 10">
  <defs
     id="defs3794" />
  <sodipodi:namedview
     id="base"
     pagecolor="#ffffff"
     bordercolor="#666666"
     borderopacity="1.0"
     inkscape:pageopacity="0.0"
     inkscape:pageshadow="2"
     inkscape:zoom="0.35"
     inkscape:cx="138.88116"
     inkscape:cy="-38.948303"
     inkscape:document-units="px"
     inkscape:current-layer="layer1"
     showgrid="false"
     fit-margin-top="0"
     fit-margin-left="0"
     fit-margin-right="0"
     fit-margin-bottom="0"
     inkscape:window-width="1920"
     inkscape:window-height="1020"
     inkscape:window-x="0"
     inkscape:window-y="27"
     inkscape:window-maximized="1" />
  <metadata
     id="metadata3797">
    <rdf:RDF>
      <cc:Work
         rdf:about="">
        <dc:format>image/svg+xml</dc:format>
        <dc:type
           rdf:resource="http://purl.org/dc/dcmitype/StillImage" />
        <dc:title></dc:title>
      </cc:Work>
    </rdf:RDF>
  </metadata>
  <g
     inkscape:label="Layer 1"
     inkscape:groupmode="layer"
     id="layer1"
     transform="translate(-236.11884,-394.16763)">
    <g
       transform="translate(510.08598,-357.14286)"
       id="g4324">
      <path
         inkscape:connector-curvature="0"
         d="m -37.63364,834.86299 c 0,8.09375 -6.4625,15.69375 -14.43875,15.69375 l -221.89375,0 -10e-4,-84.5925 c 0,-8.0925 6.46375,-14.65375 14.44,-14.65375 l 207.455,0 c 7.97625,0 14.43875,6.56125 14.43875,14.65375 l 0,68.89875 z"
         style="fill:#ff6633;fill-opacity:1;fill-rule:nonzero;stroke:none"
         id="path4215" />
      <path
         d="m -228.49863,801.05994 0,-12.062 c 0,-9.47199 -3.626,-14.208 -11.47,-14.208 -4.58799,0 -7.918,1.776 -10.212,5.254 l 0,-2.812 c 0,-0.962 -0.666,-1.554 -2.072,-1.554 l -6.142,0 c -3.03399,0 -4.514,0.962 -4.514,3.996 0,2.59 1.33201,3.922 3.922,3.922 0.148,0 0.37,0 0.592,0 l 0,17.464 c -0.148,0 -0.296,0 -0.444,0 -2.73799,0 -4.07,1.332 -4.07,3.996 0,2.96 1.40601,3.996 4.514,3.996 l 8.954,0 c 3.108,0 4.514,-1.036 4.514,-3.996 0,-2.664 -1.332,-3.996 -4.07,-3.996 -0.148,0 -0.296,0 -0.444,0 l 0,-10.434 c 0,-5.10599 3.03401,-7.992 6.808,-7.992 4.144,0 5.254,2.73801 5.254,7.992 l 0,10.434 c -0.148,0 -0.296,0 -0.444,0 -2.73799,0 -4.144,1.332 -4.144,3.996 0,2.96 1.48001,3.996 4.588,3.996 l 8.88,0 c 3.108,0 4.514,-1.036 4.514,-3.996 0,-2.664 -1.332,-3.996 -4.07,-3.996 -0.148,0 -0.296,0 -0.444,0"
         style="font-size:74px;font-style:normal;font-variant:normal;font-weight:bold;font-stretch:normal;text-align:start;line-height:0%;letter-spacing:-2.5px;word-spacing:0px;writing-mode:lr-tb;text-anchor:start;fill:#ffffff;fill-opacity:1;stroke:none;font-family:Courier 10 Pitch;-inkscape-font-specification:Courier 10 Pitch Bold"
         id="path4302"
         inkscape:connector-curvature="0" />
      <path
         d="m -211.495,794.47394 23.31,0 c 3.77399,0 5.254,-0.518 5.254,-3.7 0,-8.43599 -7.10401,-15.91 -18.056,-15.91 -11.98799,0 -19.684,7.54801 -19.684,17.538 0,9.98999 7.77001,17.538 19.684,17.538 10.58199,0 17.464,-4.144 17.464,-8.288 0,-2.146 -1.332,-3.552 -3.256,-3.552 -2.664,0 -6.14201,4.366 -13.912,4.366 -5.994,0 -9.546,-2.59 -10.804,-7.992 m 0,-5.624 c 1.258,-4.73599 4.44,-7.03 9.694,-7.03 5.40199,0 8.954,2.51601 9.768,7.03 l -19.462,0"
         style="font-size:74px;font-style:normal;font-variant:normal;font-weight:bold;font-stretch:normal;text-align:start;line-height:0%;letter-spacing:-2.5px;word-spacing:0px;writing-mode:lr-tb;text-anchor:start;fill:#ffffff;fill-opacity:1;stroke:none;font-family:Courier 10 Pitch;-inkscape-font-specification:Courier 10 Pitch Bold"
         id="path4304"
         inkscape:connector-curvature="0" />
      <path
         d="m -169.18338,808.60794 c 3.478,0.962 6.95601,1.332 10.73,1.332 10.13799,0 15.54,-4.29201 15.54,-11.322 0,-7.10399 -5.10601,-9.25 -14.356,-10.582 -6.51199,-0.962 -9.472,-0.666 -9.472,-3.774 0,-2.072 1.99801,-3.478 5.92,-3.478 6.512,0 8.58401,5.18 12.21,5.18 1.924,0 3.108,-1.184 3.108,-3.256 l 0,-4.44 c 0,-2.442 -0.962,-3.7 -2.96,-3.7 -1.406,0 -2.59,0.592 -3.552,1.776 -3.40399,-1.036 -6.66,-1.554 -9.916,-1.554 -9.17599,0 -14.208,3.92201 -14.208,10.656 0,5.772 4.07001,9.028 12.432,10.212 7.844,1.11 11.248,1.11 11.248,4.514 0,1.924 -1.924,3.626 -5.698,3.626 -3.99599,0 -7.03,-1.036 -9.472,-3.182 -1.776,-1.628 -1.702,-3.7 -4.81,-3.7 -2.58999,0 -3.552,1.184 -3.552,4.366 l 0,4.884 c 0,2.516 0.51801,3.922 2.886,3.922 1.332,0 2.59,-0.518 3.922,-1.48"
         style="font-size:74px;font-style:normal;font-variant:normal;font-weight:bold;font-stretch:normal;text-align:start;line-height:0%;letter-spacing:-2.5px;word-spacing:0px;writing-mode:lr-tb;text-anchor:start;fill:#ffffff;fill-opacity:1;stroke:none;font-family:Courier 10 Pitch;-inkscape-font-specification:Courier 10 Pitch Bold"
         id="path4306"
         inkscape:connector-curvature="0" />
      <path
         d="m -132.42175,785.59394 3.404,0 0,9.25 c 0,0.296 0,0.592 0,0.814 0,4.366 0.074,7.696 2.22,10.212 2.072,2.442 5.846,3.922 10.952,3.922 8.95399,0 16.501998,-3.996 16.501998,-7.252 0,-2.516 -1.701998,-4.144 -3.625998,-4.144 -3.108,0 -6.66001,3.256 -11.766,3.256 -4.292,0 -5.402,-2.072 -5.402,-6.808 l 0,-9.25 11.026,0 c 3.034,0 4.588,-0.962 4.588,-3.996 0,-3.034 -1.554,-3.922 -4.588,-3.922 l -11.026,0 0,-8.436 c 0,-3.108 -1.11001,-4.514 -4.514,-4.514 -2.812,0 -4.366,1.554 -4.366,3.034 0,0.148 0,0.592 0,1.48 l 0,8.436 -3.404,0 c -3.034,0 -4.514,0.888 -4.514,3.922 0,3.034 1.48,3.996 4.514,3.996"
         style="font-size:74px;font-style:normal;font-variant:normal;font-weight:bold;font-stretch:normal;text-align:start;line-height:0%;letter-spacing:-2.5px;word-spacing:0px;writing-mode:lr-tb;text-anchor:start;fill:#ffffff;fill-opacity:1;stroke:none;font-family:Courier 10 Pitch;-inkscape-font-specification:Courier 10 Pitch Bold"
         id="path4308"
         inkscape:connector-curvature="0" />
      <path
         id="path4221"
         d="m -123.5669,461.3093 c 0,4.63747 -4.31344,8.39689 -9.63433,8.39689 -5.3209,0 -9.63433,-3.75942 -9.63433,-8.39689 0,-4.63748 4.31343,-8.3969 9.63433,-8.3969 5.32089,0 9.63433,3.75942 9.63433,8.3969 z"
         style="fill:#ffffff;fill-opacity:1;stroke:none"
         transform="matrix(0.6746707,0,0,0.77409589,12.65589,423.50001)"
         inkscape:connector-curvature="0" />
      <path
         id="path4223"
         d="m -123.5669,461.3093 c 0,4.63747 -4.31344,8.39689 -9.63433,8.39689 -5.3209,0 -9.63433,-3.75942 -9.63433,-8.39689 0,-4.63748 4.31343,-8.3969 9.63433,-8.3969 5.32089,0 9.63433,3.75942 9.63433,8.3969 z"
         style="fill:#ffffff;fill-opacity:1;stroke:none"
         transform="matrix(0.6746707,0,0,0.77409589,34.65589,423.50001)"
         inkscape:connector-curvature="0" />
      <path
         id="path4225"
         d="m -123.5669,461.3093 c 0,4.63747 -4.31344,8.39689 -9.63433,8.39689 -5.3209,0 -9.63433,-3.75942 -9.63433,-8.39689 0,-4.63748 4.31343,-8.3969 9.63433,-8.3969 5.32089,0 9.63433,3.75942 9.63433,8.3969 z"
         style="fill:#ffffff;fill-opacity:1;stroke:none"
         transform="matrix(0.6746707,0,0,0.77409589,34.65589,445.50001)"
         inkscape:connector-curvature="0" />
      <path
         id="path4227"
         d="m -123.5669,461.3093 c 0,4.63747 -4.31344,8.39689 -9.63433,8.39689 -5.3209,0 -9.63433,-3.75942 -9.63433,-8.39689 0,-4.63748 4.31343,-8.3969 9.63433,-8.3969 5.32089,0 9.63433,3.75942 9.63433,8.3969 z"
         style="fill:#ffffff;fill-opacity:1;stroke:none"
         transform="matrix(0.6746707,0,0,0.77409589,12.65589,445.50001)"
         inkscape:connector-curvature="0" />
      <path
         d="m -183.65257,835.67428 c 0,-0.992 -0.8,-0.992 -1.312,-0.992 l -1.408,0 0,-10.528 c 0,-0.992 -0.192,-1.312 -1.28,-1.312 l -2.496,0 c -0.48,0 -1.312,0 -1.312,0.96 0,0.992 0.832,0.992 1.312,0.992 l 1.568,0 0,9.888 -1.728,0 c -0.512,0 -1.28,0 -1.28,0.992 0,0.96 0.8,0.96 1.28,0.96 l 5.376,0 c 0.48,0 1.28,0 1.28,-0.96 m -2.208,-16.448 c 0,-0.864 -0.736,-1.6 -1.6,-1.6 -0.992,0 -1.632,0.8 -1.632,1.6 0,0.864 0.736,1.6 1.6,1.6 0.992,0 1.632,-0.8 1.632,-1.6"
         style="font-size:32px;font-style:normal;font-variant:normal;font-weight:normal;font-stretch:normal;line-height:0%;letter-spacing:1.5px;word-spacing:0px;fill:#ffffff;fill-opacity:1;stroke:#ffffff;stroke-width:1;stroke-miterlimit:4;stroke-opacity:1;font-family:Latin Modern Mono Prop;-inkscape-font-specification:Latin Modern Mono Prop"
         id="path4276"
         inkscape:connector-curvature="0" />
      <path
         d="m -163.17757,835.67428 c 0,-0.992 -0.768,-0.992 -1.28,-0.992 l -1.728,0 0,-7.36 c 0,-3.456 -1.984,-4.672 -4.608,-4.672 -1.856,0 -3.456,0.672 -4.704,1.824 0,-1.184 0,-1.632 -1.28,-1.632 l -2.656,0 c -0.512,0 -1.28,0 -1.28,0.992 0,0.96 0.8,0.96 1.28,0.96 l 1.728,0 0,9.888 -1.728,0 c -0.512,0 -1.28,0 -1.28,0.992 0,0.96 0.8,0.96 1.28,0.96 l 5.664,0 c 0.48,0 1.28,0 1.28,-0.96 0,-0.992 -0.768,-0.992 -1.28,-0.992 l -1.728,0 0,-5.632 c 0,-3.36 2.752,-4.448 4.512,-4.448 2.24,0 2.592,1.12 2.592,2.912 l 0,7.168 -1.728,0 c -0.48,0 -1.28,0 -1.28,0.96 0,0.992 0.768,0.992 1.28,0.992 l 5.664,0 c 0.48,0 1.28,0 1.28,-0.96"
         style="font-size:32px;font-style:normal;font-variant:normal;font-weight:normal;font-stretch:normal;line-height:0%;letter-spacing:1.5px;word-spacing:0px;fill:#ffffff;fill-opacity:1;stroke:#ffffff;stroke-width:1;stroke-miterlimit:4;stroke-opacity:1;font-family:Latin Modern Mono Prop;-inkscape-font-specification:Latin Modern Mono Prop"
         id="path4278"
         inkscape:connector-curvature="0" />
      <path
         d="m -152.59007,835.67428 c 0,-0.992 -0.8,-0.992 -1.312,-0.992 l -1.408,0 0,-10.528 c 0,-0.992 -0.192,-1.312 -1.28,-1.312 l -2.496,0 c -0.48,0 -1.312,0 -1.312,0.96 0,0.992 0.832,0.992 1.312,0.992 l 1.568,0 0,9.888 -1.728,0 c -0.512,0 -1.28,0 -1.28,0.992 0,0.96 0.8,0.96 1.28,0.96 l 5.376,0 c 0.48,0 1.28,0 1.28,-0.96 m -2.208,-16.448 c 0,-0.864 -0.736,-1.6 -1.6,-1.6 -0.992,0 -1.632,0.8 -1.632,1.6 0,0.864 0.736,1.6 1.6,1.6 0.992,0 1.632,-0.8 1.632,-1.6"
         style="font-size:32px;font-style:normal;font-variant:normal;font-weight:normal;font-stretch:normal;line-height:0%;letter-spacing:1.5px;word-spacing:0px;fill:#ffffff;fill-opacity:1;stroke:#ffffff;stroke-width:1;stroke-miterlimit:4;stroke-opacity:1;font-family:Latin Modern Mono Prop;-inkscape-font-specification:Latin Modern Mono Prop"
         id="path4280"
         inkscape:connector-curvature="0" />
      <path
         d="m -139.02707,832.63428 c 0,-0.608 0,-1.28 -1.12,-1.28 -1.088,0 -1.088,0.672 -1.088,1.248 0,1.568 -0.832,2.272 -1.632,2.272 -1.568,0 -1.568,-1.664 -1.568,-2.368 l 0,-7.712 3.552,0 c 0.48,0 1.28,0 1.28,-0.96 0,-0.992 -0.768,-0.992 -1.28,-0.992 l -3.552,0 0,-2.624 c 0,-0.608 0,-1.312 -1.088,-1.312 -1.12,0 -1.12,0.672 -1.12,1.312 l 0,2.624 -1.632,0 c -0.512,0 -1.312,0 -1.312,0.992 0,0.96 0.8,0.96 1.28,0.96 l 1.664,0 0,7.904 c 0,3.26399 2.144,4.128 3.648,4.128 2.144,0 3.968,-1.72801 3.968,-4.192"
         style="font-size:32px;font-style:normal;font-variant:normal;font-weight:normal;font-stretch:normal;line-height:0%;letter-spacing:1.5px;word-spacing:0px;fill:#ffffff;fill-opacity:1;stroke:#ffffff;stroke-width:1;stroke-miterlimit:4;stroke-opacity:1;font-family:Latin Modern Mono Prop;-inkscape-font-specification:Latin Modern Mono Prop"
         id="path4282"
         inkscape:connector-curvature="0" />
      <path
         d="m -127.15257,835.67428 c 0,-0.992 -0.8,-0.992 -1.312,-0.992 l -1.408,0 0,-10.528 c 0,-0.992 -0.192,-1.312 -1.28,-1.312 l -2.496,0 c -0.48,0 -1.312,0 -1.312,0.96 0,0.992 0.832,0.992 1.312,0.992 l 1.568,0 0,9.888 -1.728,0 c -0.512,0 -1.28,0 -1.28,0.992 0,0.96 0.8,0.96 1.28,0.96 l 5.376,0 c 0.48,0 1.28,0 1.28,-0.96 m -2.208,-16.448 c 0,-0.864 -0.736,-1.6 -1.6,-1.6 -0.992,0 -1.632,0.8 -1.632,1.6 0,0.864 0.736,1.6 1.6,1.6 0.992,0 1.632,-0.8 1.632,-1.6"
         style="font-size:32px;font-style:normal;font-variant:normal;font-weight:normal;font-stretch:normal;line-height:0%;letter-spacing:1.5px;word-spacing:0px;fill:#ffffff;fill-opacity:1;stroke:#ffffff;stroke-width:1;stroke-miterlimit:4;stroke-opacity:1;font-family:Latin Modern Mono Prop;-inkscape-font-specification:Latin Modern Mono Prop"
         id="path4284"
         inkscape:connector-curvature="0" />
      <path
         d="m -108.78957,835.64228 c 0,-0.96 -0.8,-0.96 -1.28,-0.96 -1.216,0 -1.504,-0.128 -1.792,-0.256 l 0,-6.912 c 0,-2.336 -1.76,-4.96 -6.176,-4.96 -1.344,0 -4.544,0 -4.544,2.336 0,0.96 0.672,1.472 1.44,1.472 0.544,0 1.376,-0.32 1.408,-1.472 0,-0.256 0.032,-0.288 0.544,-0.352 0.384,-0.032 0.8,-0.032 1.184,-0.032 2.336,0 3.936,0.992 3.936,3.264 -5.75999,0.096 -9.312,1.856 -9.312,4.768 0,2.24 2.016,4.288 5.12,4.288 2.112,0 3.712,-0.64 4.544,-1.216 0.64,0.928 1.984,1.024 3.36,1.024 0.864,0 1.568,0 1.568,-0.992 m -5.28,-3.296 c 0,0.704 0,1.44 -1.248,2.016 -1.12,0.512 -2.464,0.512 -2.688,0.512 -1.92,0 -3.168,-1.12 -3.168,-2.336 0,-1.408 2.08001,-2.72 7.104,-2.88 l 0,2.688"
         style="font-size:32px;font-style:normal;font-variant:normal;font-weight:normal;font-stretch:normal;line-height:0%;letter-spacing:1.5px;word-spacing:0px;fill:#ffffff;fill-opacity:1;stroke:#ffffff;stroke-width:1;stroke-miterlimit:4;stroke-opacity:1;font-family:Latin Modern Mono Prop;-inkscape-font-specification:Latin Modern Mono Prop"
         id="path4286"
         inkscape:connector-curvature="0" />
      <path
         d="m -95.777068,832.63428 c 0,-0.608 -10e-7,-1.28 -1.12,-1.28 -1.087999,0 -1.088,0.672 -1.088,1.248 0,1.568 -0.832001,2.272 -1.632,2.272 -1.568002,0 -1.568002,-1.664 -1.568002,-2.368 l 0,-7.712 3.552002,0 c 0.479999,0 1.28,0 1.28,-0.96 0,-0.992 -0.768001,-0.992 -1.28,-0.992 l -3.552002,0 0,-2.624 c 0,-0.608 0,-1.312 -1.088,-1.312 -1.12,0 -1.12,0.672 -1.12,1.312 l 0,2.624 -1.632,0 c -0.512,0 -1.312,0 -1.312,0.992 0,0.96 0.8,0.96 1.28,0.96 l 1.664,0 0,7.904 c 0,3.26399 2.144,4.128 3.648002,4.128 2.143997,0 3.968,-1.72801 3.968,-4.192"
         style="font-size:32px;font-style:normal;font-variant:normal;font-weight:normal;font-stretch:normal;line-height:0%;letter-spacing:1.5px;word-spacing:0px;fill:#ffffff;fill-opacity:1;stroke:#ffffff;stroke-width:1;stroke-miterlimit:4;stroke-opacity:1;font-family:Latin Modern Mono Prop;-inkscape-font-specification:Latin Modern Mono Prop"
         id="path4288"
         inkscape:connector-curvature="0" />
      <path
         d="m -83.902568,835.67428 c 0,-0.992 -0.800001,-0.992 -1.312,-0.992 l -1.408,0 0,-10.528 c 0,-0.992 -0.192001,-1.312 -1.28,-1.312 l -2.496,0 c -0.48,0 -1.312,0 -1.312,0.96 0,0.992 0.832,0.992 1.312,0.992 l 1.568,0 0,9.888 -1.728,0 c -0.512,0 -1.28,0 -1.28,0.992 0,0.96 0.8,0.96 1.28,0.96 l 5.376,0 c 0.479999,0 1.28,0 1.28,-0.96 m -2.208,-16.448 c 0,-0.864 -0.736001,-1.6 -1.6,-1.6 -0.991999,0 -1.632,0.8 -1.632,1.6 0,0.864 0.736001,1.6 1.6,1.6 0.991999,0 1.632,-0.8 1.632,-1.6"
         style="font-size:32px;font-style:normal;font-variant:normal;font-weight:normal;font-stretch:normal;line-height:0%;letter-spacing:1.5px;word-spacing:0px;fill:#ffffff;fill-opacity:1;stroke:#ffffff;stroke-width:1;stroke-miterlimit:4;stroke-opacity:1;font-family:Latin Modern Mono Prop;-inkscape-font-specification:Latin Modern Mono Prop"
         id="path4290"
         inkscape:connector-curvature="0" />
      <path
         d="m -64.643568,823.83428 c 0,-0.992 -0.768001,-0.992 -1.28,-0.992 l -4.48,0 c -0.48,0 -1.312,0 -1.312,0.96 0,0.992 0.8,0.992 1.312,0.992 l 1.312,0 -3.552,10.496 -3.584,-10.496 1.312,0 c 0.479999,0 1.312,0 1.312,-0.96 0,-0.992 -0.800001,-0.992 -1.312,-0.992 l -4.48,0 c -0.512,0 -1.28,0 -1.28,0.992 0,0.96 0.8,0.96 1.28,0.96 l 1.28,0 3.68,10.848 c 0.383999,1.12 0.992,1.12 1.792,1.12 0.703999,0 1.408,0 1.76,-1.088 l 3.68,-10.88 1.28,0 c 0.479999,0 1.28,0 1.28,-0.96"
         style="font-size:32px;font-style:normal;font-variant:normal;font-weight:normal;font-stretch:normal;line-height:0%;letter-spacing:1.5px;word-spacing:0px;fill:#ffffff;fill-opacity:1;stroke:#ffffff;stroke-width:1;stroke-miterlimit:4;stroke-opacity:1;font-family:Latin Modern Mono Prop;-inkscape-font-specification:Latin Modern Mono Prop"
         id="path4292"
         inkscape:connector-curvature="0" />
      <path
         d="m -49.211068,833.14628 c 0,-0.896 -0.928001,-0.896 -1.12,-0.896 -0.512,0 -0.832001,0.064 -1.056,0.704 -0.64,1.536 -2.176001,1.92 -3.2,1.92 -2.399998,0 -4.672001,-1.72801 -5.12,-4.352 l 9.216,0 c 0.671999,0 1.28,0 1.28,-1.184 0,-3.808 -2.112004,-6.784 -6.048,-6.784 -3.775997,0 -6.72,3.264 -6.72,7.104 0,3.96799 3.168004,7.168 7.2,7.168 4.063996,0 5.568,-2.848 5.568,-3.68 m -2.272,-4.544 -8.192,0 c 0.447999,-2.4 2.304002,-4.096 4.416,-4.096 1.599998,0 3.52,0.8 3.776,4.096"
         style="font-size:32px;font-style:normal;font-variant:normal;font-weight:normal;font-stretch:normal;line-height:0%;letter-spacing:1.5px;word-spacing:0px;fill:#ffffff;fill-opacity:1;stroke:#ffffff;stroke-width:1;stroke-miterlimit:4;stroke-opacity:1;font-family:Latin Modern Mono Prop;-inkscape-font-specification:Latin Modern Mono Prop"
         id="path4294"
         inkscape:connector-curvature="0" />
    </g>
  </g>
</svg>
