<?xml version="1.0" encoding="UTF-8" standalone="no"?>
<!-- Created with Inkscape (http://www.inkscape.org/) -->

<svg
   xmlns:dc="http://purl.org/dc/elements/1.1/"
   xmlns:cc="http://creativecommons.org/ns#"
   xmlns:rdf="http://www.w3.org/1999/02/22-rdf-syntax-ns#"
   xmlns:svg="http://www.w3.org/2000/svg"
   xmlns="http://www.w3.org/2000/svg"
   xmlns:sodipodi="http://sodipodi.sourceforge.net/DTD/sodipodi-0.dtd"
   xmlns:inkscape="http://www.inkscape.org/namespaces/inkscape"
   width="236.34375"
   height="127.25201"
   id="svg4103"
   version="1.1"
   inkscape:version="0.48.5 r10040"
   sodipodi:docname="New document 16">
  <defs
     id="defs4105" />
  <sodipodi:namedview
     id="base"
     pagecolor="#ffffff"
     bordercolor="#666666"
     borderopacity="1.0"
     inkscape:pageopacity="0.0"
     inkscape:pageshadow="2"
     inkscape:zoom="0.35"
     inkscape:cx="-29.68864"
     inkscape:cy="80.771707"
     inkscape:document-units="px"
     inkscape:current-layer="layer1"
     showgrid="false"
     fit-margin-top="0"
     fit-margin-left="0"
     fit-margin-right="0"
     fit-margin-bottom="0"
     inkscape:window-width="1920"
     inkscape:window-height="1020"
     inkscape:window-x="0"
     inkscape:window-y="27"
     inkscape:window-maximized="1" />
  <metadata
     id="metadata4108">
    <rdf:RDF>
      <cc:Work
         rdf:about="">
        <dc:format>image/svg+xml</dc:format>
        <dc:type
           rdf:resource="http://purl.org/dc/dcmitype/StillImage" />
        <dc:title></dc:title>
      </cc:Work>
    </rdf:RDF>
  </metadata>
  <g
     inkscape:label="Layer 1"
     inkscape:groupmode="layer"
     id="layer1"
     transform="translate(-404.68864,-485.88188)">
    <g
       transform="translate(-401.34261,-265.42861)"
       id="g3600">
      <path
         d="m 820.75678,871.38293 c 0,-0.80895 -0.62666,-0.80895 -1.04443,-0.80895 l -1.40999,0 0,-6.00186 c 0,-2.81828 -1.61888,-3.80989 -3.75997,-3.80989 -1.51444,0 -2.81999,0.548 -3.83831,1.48742 0,-0.96551 -10e-6,-1.33085 -1.04444,-1.33085 l -2.16721,0 c -0.41777,0 -1.04443,10e-6 -1.04443,0.80895 0,0.78285 0.65276,0.78285 1.04443,0.78285 l 1.40999,0 0,8.06338 -1.40999,0 c -0.41777,0 -1.04443,0 -1.04443,0.80895 0,0.78285 0.65276,0.78285 1.04443,0.78285 l 4.62164,0 c 0.39166,0 1.04444,0 1.04444,-0.78285 0,-0.80895 -0.62667,-0.80895 -1.04444,-0.80895 l -1.40999,0 0,-4.59273 c 0,-2.73999 2.24553,-3.62722 3.68164,-3.62722 1.82776,0 2.11498,0.91333 2.11498,2.37465 l 0,5.8453 -1.40999,0 c -0.39167,0 -1.04444,0 -1.04444,0.78285 0,0.80895 0.62667,0.80895 1.04444,0.80895 l 4.62164,0 c 0.39167,0 1.04443,0 1.04443,-0.78285"
         style="font-size:26.10300064px;font-style:normal;font-variant:normal;font-weight:normal;font-stretch:normal;line-height:0%;letter-spacing:1.22357821px;word-spacing:0px;fill:#ff6633;fill-opacity:1;stroke:#ff6633;stroke-width:0.83051169;stroke-miterlimit:4;stroke-opacity:1;font-family:Latin Modern Mono Prop;-inkscape-font-specification:Latin Modern Mono Prop"
         id="path4844"
         inkscape:connector-curvature="0" />
      <path
         d="m 833.88691,869.32141 c 0,-0.73065 -0.75722,-0.73065 -0.91388,-0.73065 -0.41777,0 -0.67888,0.0522 -0.86166,0.57408 -0.52221,1.25257 -1.77554,1.5657 -2.61109,1.5657 -1.95832,0 -3.8122,-1.40913 -4.17775,-3.54892 l 7.51995,0 c 0.54832,0 1.04443,-10e-6 1.04443,-0.96552 0,-3.10531 -1.72332,-5.53215 -4.93497,-5.53215 -3.08108,0 -5.48329,2.6617 -5.48329,5.7931 0,3.23578 2.58498,5.8453 5.87496,5.8453 3.31609,0 4.5433,-2.32246 4.5433,-3.00094 m -1.85387,-3.70549 -6.6844,0 c 0.36555,-1.95714 1.87999,-3.34018 3.6033,-3.34018 1.30555,0 2.87221,0.65239 3.0811,3.34018"
         style="font-size:26.10300064px;font-style:normal;font-variant:normal;font-weight:normal;font-stretch:normal;line-height:0%;letter-spacing:1.22357821px;word-spacing:0px;fill:#ff6633;fill-opacity:1;stroke:#ff6633;stroke-width:0.83051169;stroke-miterlimit:4;stroke-opacity:1;font-family:Latin Modern Mono Prop;-inkscape-font-specification:Latin Modern Mono Prop"
         id="path4846"
         inkscape:connector-curvature="0" />
      <path
         d="m 845.75882,868.90389 c 0,-2.71389 -3.1072,-3.28798 -3.94275,-3.44454 -2.03665,-0.36533 -3.42054,-0.62629 -3.42054,-1.69619 0,-0.80894 0.80945,-1.48742 2.74166,-1.48742 1.95831,0 2.08887,0.99162 2.14109,1.51351 0.0261,0.36534 0.0783,0.83505 0.88778,0.83505 0.91388,0 0.91388,-0.54799 0.91388,-1.06989 l 0,-1.80057 c 0,-0.41752 0,-1.06989 -0.78333,-1.06989 -0.52222,0 -0.705,0.36533 -0.75722,0.5219 -0.67888,-0.39143 -1.54054,-0.5219 -2.34999,-0.5219 -3.75996,0 -4.38663,2.0876 -4.38663,3.07921 0,2.37465 2.81999,2.89656 3.78609,3.07923 0.20888,0.0522 1.48832,0.28704 1.59277,0.28704 0.86166,0.20876 1.98443,0.73066 1.98443,1.77446 0,1.82665 -2.42832,1.82665 -2.79387,1.82665 -1.95833,0 -2.45444,-1.30475 -2.76776,-2.40074 -0.0783,-0.31314 -0.18278,-0.65238 -0.88777,-0.65238 -0.91389,0 -0.91389,0.54801 -0.91389,1.06991 l 0,2.50512 c 0,0.41752 0,1.0699 0.78333,1.0699 0.65277,0 0.86166,-0.67847 0.91389,-0.88724 0.83554,0.67847 1.85387,0.88724 2.84608,0.88724 3.44665,0 4.41275,-1.98323 4.41275,-3.41846"
         style="font-size:26.10300064px;font-style:normal;font-variant:normal;font-weight:normal;font-stretch:normal;line-height:0%;letter-spacing:1.22357821px;word-spacing:0px;fill:#ff6633;fill-opacity:1;stroke:#ff6633;stroke-width:0.83051169;stroke-miterlimit:4;stroke-opacity:1;font-family:Latin Modern Mono Prop;-inkscape-font-specification:Latin Modern Mono Prop"
         id="path4848"
         inkscape:connector-curvature="0" />
      <path
         d="m 857.03711,868.90389 c 0,-0.4958 0,-1.0438 -0.91388,-1.0438 -0.88777,0 -0.88777,0.548 -0.88777,1.01771 0,1.27866 -0.67888,1.85274 -1.33166,1.85274 -1.27943,0 -1.27943,-1.35693 -1.27943,-1.93103 l 0,-6.28891 2.89831,0 c 0.39166,0 1.04444,0 1.04444,-0.78285 0,-0.80894 -0.62666,-0.80895 -1.04444,-0.80895 l -2.89831,0 0,-2.13979 c 0,-0.49581 0,-1.0699 -0.88778,-1.0699 -0.91388,0 -0.91388,0.548 -0.91388,1.0699 l 0,2.13979 -1.33165,0 c -0.41778,0 -1.07056,10e-6 -1.07056,0.80895 0,0.78285 0.65278,0.78285 1.04444,0.78285 l 1.35777,0 0,6.44548 c 0,2.66169 1.74943,3.36627 2.97665,3.36627 1.74943,0 3.23775,-1.40914 3.23775,-3.41846"
         style="font-size:26.10300064px;font-style:normal;font-variant:normal;font-weight:normal;font-stretch:normal;line-height:0%;letter-spacing:1.22357821px;word-spacing:0px;fill:#ff6633;fill-opacity:1;stroke:#ff6633;stroke-width:0.83051169;stroke-miterlimit:4;stroke-opacity:1;font-family:Latin Modern Mono Prop;-inkscape-font-specification:Latin Modern Mono Prop"
         id="path4850"
         inkscape:connector-curvature="0" />
      <path
         d="m 867.4052,866.55533 c 0,-0.80894 -0.62667,-0.80894 -1.04444,-0.80894 l -5.19608,0 c -0.39166,0 -1.04443,0 -1.04443,0.78285 0,0.80895 0.62666,0.80895 1.04443,0.80895 l 5.19608,0 c 0.39166,0 1.04444,0 1.04444,-0.78286"
         style="font-size:26.10300064px;font-style:normal;font-variant:normal;font-weight:normal;font-stretch:normal;line-height:0%;letter-spacing:1.22357821px;word-spacing:0px;fill:#ff6633;fill-opacity:1;stroke:#ff6633;stroke-width:0.83051169;stroke-miterlimit:4;stroke-opacity:1;font-family:Latin Modern Mono Prop;-inkscape-font-specification:Latin Modern Mono Prop"
         id="path4852"
         inkscape:connector-curvature="0" />
      <path
         d="m 880.02943,868.90389 c 0,-2.71389 -3.10721,-3.28798 -3.94276,-3.44454 -2.03665,-0.36533 -3.42053,-0.62629 -3.42053,-1.69619 0,-0.80894 0.80945,-1.48742 2.74165,-1.48742 1.95832,0 2.08888,0.99162 2.14109,1.51351 0.0261,0.36534 0.0783,0.83505 0.88777,0.83505 0.91389,0 0.91389,-0.54799 0.91389,-1.06989 l 0,-1.80057 c 0,-0.41752 0,-1.06989 -0.78333,-1.06989 -0.52222,0 -0.70499,0.36533 -0.75722,0.5219 -0.67888,-0.39143 -1.54055,-0.5219 -2.34998,-0.5219 -3.75997,0 -4.38663,2.0876 -4.38663,3.07921 0,2.37465 2.81997,2.89656 3.78608,3.07923 0.20889,0.0522 1.48832,0.28704 1.59277,0.28704 0.86165,0.20876 1.98442,0.73066 1.98442,1.77446 0,1.82665 -2.42831,1.82665 -2.79387,1.82665 -1.95831,0 -2.45442,-1.30475 -2.76776,-2.40074 -0.0783,-0.31314 -0.18277,-0.65238 -0.88777,-0.65238 -0.91387,0 -0.91387,0.54801 -0.91387,1.06991 l 0,2.50512 c 0,0.41752 0,1.0699 0.78332,1.0699 0.65277,0 0.86167,-0.67847 0.91388,-0.88724 0.83556,0.67847 1.85389,0.88724 2.8461,0.88724 3.44663,0 4.41275,-1.98323 4.41275,-3.41846"
         style="font-size:26.10300064px;font-style:normal;font-variant:normal;font-weight:normal;font-stretch:normal;line-height:0%;letter-spacing:1.22357821px;word-spacing:0px;fill:#ff6633;fill-opacity:1;stroke:#ff6633;stroke-width:0.83051169;stroke-miterlimit:4;stroke-opacity:1;font-family:Latin Modern Mono Prop;-inkscape-font-specification:Latin Modern Mono Prop"
         id="path4854"
         inkscape:connector-curvature="0" />
      <path
         d="m 889.1144,871.38293 c 0,-0.80895 -0.65278,-0.80895 -1.07055,-0.80895 l -1.14888,0 0,-8.58528 c 0,-0.80894 -0.15666,-1.0699 -1.04443,-1.0699 l -2.03666,0 c -0.39166,0 -1.07055,10e-6 -1.07055,0.78285 0,0.80895 0.67889,0.80895 1.07055,0.80895 l 1.27944,0 0,8.06338 -1.40999,0 c -0.41778,0 -1.04444,0 -1.04444,0.80895 0,0.78285 0.65277,0.78285 1.04444,0.78285 l 4.38663,0 c 0.39166,0 1.04444,0 1.04444,-0.78285 m -1.80166,-13.41287 c 0,-0.70456 -0.60055,-1.30475 -1.30555,-1.30475 -0.80943,0 -1.33165,0.65237 -1.33165,1.30475 0,0.70457 0.60055,1.30476 1.30555,1.30476 0.80943,0 1.33165,-0.65238 1.33165,-1.30476"
         style="font-size:26.10300064px;font-style:normal;font-variant:normal;font-weight:normal;font-stretch:normal;line-height:0%;letter-spacing:1.22357821px;word-spacing:0px;fill:#ff6633;fill-opacity:1;stroke:#ff6633;stroke-width:0.83051169;stroke-miterlimit:4;stroke-opacity:1;font-family:Latin Modern Mono Prop;-inkscape-font-specification:Latin Modern Mono Prop"
         id="path4856"
         inkscape:connector-curvature="0" />
      <path
         d="m 913.47182,871.38293 c 0,-0.80895 -0.62666,-0.80895 -1.04444,-0.80895 l -1.40998,0 0,-6.00186 c 0,-2.60951 -1.41,-3.80989 -3.7861,-3.80989 -1.43609,0 -2.92441,0.49581 -4.20385,1.85275 -0.65277,-1.46132 -2.03665,-1.85275 -3.42053,-1.85275 -1.43611,0 -2.74166,0.4958 -3.83831,1.48742 0,-0.96551 0,-1.33085 -1.04444,-1.33085 l -2.16721,0 c -0.41777,0 -1.04443,10e-6 -1.04443,0.80895 0,0.78285 0.65277,0.78285 1.04443,0.78285 l 1.40999,0 0,8.06338 -1.40999,0 c -0.41777,0 -1.04443,0 -1.04443,0.80895 0,0.78285 0.65277,0.78285 1.04443,0.78285 l 4.62164,0 c 0.39166,0 1.04444,0 1.04444,-0.78285 0,-0.80895 -0.62666,-0.80895 -1.04444,-0.80895 l -1.40999,0 0,-4.59273 c 0,-2.76608 2.29776,-3.62722 3.68164,-3.62722 1.80165,0 2.1411,0.86114 2.1411,2.37465 l 0,5.8453 -1.41,0 c -0.41776,0 -1.04444,0 -1.04444,0.80895 0,0.78285 0.65278,0.78285 1.04444,0.78285 l 4.62164,0 c 0.39167,0 1.04443,0 1.04443,-0.78285 0,-0.80895 -0.62666,-0.80895 -1.04443,-0.80895 l -1.40999,0 0,-4.59273 c 0,-2.76608 2.29777,-3.62722 3.68165,-3.62722 1.80164,0 2.14109,0.86114 2.14109,2.37465 l 0,5.8453 -1.40999,0 c -0.41778,0 -1.04444,0 -1.04444,0.80895 0,0.78285 0.65278,0.78285 1.04444,0.78285 l 4.62163,0 c 0.39167,0 1.04444,0 1.04444,-0.78285"
         style="font-size:26.10300064px;font-style:normal;font-variant:normal;font-weight:normal;font-stretch:normal;line-height:0%;letter-spacing:1.22357821px;word-spacing:0px;fill:#ff6633;fill-opacity:1;stroke:#ff6633;stroke-width:0.83051169;stroke-miterlimit:4;stroke-opacity:1;font-family:Latin Modern Mono Prop;-inkscape-font-specification:Latin Modern Mono Prop"
         id="path4858"
         inkscape:connector-curvature="0" />
      <path
         d="m 929.12737,871.38293 c 0,-0.80895 -0.62667,-0.80895 -1.04444,-0.80895 l -1.40999,0 0,-8.58528 c 0,-0.80894 -0.15666,-1.0699 -1.04443,-1.0699 l -2.16721,0 c -0.39167,0 -1.04444,10e-6 -1.04444,0.78285 0,0.80895 0.62666,0.80895 1.04444,0.80895 l 1.40999,0 0,5.55825 c 0,2.45294 -2.53276,2.66169 -3.42054,2.66169 -2.3761,0 -2.3761,-0.91332 -2.3761,-1.72226 l 0,-7.01958 c 0,-0.80894 -0.15666,-1.0699 -1.04443,-1.0699 l -2.16721,0 c -0.41777,0 -1.04444,10e-6 -1.04444,0.80895 0,0.78285 0.65278,0.78285 1.04444,0.78285 l 1.40999,0 0,6.65424 c 0,2.92265 2.58498,3.15751 4.02109,3.15751 1.77554,0 2.89831,-0.548 3.5772,-1.0699 0,0.91333 0.54832,0.91333 1.04443,0.91333 l 2.16721,0 c 0.39166,0 1.04444,0 1.04444,-0.78285"
         style="font-size:26.10300064px;font-style:normal;font-variant:normal;font-weight:normal;font-stretch:normal;line-height:0%;letter-spacing:1.22357821px;word-spacing:0px;fill:#ff6633;fill-opacity:1;stroke:#ff6633;stroke-width:0.83051169;stroke-miterlimit:4;stroke-opacity:1;font-family:Latin Modern Mono Prop;-inkscape-font-specification:Latin Modern Mono Prop"
         id="path4860"
         inkscape:connector-curvature="0" />
      <path
         d="m 938.00142,871.38293 c 0,-0.80895 -0.62667,-0.80895 -1.04444,-0.80895 l -1.40999,0 0,-13.28239 c 0,-0.80894 -0.15667,-1.0699 -1.04444,-1.0699 l -2.16721,0 c -0.41777,0 -1.04443,1e-5 -1.04443,0.80895 0,0.78285 0.65276,0.78285 1.04443,0.78285 l 1.40999,0 0,12.76049 -1.40999,0 c -0.41777,0 -1.04443,0 -1.04443,0.80895 0,0.78285 0.65276,0.78285 1.04443,0.78285 l 4.62164,0 c 0.39166,0 1.04444,0 1.04444,-0.78285"
         style="font-size:26.10300064px;font-style:normal;font-variant:normal;font-weight:normal;font-stretch:normal;line-height:0%;letter-spacing:1.22357821px;word-spacing:0px;fill:#ff6633;fill-opacity:1;stroke:#ff6633;stroke-width:0.83051169;stroke-miterlimit:4;stroke-opacity:1;font-family:Latin Modern Mono Prop;-inkscape-font-specification:Latin Modern Mono Prop"
         id="path4862"
         inkscape:connector-curvature="0" />
      <path
         d="m 952.75002,871.35683 c 0,-0.78285 -0.65277,-0.78285 -1.04444,-0.78285 -0.99221,0 -1.22721,-0.10439 -1.46221,-0.20876 l 0,-5.63654 c 0,-1.90493 -1.43611,-4.04473 -5.03942,-4.04473 -1.09665,0 -3.70774,0 -3.70774,1.90494 0,0.78285 0.54832,1.20036 1.17498,1.20036 0.44389,0 1.12278,-0.26095 1.14888,-1.20036 0,-0.20877 0.0261,-0.23486 0.4439,-0.28705 0.31332,-0.0261 0.65277,-0.0261 0.9661,-0.0261 1.90609,0 3.21165,0.80896 3.21165,2.66171 -4.69997,0.0783 -7.59829,1.51351 -7.59829,3.88815 0,1.82666 1.64499,3.49675 4.17775,3.49675 1.72332,0 3.02887,-0.5219 3.70776,-0.99162 0.52221,0.75676 1.61888,0.83505 2.74164,0.83505 0.70499,0 1.27944,0 1.27944,-0.80895 m -4.3083,-2.68779 c 0,0.57409 0,1.17427 -1.01833,1.64399 -0.91389,0.41751 -2.01054,0.41751 -2.19332,0.41751 -1.56665,0 -2.58498,-0.91332 -2.58498,-1.90494 0,-1.14818 1.69721,-2.21807 5.79663,-2.34855 l 0,2.19199"
         style="font-size:26.10300064px;font-style:normal;font-variant:normal;font-weight:normal;font-stretch:normal;line-height:0%;letter-spacing:1.22357821px;word-spacing:0px;fill:#ff6633;fill-opacity:1;stroke:#ff6633;stroke-width:0.83051169;stroke-miterlimit:4;stroke-opacity:1;font-family:Latin Modern Mono Prop;-inkscape-font-specification:Latin Modern Mono Prop"
         id="path4864"
         inkscape:connector-curvature="0" />
      <path
         d="m 963.36777,868.90389 c 0,-0.4958 0,-1.0438 -0.91387,-1.0438 -0.88777,0 -0.88777,0.548 -0.88777,1.01771 0,1.27866 -0.67889,1.85274 -1.33167,1.85274 -1.27943,0 -1.27943,-1.35693 -1.27943,-1.93103 l 0,-6.28891 2.89831,0 c 0.39167,0 1.04444,0 1.04444,-0.78285 0,-0.80894 -0.62666,-0.80895 -1.04444,-0.80895 l -2.89831,0 0,-2.13979 c 0,-0.49581 0,-1.0699 -0.88777,-1.0699 -0.91388,0 -0.91388,0.548 -0.91388,1.0699 l 0,2.13979 -1.33166,0 c -0.41778,0 -1.07055,10e-6 -1.07055,0.80895 0,0.78285 0.65277,0.78285 1.04443,0.78285 l 1.35778,0 0,6.44548 c 0,2.66169 1.74943,3.36627 2.97664,3.36627 1.74943,0 3.23775,-1.40914 3.23775,-3.41846"
         style="font-size:26.10300064px;font-style:normal;font-variant:normal;font-weight:normal;font-stretch:normal;line-height:0%;letter-spacing:1.22357821px;word-spacing:0px;fill:#ff6633;fill-opacity:1;stroke:#ff6633;stroke-width:0.83051169;stroke-miterlimit:4;stroke-opacity:1;font-family:Latin Modern Mono Prop;-inkscape-font-specification:Latin Modern Mono Prop"
         id="path4866"
         inkscape:connector-curvature="0" />
      <path
         d="m 978.82749,866.52924 c 0,-3.18359 -2.58498,-5.84529 -5.84884,-5.84529 -3.26387,0 -5.84885,2.6617 -5.84885,5.84529 0,3.23579 2.6372,5.79311 5.84885,5.79311 3.21164,0 5.84884,-2.55732 5.84884,-5.79311 m -1.80165,-0.18266 c 0,2.37465 -1.80165,4.38396 -4.04719,4.38396 -2.27165,0 -4.0472,-2.00931 -4.0472,-4.38396 0,-2.34856 1.87999,-4.07084 4.0472,-4.07084 2.1672,0 4.04719,1.72228 4.04719,4.07084"
         style="font-size:26.10300064px;font-style:normal;font-variant:normal;font-weight:normal;font-stretch:normal;line-height:0%;letter-spacing:1.22357821px;word-spacing:0px;fill:#ff6633;fill-opacity:1;stroke:#ff6633;stroke-width:0.83051169;stroke-miterlimit:4;stroke-opacity:1;font-family:Latin Modern Mono Prop;-inkscape-font-specification:Latin Modern Mono Prop"
         id="path4868"
         inkscape:connector-curvature="0" />
      <path
         d="m 990.94991,862.38012 c 0,-0.73065 -0.65278,-1.61789 -1.95833,-1.61789 -1.35776,0 -2.42832,0.67848 -3.21164,1.5918 0,-1.09599 0,-1.43523 -1.04444,-1.43523 l -2.1672,0 c -0.41778,0 -1.04444,10e-6 -1.04444,0.80895 0,0.78285 0.65277,0.78285 1.04444,0.78285 l 1.40999,0 0,8.06338 -1.40999,0 c -0.41778,0 -1.04444,0 -1.04444,0.80895 0,0.78285 0.65277,0.78285 1.04444,0.78285 l 5.24829,0 c 0.39166,0 1.04444,0 1.04444,-0.78285 0,-0.80895 -0.62666,-0.80895 -1.04444,-0.80895 l -2.03665,0 0,-3.31408 c 0,-2.29636 0.96611,-4.64492 2.97665,-4.87978 0.0522,0.93943 0.75721,1.12209 1.09665,1.12209 0.57445,0 1.09667,-0.41752 1.09667,-1.12209"
         style="font-size:26.10300064px;font-style:normal;font-variant:normal;font-weight:normal;font-stretch:normal;line-height:0%;letter-spacing:1.22357821px;word-spacing:0px;fill:#ff6633;fill-opacity:1;stroke:#ff6633;stroke-width:0.83051169;stroke-miterlimit:4;stroke-opacity:1;font-family:Latin Modern Mono Prop;-inkscape-font-specification:Latin Modern Mono Prop"
         id="path4870"
         inkscape:connector-curvature="0" />
      <path
         d="m 998.08023,870.86102 c 0,-0.73066 -0.57444,-1.30475 -1.30554,-1.30475 -0.7311,0 -1.30555,0.57409 -1.30555,1.30475 0,0.73066 0.57445,1.30476 1.30555,1.30476 0.7311,0 1.30554,-0.5741 1.30554,-1.30476"
         style="font-size:26.10300064px;font-style:normal;font-variant:normal;font-weight:normal;font-stretch:normal;line-height:0%;letter-spacing:1.22357821px;word-spacing:0px;fill:#ff6633;fill-opacity:1;stroke:#ff6633;stroke-width:0.83051169;stroke-miterlimit:4;stroke-opacity:1;font-family:Latin Modern Mono Prop;-inkscape-font-specification:Latin Modern Mono Prop"
         id="path4872"
         inkscape:connector-curvature="0" />
      <path
         d="m 1014.526,866.52924 c 0,-3.18359 -2.585,-5.84529 -5.8489,-5.84529 -3.2637,0 -5.8487,2.6617 -5.8487,5.84529 0,3.23579 2.6372,5.79311 5.8487,5.79311 3.2117,0 5.8489,-2.55732 5.8489,-5.79311 m -1.8016,-0.18266 c 0,2.37465 -1.8017,4.38396 -4.0473,4.38396 -2.2715,0 -4.0471,-2.00931 -4.0471,-4.38396 0,-2.34856 1.88,-4.07084 4.0471,-4.07084 2.1673,0 4.0473,1.72228 4.0473,4.07084"
         style="font-size:26.10300064px;font-style:normal;font-variant:normal;font-weight:normal;font-stretch:normal;line-height:0%;letter-spacing:1.22357821px;word-spacing:0px;fill:#ff6633;fill-opacity:1;stroke:#ff6633;stroke-width:0.83051169;stroke-miterlimit:4;stroke-opacity:1;font-family:Latin Modern Mono Prop;-inkscape-font-specification:Latin Modern Mono Prop"
         id="path4874"
         inkscape:connector-curvature="0" />
      <path
         d="m 1026.6484,862.38012 c 0,-0.73065 -0.6527,-1.61789 -1.9583,-1.61789 -1.3577,0 -2.4283,0.67848 -3.2116,1.5918 0,-1.09599 0,-1.43523 -1.0445,-1.43523 l -2.1671,0 c -0.4179,0 -1.0445,10e-6 -1.0445,0.80895 0,0.78285 0.6527,0.78285 1.0445,0.78285 l 1.4099,0 0,8.06338 -1.4099,0 c -0.4179,0 -1.0445,0 -1.0445,0.80895 0,0.78285 0.6527,0.78285 1.0445,0.78285 l 5.2483,0 c 0.3916,0 1.0444,0 1.0444,-0.78285 0,-0.80895 -0.6267,-0.80895 -1.0444,-0.80895 l -2.0367,0 0,-3.31408 c 0,-2.29636 0.9661,-4.64492 2.9766,-4.87978 0.052,0.93943 0.7573,1.12209 1.0967,1.12209 0.5744,0 1.0966,-0.41752 1.0966,-1.12209"
         style="font-size:26.10300064px;font-style:normal;font-variant:normal;font-weight:normal;font-stretch:normal;line-height:0%;letter-spacing:1.22357821px;word-spacing:0px;fill:#ff6633;fill-opacity:1;stroke:#ff6633;stroke-width:0.83051169;stroke-miterlimit:4;stroke-opacity:1;font-family:Latin Modern Mono Prop;-inkscape-font-specification:Latin Modern Mono Prop"
         id="path4876"
         inkscape:connector-curvature="0" />
      <path
         d="m 1041.9515,862.04089 c 0,-0.60018 -0.4961,-1.40914 -1.9061,-1.40914 -0.2872,0 -1.5667,0.0261 -2.7678,0.91334 -0.4177,-0.28706 -1.3316,-0.78286 -2.5327,-0.78286 -2.4545,0 -4.3083,1.95713 -4.3083,4.17522 0,1.12207 0.4439,1.98322 0.8355,2.47902 -0.2872,0.41753 -0.5221,0.99162 -0.5221,1.77447 0,0.91332 0.3655,1.56571 0.6004,1.87884 -1.9322,1.17428 -1.9322,2.94875 -1.9322,3.23579 0,2.24418 2.7417,3.83598 6.0839,3.83598 3.3422,0 6.0838,-1.6179 6.0838,-3.83598 0,-0.96552 -0.47,-2.27027 -1.8016,-2.97484 -0.3394,-0.18266 -1.4361,-0.75675 -3.7861,-0.75675 l -1.8277,0 c -0.209,0 -0.5484,0 -0.7572,-0.0522 -0.3918,0 -0.5484,0 -0.8617,-0.36533 -0.2873,-0.36533 -0.3134,-0.93943 -0.3134,-0.93943 0,-0.10437 0.052,-0.46971 0.1567,-0.73065 0.078,0.0522 1.0706,0.65237 2.35,0.65237 2.4022,0 4.3083,-1.87885 4.3083,-4.2013 0,-0.78286 -0.235,-1.53962 -0.6789,-2.27027 0.5483,-0.31315 1.175,-0.41753 1.5144,-0.44363 0.1567,0.70458 0.7573,0.88724 1.0183,0.88724 0.444,0 1.0445,-0.31314 1.0445,-1.0699 m -4.7,2.89656 c 0,1.48741 -1.1488,2.63559 -2.5066,2.63559 -1.41,0 -2.5067,-1.22646 -2.5067,-2.6095 0,-1.48742 1.149,-2.6356 2.5067,-2.6356 1.41,0 2.5066,1.22647 2.5066,2.60951 m 2.82,9.36812 c 0,1.14819 -1.9583,2.27028 -4.5694,2.27028 -2.6111,0 -4.5694,-1.12209 -4.5694,-2.27028 0,-0.46971 0.235,-1.30476 1.0705,-1.82666 0.6528,-0.41751 0.8878,-0.41751 2.7939,-0.41751 2.3239,0 5.2744,0 5.2744,2.24417"
         style="font-size:26.10300064px;font-style:normal;font-variant:normal;font-weight:normal;font-stretch:normal;line-height:0%;letter-spacing:1.22357821px;word-spacing:0px;fill:#ff6633;fill-opacity:1;stroke:#ff6633;stroke-width:0.83051169;stroke-miterlimit:4;stroke-opacity:1;font-family:Latin Modern Mono Prop;-inkscape-font-specification:Latin Modern Mono Prop"
         id="path4878"
         inkscape:connector-curvature="0" />
      <path
         inkscape:connector-curvature="0"
         d="m 1042.3664,834.86299 c 0,8.09375 -6.4625,15.69375 -14.4388,15.69375 l -221.89374,0 -10e-4,-84.5925 c 0,-8.0925 6.46375,-14.65375 14.44,-14.65375 l 207.45504,0 c 7.9762,0 14.4387,6.56125 14.4387,14.65375 l 0,68.89875 z"
         style="fill:#ff6633;fill-opacity:1;fill-rule:nonzero;stroke:none"
         id="path3555" />
      <path
         d="m 851.50137,809.8526 0,-12.062 c 0,-9.47199 -3.626,-14.208 -11.47,-14.208 -4.58799,0 -7.918,1.77601 -10.212,5.254 l 0,-2.812 c 0,-0.96199 -0.666,-1.554 -2.072,-1.554 l -6.142,0 c -3.03399,0 -4.514,0.96201 -4.514,3.996 0,2.59 1.33201,3.922 3.922,3.922 0.148,0 0.37,0 0.592,0 l 0,17.464 c -0.148,0 -0.296,0 -0.444,0 -2.73799,0 -4.07,1.33201 -4.07,3.996 0,2.96 1.40601,3.996 4.514,3.996 l 8.954,0 c 3.108,0 4.514,-1.036 4.514,-3.996 0,-2.66399 -1.332,-3.996 -4.07,-3.996 -0.148,0 -0.296,0 -0.444,0 l 0,-10.434 c 0,-5.10599 3.03401,-7.992 6.808,-7.992 4.144,0 5.254,2.73801 5.254,7.992 l 0,10.434 c -0.148,0 -0.296,0 -0.444,0 -2.73799,0 -4.144,1.33201 -4.144,3.996 0,2.96 1.48001,3.996 4.588,3.996 l 8.88,0 c 3.108,0 4.514,-1.036 4.514,-3.996 0,-2.66399 -1.332,-3.996 -4.07,-3.996 -0.148,0 -0.296,0 -0.444,0"
         style="font-size:74px;font-style:normal;font-variant:normal;font-weight:bold;font-stretch:normal;text-align:start;line-height:0%;letter-spacing:-2.5px;word-spacing:0px;writing-mode:lr-tb;text-anchor:start;fill:#ffffff;fill-opacity:1;stroke:none;font-family:Courier 10 Pitch;-inkscape-font-specification:Courier 10 Pitch Bold"
         id="path3557"
         inkscape:connector-curvature="0" />
      <path
         d="m 868.505,803.2666 23.31,0 c 3.77399,0 5.254,-0.518 5.254,-3.7 0,-8.43599 -7.10401,-15.91 -18.056,-15.91 -11.98799,0 -19.684,7.54801 -19.684,17.538 0,9.98999 7.77001,17.538 19.684,17.538 10.58199,0 17.464,-4.144 17.464,-8.288 0,-2.14599 -1.332,-3.552 -3.256,-3.552 -2.664,0 -6.14201,4.366 -13.912,4.366 -5.994,0 -9.546,-2.59 -10.804,-7.992 m 0,-5.624 c 1.258,-4.73599 4.44,-7.03 9.694,-7.03 5.40199,0 8.954,2.51601 9.768,7.03 l -19.462,0"
         style="font-size:74px;font-style:normal;font-variant:normal;font-weight:bold;font-stretch:normal;text-align:start;line-height:0%;letter-spacing:-2.5px;word-spacing:0px;writing-mode:lr-tb;text-anchor:start;fill:#ffffff;fill-opacity:1;stroke:none;font-family:Courier 10 Pitch;-inkscape-font-specification:Courier 10 Pitch Bold"
         id="path3559"
         inkscape:connector-curvature="0" />
      <path
         d="m 910.81662,817.4006 c 3.478,0.962 6.95601,1.332 10.73,1.332 10.13799,0 15.54,-4.292 15.54,-11.322 0,-7.10399 -5.10601,-9.25 -14.356,-10.582 -6.51199,-0.96199 -9.472,-0.666 -9.472,-3.774 0,-2.07199 1.99801,-3.478 5.92,-3.478 6.512,0 8.58401,5.18 12.21,5.18 1.924,0 3.108,-1.184 3.108,-3.256 l 0,-4.44 c 0,-2.44199 -0.962,-3.7 -2.96,-3.7 -1.406,0 -2.59,0.59201 -3.552,1.776 -3.40399,-1.03599 -6.66,-1.554 -9.916,-1.554 -9.17599,0 -14.208,3.92201 -14.208,10.656 0,5.772 4.07001,9.02801 12.432,10.212 7.844,1.11 11.248,1.11001 11.248,4.514 0,1.924 -1.924,3.626 -5.698,3.626 -3.99599,0 -7.03,-1.036 -9.472,-3.182 -1.776,-1.62799 -1.702,-3.7 -4.81,-3.7 -2.58999,0 -3.552,1.18401 -3.552,4.366 l 0,4.884 c 0,2.516 0.51801,3.922 2.886,3.922 1.332,0 2.59,-0.518 3.922,-1.48"
         style="font-size:74px;font-style:normal;font-variant:normal;font-weight:bold;font-stretch:normal;text-align:start;line-height:0%;letter-spacing:-2.5px;word-spacing:0px;writing-mode:lr-tb;text-anchor:start;fill:#ffffff;fill-opacity:1;stroke:none;font-family:Courier 10 Pitch;-inkscape-font-specification:Courier 10 Pitch Bold"
         id="path3561"
         inkscape:connector-curvature="0" />
      <path
         d="m 947.57825,794.3866 3.404,0 0,9.25 c 0,0.296 0,0.592 0,0.814 0,4.366 0.074,7.69601 2.22,10.212 2.072,2.442 5.846,3.922 10.952,3.922 8.95399,0 16.502,-3.996 16.502,-7.252 0,-2.51599 -1.702,-4.144 -3.626,-4.144 -3.108,0 -6.66001,3.256 -11.766,3.256 -4.292,0 -5.402,-2.072 -5.402,-6.808 l 0,-9.25 11.026,0 c 3.034,0 4.588,-0.962 4.588,-3.996 0,-3.03399 -1.554,-3.922 -4.588,-3.922 l -11.026,0 0,-8.436 c 0,-3.10799 -1.11001,-4.514 -4.514,-4.514 -2.812,0 -4.366,1.55401 -4.366,3.034 0,0.148 0,0.59201 0,1.48 l 0,8.436 -3.404,0 c -3.034,0 -4.514,0.88801 -4.514,3.922 0,3.034 1.48,3.996 4.514,3.996"
         style="font-size:74px;font-style:normal;font-variant:normal;font-weight:bold;font-stretch:normal;text-align:start;line-height:0%;letter-spacing:-2.5px;word-spacing:0px;writing-mode:lr-tb;text-anchor:start;fill:#ffffff;fill-opacity:1;stroke:none;font-family:Courier 10 Pitch;-inkscape-font-specification:Courier 10 Pitch Bold"
         id="path3563"
         inkscape:connector-curvature="0" />
      <path
         sodipodi:type="arc"
         style="fill:#ffffff;fill-opacity:1;stroke:none"
         id="path3565"
         sodipodi:cx="-133.20123"
         sodipodi:cy="461.3093"
         sodipodi:rx="9.6343298"
         sodipodi:ry="8.3968925"
         d="m -123.5669,461.3093 c 0,4.63747 -4.31344,8.39689 -9.63433,8.39689 -5.3209,0 -9.63433,-3.75942 -9.63433,-8.39689 0,-4.63748 4.31343,-8.3969 9.63433,-8.3969 5.32089,0 9.63433,3.75942 9.63433,8.3969 z"
         transform="matrix(0.6746707,0,0,0.77409589,1092.6559,432.29267)" />
      <path
         transform="matrix(0.6746707,0,0,0.77409589,1114.6559,432.29267)"
         d="m -123.5669,461.3093 c 0,4.63747 -4.31344,8.39689 -9.63433,8.39689 -5.3209,0 -9.63433,-3.75942 -9.63433,-8.39689 0,-4.63748 4.31343,-8.3969 9.63433,-8.3969 5.32089,0 9.63433,3.75942 9.63433,8.3969 z"
         sodipodi:ry="8.3968925"
         sodipodi:rx="9.6343298"
         sodipodi:cy="461.3093"
         sodipodi:cx="-133.20123"
         id="path3567"
         style="fill:#ffffff;fill-opacity:1;stroke:none"
         sodipodi:type="arc" />
      <path
         sodipodi:type="arc"
         style="fill:#ffffff;fill-opacity:1;stroke:none"
         id="path3569"
         sodipodi:cx="-133.20123"
         sodipodi:cy="461.3093"
         sodipodi:rx="9.6343298"
         sodipodi:ry="8.3968925"
         d="m -123.5669,461.3093 c 0,4.63747 -4.31344,8.39689 -9.63433,8.39689 -5.3209,0 -9.63433,-3.75942 -9.63433,-8.39689 0,-4.63748 4.31343,-8.3969 9.63433,-8.3969 5.32089,0 9.63433,3.75942 9.63433,8.3969 z"
         transform="matrix(0.6746707,0,0,0.77409589,1114.6559,454.29267)" />
      <path
         transform="matrix(0.6746707,0,0,0.77409589,1092.6559,454.29267)"
         d="m -123.5669,461.3093 c 0,4.63747 -4.31344,8.39689 -9.63433,8.39689 -5.3209,0 -9.63433,-3.75942 -9.63433,-8.39689 0,-4.63748 4.31343,-8.3969 9.63433,-8.3969 5.32089,0 9.63433,3.75942 9.63433,8.3969 z"
         sodipodi:ry="8.3968925"
         sodipodi:rx="9.6343298"
         sodipodi:cy="461.3093"
         sodipodi:cx="-133.20123"
         id="path3571"
         style="fill:#ffffff;fill-opacity:1;stroke:none"
         sodipodi:type="arc" />
    </g>
  </g>
</svg>
