<?xml version="1.0" encoding="UTF-8" standalone="no"?>
<!-- Created with Inkscape (http://www.inkscape.org/) -->

<svg
   xmlns:dc="http://purl.org/dc/elements/1.1/"
   xmlns:cc="http://creativecommons.org/ns#"
   xmlns:rdf="http://www.w3.org/1999/02/22-rdf-syntax-ns#"
   xmlns:svg="http://www.w3.org/2000/svg"
   xmlns="http://www.w3.org/2000/svg"
   xmlns:sodipodi="http://sodipodi.sourceforge.net/DTD/sodipodi-0.dtd"
   xmlns:inkscape="http://www.inkscape.org/namespaces/inkscape"
   width="236.33376"
   height="99.246246"
   id="svg3876"
   version="1.1"
   inkscape:version="0.48.5 r10040"
   sodipodi:docname="New document 12">
  <defs
     id="defs3878" />
  <sodipodi:namedview
     id="base"
     pagecolor="#ffffff"
     bordercolor="#666666"
     borderopacity="1.0"
     inkscape:pageopacity="0.0"
     inkscape:pageshadow="2"
     inkscape:zoom="0.35"
     inkscape:cx="-6.83313"
     inkscape:cy="121.0517"
     inkscape:document-units="px"
     inkscape:current-layer="layer1"
     showgrid="false"
     fit-margin-top="0"
     fit-margin-left="0"
     fit-margin-right="0"
     fit-margin-bottom="0"
     inkscape:window-width="501"
     inkscape:window-height="419"
     inkscape:window-x="994"
     inkscape:window-y="252"
     inkscape:window-maximized="0" />
  <metadata
     id="metadata3881">
    <rdf:RDF>
      <cc:Work
         rdf:about="">
        <dc:format>image/svg+xml</dc:format>
        <dc:type
           rdf:resource="http://purl.org/dc/dcmitype/StillImage" />
        <dc:title></dc:title>
      </cc:Work>
    </rdf:RDF>
  </metadata>
  <g
     inkscape:label="Layer 1"
     inkscape:groupmode="layer"
     id="layer1"
     transform="translate(-381.83313,-554.16763)">
    <g
       transform="translate(255.80027,-197.14286)"
       id="g4411">
      <path
         id="path4233"
         style="fill:#ff6633;fill-opacity:1;fill-rule:nonzero;stroke:none"
         d="m 362.36636,834.86299 c 0,8.09375 -6.4625,15.69375 -14.43875,15.69375 l -221.89375,0 -0.001,-84.5925 c 0,-8.0925 6.46375,-14.65375 14.44,-14.65375 l 207.455,0 c 7.97625,0 14.43875,6.56125 14.43875,14.65375 l 0,68.89875 z"
         inkscape:connector-curvature="0" />
      <path
         d="m 171.50137,798.40058 0,-12.062 c 0,-9.47199 -3.626,-14.208 -11.47,-14.208 -4.58799,0 -7.918,1.776 -10.212,5.254 l 0,-2.812 c 0,-0.962 -0.666,-1.554 -2.072,-1.554 l -6.142,0 c -3.03399,0 -4.514,0.962 -4.514,3.996 0,2.59 1.33201,3.922 3.922,3.922 0.148,0 0.37,0 0.592,0 l 0,17.464 c -0.148,0 -0.296,0 -0.444,0 -2.73799,0 -4.07,1.332 -4.07,3.996 0,2.96 1.40601,3.996 4.514,3.996 l 8.954,0 c 3.108,0 4.514,-1.036 4.514,-3.996 0,-2.664 -1.332,-3.996 -4.07,-3.996 -0.148,0 -0.296,0 -0.444,0 l 0,-10.434 c 0,-5.106 3.03401,-7.992 6.808,-7.992 4.144,0 5.254,2.738 5.254,7.992 l 0,10.434 c -0.148,0 -0.296,0 -0.444,0 -2.73799,0 -4.144,1.332 -4.144,3.996 0,2.96 1.48001,3.996 4.588,3.996 l 8.88,0 c 3.108,0 4.514,-1.036 4.514,-3.996 0,-2.664 -1.332,-3.996 -4.07,-3.996 -0.148,0 -0.296,0 -0.444,0"
         style="font-size:74px;font-style:normal;font-variant:normal;font-weight:bold;font-stretch:normal;text-align:start;line-height:0%;letter-spacing:-2.5px;word-spacing:0px;writing-mode:lr-tb;text-anchor:start;fill:#ffffff;fill-opacity:1;stroke:none;font-family:Courier 10 Pitch;-inkscape-font-specification:Courier 10 Pitch Bold"
         id="path4388"
         inkscape:connector-curvature="0" />
      <path
         d="m 188.505,791.81458 23.31,0 c 3.77399,0 5.254,-0.51801 5.254,-3.7 0,-8.43599 -7.10401,-15.91 -18.056,-15.91 -11.98799,0 -19.684,7.54801 -19.684,17.538 0,9.98999 7.77001,17.538 19.684,17.538 10.58199,0 17.464,-4.14401 17.464,-8.288 0,-2.146 -1.332,-3.552 -3.256,-3.552 -2.664,0 -6.14201,4.366 -13.912,4.366 -5.994,0 -9.546,-2.59001 -10.804,-7.992 m 0,-5.624 c 1.258,-4.736 4.44,-7.03 9.694,-7.03 5.40199,0 8.954,2.516 9.768,7.03 l -19.462,0"
         style="font-size:74px;font-style:normal;font-variant:normal;font-weight:bold;font-stretch:normal;text-align:start;line-height:0%;letter-spacing:-2.5px;word-spacing:0px;writing-mode:lr-tb;text-anchor:start;fill:#ffffff;fill-opacity:1;stroke:none;font-family:Courier 10 Pitch;-inkscape-font-specification:Courier 10 Pitch Bold"
         id="path4390"
         inkscape:connector-curvature="0" />
      <path
         d="m 230.81662,805.94858 c 3.478,0.962 6.95601,1.332 10.73,1.332 10.13799,0 15.54,-4.29201 15.54,-11.322 0,-7.10399 -5.10601,-9.25 -14.356,-10.582 -6.51199,-0.962 -9.472,-0.666 -9.472,-3.774 0,-2.072 1.99801,-3.478 5.92,-3.478 6.512,0 8.58401,5.18 12.21,5.18 1.924,0 3.108,-1.184 3.108,-3.256 l 0,-4.44 c 0,-2.442 -0.962,-3.7 -2.96,-3.7 -1.406,0 -2.59,0.592 -3.552,1.776 -3.40399,-1.036 -6.66,-1.554 -9.916,-1.554 -9.17599,0 -14.208,3.922 -14.208,10.656 0,5.77199 4.07001,9.028 12.432,10.212 7.844,1.11 11.248,1.11 11.248,4.514 0,1.924 -1.924,3.626 -5.698,3.626 -3.99599,0 -7.03,-1.036 -9.472,-3.182 -1.776,-1.628 -1.702,-3.7 -4.81,-3.7 -2.58999,0 -3.552,1.184 -3.552,4.366 l 0,4.884 c 0,2.516 0.51801,3.922 2.886,3.922 1.332,0 2.59,-0.518 3.922,-1.48"
         style="font-size:74px;font-style:normal;font-variant:normal;font-weight:bold;font-stretch:normal;text-align:start;line-height:0%;letter-spacing:-2.5px;word-spacing:0px;writing-mode:lr-tb;text-anchor:start;fill:#ffffff;fill-opacity:1;stroke:none;font-family:Courier 10 Pitch;-inkscape-font-specification:Courier 10 Pitch Bold"
         id="path4392"
         inkscape:connector-curvature="0" />
      <path
         d="m 267.57825,782.93458 3.404,0 0,9.25 c 0,0.296 0,0.592 0,0.814 0,4.36599 0.074,7.696 2.22,10.212 2.072,2.442 5.846,3.922 10.952,3.922 8.95399,0 16.502,-3.99601 16.502,-7.252 0,-2.516 -1.702,-4.144 -3.626,-4.144 -3.108,0 -6.66001,3.256 -11.766,3.256 -4.292,0 -5.402,-2.07201 -5.402,-6.808 l 0,-9.25 11.026,0 c 3.034,0 4.588,-0.962 4.588,-3.996 0,-3.034 -1.554,-3.922 -4.588,-3.922 l -11.026,0 0,-8.436 c 0,-3.108 -1.11001,-4.514 -4.514,-4.514 -2.812,0 -4.366,1.554 -4.366,3.034 0,0.148 0,0.592 0,1.48 l 0,8.436 -3.404,0 c -3.034,0 -4.514,0.888 -4.514,3.922 0,3.034 1.48,3.996 4.514,3.996"
         style="font-size:74px;font-style:normal;font-variant:normal;font-weight:bold;font-stretch:normal;text-align:start;line-height:0%;letter-spacing:-2.5px;word-spacing:0px;writing-mode:lr-tb;text-anchor:start;fill:#ffffff;fill-opacity:1;stroke:none;font-family:Courier 10 Pitch;-inkscape-font-specification:Courier 10 Pitch Bold"
         id="path4394"
         inkscape:connector-curvature="0" />
      <path
         id="path4239"
         d="m -123.5669,461.3093 c 0,4.63747 -4.31344,8.39689 -9.63433,8.39689 -5.3209,0 -9.63433,-3.75942 -9.63433,-8.39689 0,-4.63748 4.31343,-8.3969 9.63433,-8.3969 5.32089,0 9.63433,3.75942 9.63433,8.3969 z"
         style="fill:#ffffff;fill-opacity:1;stroke:none"
         transform="matrix(0.6746707,0,0,0.77409589,412.65589,420.84064)"
         inkscape:connector-curvature="0" />
      <path
         id="path4241"
         d="m -123.5669,461.3093 c 0,4.63747 -4.31344,8.39689 -9.63433,8.39689 -5.3209,0 -9.63433,-3.75942 -9.63433,-8.39689 0,-4.63748 4.31343,-8.3969 9.63433,-8.3969 5.32089,0 9.63433,3.75942 9.63433,8.3969 z"
         style="fill:#ffffff;fill-opacity:1;stroke:none"
         transform="matrix(0.6746707,0,0,0.77409589,434.65589,420.84064)"
         inkscape:connector-curvature="0" />
      <path
         id="path4243"
         d="m -123.5669,461.3093 c 0,4.63747 -4.31344,8.39689 -9.63433,8.39689 -5.3209,0 -9.63433,-3.75942 -9.63433,-8.39689 0,-4.63748 4.31343,-8.3969 9.63433,-8.3969 5.32089,0 9.63433,3.75942 9.63433,8.3969 z"
         style="fill:#ffffff;fill-opacity:1;stroke:none"
         transform="matrix(0.6746707,0,0,0.77409589,434.65589,442.84064)"
         inkscape:connector-curvature="0" />
      <path
         id="path4245"
         d="m -123.5669,461.3093 c 0,4.63747 -4.31344,8.39689 -9.63433,8.39689 -5.3209,0 -9.63433,-3.75942 -9.63433,-8.39689 0,-4.63748 4.31343,-8.3969 9.63433,-8.3969 5.32089,0 9.63433,3.75942 9.63433,8.3969 z"
         style="fill:#ffffff;fill-opacity:1;stroke:none"
         transform="matrix(0.6746707,0,0,0.77409589,412.65589,442.84064)"
         inkscape:connector-curvature="0" />
      <path
         d="m 183.76842,833.04138 c 0,-3.32799 -3.808,-4.032 -4.832,-4.224 -2.49599,-0.448 -4.192,-0.768 -4.192,-2.08 0,-0.992 0.99201,-1.824 3.36,-1.824 2.4,0 2.56,1.216 2.624,1.856 0.032,0.448 0.096,1.024 1.088,1.024 1.12,0 1.12,-0.672 1.12,-1.312 l 0,-2.208 c 0,-0.512 0,-1.312 -0.96,-1.312 -0.64,0 -0.864,0.448 -0.928,0.64 -0.83199,-0.48 -1.888,-0.64 -2.88,-0.64 -4.60799,0 -5.376,2.56 -5.376,3.776 0,2.912 3.45601,3.552 4.64,3.776 0.256,0.064 1.824,0.352 1.952,0.352 1.056,0.256 2.432,0.896 2.432,2.176 0,2.24 -2.976,2.24 -3.424,2.24 -2.39999,0 -3.008,-1.6 -3.392,-2.944 -0.096,-0.384 -0.224,-0.8 -1.088,-0.8 -1.11999,0 -1.12,0.672 -1.12,1.312 l 0,3.072 c 0,0.512 1e-5,1.312 0.96,1.312 0.8,0 1.056,-0.832 1.12,-1.088 1.024,0.832 2.27201,1.088 3.488,1.088 4.224,0 5.408,-2.432 5.408,-4.192"
         style="font-size:32px;font-style:normal;font-variant:normal;font-weight:normal;font-stretch:normal;line-height:0%;letter-spacing:1.5px;word-spacing:0px;fill:#ffffff;fill-opacity:1;stroke:#ffffff;stroke-width:1;stroke-miterlimit:4;stroke-opacity:1;font-family:Latin Modern Mono Prop;-inkscape-font-specification:Latin Modern Mono Prop"
         id="path4361"
         inkscape:connector-curvature="0" />
      <path
         d="m 194.90242,836.08138 c 0,-0.992 -0.8,-0.992 -1.312,-0.992 l -1.408,0 0,-10.528 c 0,-0.992 -0.192,-1.312 -1.28,-1.312 l -2.496,0 c -0.48,0 -1.312,0 -1.312,0.96 0,0.992 0.832,0.992 1.312,0.992 l 1.568,0 0,9.888 -1.728,0 c -0.512,0 -1.28,0 -1.28,0.992 0,0.96 0.8,0.96 1.28,0.96 l 5.376,0 c 0.48,0 1.28,0 1.28,-0.96 m -2.208,-16.448 c 0,-0.864 -0.736,-1.6 -1.6,-1.6 -0.99199,0 -1.632,0.8 -1.632,1.6 0,0.864 0.73601,1.6 1.6,1.6 0.992,0 1.632,-0.8 1.632,-1.6"
         style="font-size:32px;font-style:normal;font-variant:normal;font-weight:normal;font-stretch:normal;line-height:0%;letter-spacing:1.5px;word-spacing:0px;fill:#ffffff;fill-opacity:1;stroke:#ffffff;stroke-width:1;stroke-miterlimit:4;stroke-opacity:1;font-family:Latin Modern Mono Prop;-inkscape-font-specification:Latin Modern Mono Prop"
         id="path4363"
         inkscape:connector-curvature="0" />
      <path
         d="m 224.75342,836.08138 c 0,-0.992 -0.768,-0.992 -1.28,-0.992 l -1.728,0 0,-7.36 c 0,-3.19999 -1.728,-4.672 -4.64,-4.672 -1.75999,0 -3.584,0.608 -5.152,2.272 -0.79999,-1.792 -2.496,-2.272 -4.192,-2.272 -1.75999,0 -3.36,0.608 -4.704,1.824 0,-1.184 0,-1.632 -1.28,-1.632 l -2.656,0 c -0.512,0 -1.28,0 -1.28,0.992 0,0.96 0.8,0.96 1.28,0.96 l 1.728,0 0,9.888 -1.728,0 c -0.512,0 -1.28,0 -1.28,0.992 0,0.96 0.8,0.96 1.28,0.96 l 5.664,0 c 0.48,0 1.28,0 1.28,-0.96 0,-0.992 -0.768,-0.992 -1.28,-0.992 l -1.728,0 0,-5.632 c 0,-3.39199 2.81601,-4.448 4.512,-4.448 2.208,0 2.624,1.056 2.624,2.912 l 0,7.168 -1.728,0 c -0.512,0 -1.28,0 -1.28,0.992 0,0.96 0.8,0.96 1.28,0.96 l 5.664,0 c 0.48,0 1.28,0 1.28,-0.96 0,-0.992 -0.768,-0.992 -1.28,-0.992 l -1.728,0 0,-5.632 c 0,-3.39199 2.81601,-4.448 4.512,-4.448 2.208,0 2.624,1.056 2.624,2.912 l 0,7.168 -1.728,0 c -0.512,0 -1.28,0 -1.28,0.992 0,0.96 0.8,0.96 1.28,0.96 l 5.664,0 c 0.48,0 1.28,0 1.28,-0.96"
         style="font-size:32px;font-style:normal;font-variant:normal;font-weight:normal;font-stretch:normal;line-height:0%;letter-spacing:1.5px;word-spacing:0px;fill:#ffffff;fill-opacity:1;stroke:#ffffff;stroke-width:1;stroke-miterlimit:4;stroke-opacity:1;font-family:Latin Modern Mono Prop;-inkscape-font-specification:Latin Modern Mono Prop"
         id="path4365"
         inkscape:connector-curvature="0" />
      <path
         d="m 243.93992,836.08138 c 0,-0.992 -0.768,-0.992 -1.28,-0.992 l -1.728,0 0,-10.528 c 0,-0.992 -0.192,-1.312 -1.28,-1.312 l -2.656,0 c -0.48,0 -1.28,0 -1.28,0.96 0,0.992 0.768,0.992 1.28,0.992 l 1.728,0 0,6.816 c 0,3.008 -3.104,3.264 -4.192,3.264 -2.91199,0 -2.912,-1.12 -2.912,-2.112 l 0,-8.608 c 0,-0.992 -0.192,-1.312 -1.28,-1.312 l -2.656,0 c -0.512,0 -1.28,0 -1.28,0.992 0,0.96 0.8,0.96 1.28,0.96 l 1.728,0 0,8.16 c 0,3.584 3.16801,3.872 4.928,3.872 2.176,0 3.55201,-0.672 4.384,-1.312 0,1.12 0.672,1.12 1.28,1.12 l 2.656,0 c 0.48,0 1.28,0 1.28,-0.96"
         style="font-size:32px;font-style:normal;font-variant:normal;font-weight:normal;font-stretch:normal;line-height:0%;letter-spacing:1.5px;word-spacing:0px;fill:#ffffff;fill-opacity:1;stroke:#ffffff;stroke-width:1;stroke-miterlimit:4;stroke-opacity:1;font-family:Latin Modern Mono Prop;-inkscape-font-specification:Latin Modern Mono Prop"
         id="path4367"
         inkscape:connector-curvature="0" />
      <path
         d="m 254.81542,836.08138 c 0,-0.992 -0.768,-0.992 -1.28,-0.992 l -1.728,0 0,-16.288 c 0,-0.992 -0.192,-1.312 -1.28,-1.312 l -2.656,0 c -0.512,0 -1.28,0 -1.28,0.992 0,0.96 0.8,0.96 1.28,0.96 l 1.728,0 0,15.648 -1.728,0 c -0.512,0 -1.28,0 -1.28,0.992 0,0.96 0.8,0.96 1.28,0.96 l 5.664,0 c 0.48,0 1.28,0 1.28,-0.96"
         style="font-size:32px;font-style:normal;font-variant:normal;font-weight:normal;font-stretch:normal;line-height:0%;letter-spacing:1.5px;word-spacing:0px;fill:#ffffff;fill-opacity:1;stroke:#ffffff;stroke-width:1;stroke-miterlimit:4;stroke-opacity:1;font-family:Latin Modern Mono Prop;-inkscape-font-specification:Latin Modern Mono Prop"
         id="path4369"
         inkscape:connector-curvature="0" />
      <path
         d="m 272.89042,836.04938 c 0,-0.96 -0.8,-0.96 -1.28,-0.96 -1.21599,0 -1.504,-0.128 -1.792,-0.256 l 0,-6.912 c 0,-2.336 -1.76,-4.96 -6.176,-4.96 -1.34399,0 -4.544,0 -4.544,2.336 0,0.96 0.67201,1.472 1.44,1.472 0.544,0 1.376,-0.32 1.408,-1.472 0,-0.256 0.032,-0.288 0.544,-0.352 0.384,-0.032 0.8,-0.032 1.184,-0.032 2.336,0 3.936,0.992 3.936,3.264 -5.75999,0.096 -9.312,1.856 -9.312,4.768 0,2.24 2.01601,4.288 5.12,4.288 2.112,0 3.71201,-0.64 4.544,-1.216 0.64,0.928 1.98401,1.024 3.36,1.024 0.864,0 1.568,0 1.568,-0.992 m -5.28,-3.296 c 0,0.704 0,1.44 -1.248,2.016 -1.11999,0.512 -2.464,0.512 -2.688,0.512 -1.91999,0 -3.168,-1.12 -3.168,-2.336 0,-1.408 2.08001,-2.72 7.104,-2.88 l 0,2.688"
         style="font-size:32px;font-style:normal;font-variant:normal;font-weight:normal;font-stretch:normal;line-height:0%;letter-spacing:1.5px;word-spacing:0px;fill:#ffffff;fill-opacity:1;stroke:#ffffff;stroke-width:1;stroke-miterlimit:4;stroke-opacity:1;font-family:Latin Modern Mono Prop;-inkscape-font-specification:Latin Modern Mono Prop"
         id="path4371"
         inkscape:connector-curvature="0" />
      <path
         d="m 285.90292,833.04138 c 0,-0.608 0,-1.28 -1.12,-1.28 -1.08799,0 -1.088,0.672 -1.088,1.248 0,1.568 -0.832,2.272 -1.632,2.272 -1.56799,0 -1.568,-1.664 -1.568,-2.368 l 0,-7.712 3.552,0 c 0.48,0 1.28,0 1.28,-0.96 0,-0.992 -0.768,-0.992 -1.28,-0.992 l -3.552,0 0,-2.624 c 0,-0.608 0,-1.312 -1.088,-1.312 -1.11999,0 -1.12,0.672 -1.12,1.312 l 0,2.624 -1.632,0 c -0.512,0 -1.312,0 -1.312,0.992 0,0.96 0.8,0.96 1.28,0.96 l 1.664,0 0,7.904 c 0,3.264 2.14401,4.128 3.648,4.128 2.144,0 3.968,-1.728 3.968,-4.192"
         style="font-size:32px;font-style:normal;font-variant:normal;font-weight:normal;font-stretch:normal;line-height:0%;letter-spacing:1.5px;word-spacing:0px;fill:#ffffff;fill-opacity:1;stroke:#ffffff;stroke-width:1;stroke-miterlimit:4;stroke-opacity:1;font-family:Latin Modern Mono Prop;-inkscape-font-specification:Latin Modern Mono Prop"
         id="path4373"
         inkscape:connector-curvature="0" />
      <path
         d="m 303.28142,833.55338 c 0,-0.896 -0.928,-0.896 -1.12,-0.896 -0.512,0 -0.832,0.064 -1.056,0.704 -0.64,1.536 -2.176,1.92 -3.2,1.92 -2.39999,0 -4.672,-1.728 -5.12,-4.352 l 9.216,0 c 0.672,0 1.28,0 1.28,-1.184 0,-3.80799 -2.112,-6.784 -6.048,-6.784 -3.77599,0 -6.72,3.26401 -6.72,7.104 0,3.968 3.16801,7.168 7.2,7.168 4.064,0 5.568,-2.848 5.568,-3.68 m -2.272,-4.544 -8.192,0 c 0.448,-2.4 2.30401,-4.096 4.416,-4.096 1.6,0 3.52,0.80001 3.776,4.096"
         style="font-size:32px;font-style:normal;font-variant:normal;font-weight:normal;font-stretch:normal;line-height:0%;letter-spacing:1.5px;word-spacing:0px;fill:#ffffff;fill-opacity:1;stroke:#ffffff;stroke-width:1;stroke-miterlimit:4;stroke-opacity:1;font-family:Latin Modern Mono Prop;-inkscape-font-specification:Latin Modern Mono Prop"
         id="path4375"
         inkscape:connector-curvature="0" />
      <path
         d="m 323.81492,836.08138 c 0,-0.992 -0.768,-0.992 -1.28,-0.992 l -1.728,0 0,-16.288 c 0,-0.992 -0.192,-1.312 -1.28,-1.312 l -2.656,0 c -0.48,0 -1.28,0 -1.28,0.96 0,0.992 0.768,0.992 1.28,0.992 l 1.728,0 0,5.248 c -1.31199,-1.152 -2.848,-1.632 -4.288,-1.632 -3.93599,0 -7.168,3.13601 -7.168,7.104 0,3.936 3.10401,7.072 6.816,7.072 2.272,0 3.84001,-1.184 4.64,-2.048 l 0,0.544 c 0,0.992 0.19201,1.312 1.28,1.312 l 2.656,0 c 0.48,0 1.28,0 1.28,-0.96 m -5.216,-5.344 c 0,1.92 -1.76,4.544 -4.48,4.544 -2.65599,0 -4.768,-2.336 -4.768,-5.12 0,-2.912 2.36801,-5.152 5.12,-5.152 2.24,0 4.128,1.728 4.128,3.616 l 0,2.112"
         style="font-size:32px;font-style:normal;font-variant:normal;font-weight:normal;font-stretch:normal;line-height:0%;letter-spacing:1.5px;word-spacing:0px;fill:#ffffff;fill-opacity:1;stroke:#ffffff;stroke-width:1;stroke-miterlimit:4;stroke-opacity:1;font-family:Latin Modern Mono Prop;-inkscape-font-specification:Latin Modern Mono Prop"
         id="path4377"
         inkscape:connector-curvature="0" />
      <path
         d="m 337.09042,838.76938 c 0,-0.48 -0.224,-0.608 -0.8,-0.992 -3.96799,-2.688 -5.44,-6.944 -5.44,-10.528 0,-3.19999 1.21601,-7.648 5.504,-10.56 0.512,-0.352 0.736,-0.48 0.736,-0.96 0,-0.256 -0.16,-0.896 -0.992,-0.896 -0.92799,0 -7.456,4.22401 -7.456,12.416 0,3.808 1.47201,6.688 2.592,8.288 1.696,2.336 4.09601,4.128 4.864,4.128 0.832,0 0.992,-0.64 0.992,-0.896"
         style="font-size:32px;font-style:normal;font-variant:normal;font-weight:normal;font-stretch:normal;line-height:0%;letter-spacing:1.5px;word-spacing:0px;fill:#ffffff;fill-opacity:1;stroke:#ffffff;stroke-width:1;stroke-miterlimit:4;stroke-opacity:1;font-family:Latin Modern Mono Prop;-inkscape-font-specification:Latin Modern Mono Prop"
         id="path4379"
         inkscape:connector-curvature="0" />
      <path
         d="m 350.78892,827.24938 c 0,-3.80799 -1.472,-6.688 -2.592,-8.288 -1.69599,-2.336 -4.096,-4.128 -4.864,-4.128 -0.79999,0 -0.992,0.64 -0.992,0.896 0,0.48 0.352,0.704 0.512,0.8 5.248,3.488 5.728,8.64 5.728,10.72 0,3.2 -1.184,7.648 -5.504,10.56 -0.48,0.32 -0.736,0.48 -0.736,0.96 0,0.256 0.19201,0.896 0.992,0.896 0.928,0 7.456,-4.22401 7.456,-12.416"
         style="font-size:32px;font-style:normal;font-variant:normal;font-weight:normal;font-stretch:normal;line-height:0%;letter-spacing:1.5px;word-spacing:0px;fill:#ffffff;fill-opacity:1;stroke:#ffffff;stroke-width:1;stroke-miterlimit:4;stroke-opacity:1;font-family:Latin Modern Mono Prop;-inkscape-font-specification:Latin Modern Mono Prop"
         id="path4381"
         inkscape:connector-curvature="0" />
    </g>
  </g>
</svg>
