<?xml version="1.0" encoding="UTF-8" standalone="no"?>
<!-- Created with Inkscape (http://www.inkscape.org/) -->
<svg
   xmlns:dc="http://purl.org/dc/elements/1.1/"
   xmlns:cc="http://creativecommons.org/ns#"
   xmlns:rdf="http://www.w3.org/1999/02/22-rdf-syntax-ns#"
   xmlns:svg="http://www.w3.org/2000/svg"
   xmlns="http://www.w3.org/2000/svg"
   xmlns:sodipodi="http://sodipodi.sourceforge.net/DTD/sodipodi-0.dtd"
   xmlns:inkscape="http://www.inkscape.org/namespaces/inkscape"
   id="svg2"
   sodipodi:version="0.32"
   inkscape:version="0.46"
   width="236.33362"
   height="99.72625"
   xml:space="preserve"
   sodipodi:docname="nest-initiative-logo.svg"
   inkscape:output_extension="org.inkscape.output.svg.inkscape"><metadata
     id="metadata7"><rdf:RDF><cc:Work
         rdf:about=""><dc:format>image/svg+xml</dc:format><dc:type
           rdf:resource="http://purl.org/dc/dcmitype/StillImage" /></cc:Work></rdf:RDF></metadata><defs
     id="defs5"><inkscape:perspective
       sodipodi:type="inkscape:persp3d"
       inkscape:vp_x="0 : 526.18109 : 1"
       inkscape:vp_y="0 : 1000 : 0"
       inkscape:vp_z="744.09448 : 526.18109 : 1"
       inkscape:persp3d-origin="372.04724 : 350.78739 : 1"
       id="perspective9" /><clipPath
       clipPathUnits="userSpaceOnUse"
       id="clipPath17"><path
         d="M 0,600 L 800,600 L 800,0 L 0,0 L 0,600 z"
         id="path19" /></clipPath></defs><sodipodi:namedview
     inkscape:window-height="700"
     inkscape:window-width="641"
     inkscape:pageshadow="2"
     inkscape:pageopacity="0.0"
     guidetolerance="10.0"
     gridtolerance="10.0"
     objecttolerance="10.0"
     borderopacity="1.0"
     bordercolor="#666666"
     pagecolor="#ffffff"
     id="base"
     showgrid="false"
     inkscape:zoom="2.3526065"
     inkscape:cx="117.07303"
     inkscape:cy="49.969298"
     inkscape:window-x="579"
     inkscape:window-y="25"
     inkscape:current-layer="g11" /><g
     id="g11"
     inkscape:groupmode="layer"
     inkscape:label="nest-initiative-logo"
     transform="matrix(1.25,0,0,-1.25,-87.416375,532.05875)"><g
       id="g13"><g
         id="g15"
         clip-path="url(#clipPath17)"><path
           d="M 259,358.555 C 259,352.08 253.83,346 247.449,346 L 69.934,346 L 69.933,413.674 C 69.933,420.148 75.104,425.397 81.485,425.397 L 247.449,425.397 C 253.83,425.397 259,420.148 259,413.674 L 259,358.555 z"
           style="fill:#ff6633;fill-opacity:1;fill-rule:nonzero;stroke:none"
           id="path21" /><path
           d="M 88.687,408.012 L 88.687,406.012 C 89.759,406.949 90.94,407.652 92.233,408.121 C 93.524,408.59 94.927,408.824 96.44,408.824 C 99.925,408.824 102.681,407.721 104.71,405.512 C 106.319,403.752 107.124,401.445 107.124,398.59 L 107.124,387.418 C 108.604,387.418 109.647,387.141 110.25,386.584 C 110.854,386.027 111.154,385.301 111.154,384.402 C 111.154,383.504 110.854,382.781 110.25,382.236 C 109.647,381.691 108.604,381.418 107.124,381.418 L 101.249,381.418 C 99.767,381.418 98.724,381.695 98.122,382.252 C 97.519,382.809 97.218,383.535 97.218,384.434 C 97.218,385.332 97.519,386.055 98.122,386.6 C 98.724,387.145 99.767,387.418 101.249,387.418 L 101.249,398.775 C 101.249,400.086 100.903,401.045 100.214,401.65 C 99.312,402.434 97.962,402.824 96.159,402.824 C 94.8,402.824 93.606,402.557 92.581,402.02 C 91.556,401.482 90.257,400.344 88.687,398.605 L 88.687,387.418 C 90.167,387.418 91.101,387.232 91.485,386.861 C 92.306,386.121 92.718,385.301 92.718,384.402 C 92.718,383.504 92.415,382.781 91.812,382.236 C 91.21,381.691 90.167,381.418 88.687,381.418 L 82.812,381.418 C 81.329,381.418 80.287,381.695 79.685,382.252 C 79.081,382.809 78.78,383.535 78.78,384.434 C 78.78,385.332 79.182,386.148 79.985,386.885 C 80.388,387.24 81.329,387.418 82.812,387.418 L 82.812,402.012 C 81.329,402.012 80.287,402.289 79.685,402.846 C 79.081,403.402 78.78,404.129 78.78,405.027 C 78.78,405.926 79.081,406.648 79.685,407.193 C 80.287,407.738 81.329,408.012 82.812,408.012 L 88.687,408.012 z"
           style="fill:#ffffff;fill-opacity:1;fill-rule:nonzero;stroke:none"
           id="path23" /><path
           d="M 137.314,397.668 C 136.416,399.396 135.242,400.688 133.793,401.543 C 132.342,402.396 130.615,402.824 128.611,402.824 C 126.625,402.824 124.908,402.396 123.457,401.543 C 122.008,400.688 120.824,399.396 119.908,397.668 L 137.314,397.668 z M 143.846,391.668 L 119.721,391.668 C 120.332,390.104 121.418,388.844 122.977,387.887 C 124.535,386.928 126.643,386.449 129.301,386.449 C 131.48,386.449 134.379,386.93 137.994,387.893 C 139.486,388.285 140.52,388.48 141.094,388.48 C 141.877,388.48 142.537,388.197 143.072,387.631 C 143.609,387.064 143.877,386.35 143.877,385.49 C 143.877,384.709 143.59,384.045 143.016,383.498 C 142.25,382.775 140.385,382.086 137.42,381.432 C 134.455,380.777 131.605,380.449 128.869,380.449 C 124.164,380.449 120.398,381.807 117.578,384.523 C 114.756,387.24 113.346,390.582 113.346,394.549 C 113.346,398.77 114.871,402.205 117.922,404.852 C 120.973,407.5 124.488,408.824 128.467,408.824 C 130.859,408.824 133.055,408.395 135.053,407.533 C 137.053,406.674 138.539,405.744 139.516,404.748 C 140.893,403.301 142.029,401.512 142.93,399.381 C 143.541,397.895 143.848,396.174 143.848,394.219 L 143.846,391.668 z"
           style="fill:#ffffff;fill-opacity:1;fill-rule:nonzero;stroke:none"
           id="path25" /><path
           d="M 169.193,400.992 C 168.236,401.604 167.23,402.061 166.178,402.367 C 165.125,402.672 164.025,402.824 162.877,402.824 C 160.6,402.824 158.791,402.443 157.451,401.68 C 156.857,401.348 156.561,400.984 156.561,400.594 C 156.561,400.145 156.963,399.703 157.766,399.273 C 158.379,398.961 159.746,398.656 161.871,398.363 C 165.775,397.816 168.494,397.268 170.025,396.721 C 172.033,395.998 173.584,394.924 174.674,393.496 C 175.766,392.07 176.311,390.564 176.311,388.98 C 176.311,386.83 175.383,385.033 173.525,383.586 C 170.865,381.494 167.412,380.449 163.164,380.449 C 161.461,380.449 159.887,380.598 158.443,380.895 C 156.998,381.191 155.674,381.625 154.469,382.199 C 154.182,381.949 153.875,381.756 153.549,381.621 C 153.223,381.486 152.889,381.418 152.545,381.418 C 151.625,381.418 150.893,381.727 150.348,382.342 C 149.801,382.959 149.529,383.99 149.529,385.438 L 149.529,387.461 C 149.529,388.908 149.801,389.939 150.348,390.557 C 150.893,391.172 151.605,391.48 152.486,391.48 C 153.193,391.48 153.787,391.281 154.266,390.881 C 154.744,390.48 155.117,389.793 155.385,388.818 C 156.285,388.039 157.365,387.449 158.629,387.049 C 159.893,386.648 161.348,386.449 162.992,386.449 C 165.691,386.449 167.787,386.879 169.279,387.74 C 169.988,388.172 170.342,388.621 170.342,389.09 C 170.342,389.873 169.834,390.518 168.82,391.027 C 167.805,391.535 165.709,391.967 162.533,392.318 C 157.807,392.828 154.65,393.805 153.064,395.252 C 151.479,396.678 150.686,398.438 150.686,400.527 C 150.686,402.678 151.574,404.467 153.355,405.893 C 155.768,407.848 158.926,408.824 162.83,408.824 C 164.189,408.824 165.494,408.691 166.748,408.424 C 168.002,408.158 169.203,407.748 170.352,407.195 C 170.715,407.469 171.055,407.672 171.371,407.809 C 171.688,407.943 171.979,408.012 172.246,408.012 C 173.051,408.012 173.721,407.703 174.256,407.088 C 174.793,406.473 175.061,405.441 175.061,403.994 L 175.061,402.529 C 175.061,401.219 174.906,400.33 174.6,399.861 C 173.986,398.961 173.152,398.512 172.098,398.512 C 171.389,398.512 170.766,398.738 170.229,399.191 C 169.691,399.645 169.346,400.244 169.193,400.992"
           style="fill:#ffffff;fill-opacity:1;fill-rule:nonzero;stroke:none"
           id="path27" /><path
           d="M 191.225,402.012 L 191.225,389.967 C 191.225,388.676 191.482,387.826 192,387.416 C 192.802,386.771 194.237,386.449 196.302,386.449 C 199.304,386.449 202.077,387.102 204.62,388.408 C 205.597,388.914 206.36,389.168 206.915,389.168 C 207.681,389.168 208.345,388.875 208.909,388.291 C 209.474,387.705 209.755,386.994 209.755,386.154 C 209.755,385.375 209.45,384.701 208.837,384.137 C 207.901,383.219 206.052,382.375 203.288,381.605 C 200.526,380.834 198.198,380.449 196.306,380.449 C 192.653,380.449 189.916,381.256 188.09,382.867 C 186.264,384.479 185.35,386.455 185.35,388.799 L 185.35,402.012 L 183.225,402.012 C 181.807,402.012 180.797,402.289 180.193,402.846 C 179.59,403.402 179.287,404.129 179.287,405.027 C 179.287,405.904 179.59,406.621 180.193,407.178 C 180.797,407.734 181.807,408.012 183.225,408.012 L 185.35,408.012 L 185.35,413.434 C 185.35,414.879 185.623,415.91 186.166,416.525 C 186.711,417.141 187.424,417.449 188.303,417.449 C 189.162,417.449 189.863,417.141 190.408,416.525 C 190.953,415.91 191.225,414.879 191.225,413.434 L 191.225,408.012 L 202.104,408.012 C 203.521,408.012 204.53,407.734 205.132,407.178 C 205.735,406.621 206.036,405.895 206.036,404.998 C 206.036,404.119 205.735,403.402 205.132,402.846 C 204.53,402.289 203.521,402.012 202.104,402.012 L 191.225,402.012 z"
           style="fill:#ffffff;fill-opacity:1;fill-rule:nonzero;stroke:none"
           id="path29" /><path
           d="M 227.427,387.22 C 227.427,384.089 224.888,381.553 221.757,381.553 C 218.628,381.553 216.089,384.089 216.089,387.22 C 216.089,390.35 218.628,392.888 221.757,392.888 C 224.888,392.888 227.427,390.35 227.427,387.22"
           style="fill:#ffffff;fill-opacity:1;fill-rule:nonzero;stroke:none"
           id="path31" /><path
           d="M 227.427,387.22 C 227.427,384.089 224.888,381.553 221.757,381.553 C 218.628,381.553 216.089,384.089 216.089,387.22 C 216.089,390.35 218.628,392.888 221.757,392.888 C 224.888,392.888 227.427,390.35 227.427,387.22 z"
           style="fill:none;stroke:#ff6633;stroke-opacity:1;stroke-width:1.5;stroke-linecap:butt;stroke-linejoin:miter;stroke-miterlimit:4;stroke-dasharray:none"
           id="path33" /><path
           d="M 227.426,404.073 C 227.426,400.942 224.887,398.406 221.756,398.406 C 218.627,398.406 216.088,400.942 216.088,404.073 C 216.088,407.203 218.627,409.741 221.756,409.741 C 224.887,409.741 227.426,407.203 227.426,404.073"
           style="fill:#ffffff;fill-opacity:1;fill-rule:nonzero;stroke:none"
           id="path35" /><path
           d="M 227.426,404.073 C 227.426,400.942 224.887,398.406 221.756,398.406 C 218.627,398.406 216.088,400.942 216.088,404.073 C 216.088,407.203 218.627,409.741 221.756,409.741 C 224.887,409.741 227.426,407.203 227.426,404.073 z"
           style="fill:none;stroke:#ff6633;stroke-opacity:1;stroke-width:1.5;stroke-linecap:butt;stroke-linejoin:miter;stroke-miterlimit:4;stroke-dasharray:none"
           id="path37" /><path
           d="M 245.281,387.219 C 245.281,384.088 242.742,381.552 239.611,381.552 C 236.482,381.552 233.943,384.088 233.943,387.219 C 233.943,390.349 236.482,392.887 239.611,392.887 C 242.742,392.887 245.281,390.349 245.281,387.219"
           style="fill:#ffffff;fill-opacity:1;fill-rule:nonzero;stroke:none"
           id="path39" /><path
           d="M 245.281,387.219 C 245.281,384.088 242.742,381.552 239.611,381.552 C 236.482,381.552 233.943,384.088 233.943,387.219 C 233.943,390.349 236.482,392.887 239.611,392.887 C 242.742,392.887 245.281,390.349 245.281,387.219 z"
           style="fill:none;stroke:#ff6633;stroke-opacity:1;stroke-width:1.5;stroke-linecap:butt;stroke-linejoin:miter;stroke-miterlimit:4;stroke-dasharray:none"
           id="path41" /><path
           d="M 245.28,404.072 C 245.28,400.941 242.741,398.405 239.61,398.405 C 236.481,398.405 233.942,400.941 233.942,404.072 C 233.942,407.202 236.481,409.74 239.61,409.74 C 242.741,409.74 245.28,407.202 245.28,404.072"
           style="fill:#ffffff;fill-opacity:1;fill-rule:nonzero;stroke:none"
           id="path43" /><path
           d="M 245.28,404.072 C 245.28,400.941 242.741,398.405 239.61,398.405 C 236.481,398.405 233.942,400.941 233.942,404.072 C 233.942,407.202 236.481,409.74 239.61,409.74 C 242.741,409.74 245.28,407.202 245.28,404.072 z"
           style="fill:none;stroke:#ff6633;stroke-opacity:1;stroke-width:1.5;stroke-linecap:butt;stroke-linejoin:miter;stroke-miterlimit:4;stroke-dasharray:none"
           id="path45" /><text
           transform="matrix(1,0,0,-1,107,360)"
           id="text47"><tspan
             style="fill:#ffffff;fill-opacity:1;fill-rule:nonzero;stroke:none;font-family:Courier New;font-variant:normal;font-weight:bold;font-stretch:normal;font-size:23;writing-mode:lr;-inkscape-font-specification:CourierNewPS-BoldMT"
             x="0 13.8 27.6 41.4 55.2 69 82.8 96.6 110.4 124.2"
             y="0"
             sodipodi:role="line"
             id="tspan49">initiative</tspan></text>
<text
           transform="matrix(1,0,0,-1,329,407)"
           id="text51"><tspan
             style="fill:#1a171b;fill-opacity:1;fill-rule:nonzero;stroke:none;font-family:Myriad;font-variant:normal;font-weight:normal;font-stretch:normal;font-size:12;writing-mode:lr;-inkscape-font-specification:Myriad-Roman"
             x="0 5.496 12.096 18.804 25.392 27.936 31.836 38.424 40.968 47.808 53.82 56.364 62.976 67.728 73.74 80.508 83.052 91.884 98.544 104.556 111.216 113.76 117.732 124.392 130.404 132.948 140.844 146.748 152.664 158.628 161.172 164.04 170.7 173.508 177.48 180.288 186.024 189.996 192.804 198.444 204.456 207 209.808 214.56 217.104 223.116 233.124 239.952 246.612 252.396 257.148 259.956 265.008 271.02 277.488 279.144 281.688 287.556 290.04 296.508 298.104 300.648 304.62 311.28 317.292 319.836 327.672 334.26 344.268 350.28 357.108 362.892 369.6 375.612 378.156 384.744 388.668 391.212 398.04 403.824 410.664 416.676 420.6 425.352 427.896 433.68 440.52 447.108 453.72"
             y="0"
             sodipodi:role="line"
             id="tspan53">Logo to be used when the NEST Initiative is emphasized, e.g. the Homepage or papers about</tspan></text>
<text
           transform="matrix(1,0,0,-1,329,392.6001)"
           id="text55"><tspan
             style="fill:#1a171b;fill-opacity:1;fill-rule:nonzero;stroke:none;font-family:Myriad;font-variant:normal;font-weight:normal;font-stretch:normal;font-size:12;writing-mode:lr;-inkscape-font-specification:Myriad-Roman"
             x="0 3.972 10.632 16.644 19.188 27.084 32.988 38.904 44.868 47.412 50.22 56.88 59.688 63.66 66.468 72.204 76.176 78.984 84.624 90.492"
             y="0"
             sodipodi:role="line"
             id="tspan57">the NEST initiative.</tspan></text>
</g></g></g></svg>