<?xml version="1.0" encoding="UTF-8" standalone="no"?>
<!-- Created with Inkscape (http://www.inkscape.org/) -->
<svg
   xmlns:dc="http://purl.org/dc/elements/1.1/"
   xmlns:cc="http://creativecommons.org/ns#"
   xmlns:rdf="http://www.w3.org/1999/02/22-rdf-syntax-ns#"
   xmlns:svg="http://www.w3.org/2000/svg"
   xmlns="http://www.w3.org/2000/svg"
   xmlns:sodipodi="http://sodipodi.sourceforge.net/DTD/sodipodi-0.dtd"
   xmlns:inkscape="http://www.inkscape.org/namespaces/inkscape"
   id="svg2"
   sodipodi:version="0.32"
   inkscape:version="0.46"
   width="236.333"
   height="99.24625"
   xml:space="preserve"
   sodipodi:docname="nest-simulated-logo.svg"
   inkscape:output_extension="org.inkscape.output.svg.inkscape"><metadata
     id="metadata7"><rdf:RDF><cc:Work
         rdf:about=""><dc:format>image/svg+xml</dc:format><dc:type
           rdf:resource="http://purl.org/dc/dcmitype/StillImage" /></cc:Work></rdf:RDF></metadata><defs
     id="defs5"><inkscape:perspective
       sodipodi:type="inkscape:persp3d"
       inkscape:vp_x="0 : 526.18109 : 1"
       inkscape:vp_y="0 : 1000 : 0"
       inkscape:vp_z="744.09448 : 526.18109 : 1"
       inkscape:persp3d-origin="372.04724 : 350.78739 : 1"
       id="perspective9" /><clipPath
       clipPathUnits="userSpaceOnUse"
       id="clipPath17"><path
         d="M 0,600 L 800,600 L 800,0 L 0,0 L 0,600 z"
         id="path19" /></clipPath></defs><sodipodi:namedview
     inkscape:window-height="700"
     inkscape:window-width="641"
     inkscape:pageshadow="2"
     inkscape:pageopacity="0.0"
     guidetolerance="10.0"
     gridtolerance="10.0"
     objecttolerance="10.0"
     borderopacity="1.0"
     bordercolor="#666666"
     pagecolor="#ffffff"
     id="base"
     showgrid="false"
     inkscape:zoom="1.6635484"
     inkscape:cx="156.13359"
     inkscape:cy="88.601103"
     inkscape:window-x="579"
     inkscape:window-y="25"
     inkscape:current-layer="g11" /><g
     id="g11"
     inkscape:groupmode="layer"
     inkscape:label="nest-simulated-logo"
     transform="matrix(1.25,0,0,-1.25,-83.667,403.30875)"><g
       id="g13"><g
         id="g15"
         clip-path="url(#clipPath17)"><path
           d="M 256,255.555 C 256,249.08 250.83,243 244.449,243 L 66.934,243 L 66.933,310.674 C 66.933,317.148 72.104,322.397 78.485,322.397 L 244.449,322.397 C 250.83,322.397 256,317.148 256,310.674 L 256,255.555 z"
           style="fill:#ff6633;fill-opacity:1;fill-rule:nonzero;stroke:none"
           id="path21" /><path
           d="M 85.687,305.012 L 85.687,303.012 C 86.759,303.949 87.94,304.652 89.233,305.121 C 90.524,305.59 91.927,305.824 93.44,305.824 C 96.925,305.824 99.681,304.721 101.71,302.512 C 103.319,300.752 104.124,298.445 104.124,295.59 L 104.124,284.418 C 105.604,284.418 106.647,284.141 107.25,283.584 C 107.854,283.027 108.154,282.301 108.154,281.402 C 108.154,280.504 107.854,279.781 107.25,279.236 C 106.647,278.691 105.604,278.418 104.124,278.418 L 98.249,278.418 C 96.767,278.418 95.724,278.695 95.122,279.252 C 94.519,279.809 94.218,280.535 94.218,281.434 C 94.218,282.332 94.519,283.055 95.122,283.6 C 95.724,284.145 96.767,284.418 98.249,284.418 L 98.249,295.775 C 98.249,297.086 97.903,298.045 97.214,298.65 C 96.312,299.434 94.962,299.824 93.159,299.824 C 91.8,299.824 90.606,299.557 89.581,299.02 C 88.556,298.482 87.257,297.344 85.687,295.605 L 85.687,284.418 C 87.167,284.418 88.101,284.232 88.485,283.861 C 89.306,283.121 89.718,282.301 89.718,281.402 C 89.718,280.504 89.415,279.781 88.812,279.236 C 88.21,278.691 87.167,278.418 85.687,278.418 L 79.812,278.418 C 78.329,278.418 77.287,278.695 76.685,279.252 C 76.081,279.809 75.78,280.535 75.78,281.434 C 75.78,282.332 76.182,283.148 76.985,283.885 C 77.388,284.24 78.329,284.418 79.812,284.418 L 79.812,299.012 C 78.329,299.012 77.287,299.289 76.685,299.846 C 76.081,300.402 75.78,301.129 75.78,302.027 C 75.78,302.926 76.081,303.648 76.685,304.193 C 77.287,304.738 78.329,305.012 79.812,305.012 L 85.687,305.012 z"
           style="fill:#ffffff;fill-opacity:1;fill-rule:nonzero;stroke:none"
           id="path23" /><path
           d="M 134.314,294.668 C 133.416,296.396 132.242,297.688 130.793,298.543 C 129.342,299.396 127.615,299.824 125.611,299.824 C 123.625,299.824 121.908,299.396 120.457,298.543 C 119.008,297.688 117.824,296.396 116.908,294.668 L 134.314,294.668 z M 140.846,288.668 L 116.721,288.668 C 117.332,287.104 118.418,285.844 119.977,284.887 C 121.535,283.928 123.643,283.449 126.301,283.449 C 128.48,283.449 131.379,283.93 134.994,284.893 C 136.486,285.285 137.52,285.48 138.094,285.48 C 138.877,285.48 139.537,285.197 140.072,284.631 C 140.609,284.064 140.877,283.35 140.877,282.49 C 140.877,281.709 140.59,281.045 140.016,280.498 C 139.25,279.775 137.385,279.086 134.42,278.432 C 131.455,277.777 128.605,277.449 125.869,277.449 C 121.164,277.449 117.398,278.807 114.578,281.523 C 111.756,284.24 110.346,287.582 110.346,291.549 C 110.346,295.77 111.871,299.205 114.922,301.852 C 117.973,304.5 121.488,305.824 125.467,305.824 C 127.859,305.824 130.055,305.395 132.053,304.533 C 134.053,303.674 135.539,302.744 136.516,301.748 C 137.893,300.301 139.029,298.512 139.93,296.381 C 140.541,294.895 140.848,293.174 140.848,291.219 L 140.846,288.668 z"
           style="fill:#ffffff;fill-opacity:1;fill-rule:nonzero;stroke:none"
           id="path25" /><path
           d="M 166.193,297.992 C 165.236,298.604 164.23,299.061 163.178,299.367 C 162.125,299.672 161.025,299.824 159.877,299.824 C 157.6,299.824 155.791,299.443 154.451,298.68 C 153.857,298.348 153.561,297.984 153.561,297.594 C 153.561,297.145 153.963,296.703 154.766,296.273 C 155.379,295.961 156.746,295.656 158.871,295.363 C 162.775,294.816 165.494,294.268 167.025,293.721 C 169.033,292.998 170.584,291.924 171.674,290.496 C 172.766,289.07 173.311,287.564 173.311,285.98 C 173.311,283.83 172.383,282.033 170.525,280.586 C 167.865,278.494 164.412,277.449 160.164,277.449 C 158.461,277.449 156.887,277.598 155.443,277.895 C 153.998,278.191 152.674,278.625 151.469,279.199 C 151.182,278.949 150.875,278.756 150.549,278.621 C 150.223,278.486 149.889,278.418 149.545,278.418 C 148.625,278.418 147.893,278.727 147.348,279.342 C 146.801,279.959 146.529,280.99 146.529,282.438 L 146.529,284.461 C 146.529,285.908 146.801,286.939 147.348,287.557 C 147.893,288.172 148.605,288.48 149.486,288.48 C 150.193,288.48 150.787,288.281 151.266,287.881 C 151.744,287.48 152.117,286.793 152.385,285.818 C 153.285,285.039 154.365,284.449 155.629,284.049 C 156.893,283.648 158.348,283.449 159.992,283.449 C 162.691,283.449 164.787,283.879 166.279,284.74 C 166.988,285.172 167.342,285.621 167.342,286.09 C 167.342,286.873 166.834,287.518 165.82,288.027 C 164.805,288.535 162.709,288.967 159.533,289.318 C 154.807,289.828 151.65,290.805 150.064,292.252 C 148.479,293.678 147.686,295.438 147.686,297.527 C 147.686,299.678 148.574,301.467 150.355,302.893 C 152.768,304.848 155.926,305.824 159.83,305.824 C 161.189,305.824 162.494,305.691 163.748,305.424 C 165.002,305.158 166.203,304.748 167.352,304.195 C 167.715,304.469 168.055,304.672 168.371,304.809 C 168.688,304.943 168.979,305.012 169.246,305.012 C 170.051,305.012 170.721,304.703 171.256,304.088 C 171.793,303.473 172.061,302.441 172.061,300.994 L 172.061,299.529 C 172.061,298.219 171.906,297.33 171.6,296.861 C 170.986,295.961 170.152,295.512 169.098,295.512 C 168.389,295.512 167.766,295.738 167.229,296.191 C 166.691,296.645 166.346,297.244 166.193,297.992"
           style="fill:#ffffff;fill-opacity:1;fill-rule:nonzero;stroke:none"
           id="path27" /><path
           d="M 188.225,299.012 L 188.225,286.967 C 188.225,285.676 188.482,284.826 189,284.416 C 189.802,283.771 191.237,283.449 193.302,283.449 C 196.304,283.449 199.077,284.102 201.62,285.408 C 202.597,285.914 203.36,286.168 203.915,286.168 C 204.681,286.168 205.345,285.875 205.909,285.291 C 206.474,284.705 206.755,283.994 206.755,283.154 C 206.755,282.375 206.45,281.701 205.837,281.137 C 204.901,280.219 203.052,279.375 200.288,278.605 C 197.526,277.834 195.198,277.449 193.306,277.449 C 189.653,277.449 186.916,278.256 185.09,279.867 C 183.264,281.479 182.35,283.455 182.35,285.799 L 182.35,299.012 L 180.225,299.012 C 178.807,299.012 177.797,299.289 177.193,299.846 C 176.59,300.402 176.287,301.129 176.287,302.027 C 176.287,302.904 176.59,303.621 177.193,304.178 C 177.797,304.734 178.807,305.012 180.225,305.012 L 182.35,305.012 L 182.35,310.434 C 182.35,311.879 182.623,312.91 183.166,313.525 C 183.711,314.141 184.424,314.449 185.303,314.449 C 186.162,314.449 186.863,314.141 187.408,313.525 C 187.953,312.91 188.225,311.879 188.225,310.434 L 188.225,305.012 L 199.104,305.012 C 200.521,305.012 201.53,304.734 202.132,304.178 C 202.735,303.621 203.036,302.895 203.036,301.998 C 203.036,301.119 202.735,300.402 202.132,299.846 C 201.53,299.289 200.521,299.012 199.104,299.012 L 188.225,299.012 z"
           style="fill:#ffffff;fill-opacity:1;fill-rule:nonzero;stroke:none"
           id="path29" /><path
           d="M 224.427,284.22 C 224.427,281.089 221.888,278.553 218.757,278.553 C 215.628,278.553 213.089,281.089 213.089,284.22 C 213.089,287.35 215.628,289.888 218.757,289.888 C 221.888,289.888 224.427,287.35 224.427,284.22"
           style="fill:#ffffff;fill-opacity:1;fill-rule:nonzero;stroke:none"
           id="path31" /><path
           d="M 224.427,284.22 C 224.427,281.089 221.888,278.553 218.757,278.553 C 215.628,278.553 213.089,281.089 213.089,284.22 C 213.089,287.35 215.628,289.888 218.757,289.888 C 221.888,289.888 224.427,287.35 224.427,284.22 z"
           style="fill:none;stroke:#ff6633;stroke-opacity:1;stroke-width:1.5;stroke-linecap:butt;stroke-linejoin:miter;stroke-miterlimit:4;stroke-dasharray:none"
           id="path33" /><path
           d="M 224.426,301.073 C 224.426,297.942 221.887,295.406 218.756,295.406 C 215.627,295.406 213.088,297.942 213.088,301.073 C 213.088,304.203 215.627,306.741 218.756,306.741 C 221.887,306.741 224.426,304.203 224.426,301.073"
           style="fill:#ffffff;fill-opacity:1;fill-rule:nonzero;stroke:none"
           id="path35" /><path
           d="M 224.426,301.073 C 224.426,297.942 221.887,295.406 218.756,295.406 C 215.627,295.406 213.088,297.942 213.088,301.073 C 213.088,304.203 215.627,306.741 218.756,306.741 C 221.887,306.741 224.426,304.203 224.426,301.073 z"
           style="fill:none;stroke:#ff6633;stroke-opacity:1;stroke-width:1.5;stroke-linecap:butt;stroke-linejoin:miter;stroke-miterlimit:4;stroke-dasharray:none"
           id="path37" /><path
           d="M 242.281,284.219 C 242.281,281.088 239.742,278.552 236.611,278.552 C 233.482,278.552 230.943,281.088 230.943,284.219 C 230.943,287.349 233.482,289.887 236.611,289.887 C 239.742,289.887 242.281,287.349 242.281,284.219"
           style="fill:#ffffff;fill-opacity:1;fill-rule:nonzero;stroke:none"
           id="path39" /><path
           d="M 242.281,284.219 C 242.281,281.088 239.742,278.552 236.611,278.552 C 233.482,278.552 230.943,281.088 230.943,284.219 C 230.943,287.349 233.482,289.887 236.611,289.887 C 239.742,289.887 242.281,287.349 242.281,284.219 z"
           style="fill:none;stroke:#ff6633;stroke-opacity:1;stroke-width:1.5;stroke-linecap:butt;stroke-linejoin:miter;stroke-miterlimit:4;stroke-dasharray:none"
           id="path41" /><path
           d="M 242.28,301.072 C 242.28,297.941 239.741,295.405 236.61,295.405 C 233.481,295.405 230.942,297.941 230.942,301.072 C 230.942,304.202 233.481,306.74 236.61,306.74 C 239.741,306.74 242.28,304.202 242.28,301.072"
           style="fill:#ffffff;fill-opacity:1;fill-rule:nonzero;stroke:none"
           id="path43" /><path
           d="M 242.28,301.072 C 242.28,297.941 239.741,295.405 236.61,295.405 C 233.481,295.405 230.942,297.941 230.942,301.072 C 230.942,304.202 233.481,306.74 236.61,306.74 C 239.741,306.74 242.28,304.202 242.28,301.072 z"
           style="fill:none;stroke:#ff6633;stroke-opacity:1;stroke-width:1.5;stroke-linecap:butt;stroke-linejoin:miter;stroke-miterlimit:4;stroke-dasharray:none"
           id="path45" /><text
           transform="matrix(1,0,0,-1,97,257)"
           id="text47"><tspan
             style="fill:#ffffff;fill-opacity:1;fill-rule:nonzero;stroke:none;font-family:Courier New;font-variant:normal;font-weight:bold;font-stretch:normal;font-size:23;writing-mode:lr;-inkscape-font-specification:CourierNewPS-BoldMT"
             x="0 13.8 27.6 41.4 55.2 69 82.8 96.6 110.4 124.2 138"
             y="0"
             sodipodi:role="line"
             id="tspan49">simulated()</tspan></text>
<text
           transform="matrix(1,0,0,-1,328,283)"
           id="text51"><tspan
             style="fill:#1a171b;fill-opacity:1;fill-rule:nonzero;stroke:none;font-family:Myriad;font-variant:normal;font-weight:normal;font-stretch:normal;font-size:12;writing-mode:lr;-inkscape-font-specification:Myriad-Roman"
             x="0 5.496 12.096 18.804 25.392 27.936 31.836 38.424 40.968 47.808 53.82 56.364 62.976 67.728 73.74 80.508 83.052 86.952 93.54 96.084 100.836 107.496 114 122.832 125.376 129.348 136.008 141.744 145.716 148.26 154.044 156.588 161.34 164.148 174.156 180.768 183.576 189.312 193.284 196.092 202.68 209.34 211.884 220.668 226.452 231.204 233.748 240.516 247.104 253.764 259.776 262.32 271.152 273.96 277.932 284.592 287.136 293.796 299.808 304.56 308.532"
             y="0"
             sodipodi:role="line"
             id="tspan53">Logo to be used to show that a simulation was done with nest.</tspan></text>
</g></g></g></svg>