<?xml version="1.0" encoding="UTF-8" standalone="no"?>
<!-- Created with Inkscape (http://www.inkscape.org/) -->
<svg
   xmlns:dc="http://purl.org/dc/elements/1.1/"
   xmlns:cc="http://creativecommons.org/ns#"
   xmlns:rdf="http://www.w3.org/1999/02/22-rdf-syntax-ns#"
   xmlns:svg="http://www.w3.org/2000/svg"
   xmlns="http://www.w3.org/2000/svg"
   xmlns:sodipodi="http://sodipodi.sourceforge.net/DTD/sodipodi-0.dtd"
   xmlns:inkscape="http://www.inkscape.org/namespaces/inkscape"
   id="svg2"
   sodipodi:version="0.32"
   inkscape:version="0.46"
   width="236.333"
   height="98.30875"
   xml:space="preserve"
   sodipodi:docname="nest-logo.svg"
   inkscape:output_extension="org.inkscape.output.svg.inkscape"><metadata
     id="metadata7"><rdf:RDF><cc:Work
         rdf:about=""><dc:format>image/svg+xml</dc:format><dc:type
           rdf:resource="http://purl.org/dc/dcmitype/StillImage" /></cc:Work></rdf:RDF></metadata><defs
     id="defs5"><inkscape:perspective
       sodipodi:type="inkscape:persp3d"
       inkscape:vp_x="0 : 526.18109 : 1"
       inkscape:vp_y="0 : 1000 : 0"
       inkscape:vp_z="744.09448 : 526.18109 : 1"
       inkscape:persp3d-origin="372.04724 : 350.78739 : 1"
       id="perspective9" /><clipPath
       clipPathUnits="userSpaceOnUse"
       id="clipPath17"><path
         d="M 0,600 L 800,600 L 800,0 L 0,0 L 0,600 z"
         id="path19" /></clipPath></defs><sodipodi:namedview
     inkscape:window-height="700"
     inkscape:window-width="641"
     inkscape:pageshadow="2"
     inkscape:pageopacity="0.0"
     guidetolerance="10.0"
     gridtolerance="10.0"
     objecttolerance="10.0"
     borderopacity="1.0"
     bordercolor="#666666"
     pagecolor="#ffffff"
     id="base"
     showgrid="false"
     inkscape:zoom="2.3526127"
     inkscape:cx="118.1665"
     inkscape:cy="49.154373"
     inkscape:window-x="579"
     inkscape:window-y="25"
     inkscape:current-layer="g11" /><g
     id="g11"
     inkscape:groupmode="layer"
     inkscape:label="nest-logo"
     transform="matrix(1.25,0,0,-1.25,-86.167,673.30875)"><g
       id="g13"><g
         id="g15"
         clip-path="url(#clipPath17)"><path
           d="M 258,472.555 C 258,466.08 252.83,460 246.449,460 L 68.934,460 L 68.933,527.674 C 68.933,534.148 74.104,539.397 80.485,539.397 L 246.449,539.397 C 252.83,539.397 258,534.148 258,527.674 L 258,472.555 z"
           style="fill:#ff6633;fill-opacity:1;fill-rule:nonzero;stroke:none"
           id="path21" /><path
           d="M 89.687,513.012 L 89.687,511.012 C 90.759,511.949 91.94,512.652 93.233,513.121 C 94.524,513.59 95.927,513.824 97.44,513.824 C 100.925,513.824 103.681,512.721 105.71,510.512 C 107.319,508.752 108.124,506.445 108.124,503.59 L 108.124,492.418 C 109.604,492.418 110.647,492.141 111.25,491.584 C 111.854,491.027 112.154,490.301 112.154,489.402 C 112.154,488.504 111.854,487.781 111.25,487.236 C 110.647,486.691 109.604,486.418 108.124,486.418 L 102.249,486.418 C 100.767,486.418 99.724,486.695 99.122,487.252 C 98.519,487.809 98.218,488.535 98.218,489.434 C 98.218,490.332 98.519,491.055 99.122,491.6 C 99.724,492.145 100.767,492.418 102.249,492.418 L 102.249,503.775 C 102.249,505.086 101.903,506.045 101.214,506.65 C 100.312,507.434 98.962,507.824 97.159,507.824 C 95.8,507.824 94.606,507.557 93.581,507.02 C 92.556,506.482 91.257,505.344 89.687,503.605 L 89.687,492.418 C 91.167,492.418 92.101,492.232 92.485,491.861 C 93.306,491.121 93.718,490.301 93.718,489.402 C 93.718,488.504 93.415,487.781 92.812,487.236 C 92.21,486.691 91.167,486.418 89.687,486.418 L 83.812,486.418 C 82.329,486.418 81.287,486.695 80.685,487.252 C 80.081,487.809 79.78,488.535 79.78,489.434 C 79.78,490.332 80.182,491.148 80.985,491.885 C 81.388,492.24 82.329,492.418 83.812,492.418 L 83.812,507.012 C 82.329,507.012 81.287,507.289 80.685,507.846 C 80.081,508.402 79.78,509.129 79.78,510.027 C 79.78,510.926 80.081,511.648 80.685,512.193 C 81.287,512.738 82.329,513.012 83.812,513.012 L 89.687,513.012 z"
           style="fill:#ffffff;fill-opacity:1;fill-rule:nonzero;stroke:none"
           id="path23" /><path
           d="M 138.314,502.668 C 137.416,504.396 136.242,505.688 134.793,506.543 C 133.342,507.396 131.615,507.824 129.611,507.824 C 127.625,507.824 125.908,507.396 124.457,506.543 C 123.008,505.688 121.824,504.396 120.908,502.668 L 138.314,502.668 z M 144.846,496.668 L 120.721,496.668 C 121.332,495.104 122.418,493.844 123.977,492.887 C 125.535,491.928 127.643,491.449 130.301,491.449 C 132.48,491.449 135.379,491.93 138.994,492.893 C 140.486,493.285 141.52,493.48 142.094,493.48 C 142.877,493.48 143.537,493.197 144.072,492.631 C 144.609,492.064 144.877,491.35 144.877,490.49 C 144.877,489.709 144.59,489.045 144.016,488.498 C 143.25,487.775 141.385,487.086 138.42,486.432 C 135.455,485.777 132.605,485.449 129.869,485.449 C 125.164,485.449 121.398,486.807 118.578,489.523 C 115.756,492.24 114.346,495.582 114.346,499.549 C 114.346,503.77 115.871,507.205 118.922,509.852 C 121.973,512.5 125.488,513.824 129.467,513.824 C 131.859,513.824 134.055,513.395 136.053,512.533 C 138.053,511.674 139.539,510.744 140.516,509.748 C 141.893,508.301 143.029,506.512 143.93,504.381 C 144.541,502.895 144.848,501.174 144.848,499.219 L 144.846,496.668 z"
           style="fill:#ffffff;fill-opacity:1;fill-rule:nonzero;stroke:none"
           id="path25" /><path
           d="M 170.193,505.992 C 169.236,506.604 168.23,507.061 167.178,507.367 C 166.125,507.672 165.025,507.824 163.877,507.824 C 161.6,507.824 159.791,507.443 158.451,506.68 C 157.857,506.348 157.561,505.984 157.561,505.594 C 157.561,505.145 157.963,504.703 158.766,504.273 C 159.379,503.961 160.746,503.656 162.871,503.363 C 166.775,502.816 169.494,502.268 171.025,501.721 C 173.033,500.998 174.584,499.924 175.674,498.496 C 176.766,497.07 177.311,495.564 177.311,493.98 C 177.311,491.83 176.383,490.033 174.525,488.586 C 171.865,486.494 168.412,485.449 164.164,485.449 C 162.461,485.449 160.887,485.598 159.443,485.895 C 157.998,486.191 156.674,486.625 155.469,487.199 C 155.182,486.949 154.875,486.756 154.549,486.621 C 154.223,486.486 153.889,486.418 153.545,486.418 C 152.625,486.418 151.893,486.727 151.348,487.342 C 150.801,487.959 150.529,488.99 150.529,490.438 L 150.529,492.461 C 150.529,493.908 150.801,494.939 151.348,495.557 C 151.893,496.172 152.605,496.48 153.486,496.48 C 154.193,496.48 154.787,496.281 155.266,495.881 C 155.744,495.48 156.117,494.793 156.385,493.818 C 157.285,493.039 158.365,492.449 159.629,492.049 C 160.893,491.648 162.348,491.449 163.992,491.449 C 166.691,491.449 168.787,491.879 170.279,492.74 C 170.988,493.172 171.342,493.621 171.342,494.09 C 171.342,494.873 170.834,495.518 169.82,496.027 C 168.805,496.535 166.709,496.967 163.533,497.318 C 158.807,497.828 155.65,498.805 154.064,500.252 C 152.479,501.678 151.686,503.438 151.686,505.527 C 151.686,507.678 152.574,509.467 154.355,510.893 C 156.768,512.848 159.926,513.824 163.83,513.824 C 165.189,513.824 166.494,513.691 167.748,513.424 C 169.002,513.158 170.203,512.748 171.352,512.195 C 171.715,512.469 172.055,512.672 172.371,512.809 C 172.688,512.943 172.979,513.012 173.246,513.012 C 174.051,513.012 174.721,512.703 175.256,512.088 C 175.793,511.473 176.061,510.441 176.061,508.994 L 176.061,507.529 C 176.061,506.219 175.906,505.33 175.6,504.861 C 174.986,503.961 174.152,503.512 173.098,503.512 C 172.389,503.512 171.766,503.738 171.229,504.191 C 170.691,504.645 170.346,505.244 170.193,505.992"
           style="fill:#ffffff;fill-opacity:1;fill-rule:nonzero;stroke:none"
           id="path27" /><path
           d="M 192.225,507.012 L 192.225,494.967 C 192.225,493.676 192.482,492.826 193,492.416 C 193.802,491.771 195.237,491.449 197.302,491.449 C 200.304,491.449 203.077,492.102 205.62,493.408 C 206.597,493.914 207.36,494.168 207.915,494.168 C 208.681,494.168 209.345,493.875 209.909,493.291 C 210.474,492.705 210.755,491.994 210.755,491.154 C 210.755,490.375 210.45,489.701 209.837,489.137 C 208.901,488.219 207.052,487.375 204.288,486.605 C 201.526,485.834 199.198,485.449 197.306,485.449 C 193.653,485.449 190.916,486.256 189.09,487.867 C 187.264,489.479 186.35,491.455 186.35,493.799 L 186.35,507.012 L 184.225,507.012 C 182.807,507.012 181.797,507.289 181.193,507.846 C 180.59,508.402 180.287,509.129 180.287,510.027 C 180.287,510.904 180.59,511.621 181.193,512.178 C 181.797,512.734 182.807,513.012 184.225,513.012 L 186.35,513.012 L 186.35,518.434 C 186.35,519.879 186.623,520.91 187.166,521.525 C 187.711,522.141 188.424,522.449 189.303,522.449 C 190.162,522.449 190.863,522.141 191.408,521.525 C 191.953,520.91 192.225,519.879 192.225,518.434 L 192.225,513.012 L 203.104,513.012 C 204.521,513.012 205.53,512.734 206.132,512.178 C 206.735,511.621 207.036,510.895 207.036,509.998 C 207.036,509.119 206.735,508.402 206.132,507.846 C 205.53,507.289 204.521,507.012 203.104,507.012 L 192.225,507.012 z"
           style="fill:#ffffff;fill-opacity:1;fill-rule:nonzero;stroke:none"
           id="path29" /><path
           d="M 228.427,492.22 C 228.427,489.089 225.888,486.553 222.757,486.553 C 219.628,486.553 217.089,489.089 217.089,492.22 C 217.089,495.35 219.628,497.888 222.757,497.888 C 225.888,497.888 228.427,495.35 228.427,492.22"
           style="fill:#ffffff;fill-opacity:1;fill-rule:nonzero;stroke:none"
           id="path31" /><path
           d="M 228.427,492.22 C 228.427,489.089 225.888,486.553 222.757,486.553 C 219.628,486.553 217.089,489.089 217.089,492.22 C 217.089,495.35 219.628,497.888 222.757,497.888 C 225.888,497.888 228.427,495.35 228.427,492.22 z"
           style="fill:none;stroke:#ff6633;stroke-opacity:1;stroke-width:1.5;stroke-linecap:butt;stroke-linejoin:miter;stroke-miterlimit:4;stroke-dasharray:none"
           id="path33" /><path
           d="M 228.426,509.073 C 228.426,505.942 225.887,503.406 222.756,503.406 C 219.627,503.406 217.088,505.942 217.088,509.073 C 217.088,512.203 219.627,514.741 222.756,514.741 C 225.887,514.741 228.426,512.203 228.426,509.073"
           style="fill:#ffffff;fill-opacity:1;fill-rule:nonzero;stroke:none"
           id="path35" /><path
           d="M 228.426,509.073 C 228.426,505.942 225.887,503.406 222.756,503.406 C 219.627,503.406 217.088,505.942 217.088,509.073 C 217.088,512.203 219.627,514.741 222.756,514.741 C 225.887,514.741 228.426,512.203 228.426,509.073 z"
           style="fill:none;stroke:#ff6633;stroke-opacity:1;stroke-width:1.5;stroke-linecap:butt;stroke-linejoin:miter;stroke-miterlimit:4;stroke-dasharray:none"
           id="path37" /><path
           d="M 246.281,492.219 C 246.281,489.088 243.742,486.552 240.611,486.552 C 237.482,486.552 234.943,489.088 234.943,492.219 C 234.943,495.349 237.482,497.887 240.611,497.887 C 243.742,497.887 246.281,495.349 246.281,492.219"
           style="fill:#ffffff;fill-opacity:1;fill-rule:nonzero;stroke:none"
           id="path39" /><path
           d="M 246.281,492.219 C 246.281,489.088 243.742,486.552 240.611,486.552 C 237.482,486.552 234.943,489.088 234.943,492.219 C 234.943,495.349 237.482,497.887 240.611,497.887 C 243.742,497.887 246.281,495.349 246.281,492.219 z"
           style="fill:none;stroke:#ff6633;stroke-opacity:1;stroke-width:1.5;stroke-linecap:butt;stroke-linejoin:miter;stroke-miterlimit:4;stroke-dasharray:none"
           id="path41" /><path
           d="M 246.28,509.072 C 246.28,505.941 243.741,503.405 240.61,503.405 C 237.481,503.405 234.942,505.941 234.942,509.072 C 234.942,512.202 237.481,514.74 240.61,514.74 C 243.741,514.74 246.28,512.202 246.28,509.072"
           style="fill:#ffffff;fill-opacity:1;fill-rule:nonzero;stroke:none"
           id="path43" /><path
           d="M 246.28,509.072 C 246.28,505.941 243.741,503.405 240.61,503.405 C 237.481,503.405 234.942,505.941 234.942,509.072 C 234.942,512.202 237.481,514.74 240.61,514.74 C 243.741,514.74 246.28,512.202 246.28,509.072 z"
           style="fill:none;stroke:#ff6633;stroke-opacity:1;stroke-width:1.5;stroke-linecap:butt;stroke-linejoin:miter;stroke-miterlimit:4;stroke-dasharray:none"
           id="path45" /><text
           transform="matrix(1,0,0,-1,332,511)"
           id="text47"><tspan
             style="fill:#1a171b;fill-opacity:1;fill-rule:nonzero;stroke:none;font-family:Myriad;font-variant:normal;font-weight:normal;font-stretch:normal;font-size:12;writing-mode:lr;-inkscape-font-specification:Myriad-Roman"
             x="0 5.496 12.096 18.804 25.392 27.936 31.836 38.424 40.968 47.808 53.82 56.364 62.976 67.728 73.74 80.508 83.052 91.884 98.544 104.556 111.216 113.76 117.732 124.392 130.404 132.948 137.7 140.508 150.516 157.128 159.936 165.672 169.572 176.16 180.084 182.628 185.436 190.188 192.732 198.744 208.752 215.58 222.24 228.024 232.776 235.584 240.636 246.648 253.116 254.772 257.316 263.184 265.668 272.136 273.732 276.276 282.48 289.092 295.92 298.728 301.536 306.924 312.66 316.632 319.44 326.028 332.688 337.44"
             y="0"
             sodipodi:role="line"
             id="tspan49">Logo to be used when the simulator is emphasized, e.g. Publications </tspan></text>
<text
           transform="matrix(1,0,0,-1,332,496.6001)"
           id="text51"><tspan
             style="fill:#1a171b;fill-opacity:1;fill-rule:nonzero;stroke:none;font-family:Myriad;font-variant:normal;font-weight:normal;font-stretch:normal;font-size:12;writing-mode:lr;-inkscape-font-specification:Myriad-Roman"
             x="0 5.784 12.624 19.212 25.824 29.796 32.34 40.236 46.14 52.056 57.288 59.772"
             y="0"
             sodipodi:role="line"
             id="tspan53">about NEST..</tspan></text>
</g></g></g></svg>