<?xml version="1.0" encoding="UTF-8" standalone="no"?>
<!-- Created with Inkscape (http://www.inkscape.org/) -->

<svg
   xmlns:dc="http://purl.org/dc/elements/1.1/"
   xmlns:cc="http://creativecommons.org/ns#"
   xmlns:rdf="http://www.w3.org/1999/02/22-rdf-syntax-ns#"
   xmlns:svg="http://www.w3.org/2000/svg"
   xmlns="http://www.w3.org/2000/svg"
   xmlns:sodipodi="http://sodipodi.sourceforge.net/DTD/sodipodi-0.dtd"
   xmlns:inkscape="http://www.inkscape.org/namespaces/inkscape"
   width="236.36661"
   height="127.25201"
   id="svg3978"
   version="1.1"
   inkscape:version="0.48.5 r10040"
   sodipodi:docname="New document 14">
  <defs
     id="defs3980" />
  <sodipodi:namedview
     id="base"
     pagecolor="#ffffff"
     bordercolor="#666666"
     borderopacity="1.0"
     inkscape:pageopacity="0.0"
     inkscape:pageshadow="2"
     inkscape:zoom="0.35"
     inkscape:cx="30.33146"
     inkscape:cy="69.343157"
     inkscape:document-units="px"
     inkscape:current-layer="layer1"
     showgrid="false"
     fit-margin-top="0"
     fit-margin-left="0"
     fit-margin-right="0"
     fit-margin-bottom="0"
     inkscape:window-width="501"
     inkscape:window-height="419"
     inkscape:window-x="934"
     inkscape:window-y="205"
     inkscape:window-maximized="0" />
  <metadata
     id="metadata3983">
    <rdf:RDF>
      <cc:Work
         rdf:about="">
        <dc:format>image/svg+xml</dc:format>
        <dc:type
           rdf:resource="http://purl.org/dc/dcmitype/StillImage" />
        <dc:title></dc:title>
      </cc:Work>
    </rdf:RDF>
  </metadata>
  <g
     inkscape:label="Layer 1"
     inkscape:groupmode="layer"
     id="layer1"
     transform="translate(-344.66854,-474.45333)">
    <g
       transform="translate(-181.33146,-276.85716)"
       id="g3463">
      <path
         d="m 571.50137,807.8526 0,-12.062 c 0,-9.47199 -3.626,-14.208 -11.47,-14.208 -4.58799,0 -7.918,1.77601 -10.212,5.254 l 0,-2.812 c 0,-0.96199 -0.666,-1.554 -2.072,-1.554 l -6.142,0 c -3.03399,0 -4.514,0.96201 -4.514,3.996 0,2.59 1.33201,3.922 3.922,3.922 0.148,0 0.37,0 0.592,0 l 0,17.464 c -0.148,0 -0.296,0 -0.444,0 -2.73799,0 -4.07,1.33201 -4.07,3.996 0,2.96 1.40601,3.996 4.514,3.996 l 8.954,0 c 3.108,0 4.514,-1.036 4.514,-3.996 0,-2.66399 -1.332,-3.996 -4.07,-3.996 -0.148,0 -0.296,0 -0.444,0 l 0,-10.434 c 0,-5.10599 3.03401,-7.992 6.808,-7.992 4.144,0 5.254,2.73801 5.254,7.992 l 0,10.434 c -0.148,0 -0.296,0 -0.444,0 -2.73799,0 -4.144,1.33201 -4.144,3.996 0,2.96 1.48001,3.996 4.588,3.996 l 8.88,0 c 3.108,0 4.514,-1.036 4.514,-3.996 0,-2.66399 -1.332,-3.996 -4.07,-3.996 -0.148,0 -0.296,0 -0.444,0"
         style="font-size:74px;font-style:normal;font-variant:normal;font-weight:bold;font-stretch:normal;text-align:start;line-height:0%;letter-spacing:-2.5px;word-spacing:0px;writing-mode:lr-tb;text-anchor:start;fill:#ffffff;fill-opacity:1;stroke:none;font-family:Courier 10 Pitch;-inkscape-font-specification:Courier 10 Pitch Bold"
         id="path4937"
         inkscape:connector-curvature="0" />
      <path
         d="m 588.505,801.2666 23.31,0 c 3.77399,0 5.254,-0.518 5.254,-3.7 0,-8.43599 -7.10401,-15.91 -18.056,-15.91 -11.98799,0 -19.684,7.54801 -19.684,17.538 0,9.98999 7.77001,17.538 19.684,17.538 10.58199,0 17.464,-4.144 17.464,-8.288 0,-2.14599 -1.332,-3.552 -3.256,-3.552 -2.664,0 -6.14201,4.366 -13.912,4.366 -5.994,0 -9.546,-2.59 -10.804,-7.992 m 0,-5.624 c 1.258,-4.73599 4.44,-7.03 9.694,-7.03 5.40199,0 8.954,2.51601 9.768,7.03 l -19.462,0"
         style="font-size:74px;font-style:normal;font-variant:normal;font-weight:bold;font-stretch:normal;text-align:start;line-height:0%;letter-spacing:-2.5px;word-spacing:0px;writing-mode:lr-tb;text-anchor:start;fill:#ffffff;fill-opacity:1;stroke:none;font-family:Courier 10 Pitch;-inkscape-font-specification:Courier 10 Pitch Bold"
         id="path4939"
         inkscape:connector-curvature="0" />
      <path
         d="m 630.81662,815.4006 c 3.478,0.962 6.95601,1.332 10.73,1.332 10.13799,0 15.54,-4.292 15.54,-11.322 0,-7.10399 -5.10601,-9.25 -14.356,-10.582 -6.51199,-0.96199 -9.472,-0.666 -9.472,-3.774 0,-2.07199 1.99801,-3.478 5.92,-3.478 6.512,0 8.58401,5.18 12.21,5.18 1.924,0 3.108,-1.184 3.108,-3.256 l 0,-4.44 c 0,-2.44199 -0.962,-3.7 -2.96,-3.7 -1.406,0 -2.59,0.59201 -3.552,1.776 -3.40399,-1.03599 -6.66,-1.554 -9.916,-1.554 -9.17599,0 -14.208,3.92201 -14.208,10.656 0,5.772 4.07001,9.02801 12.432,10.212 7.844,1.11 11.248,1.11001 11.248,4.514 0,1.924 -1.924,3.626 -5.698,3.626 -3.99599,0 -7.03,-1.036 -9.472,-3.182 -1.776,-1.62799 -1.702,-3.7 -4.81,-3.7 -2.58999,0 -3.552,1.18401 -3.552,4.366 l 0,4.884 c 0,2.516 0.51801,3.922 2.886,3.922 1.332,0 2.59,-0.518 3.922,-1.48"
         style="font-size:74px;font-style:normal;font-variant:normal;font-weight:bold;font-stretch:normal;text-align:start;line-height:0%;letter-spacing:-2.5px;word-spacing:0px;writing-mode:lr-tb;text-anchor:start;fill:#ffffff;fill-opacity:1;stroke:none;font-family:Courier 10 Pitch;-inkscape-font-specification:Courier 10 Pitch Bold"
         id="path4941"
         inkscape:connector-curvature="0" />
      <path
         d="m 667.57825,792.3866 3.404,0 0,9.25 c 0,0.296 0,0.592 0,0.814 0,4.366 0.074,7.69601 2.22,10.212 2.072,2.442 5.846,3.922 10.952,3.922 8.95399,0 16.502,-3.996 16.502,-7.252 0,-2.51599 -1.702,-4.144 -3.626,-4.144 -3.108,0 -6.66001,3.256 -11.766,3.256 -4.292,0 -5.402,-2.072 -5.402,-6.808 l 0,-9.25 11.026,0 c 3.034,0 4.588,-0.962 4.588,-3.996 0,-3.03399 -1.554,-3.922 -4.588,-3.922 l -11.026,0 0,-8.436 c 0,-3.10799 -1.11001,-4.514 -4.514,-4.514 -2.812,0 -4.366,1.55401 -4.366,3.034 0,0.148 0,0.59201 0,1.48 l 0,8.436 -3.404,0 c -3.034,0 -4.514,0.88801 -4.514,3.922 0,3.034 1.48,3.996 4.514,3.996"
         style="font-size:74px;font-style:normal;font-variant:normal;font-weight:bold;font-stretch:normal;text-align:start;line-height:0%;letter-spacing:-2.5px;word-spacing:0px;writing-mode:lr-tb;text-anchor:start;fill:#ffffff;fill-opacity:1;stroke:none;font-family:Courier 10 Pitch;-inkscape-font-specification:Courier 10 Pitch Bold"
         id="path4943"
         inkscape:connector-curvature="0" />
      <path
         id="path4793"
         d="m 729.28892,787.3903 c 0,3.58985 -2.91015,6.5 -6.5,6.5 -3.58985,0 -6.5,-2.91015 -6.5,-6.5 0,-3.58985 2.91015,-6.5 6.5,-6.5 3.58985,0 6.5,2.91015 6.5,6.5 z"
         style="fill:#ffffff;fill-opacity:1;stroke:none"
         inkscape:connector-curvature="0" />
      <path
         id="path4795"
         d="m 751.28892,787.3903 c 0,3.58985 -2.91015,6.5 -6.5,6.5 -3.58985,0 -6.5,-2.91015 -6.5,-6.5 0,-3.58985 2.91015,-6.5 6.5,-6.5 3.58985,0 6.5,2.91015 6.5,6.5 z"
         style="fill:#ffffff;fill-opacity:1;stroke:none"
         inkscape:connector-curvature="0" />
      <path
         id="path4797"
         d="m 751.28892,809.3903 c 0,3.58985 -2.91015,6.5 -6.5,6.5 -3.58985,0 -6.5,-2.91015 -6.5,-6.5 0,-3.58985 2.91015,-6.5 6.5,-6.5 3.58985,0 6.5,2.91015 6.5,6.5 z"
         style="fill:#ffffff;fill-opacity:1;stroke:none"
         inkscape:connector-curvature="0" />
      <path
         id="path4799"
         d="m 729.28892,809.3903 c 0,3.58985 -2.91015,6.5 -6.5,6.5 -3.58985,0 -6.5,-2.91015 -6.5,-6.5 0,-3.58985 2.91015,-6.5 6.5,-6.5 3.58985,0 6.5,2.91015 6.5,6.5 z"
         style="fill:#ffffff;fill-opacity:1;stroke:none"
         inkscape:connector-curvature="0" />
      <path
         d="m 540.99331,871.25653 c 0,-0.82407 -0.63799,-0.82407 -1.06331,-0.82407 l -1.43549,0 0,-6.11409 c 0,-2.87095 -1.64814,-3.88111 -3.82794,-3.88111 -1.54181,0 -2.87096,0.55824 -3.9077,1.51523 0,-0.98357 0,-1.35573 -1.06332,-1.35573 l -2.20638,0 c -0.42533,0 -1.06332,0 -1.06332,0.82407 0,0.79749 0.66457,0.79749 1.06332,0.79749 l 1.43548,0 0,8.21414 -1.43548,0 c -0.42533,0 -1.06332,0 -1.06332,0.82407 0,0.79749 0.66457,0.79749 1.06332,0.79749 l 4.70518,0 c 0.39875,0 1.06332,0 1.06332,-0.79749 0,-0.82407 -0.63799,-0.82407 -1.06332,-0.82407 l -1.43548,0 0,-4.67861 c 0,-2.79121 2.28614,-3.69503 3.7482,-3.69503 1.86081,0 2.15322,0.93041 2.15322,2.41905 l 0,5.95459 -1.43548,0 c -0.39874,0 -1.06332,0 -1.06332,0.79748 0,0.82408 0.63799,0.82408 1.06332,0.82408 l 4.70519,0 c 0.39874,0 1.06331,0 1.06331,-0.79749"
         style="font-size:26.58296585px;font-style:normal;font-variant:normal;font-weight:normal;font-stretch:normal;line-height:0%;letter-spacing:1.24607658px;word-spacing:0px;fill:#ff6633;fill-opacity:1;stroke:#ff6633;stroke-width:0.83051169;stroke-miterlimit:4;stroke-opacity:1;font-family:Latin Modern Mono Prop;-inkscape-font-specification:Latin Modern Mono Prop"
         id="path4894"
         inkscape:connector-curvature="0" />
      <path
         d="m 554.36081,869.15647 c 0,-0.74432 -0.77091,-0.74432 -0.93041,-0.74432 -0.42532,0 -0.69115,0.0532 -0.87723,0.58483 -0.53166,1.27598 -1.80765,1.59497 -2.6583,1.59497 -1.99372,0 -3.88111,-1.43548 -4.25328,-3.61528 l 7.6559,0 c 0.55824,0 1.06332,0 1.06332,-0.98357 0,-3.16337 -1.75448,-5.63559 -5.02418,-5.63559 -3.13679,0 -5.58243,2.71147 -5.58243,5.90142 0,3.29628 2.63172,5.95458 5.98117,5.95458 3.37603,0 4.62544,-2.36588 4.62544,-3.05704 m -1.88739,-3.77478 -6.80524,0 c 0.37216,-1.99372 1.91397,-3.40262 3.66845,-3.40262 1.32914,0 2.92412,0.66458 3.13679,3.40262"
         style="font-size:26.58296585px;font-style:normal;font-variant:normal;font-weight:normal;font-stretch:normal;line-height:0%;letter-spacing:1.24607658px;word-spacing:0px;fill:#ff6633;fill-opacity:1;stroke:#ff6633;stroke-width:0.83051169;stroke-miterlimit:4;stroke-opacity:1;font-family:Latin Modern Mono Prop;-inkscape-font-specification:Latin Modern Mono Prop"
         id="path4896"
         inkscape:connector-curvature="0" />
      <path
         d="m 566.44733,868.73115 c 0,-2.76463 -3.16337,-3.34946 -4.01403,-3.50896 -2.07346,-0.37216 -3.48236,-0.63799 -3.48236,-1.72789 0,-0.82407 0.82407,-1.51523 2.79121,-1.51523 1.99372,0 2.12664,1.01016 2.1798,1.54181 0.0266,0.37217 0.0797,0.85066 0.90382,0.85066 0.9304,0 0.93041,-0.55824 0.93041,-1.0899 l 0,-1.83423 c 0,-0.42532 -10e-6,-1.0899 -0.79749,-1.0899 -0.53166,0 -0.71774,0.37216 -0.77091,0.53166 -0.69116,-0.39874 -1.5684,-0.53166 -2.39247,-0.53166 -3.82794,0 -4.46593,2.12664 -4.46593,3.13679 0,2.41905 2.87096,2.95071 3.85453,3.13679 0.21266,0.0532 1.51522,0.29241 1.62156,0.29241 0.87723,0.21267 2.0203,0.74433 2.0203,1.80765 0,1.8608 -2.47221,1.8608 -2.84438,1.8608 -1.99372,0 -2.49879,-1.32915 -2.81779,-2.44563 -0.0797,-0.319 -0.18608,-0.66457 -0.90382,-0.66457 -0.9304,0 -0.9304,0.55824 -0.9304,1.0899 l 0,2.55196 c 0,0.42533 0,1.0899 0.79748,1.0899 0.66458,0 0.87724,-0.69115 0.93041,-0.90382 0.85065,0.69116 1.88739,0.90382 2.89754,0.90382 3.50895,0 4.49252,-2.0203 4.49252,-3.48236"
         style="font-size:26.58296585px;font-style:normal;font-variant:normal;font-weight:normal;font-stretch:normal;line-height:0%;letter-spacing:1.24607658px;word-spacing:0px;fill:#ff6633;fill-opacity:1;stroke:#ff6633;stroke-width:0.83051169;stroke-miterlimit:4;stroke-opacity:1;font-family:Latin Modern Mono Prop;-inkscape-font-specification:Latin Modern Mono Prop"
         id="path4898"
         inkscape:connector-curvature="0" />
      <path
         d="m 577.92951,868.73115 c 0,-0.50508 0,-1.06332 -0.9304,-1.06332 -0.90382,0 -0.90382,0.55824 -0.90382,1.03673 0,1.30257 -0.69116,1.88739 -1.35573,1.88739 -1.30257,0 -1.30257,-1.38231 -1.30257,-1.96714 l 0,-6.40649 2.95071,0 c 0.39874,0 1.06332,0 1.06332,-0.79749 0,-0.82407 -0.63799,-0.82407 -1.06332,-0.82407 l -2.95071,0 0,-2.17981 c 0,-0.50507 0,-1.0899 -0.90382,-1.0899 -0.9304,0 -0.9304,0.55825 -0.9304,1.0899 l 0,2.17981 -1.35573,0 c -0.42533,0 -1.08991,0 -1.08991,0.82407 0,0.79749 0.66458,0.79749 1.06332,0.79749 l 1.38232,0 0,6.56599 c 0,2.71146 1.78106,3.4292 3.03045,3.4292 1.78106,0 3.29629,-1.43548 3.29629,-3.48236"
         style="font-size:26.58296585px;font-style:normal;font-variant:normal;font-weight:normal;font-stretch:normal;line-height:0%;letter-spacing:1.24607658px;word-spacing:0px;fill:#ff6633;fill-opacity:1;stroke:#ff6633;stroke-width:0.83051169;stroke-miterlimit:4;stroke-opacity:1;font-family:Latin Modern Mono Prop;-inkscape-font-specification:Latin Modern Mono Prop"
         id="path4900"
         inkscape:connector-curvature="0" />
      <path
         d="m 588.48503,866.33868 c 0,-0.82407 -0.63799,-0.82407 -1.06332,-0.82407 l -5.29001,0 c -0.39874,0 -1.06332,0 -1.06332,0.79749 0,0.82407 0.63799,0.82407 1.06332,0.82407 l 5.29001,0 c 0.39874,0 1.06332,0 1.06332,-0.79749"
         style="font-size:26.58296585px;font-style:normal;font-variant:normal;font-weight:normal;font-stretch:normal;line-height:0%;letter-spacing:1.24607658px;word-spacing:0px;fill:#ff6633;fill-opacity:1;stroke:#ff6633;stroke-width:0.83051169;stroke-miterlimit:4;stroke-opacity:1;font-family:Latin Modern Mono Prop;-inkscape-font-specification:Latin Modern Mono Prop"
         id="path4902"
         inkscape:connector-curvature="0" />
      <path
         d="m 598.3336,871.25653 c 0,-0.82407 -0.66457,-0.82407 -1.0899,-0.82407 l -1.16965,0 0,-8.7458 c 0,-0.82407 -0.1595,-1.0899 -1.06332,-1.0899 l -2.07347,0 c -0.39874,0 -1.0899,0 -1.0899,0.79749 0,0.82407 0.69116,0.82407 1.0899,0.82407 l 1.30257,0 0,8.21414 -1.43549,0 c -0.42532,0 -1.06331,0 -1.06331,0.82407 0,0.79749 0.66457,0.79749 1.06331,0.79749 l 4.46594,0 c 0.39875,0 1.06332,0 1.06332,-0.79749 m -1.83422,-13.66365 c 0,-0.71774 -0.61141,-1.32915 -1.32915,-1.32915 -0.82407,0 -1.35573,0.66458 -1.35573,1.32915 0,0.71774 0.61141,1.32915 1.32915,1.32915 0.82407,0 1.35573,-0.66457 1.35573,-1.32915"
         style="font-size:26.58296585px;font-style:normal;font-variant:normal;font-weight:normal;font-stretch:normal;line-height:0%;letter-spacing:1.24607658px;word-spacing:0px;fill:#ff6633;fill-opacity:1;stroke:#ff6633;stroke-width:0.83051169;stroke-miterlimit:4;stroke-opacity:1;font-family:Latin Modern Mono Prop;-inkscape-font-specification:Latin Modern Mono Prop"
         id="path4904"
         inkscape:connector-curvature="0" />
      <path
         d="m 615.34255,871.25653 c 0,-0.82407 -0.63799,-0.82407 -1.06332,-0.82407 l -1.43548,0 0,-6.11409 c 0,-2.87095 -1.64815,-3.88111 -3.82795,-3.88111 -1.54181,0 -2.87096,0.55824 -3.90769,1.51523 0,-0.98357 0,-1.35573 -1.06332,-1.35573 l -2.20639,0 c -0.42532,0 -1.06332,0 -1.06332,0.82407 0,0.79749 0.66458,0.79749 1.06332,0.79749 l 1.43548,0 0,8.21414 -1.43548,0 c -0.42532,0 -1.06332,0 -1.06332,0.82407 0,0.79749 0.66458,0.79749 1.06332,0.79749 l 4.70519,0 c 0.39874,0 1.06332,0 1.06332,-0.79749 0,-0.82407 -0.638,-0.82407 -1.06332,-0.82407 l -1.43548,0 0,-4.67861 c 0,-2.79121 2.28613,-3.69503 3.7482,-3.69503 1.8608,0 2.15322,0.93041 2.15322,2.41905 l 0,5.95459 -1.43548,0 c -0.39875,0 -1.06332,0 -1.06332,0.79748 0,0.82408 0.63799,0.82408 1.06332,0.82408 l 4.70518,0 c 0.39874,0 1.06332,0 1.06332,-0.79749"
         style="font-size:26.58296585px;font-style:normal;font-variant:normal;font-weight:normal;font-stretch:normal;line-height:0%;letter-spacing:1.24607658px;word-spacing:0px;fill:#ff6633;fill-opacity:1;stroke:#ff6633;stroke-width:0.83051169;stroke-miterlimit:4;stroke-opacity:1;font-family:Latin Modern Mono Prop;-inkscape-font-specification:Latin Modern Mono Prop"
         id="path4906"
         inkscape:connector-curvature="0" />
      <path
         d="m 624.13777,871.25653 c 0,-0.82407 -0.66457,-0.82407 -1.0899,-0.82407 l -1.16965,0 0,-8.7458 c 0,-0.82407 -0.1595,-1.0899 -1.06332,-1.0899 l -2.07347,0 c -0.39875,0 -1.0899,0 -1.0899,0.79749 0,0.82407 0.69115,0.82407 1.0899,0.82407 l 1.30256,0 0,8.21414 -1.43548,0 c -0.42532,0 -1.06331,0 -1.06331,0.82407 0,0.79749 0.66457,0.79749 1.06331,0.79749 l 4.46594,0 c 0.39875,0 1.06332,0 1.06332,-0.79749 m -1.83422,-13.66365 c 0,-0.71774 -0.61141,-1.32915 -1.32915,-1.32915 -0.82407,0 -1.35573,0.66458 -1.35573,1.32915 0,0.71774 0.61141,1.32915 1.32914,1.32915 0.82408,0 1.35574,-0.66457 1.35574,-1.32915"
         style="font-size:26.58296585px;font-style:normal;font-variant:normal;font-weight:normal;font-stretch:normal;line-height:0%;letter-spacing:1.24607658px;word-spacing:0px;fill:#ff6633;fill-opacity:1;stroke:#ff6633;stroke-width:0.83051169;stroke-miterlimit:4;stroke-opacity:1;font-family:Latin Modern Mono Prop;-inkscape-font-specification:Latin Modern Mono Prop"
         id="path4908"
         inkscape:connector-curvature="0" />
      <path
         d="m 635.40479,868.73115 c 0,-0.50508 0,-1.06332 -0.9304,-1.06332 -0.90382,0 -0.90382,0.55824 -0.90382,1.03673 0,1.30257 -0.69116,1.88739 -1.35574,1.88739 -1.30256,0 -1.30256,-1.38231 -1.30256,-1.96714 l 0,-6.40649 2.95071,0 c 0.39874,0 1.06332,0 1.06332,-0.79749 0,-0.82407 -0.638,-0.82407 -1.06332,-0.82407 l -2.95071,0 0,-2.17981 c 0,-0.50507 0,-1.0899 -0.90382,-1.0899 -0.93041,0 -0.93041,0.55825 -0.93041,1.0899 l 0,2.17981 -1.35573,0 c -0.42532,0 -1.0899,0 -1.0899,0.82407 0,0.79749 0.66458,0.79749 1.06332,0.79749 l 1.38231,0 0,6.56599 c 0,2.71146 1.78106,3.4292 3.03046,3.4292 1.78106,0 3.29629,-1.43548 3.29629,-3.48236"
         style="font-size:26.58296585px;font-style:normal;font-variant:normal;font-weight:normal;font-stretch:normal;line-height:0%;letter-spacing:1.24607658px;word-spacing:0px;fill:#ff6633;fill-opacity:1;stroke:#ff6633;stroke-width:0.83051169;stroke-miterlimit:4;stroke-opacity:1;font-family:Latin Modern Mono Prop;-inkscape-font-specification:Latin Modern Mono Prop"
         id="path4910"
         inkscape:connector-curvature="0" />
      <path
         d="m 645.26915,871.25653 c 0,-0.82407 -0.66458,-0.82407 -1.0899,-0.82407 l -1.16965,0 0,-8.7458 c 0,-0.82407 -0.1595,-1.0899 -1.06332,-1.0899 l -2.07347,0 c -0.39875,0 -1.0899,0 -1.0899,0.79749 0,0.82407 0.69115,0.82407 1.0899,0.82407 l 1.30256,0 0,8.21414 -1.43548,0 c -0.42533,0 -1.06332,0 -1.06332,0.82407 0,0.79749 0.66458,0.79749 1.06332,0.79749 l 4.46594,0 c 0.39874,0 1.06332,0 1.06332,-0.79749 m -1.83423,-13.66365 c 0,-0.71774 -0.6114,-1.32915 -1.32914,-1.32915 -0.82408,0 -1.35574,0.66458 -1.35574,1.32915 0,0.71774 0.61141,1.32915 1.32915,1.32915 0.82407,0 1.35573,-0.66457 1.35573,-1.32915"
         style="font-size:26.58296585px;font-style:normal;font-variant:normal;font-weight:normal;font-stretch:normal;line-height:0%;letter-spacing:1.24607658px;word-spacing:0px;fill:#ff6633;fill-opacity:1;stroke:#ff6633;stroke-width:0.83051169;stroke-miterlimit:4;stroke-opacity:1;font-family:Latin Modern Mono Prop;-inkscape-font-specification:Latin Modern Mono Prop"
         id="path4912"
         inkscape:connector-curvature="0" />
      <path
         d="m 660.52362,871.22994 c 0,-0.79748 -0.66457,-0.79748 -1.06332,-0.79748 -1.01015,0 -1.2494,-0.10634 -1.48864,-0.21267 l 0,-5.74192 c 0,-1.94055 -1.46207,-4.12036 -5.13052,-4.12036 -1.11648,0 -3.77478,0 -3.77478,1.94056 0,0.79749 0.55824,1.22281 1.19624,1.22281 0.45191,0 1.14306,-0.26583 1.16965,-1.22281 0,-0.21267 0.0266,-0.23925 0.45191,-0.29241 0.31899,-0.0266 0.66457,-0.0266 0.98357,-0.0266 1.94055,0 3.2697,0.82408 3.2697,2.71146 -4.78493,0.0797 -7.73564,1.54182 -7.73564,3.96087 0,1.8608 1.67473,3.56211 4.25327,3.56211 1.75448,0 3.08363,-0.53166 3.77478,-1.01015 0.53166,0.77091 1.64815,0.85066 2.79122,0.85066 0.71773,0 1.30256,0 1.30256,-0.82408 m -4.38619,-2.73804 c 0,0.58482 0,1.19623 -1.03673,1.67473 -0.93041,0.42532 -2.04689,0.42532 -2.23297,0.42532 -1.59498,0 -2.63172,-0.9304 -2.63172,-1.94055 0,-1.16965 1.7279,-2.25956 5.90142,-2.39247 l 0,2.23297"
         style="font-size:26.58296585px;font-style:normal;font-variant:normal;font-weight:normal;font-stretch:normal;line-height:0%;letter-spacing:1.24607658px;word-spacing:0px;fill:#ff6633;fill-opacity:1;stroke:#ff6633;stroke-width:0.83051169;stroke-miterlimit:4;stroke-opacity:1;font-family:Latin Modern Mono Prop;-inkscape-font-specification:Latin Modern Mono Prop"
         id="path4914"
         inkscape:connector-curvature="0" />
      <path
         d="m 671.33333,868.73115 c 0,-0.50508 0,-1.06332 -0.9304,-1.06332 -0.90382,0 -0.90382,0.55824 -0.90382,1.03673 0,1.30257 -0.69116,1.88739 -1.35573,1.88739 -1.30257,0 -1.30257,-1.38231 -1.30257,-1.96714 l 0,-6.40649 2.95071,0 c 0.39874,0 1.06332,0 1.06332,-0.79749 0,-0.82407 -0.63799,-0.82407 -1.06332,-0.82407 l -2.95071,0 0,-2.17981 c 0,-0.50507 0,-1.0899 -0.90382,-1.0899 -0.9304,0 -0.9304,0.55825 -0.9304,1.0899 l 0,2.17981 -1.35573,0 c -0.42533,0 -1.08991,0 -1.08991,0.82407 0,0.79749 0.66458,0.79749 1.06332,0.79749 l 1.38232,0 0,6.56599 c 0,2.71146 1.78106,3.4292 3.03046,3.4292 1.78105,0 3.29628,-1.43548 3.29628,-3.48236"
         style="font-size:26.58296585px;font-style:normal;font-variant:normal;font-weight:normal;font-stretch:normal;line-height:0%;letter-spacing:1.24607658px;word-spacing:0px;fill:#ff6633;fill-opacity:1;stroke:#ff6633;stroke-width:0.83051169;stroke-miterlimit:4;stroke-opacity:1;font-family:Latin Modern Mono Prop;-inkscape-font-specification:Latin Modern Mono Prop"
         id="path4916"
         inkscape:connector-curvature="0" />
      <path
         d="m 681.19768,871.25653 c 0,-0.82407 -0.66457,-0.82407 -1.0899,-0.82407 l -1.16965,0 0,-8.7458 c 0,-0.82407 -0.1595,-1.0899 -1.06332,-1.0899 l -2.07347,0 c -0.39874,0 -1.0899,0 -1.0899,0.79749 0,0.82407 0.69116,0.82407 1.0899,0.82407 l 1.30257,0 0,8.21414 -1.43548,0 c -0.42533,0 -1.06332,0 -1.06332,0.82407 0,0.79749 0.66457,0.79749 1.06332,0.79749 l 4.46594,0 c 0.39874,0 1.06331,0 1.06331,-0.79749 m -1.83422,-13.66365 c 0,-0.71774 -0.61141,-1.32915 -1.32915,-1.32915 -0.82407,0 -1.35573,0.66458 -1.35573,1.32915 0,0.71774 0.61141,1.32915 1.32915,1.32915 0.82407,0 1.35573,-0.66457 1.35573,-1.32915"
         style="font-size:26.58296585px;font-style:normal;font-variant:normal;font-weight:normal;font-stretch:normal;line-height:0%;letter-spacing:1.24607658px;word-spacing:0px;fill:#ff6633;fill-opacity:1;stroke:#ff6633;stroke-width:0.83051169;stroke-miterlimit:4;stroke-opacity:1;font-family:Latin Modern Mono Prop;-inkscape-font-specification:Latin Modern Mono Prop"
         id="path4918"
         inkscape:connector-curvature="0" />
      <path
         d="m 697.19648,861.42083 c 0,-0.82407 -0.63799,-0.82407 -1.06332,-0.82407 l -3.72161,0 c -0.39875,0 -1.08991,0 -1.08991,0.79749 0,0.82407 0.66458,0.82407 1.08991,0.82407 l 1.0899,0 -2.95071,8.71921 -2.97729,-8.71921 1.0899,0 c 0.39874,0 1.0899,0 1.0899,-0.79749 0,-0.82407 -0.66458,-0.82407 -1.0899,-0.82407 l -3.72162,0 c -0.42533,0 -1.06332,0 -1.06332,0.82407 0,0.79749 0.66458,0.79749 1.06332,0.79749 l 1.06332,0 3.05704,9.01162 c 0.319,0.93041 0.82407,0.93041 1.48865,0.93041 0.58482,0 1.16965,0 1.46206,-0.90382 l 3.05704,-9.03821 1.06332,0 c 0.39874,0 1.06332,0 1.06332,-0.79749"
         style="font-size:26.58296585px;font-style:normal;font-variant:normal;font-weight:normal;font-stretch:normal;line-height:0%;letter-spacing:1.24607658px;word-spacing:0px;fill:#ff6633;fill-opacity:1;stroke:#ff6633;stroke-width:0.83051169;stroke-miterlimit:4;stroke-opacity:1;font-family:Latin Modern Mono Prop;-inkscape-font-specification:Latin Modern Mono Prop"
         id="path4920"
         inkscape:connector-curvature="0" />
      <path
         d="m 710.01654,869.15647 c 0,-0.74432 -0.77091,-0.74432 -0.93041,-0.74432 -0.42532,0 -0.69115,0.0532 -0.87724,0.58483 -0.53165,1.27598 -1.80764,1.59497 -2.65829,1.59497 -1.99372,0 -3.88112,-1.43548 -4.25328,-3.61528 l 7.6559,0 c 0.55824,0 1.06332,0 1.06332,-0.98357 0,-3.16337 -1.75448,-5.63559 -5.02418,-5.63559 -3.13679,0 -5.58243,2.71147 -5.58243,5.90142 0,3.29628 2.63172,5.95458 5.98117,5.95458 3.37603,0 4.62544,-2.36588 4.62544,-3.05704 m -1.88739,-3.77478 -6.80524,0 c 0.37216,-1.99372 1.91397,-3.40262 3.66845,-3.40262 1.32914,0 2.92412,0.66458 3.13679,3.40262"
         style="font-size:26.58296585px;font-style:normal;font-variant:normal;font-weight:normal;font-stretch:normal;line-height:0%;letter-spacing:1.24607658px;word-spacing:0px;fill:#ff6633;fill-opacity:1;stroke:#ff6633;stroke-width:0.83051169;stroke-miterlimit:4;stroke-opacity:1;font-family:Latin Modern Mono Prop;-inkscape-font-specification:Latin Modern Mono Prop"
         id="path4922"
         inkscape:connector-curvature="0" />
      <path
         d="m 717.26496,870.72487 c 0,-0.74432 -0.58482,-1.32915 -1.32914,-1.32915 -0.74433,0 -1.32915,0.58483 -1.32915,1.32915 0,0.74432 0.58482,1.32915 1.32915,1.32915 0.74432,0 1.32914,-0.58483 1.32914,-1.32915"
         style="font-size:26.58296585px;font-style:normal;font-variant:normal;font-weight:normal;font-stretch:normal;line-height:0%;letter-spacing:1.24607658px;word-spacing:0px;fill:#ff6633;fill-opacity:1;stroke:#ff6633;stroke-width:0.83051169;stroke-miterlimit:4;stroke-opacity:1;font-family:Latin Modern Mono Prop;-inkscape-font-specification:Latin Modern Mono Prop"
         id="path4924"
         inkscape:connector-curvature="0" />
      <path
         d="m 734.00808,866.3121 c 0,-3.24312 -2.63172,-5.95459 -5.95458,-5.95459 -3.32287,0 -5.95459,2.71147 -5.95459,5.95459 0,3.29628 2.68489,5.90141 5.95459,5.90141 3.2697,0 5.95458,-2.60513 5.95458,-5.90141 m -1.83422,-0.18609 c 0,2.41905 -1.83423,4.46594 -4.12036,4.46594 -2.31272,0 -4.12036,-2.04689 -4.12036,-4.46594 0,-2.39246 1.91397,-4.14694 4.12036,-4.14694 2.20638,0 4.12036,1.75448 4.12036,4.14694"
         style="font-size:26.58296585px;font-style:normal;font-variant:normal;font-weight:normal;font-stretch:normal;line-height:0%;letter-spacing:1.24607658px;word-spacing:0px;fill:#ff6633;fill-opacity:1;stroke:#ff6633;stroke-width:0.83051169;stroke-miterlimit:4;stroke-opacity:1;font-family:Latin Modern Mono Prop;-inkscape-font-specification:Latin Modern Mono Prop"
         id="path4926"
         inkscape:connector-curvature="0" />
      <path
         d="m 746.34963,862.0854 c 0,-0.74432 -0.66457,-1.64814 -1.99372,-1.64814 -1.38231,0 -2.47222,0.69116 -3.26971,1.62156 0,-1.11648 0,-1.46206 -1.06332,-1.46206 l -2.20638,0 c -0.42533,0 -1.06332,0 -1.06332,0.82407 0,0.79749 0.66457,0.79749 1.06332,0.79749 l 1.43548,0 0,8.21414 -1.43548,0 c -0.42533,0 -1.06332,0 -1.06332,0.82407 0,0.79749 0.66457,0.79749 1.06332,0.79749 l 5.34317,0 c 0.39875,0 1.06332,0 1.06332,-0.79749 0,-0.82407 -0.63799,-0.82407 -1.06332,-0.82407 l -2.07347,0 0,-3.37604 c 0,-2.3393 0.98358,-4.73177 3.03046,-4.97102 0.0532,0.95699 0.77091,1.14307 1.11649,1.14307 0.58482,0 1.11648,-0.42533 1.11648,-1.14307"
         style="font-size:26.58296585px;font-style:normal;font-variant:normal;font-weight:normal;font-stretch:normal;line-height:0%;letter-spacing:1.24607658px;word-spacing:0px;fill:#ff6633;fill-opacity:1;stroke:#ff6633;stroke-width:0.83051169;stroke-miterlimit:4;stroke-opacity:1;font-family:Latin Modern Mono Prop;-inkscape-font-specification:Latin Modern Mono Prop"
         id="path4928"
         inkscape:connector-curvature="0" />
      <path
         d="m 761.92932,861.73983 c 0,-0.61141 -0.50508,-1.43548 -1.94056,-1.43548 -0.29241,0 -1.59498,0.0266 -2.81779,0.9304 -0.42533,-0.29241 -1.35573,-0.79749 -2.57855,-0.79749 -2.4988,0 -4.38619,1.99372 -4.38619,4.25327 0,1.14307 0.45191,2.02031 0.85066,2.52539 -0.29242,0.42532 -0.53166,1.01015 -0.53166,1.80764 0,0.9304 0.37216,1.59498 0.61141,1.91397 -1.96714,1.19623 -1.96714,3.00388 -1.96714,3.29629 0,2.28613 2.79121,3.9077 6.19383,3.9077 3.40261,0 6.19383,-1.64815 6.19383,-3.9077 0,-0.98357 -0.4785,-2.31272 -1.83423,-3.03046 -0.34557,-0.18608 -1.46206,-0.7709 -3.85453,-0.7709 l -1.8608,0 c -0.21267,0 -0.55825,0 -0.77091,-0.0532 -0.39874,0 -0.55824,0 -0.87724,-0.37216 -0.29241,-0.37216 -0.31899,-0.95699 -0.31899,-0.95699 0,-0.10633 0.0532,-0.47849 0.15949,-0.74432 0.0798,0.0532 1.08991,0.66457 2.39247,0.66457 2.44563,0 4.38619,-1.91397 4.38619,-4.27986 0,-0.79748 -0.23925,-1.56839 -0.69116,-2.31271 0.55825,-0.319 1.19624,-0.42533 1.54182,-0.45191 0.15949,0.71774 0.7709,0.90382 1.03673,0.90382 0.45191,0 1.06332,-0.319 1.06332,-1.0899 m -4.78493,2.9507 c 0,1.51523 -1.16966,2.68488 -2.55197,2.68488 -1.43548,0 -2.55196,-1.2494 -2.55196,-2.65829 0,-1.51523 1.16965,-2.68488 2.55196,-2.68488 1.43548,0 2.55197,1.2494 2.55197,2.65829 m 2.87096,9.54329 c 0,1.16965 -1.99373,2.31272 -4.65202,2.31272 -2.6583,0 -4.65202,-1.14307 -4.65202,-2.31272 0,-0.47849 0.23925,-1.32915 1.0899,-1.86081 0.66457,-0.42533 0.90382,-0.42533 2.84438,-0.42533 2.36588,0 5.36976,1e-5 5.36976,2.28614"
         style="font-size:26.58296585px;font-style:normal;font-variant:normal;font-weight:normal;font-stretch:normal;line-height:0%;letter-spacing:1.24607658px;word-spacing:0px;fill:#ff6633;fill-opacity:1;stroke:#ff6633;stroke-width:0.83051169;stroke-miterlimit:4;stroke-opacity:1;font-family:Latin Modern Mono Prop;-inkscape-font-specification:Latin Modern Mono Prop"
         id="path4930"
         inkscape:connector-curvature="0" />
      <path
         inkscape:connector-curvature="0"
         d="m 762.36636,834.86299 c 0,8.09375 -6.4625,15.69375 -14.43875,15.69375 l -221.89375,0 -10e-4,-84.5925 c 0,-8.0925 6.46375,-14.65375 14.44,-14.65375 l 207.455,0 c 7.97625,0 14.43875,6.56125 14.43875,14.65375 l 0,68.89875 z"
         style="fill:#ff6633;fill-opacity:1;fill-rule:nonzero;stroke:none"
         id="path3386" />
      <path
         d="m 571.50137,809.8526 0,-12.062 c 0,-9.47199 -3.626,-14.208 -11.47,-14.208 -4.58799,0 -7.918,1.77601 -10.212,5.254 l 0,-2.812 c 0,-0.96199 -0.666,-1.554 -2.072,-1.554 l -6.142,0 c -3.03399,0 -4.514,0.96201 -4.514,3.996 0,2.59 1.33201,3.922 3.922,3.922 0.148,0 0.37,0 0.592,0 l 0,17.464 c -0.148,0 -0.296,0 -0.444,0 -2.73799,0 -4.07,1.33201 -4.07,3.996 0,2.96 1.40601,3.996 4.514,3.996 l 8.954,0 c 3.108,0 4.514,-1.036 4.514,-3.996 0,-2.66399 -1.332,-3.996 -4.07,-3.996 -0.148,0 -0.296,0 -0.444,0 l 0,-10.434 c 0,-5.10599 3.03401,-7.992 6.808,-7.992 4.144,0 5.254,2.73801 5.254,7.992 l 0,10.434 c -0.148,0 -0.296,0 -0.444,0 -2.73799,0 -4.144,1.33201 -4.144,3.996 0,2.96 1.48001,3.996 4.588,3.996 l 8.88,0 c 3.108,0 4.514,-1.036 4.514,-3.996 0,-2.66399 -1.332,-3.996 -4.07,-3.996 -0.148,0 -0.296,0 -0.444,0"
         style="font-size:74px;font-style:normal;font-variant:normal;font-weight:bold;font-stretch:normal;text-align:start;line-height:0%;letter-spacing:-2.5px;word-spacing:0px;writing-mode:lr-tb;text-anchor:start;fill:#ffffff;fill-opacity:1;stroke:none;font-family:Courier 10 Pitch;-inkscape-font-specification:Courier 10 Pitch Bold"
         id="path3388"
         inkscape:connector-curvature="0" />
      <path
         d="m 588.505,803.2666 23.31,0 c 3.77399,0 5.254,-0.518 5.254,-3.7 0,-8.43599 -7.10401,-15.91 -18.056,-15.91 -11.98799,0 -19.684,7.54801 -19.684,17.538 0,9.98999 7.77001,17.538 19.684,17.538 10.58199,0 17.464,-4.144 17.464,-8.288 0,-2.14599 -1.332,-3.552 -3.256,-3.552 -2.664,0 -6.14201,4.366 -13.912,4.366 -5.994,0 -9.546,-2.59 -10.804,-7.992 m 0,-5.624 c 1.258,-4.73599 4.44,-7.03 9.694,-7.03 5.40199,0 8.954,2.51601 9.768,7.03 l -19.462,0"
         style="font-size:74px;font-style:normal;font-variant:normal;font-weight:bold;font-stretch:normal;text-align:start;line-height:0%;letter-spacing:-2.5px;word-spacing:0px;writing-mode:lr-tb;text-anchor:start;fill:#ffffff;fill-opacity:1;stroke:none;font-family:Courier 10 Pitch;-inkscape-font-specification:Courier 10 Pitch Bold"
         id="path3390"
         inkscape:connector-curvature="0" />
      <path
         d="m 630.81662,817.4006 c 3.478,0.962 6.95601,1.332 10.73,1.332 10.13799,0 15.54,-4.292 15.54,-11.322 0,-7.10399 -5.10601,-9.25 -14.356,-10.582 -6.51199,-0.96199 -9.472,-0.666 -9.472,-3.774 0,-2.07199 1.99801,-3.478 5.92,-3.478 6.512,0 8.58401,5.18 12.21,5.18 1.924,0 3.108,-1.184 3.108,-3.256 l 0,-4.44 c 0,-2.44199 -0.962,-3.7 -2.96,-3.7 -1.406,0 -2.59,0.59201 -3.552,1.776 -3.40399,-1.03599 -6.66,-1.554 -9.916,-1.554 -9.17599,0 -14.208,3.92201 -14.208,10.656 0,5.772 4.07001,9.02801 12.432,10.212 7.844,1.11 11.248,1.11001 11.248,4.514 0,1.924 -1.924,3.626 -5.698,3.626 -3.99599,0 -7.03,-1.036 -9.472,-3.182 -1.776,-1.62799 -1.702,-3.7 -4.81,-3.7 -2.58999,0 -3.552,1.18401 -3.552,4.366 l 0,4.884 c 0,2.516 0.51801,3.922 2.886,3.922 1.332,0 2.59,-0.518 3.922,-1.48"
         style="font-size:74px;font-style:normal;font-variant:normal;font-weight:bold;font-stretch:normal;text-align:start;line-height:0%;letter-spacing:-2.5px;word-spacing:0px;writing-mode:lr-tb;text-anchor:start;fill:#ffffff;fill-opacity:1;stroke:none;font-family:Courier 10 Pitch;-inkscape-font-specification:Courier 10 Pitch Bold"
         id="path3392"
         inkscape:connector-curvature="0" />
      <path
         d="m 667.57825,794.3866 3.404,0 0,9.25 c 0,0.296 0,0.592 0,0.814 0,4.366 0.074,7.69601 2.22,10.212 2.072,2.442 5.846,3.922 10.952,3.922 8.95399,0 16.502,-3.996 16.502,-7.252 0,-2.51599 -1.702,-4.144 -3.626,-4.144 -3.108,0 -6.66001,3.256 -11.766,3.256 -4.292,0 -5.402,-2.072 -5.402,-6.808 l 0,-9.25 11.026,0 c 3.034,0 4.588,-0.962 4.588,-3.996 0,-3.03399 -1.554,-3.922 -4.588,-3.922 l -11.026,0 0,-8.436 c 0,-3.10799 -1.11001,-4.514 -4.514,-4.514 -2.812,0 -4.366,1.55401 -4.366,3.034 0,0.148 0,0.59201 0,1.48 l 0,8.436 -3.404,0 c -3.034,0 -4.514,0.88801 -4.514,3.922 0,3.034 1.48,3.996 4.514,3.996"
         style="font-size:74px;font-style:normal;font-variant:normal;font-weight:bold;font-stretch:normal;text-align:start;line-height:0%;letter-spacing:-2.5px;word-spacing:0px;writing-mode:lr-tb;text-anchor:start;fill:#ffffff;fill-opacity:1;stroke:none;font-family:Courier 10 Pitch;-inkscape-font-specification:Courier 10 Pitch Bold"
         id="path3394"
         inkscape:connector-curvature="0" />
      <path
         sodipodi:type="arc"
         style="fill:#ffffff;fill-opacity:1;stroke:none"
         id="path3396"
         sodipodi:cx="-133.20123"
         sodipodi:cy="461.3093"
         sodipodi:rx="9.6343298"
         sodipodi:ry="8.3968925"
         d="m -123.5669,461.3093 c 0,4.63747 -4.31344,8.39689 -9.63433,8.39689 -5.3209,0 -9.63433,-3.75942 -9.63433,-8.39689 0,-4.63748 4.31343,-8.3969 9.63433,-8.3969 5.32089,0 9.63433,3.75942 9.63433,8.3969 z"
         transform="matrix(0.6746707,0,0,0.77409589,812.65589,432.29267)" />
      <path
         transform="matrix(0.6746707,0,0,0.77409589,834.65589,432.29267)"
         d="m -123.5669,461.3093 c 0,4.63747 -4.31344,8.39689 -9.63433,8.39689 -5.3209,0 -9.63433,-3.75942 -9.63433,-8.39689 0,-4.63748 4.31343,-8.3969 9.63433,-8.3969 5.32089,0 9.63433,3.75942 9.63433,8.3969 z"
         sodipodi:ry="8.3968925"
         sodipodi:rx="9.6343298"
         sodipodi:cy="461.3093"
         sodipodi:cx="-133.20123"
         id="path3398"
         style="fill:#ffffff;fill-opacity:1;stroke:none"
         sodipodi:type="arc" />
      <path
         sodipodi:type="arc"
         style="fill:#ffffff;fill-opacity:1;stroke:none"
         id="path3400"
         sodipodi:cx="-133.20123"
         sodipodi:cy="461.3093"
         sodipodi:rx="9.6343298"
         sodipodi:ry="8.3968925"
         d="m -123.5669,461.3093 c 0,4.63747 -4.31344,8.39689 -9.63433,8.39689 -5.3209,0 -9.63433,-3.75942 -9.63433,-8.39689 0,-4.63748 4.31343,-8.3969 9.63433,-8.3969 5.32089,0 9.63433,3.75942 9.63433,8.3969 z"
         transform="matrix(0.6746707,0,0,0.77409589,834.65589,454.29267)" />
      <path
         transform="matrix(0.6746707,0,0,0.77409589,812.65589,454.29267)"
         d="m -123.5669,461.3093 c 0,4.63747 -4.31344,8.39689 -9.63433,8.39689 -5.3209,0 -9.63433,-3.75942 -9.63433,-8.39689 0,-4.63748 4.31343,-8.3969 9.63433,-8.3969 5.32089,0 9.63433,3.75942 9.63433,8.3969 z"
         sodipodi:ry="8.3968925"
         sodipodi:rx="9.6343298"
         sodipodi:cy="461.3093"
         sodipodi:cx="-133.20123"
         id="path3402"
         style="fill:#ffffff;fill-opacity:1;stroke:none"
         sodipodi:type="arc" />
    </g>
  </g>
</svg>
