<?xml version="1.0" encoding="UTF-8" standalone="no"?>
<!-- Created with Inkscape (http://www.inkscape.org/) -->

<svg
   version="1.1"
   id="svg16501"
   width="512"
   height="512"
   viewBox="0 0 512 512"
   sodipodi:docname="001-shuttle.svg"
   inkscape:version="1.2 (1:1.2.1+202207142221+cd75a1ee6d)"
   xmlns:inkscape="http://www.inkscape.org/namespaces/inkscape"
   xmlns:sodipodi="http://sodipodi.sourceforge.net/DTD/sodipodi-0.dtd"
   xmlns="http://www.w3.org/2000/svg"
   xmlns:svg="http://www.w3.org/2000/svg">
  <defs
     id="defs16505" />
  <sodipodi:namedview
     id="namedview16503"
     pagecolor="#ffffff"
     bordercolor="#666666"
     borderopacity="1.0"
     inkscape:showpageshadow="2"
     inkscape:pageopacity="0.0"
     inkscape:pagecheckerboard="0"
     inkscape:deskcolor="#d1d1d1"
     showgrid="false"
     inkscape:zoom="1.6601562"
     inkscape:cx="155.40706"
     inkscape:cy="135.83059"
     inkscape:window-width="1848"
     inkscape:window-height="1016"
     inkscape:window-x="72"
     inkscape:window-y="27"
     inkscape:window-maximized="1"
     inkscape:current-layer="g16507" />
  <g
     inkscape:groupmode="layer"
     inkscape:label="Image"
     id="g16507">
    <path
       style="fill:#fe6532;stroke-width:2"
       d="m 3.722844,509.15024 c -1.89762,-2.09686 -3.30998,-7.01012 -3.30998,-11.5147 0,-7.6038 1.63549,-9.49178 50.70411,-58.5321 47.236024,-47.20878 51.206326,-50.68908 58.046746,-50.88298 9.93963,-0.28176 16.11817,5.89678 15.83642,15.83642 -0.1939,6.8404 -3.67421,10.81072 -50.882998,58.04674 -49.768538,49.79726 -50.821599,50.7041 -58.879588,50.7041 -5.4086305,0 -9.3327505,-1.24644 -11.51471,-3.65748 z m 90.690024,-0.34252 c -2.594504,-2.5945 -4,-6.66666 -4,-11.58926 0,-7.11056 1.807378,-9.38122 28.654992,-36 24.93788,-24.72532 29.48984,-28.41074 35.0909,-28.41074 8.65346,0 16.25411,7.63746 16.25411,16.33282 0,5.71556 -3.50517,10.0198 -28.57627,35.0909 -26.50352,26.50354 -29.11474,28.57628 -36,28.57628 -4.75706,0 -8.860566,-1.43684 -11.423732,-4 z m 150.597102,0.081 c -9.36958,-5.713 -11.69214,-11.91478 -16.50826,-44.081 -5.74256,-38.35368 -4.77772,-35.9917 -14.72362,-36.04392 -16.50135,-0.0866 -23.68427,-5.49844 -73.75357,-55.56774 -50.069296,-50.06928 -55.481082,-57.25222 -55.567728,-73.75356 -0.05222,-9.9459 2.309756,-8.98106 -36.043928,-14.72362 -41.7781405,-6.25528 -47,-9.76848 -47,-31.62114 v -13.29002 l 26.74969,-40 c 14.71232,-22 29.112322,-42.55535 31.999996,-45.67855 9.49383,-10.26818 14.57877,-11.59163 58.09781,-15.12103 l 41.15251,-3.33748 29,-28.93632 c 32.30966,-32.238708 56.21438,-50.360966 87.99999,-66.713156 49.76556,-25.602003 97.28752,-36.9972022 161.2244,-38.6596761 43.72472,-1.13692143 50.15114,-0.1867652 61.111,9.0353451 11.56916,9.734798 13.57152,17.594409 13.62068,53.463335 0.0674,49.138442 -5.33638,83.705042 -19.89032,127.234582 -17.07436,51.06797 -41.63442,89.25737 -85.99238,133.71295 l -28.93632,29 -3.33748,41.1525 c -3.52942,43.51942 -4.85312,48.6052 -15.12102,58.09664 -6.2414,5.76942 -73.84734,51.15316 -84.07924,56.44222 -8.65994,4.4765 -22.10817,4.2029 -30.00221,-0.6104 z M 303.5893,452.1747 c 17.69706,-11.64754 33.12902,-22.34502 34.29326,-23.77216 1.16426,-1.42712 2.7667,-13.15288 3.561,-26.0572 l 1.4442,-23.46244 -20.20922,11.67574 c -16.54112,9.55654 -43.7067,21.68364 -65.00952,29.0212 -2.83737,0.9773 -3.48477,2.61372 -2.67387,6.75872 0.58848,3.00806 2.64969,16.04844 4.58047,28.97864 3.44198,23.05036 3.59184,23.45598 7.6739,20.77216 2.28984,-1.5055 18.64274,-12.2671 36.33978,-23.91466 z m -62.67643,-61.80706 c 8.525,-2.3031 15.5,-4.72654 15.5,-5.38542 0,-2.12714 -127.80908,-129.03208 -128.87643,-127.96474 -0.56728,0.56728 -3.47824,10.69406 -6.46881,22.50394 l -5.4374,21.47252 47.89132,47.9971 c 54.47982,54.60016 45.74004,49.9275 77.39132,41.3766 z m 66.07555,-28.38084 c 23.6577,-13.48192 46.01004,-30.27584 67.70578,-50.86916 56.19534,-53.33998 85.24922,-104.95388 99.80912,-177.30992 5.96646,-29.65059 8.09336,-94.697808 3.22844,-98.73534 -2.27862,-1.891088 -10.9052,-2.566676 -31.3507,-2.455222 -81.88412,0.446376 -149.84214,23.942336 -209.06581,72.282922 -32.16274,26.25241 -68.70483,69.64844 -87.69584,104.14428 l -7.79345,14.15628 73.78331,73.80354 c 40.58084,40.59194 74.25967,73.80354 74.84189,73.80354 0.5822,0 8.02398,-3.96942 16.53726,-8.82092 z M 337.9738,236.78598 c -48.71802,-8.40896 -76.13142,-60.94107 -55.7939,-106.91742 5.58724,-12.63088 22.00758,-29.28706 35.70166,-36.214416 10.55606,-5.339946 13.30734,-5.833844 32.5313,-5.839856 18.568,-0.0058 22.31448,0.609632 32.3503,5.314246 15.9011,7.454166 28.44466,19.738516 36.14984,35.402856 6.08538,12.37138 6.49944,14.55507 6.4933,34.24516 -0.006,19.30715 -0.48974,21.98663 -5.9007,32.68671 -7.60072,15.03034 -25.45814,31.7108 -39.52358,36.91862 -13.0371,4.82706 -29.53626,6.55682 -42.00822,4.4041 z m 32.43906,-36.03477 c 40.47302,-20.68265 26.26864,-81.94349 -19,-81.94349 -29.0187,0 -50.06872,27.54055 -42.07282,55.04547 7.75444,26.6744 36.6268,39.39051 61.07282,26.89802 z M 93.734368,255.30772 c 7.028812,-20.56994 19.413672,-48.29826 28.927612,-64.76568 l 11.67575,-20.20922 -23.46243,1.45019 c -12.904338,0.7976 -24.185556,1.88731 -25.069374,2.42157 -0.883818,0.53427 -12.819824,17.76354 -26.524456,38.28726 l -24.917516,37.31588 25.524456,4.26454 c 32.386418,5.41104 32.418748,5.41222 33.845958,1.23546 z m -89.3215045,163.5 C 1.849704,416.24456 0.412864,412.14106 0.412864,407.384 c 0,-6.88526 2.07275,-9.49648 28.57628,-36 25.0711,-25.07112 29.375352,-28.57628 35.090904,-28.57628 8.695362,0 16.33282,7.60066 16.33282,16.2541 0,5.60106 -3.68542,10.15304 -28.410744,35.09092 -26.61877,26.8476 -28.88943,28.65498 -36,28.65498 -4.92259,0 -8.9947505,-1.4055 -11.5892605,-4 z"
       id="path16511" />
  </g>
</svg>
