<?xml version="1.0" encoding="UTF-8" standalone="no"?>
<!-- Created with Inkscape (http://www.inkscape.org/) -->

<svg
   version="1.1"
   id="svg16422"
   width="375.89081"
   height="376.00198"
   viewBox="0 0 375.89081 376.00198"
   sodipodi:docname="014-teacher.svg"
   inkscape:version="1.2 (1:1.2.1+202207142221+cd75a1ee6d)"
   xmlns:inkscape="http://www.inkscape.org/namespaces/inkscape"
   xmlns:sodipodi="http://sodipodi.sourceforge.net/DTD/sodipodi-0.dtd"
   xmlns="http://www.w3.org/2000/svg"
   xmlns:svg="http://www.w3.org/2000/svg">
  <defs
     id="defs16426" />
  <sodipodi:namedview
     id="namedview16424"
     pagecolor="#ffffff"
     bordercolor="#666666"
     borderopacity="1.0"
     inkscape:showpageshadow="2"
     inkscape:pageopacity="0.0"
     inkscape:pagecheckerboard="0"
     inkscape:deskcolor="#d1d1d1"
     showgrid="false"
     inkscape:zoom="1.6601562"
     inkscape:cx="91.55765"
     inkscape:cy="177.9953"
     inkscape:window-width="1848"
     inkscape:window-height="1016"
     inkscape:window-x="72"
     inkscape:window-y="27"
     inkscape:window-maximized="1"
     inkscape:current-layer="g16428" />
  <g
     inkscape:groupmode="layer"
     inkscape:label="Image"
     id="g16428"
     transform="translate(-63.998782,-78.354871)">
    <path
       style="fill:#fe6532;stroke-width:2"
       d="m 240.34419,451.95684 c -1.72632,-1.72632 -2.4,-15.2 -2.4,-48 v -45.6 h -68.26796 c -48.01615,0 -70.689129,-0.7254 -76.429611,-2.4453 -10.903596,-3.26678 -24.290724,-16.3931 -27.082342,-26.5547 -1.469618,-5.34946 -2.18692,-42.78824 -2.165008,-113 0.03057,-97.94845 0.281514,-105.53726 3.736648,-113 2.037134,-4.400002 6.292368,-10.427258 9.456076,-13.393906 12.840264,-12.040468 6.299942,-11.606096 174.752197,-11.606096 168.45226,0 161.91194,-0.434372 174.7522,11.606096 3.1637,2.966648 7.41894,8.993904 9.45608,13.393906 3.45512,7.46274 3.70608,15.05155 3.73664,113 0.022,70.21176 -0.69538,107.65054 -2.165,113 -3.98628,14.51016 -23.7284,29 -39.51196,29 -4.05984,0 -4.26796,0.93294 -4.26796,19.13148 0,26.50906 -0.2819,26.86852 -21.07036,26.86852 h -16.92964 v 21.13148 c 0,11.62232 -0.93166,22.87232 -2.07036,25 -1.9692,3.67948 -4.73506,3.86852 -56.6,3.86852 -39.74528,0 -55.18034,-0.6507 -56.92964,-2.4 z m 99.6,-80.38602 c 0,-59.05514 0.3662,-66.92656 3.16358,-68 4.73806,-1.81816 6.24672,-1.51796 9.69356,1.92888 2.64688,2.64686 3.14286,9.4329 3.14286,43 v 39.85714 h 11.1817 11.1817 l -0.71732,-48.5 c -0.67132,-45.38946 -0.99992,-49.03274 -5.12366,-56.80654 -5.40156,-10.1827 -16.20668,-19.3665 -26.36698,-22.4106 -11.54824,-3.45994 -86.49742,-3.05768 -94.71968,0.50836 -3.53966,1.53518 -16.32042,12.78518 -28.40166,25 -16.32456,16.50508 -23.25072,22.20878 -26.9687,22.20878 -3.70306,0 -10.85645,-5.83704 -27.53375,-22.46702 l -22.53094,-22.46702 -7.50035,7.51076 -7.50036,7.51078 29.13619,28.95624 c 37.19437,36.96468 34.67133,36.60468 62.76781,8.95626 11.17826,-11 21.66778,-20 23.31006,-20 7.46118,0 7.78594,3.06166 7.78594,73.4 v 68.6 h 43 43 z M 140.36035,311.71138 c -16.72889,-16.85502 -30.41616,-31.80836 -30.41616,-33.22968 0,-1.42132 6.75,-9.52048 15,-17.99814 l 15,-15.41392 v -40.28603 c 0,-38.23912 0.20324,-40.3948 4,-42.42677 2.84198,-1.52098 5.15802,-1.52098 8,0 3.8072,2.03755 4,4.18765 4,44.60789 v 42.46715 l 19.92606,19.8513 19.92607,19.8513 21.57393,-21.00652 c 17.2606,-16.80662 23.37334,-21.50558 30.57394,-23.5026 6.33072,-1.75578 22.68776,-2.31404 55.151,-1.8823 l 46.15102,0.61378 11.79192,6.03552 c 12.83324,6.5685 24.48598,19.76996 28.79014,32.6165 1.35404,4.0414 2.95446,19.3614 3.55648,34.04446 l 1.09456,26.6965 6.1279,-1.22558 c 8.43078,-1.68616 14.8132,-6.21254 19.42498,-13.77606 3.72954,-6.11662 3.89704,-10.81848 3.89704,-109.39134 0,-99.25732 -0.1444,-103.23685 -3.97424,-109.51828 -2.18584,-3.58506 -6.90746,-8.30669 -10.49252,-10.492526 -6.35224,-3.87301 -10.36466,-3.974244 -157.51828,-3.974244 -147.15363,0 -151.16604,0.10124 -157.518279,3.974244 -3.585054,2.185836 -8.30669,6.907466 -10.492524,10.492526 -3.82983,6.28142 -3.974516,10.26844 -3.98172,109.72252 l -0.0075,103.20422 4.539866,6.79578 c 8.1548,12.20698 14.162914,13.78916 52.376297,13.79266 l 33.91615,0.003 z m 140.58384,-85.11222 c -29.7883,-13.66476 -34.99554,-53.11767 -9.75664,-73.92169 26.67276,-21.98594 67.88028,-4.73227 70.35332,29.45706 1.03762,14.3449 -1.98612,24.24879 -10.29124,33.70781 -12.1631,13.853 -33.57506,18.43154 -50.30544,10.75682 z m 28.59932,-15.0523 c 15.50486,-8.06716 20.98774,-25.89534 12.05252,-39.19002 -6.21866,-9.25273 -17.61038,-14.82814 -26.78158,-13.10762 -9.72462,1.82435 -20.35316,11.7598 -22.96788,21.47015 -1.8772,6.97137 -1.5601,9.17506 2.4721,17.18041 7.24928,14.39236 22.46354,20.28678 35.22484,13.64708 z m -71.59932,122.80998 c 0,-4.4 -0.26734,-8 -0.5941,-8 -0.32676,0 -4.10942,3.6 -8.4059,8 l -7.8118,8 h 8.4059 8.4059 z"
       id="path16432" />
  </g>
</svg>
