<?xml version="1.0" encoding="UTF-8" standalone="no"?>
<!-- Created with Inkscape (http://www.inkscape.org/) -->

<svg
   version="1.1"
   id="svg16288"
   width="512"
   height="512"
   viewBox="0 0 512 512"
   sodipodi:docname="019-programmer-1.svg"
   inkscape:version="1.2 (1:1.2.1+202207142221+cd75a1ee6d)"
   xmlns:inkscape="http://www.inkscape.org/namespaces/inkscape"
   xmlns:sodipodi="http://sodipodi.sourceforge.net/DTD/sodipodi-0.dtd"
   xmlns="http://www.w3.org/2000/svg"
   xmlns:svg="http://www.w3.org/2000/svg">
  <defs
     id="defs16292" />
  <sodipodi:namedview
     id="namedview16290"
     pagecolor="#ffffff"
     bordercolor="#666666"
     borderopacity="1.0"
     inkscape:showpageshadow="2"
     inkscape:pageopacity="0.0"
     inkscape:pagecheckerboard="0"
     inkscape:deskcolor="#d1d1d1"
     showgrid="false"
     inkscape:zoom="1.6601562"
     inkscape:cx="155.40706"
     inkscape:cy="256.30118"
     inkscape:window-width="1848"
     inkscape:window-height="1016"
     inkscape:window-x="72"
     inkscape:window-y="27"
     inkscape:window-maximized="1"
     inkscape:current-layer="g16294" />
  <g
     inkscape:groupmode="layer"
     inkscape:label="Image"
     id="g16294">
    <path
       style="fill:#fe6532;stroke-width:2"
       d="m 0.606467,437.25537 c 0.542451,-63.20536 0.933168,-70.134 4.313956,-76.5 5.098935,-9.60126 18.780532,-23.5536 27.53411,-28.07896 3.988376,-2.06188 25.588376,-7.88294 48,-12.9357 61.843647,-13.94278 55.748407,-11.45098 55.748407,-22.79042 0,-8.99098 -0.5433,-10.02742 -7.94526,-15.15698 -22.31594,-15.46496 -38.270475,-41.91192 -42.251453,-70.03794 -1.335122,-9.43278 -1.825118,-27.9031 -1.1938,-45 0.883342,-23.92202 1.921824,-31.33892 5.930698,-42.35742 10.000105,-27.485552 25.642435,-45.016374 51.005945,-57.163846 54.82915,-26.259594 120.79599,1.822564 138.43533,58.932066 3.43384,11.1175 4.01854,18.60159 4.01854,51.43687 0,40.91033 -1.51724,50.41857 -11.04908,69.24253 -6.0347,11.91762 -20.7906,28.17778 -31.99424,35.25582 -8.54018,5.39538 -8.9497,6.08676 -8.9531,15.11588 -0.004,8.17236 0.60972,9.6036 4.49642,10.50168 2.475,0.57188 10.8,2.43206 18.5,4.13374 81.59776,18.03278 86.34688,19.73054 100.652,35.98202 13.8345,15.7168 14.348,19.05514 14.348,93.27694 v 65.64372 H 185.10647 0.009994 Z m 69.596474,19.5 v -20 h 16 15.999999 v 20 20 h 82 82 v -20 -20 h 16 16 v 20 20 h 20 20 v -48.70424 c 0,-47.21798 -0.1376,-48.9083 -4.5068,-55.39186 -2.47874,-3.6782 -7.24856,-8.28892 -10.5996,-10.24604 -5.13844,-3.001 -81.1327,-21.65238 -88.2385,-21.6565 -1.28968,-7.4e-4 -3.4233,3.26628 -4.74138,7.26006 -3.19256,9.67354 -15.03026,22.50598 -24.91372,27.00726 -10.54607,4.80304 -29.45393,4.80304 -40,0 -9.7181,-4.42596 -21.63986,-17.22328 -25.1894,-27.03936 -1.50262,-4.15544 -3.93151,-7.19522 -5.71238,-7.1491 -1.70402,0.0442 -21.81327,4.40636 -44.687209,9.6939 -60.220164,13.9205 -59.41101,12.77204 -59.41101,84.32432 v 41.90156 h 20 20 z M 194.93322,342.61021 c 5.06071,-3.98076 5.26972,-4.93264 5.26972,-24 v -19.85484 h -16.19306 -16.19306 l 0.69306,18.84258 c 0.61311,16.66892 1.25239,19.43752 5.54169,24 5.91645,6.29326 13.68895,6.67004 20.88165,1.01226 z m 18.3524,-81.87544 c 14.55914,-7.01944 29.41774,-22.73954 34.60974,-36.6164 3.60382,-9.6321 4.30758,-15.78734 4.30758,-37.6754 v -26.16236 l -7.07646,5.39748 c -11.5942,8.84333 -32.109,17.0802 -47.53007,19.08374 -7.91641,1.02852 -29.46847,1.89783 -47.89347,1.93179 l -33.5,0.0617 v 5.63268 c 0,11.37114 4.48425,29.62198 9.59808,39.06402 6.80909,12.57214 21.89716,26.0273 35.00591,31.21738 14.43747,5.71618 38.44572,4.83108 52.47869,-1.93468 z M 209.0139,148.85011 c 11.50152,-4.49392 33.18904,-22.47984 33.18904,-27.52438 0,-4.53084 -17.58996,-20.07555 -29.0758,-25.695052 -10.11446,-4.948544 -14.31919,-5.82858 -27.9509,-5.850044 -14.13002,-0.02225 -17.64274,0.760712 -29.42544,6.558734 -20.29855,9.988482 -34.80497,29.465892 -37.09813,49.810712 l -1.01809,9.03247 39.78418,-0.85881 c 35.59281,-0.76833 41.0285,-1.34499 51.59514,-5.47363 z m 185.68904,-18.59733 c -7.20414,-1.41337 -10.5,-3.02229 -10.5,-5.12572 0,-3.77382 26.16476,-129.06217 27.18254,-130.1619731 0.40224,-0.4346544 7.5567,0.3772338 15.8988,1.8041959 l 15.16746,2.59447685 -1.25068,7.19580395 C 440.51318,10.517256 434.3822,40.305368 427.57666,72.755368 413.5341,139.71268 416.49798,134.52874 394.70294,130.25278 Z m -62.05,-46.045872 -20.45158,-20.521428 20.55216,-20.48222 20.55216,-20.482218 10.44864,10.580054 c 5.74674,5.81903 10.44862,11.417686 10.44862,12.44146 0,1.023774 -3.60414,5.533768 -8.00922,10.022208 l -8.00922,8.160804 8.00922,7.820796 c 4.40508,4.301436 8.00922,8.793886 8.00922,9.98322 0,1.189334 -4.74714,6.850598 -10.5492,12.580588 l -10.5492,10.418168 z m 127.55344,9.55194 -10.85992,-10.996522 9.4072,-9.550826 9.40722,-9.550826 -9.45494,-9.45494 -9.45494,-9.454942 11.46806,-11.468066 11.46806,-11.468066 20.00792,19.93283 c 11.00434,10.963058 20.0079,20.866602 20.0079,22.007878 0,2.047202 -38.10164,41.000002 -40.1041,41.000002 -0.5679,0 -5.9195,-4.948432 -11.89246,-10.996522 z"
       id="path16298" />
  </g>
</svg>
