<?xml version="1.0" encoding="UTF-8" standalone="no"?>
<!-- Created with Inkscape (http://www.inkscape.org/) -->

<svg
   version="1.1"
   id="svg16209"
   width="546.1333"
   height="546.1333"
   viewBox="0 0 546.1333 546.1333"
   sodipodi:docname="020-user.svg"
   inkscape:version="1.2 (1:1.2.1+202207142221+cd75a1ee6d)"
   xmlns:inkscape="http://www.inkscape.org/namespaces/inkscape"
   xmlns:sodipodi="http://sodipodi.sourceforge.net/DTD/sodipodi-0.dtd"
   xmlns="http://www.w3.org/2000/svg"
   xmlns:svg="http://www.w3.org/2000/svg">
  <defs
     id="defs16213" />
  <sodipodi:namedview
     id="namedview16211"
     pagecolor="#ffffff"
     bordercolor="#666666"
     borderopacity="1.0"
     inkscape:showpageshadow="2"
     inkscape:pageopacity="0.0"
     inkscape:pagecheckerboard="0"
     inkscape:deskcolor="#d1d1d1"
     showgrid="false"
     inkscape:zoom="1.5563966"
     inkscape:cx="165.76752"
     inkscape:cy="62.644702"
     inkscape:window-width="1848"
     inkscape:window-height="1016"
     inkscape:window-x="72"
     inkscape:window-y="27"
     inkscape:window-maximized="1"
     inkscape:current-layer="g16215" />
  <g
     inkscape:groupmode="layer"
     inkscape:label="Image"
     id="g16215">
    <path
       style="fill:#fe6532;stroke-width:2.13333"
       d="M 223.70556,542.77787 C 189.51353,536.60814 151.36258,521.00661 120.12505,500.41941 99.698635,486.95731 60.137285,447.39597 46.675185,426.96956 15.295745,379.35667 0.78586546,330.75343 0.78586546,273.25571 c 0,-57.49772 14.50987954,-106.10096 45.88931954,-153.71384 13.4621,-20.426415 53.02345,-59.987761 73.449865,-73.449861 47.61288,-31.379436 96.21612,-45.88931886 153.71384,-45.88931886 57.49772,0 106.10096,14.50988286 153.71385,45.88931886 20.42641,13.4621 59.98775,53.023446 73.44985,73.449861 31.37943,47.61288 45.88932,96.21612 45.88932,153.71384 0,57.49772 -14.50989,106.10096 -45.88932,153.71385 -13.4621,20.42641 -53.02344,59.98775 -73.44985,73.44985 -32.16051,21.1955 -69.72465,36.31857 -105.71385,42.55972 -23.94443,4.15236 -74.5814,4.04851 -98.13333,-0.20118 z M 335.4778,504.88834 c 24.04044,-6.69483 50.78007,-18.90757 70.22412,-32.07335 24.66803,-16.70299 22.77594,-13.18496 17.75979,-33.02114 -11.27505,-44.58672 -40.8839,-81.1076 -82.42282,-101.66395 -43.54741,-21.55029 -90.86957,-21.36096 -135.46666,0.54204 -17.136,8.416 -23.24576,12.94754 -39.55214,29.33534 -22.33207,22.44358 -34.69463,43.67276 -41.80401,71.78657 -5.01615,19.83618 -6.90826,16.31815 17.75978,33.02114 25.91916,17.55015 60.34463,31.33235 93.29106,37.34899 5.3746,0.98151 25.61197,1.45161 44.97197,1.04468 29.96367,-0.62981 38.18097,-1.57001 55.23891,-6.32032 z M 94.546135,417.78903 c 3.26546,-10.90111 16.668175,-37.54785 25.275325,-50.25136 15.71979,-23.2012 44.46241,-47.7971 70.415,-60.25615 l 15.0104,-7.20604 -14.23731,-15.03822 c -23.92864,-25.27473 -33.51728,-51.2375 -31.8858,-86.3359 1.84029,-39.59076 19.64153,-70.21571 53.55491,-92.13498 18.61715,-12.032853 35.91272,-16.777326 61.16023,-16.777326 25.24751,0 42.54308,4.744473 61.16023,16.777326 33.91339,21.91927 51.71462,52.54422 53.55492,92.13498 1.63147,35.0984 -7.95716,61.06117 -31.8858,86.3359 l -14.23733,15.03822 14.46195,6.94275 c 28.611,13.73527 54.58143,36.40836 72.51048,63.30414 10.04038,15.06185 22.16821,39.83524 24.80386,50.66666 0.78515,3.22667 2.04348,5.85099 2.79629,5.83181 3.24262,-0.0826 24.54056,-33.02323 33.28074,-51.47391 15.12815,-31.93585 20.51593,-54.73882 21.8534,-92.49122 1.26133,-35.60365 -1.66225,-57.52354 -11.52363,-86.4 C 477.45053,128.62753 423.78576,73.58117 356.18572,48.309118 306.40397,29.69838 241.27381,29.69838 191.49207,48.309118 123.89201,73.58117 70.227245,128.62753 47.063765,196.45571 c -9.86138,28.87646 -12.78494,50.79635 -11.52361,86.4 1.33747,37.7524 6.72524,60.55537 21.8534,92.49122 8.5977,18.14992 30.01843,51.38674 33.17433,51.47391 0.69427,0.0192 2.48449,-4.04514 3.97825,-9.03181 z M 308.52589,277.93411 c 16.61894,-8.18148 31.66862,-23.56727 39.59553,-40.47985 4.94379,-10.54788 5.71747,-14.94097 5.71747,-32.46521 0,-18.24657 -0.65803,-21.64884 -6.60171,-34.13333 -14.06545,-29.54402 -41.19648,-46.86856 -73.39829,-46.86856 -32.20181,0 -59.33284,17.32454 -73.39829,46.86856 -5.94367,12.48449 -6.60171,15.88676 -6.60171,34.13333 0,17.48755 0.77828,21.92687 5.67554,32.37365 10.01306,21.35972 29.28948,38.48424 51.46801,45.72247 5.54876,1.8109 15.6486,2.68312 26.38611,2.27868 14.42313,-0.54323 19.74823,-1.81306 31.15734,-7.42974 z"
       id="path16219" />
  </g>
</svg>
