<?xml version="1.0" encoding="UTF-8" standalone="no"?>
<!-- Created with Inkscape (http://www.inkscape.org/) -->

<svg
   width="81.070671mm"
   height="138.23718mm"
   viewBox="0 0 81.070671 138.23718"
   version="1.1"
   id="svg1"
   xml:space="preserve"
   xmlns:inkscape="http://www.inkscape.org/namespaces/inkscape"
   xmlns:sodipodi="http://sodipodi.sourceforge.net/DTD/sodipodi-0.dtd"
   xmlns="http://www.w3.org/2000/svg"
   xmlns:svg="http://www.w3.org/2000/svg"><sodipodi:namedview
     id="namedview1"
     pagecolor="#ffffff"
     bordercolor="#000000"
     borderopacity="0.25"
     inkscape:showpageshadow="2"
     inkscape:pageopacity="0.0"
     inkscape:pagecheckerboard="0"
     inkscape:deskcolor="#d1d1d1"
     inkscape:document-units="mm" /><defs
     id="defs1" /><g
     inkscape:label="Layer 1"
     inkscape:groupmode="layer"
     id="layer1"
     transform="translate(-12.220495,-143.8956)"><path
       style="fill:#020202;stroke:none"
       d="M 84.61267,8.3163544 C 81.535091,8.7970277 79.690044,10.958639 77.587138,13.061546 L 68.399904,22.24878 30.02969,60.618993 21.653094,68.995589 c -2.886773,2.886777 -5.637069,5.298563 -5.084004,9.72766 0.532961,4.268088 5.500481,7.712221 8.326558,10.538298 l 22.697872,22.697873 27.29149,27.29149 c 3.641515,3.64151 7.451978,8.70108 13.240426,6.81328 2.002269,-0.653 3.422082,-2.39919 4.86383,-3.84094 3.452453,-3.45245 6.403757,-7.35765 3.214194,-12.15958 -3.329988,-5.01333 -8.959135,-9.2577 -13.212067,-13.51063 L 56.240329,89.801972 47.323308,80.884951 c -0.79427,-0.79427 -2.957329,-2.285652 -2.957329,-3.512766 0,-1.292326 2.385984,-2.941426 3.227541,-3.782979 l 9.72766,-9.72766 25.670213,-25.670213 C 87.243154,33.939572 92.057366,29.867868 95.87258,25.22112 101.21753,18.711226 92.009843,7.161015 84.61267,8.3163544 Z"
       id="path1" /><path
       style="fill:#393939;fill-opacity:1;stroke:none"
       d="m 80.335501,143.97614 c -3.077579,0.48067 -4.922626,2.64228 -7.025532,4.74519 l -9.187234,9.18723 -38.370214,38.37022 -8.376596,8.3766 c -2.886773,2.88677 -5.637069,5.29856 -5.084004,9.72766 0.532961,4.26808 5.500481,7.71222 8.326558,10.53829 l 22.697872,22.69788 27.29149,27.29149 c 3.641515,3.64151 7.451978,8.70107 13.240423,6.81327 2.00227,-0.653 3.42208,-2.39919 4.863826,-3.84093 3.45246,-3.45245 6.40376,-7.35765 3.2142,-12.15958 -3.32999,-5.01333 -8.959134,-9.2577 -13.212066,-13.51063 L 51.96316,225.46176 43.046139,216.54474 c -0.79427,-0.79427 -2.957329,-2.28565 -2.957329,-3.51277 0,-1.29232 2.385984,-2.94142 3.227541,-3.78298 l 9.72766,-9.72766 25.670213,-25.67021 c 4.251761,-4.25176 9.06597,-8.32347 12.881186,-12.97022 5.34495,-6.50989 -3.862736,-18.0601 -11.259909,-16.90476 z"
       id="path1-2" /></g></svg>
