<?xml version="1.0" encoding="UTF-8" standalone="no"?>
<!-- Created with Inkscape (http://www.inkscape.org/) -->

<svg
   width="81.062325mm"
   height="138.3241mm"
   viewBox="0 0 81.062325 138.3241"
   version="1.1"
   id="svg1"
   xml:space="preserve"
   xmlns:inkscape="http://www.inkscape.org/namespaces/inkscape"
   xmlns:sodipodi="http://sodipodi.sourceforge.net/DTD/sodipodi-0.dtd"
   xmlns="http://www.w3.org/2000/svg"
   xmlns:svg="http://www.w3.org/2000/svg"><sodipodi:namedview
     id="namedview1"
     pagecolor="#ffffff"
     bordercolor="#000000"
     borderopacity="0.25"
     inkscape:showpageshadow="2"
     inkscape:pageopacity="0.0"
     inkscape:pagecheckerboard="0"
     inkscape:deskcolor="#d1d1d1"
     inkscape:document-units="mm" /><defs
     id="defs1" /><g
     inkscape:label="Layer 1"
     inkscape:groupmode="layer"
     id="layer1"
     transform="translate(-113.1715,-147.13392)"><path
       style="fill:#393939;fill-opacity:1;stroke:none"
       d="m 123.96886,147.24767 c -2.572,0.46291 -4.16677,2.14987 -5.94469,3.92768 -3.52354,3.52332 -6.78185,7.46543 -3.48441,12.42979 3.26414,4.91421 8.77331,9.07187 12.94186,13.24042 l 26.48085,26.48085 9.72766,9.72766 c 0.74832,0.74832 2.96808,2.28724 2.64625,3.51277 -0.38153,1.45289 -2.69178,3.01786 -3.7271,4.05319 l -9.99787,9.99787 -25.67021,25.67022 c -4.06817,4.06816 -9.5194,8.1509 -12.67061,12.97021 -4.12829,6.31362 4.25203,16.06429 10.77912,16.19817 3.3158,0.068 5.38893,-2.13179 7.56595,-4.30881 l 9.45745,-9.45745 39.99149,-39.99149 c 4.32442,-4.32441 12.96937,-9.86751 12.10954,-16.75319 -0.58736,-4.70364 -6.55382,-8.76555 -9.67762,-11.88936 l -27.29149,-27.29149 -22.15745,-22.15745 c -3.00226,-3.00225 -6.29203,-7.2211 -11.07872,-6.35959 z"
       id="path2" /></g></svg>
