<?xml version="1.0" encoding="UTF-8" standalone="no"?>
<!-- Created with Inkscape (http://www.inkscape.org/) -->

<svg
   width="81.070671mm"
   height="138.23718mm"
   viewBox="0 0 81.070671 138.23718"
   version="1.1"
   id="svg1"
   xml:space="preserve"
   sodipodi:docname="arrow_left.svg"
   inkscape:version="1.3.1 (91b66b0783, 2023-11-16)"
   xmlns:inkscape="http://www.inkscape.org/namespaces/inkscape"
   xmlns:sodipodi="http://sodipodi.sourceforge.net/DTD/sodipodi-0.dtd"
   xmlns="http://www.w3.org/2000/svg"
   xmlns:svg="http://www.w3.org/2000/svg"><sodipodi:namedview
     id="namedview1"
     pagecolor="#ffffff"
     bordercolor="#000000"
     borderopacity="0.25"
     inkscape:showpageshadow="2"
     inkscape:pageopacity="0.0"
     inkscape:pagecheckerboard="0"
     inkscape:deskcolor="#d1d1d1"
     inkscape:document-units="mm"
     inkscape:zoom="1.5618085"
     inkscape:cx="153.34787"
     inkscape:cy="395.69513"
     inkscape:window-width="1850"
     inkscape:window-height="1016"
     inkscape:window-x="0"
     inkscape:window-y="0"
     inkscape:window-maximized="1"
     inkscape:current-layer="layer1" /><defs
     id="defs1" /><g
     inkscape:label="Layer 1"
     inkscape:groupmode="layer"
     id="layer1"
     transform="translate(-12.220495,-143.8956)"><path
       style="fill:#393939;fill-opacity:1;stroke:none"
       d="m 80.335501,143.97614 c -3.077579,0.48067 -4.922626,2.64228 -7.025532,4.74519 l -9.187234,9.18723 -38.370214,38.37022 -8.376596,8.3766 c -2.886773,2.88677 -5.637069,5.29856 -5.084004,9.72766 0.532961,4.26808 5.500481,7.71222 8.326558,10.53829 l 22.697872,22.69788 27.29149,27.29149 c 3.641515,3.64151 7.451978,8.70107 13.240423,6.81327 2.00227,-0.653 3.42208,-2.39919 4.863826,-3.84093 3.45246,-3.45245 6.40376,-7.35765 3.2142,-12.15958 -3.32999,-5.01333 -8.959134,-9.2577 -13.212066,-13.51063 L 51.96316,225.46176 43.046139,216.54474 c -0.79427,-0.79427 -2.957329,-2.28565 -2.957329,-3.51277 0,-1.29232 2.385984,-2.94142 3.227541,-3.78298 l 9.72766,-9.72766 25.670213,-25.67021 c 4.251761,-4.25176 9.06597,-8.32347 12.881186,-12.97022 5.34495,-6.50989 -3.862736,-18.0601 -11.259909,-16.90476 z"
       id="path1-2" /></g></svg>
