<?xml version="1.0" encoding="UTF-8" standalone="no"?>
<!-- Created with Inkscape (http://www.inkscape.org/) -->

<svg
   version="1.1"
   id="svg13556"
   width="256"
   height="256"
   viewBox="0 0 256 256"
   sodipodi:docname="brainnetwork_orange128.svg"
   inkscape:version="1.2 (1:1.2.1+202207142221+cd75a1ee6d)"
   xmlns:inkscape="http://www.inkscape.org/namespaces/inkscape"
   xmlns:sodipodi="http://sodipodi.sourceforge.net/DTD/sodipodi-0.dtd"
   xmlns="http://www.w3.org/2000/svg"
   xmlns:svg="http://www.w3.org/2000/svg">
  <defs
     id="defs13560" />
  <sodipodi:namedview
     id="namedview13558"
     pagecolor="#ffffff"
     bordercolor="#666666"
     borderopacity="1.0"
     inkscape:showpageshadow="2"
     inkscape:pageopacity="0.0"
     inkscape:pagecheckerboard="0"
     inkscape:deskcolor="#d1d1d1"
     showgrid="false"
     inkscape:zoom="3.3203125"
     inkscape:cx="77.703529"
     inkscape:cy="129.65647"
     inkscape:window-width="1848"
     inkscape:window-height="1016"
     inkscape:window-x="72"
     inkscape:window-y="27"
     inkscape:window-maximized="1"
     inkscape:current-layer="g13562" />
  <g
     inkscape:groupmode="layer"
     inkscape:label="Image"
     id="g13562">
    <g
       id="g13566"
       transform="translate(1.5393428,-0.44310663)">
      <path
         style="fill:#fed9cc;stroke-width:2"
         d="m 79.84336,251.4524 c -3.711496,-2.50116 -8.853202,-7.67616 -11.426014,-11.5 -2.572814,-3.82382 -7.09423,-8.18684 -10.047594,-9.6956 C 46.370048,224.12664 36,209.67668 36,199.08607 36,195.6386 32.859348,190.96632 26.199708,184.50639 8.2941836,167.13783 6.8760578,140.11064 22.93743,122.33262 c 6.086722,-6.73728 6.446284,-7.8201 4.103762,-12.35844 C 19.509743,95.382924 22.093332,76.427082 33.221716,64.627558 37.303686,60.29941 40.017472,55.36394 40.043924,52.220242 40.174404,36.713798 54.526056,21.88 69.962872,21.296176 c 6.195616,-0.23432 8.057782,-1.189458 8.916312,-4.573342 0.596844,-2.352442 4.274506,-7.0774416 8.172584,-10.5000002 5.997348,-5.26574118 8.691648,-6.22168395 17.517822,-6.21535768 6.93325,0.0049695 12.65172,1.36177148 17.05556,4.04671388 l 6.62516,4.039238 5.14456,-4.046714 C 137.22314,1.0353987 141.52296,0 150.20012,0 c 10.1972,0 12.55021,0.78100648 18.74811,6.2228338 3.89808,3.4225586 7.57574,8.1475582 8.17259,10.5000002 0.85853,3.383884 2.72069,4.339022 8.91631,4.573342 4.30713,0.1629 10.94693,2.221834 14.75511,4.575418 C 208.52036,30.647842 216,44.064354 216,53.150356 c 0,3.698128 1.46998,6.80548 3.95304,8.356168 11.16446,6.97233 16.70464,34.208504 9.66074,47.493476 -3.11462,5.87427 -3.0392,6.16407 3.59952,13.82982 15.8544,18.30709 14.3517,43.6806 -3.65794,61.76542 -5.52466,5.54771 -9.57388,11.45328 -9.59928,14 -0.1192,11.96108 -13.84672,29.7952 -25.11022,32.62216 -2.66522,0.66892 -4.84586,2.39962 -4.84586,3.84596 0,3.89 -9.64174,14.64866 -16.13891,18.00848 -6.70142,3.46544 -26.28709,3.87426 -32.49257,0.67824 -2.40269,-1.23746 -6.39352,-4.09434 -8.86852,-6.34864 l -4.5,-4.0987 -4.5,4.0987 C 116.01786,254.21634 110.81686,256 98.42725,256 c -8.998912,0 -13.453132,-1.08998 -18.58389,-4.5476 z m 33.48235,-11.72272 C 120.39586,233.86198 122,226.53312 122,200.09932 V 174 h -9.97162 c -9.41787,0 -10.26563,-0.44426 -15.265776,-8 -3.109898,-4.69937 -6.872318,-8 -9.119286,-8 -2.103824,0 -6.146744,-2.32161 -8.984264,-5.15913 -4.50952,-4.50952 -5.005298,-6.28145 -3.937416,-14.07249 C 76.66869,124.56309 73.896988,122 56.588498,122 c -13.229948,0 -15.0309,0.51064 -21.34104,6.05102 -3.79045,3.32805 -7.824948,8.72805 -8.965552,12 C 24.454972,145.29176 24.661076,146 28.01313,146 c 2.092778,0 6.055052,-2.25 8.805052,-5 C 46.825504,130.99268 64,137.94289 64,152 c 0,14.05711 -17.174496,21.00732 -27.181818,11 -2.75,-2.75 -6.674834,-5 -8.721852,-5 -5.50643,0 -3.015828,6.86498 5.885324,16.22203 L 41.380656,182 H 63.66195 85.943246 l 5.29415,8 c 3.620388,5.47078 6.744996,8 9.883214,8 5.12622,0 12.87939,8.53348 12.87939,14.17562 0,11.0332 -10.33243,19.32306 -20.80736,16.69402 C 85.189376,226.86094 81.23952,219.61386 82.606878,209.4472 84.378842,196.2722 81.53589,194 63.279514,194 49.74,194 48,194.42183 48,197.70423 c 0,6.50353 8.74965,17.15297 17.88551,21.76895 5.281558,2.66856 9.804262,6.70288 11.210602,10 6.17715,14.48218 24.789198,19.7512 36.229598,10.2565 z m 57.63268,-0.0542 5.49783,-4.32458 -5.22811,-2.73928 C 168.28953,231.07186 166,228.14852 166,225.93612 c 0,-4.2937 1.08863,-4.63978 13,-4.1328 9.72034,0.41374 19.43017,-5.13206 25.0108,-14.28504 C 210.1792,197.4013 209.35606,196 197.24489,196 c -11.40933,0 -16.26346,-3.01851 -14.06542,-8.7465 0.96504,-2.51485 4.0378,-3.2552 13.53451,-3.26098 18.9132,-0.0116 31.16582,-9.83285 34.53898,-27.68544 2.66068,-14.08179 -8.68916,-32.0815 -22.39892,-35.52242 -4.05368,-1.01742 -4.95022,-2.32884 -4.46332,-6.5289 0.47558,-4.10246 1.8522,-5.3981 6.27346,-5.90445 4.31438,-0.4941 6.367,-2.33075 8.6134,-7.70718 3.35344,-8.02592 2.38622,-14.849958 -3.46962,-24.479116 l -4.05838,-6.673466 -5.48422,5.254226 c -11.31374,10.839248 -21.44274,3.888192 -10.75055,-7.3776 3.32416,-3.502496 6.63289,-8.32711 7.35275,-10.721366 2.12216,-7.058508 -3.51463,-17.549038 -11.45381,-21.316422 -8.31078,-3.943722 -15.13047,-2.207828 -23.79435,6.056644 -3.20045,3.052902 -6.64455,4.647536 -8.5,3.935534 C 154.37949,43.503692 155.39001,35.270314 161,30 c 6.11594,-5.745626 6.19971,-7.465166 0.65137,-13.371098 -5.95815,-6.342162 -16.24668,-6.215406 -22.74228,0.280189 L 134,21.818182 v 43.956134 c 0,42.133764 -0.16509,44.008534 -3.9821,45.220004 C 123.89007,112.93922 122,110.55543 122,100.88197 V 92 H 108.34863 C 96.3731,92 94.12062,92.6138 90,97 83.239532,104.19619 71.836204,103.95911 65.95041,96.5 62.418926,92.024524 61.833404,89.362098 62.807124,82.207184 64.26287,71.510332 61.815072,68 52.90027,68 c -7.701876,0 -13.607472,6.220946 -17.159166,18.075444 -1.907406,6.366356 -1.674826,8.72637 1.50085,15.229206 L 41,109 l 18.521478,0.57534 18.521478,0.57533 5.244294,7.92467 C 86.359554,122.7179 90.115774,126 92.356682,126 c 2.103824,0 6.146744,2.32161 8.984268,5.15913 4.50952,4.50952 5.00529,6.28145 3.93741,14.07249 C 103.68302,156.8709 106.80383,162 115.48109,162 121.73688,162 122,161.68186 122,154.11803 c 0,-8.70868 2.02798,-11.01348 8.0179,-9.11235 3.80111,1.20643 3.9821,3.08026 3.9821,41.22842 0,42.7093 1.0199,48.05088 10.43359,54.6445 6.56676,4.59954 19.91774,3.99392 26.5248,-1.2032 z M 153.4177,192.75103 c -2.41142,-2.41142 -1.56426,-14.66625 1.41167,-20.42107 5.44445,-10.5284 19.52904,-13.78587 20.80931,-4.81275 0.46627,3.26798 -0.7334,4.998 -4.44414,6.40883 -4.70065,1.78718 -6.0473,4.44517 -7.6371,15.07396 -0.59427,3.97303 -7.40006,6.49072 -10.13974,3.75103 z m -30.64062,-61.61076 c -1.99134,-5.18934 0.79977,-9.47837 5.71398,-8.78054 C 131.79652,122.82911 133,124.33454 133,128 c 0,3.66546 -1.20348,5.17089 -4.50894,5.64027 -2.70456,0.38405 -4.99117,-0.61639 -5.71398,-2.5 z m 49.88441,-2.37621 C 164.90501,116.92616 170.43448,94 181.04611,94 c 5.90951,0 6.48045,4.325382 1.80741,13.69272 -2.86198,5.73698 -2.86198,6.87758 0,12.61456 4.67304,9.36734 4.1021,13.69272 -1.80741,13.69272 -3.13672,0 -6.21235,-1.92064 -8.38462,-5.23594 z M 148,66.604726 c -4.30722,-2.21805 -7.2463,-5.339238 -7.64027,-8.113668 -0.90404,-6.36642 4.49727,-7.736486 12.82322,-3.252666 6.66553,3.589624 7.22496,3.600594 13.05261,0.255986 C 175.11512,50.398206 180,50.916176 180,56.953894 c 0,10.31406 -19.36872,16.155444 -32,9.650832 z M 100.85995,211.77338 C 99.155728,209.0159 94,209.68726 94,212.66666 c 0,1.46668 0.592192,3.25886 1.315982,3.98266 1.808662,1.80866 6.905058,-2.67364 5.543968,-4.87594 z M 51.107702,153.82574 c 2.061042,-3.33484 -2.574418,-7.15902 -5.333438,-4.4 C 43.466416,151.73358 44.910822,156 48,156 c 0.970162,0 2.368628,-0.97842 3.107702,-2.17426 z m 42,-10 c 2.061042,-3.33484 -2.574418,-7.15902 -5.333438,-4.4 C 85.466416,141.73358 86.910822,146 90,146 c 0.970162,0 2.368628,-0.97842 3.107702,-2.17426 z m -12,-56.000004 c 2.061042,-3.334838 -2.574418,-7.15902 -5.333438,-4.4 C 73.466416,85.733584 74.910822,90 78,90 c 0.970162,0 2.368628,-0.97842 3.107702,-2.174264 z M 122,68 C 122,54.623162 120.08717,53.16381 112.82484,61 106.95843,67.329962 95.818044,67.818044 90,62 83.88374,55.88374 84.546416,43.43371 91.269718,38.14516 98.248528,32.655628 104.40238,32.913934 111.63526,39 120.41383,46.386682 122,45.45456 122,32.90909 122,19.408271 116.23179,12 105.71981,12 98.123754,12 90,18.700817 90,24.966368 c 0,2.348012 -1.212384,5.927146 -2.694184,7.95363 -2.320988,3.17414 -3.59132,3.371776 -9.170766,1.42677 C 68.784726,31.087228 58.792118,35.615702 54.928022,44.863784 50.696206,54.991944 51.140558,56 59.836882,56 c 6.768056,0 8.414906,0.935264 12.0751,6.857584 2.73075,4.418448 6.37954,7.327898 10.258496,8.17986 3.31115,0.72725 7.093846,3.041336 8.405992,5.142414 C 92.56883,79.370136 95.356058,80 107.48109,80 H 122 Z M 103.61926,50.5 C 102.80739,46.284314 99.257894,46.550132 98.353352,50.894358 97.976068,52.706326 99.078546,54 101,54 c 2.05992,0 3.04086,-1.310794 2.61926,-3.5 z"
         id="path13574" />
      <path
         style="fill:#feb299;stroke-width:2"
         d="m 82.359254,252.63648 c -6.28189,-3.09558 -16.250068,-13.89542 -16.452598,-17.82526 -0.05134,-0.99618 -3.875744,-3.67128 -8.498678,-5.94466 -10.309746,-5.06998 -19.325498,-17.41384 -20.81169,-28.49424 -0.844932,-6.29943 -2.681876,-9.48832 -7.647406,-13.27571 -8.87636,-6.77033 -16.954067,-23.46521 -16.929344,-34.9893 0.02178,-10.15068 6.98896,-26.95142 13.622786,-32.85013 3.80768,-3.38574 3.946486,-4.25097 1.454932,-9.06911 C 19.520614,95.536464 21.827764,78.62969 33.10761,66.144248 37.325926,61.475076 40,56.450458 40,53.193362 c 0,-8.19085 4.798412,-17.826718 11.818988,-23.734144 6.327166,-5.323958 20.795596,-10.55152 23.89758,-8.634388 0.893352,0.552122 3.110964,-2.113757 4.928024,-5.924175 7.136358,-14.96509538 28.969748,-20.0155974 41.380958,-9.5722492 3.62741,3.0522648 6.89674,4.4978422 7.65345,3.384071 3.44223,-5.0664996 11.92901,-8.71188400854 20.26601,-8.70500068 11.35784,0.00937744 21.01074,5.66699948 25.4104,14.89317888 1.81706,3.810418 4.03467,6.476297 4.92802,5.924175 0.89335,-0.552122 5.47004,0.02994 10.17042,1.293448 12.34865,3.319466 22.89141,15.010146 24.64531,27.328764 0.90236,6.337788 3.22146,11.572334 6.8905,15.552958 3.0417,3.3 6.68836,8.24611 8.10368,10.991356 3.81552,7.400792 3.25536,26.108304 -0.99734,33.307544 -3.54124,5.99484 -3.52664,6.08863 1.77004,11.38532 7.53346,7.53345 13.03856,20.74864 13.09004,31.42309 0.0556,11.54521 -7.81282,27.78319 -16.7757,34.61951 -5.09326,3.88482 -6.88578,7.00341 -7.7564,13.49446 -1.4868,11.08484 -10.41254,23.49382 -20.60448,28.64528 -4.55151,2.30052 -9.28906,6.5898 -10.68375,9.67282 -8.29902,18.3454 -39.08676,23.56528 -53.85133,9.13018 l -6.42583,-6.28244 -5.4293,5.06206 c -2.98611,2.78414 -7.39512,6.07204 -9.79781,7.30644 -6.35597,3.26546 -22.592682,2.6652 -30.272226,-1.11914 z M 112,240.21694 c 8.63228,-6.21962 9.93904,-11.42504 9.97052,-39.71694 L 122,174 h -8.13148 C 103.43563,174 99.155872,171.61895 96.03166,164.07643 94.311524,159.92366 92.128038,158 89.134482,158 79.705222,158 71.474138,144.45665 75.889398,136.20666 77.63868,132.9381 77.410366,130.95937 74.82944,127.02038 71.78199,122.36938 70.390974,122 55.923826,122 c -14.647074,0 -15.984482,0.36835 -21.551958,5.93582 -3.264702,3.26471 -6.887116,8.66471 -8.049806,12 C 24.450752,145.30387 24.644876,146 28.01313,146 c 2.092778,0 6.055052,-2.25 8.805052,-5 12.083824,-12.08382 31.770142,1.09438 25.22821,16.888 -4.310416,10.40626 -16.835082,13.05492 -24.336472,5.14655 -2.590456,-2.73099 -6.688102,-4.98099 -9.10588,-5 -4.028786,-0.0317 -4.21939,0.47197 -2.281978,6.02963 1.16269,3.33529 4.756896,8.70709 7.987124,11.93731 5.746316,5.74632 6.37864,5.8853 29.281978,6.43583 L 87,183 l 4,7.4946 c 2.801492,5.24901 5.34832,7.49621 8.5,7.5 5.49559,0.007 11.95415,6.13418 13.6696,12.9691 1.57314,6.26788 -3.40702,14.46518 -10.4044,17.12556 -7.076894,2.69064 -7.705332,2.54432 -14.833638,-3.45376 C 82.058066,219.69328 81.651138,218.57854 82.762,210.47392 84.75048,195.96637 82.502602,194 63.929632,194 c -15.1885,0 -15.929284,0.20936 -15.922156,4.5 0.0162,9.71818 13.980336,23.5 23.810976,23.5 1.217664,0 3.632962,3.5465 5.367326,7.8811 6.048406,15.11646 21.721198,19.76948 34.814222,10.33584 z m 60,-0.40918 c 2.87006,-2.35536 4.05585,-4.49708 2.78362,-5.02766 -6.9598,-2.90262 -9.74515,-6.6086 -7.5988,-10.1104 1.63875,-2.67366 4.23606,-3.41646 10.39189,-2.972 14.36622,1.03726 26.20761,-7.1734 29.54971,-20.48938 1.29118,-5.14444 1.1705,-5.20832 -9.83924,-5.20832 -8.79133,0 -11.56411,-0.78042 -13.1232,-3.69361 C 181.10535,186.59129 185.40023,184 197.9312,184 c 14.57818,0 23.64854,-4.92411 29.51896,-16.02524 9.14248,-17.28873 3.01394,-36.96493 -14.18494,-45.54189 -7.5244,-3.75236 -9.37438,-5.64436 -8.88424,-9.08604 0.47786,-3.35564 1.98312,-4.34683 6.60126,-4.34683 5.17888,0 6.32558,-1.04427 8.53884,-7.7761 3.0399,-9.246166 1.53414,-19.342972 -3.91842,-26.274782 l -3.94566,-5.016082 -5.98194,5.033482 c -11.59549,9.756952 -21.0572,3.665992 -10.14292,-6.529476 11.7763,-11.0007 9.44794,-27.724682 -4.68182,-33.628474 -8.70115,-3.635574 -15.19448,-2.01674 -22.69894,5.659004 C 161.66822,47.098708 156,46.867474 156,39.97186 c 0,-2.284522 2.25,-6.403678 5,-9.153678 C 167.04517,24.773008 167.28084,21.280842 162,16 155.88374,9.8837396 143.43371,10.546415 138.14516,17.269717 134.24708,22.22532 134,25.071892 134,65.024828 134,100.34972 133.49438,107.92985 131,110 c -4.68631,3.8893 -9,-1.02106 -9,-10.24489 V 92 h -13.90909 c -12.169698,0 -14.534364,0.625272 -18.909092,5 -9.069486,9.06949 -23.122536,4.90119 -26.311402,-7.804254 -0.67723,-2.6983 -0.345678,-6.488568 0.736782,-8.422816 1.30838,-2.337944 1.261258,-5.068188 -0.14058,-8.144872 C 61.80815,68.988102 59.756418,68 53.856758,68 39.890252,68 30.454666,86.087476 36.336198,101.5859 l 2.81359,7.4141 18.925106,1 c 10.408808,0.55 19.93292,1.65569 21.16469,2.45709 1.231772,0.8014 3.36596,4.1764 4.742642,7.5 1.732682,4.18306 3.883304,6.04291 6.987688,6.04291 2.466548,0 6.95015,2.46552 9.963566,5.47893 4.81347,4.81348 5.33438,6.5335 4.28884,14.16159 C 103.60741,157.42254 106.36294,162 115.07037,162 121.60876,162 122,161.61862 122,155.24489 c 0,-8.293 4.53452,-12.95091 9,-9.24489 2.48794,2.06481 3,9.48025 3,43.44489 V 230.4 l 6.8,6.8 c 5.88462,5.88462 8.10576,6.79402 16.5,6.75552 6.7745,-0.031 11.20799,-1.282 14.7,-4.14776 z M 154.45837,191.65837 C 153.10627,190.30627 152,186.14 152,182.4 c 0,-12.38311 19.6768,-26.78131 23.38688,-17.113 0.84431,2.20023 -0.79687,5.01054 -4.96389,8.5 -4.38786,3.67438 -6.40199,7.27421 -6.82411,12.19662 -0.63661,7.42363 -4.80423,10.01103 -9.14051,5.67475 z m -31.79463,-60.81345 c -0.66589,-1.7353 0.26235,-4.62816 2.06277,-6.42857 3.03132,-3.03132 3.51971,-3.02728 6.60168,0.0547 2.74934,2.74933 2.88068,3.86742 0.75512,6.42857 -3.31658,3.99623 -7.87524,3.96975 -9.41957,-0.0547 z m 52.78544,-0.34858 c -8.30382,-9.17562 -8.77006,-21.73509 -1.16574,-31.40242 7.92672,-10.077192 14.56297,-4.13184 8.84292,7.92228 -3.08537,6.50194 -3.08537,7.46566 0,13.9676 5.22496,11.01079 -0.21793,17.75491 -7.67718,9.51254 z M 152,68.68849 c -4.83328,-1.929466 -12,-9.155844 -12,-12.099888 0,-4.605824 5.89421,-5.275454 12.95681,-1.471996 6.49321,3.496824 7.02757,3.497934 14.71679,0.03058 C 176.27066,51.270454 180,52.09969 180,57.888014 180,65.01105 161.07467,72.311142 152,68.68849 Z M 101.64665,213.33426 C 102.08266,211.0861 100.94257,210 98.146648,210 95.865992,210 94,211.2 94,212.66666 c 0,6.1255 6.47845,6.6911 7.64665,0.6676 z M 51,152 c 0,-1.61987 -1.575,-3.24854 -3.5,-3.61926 C 45.044302,147.90782 44,148.9877 44,152 c 0,3.0123 1.044302,4.09218 3.5,3.61926 C 49.425,155.24854 51,153.61987 51,152 Z m 43,-10 c 0,-4.14061 -4.82502,-5.51919 -7,-2 -1.67408,2.70872 0.584854,6 4.118034,6 C 92.703116,146 94,144.2 94,142 Z M 81.619258,86.5 C 81.248538,84.575 79.61987,83 78,83 76.38013,83 74.751462,84.575 74.380742,86.5 73.907818,88.955698 74.987702,90 78,90 c 3.012298,0 4.092182,-1.044302 3.619258,-3.5 z M 122,68 c 0,-13.56745 -2.31067,-15.184918 -10,-7 -9.15299,9.742914 -26,3.312804 -26,-9.923592 0,-14.415236 14.53212,-21.41909 25.42468,-12.253602 C 120.37318,46.352472 122,45.498228 122,33.269718 122,18.76648 116.86378,12 105.85484,12 96.700536,12 90,17.433657 90,24.857142 90,32.474786 85.169656,36.05623 77.76125,33.931528 73.474932,32.702228 69.570764,32.961682 65.263772,34.762054 57.406366,38.046542 54.364146,41.679268 52.761876,49.690616 51.508556,55.957224 51.556154,56 59.782358,56 c 7.496394,0 8.599126,0.664272 11.620424,7 1.946518,4.081892 4.804644,7 6.856116,7 1.934926,0 6.043234,2.221558 9.129574,4.936798 4.844268,4.261792 7.594102,4.945438 20.111528,5 L 122,80 Z M 104.52886,52.804468 C 106.47515,50.858178 103.80288,46 100.78602,46 99.25371,46 98,47.8 98,50 c 0,3.765166 3.89505,5.438282 6.52886,2.804468 z"
         id="path13572" />
      <path
         style="fill:#fe8b66;stroke-width:2"
         d="m 81.92378,251.5 c -5.668028,-2.85822 -10.321802,-7.11106 -12.755658,-11.6567 -2.384872,-4.45416 -7.281862,-8.98564 -12.96792,-12 -10.275056,-5.44712 -17.351766,-16.03662 -19.29714,-28.876 -0.936844,-6.18312 -2.735552,-9.02808 -7.811766,-12.35562 -18.737811,-12.28293 -20.951088,-48.93371 -3.979884,-65.90491 5.211374,-5.21137 5.258922,-5.48375 2.110052,-12.087 -3.947318,-8.27761 -4.176236,-24.516796 -0.467786,-33.184008 1.514522,-3.539668 5.564522,-9.079144 9,-12.309944 4.722234,-4.440896 6.248146,-7.612864 6.253798,-13 0.0086,-8.26876 5.648122,-18.497494 12.77165,-23.16501 2.733548,-1.79109 9.083152,-3.86499 14.110232,-4.608668 C 76.762788,21.18739 78.512514,20.029884 81.51475,14 88.510126,-0.04996184 111.81955,-4.5034858 123.06527,6.0613142 L 128,10.697256 132.93473,6.0613142 c 11.24572,-10.5648 34.55514,-6.11127604 41.55052,7.9386858 3.00224,6.029884 4.75196,7.18739 12.62539,8.35214 5.02708,0.743678 11.37669,2.817578 14.11024,4.608668 7.13096,4.672386 12.76298,14.898918 12.77164,23.190564 0.006,5.115498 1.4863,8.531694 5.20212,12 12.32134,11.50064 16.05878,29.636562 9.49046,46.052428 -3.01146,7.52641 -3.0257,8.44658 -0.1554,10.05284 5.0581,2.83067 11.35974,14.50452 13.22806,24.50517 3.26516,17.47761 -4.5346,38.69659 -16.59734,45.15237 -3.32556,1.77979 -5.11046,4.97132 -6.04324,10.8058 -2.01416,12.59836 -9.62252,23.9313 -19.6307,29.24062 -5.36809,2.84776 -10.48927,7.67406 -13.27027,12.50614 -10.24719,17.8049 -39.62482,20.73446 -53.93146,5.3781 l -4.2818,-4.59598 -5.50144,5.24834 C 111.47861,257.01294 96.514846,258.85782 81.92384,251.5 Z M 115.4988,237.15278 122,230.05874 V 201.02938 172 h -10.54519 c -9.97063,0 -10.7476,-0.37585 -14.260134,-6.89822 -2.39777,-4.45239 -5.676534,-7.32907 -9.247422,-8.11337 C 78.872932,154.99536 75.315698,149.45582 76.479546,139.1302 78.097184,124.77855 74.907762,122 56.816226,122 46.460448,122 40.353608,122.98655 36.964856,125.20694 31.876612,128.54089 24,139.79799 24,143.73607 c 0,3.76707 8.876558,2.53778 12.535944,-1.73607 4.242096,-4.95441 17.706882,-5.47146 22.321198,-0.85714 4.123128,4.12312 4.025028,16.56739 -0.16712,21.19966 C 53.597302,167.96991 41.051394,167.23963 35.626102,161 31.212786,155.92424 24,154.18573 24,158.19774 c 0,5.4986 7.221596,16.48815 13.750106,20.92439 C 44.244388,183.53511 46.951012,184 66.149328,184 h 21.22079 l 3.673762,6.82176 c 2.368646,4.39831 5.59217,7.20545 9.07387,7.90179 8.07536,1.61507 11.88225,6.54041 11.88225,15.37321 0,6.06412 -1.08658,8.52298 -4.85845,10.9944 -7.06042,4.62616 -16.915764,3.0259 -21.795374,-3.53902 -3.451496,-4.64356 -3.735378,-6.47074 -1.922876,-12.3764 1.671404,-5.44592 1.508378,-7.81096 -0.76184,-11.05215 C 80.129046,194.50806 77.676,194 62.751816,194 c -16.716854,0 -16.997312,0.0805 -15.676768,4.5 2.991366,10.01128 8.527592,16.74638 17.672876,21.5 6.553146,3.40624 10.48097,7.05932 12.322578,11.46062 6.614528,15.80816 26.463288,18.74824 38.428298,5.69216 z M 170.05005,241.5 c 8.50312,-5.76128 9.81387,-9.5 3.33059,-9.5 -4.8908,0 -8.45251,-4.64764 -6.26909,-8.18048 0.61848,-1.00074 5.7964,-1.82288 11.50648,-1.827 12.25854,-0.008 21.72049,-4.97822 26.28487,-13.80476 5.01084,-9.68988 4.11182,-12.18407 -4.4029,-12.21507 -12.23929,-0.0446 -16.78996,-1.93746 -16.10494,-6.69901 0.53815,-3.74063 1.94591,-4.2087 12.75007,-4.23929 22.31205,-0.0632 36.21601,-14.59377 34.44137,-35.9936 -1.08278,-13.05684 -6.7635,-21.31738 -18.60046,-27.04755 C 202.07006,116.70891 200.37098,110 209.94864,110 223.8,110 226.21188,82.964882 213.31538,72.26174 210.91322,70.268122 209.42356,70.758252 205.27442,74.907406 199.1295,81.052314 192,81.72176 192,76.153846 c 0,-2.115384 2.7,-6.546154 6,-9.846154 8.61412,-8.614118 8.33018,-18.37752 -0.8,-27.507692 -4.31151,-4.31151 -8.73931,-6.8 -12.09932,-6.8 -6.5908,0 -16.2246,4.832194 -17.79555,8.92603 C 166.65636,42.616714 163.84729,44 161.06277,44 c -7.00494,0 -6.65429,-6.100788 0.77783,-13.532906 5.15453,-5.154526 5.56226,-6.39889 3.47107,-10.593392 C 157.74981,4.70612 136.70424,8.9788112 133.2223,26.388516 132.55003,29.749832 132,49.9375 132,71.25 132,107.93665 131.7984,110 128.21398,110 123.90299,110 122,106.27499 122,97.836426 V 92 H 107.48109 C 95.453698,92 92.560526,92.643162 90.621568,95.747928 85.229658,104.38175 67.132388,102.20815 64.730494,92.63825 64.06025,89.967784 63.999374,84.778712 64.595214,81.10698 67.084196,65.769176 53.73747,60.890004 42.109616,72.886906 33.422542,81.84969 31.632516,95.584638 37.859268,105.5 l 4.081938,6.5 h 18.661116 18.661114 l 4.496252,8 c 3.087044,5.49266 5.866524,8.0096 8.868282,8.03063 6.028032,0.0422 8.77033,2.12638 11.19741,8.51007 1.36785,3.59774 1.41543,7.19574 0.13952,10.55164 C 101.03183,154.80688 106.46738,162 115.23002,162 121.05694,162 122,161.32628 122,157.16357 122,149.77767 124.05288,146 128.06656,146 c 3.37704,0 3.68515,2.91143 4.28602,40.5 0.574,35.90728 1.08938,41.2306 4.54474,46.94262 7.42359,12.27186 21.78211,15.76154 33.15273,8.05738 z m -17.02301,-53.41481 c -1.65038,-5.19988 1.98955,-16.57526 6.65474,-20.79721 1.94217,-1.75763 5.6964,-3.44146 8.34274,-3.74184 6.99093,-0.79352 7.44987,5.37751 0.82379,11.07702 -3.44689,2.96489 -5.51059,6.81524 -5.64165,10.52591 -0.25964,7.35105 -8.06394,9.60205 -10.17962,2.93612 z m 22.05831,-57.99088 c -4.6157,-5.10029 -6.17414,-21.3848 -2.66986,-27.898 3.73277,-6.93789 8.84827,-9.73255 12.01622,-6.5646 2.05574,2.055738 1.87504,3.703578 -0.94495,8.61713 -4.3141,7.51687 -4.4658,14.44885 -0.39025,17.83126 3.81929,3.16972 3.0225,10.66603 -1.21952,11.47352 -1.71766,0.32696 -4.7739,-1.22973 -6.79164,-3.45931 z M 123,130 c -1.84661,-2.98788 0.72275,-6 5.11803,-6 2.54864,0 3.88197,1.37387 3.88197,4 0,4.24212 -6.69482,5.72986 -9,2 z m 21.61153,-66.874164 c -5.27597,-4.582694 -5.40941,-5.07954 -2.23148,-8.308616 3.15507,-3.205858 3.71614,-3.214232 8.42963,-0.12584 6.36169,4.16834 13.00728,4.214284 18.83807,0.13024 C 175.13786,50.976194 180,52.41538 180,57.88587 c 0,10.078532 -25.47518,13.850638 -35.38847,5.239966 z m -43.2832,151.739724 c 1.82002,-4.74288 -2.445618,-8.08792 -6.26823,-4.91544 -2.368842,1.96596 -2.568878,3.23192 -0.839872,5.31524 2.99496,3.6087 5.626702,3.46068 7.108102,-0.3998 z M 51.623682,151.47703 C 52.08588,149.07703 51.008846,148 48.146648,148 45.28445,148 44,149.28445 44,152.14665 c 0,5.12528 6.619658,4.54386 7.623682,-0.66962 z M 94,141.85335 c 0,-2.8622 -1.077032,-3.93923 -3.477032,-3.47703 C 85.309494,139.38034 84.728066,146 89.853352,146 92.71555,146 94,144.71555 94,141.85335 Z M 81.779772,84.734642 c -3.010752,-3.627734 -5.628384,-3.456306 -7.133976,0.467208 -1.5706,4.092918 3.354604,7.287596 6.81179,4.418388 1.9521,-1.6201 2.031616,-2.82586 0.322186,-4.885596 z M 122,69 c 0,-14.378842 -3.08031,-17.048804 -9.92173,-8.6 -5.02269,6.202752 -17.231924,6.081638 -22.335952,-0.221568 C 87.684044,57.63657 86,52.95657 86,49.778432 86,36.666368 103.50082,30.939222 112.82484,41 120.18847,48.945488 122,47.40108 122,33.177788 122,21.315088 121.53952,19.96811 115.84655,15.177787 112.46215,12.330004 107.44292,10 104.6927,10 97.43042,10 88,20.163356 88,27.990066 v 6.29776 L 77.027066,32.916848 c -10.640538,-1.329448 -11.185804,-1.15811 -18,5.656086 C 54.594602,43.005398 52,47.519994 52,50.8 c 0,4.69151 0.746278,5.2 7.631718,5.2 6.820962,0 8.109378,0.84988 12.12797,8 3.175418,5.649896 5.82506,8 9.019654,8 2.48787,0 6.637168,2.25 9.220658,5 4.12062,4.3862 6.3731,5 18.34863,5 H 122 Z M 105.11861,48.191922 c -1.71728,-2.778628 -6.48235,-2.839448 -8.172756,-0.10432 -0.709618,1.148186 -0.16504,3.443354 1.21016,5.100376 2.187576,2.63587 2.864226,2.648918 5.408826,0.10432 1.59965,-1.59965 2.29885,-3.89482 1.55377,-5.100378 z"
         id="path13570" />
      <path
         style="fill:#fe6532;stroke-width:2"
         d="M 84.962814,253.21286 C 78.875792,250.56058 66,237.48598 66,233.95724 66,232.91028 63.06094,230.82566 59.468754,229.32476 47.537118,224.3394 36.059892,207.0559 36.011094,194 c -0.0062,-1.65 -3.163348,-5.51509 -7.01596,-8.5891 C 9.7309386,170.03997 8.491952,137.24066 26.539408,120.40123 l 4.928678,-4.59878 -3.734042,-7.32411 C 20.619122,94.522838 24.94019,71.843568 36.43709,62.800106 40.003144,59.995048 41.66739,56.335612 42.422086,49.639978 44.2117,33.762572 56.630766,22 71.604706,22 76.33908,22 78.473938,20.527084 81.724302,15.018126 90.54243,0.07251512 108.80797,-4.0695324 122.20817,5.837664 L 128,10.11975 133.79183,5.837664 c 3.18551,-2.355147 9.71051,-4.7115633 14.5,-5.23648058 C 158.86337,-0.55743278 169.35824,5.5147868 174,15.475653 c 2.52672,5.422151 4.10432,6.449797 10,6.513963 15.33628,0.16692 30,14.679762 30,29.69134 0,4.745704 1.42946,7.867782 4.82536,10.53899 11.99296,9.433668 16.63028,32.15625 9.4406,46.258394 l -3.73404,7.32411 4.92868,4.59878 C 237.84312,128.22265 242,138.69784 242,152 c 0,14.43007 -4.6644,24.95019 -14.76742,33.30655 -4.86534,4.02418 -7.30626,8.03898 -8.32534,13.69345 -0.79302,4.4 -2.62558,10.3414 -4.07238,13.20312 C 211.62478,218.55256 198.90672,230 195.0626,230 c -1.53902,0 -5.3327,3.74284 -8.43041,8.31742 -7.82527,11.55608 -14.71327,16.08536 -26.13053,17.18242 -10.67858,1.02608 -22.18238,-3.40396 -29.31261,-11.2881 l -3.81094,-4.21388 -2.95406,4.2175 c -6.83621,9.76006 -27.104908,14.3815 -39.461236,8.9975 z M 109.97791,243.01142 C 121.0026,237.31034 122,233.87962 122,201.6595 v -29.45046 l -10.4474,-0.60452 C 101.97906,171.05056 100.76623,170.4145 97.052602,164 c -2.622198,-4.52929 -5.77981,-7.19277 -8.946108,-7.54614 -8.84538,-0.9872 -12.637668,-6.35659 -11.516274,-16.30557 0.549378,-4.87406 0.04686,-10.95136 -1.116706,-13.50511 C 73.49753,122.30637 72.216128,122 56.053152,122 39.752126,122 38.450812,122.31903 33.618556,127.5 28.122088,133.39312 24,140.40794 24,143.86852 c 0,3.65453 9.198172,2.33245 13,-1.86852 4.487828,-4.95899 16.2067,-5.33788 21.342518,-0.69002 4.62401,4.18467 4.82071,16.08971 0.347506,21.03254 C 53.586462,167.98189 41.266726,167.2413 36.35732,161 31.978296,155.43297 24,154.20583 24,159.09932 c 0,5.48401 5.81226,14.55392 12.686678,19.79729 C 42.895374,183.63222 44.91825,184 64.756232,184 h 21.37867 l 4.1301,7 c 2.271556,3.85 5.71983,7 7.662832,7 1.943002,0 5.904106,1.86532 8.802446,4.14516 C 117.09008,210.29418 111.4162,228 98.445012,228 87.3823,228 79.269578,216.83888 83.960794,208.07326 c 1.443482,-2.69718 1.362112,-5.3711 -0.272626,-8.95897 C 81.442588,194.18578 80.710844,194 63.544194,194 c -16.85867,0 -17.752904,0.21446 -16.67897,4 0.624128,2.2 1.627832,5.74458 2.230458,7.87682 C 50.602108,211.20698 63.276226,222 68.028944,222 c 2.480998,0 5.276094,2.7163 7.717588,7.5 7.872932,15.42572 20.722046,20.49738 34.231378,13.51142 z m 63.14662,-3.1284 C 178.9181,234.44024 179.31293,232 174.4,232 c -4.70999,0 -8.36439,-3.76564 -7.02973,-7.24372 C 168.10232,222.8486 172.03519,222 180.14439,222 c 10.21871,0 12.6079,-0.78272 18.69034,-6.12318 3.83565,-3.36774 7.46697,-7.86774 8.06959,-10 3.28216,-11.61319 3.6533,-10.94999 -5.71102,-10.20522 C 191.54989,196.43857 184,193.47805 184,188.92963 c 0,-3.20944 0.79968,-3.38487 14,-3.07124 11.04964,0.26252 22.97582,-6.09114 29.44086,-15.68461 5.08384,-7.54391 6.31668,-25.01583 2.31476,-32.80526 -3.93648,-7.6621 -12.20568,-15.20685 -19.19532,-17.51363 -8.4034,-2.77338 -8.1706,-8.36347 0.4102,-9.84978 13.35748,-2.3137 15.05432,-29.195476 2.50052,-39.614202 -2.21012,-1.83424 -3.98462,-1.073698 -8.50606,3.645666 -10.79533,11.267892 -17.48952,4.644674 -7.17687,-7.100782 18.18779,-20.714754 -8.00913,-46.911676 -28.72388,-28.72388 -4.09342,3.594068 -8.33698,5.727636 -10.06959,5.06277 -4.41615,-1.694636 -3.7102,-4.320498 3.31164,-12.317926 l 6.30625,-7.18243 -4.01055,-5.387163 c -8.59091,-11.5397076 -22.90019,-10.7360552 -29.09885,1.634279 -2.99228,5.97153 -3.49734,12.967142 -3.5,48.478558 -0.003,39.38374 -0.19617,41.5 -3.78913,41.5 C 123.90299,110 122,106.27499 122,97.836426 V 92 h -14.21129 c -12.240796,0 -15.035208,0.693284 -20.153448,5 -7.285458,6.13031 -11.464878,6.2829 -18.589438,0.678726 -4.90773,-3.860422 -5.384996,-5.284892 -4.475172,-13.35682 C 65.9833,71.788922 62.998566,66 55.123982,66 38.295126,66 27.78839,89.867414 37.431216,106.19142 40.8261,111.9385 41.05877,112 59.406126,112 H 77.949822 L 83,120 c 3.537226,5.60333 6.447718,8 9.715114,8 8.252066,0 14.500276,10.54289 11.275266,19.02529 -1.27123,3.34361 -1.14677,6.63801 0.37714,9.98264 1.85033,4.06103 3.7067,4.99207 9.95351,4.99207 C 121.10934,162 122,161.43904 122,157.16357 122,149.70649 124.06314,146 128.21398,146 c 3.57967,0 3.79217,2.0984 3.8989,38.5 0.12798,43.6446 1.45858,50.037 11.88712,57.10736 8.80271,5.96806 21.75246,5.20136 29.12453,-1.72434 z m -19.91469,-52.75901 c -1.85847,-7.4047 3.42669,-18.31621 10.69134,-22.07291 3.41896,-1.76801 7.08986,-2.67467 8.15756,-2.0148 3.67748,2.27281 1.9306,8.3265 -3.05874,10.59979 -4.7131,2.14744 -5.29251,3.48334 -5.79612,13.36391 -0.32287,6.33451 -8.41012,6.43486 -9.99404,0.124 z M 173.97808,127.5 c -2.17972,-3.575 -3.96313,-9.65 -3.96313,-13.5 0,-6.97865 6.32236,-20 9.71076,-20 0.98148,0 2.87282,1.311338 4.20299,2.914084 1.91599,2.308634 1.7591,3.855466 -0.75511,7.445016 C 181.42811,106.85111 180,111.18951 180,114 c 0,2.81049 1.42811,7.14889 3.17359,9.6409 2.51421,3.58955 2.6711,5.13638 0.75511,7.44502 -3.58877,4.3242 -5.56109,3.61343 -9.95062,-3.58592 z M 124,128 c 0,-2.66667 1.33333,-4 4,-4 2.66667,0 4,1.33333 4,4 0,2.66667 -1.33333,4 -4,4 -2.66667,0 -4,-1.33333 -4,-4 z m 22.5,-63.97808 c -7.19935,-4.389528 -7.91012,-6.361848 -3.58592,-9.950616 2.30864,-1.915996 3.85547,-1.759108 7.44502,0.75511 5.72569,4.010428 14.42096,4.065134 20.42898,0.12852 4.19334,-2.747578 4.91281,-2.7252 7.36464,0.229074 2.35721,2.840266 1.9823,3.90635 -2.82924,8.04506 C 168.2932,69.276266 155.6865,69.623038 146.5,64.02192 Z M 102,214.11804 c 0,-5.38538 -3.783472,-7.19172 -7.428572,-3.54662 C 90.926328,214.21652 92.732662,218 98.118034,218 100.62732,218 102,216.62732 102,214.11804 Z M 52,152.21398 c 0,-4.84003 -5.00373,-6.82426 -8.025954,-3.18271 C 41.03647,152.57084 43.075638,156 48.118034,156 50.593534,156 52,154.62829 52,152.21398 Z m 41.92729,-7.12637 C 96.95217,141.44285 94.987128,138 89.881966,138 87.450968,138 86,139.3705 86,141.66667 c 0,6.54906 3.925336,8.243 7.92729,3.42094 z m -12,-56 C 84.95217,85.442852 82.987128,82 77.881966,82 75.450968,82 74,83.370496 74,85.666666 c 0,6.549064 3.925336,8.243004 7.92729,3.420944 z M 122,69 c 0,-11.421756 -0.45964,-13 -3.78602,-13 -2.08231,0 -4.30925,1.363508 -4.94875,3.030016 -1.92014,5.003806 -11.15702,7.500088 -17.70941,4.785998 C 85.442104,59.626776 83.166012,50.142266 90.14516,41.269718 95.774834,34.112748 106.12304,33.982914 111.64268,41 118.82931,50.136322 122,47.659452 122,32.90909 122,21.676768 121.30303,19.121212 117.09091,14.909091 107.42477,5.2429528 91.278568,11.46464 88.226266,26.03163 86.803208,32.823112 86.548148,32.9833 78.178414,32.342132 63.098882,31.186954 52,39.067512 52,50.929634 52,55.38753 52.842526,56 58.97491,56 c 5.920144,0 7.711848,1.167384 11.848092,7.719618 3.351896,5.309746 6.77647,8.100276 10.970042,8.93899 3.353272,0.670656 7.238122,3.046826 8.633,5.280382 C 92.596532,81.414492 95.055494,82 107.48109,82 H 122 Z M 105,50.860724 c 0,-2.09327 -1.57772,-4.109786 -3.50605,-4.481148 -4.430508,-0.853238 -7.066946,5.397848 -3.285384,7.789762 C 102.17168,56.676088 105,55.298202 105,50.860724 Z"
         id="path13568" />
    </g>
  </g>
</svg>
