<?xml version="1.0" encoding="UTF-8" standalone="no"?>
<!-- Created with Inkscape (http://www.inkscape.org/) -->

<svg
   width="55.170437mm"
   height="31.51355mm"
   viewBox="0 0 55.170437 31.51355"
   version="1.1"
   id="svg1"
   xml:space="preserve"
   inkscape:export-filename="astrocyte.svg"
   inkscape:export-xdpi="96"
   inkscape:export-ydpi="96"
   xmlns:inkscape="http://www.inkscape.org/namespaces/inkscape"
   xmlns:sodipodi="http://sodipodi.sourceforge.net/DTD/sodipodi-0.dtd"
   xmlns="http://www.w3.org/2000/svg"
   xmlns:svg="http://www.w3.org/2000/svg"><sodipodi:namedview
     id="namedview1"
     pagecolor="#ffffff"
     bordercolor="#000000"
     borderopacity="0.25"
     inkscape:showpageshadow="2"
     inkscape:pageopacity="0.0"
     inkscape:pagecheckerboard="0"
     inkscape:deskcolor="#d1d1d1"
     inkscape:document-units="mm"
     showguides="true"><sodipodi:guide
       position="-0.38722234,473.06765"
       orientation="0,-1"
       id="guide44"
       inkscape:locked="false" /><sodipodi:guide
       position="-93.811113,501.24923"
       orientation="1,0"
       id="guide45"
       inkscape:locked="false" /><sodipodi:guide
       position="-23.165223,511.95709"
       orientation="0,-1"
       id="guide46"
       inkscape:locked="false" /><sodipodi:guide
       position="17.508498,515.32382"
       orientation="0,-1"
       id="guide47"
       inkscape:locked="false" /><sodipodi:guide
       position="83.622698,420.72783"
       orientation="0,-1"
       id="guide48"
       inkscape:locked="false" /><sodipodi:guide
       position="-46.824703,457.75537"
       orientation="0,-1"
       id="guide49"
       inkscape:locked="false" /><sodipodi:guide
       position="-95.171323,291.84372"
       orientation="0,-1"
       id="guide53"
       inkscape:locked="false" /><sodipodi:guide
       position="-58.482583,338.48529"
       orientation="0,-1"
       id="guide57"
       inkscape:locked="false" /><sodipodi:guide
       position="-8.1082123,268.97634"
       orientation="0,-1"
       id="guide58"
       inkscape:locked="false" /><inkscape:page
       x="-1.8249681e-06"
       y="7.1053532e-06"
       width="55.170437"
       height="31.51355"
       id="page1"
       margin="0"
       bleed="0" /></sodipodi:namedview><defs
     id="defs1"><style
       class="style-fonts"
       id="style1">
      @font-face {
        font-family: &quot;Virgil&quot;;
        src: url(&quot;https://excalidraw.com/Virgil.woff2&quot;);
      }
      @font-face {
        font-family: &quot;Cascadia&quot;;
        src: url(&quot;https://excalidraw.com/Cascadia.woff2&quot;);
      }
      @font-face {
        font-family: &quot;Assistant&quot;;
        src: url(&quot;https://excalidraw.com/Assistant-Regular.woff2&quot;);
      }
    </style><style
       class="style-fonts"
       id="style1-3">
      @font-face {
        font-family: &quot;Virgil&quot;;
        src: url(&quot;https://excalidraw.com/Virgil.woff2&quot;);
      }
      @font-face {
        font-family: &quot;Cascadia&quot;;
        src: url(&quot;https://excalidraw.com/Cascadia.woff2&quot;);
      }
      @font-face {
        font-family: &quot;Assistant&quot;;
        src: url(&quot;https://excalidraw.com/Assistant-Regular.woff2&quot;);
      }
    </style><style
       class="style-fonts"
       id="style1-6">
      @font-face {
        font-family: &quot;Virgil&quot;;
        src: url(&quot;https://excalidraw.com/Virgil.woff2&quot;);
      }
      @font-face {
        font-family: &quot;Cascadia&quot;;
        src: url(&quot;https://excalidraw.com/Cascadia.woff2&quot;);
      }
      @font-face {
        font-family: &quot;Assistant&quot;;
        src: url(&quot;https://excalidraw.com/Assistant-Regular.woff2&quot;);
      }
    </style><style
       class="style-fonts"
       id="style1-9">
      @font-face {
        font-family: &quot;Virgil&quot;;
        src: url(&quot;https://excalidraw.com/Virgil.woff2&quot;);
      }
      @font-face {
        font-family: &quot;Cascadia&quot;;
        src: url(&quot;https://excalidraw.com/Cascadia.woff2&quot;);
      }
      @font-face {
        font-family: &quot;Assistant&quot;;
        src: url(&quot;https://excalidraw.com/Assistant-Regular.woff2&quot;);
      }
    </style><style
       class="style-fonts"
       id="style1-2">
      @font-face {
        font-family: &quot;Virgil&quot;;
        src: url(&quot;https://excalidraw.com/Virgil.woff2&quot;);
      }
      @font-face {
        font-family: &quot;Cascadia&quot;;
        src: url(&quot;https://excalidraw.com/Cascadia.woff2&quot;);
      }
      @font-face {
        font-family: &quot;Assistant&quot;;
        src: url(&quot;https://excalidraw.com/Assistant-Regular.woff2&quot;);
      }
    </style><style
       class="style-fonts"
       id="style1-26">
      @font-face {
        font-family: &quot;Virgil&quot;;
        src: url(&quot;https://excalidraw.com/Virgil.woff2&quot;);
      }
      @font-face {
        font-family: &quot;Cascadia&quot;;
        src: url(&quot;https://excalidraw.com/Cascadia.woff2&quot;);
      }
      @font-face {
        font-family: &quot;Assistant&quot;;
        src: url(&quot;https://excalidraw.com/Assistant-Regular.woff2&quot;);
      }
    </style><style
       class="style-fonts"
       id="style1-7">
      @font-face {
        font-family: &quot;Virgil&quot;;
        src: url(&quot;https://excalidraw.com/Virgil.woff2&quot;);
      }
      @font-face {
        font-family: &quot;Cascadia&quot;;
        src: url(&quot;https://excalidraw.com/Cascadia.woff2&quot;);
      }
      @font-face {
        font-family: &quot;Assistant&quot;;
        src: url(&quot;https://excalidraw.com/Assistant-Regular.woff2&quot;);
      }
    </style><style
       class="style-fonts"
       id="style1-90">
      @font-face {
        font-family: &quot;Virgil&quot;;
        src: url(&quot;https://excalidraw.com/Virgil.woff2&quot;);
      }
      @font-face {
        font-family: &quot;Cascadia&quot;;
        src: url(&quot;https://excalidraw.com/Cascadia.woff2&quot;);
      }
      @font-face {
        font-family: &quot;Assistant&quot;;
        src: url(&quot;https://excalidraw.com/Assistant-Regular.woff2&quot;);
      }
    </style><style
       class="style-fonts"
       id="style1-0">
      @font-face {
        font-family: &quot;Virgil&quot;;
        src: url(&quot;https://excalidraw.com/Virgil.woff2&quot;);
      }
      @font-face {
        font-family: &quot;Cascadia&quot;;
        src: url(&quot;https://excalidraw.com/Cascadia.woff2&quot;);
      }
      @font-face {
        font-family: &quot;Assistant&quot;;
        src: url(&quot;https://excalidraw.com/Assistant-Regular.woff2&quot;);
      }
    </style><style
       class="style-fonts"
       id="style1-1">
      @font-face {
        font-family: &quot;Virgil&quot;;
        src: url(&quot;https://excalidraw.com/Virgil.woff2&quot;);
      }
      @font-face {
        font-family: &quot;Cascadia&quot;;
        src: url(&quot;https://excalidraw.com/Cascadia.woff2&quot;);
      }
      @font-face {
        font-family: &quot;Assistant&quot;;
        src: url(&quot;https://excalidraw.com/Assistant-Regular.woff2&quot;);
      }
    </style><style
       class="style-fonts"
       id="style1-21">
      @font-face {
        font-family: &quot;Virgil&quot;;
        src: url(&quot;https://excalidraw.com/Virgil.woff2&quot;);
      }
      @font-face {
        font-family: &quot;Cascadia&quot;;
        src: url(&quot;https://excalidraw.com/Cascadia.woff2&quot;);
      }
      @font-face {
        font-family: &quot;Assistant&quot;;
        src: url(&quot;https://excalidraw.com/Assistant-Regular.woff2&quot;);
      }
    </style><style
       class="style-fonts"
       id="style1-13">
      @font-face {
        font-family: &quot;Virgil&quot;;
        src: url(&quot;https://excalidraw.com/Virgil.woff2&quot;);
      }
      @font-face {
        font-family: &quot;Cascadia&quot;;
        src: url(&quot;https://excalidraw.com/Cascadia.woff2&quot;);
      }
      @font-face {
        font-family: &quot;Assistant&quot;;
        src: url(&quot;https://excalidraw.com/Assistant-Regular.woff2&quot;);
      }
    </style><style
       class="style-fonts"
       id="style1-07">
      @font-face {
        font-family: &quot;Virgil&quot;;
        src: url(&quot;https://excalidraw.com/Virgil.woff2&quot;);
      }
      @font-face {
        font-family: &quot;Cascadia&quot;;
        src: url(&quot;https://excalidraw.com/Cascadia.woff2&quot;);
      }
      @font-face {
        font-family: &quot;Assistant&quot;;
        src: url(&quot;https://excalidraw.com/Assistant-Regular.woff2&quot;);
      }
    </style><style
       class="style-fonts"
       id="style1-8">
      @font-face {
        font-family: &quot;Virgil&quot;;
        src: url(&quot;https://excalidraw.com/Virgil.woff2&quot;);
      }
      @font-face {
        font-family: &quot;Cascadia&quot;;
        src: url(&quot;https://excalidraw.com/Cascadia.woff2&quot;);
      }
      @font-face {
        font-family: &quot;Assistant&quot;;
        src: url(&quot;https://excalidraw.com/Assistant-Regular.woff2&quot;);
      }
    </style><style
       class="style-fonts"
       id="style1-37">
      @font-face {
        font-family: &quot;Virgil&quot;;
        src: url(&quot;https://excalidraw.com/Virgil.woff2&quot;);
      }
      @font-face {
        font-family: &quot;Cascadia&quot;;
        src: url(&quot;https://excalidraw.com/Cascadia.woff2&quot;);
      }
      @font-face {
        font-family: &quot;Assistant&quot;;
        src: url(&quot;https://excalidraw.com/Assistant-Regular.woff2&quot;);
      }
    </style><style
       class="style-fonts"
       id="style1-05">
      @font-face {
        font-family: &quot;Virgil&quot;;
        src: url(&quot;https://excalidraw.com/Virgil.woff2&quot;);
      }
      @font-face {
        font-family: &quot;Cascadia&quot;;
        src: url(&quot;https://excalidraw.com/Cascadia.woff2&quot;);
      }
      @font-face {
        font-family: &quot;Assistant&quot;;
        src: url(&quot;https://excalidraw.com/Assistant-Regular.woff2&quot;);
      }
    </style></defs><g
     inkscape:label="Layer 1"
     inkscape:groupmode="layer"
     id="layer1"
     transform="translate(-332.90418,-242.98281)"><!-- svg-source:excalidraw --><mask
       id="mask4" /><mask
       id="mask6" /><mask
       id="mask8" /><mask
       id="mask10" /><mask
       id="mask12" /><mask
       id="mask14" /><mask
       id="mask17" /><path
       style="fill:#232323;stroke:none;stroke-width:0.214637"
       d="m 344.5375,245.97535 c -0.15901,-0.60741 -0.82951,-0.69754 -1.30593,-0.36068 -0.82991,0.58679 -0.84277,2.27762 0.45409,2.06348 0.26219,-0.0433 0.47487,-0.16422 0.68064,-0.32961 0.26598,-0.21379 0.45305,-0.49886 0.6823,-0.74851 0.13739,0.42152 0.28282,0.9208 0.73826,1.079 0.16702,-0.57059 -0.32077,-1.13459 -0.38701,-1.70368 -0.0795,-0.68288 0.28978,-1.43374 0.26888,-2.15291 -0.006,-0.19755 -0.0568,-1.10542 -0.47737,-0.76337 -0.21357,0.17369 -0.18683,0.6253 -0.23728,0.87187 -0.20117,0.98323 0.10538,2.94084 -1.32521,3.19456 -0.603,0.10695 -0.50225,-0.63293 -0.21642,-0.90429 0.35974,-0.34151 0.71203,-0.13231 1.12505,-0.24586 m 41.68324,0.0568 c -0.0608,-0.80672 -1.02308,-0.69805 -1.466,-0.26686 -1.04497,1.01729 0.0443,2.61882 1.29559,1.6032 0.2763,-0.22427 0.4901,-0.51502 0.7383,-0.76845 0.0296,0.17191 0.45474,1.33686 0.7344,0.94118 0.16864,-0.2386 -0.25452,-0.96553 -0.32885,-1.22512 -0.23314,-0.81421 0.22519,-1.69263 0.16743,-2.55552 -0.0159,-0.23766 0.0538,-0.79552 -0.34052,-0.76403 -0.31898,0.0255 -0.3383,0.81057 -0.37811,1.04797 -0.17614,1.0503 0.081,2.02015 -0.82489,2.81291 -0.82148,0.71894 -1.30915,-0.38319 -0.44914,-0.81512 0.26058,-0.13087 0.57641,-0.022 0.85179,-0.0102 m -14.53802,-0.22715 c 0,-0.38418 0.017,-0.75398 0.0525,-1.13579 0.0196,-0.21042 0.2945,-1.62178 -0.21476,-1.40973 -0.33661,0.14014 -0.22183,0.89641 -0.25941,1.18258 -0.12755,0.97142 -0.60547,3.0076 0.81915,3.22489 0.8518,0.1299 2.45994,-0.76842 1.41377,-1.66924 -0.46312,-0.39878 -1.25624,-0.26287 -1.81129,-0.19271 m -17.88859,-1.24937 c -0.0283,-0.22407 -0.002,-0.5883 -0.13163,-0.77699 -0.094,-0.13695 -0.32052,-0.16584 -0.40199,0 -0.1256,0.25565 0.0855,0.63312 -0.12533,0.85854 -0.26165,0.27983 -0.9185,0.0196 -1.06615,0.43288 -0.27001,0.75581 1.01671,0.11849 1.17185,0.45944 0.30927,0.67972 -0.34094,2.90258 1.17793,2.3083 0.17008,-0.0666 0.35744,-0.13274 0.49901,-0.25179 0.20678,-0.17388 0.52712,-0.75522 0.25411,-0.99526 -0.31211,-0.2744 -0.52779,0.87833 -1.03395,0.71078 -0.45292,-0.14991 -0.34462,-1.23494 -0.34385,-1.61012 3.5e-4,-0.17044 -0.0275,-0.39028 0.13163,-0.50176 0.21658,-0.15172 1.34946,-0.13738 1.28468,-0.50997 -0.0642,-0.36924 -1.16514,-0.12613 -1.41631,-0.12405 m -18.67964,-0.68497 c -0.50418,0.0682 -0.95207,0.0735 -1.36671,0.4197 -0.56716,0.47352 -1.03705,1.40023 -0.7635,2.13932 0.34623,0.93548 1.97891,1.56627 2.85602,0.9985 0.23161,-0.14993 0.13466,-0.3606 -0.10622,-0.41102 -0.31356,-0.0656 -0.64657,0.0626 -0.96432,0.0514 -0.61328,-0.0216 -1.47719,-0.63377 -1.30943,-1.32035 0.1024,-0.41911 0.75201,-1.54663 1.30856,-1.21282 0.27576,0.16541 0.45848,1.21041 0.88487,0.92704 0.38002,-0.25257 -0.14372,-1.6453 -0.53927,-1.59177 m 45.25697,3.52444 c -0.38125,0.0482 -0.82027,0.12844 -1.19258,-0.008 -0.21453,-0.0784 -0.52682,-0.39965 -0.77041,-0.29639 -0.27565,0.11684 -0.0581,0.48136 0.0923,0.59269 0.38706,0.28659 0.89382,0.34651 1.3596,0.33513 0.6306,-0.0154 1.56077,-0.408 0.88992,-1.12444 -0.39851,-0.4256 -1.30464,-0.80167 -1.85533,-0.97593 0.27415,-0.52403 0.85116,-0.16708 1.20721,-0.45589 0.25081,-0.20345 -0.0201,-0.46995 -0.24206,-0.49857 -0.41403,-0.0534 -2.12143,0.31614 -1.81453,0.95363 0.39607,0.82275 2.05828,0.62155 2.3259,1.47735 m -29.07605,-1.13535 c 0.65264,-0.008 0.50155,-0.66639 0.0559,-0.93798 -0.86365,-0.52635 -2.12377,0.57772 -1.89967,1.50588 0.15601,0.64615 0.87861,0.86164 1.44623,0.9846 0.27602,0.0598 1.19306,0.36572 1.24726,-0.13053 0.0261,-0.23896 -0.34922,-0.26986 -0.509,-0.30603 -0.40455,-0.0916 -1.77964,-0.20156 -1.59364,-0.88878 0.16648,-0.61509 1.0066,-0.94913 1.25291,-0.22716 m 12.32325,-1.05239 c -0.77453,0.14861 -1.56385,1.20934 -1.03049,1.9559 0.329,0.4605 0.96321,0.59164 1.4848,0.68204 0.27683,0.048 0.63728,0.19951 0.90508,0.0512 0.24916,-0.13801 0.19598,-0.37533 -0.0557,-0.45217 -0.44,-0.13429 -2.05899,-0.19203 -1.89583,-0.95739 0.0751,-0.35235 0.61283,-0.8251 0.98374,-0.62306 0.18762,0.1022 0.36571,0.56309 0.64531,0.33749 0.18048,-0.14562 0.0644,-0.4721 -0.0439,-0.62218 -0.23742,-0.32922 -0.6039,-0.44646 -0.99302,-0.3718 m 2.49873,1.33634 c 0.48858,0.22806 0.93822,0.47842 1.47647,0.20143 0.55597,-0.28611 0.69879,-1.08056 0.11134,-1.41911 -1.2033,-0.69346 -2.80192,1.27579 -2.0533,2.35342 0.51262,0.73792 1.42018,0.8439 2.22595,0.62411 0.24649,-0.0672 0.73824,-0.1193 0.76402,-0.45124 0.0311,-0.40012 -0.6444,-0.1336 -0.82081,-0.0786 -0.91001,0.28362 -1.99572,-0.1257 -1.70367,-1.22999 m 16.58243,-1.33288 c -0.85361,0.19666 -1.73835,1.42348 -1.33924,2.2983 0.45488,0.99702 2.0013,1.16487 2.86922,0.61963 0.15624,-0.0982 0.34121,-0.42084 0.0517,-0.48293 -0.83149,-0.17827 -1.41676,0.65681 -2.20041,-0.142 -0.15476,-0.15776 -0.31538,-0.38436 -0.26282,-0.61886 0.0455,-0.20314 0.18727,-0.26007 0.37066,-0.19394 0.34279,0.12359 0.59565,0.22744 0.96519,0.13413 1.2118,-0.30599 0.71335,-1.88334 -0.45431,-1.61433 m -44.92022,0.0533 c -0.94764,0.17902 -1.54633,1.41152 -0.71609,2.15137 0.32478,0.28943 0.93558,0.31056 1.34077,0.23763 0.23109,-0.0416 0.47696,-0.1141 0.68147,-0.23101 1.52862,-0.87385 -0.0502,-2.39525 -1.30615,-2.15799 m 2.78267,0.88208 c 0.0214,-0.20065 0.0272,-0.89698 -0.3729,-0.66596 -0.1749,0.10099 -0.0998,0.33522 -0.10065,0.49559 -0.002,0.3149 -0.31842,1.41186 0.18474,1.48098 0.17828,0.0245 0.27416,-0.2241 0.34621,-0.34525 0.16701,-0.2808 0.52119,-0.98249 0.88141,-1.03521 0.15162,-0.0222 0.2224,0.18809 0.25788,0.29722 0.1405,0.43218 0.19964,0.83166 0.3934,1.24914 0.14373,-0.03 0.28575,-0.0628 0.31282,-0.23333 0.0777,-0.48928 -0.23175,-2.01868 -0.82396,-2.08551 -0.46787,-0.0528 -0.74322,0.60385 -1.07895,0.84233 m 19.76262,0 c -4.3e-4,-0.17977 -0.11751,-1.02528 -0.46386,-0.59778 -0.1196,0.14762 -0.0409,0.42165 -0.0569,0.59778 -0.0459,0.50564 -0.27086,1.09655 0.29362,1.36294 0.23708,-0.38731 0.45613,-0.79096 0.75531,-1.1357 0.0963,-0.11098 0.25711,-0.32445 0.42969,-0.27229 0.3483,0.10526 0.29286,0.90536 0.41724,1.18056 0.0625,0.13821 0.23251,0.39215 0.40791,0.23873 0.16417,-0.1436 0.0255,-0.46523 -0.0151,-0.63599 -0.10833,-0.45571 -0.0558,-1.40427 -0.63722,-1.5652 -0.48749,-0.13493 -0.84522,0.53913 -1.13065,0.82695 m -11.86894,0.96541 c 0.0539,0.17969 0.50887,0.78007 0.63652,0.3321 0.0596,-0.20913 -0.14429,-0.46399 -0.17151,-0.67284 -0.0396,-0.30365 0.14357,-0.62015 0.076,-0.90752 -0.0322,-0.13702 -0.14998,-0.28236 -0.30713,-0.24236 -0.21352,0.0543 -0.2226,0.35979 -0.29406,0.52521 -0.17976,0.4161 -0.64617,1.09075 -1.18894,0.87716 -0.69095,-0.2719 -0.25855,-0.84403 -0.29788,-1.32837 -0.0192,-0.23644 -0.29784,-0.33534 -0.48157,-0.19516 -0.65923,0.50297 -0.0902,1.77532 0.49529,2.04239 0.55206,0.25183 1.09366,-0.1413 1.5333,-0.43061 m 9.54058,-0.34074 c 0.33841,0.34123 1.09192,1.4114 1.53331,0.62469 -0.76124,-0.48372 -0.91061,-1.3592 -1.60631,-1.84285 -0.73146,-0.50851 -1.96775,0.18852 -2.12245,0.99101 -0.14342,0.74398 0.46102,1.26574 1.17325,1.06992 0.19022,-0.0523 0.35425,-0.13738 0.5111,-0.25691 0.21389,-0.163 0.39752,-0.34232 0.5111,-0.58586 m 18.3429,0 c 0.25368,0.29038 0.53496,0.72566 0.90863,0.86643 0.15258,0.0575 0.46641,0.0646 0.52521,-0.13522 0.0635,-0.21581 -0.62087,-0.65653 -0.74641,-0.84478 -0.26647,-0.39957 -0.39558,-0.85578 -0.82686,-1.12733 -0.62313,-0.39234 -1.4763,0.0466 -1.86015,0.56167 -0.42941,0.57618 -0.27285,1.54879 0.57985,1.58033 0.58011,0.0214 1.14342,-0.42441 1.41973,-0.9011 m -9.9381,-0.56789 c 0.15376,-0.2871 0.81046,-0.76609 1.07408,-0.3126 0.18881,0.32479 -0.4279,0.43589 -0.61977,0.4155 -0.15374,-0.0164 -0.30398,-0.0685 -0.45431,-0.1029 m 15.78738,0 c 0.0988,-0.13691 0.19667,-0.24977 0.341,-0.34253 0.73893,-0.47488 1.02138,0.54306 0.11332,0.44543 -0.15376,-0.0165 -0.30393,-0.0685 -0.45432,-0.1029 m -44.06839,-0.434 c 0.39151,-0.0694 1.18114,0.29381 1.08395,0.77468 -0.0831,0.41129 -0.54906,0.5895 -0.91358,0.65509 -1.18298,0.21283 -1.21369,-1.24481 -0.17037,-1.42977 m 30.83761,0.0218 c -0.29735,0.11877 -0.32778,0.45554 0,0.54979 0.26722,0.0768 1.35049,0.0373 1.58562,-0.0911 0.29278,-0.15986 0.16851,-0.42304 -0.11046,-0.48135 -0.35005,-0.0732 -1.14283,-0.11014 -1.47516,0.0226 m 7.09755,0.0146 c -0.0113,0.53228 -0.5859,1.66756 -1.29318,1.23915 -0.49987,-0.30279 0.1812,-0.97233 0.49813,-1.0936 0.25435,-0.0973 0.53249,-0.083 0.79505,-0.14555 m -18.28611,0.0568 c -0.0842,0.43288 -0.8642,1.88163 -1.42692,1.06602 -0.51103,-0.74069 1.00381,-1.06597 1.42692,-1.06602 m 14.82197,0.31729 c 0.3696,0.01 0.79723,0.37224 0.47399,0.73143 -0.19214,0.21349 -0.49313,0.21091 -0.75794,0.19954 -0.28628,-0.0123 -0.73015,-0.31137 -0.5093,-0.64874 0.14259,-0.21781 0.55381,-0.28849 0.79325,-0.28223 z"
       id="path41" /><path
       style="fill:#ff6837;stroke:none;stroke-width:0.265931"
       d="m 350.98988,260.16979 c -0.527,0.034 -0.59314,0.62725 -0.32135,0.97653 1.00125,1.28671 1.88585,2.74498 2.28228,4.36868 0.18289,0.74912 0.27871,1.62352 -0.12846,2.32164 -0.42436,0.7276 -1.22342,0.65088 -1.7461,1.20944 -0.31102,0.33237 -0.25884,0.8923 0.26543,0.9496 0.97012,0.10602 2.02789,-0.87471 2.39998,-1.66624 0.94943,-2.01964 -0.0276,-4.18928 -0.90703,-6.05104 -0.29978,-0.63466 -0.96807,-2.1652 -1.84475,-2.10861 m 33.77456,0.0448 c -0.48048,0.14251 -0.37705,0.68685 -0.11433,0.98831 1.17586,1.34929 2.78192,4.02801 2.36344,5.93041 -0.11773,0.53522 -0.41543,1.09926 -0.91366,1.36721 -0.4166,0.22404 -0.9215,0.2365 -1.20602,0.67983 -0.2595,0.40435 0.0399,0.84892 0.50247,0.82169 0.37056,-0.0218 0.72795,-0.22942 1.05541,-0.38519 2.82754,-1.34505 1.29068,-5.16277 0.3733,-7.19772 -0.3013,-0.66836 -1.07465,-2.49697 -2.06061,-2.20454 m -43.41407,0.0598 c -0.88642,0.19191 -1.48208,1.09692 -1.8448,1.86326 -1.14195,2.41266 -0.63929,4.24801 1.21182,6.12141 0.53757,0.54403 1.0911,1.01046 1.68839,1.48393 0.22524,0.17855 0.51821,0.43123 0.82827,0.2929 0.62886,-0.28056 -0.0275,-1.27893 -0.33851,-1.52291 -1.94097,-1.52283 -3.84918,-3.45392 -2.43782,-6.02352 0.25211,-0.459 0.59311,-0.96377 0.96936,-1.32948 0.17689,-0.17193 0.57503,-0.29189 0.67424,-0.51891 0.18494,-0.42322 -0.52932,-0.41466 -0.75095,-0.36668 m 21.67118,8e-4 c -0.92409,0.2129 -1.5503,1.19076 -1.89969,2.00322 -0.2405,0.55923 -0.51159,1.15397 -0.61045,1.75903 -0.27701,1.69539 0.76452,3.08029 1.87792,4.22165 0.53191,0.54528 1.08935,1.00498 1.68763,1.47188 0.22343,0.17437 0.52782,0.43143 0.83391,0.3042 0.67763,-0.28167 -0.0996,-1.34985 -0.41201,-1.58014 -1.93192,-1.42429 -3.70819,-3.43198 -2.39977,-5.89517 0.25662,-0.48311 0.6116,-1.01202 1.00503,-1.39398 0.19026,-0.18471 0.5629,-0.2822 0.68532,-0.52043 0.22443,-0.43673 -0.5446,-0.42171 -0.76789,-0.37026 m -17.16726,1.28284 c -0.89235,0.13847 -0.0884,1.62928 -0.5358,2.07565 -0.45521,0.45419 -1.40366,0.0885 -1.92456,0.44594 -0.30735,0.21088 -0.44679,0.61355 -0.23231,0.93978 0.39084,0.59447 1.04143,0.18913 1.56608,0.0566 0.23051,-0.0583 0.61882,-0.1513 0.7579,0.10608 0.16499,0.30535 0.0864,0.77228 0.0864,1.10694 0,0.92805 -0.0948,2.26516 0.35386,3.09588 0.26999,0.49994 0.64058,0.92087 1.26444,0.79547 1.02812,-0.20666 2.89551,-1.19725 2.3294,-2.55037 -0.12451,-0.2976 -0.51383,-0.3692 -0.732,-0.12248 -0.18005,0.20362 -0.17738,0.51318 -0.28964,0.75155 -0.26411,0.56079 -1.25495,1.08621 -1.64724,0.35056 -0.41581,-0.77976 -0.14206,-1.96369 -0.25327,-2.81314 -0.0413,-0.31557 -0.0947,-0.83103 0.14241,-1.08962 0.40481,-0.44144 1.71136,-0.43561 2.27967,-0.56061 0.28895,-0.0635 0.6529,-0.29693 0.42021,-0.64123 -0.54222,-0.80227 -2.08328,0.2579 -2.71156,-0.17313 -0.45336,-0.31103 0.0934,-1.92396 -0.87403,-1.77384 m 31.80235,6.6307 c 0,-0.27988 -0.0984,-0.8022 0.11282,-1.0211 0.18781,-0.1946 0.62306,-0.10703 0.87223,-0.22292 0.9813,-0.45638 2.07751,-0.89023 3.16624,-0.99558 0.43978,-0.0426 1.77211,0.36674 1.87326,-0.22439 0.11399,-0.66617 -0.86957,-0.76917 -1.31037,-0.77228 -1.18684,-0.008 -2.22657,0.54214 -3.37732,0.62657 -0.26035,0.0191 -0.95206,0.13778 -1.08332,-0.14757 -0.26088,-0.56712 0.10069,-1.29246 0.59079,-1.54989 0.93665,-0.49198 2.03921,-0.75148 3.09588,-0.68537 0.39877,0.0249 0.72174,0.49206 1.11535,0.39535 0.2869,-0.0705 0.2461,-0.52544 0.21109,-0.75025 -0.0886,-0.56885 -0.70763,-0.69508 -1.18572,-0.75383 -1.21843,-0.14972 -2.28649,0.55345 -3.44768,0.74362 -0.42625,0.0698 -1.44308,-0.17943 -1.59594,0.3694 -0.15722,0.5645 0.17147,1.06693 0.18763,1.61092 0.0323,1.08768 -0.17125,2.2267 -0.30045,3.30696 -0.049,0.41 -0.19571,1.13887 0.24622,1.39436 0.39316,0.2273 1.24156,0.12132 1.67362,0.0427 1.17948,-0.21455 2.32447,-0.42991 3.51805,-0.57266 0.35764,-0.0428 1.47196,0.0647 1.5095,-0.44252 0.04,-0.54105 -1.01629,-0.55295 -1.36878,-0.56159 -1.50758,-0.0369 -2.99688,0.21005 -4.5031,0.21005 m -9.49873,-0.56288 c -0.20504,-0.71725 -0.55717,-1.38934 -0.76404,-2.11083 -0.14041,-0.48974 -0.25602,-0.98132 -0.3701,-1.47758 -0.10272,-0.44685 -0.12518,-0.9926 -0.49741,-1.31449 -0.42813,-0.37024 -1.02936,-0.053 -1.0964,0.47015 -0.0641,0.49981 0.37375,0.94809 0.51608,1.40723 0.39688,1.28028 0.74203,2.55221 1.24087,3.79949 0.17018,0.4255 0.24633,1.32309 0.761,1.45521 0.84153,0.21602 1.00905,-0.75524 1.22768,-1.31449 0.57297,-1.46563 1.29718,-2.92854 1.95371,-4.36238 0.21031,-0.4593 0.90968,-1.06184 0.93142,-1.54762 0.021,-0.46924 -0.6252,-0.54285 -0.94662,-0.40636 -0.54851,0.23291 -0.67717,0.96201 -0.87696,1.46145 -0.39237,0.98089 -0.86731,1.95056 -1.36021,2.8848 -0.18976,0.35969 -0.34987,0.86232 -0.71902,1.05542 m -10.62451,-0.0704 c 0.56494,0.0246 1.16681,0.5016 1.68758,0.45897 0.62658,-0.0513 0.41044,-0.79381 0.0701,-1.04733 -0.3206,-0.2388 -0.7053,-0.30732 -0.9837,-0.60778 0.598,0.005 1.85522,-0.47715 0.96899,-1.23029 -0.56124,-0.47694 -1.2365,0.28273 -1.80919,0.17612 -0.50241,-0.0935 -0.15002,-0.8694 -0.35789,-1.1666 -0.1692,-0.24192 -0.45195,-0.0996 -0.55078,0.1176 -0.17311,0.38042 -0.027,1.21612 -0.34382,1.49049 -0.44549,0.38586 -1.55691,-0.87553 -1.81972,0.2619 -0.0265,0.11455 -0.0256,0.23434 -0.0155,0.35078 0.0142,0.16488 0.0501,0.3317 0.0883,0.49252 0.0987,0.41551 0.34267,0.77204 0.81414,0.69949 0.26887,-0.0414 0.64323,-0.28102 0.87501,-0.0411 0.35467,0.36721 0.16004,1.0375 0.44345,1.44827 0.76027,1.10195 0.93309,-1.00978 0.93309,-1.40309 m -20.8972,1.68866 c -0.069,0.87403 -0.25601,1.73405 -0.35534,2.60335 -0.0408,0.35677 -0.0913,0.86691 -0.42623,1.08023 -0.16991,0.1082 -0.33194,0.0526 -0.48493,-0.0556 -0.3901,-0.27609 -1.65593,-1.65415 -1.8834,-0.32069 -0.13988,0.81997 2.01343,2.33938 2.72496,1.84996 0.73082,-0.50268 0.83233,-1.47237 0.92838,-2.2724 0.13753,-1.14567 0.3815,-2.37516 0.81631,-3.44769 0.1986,-0.48986 0.9183,-1.40404 0.46718,-1.94063 -0.20959,-0.24929 -0.61531,-0.2764 -0.8572,-0.0693 -0.28977,0.24813 -0.29419,0.66505 -0.52717,0.95421 -0.5389,0.66888 -2.25957,1.20558 -2.72654,0.14095 -0.11165,-0.25457 0.11839,-0.46647 0.28465,-0.63038 0.30042,-0.29616 0.68767,-0.54815 1.12464,-0.55284 0.28256,-0.003 0.77059,0.24852 1.00318,0.0148 0.24338,-0.24459 0.0581,-0.64971 -0.16651,-0.82631 -0.40229,-0.31629 -0.99578,-0.35226 -1.46992,-0.22227 -1.62026,0.44424 -3.06933,2.42217 -1.19614,3.58467 0.72209,0.44813 1.95987,0.31288 2.74408,0.10999 m 35.67301,-3.40282 c -0.63183,0.18269 -0.92223,0.92855 -0.14046,1.14712 0.66612,0.18622 1.3669,-0.14876 2.0402,-0.13552 0.36126,0.007 0.77581,0.18172 1.12578,0.0504 0.46571,-0.1747 0.78905,-0.82263 0.13963,-1.00606 -0.60997,-0.1723 -1.27977,-0.0166 -1.89866,-0.0315 -0.41869,-0.0101 -0.8513,-0.14448 -1.26649,-0.0244 z"
       id="path43" /><!-- svg-source:excalidraw --><mask
       id="mask4-9" /><mask
       id="mask6-8" /><mask
       id="mask8-7" /><mask
       id="mask10-2" /><mask
       id="mask12-8" /><mask
       id="mask16" /><!-- svg-source:excalidraw --><mask
       id="mask4-2" /><mask
       id="mask8-9" /><mask
       id="mask10-5" /><mask
       id="mask12-4" /><mask
       id="mask14-2" /><mask
       id="mask16-0" /><mask
       id="mask18" /><mask
       id="mask20" /><mask
       id="mask22" /><mask
       id="mask24" /><!-- svg-source:excalidraw --><mask
       id="mask2" /><mask
       id="mask4-1" /><mask
       id="mask6-4" /><mask
       id="mask10-50" /><mask
       id="mask14-7" /><!-- svg-source:excalidraw --><mask
       id="mask2-8" /><mask
       id="mask6-83" /><mask
       id="mask8-4" /><mask
       id="mask10-0" /><mask
       id="mask14-3" /><!-- svg-source:excalidraw --><mask
       id="mask2-0" /><mask
       id="mask6-9" /><mask
       id="mask8-3" /><mask
       id="mask10-9" /><mask
       id="mask12-2" /><mask
       id="mask14-9" /><mask
       id="mask16-3" /><mask
       id="mask18-8" /><mask
       id="mask20-7" /><mask
       id="mask22-3" /><mask
       id="mask24-2" /><mask
       id="mask26" /><mask
       id="mask28" /><mask
       id="mask32" /><!-- svg-source:excalidraw --><mask
       id="mask4-8" /><mask
       id="mask6-0" /><mask
       id="mask8-2" /><mask
       id="mask10-07" /><mask
       id="mask12-3" /><mask
       id="mask14-4" /><mask
       id="mask16-2" /><mask
       id="mask18-9" /><mask
       id="mask20-0" /><mask
       id="mask22-8" /><mask
       id="mask24-6" /><mask
       id="mask26-7" /><mask
       id="mask30" /><mask
       id="mask32-9" /><mask
       id="mask34" /><mask
       id="mask36" /><mask
       id="mask38" /><mask
       id="mask40" /><mask
       id="mask42" /><mask
       id="mask44" /><mask
       id="mask46" /><mask
       id="mask48" /><mask
       id="mask50" /><mask
       id="mask52" /><mask
       id="mask54" /><mask
       id="mask56" /><mask
       id="mask58" /><mask
       id="mask60" /><mask
       id="mask62" /><mask
       id="mask64" /><!-- svg-source:excalidraw --><mask
       id="mask4-7" /><mask
       id="mask6-43" /><!-- svg-source:excalidraw --><mask
       id="mask4-71" /><mask
       id="mask6-40" /><mask
       id="mask8-6" /><!-- svg-source:excalidraw --><mask
       id="mask4-6" /><mask
       id="mask6-49" /><mask
       id="mask8-0" /><mask
       id="mask10-1" /><mask
       id="mask12-5" /><mask
       id="mask14-38" /><mask
       id="mask16-03" /><!-- svg-source:excalidraw --><mask
       id="mask4-0" /><mask
       id="mask6-1" /><mask
       id="mask8-41" /><mask
       id="mask12-9" /><!-- svg-source:excalidraw --><mask
       id="mask4-91" /><mask
       id="mask6-03" /><mask
       id="mask10-7" /><!-- svg-source:excalidraw --><mask
       id="mask6-5" /><mask
       id="mask10-93" /><mask
       id="mask14-1" /><mask
       id="mask18-0" /><!-- svg-source:excalidraw --><mask
       id="mask10-3" /><mask
       id="mask14-21" /><mask
       id="mask18-89" /><mask
       id="mask22-82" /><!-- svg-source:excalidraw --><mask
       id="mask8-03" /><mask
       id="mask12-7" /><mask
       id="mask16-8" /></g></svg>
