<?xml version="1.0" encoding="UTF-8" standalone="no"?>
<!-- Created with Inkscape (http://www.inkscape.org/) -->

<svg
   width="55.06496mm"
   height="14.328111mm"
   viewBox="0 0 55.06496 14.328111"
   version="1.1"
   id="svg1"
   xml:space="preserve"
   inkscape:export-filename="astrocyte.svg"
   inkscape:export-xdpi="96"
   inkscape:export-ydpi="96"
   inkscape:version="1.3.2 (091e20ef0f, 2023-11-25)"
   sodipodi:docname="diagrams_models_david.svg"
   xmlns:inkscape="http://www.inkscape.org/namespaces/inkscape"
   xmlns:sodipodi="http://sodipodi.sourceforge.net/DTD/sodipodi-0.dtd"
   xmlns="http://www.w3.org/2000/svg"
   xmlns:svg="http://www.w3.org/2000/svg"><sodipodi:namedview
     id="namedview1"
     pagecolor="#ffffff"
     bordercolor="#000000"
     borderopacity="0.25"
     inkscape:showpageshadow="2"
     inkscape:pageopacity="0.0"
     inkscape:pagecheckerboard="0"
     inkscape:deskcolor="#d1d1d1"
     inkscape:document-units="mm"
     showguides="true"
     inkscape:zoom="1.453872"
     inkscape:cx="1423.7842"
     inkscape:cy="698.82354"
     inkscape:window-width="1850"
     inkscape:window-height="1016"
     inkscape:window-x="0"
     inkscape:window-y="0"
     inkscape:window-maximized="1"
     inkscape:current-layer="layer1"
     showgrid="false"><sodipodi:guide
       position="-48.4071,207.67368"
       orientation="0,-1"
       id="guide44"
       inkscape:locked="false" /><sodipodi:guide
       position="125.27477,311.7662"
       orientation="1,0"
       id="guide45"
       inkscape:locked="false" /><sodipodi:guide
       position="195.92066,322.47406"
       orientation="0,-1"
       id="guide46"
       inkscape:locked="false" /><sodipodi:guide
       position="236.59438,325.84079"
       orientation="0,-1"
       id="guide47"
       inkscape:locked="false" /><sodipodi:guide
       position="302.70858,231.2448"
       orientation="0,-1"
       id="guide48"
       inkscape:locked="false" /><sodipodi:guide
       position="172.26118,268.27234"
       orientation="0,-1"
       id="guide49"
       inkscape:locked="false" /><sodipodi:guide
       position="176.52502,98.568871"
       orientation="0,-1"
       id="guide53"
       inkscape:locked="false" /><sodipodi:guide
       position="160.6033,149.00226"
       orientation="0,-1"
       id="guide57"
       inkscape:locked="false" /><sodipodi:guide
       position="210.97767,79.493316"
       orientation="0,-1"
       id="guide58"
       inkscape:locked="false" /><inkscape:page
       x="6.6761447e-07"
       y="-6.5498267e-07"
       width="55.06496"
       height="14.328111"
       id="page1"
       margin="0"
       bleed="0" /></sodipodi:namedview><defs
     id="defs1"><style
       class="style-fonts"
       id="style1">
      @font-face {
        font-family: &quot;Virgil&quot;;
        src: url(&quot;https://excalidraw.com/Virgil.woff2&quot;);
      }
      @font-face {
        font-family: &quot;Cascadia&quot;;
        src: url(&quot;https://excalidraw.com/Cascadia.woff2&quot;);
      }
      @font-face {
        font-family: &quot;Assistant&quot;;
        src: url(&quot;https://excalidraw.com/Assistant-Regular.woff2&quot;);
      }
    </style><style
       class="style-fonts"
       id="style1-3">
      @font-face {
        font-family: &quot;Virgil&quot;;
        src: url(&quot;https://excalidraw.com/Virgil.woff2&quot;);
      }
      @font-face {
        font-family: &quot;Cascadia&quot;;
        src: url(&quot;https://excalidraw.com/Cascadia.woff2&quot;);
      }
      @font-face {
        font-family: &quot;Assistant&quot;;
        src: url(&quot;https://excalidraw.com/Assistant-Regular.woff2&quot;);
      }
    </style><style
       class="style-fonts"
       id="style1-6">
      @font-face {
        font-family: &quot;Virgil&quot;;
        src: url(&quot;https://excalidraw.com/Virgil.woff2&quot;);
      }
      @font-face {
        font-family: &quot;Cascadia&quot;;
        src: url(&quot;https://excalidraw.com/Cascadia.woff2&quot;);
      }
      @font-face {
        font-family: &quot;Assistant&quot;;
        src: url(&quot;https://excalidraw.com/Assistant-Regular.woff2&quot;);
      }
    </style><style
       class="style-fonts"
       id="style1-9">
      @font-face {
        font-family: &quot;Virgil&quot;;
        src: url(&quot;https://excalidraw.com/Virgil.woff2&quot;);
      }
      @font-face {
        font-family: &quot;Cascadia&quot;;
        src: url(&quot;https://excalidraw.com/Cascadia.woff2&quot;);
      }
      @font-face {
        font-family: &quot;Assistant&quot;;
        src: url(&quot;https://excalidraw.com/Assistant-Regular.woff2&quot;);
      }
    </style><style
       class="style-fonts"
       id="style1-2">
      @font-face {
        font-family: &quot;Virgil&quot;;
        src: url(&quot;https://excalidraw.com/Virgil.woff2&quot;);
      }
      @font-face {
        font-family: &quot;Cascadia&quot;;
        src: url(&quot;https://excalidraw.com/Cascadia.woff2&quot;);
      }
      @font-face {
        font-family: &quot;Assistant&quot;;
        src: url(&quot;https://excalidraw.com/Assistant-Regular.woff2&quot;);
      }
    </style><style
       class="style-fonts"
       id="style1-26">
      @font-face {
        font-family: &quot;Virgil&quot;;
        src: url(&quot;https://excalidraw.com/Virgil.woff2&quot;);
      }
      @font-face {
        font-family: &quot;Cascadia&quot;;
        src: url(&quot;https://excalidraw.com/Cascadia.woff2&quot;);
      }
      @font-face {
        font-family: &quot;Assistant&quot;;
        src: url(&quot;https://excalidraw.com/Assistant-Regular.woff2&quot;);
      }
    </style><style
       class="style-fonts"
       id="style1-7">
      @font-face {
        font-family: &quot;Virgil&quot;;
        src: url(&quot;https://excalidraw.com/Virgil.woff2&quot;);
      }
      @font-face {
        font-family: &quot;Cascadia&quot;;
        src: url(&quot;https://excalidraw.com/Cascadia.woff2&quot;);
      }
      @font-face {
        font-family: &quot;Assistant&quot;;
        src: url(&quot;https://excalidraw.com/Assistant-Regular.woff2&quot;);
      }
    </style><style
       class="style-fonts"
       id="style1-90">
      @font-face {
        font-family: &quot;Virgil&quot;;
        src: url(&quot;https://excalidraw.com/Virgil.woff2&quot;);
      }
      @font-face {
        font-family: &quot;Cascadia&quot;;
        src: url(&quot;https://excalidraw.com/Cascadia.woff2&quot;);
      }
      @font-face {
        font-family: &quot;Assistant&quot;;
        src: url(&quot;https://excalidraw.com/Assistant-Regular.woff2&quot;);
      }
    </style><style
       class="style-fonts"
       id="style1-0">
      @font-face {
        font-family: &quot;Virgil&quot;;
        src: url(&quot;https://excalidraw.com/Virgil.woff2&quot;);
      }
      @font-face {
        font-family: &quot;Cascadia&quot;;
        src: url(&quot;https://excalidraw.com/Cascadia.woff2&quot;);
      }
      @font-face {
        font-family: &quot;Assistant&quot;;
        src: url(&quot;https://excalidraw.com/Assistant-Regular.woff2&quot;);
      }
    </style><style
       class="style-fonts"
       id="style1-1">
      @font-face {
        font-family: &quot;Virgil&quot;;
        src: url(&quot;https://excalidraw.com/Virgil.woff2&quot;);
      }
      @font-face {
        font-family: &quot;Cascadia&quot;;
        src: url(&quot;https://excalidraw.com/Cascadia.woff2&quot;);
      }
      @font-face {
        font-family: &quot;Assistant&quot;;
        src: url(&quot;https://excalidraw.com/Assistant-Regular.woff2&quot;);
      }
    </style><style
       class="style-fonts"
       id="style1-21">
      @font-face {
        font-family: &quot;Virgil&quot;;
        src: url(&quot;https://excalidraw.com/Virgil.woff2&quot;);
      }
      @font-face {
        font-family: &quot;Cascadia&quot;;
        src: url(&quot;https://excalidraw.com/Cascadia.woff2&quot;);
      }
      @font-face {
        font-family: &quot;Assistant&quot;;
        src: url(&quot;https://excalidraw.com/Assistant-Regular.woff2&quot;);
      }
    </style><style
       class="style-fonts"
       id="style1-13">
      @font-face {
        font-family: &quot;Virgil&quot;;
        src: url(&quot;https://excalidraw.com/Virgil.woff2&quot;);
      }
      @font-face {
        font-family: &quot;Cascadia&quot;;
        src: url(&quot;https://excalidraw.com/Cascadia.woff2&quot;);
      }
      @font-face {
        font-family: &quot;Assistant&quot;;
        src: url(&quot;https://excalidraw.com/Assistant-Regular.woff2&quot;);
      }
    </style><style
       class="style-fonts"
       id="style1-07">
      @font-face {
        font-family: &quot;Virgil&quot;;
        src: url(&quot;https://excalidraw.com/Virgil.woff2&quot;);
      }
      @font-face {
        font-family: &quot;Cascadia&quot;;
        src: url(&quot;https://excalidraw.com/Cascadia.woff2&quot;);
      }
      @font-face {
        font-family: &quot;Assistant&quot;;
        src: url(&quot;https://excalidraw.com/Assistant-Regular.woff2&quot;);
      }
    </style><style
       class="style-fonts"
       id="style1-8">
      @font-face {
        font-family: &quot;Virgil&quot;;
        src: url(&quot;https://excalidraw.com/Virgil.woff2&quot;);
      }
      @font-face {
        font-family: &quot;Cascadia&quot;;
        src: url(&quot;https://excalidraw.com/Cascadia.woff2&quot;);
      }
      @font-face {
        font-family: &quot;Assistant&quot;;
        src: url(&quot;https://excalidraw.com/Assistant-Regular.woff2&quot;);
      }
    </style><style
       class="style-fonts"
       id="style1-37">
      @font-face {
        font-family: &quot;Virgil&quot;;
        src: url(&quot;https://excalidraw.com/Virgil.woff2&quot;);
      }
      @font-face {
        font-family: &quot;Cascadia&quot;;
        src: url(&quot;https://excalidraw.com/Cascadia.woff2&quot;);
      }
      @font-face {
        font-family: &quot;Assistant&quot;;
        src: url(&quot;https://excalidraw.com/Assistant-Regular.woff2&quot;);
      }
    </style><style
       class="style-fonts"
       id="style1-05">
      @font-face {
        font-family: &quot;Virgil&quot;;
        src: url(&quot;https://excalidraw.com/Virgil.woff2&quot;);
      }
      @font-face {
        font-family: &quot;Cascadia&quot;;
        src: url(&quot;https://excalidraw.com/Cascadia.woff2&quot;);
      }
      @font-face {
        font-family: &quot;Assistant&quot;;
        src: url(&quot;https://excalidraw.com/Assistant-Regular.woff2&quot;);
      }
    </style><style
       class="style-fonts"
       id="style1-67">
      @font-face {
        font-family: &quot;Virgil&quot;;
        src: url(&quot;https://excalidraw.com/Virgil.woff2&quot;);
      }
      @font-face {
        font-family: &quot;Cascadia&quot;;
        src: url(&quot;https://excalidraw.com/Cascadia.woff2&quot;);
      }
      @font-face {
        font-family: &quot;Assistant&quot;;
        src: url(&quot;https://excalidraw.com/Assistant-Regular.woff2&quot;);
      }
    </style><style
       class="style-fonts"
       id="style1-93">
      @font-face {
        font-family: &quot;Virgil&quot;;
        src: url(&quot;https://excalidraw.com/Virgil.woff2&quot;);
      }
      @font-face {
        font-family: &quot;Cascadia&quot;;
        src: url(&quot;https://excalidraw.com/Cascadia.woff2&quot;);
      }
      @font-face {
        font-family: &quot;Assistant&quot;;
        src: url(&quot;https://excalidraw.com/Assistant-Regular.woff2&quot;);
      }
    </style></defs><g
     inkscape:label="Layer 1"
     inkscape:groupmode="layer"
     id="layer1"
     transform="translate(-113.8183,-53.499788)"><!-- svg-source:excalidraw --><mask
       id="mask4" /><mask
       id="mask6" /><mask
       id="mask8" /><mask
       id="mask10" /><mask
       id="mask12" /><mask
       id="mask14" /><mask
       id="mask17" /><path
       style="fill:#ff6837;stroke:none;stroke-width:0.265931"
       d="m 131.79854,53.501317 c -0.527,0.034 -0.59314,0.62725 -0.32135,0.97653 1.00125,1.28671 1.88585,2.74498 2.28228,4.36868 0.18289,0.74912 0.27871,1.62352 -0.12846,2.32164 -0.42436,0.7276 -1.22342,0.65088 -1.7461,1.20944 -0.31102,0.33237 -0.25884,0.8923 0.26543,0.9496 0.97012,0.10602 2.02789,-0.87471 2.39998,-1.66624 0.94943,-2.01964 -0.0276,-4.18928 -0.90703,-6.05104 -0.29978,-0.63466 -0.96807,-2.1652 -1.84475,-2.10861 m 33.77456,0.0448 c -0.48048,0.14251 -0.37705,0.68685 -0.11433,0.98831 1.17586,1.34929 2.78192,4.02801 2.36344,5.93041 -0.11773,0.53522 -0.41543,1.09926 -0.91366,1.36721 -0.4166,0.22404 -0.9215,0.2365 -1.20602,0.67983 -0.2595,0.40435 0.0399,0.84892 0.50247,0.82169 0.37056,-0.0218 0.72795,-0.22942 1.05541,-0.38519 2.82754,-1.34505 1.29068,-5.16277 0.3733,-7.19772 -0.3013,-0.66836 -1.07465,-2.49697 -2.06061,-2.20454 m -43.41407,0.0598 c -0.88642,0.19191 -1.48208,1.09692 -1.8448,1.86326 -1.14195,2.41266 -0.63929,4.24801 1.21182,6.12141 0.53757,0.54403 1.0911,1.01046 1.68839,1.48393 0.22524,0.17855 0.51821,0.43123 0.82827,0.2929 0.62886,-0.28056 -0.0275,-1.27893 -0.33851,-1.52291 -1.94097,-1.52283 -3.84918,-3.45392 -2.43782,-6.02352 0.25211,-0.459 0.59311,-0.96377 0.96936,-1.32948 0.17689,-0.17193 0.57503,-0.29189 0.67424,-0.51891 0.18494,-0.42322 -0.52932,-0.41466 -0.75095,-0.36668 m 21.67118,8e-4 c -0.92409,0.2129 -1.5503,1.19076 -1.89969,2.00322 -0.2405,0.55923 -0.51159,1.15397 -0.61045,1.75903 -0.27701,1.69539 0.76452,3.08029 1.87792,4.22165 0.53191,0.54528 1.08935,1.00498 1.68763,1.47188 0.22343,0.17437 0.52782,0.43143 0.83391,0.3042 0.67763,-0.28167 -0.0996,-1.34985 -0.41201,-1.58014 -1.93192,-1.42429 -3.70819,-3.43198 -2.39977,-5.89517 0.25662,-0.48311 0.6116,-1.01202 1.00503,-1.39398 0.19026,-0.18471 0.5629,-0.2822 0.68532,-0.52043 0.22443,-0.43673 -0.5446,-0.42171 -0.76789,-0.37026 m -17.16726,1.28284 c -0.89235,0.13847 -0.0884,1.62928 -0.5358,2.07565 -0.45521,0.45419 -1.40366,0.0885 -1.92456,0.44594 -0.30735,0.21088 -0.44679,0.61355 -0.23231,0.93978 0.39084,0.59447 1.04143,0.18913 1.56608,0.0566 0.23051,-0.0583 0.61882,-0.1513 0.7579,0.10608 0.16499,0.30535 0.0864,0.77228 0.0864,1.10694 0,0.92805 -0.0948,2.26516 0.35386,3.09588 0.26999,0.49994 0.64058,0.92087 1.26444,0.79547 1.02812,-0.20666 2.89551,-1.19725 2.3294,-2.55037 -0.12451,-0.2976 -0.51383,-0.3692 -0.732,-0.12248 -0.18005,0.20362 -0.17738,0.51318 -0.28964,0.75155 -0.26411,0.56079 -1.25495,1.08621 -1.64724,0.35056 -0.41581,-0.77976 -0.14206,-1.96369 -0.25327,-2.81314 -0.0413,-0.31557 -0.0947,-0.83103 0.14241,-1.08962 0.40481,-0.44144 1.71136,-0.43561 2.27967,-0.56061 0.28895,-0.0635 0.6529,-0.29693 0.42021,-0.64123 -0.54222,-0.80227 -2.08328,0.2579 -2.71156,-0.17313 -0.45336,-0.31103 0.0934,-1.92396 -0.87403,-1.77384 m 31.80235,6.6307 c 0,-0.27988 -0.0984,-0.8022 0.11282,-1.0211 0.18781,-0.1946 0.62306,-0.10703 0.87223,-0.22292 0.9813,-0.45638 2.07751,-0.89023 3.16624,-0.99558 0.43978,-0.0426 1.77211,0.36674 1.87326,-0.22439 0.11399,-0.66617 -0.86957,-0.76917 -1.31037,-0.77228 -1.18684,-0.008 -2.22657,0.54214 -3.37732,0.62657 -0.26035,0.0191 -0.95206,0.13778 -1.08332,-0.14757 -0.26088,-0.56712 0.10069,-1.29246 0.59079,-1.54989 0.93665,-0.49198 2.03921,-0.75148 3.09588,-0.68537 0.39877,0.0249 0.72174,0.49206 1.11535,0.39535 0.2869,-0.0705 0.2461,-0.52544 0.21109,-0.75025 -0.0886,-0.56885 -0.70763,-0.69508 -1.18572,-0.75383 -1.21843,-0.14972 -2.28649,0.55345 -3.44768,0.74362 -0.42625,0.0698 -1.44308,-0.17943 -1.59594,0.3694 -0.15722,0.5645 0.17147,1.06693 0.18763,1.61092 0.0323,1.08768 -0.17125,2.2267 -0.30045,3.30696 -0.049,0.41 -0.19571,1.13887 0.24622,1.39436 0.39316,0.2273 1.24156,0.12132 1.67362,0.0427 1.17948,-0.21455 2.32447,-0.42991 3.51805,-0.57266 0.35764,-0.0428 1.47196,0.0647 1.5095,-0.44252 0.04,-0.54105 -1.01629,-0.55295 -1.36878,-0.56159 -1.50758,-0.0369 -2.99688,0.21005 -4.5031,0.21005 m -9.49873,-0.56288 c -0.20504,-0.71725 -0.55717,-1.38934 -0.76404,-2.11083 -0.14041,-0.48974 -0.25602,-0.98132 -0.3701,-1.47758 -0.10272,-0.44685 -0.12518,-0.9926 -0.49741,-1.31449 -0.42813,-0.37024 -1.02936,-0.053 -1.0964,0.47015 -0.0641,0.49981 0.37375,0.94809 0.51608,1.40723 0.39688,1.28028 0.74203,2.55221 1.24087,3.79949 0.17018,0.4255 0.24633,1.32309 0.761,1.45521 0.84153,0.21602 1.00905,-0.75524 1.22768,-1.31449 0.57297,-1.46563 1.29718,-2.92854 1.95371,-4.36238 0.21031,-0.4593 0.90968,-1.06184 0.93142,-1.54762 0.021,-0.46924 -0.6252,-0.54285 -0.94662,-0.40636 -0.54851,0.23291 -0.67717,0.96201 -0.87696,1.46145 -0.39237,0.98089 -0.86731,1.95056 -1.36021,2.8848 -0.18976,0.35969 -0.34987,0.86232 -0.71902,1.05542 m -10.62451,-0.0704 c 0.56494,0.0246 1.16681,0.5016 1.68758,0.45897 0.62658,-0.0513 0.41044,-0.79381 0.0701,-1.04733 -0.3206,-0.2388 -0.7053,-0.30732 -0.9837,-0.60778 0.598,0.005 1.85522,-0.47715 0.96899,-1.23029 -0.56124,-0.47694 -1.2365,0.28273 -1.80919,0.17612 -0.50241,-0.0935 -0.15002,-0.8694 -0.35789,-1.1666 -0.1692,-0.24192 -0.45195,-0.0996 -0.55078,0.1176 -0.17311,0.38042 -0.027,1.21612 -0.34382,1.49049 -0.44549,0.38586 -1.55691,-0.87553 -1.81972,0.2619 -0.0265,0.11455 -0.0256,0.23434 -0.0155,0.35078 0.0142,0.16488 0.0501,0.3317 0.0883,0.49252 0.0987,0.41551 0.34267,0.77204 0.81414,0.69949 0.26887,-0.0414 0.64323,-0.28102 0.87501,-0.0411 0.35467,0.36721 0.16004,1.0375 0.44345,1.44827 0.76027,1.10195 0.93309,-1.00978 0.93309,-1.40309 m -20.8972,1.68866 c -0.069,0.87403 -0.25601,1.73405 -0.35534,2.60335 -0.0408,0.35677 -0.0913,0.86691 -0.42623,1.08023 -0.16991,0.1082 -0.33194,0.0526 -0.48493,-0.0556 -0.3901,-0.27609 -1.65593,-1.65415 -1.8834,-0.32069 -0.13988,0.81997 2.01343,2.33938 2.72496,1.84996 0.73082,-0.50268 0.83233,-1.47237 0.92838,-2.2724 0.13753,-1.14567 0.3815,-2.37516 0.81631,-3.44769 0.1986,-0.48986 0.9183,-1.40404 0.46718,-1.94063 -0.20959,-0.24929 -0.61531,-0.2764 -0.8572,-0.0693 -0.28977,0.24813 -0.29419,0.66505 -0.52717,0.95421 -0.5389,0.66888 -2.25957,1.20558 -2.72654,0.14095 -0.11165,-0.25457 0.11839,-0.46647 0.28465,-0.63038 0.30042,-0.29616 0.68767,-0.54815 1.12464,-0.55284 0.28256,-0.003 0.77059,0.24852 1.00318,0.0148 0.24338,-0.24459 0.0581,-0.64971 -0.16651,-0.82631 -0.40229,-0.31629 -0.99578,-0.35226 -1.46992,-0.22227 -1.62026,0.44424 -3.06933,2.42217 -1.19614,3.58467 0.72209,0.44813 1.95987,0.31288 2.74408,0.10999 m 35.67301,-3.40282 c -0.63183,0.18269 -0.92223,0.92855 -0.14046,1.14712 0.66612,0.18622 1.3669,-0.14876 2.0402,-0.13552 0.36126,0.007 0.77581,0.18172 1.12578,0.0504 0.46571,-0.1747 0.78905,-0.82263 0.13963,-1.00606 -0.60997,-0.1723 -1.27977,-0.0166 -1.89866,-0.0315 -0.41869,-0.0101 -0.8513,-0.14448 -1.26649,-0.0244 z"
       id="path43" /><!-- svg-source:excalidraw --><mask
       id="mask4-9" /><mask
       id="mask6-8" /><mask
       id="mask8-7" /><mask
       id="mask10-2" /><mask
       id="mask12-8" /><mask
       id="mask16" /><!-- svg-source:excalidraw --><mask
       id="mask4-2" /><mask
       id="mask8-9" /><mask
       id="mask10-5" /><mask
       id="mask12-4" /><mask
       id="mask14-2" /><mask
       id="mask16-0" /><mask
       id="mask18" /><mask
       id="mask20" /><mask
       id="mask22" /><mask
       id="mask24" /><!-- svg-source:excalidraw --><mask
       id="mask2" /><mask
       id="mask4-1" /><mask
       id="mask6-4" /><mask
       id="mask10-50" /><mask
       id="mask14-7" /><!-- svg-source:excalidraw --><mask
       id="mask2-8" /><mask
       id="mask6-83" /><mask
       id="mask8-4" /><mask
       id="mask10-0" /><mask
       id="mask14-3" /><!-- svg-source:excalidraw --><mask
       id="mask2-0" /><mask
       id="mask6-9" /><mask
       id="mask8-3" /><mask
       id="mask10-9" /><mask
       id="mask12-2" /><mask
       id="mask14-9" /><mask
       id="mask16-3" /><mask
       id="mask18-8" /><mask
       id="mask20-7" /><mask
       id="mask22-3" /><mask
       id="mask24-2" /><mask
       id="mask26" /><mask
       id="mask28" /><mask
       id="mask32" /><!-- svg-source:excalidraw --><mask
       id="mask4-8" /><mask
       id="mask6-0" /><mask
       id="mask8-2" /><mask
       id="mask10-07" /><mask
       id="mask12-3" /><mask
       id="mask14-4" /><mask
       id="mask16-2" /><mask
       id="mask18-9" /><mask
       id="mask20-0" /><mask
       id="mask22-8" /><mask
       id="mask24-6" /><mask
       id="mask26-7" /><mask
       id="mask30" /><mask
       id="mask32-9" /><mask
       id="mask34" /><mask
       id="mask36" /><mask
       id="mask38" /><mask
       id="mask40" /><mask
       id="mask42" /><mask
       id="mask44" /><mask
       id="mask46" /><mask
       id="mask48" /><mask
       id="mask50" /><mask
       id="mask52" /><mask
       id="mask54" /><mask
       id="mask56" /><mask
       id="mask58" /><mask
       id="mask60" /><mask
       id="mask62" /><mask
       id="mask64" /><!-- svg-source:excalidraw --><mask
       id="mask4-7" /><mask
       id="mask6-43" /><!-- svg-source:excalidraw --><mask
       id="mask4-71" /><mask
       id="mask6-40" /><mask
       id="mask8-6" /><!-- svg-source:excalidraw --><mask
       id="mask4-6" /><mask
       id="mask6-49" /><mask
       id="mask8-0" /><mask
       id="mask10-1" /><mask
       id="mask12-5" /><mask
       id="mask14-38" /><mask
       id="mask16-03" /><!-- svg-source:excalidraw --><mask
       id="mask4-0" /><mask
       id="mask6-1" /><mask
       id="mask8-41" /><mask
       id="mask12-9" /><!-- svg-source:excalidraw --><mask
       id="mask4-91" /><mask
       id="mask6-03" /><mask
       id="mask10-7" /><!-- svg-source:excalidraw --><mask
       id="mask6-5" /><mask
       id="mask10-93" /><mask
       id="mask14-1" /><mask
       id="mask18-0" /><!-- svg-source:excalidraw --><mask
       id="mask10-3" /><mask
       id="mask14-21" /><mask
       id="mask18-89" /><mask
       id="mask22-82" /><!-- svg-source:excalidraw --><mask
       id="mask8-03" /><mask
       id="mask12-7" /><mask
       id="mask16-8" /><!-- svg-source:excalidraw --><mask
       id="mask4-3" /><mask
       id="mask8-75" /><mask
       id="mask10-8" /><mask
       id="mask12-1" /><!-- svg-source:excalidraw --><mask
       id="mask2-03" /><mask
       id="mask6-6" /><mask
       id="mask10-74" /><mask
       id="mask12-6" /></g></svg>
