<?xml version="1.0" encoding="UTF-8" standalone="no"?>
<!-- Created with Inkscape (http://www.inkscape.org/) -->

<svg
   version="1.1"
   id="svg11678"
   width="256"
   height="256"
   viewBox="0 0 256 256"
   sodipodi:docname="connect_orange128.svg"
   inkscape:version="1.2 (1:1.2.1+202207142221+cd75a1ee6d)"
   xmlns:inkscape="http://www.inkscape.org/namespaces/inkscape"
   xmlns:sodipodi="http://sodipodi.sourceforge.net/DTD/sodipodi-0.dtd"
   xmlns="http://www.w3.org/2000/svg"
   xmlns:svg="http://www.w3.org/2000/svg">
  <defs
     id="defs11682" />
  <sodipodi:namedview
     id="namedview11680"
     pagecolor="#ffffff"
     bordercolor="#666666"
     borderopacity="1.0"
     inkscape:showpageshadow="2"
     inkscape:pageopacity="0.0"
     inkscape:pagecheckerboard="0"
     inkscape:deskcolor="#d1d1d1"
     showgrid="false"
     inkscape:zoom="3.3203125"
     inkscape:cx="77.703529"
     inkscape:cy="128.15059"
     inkscape:window-width="1848"
     inkscape:window-height="1016"
     inkscape:window-x="72"
     inkscape:window-y="27"
     inkscape:window-maximized="1"
     inkscape:current-layer="g11684" />
  <g
     inkscape:groupmode="layer"
     inkscape:label="Image"
     id="g11684">
    <g
       id="g11688"
       transform="translate(-2.2712509,-1.4232996)">
      <path
         style="fill:#fed9cc;stroke-width:2"
         d="M 106.13363,249.16102 C 102.5217,244.8089 105.26132,242 113.11803,242 117.81725,242 120,241.07414 120,239.08088 c 0,-2.27598 -3.63519,-3.04708 -16.5,-3.5 L 87,235 v -28 -28 l 16.5,-0.58088 16.5,-0.58089 V 166.91912 156 l -13.5,0.001 c -12.596036,0.001 -14.671806,0.68147 -31,10.15819 -16.640908,9.65821 -20.93775,14.6468 -14.683114,17.04693 5.229526,2.00676 7.865678,11.82479 4.859214,18.09756 -5.402938,11.27286 -21.427366,10.87098 -25.806572,-0.6472 -2.323964,-6.11249 0.574658,-15.63186 5.313586,-17.45036 C 52.104456,180.55051 47.116028,178 35,178 c -12.116028,0 -17.104456,2.55051 -10.183114,5.20648 4.738928,1.8185 7.63755,11.33787 5.313586,17.45036 C 25.820486,211.99296 9.7417946,212.6081 4.483978,201.63804 1.7102283,195.8508 3.8193474,187.13399 8.954196,183.16299 10.492512,181.97335 12.032129,178.3 12.375567,175 c 0.573681,-5.51234 1.315287,-6.04998 9.124433,-6.615 8.342068,-0.60356 11.243166,-3.45789 5.683114,-5.59148 -4.738928,-1.8185 -7.637549,-11.33787 -5.313586,-17.45036 4.379206,-11.51818 20.403634,-11.92006 25.806572,-0.64721 3.006464,6.27278 0.370312,16.09081 -4.859214,18.09757 C 37.717792,164.75023 39.878648,168 46.278802,168 c 3.5123,0 10.782364,-2.74905 16.5,-6.23918 13.104742,-7.99934 12.651674,-7.38227 7.876168,-10.72717 -11.14241,-7.80445 -10.85684,-25.2789 0.566998,-34.69539 l 7.072188,-5.8295 -12.972048,-7.25438 C 52.848914,96.278974 51.58959,96 32.57503,96 19.861118,96 11.943026,95.143026 10.4,93.6 8.8430692,92.04307 8,83.941606 8,70.53723 8,54.015306 8.6012038,49.643758 11,48.723252 c 1.726204,-0.662406 3,-3.650116 3,-7.03655 0,-7.351268 4.817786,-16.913266 9.889218,-19.627414 4.951306,-2.649858 17.270258,-2.649858 22.221564,0 C 51.182214,24.773436 56,34.335434 56,41.686702 c 0,3.386434 1.273796,6.374144 3,7.03655 2.388752,0.91665 3,5.209078 3,21.067198 v 19.915988 l 11.273088,6.449808 c 10.14564,5.804744 11.91006,6.219474 17.641996,4.146784 C 94.417984,99.036362 98.581678,98 100.16774,98 c 1.58606,0 3.77216,-2.016798 4.858,-4.481774 1.08584,-2.464976 4.86459,-6.289976 8.39722,-8.5 6.31884,-3.953088 6.42421,-4.269494 6.5,-19.518226 L 120,50 h -9.55499 C 105.03394,50 98.962264,48.649744 96.445012,46.886592 92.48082,44.109964 92,42.040498 92,27.75511 92,3.3300124 91.10677,4 123.67037,4 142.41564,4 151.96581,4.7658102 153.6,6.4 155.09651,7.896511 156,15.308894 156,26.090024 156,46.85448 153.80859,50 139.34252,50 H 130 v 14.783184 c 0,13.975352 0.2648,14.849646 4.84586,15.999416 7.8203,1.962772 16.90647,10.926672 19.35305,19.092634 l 2.27116,7.580456 8.76497,-4.89884 c 9.18891,-5.135778 10.08073,-6.441076 6.7063,-9.815512 -1.2707,-1.270702 -1.84483,-12.715004 -1.5,-29.9 L 171,35 209.99398,34.455084 c 34.89984,-0.487702 39.25712,-0.18508 41.5,2.88226 C 253.16062,39.61659 254,48.526194 254,63.937246 254,96.630364 254.61816,96 222.55812,96 h -25.21506 l -16.3841,9.19652 -16.38411,9.19651 4.71258,4.71258 c 5.68188,5.68188 6.46622,19.50068 1.50857,26.57871 -1.7622,2.51589 -2.8872,4.8079 -2.5,5.09334 0.3872,0.28544 5.61801,3.48522 11.62402,7.11062 7.49352,4.5233 11.18045,5.81032 11.75,4.10167 0.45649,-1.36947 2.51748,-4.17745 4.57998,-6.23995 3.08156,-3.08156 6.79646,-3.75 20.8409,-3.75 15.47924,0 17.55384,0.46293 22,4.90909 C 243.98444,161.80263 244,161.94837 244,202.9091 244,253.88762 245.02626,252 217.30998,252 191.18473,252 192,253.337 192,210.49282 V 176.30061 L 174.26265,166.1503 C 157.84207,156.75353 155.54073,156 143.26265,156 H 130 v 10.91912 10.91911 l 16.5,0.58089 L 163,179 v 28 28 l -16.5,0.58088 c -12.86481,0.45292 -16.5,1.22402 -16.5,3.5 0,2.01364 2.21448,2.91912 7.1391,2.91912 6.25955,0 7.06036,0.55442 6.5,4.5 -0.59866,4.21524 -1.72717,4.53628 -17.83329,5.0734 -13.32913,0.44452 -17.75121,-0.0978 -19.67218,-2.41238 z m 125.66649,-7.92018 c 1.58628,-1.91136 2.12244,-14.35596 1.7449,-40.5 L 233,163 219.31998,162.40452 c -8.36376,-0.36407 -14.77592,0.31402 -16.5,1.74489 -4.37794,3.63336 -4.08892,72.29593 0.32288,76.70773 4.08896,4.08898 25.34596,4.37358 28.65726,0.3837 z M 210.7994,236.46938 C 208.14264,234.6954 204,227.12298 204,224.04058 204,220.28992 213.5764,212 217.9091,212 c 10.14886,0 16.0278,15.8172 8.43342,22.69002 -3.79136,3.43112 -11.71146,4.33782 -15.54312,1.77936 z M 220,225 c 0,-1.65 -0.84688,-3 -1.88196,-3 -2.52196,0 -4.3282,3.12318 -2.73034,4.72104 C 217.64008,228.9734 220,228.09282 220,225 Z m -15.05414,-35.08761 c -2.96958,-4.80487 3.56266,-8.09984 14.87394,-7.50266 9.85884,0.52051 11.25574,1.12211 11.8193,5.09027 0.60662,4.27132 -0.0226,4.5 -12.38196,4.5 -7.1616,0 -13.60166,-0.93942 -14.31128,-2.08761 z m 0,-16 c -2.96958,-4.80487 3.56266,-8.09984 14.87394,-7.50266 9.85884,0.52051 11.25574,1.12211 11.8193,5.09027 0.60662,4.27132 -0.0226,4.5 -12.38196,4.5 -7.1616,0 -13.60166,-0.93942 -14.31128,-2.08761 z M 154,207 V 188 H 125 96 v 19 19 h 29 29 z M 21.054146,197.91239 c 0.709618,-1.14819 0.19332,-3.40928 -1.147324,-5.02466 -2.985543,-3.59736 -8.273958,-0.17162 -6.573963,4.2585 1.277702,3.32963 5.856193,3.78395 7.721287,0.76616 z m 35.612994,-0.76616 c 1.699996,-4.43012 -3.588418,-7.85586 -6.573962,-4.2585 -1.340646,1.61538 -1.856942,3.87647 -1.147324,5.02466 1.865094,3.01779 6.443586,2.56347 7.721286,-0.76616 z m -18,-48.29246 C 38.064838,147.2842 36.414624,146 35,146 c -3.541578,0 -5.167864,5.03214 -2.491298,7.7087 2.883898,2.8839 7.677864,-0.89537 6.158438,-4.85493 z m 119.57716,-4.98451 c 5.37454,-2.87637 7.69115,-9.82221 5.14203,-15.41721 -1.93469,-4.24639 -4.27671,-5.37011 -14.38633,-6.9027 -3.42067,-0.51856 -4.0032,-2.15082 -4.02211,-11.27005 -0.019,-9.17997 -0.79979,-11.332608 -5.61153,-15.471484 -9.98512,-8.588846 -21.01275,-5.597644 -27.2435,7.389694 -2.72547,5.68095 -4.19511,6.70187 -8.91385,6.1922 C 97.223526,107.74322 90,112.64873 90,117.35998 c 0,1.50701 -2.732288,3.28648 -6.07175,3.95437 C 72.935842,123.51283 68.662482,134.66248 76,142 c 3.712732,3.71273 6.666666,4 41.13148,4 22.44857,0 38.70582,-0.84256 41.11282,-2.13074 z M 52,71 V 56 H 35 18 V 71 86 H 35 52 Z M 192,64 V 42 h -6 c -5.84385,0 -6,0.253038 -6,9.722656 0,9.379582 0.18256,9.687756 5.17401,8.73358 4.5189,-0.86384 5.08868,-0.385562 4.5,3.777344 C 189.22032,67.441996 187.69252,69 185,69 c -2.78329,0 -4.39951,1.771134 -5.3134,5.822698 C 177.83049,83.05138 179.55244,86 186.21398,86 H 192 Z m 52,0 V 42 h -21 -21 v 22 22 h 21 21 z M 45.969374,41.5 C 45.910546,32.856096 37.849712,26.895462 31.051646,30.468992 25.80506,33.226958 24.06836,35.95556 24.030626,41.5 24.002552,45.624924 24.916852,46 35,46 45.083148,46 45.997448,45.624924 45.969374,41.5 Z M 146,30 c 0,-5.5 -0.51284,-10 -1.13965,-10 -0.62681,0 -5.06396,2.7 -9.86035,6 -4.79639,3.3 -9.68146,6 -10.85572,6 -1.17426,0 -6.6371,-3.234424 -12.13965,-7.18761 L 102,17.624779 V 28.81239 40 h 22 22 z M 131.45426,16 136.53943,12 123.76972,12.01318 111,12.026357 117,16 c 7.44965,4.933706 8.18207,4.933706 14.45426,0 z"
         id="path11696" />
      <path
         style="fill:#feb299;stroke-width:2"
         d="M 106.13363,249.16102 C 102.5217,244.8089 105.26132,242 113.11803,242 117.81725,242 120,241.07414 120,239.08088 c 0,-2.27598 -3.63519,-3.04708 -16.5,-3.5 L 87,235 86.43955,208.1554 c -0.42034,-20.13359 0.07966,-27.2508 2,-28.46938 1.408248,-0.89362 9.08545,-1.63855 17.06045,-1.65539 L 120,178 v -11 -11 h -14.09319 c -13.119188,0 -15.204052,0.64075 -30.166872,9.2713 -8.84053,5.09921 -16.562458,10.545 -17.159842,12.10176 -0.597382,1.55675 0.940212,4.98743 3.416876,7.62372 6.15062,6.54703 5.80922,14.6561 -0.8585,20.39142 -7.057624,6.07072 -10.237868,5.8201 -17.431688,-1.37372 C 37.132838,197.44053 37.267958,192.49552 44.22987,184.8711 46.303442,182.6002 48,180.1252 48,179.3711 48,178.61699 42.15,178 35,178 c -7.15,0 -13,0.61699 -13,1.3711 0,0.7541 1.696558,3.2291 3.77013,5.5 6.961912,7.62442 7.097032,12.56943 0.523086,19.14338 -7.193821,7.19382 -10.374064,7.44444 -17.4316886,1.37372 C 2.3458292,199.78364 1.8246892,191.59035 7.5898466,185.39502 9.8392624,182.97776 11.976762,178.3 12.339847,175 c 0.605757,-5.50561 1.360539,-6.05067 9.160153,-6.615 4.675,-0.33824 8.5,-1.18024 8.5,-1.87109 0,-0.69086 -1.9125,-3.29187 -4.25,-5.78002 -5.915491,-6.29675 -5.464236,-14.46586 1.111528,-20.1221 7.057624,-6.07071 10.237868,-5.82009 17.431688,1.37373 6.573946,6.57395 6.438826,11.51896 -0.523086,19.14338 -2.073572,2.2709 -3.77013,4.7459 -3.77013,5.5 0,3.64835 14.223746,0.54787 24.478556,-5.33581 l 11.478554,-6.58582 -5.95365,-5.70395 C 58.91488,138.37978 60.736082,122.51705 73.939826,114.7174 l 5.960306,-3.52084 -13.097362,-7.59828 C 54.071812,96.212566 53.15869,96 34.16268,96 8.7451946,96 8,95.27617 8,70.587408 8,57.701722 8.7892772,51.834736 10.740637,50.215252 c 1.50735,-1.25099 3.251781,-6.08619 3.876512,-10.74489 C 17.993856,14.289844 51.571842,13.902007 55.340032,39 c 0.660612,4.4 2.39301,9.380706 3.849774,11.068236 1.68571,1.952744 2.859808,9.90573 3.229428,21.87518 L 63,90.750358 74.311786,97.35422 c 10.706062,6.25024 11.616378,6.445 17,3.63714 3.128518,-1.631694 7.111132,-2.972262 8.850254,-2.979038 1.73912,-0.0068 4.4073,-2.339104 5.92928,-5.18295 1.52198,-2.843844 5.27406,-6.466956 8.33796,-8.05136 C 119.81702,81.991902 120,81.373414 120,65.94864 V 50 H 110 C 94.978016,50 92,46.080596 92,26.309976 92,4.257932 92.38831,4 125.58711,4 156.71534,4 156,3.4412608 156,27.75511 156,42.040498 155.51918,44.109964 151.55499,46.886592 149.11023,48.598966 143.26023,50 138.55499,50 H 130 v 14.844896 14.844896 l 7.02208,2.317494 c 7.70238,2.542016 15.70177,11.822384 17.79012,20.638924 l 1.3374,5.64621 9.4252,-5.43889 c 12.1534,-7.013224 11.9863,-6.820886 7.90854,-9.102916 C 170.44556,92.050586 170,88.411514 170,65.30062 170,47.355694 170.77484,38.025162 172.4,36.4 174.09126,34.70874 185.5748,34 211.2866,34 256.20438,34 254,32.400134 254,65 c 0,31.57705 0.5995,31 -32.2066,31 h -25.97977 l -15.92735,9.18689 -15.92735,9.18688 5.02054,5.96657 c 5.77348,6.86139 6.76043,18.59479 2.08414,24.7774 -1.61502,2.13524 -2.96502,4.47135 -3,5.19134 -0.035,0.72 4.83722,4.07494 10.82712,7.45543 l 10.89072,6.14635 5.95543,-5.95543 C 201.3665,152.32581 202.58102,152 217.93706,152 c 14.58086,0 16.74758,0.50282 21.15384,4.90909 4.88338,4.88338 4.9091,5.11766 4.9091,44.73029 0,37.25762 -0.26686,40.16044 -4.14516,45.0909 C 235.9419,251.70478 234.73086,252 218.2371,252 192.21433,252 193.20306,253.55382 192,210.76762 l -1,-35.56438 -16.6697,-9.60162 C 158.81604,156.66552 156.70198,156 143.8303,156 H 130 v 11 11 h 14.6 c 8.68889,0 15.57169,0.97169 17,2.4 3.31783,3.31783 3.31783,49.88218 0,53.2 -1.42831,1.42832 -8.31111,2.4 -17,2.4 -11.35827,0 -14.6,0.63798 -14.6,2.87328 0,1.77976 2.47379,3.1118 6.5,3.5 4.95776,0.47802 6.5,1.5758 6.5,4.62672 0,3.64536 -1.52447,4.05084 -17.19419,4.5734 -13.32913,0.44452 -17.75121,-0.0978 -19.67218,-2.41238 z m 125.41079,-6.83714 c 1.94804,-1.23636 2.41682,-10.72204 2,-40.46938 L 233,163 218.17622,162.40585 c -10.50758,-0.42116 -15.30292,0.16118 -16.46936,2 -2.72821,4.30078 -2.09875,74.40227 0.69314,77.19415 2.68954,2.68954 25.1676,3.24784 29.14442,0.72388 z m -23.39926,-9.5936 c -5.37054,-6.82752 -5.22548,-9.83178 0.76394,-15.82118 5.9894,-5.98942 8.99366,-6.13448 15.82118,-0.76394 6.33286,4.98142 6.8514,12.27316 1.26972,17.85484 -5.58168,5.58168 -12.87342,5.06314 -17.85484,-1.26972 z M 220,225 c 0,-1.65 -1.35,-3 -3,-3 -1.65,0 -3,1.35 -3,3 0,1.65 1.35,3 3,3 1.65,0 3,-1.35 3,-3 z m -15.05414,-35.08761 c -2.58514,-4.18285 3.47156,-7.91263 12.79902,-7.88176 10.80952,0.0358 15.32996,2.28364 13.60932,6.76752 -0.93678,2.44124 -4.06616,3.20185 -13.1734,3.20185 -6.5696,0 -12.52532,-0.93942 -13.23494,-2.08761 z m 0,-16 c -2.58514,-4.18285 3.47156,-7.91263 12.79902,-7.88176 10.80952,0.0358 15.32996,2.28364 13.60932,6.76752 -0.93678,2.44124 -4.06616,3.20185 -13.1734,3.20185 -6.5696,0 -12.52532,-0.93942 -13.23494,-2.08761 z M 154,207 V 188 H 125 96 v 19 19 h 29 29 z M 21.575218,195.72869 c 0.731172,-3.79668 -3.815034,-6.05261 -7.54802,-3.7455 -3.63009,2.24352 -0.826732,8.46409 3.443787,7.64166 1.915694,-0.36893 3.762599,-2.1222 4.104233,-3.89616 z m 36,0 c 0.731172,-3.79668 -3.815034,-6.05261 -7.54802,-3.7455 -3.63009,2.24352 -0.826732,8.46409 3.443786,7.64166 1.915696,-0.36893 3.7626,-2.1222 4.104234,-3.89616 z M 39.624846,151.47098 C 40.42082,147.33782 34.647218,144.55278 31.6,147.6 c -3.047218,3.04722 -0.262176,8.82082 3.870984,8.02485 1.915696,-0.36893 3.784934,-2.23817 4.153862,-4.15387 z m 119.575744,-7.00161 c 5.17795,-3.4574 7.06579,-10.36833 4.37277,-16.00758 -2.03094,-4.25283 -4.37521,-5.68314 -10.59082,-6.46179 -7.92085,-0.99227 -7.97856,-1.06182 -7.46707,-9 0.6663,-10.34085 -2.52331,-17.905882 -8.74475,-20.74056 -11.04048,-5.03038 -20.7688,-0.922232 -25.6863,10.847 -2.53708,6.07208 -3.5063,6.70918 -8.64358,5.68173 C 96.381874,107.57637 90,111.75092 90,116.92604 c 0,1.45218 -2.475,3.25801 -5.5,4.01297 C 72.38889,123.96158 68.240446,134.24045 76,142 c 3.725284,3.72528 6.644146,3.9979 42.5,3.96937 21.175,-0.0168 39.49027,-0.69184 40.70059,-1.5 z M 52,71 V 56 H 35 18 V 71 86 H 35 52 Z M 192,64 V 42 h -6 c -5.8514,0 -6,0.243026 -6,9.81276 0,8.808108 0.40704,9.706318 3.9757,8.773094 4.63257,-1.211446 7.78432,4.454128 4.37463,7.863818 -1.5744,1.574402 -2.96445,1.53043 -4.99905,-0.15814 -2.32877,-1.932708 -3.01471,-0.874178 -3.94944,6.094712 C 178.00766,84.780674 178.71279,86 186.11803,86 H 192 Z m 52,0 V 42 h -21 -21 v 22 22 h 21 21 z M 45.626716,39.562392 c -0.43766,-4.495626 -2.216334,-7.325524 -5.896254,-9.381024 -4.719294,-2.636068 -5.8157,-2.585558 -10.5,0.483714 C 25.528654,33.0906 24,35.832296 24,40.046106 24,45.937832 24.116178,46 35.126716,46 H 46.253434 Z M 146,28.97957 V 17.959142 l -11.04043,7.330434 -11.04043,7.330432 -8.45957,-5.97464 C 101.40931,16.722253 102,16.624097 102,28.881966 V 40 h 22 22 z M 130.20201,12.373283 c -3.41111,-0.344694 -9.12701,-0.344694 -12.70201,0 L 111,13 l 6.83322,4.313511 6.83323,4.313511 5.86878,-4.313511 L 136.40402,13 Z"
         id="path11694" />
      <path
         style="fill:#fe8b66;stroke-width:2"
         d="m 196,248 c -3.68705,-3.68704 -4.00342,-6.6992 -4.04368,-38.5 l -0.0437,-34.5 -18.94,-10.59586 c -17.97841,-10.0579 -19.57546,-10.5656 -31.45632,-10 L 129,155 v 12 12 l 16.5,0.58088 16.5,0.58089 V 207 233.83824 l -16.47788,0.58088 c -13.58072,0.47874 -16.59113,1.17374 -17.122,3.95288 -0.49744,2.60416 1.08769,3.515 6.96125,4 5.34288,0.44118 7.80268,1.6692 8.26865,4.128 0.59426,3.1358 -1.32912,3.5 -18.48337,3.5 C 107.33333,250 106,249.72144 106,246 c 0,-3.34534 1.33333,-4 8.14665,-4 6.67925,0 8.02661,-0.63044 7.48024,-3.5 -0.55367,-2.90794 -3.53881,-3.66916 -17.64665,-4.5 L 87,233 v -26 -26 l 16.5,-0.58088 16.5,-0.58089 V 166.91912 154 H 107.62736 C 96.303142,154 93.591534,154.9417 75.627356,165.1131 64.83231,171.22531 56,177.19711 56,178.38376 c 0,1.18666 2.25,4.24279 5,6.7914 C 70.635076,194.10465 65.553264,208 52.652494,208 c -12.371478,0 -16.979312,-14.18104 -7.471088,-22.99296 2.849772,-2.64108 4.596658,-5.74811 3.881966,-6.9045 -1.782778,-2.8846 -26.451844,-2.71005 -28.250284,0.1999 -0.820955,1.32833 0.821398,3.93734 3.881966,6.16681 C 35.250478,192.15833 29.835964,208 16.652494,208 4.416512,208 -0.33532638,193.82685 9,185.17516 c 2.896233,-2.68414 5,-6.85149 5,-9.9045 C 14,170.46805 14.699934,170 21.881966,170 c 10.090354,0 11.829232,-2.95543 5.29944,-9.00704 C 17.372212,151.90211 22.309636,138 35.347506,138 c 12.514376,0 17.542888,16.10397 7.347548,23.53076 C 36.585352,165.98137 37.812618,170 45.281506,170 c 3.809306,0 26.05284,-10.98011 30.308238,-14.96111 0.324358,-0.30344 -2.150642,-3.2921 -5.5,-6.64145 -10.791026,-10.79103 -7.660814,-27.24557 6.739276,-35.42626 3.045096,-1.72992 1.38996,-3.27685 -11.234482,-10.5 C 51.039722,94.143554 50.466944,94 31.794412,94 19.687647,94 11.929725,93.129726 10.4,91.6 8.8832508,90.08325 8,82.468884 8,70.909976 8,55.159934 8.5554904,52.117238 12,49 14.51547,46.723532 16,42.840066 16,38.536178 16,28.85636 25.077968,20 35,20 c 9.922032,0 19,8.85636 19,18.536178 0,4.303888 1.48453,8.187354 4,10.463822 3.471618,3.14177 4,6.159934 4,22.848326 v 19.228376 l 11.940072,6.564088 c 9.560132,5.25571 12.723106,6.14502 15.868518,4.46165 C 91.969234,100.9461 95.54532,100 97.755444,100 c 2.301696,0 5.464166,-2.447468 7.402566,-5.728918 1.86129,-3.150904 5.96217,-7.251786 9.11307,-9.113072 C 119.85677,81.858464 120,81.35166 120,64.886928 V 48 h -9.83643 C 93.990152,48 94,48.01268 94,27.186022 94,15.552449 94.881424,7.9185762 96.4,6.4 98.015264,4.7847362 107.12381,4 124.25714,4 155.82401,4 156,4.120645 156,25.760598 c 0,19.501868 -1.69567,21.903204 -16,22.658546 L 129,49 128.41533,64.530278 c -0.50719,13.472132 -0.10962,15.683634 3,16.68747 11.66967,3.767168 15.44596,6.100106 18.81373,11.62287 2.06579,3.38766 3.75935,8.184382 3.76346,10.659382 0.01,5.72387 1.44731,5.64932 12.7367,-0.66044 C 176.75537,97.235836 179.90454,94 175.33201,94 170.79153,94 170,89.4332 170,63.236426 170,46.896984 170.79524,38.004762 172.4,36.4 c 3.69843,-3.698428 74.31784,-3.354752 77.41472,0.376746 1.55208,1.870154 2.12178,11.501738 1.74488,29.5 L 251,93 l -27,1 -27,1 -16.69336,9.66528 -16.69335,9.66528 4.27255,4.54793 c 6.34633,6.75535 7.46016,17.50987 2.65666,25.65119 l -3.95321,6.70018 12.35327,7.06367 12.35327,7.06366 3.25906,-5.6786 C 197.77417,154.06932 198.0453,154 216.76412,154 c 14.56076,0 19.67814,0.72798 22.09302,3.14286 C 241.51822,159.80393 242,166.83818 242,203.02944 242,254.18018 243.13282,252 216.55498,252 202.66666,252 199.35568,251.35568 196,248 Z m 37.92964,-7.86852 C 235.1271,237.894 236,221.72808 236,201.78896 236,160.86759 235.6379,160 218.55854,160 199.38172,160 200,158.61174 200,201.67036 c 0,26.52306 0.70386,38.2335 2.4,39.92964 1.39364,1.39364 8.07326,2.4 15.92964,2.4 11.32944,0 13.8663,-0.6291 15.6,-3.86852 z M 208.4,233.6 c -2.94844,-2.94844 -3.10752,-10.54094 -0.32964,-15.73148 3.16146,-5.90722 14.91962,-5.26926 19.0494,1.03356 3.33062,5.08316 2.40126,12.74074 -1.88932,15.5673 C 221.70704,236.79052 211.0395,236.2395 208.4,233.6 Z m 12.45994,-9.82662 C 219.15572,221.0159 214,221.68726 214,224.66666 c 0,1.46668 0.5922,3.25886 1.31598,3.98266 1.80866,1.80866 6.90506,-2.67364 5.54396,-4.87594 z M 206,188.09543 C 206,184.38355 207.23122,184 219.14664,184 c 11.44128,0 13.06016,0.45402 12.47992,3.5 -0.53484,2.80765 -3.13542,3.61778 -13.14664,4.09543 -11.43738,0.5457 -12.47992,0.25332 -12.47992,-3.5 z m 0,-16 C 206,168.38355 207.23122,168 219.14664,168 c 11.44128,0 13.06016,0.45402 12.47992,3.5 -0.53484,2.80765 -3.13542,3.61778 -13.14664,4.09543 C 207.04254,176.14113 206,175.84875 206,172.09543 Z M 155.57242,207.5 156.14485,188 H 125.07242 94 v 18.66666 c 0,10.26668 0.623068,19.28974 1.384596,20.05128 0.76153,0.76152 14.486534,1.13652 30.500004,0.83332 L 155,227 Z M 21.624846,195.47098 C 22.42082,191.33782 16.647218,188.55278 13.6,191.6 c -3.047218,3.04722 -0.262177,8.82082 3.870985,8.02485 1.915694,-0.36893 3.784933,-2.23817 4.153861,-4.15387 z m 36,0 C 58.42082,191.33782 52.647218,188.55278 49.6,191.6 c -3.047218,3.04722 -0.262176,8.82082 3.870984,8.02485 1.915696,-0.36893 3.784934,-2.23817 4.153862,-4.15387 z m -18,-44 C 40.42082,147.33782 34.647218,144.55278 31.6,147.6 c -3.047218,3.04722 -0.262176,8.82082 3.870984,8.02485 1.915696,-0.36893 3.784934,-2.23817 4.153862,-4.15387 z M 162,142 c 2.2,-2.2 4,-5.84091 4,-8.09091 C 166,127.69387 157.18675,120 150.06727,120 c -6.02838,0 -6.09625,-0.1144 -4.81635,-8.11846 1.62329,-10.15146 -1.61681,-16.65034 -10.37275,-20.805304 -4.68866,-2.224912 -7.93279,-2.576268 -11.44783,-1.239852 C 118.02659,91.890888 110,101.04583 110,105.15472 c 0,1.64611 -3.1444,2.84319 -8.48506,3.23028 -6.98831,0.50652 -8.947948,1.58519 -11.109136,6.115 -1.443236,3.025 -4.091952,5.5 -5.886034,5.5 C 79.452746,120 72,128.15004 72,133.69115 c 0,2.74664 1.489488,6.63975 3.309976,8.65137 C 78.304802,145.65176 82.398908,146 118.30998,146 155.33333,146 158.26875,145.73125 162,142 Z M 53,71 V 55 H 35 17 l -0.598254,13.80157 c -0.32904,7.590864 -0.118758,15.051118 0.467293,16.578344 0.821417,2.140578 5.082511,2.644266 18.598255,2.198428 L 53,87 Z M 192,65 V 42 h -7 -7 v 21.666666 c 0,11.916668 0.6,22.266668 1.33333,23 C 180.06667,87.4 183.21667,88 186.33333,88 H 192 Z m -10,-1 c 0,-3.012298 1.0443,-4.092182 3.5,-3.619258 1.925,0.37072 3.5,1.999388 3.5,3.619258 0,1.61987 -1.575,3.248538 -3.5,3.619258 C 183.0443,68.092182 182,67.012298 182,64 Z m 62,1 V 42 h -22 -22 v 21.666666 c 0,11.916668 0.6,22.266668 1.33334,23 C 202.06666,87.4 211.96666,88 223.33334,88 H 244 Z M 46.590226,41.25718 C 45.427018,24.955272 27.936498,23.633152 23.107466,39.482102 20.938814,46.599648 23.47299,48.235286 35.676464,47.594542 46.7842,47.01133 46.99219,46.890556 46.590226,41.25718 Z M 148,29 c 0,-6.05 -0.76497,-11 -1.69992,-11 -0.93496,0 -5.42717,2.7 -9.98269,6 -4.55551,3.3 -9.95551,6 -12,6 -2.04448,0 -7.44448,-2.7 -12,-6 -4.55551,-3.3 -9.19055,-6 -10.30007,-6 -2.215424,0 -2.828434,18.522218 -0.68399,20.666666 C 102.06667,39.4 112.86667,40 125.33333,40 H 148 Z M 131.57038,17 138.92854,12 124.96427,12.0099 111,12.0198 l 6,4.91814 c 3.3,2.704977 6.27275,4.950505 6.60611,4.990065 C 123.93947,21.967634 127.52339,19.75 131.57038,17 Z"
         id="path11692" />
      <path
         style="fill:#fe6532;stroke-width:2"
         d="M 196.90909,247.0909 C 192.08577,242.26758 192,241.59356 192,208.5115 V 174.8412 L 173.7876,164.4206 C 156.67411,154.62876 154.74328,154 141.7876,154 H 128 v 13 13 h 17 17 v 27 27 h -17 c -15.49031,0 -17,0.3445 -17,3.87926 0,3.03904 1.62449,4.01372 7.5,4.5 5.05745,0.41858 7.5,1.59776 7.5,3.62074 0,2.41108 -3.66336,3.1133 -18.66151,3.57718 -17.01472,0.52626 -18.60167,0.26152 -17.98337,-3 0.48006,-2.53228 2.86405,-3.7585 8.16151,-4.19792 5.802,-0.48126 7.48337,-1.47482 7.48337,-4.42212 0,-3.40156 -1.84077,-3.8622 -17.5,-4.37928 L 87,233 v -26 -26 l 16.5,-0.58088 16.5,-0.58089 V 166.91912 154 h -13.01575 c -11.996574,0 -14.438936,0.80918 -31.190878,10.33384 -9.996316,5.68361 -18.666882,11.61534 -19.267924,13.18163 -0.604436,1.57513 1.268446,5.03728 4.190874,7.7471 C 63.667752,187.99929 66,192.33318 66,195.08094 66,206.49922 49.464082,212.62184 43.113408,203.55498 38.599756,197.11085 39.285408,190.59488 45,185.6261 53.733484,178.03244 51.622104,176 35,176 c -16.622104,0 -18.733484,2.03244 -10,9.6261 5.714592,4.96878 6.400244,11.48475 1.886592,17.92888 C 20.624968,212.4947 4,206.53356 4,195.34863 4,192.79037 6.25,188.58349 9,186 c 3.045451,-2.86105 5,-6.90643 5,-10.34863 C 14,170.28678 14.456712,170 23,170 c 10.304628,0 11.339302,-2.37332 4,-9.17516 C 20.954144,155.22173 20.54174,147.45826 26,142 c 7.957854,-7.95785 22,-2.15239 22,9.0955 0,2.86617 -2.187544,7.12284 -5,9.72934 -12.2843,11.3847 1.275524,12.54021 20.942674,1.78463 l 13.513978,-7.39052 -6.728326,-6.34563 C 65.27115,143.72654 64,141.0174 64,134.53356 c 0,-9.10376 5.655328,-17.74112 13.591684,-20.75852 4.850412,-1.84412 4.416476,-2.30668 -10.179168,-10.85064 L 52.166954,94 H 32.153844 C 8.1455598,94 8,93.85616 8,70.131482 8,56.666666 8.6612328,53.338768 12,50 14.495726,47.504274 16,43.333334 16,38.90909 16,26.026354 29.961904,17.013657 42.118476,22.049074 49.92807,25.283914 54,31.245696 54,39.445012 c 0,3.950822 1.635914,8.190902 4.117788,10.672776 3.6216,3.6216 4.069782,6.301832 3.719396,22.242856 l -0.398392,18.125068 10.780604,6.711972 C 83.291934,104.09141 88.831922,105.50802 91,102 c 0.679838,-1.1 3.657952,-2.00569 6.618034,-2.012646 3.878306,-0.0092 6.333946,-1.68563 8.789326,-6.000668 1.87405,-3.293414 5.69905,-7.032188 8.5,-8.308386 C 119.80513,83.446728 120,82.681454 120,65.67897 V 48 H 109.4 C 103.57,48 97.72,46.92 96.4,45.6 94.89843,44.09843 94,36.63786 94,25.670368 94,10.386245 94.49555,7.8755252 97.868518,6.0703676 99.996202,4.9316654 112.54517,4 125.75511,4 154.97439,4 156,4.7845104 156,27.135038 156,44.870138 153.35128,48 138.34252,48 H 128 v 17 c 0,16.736012 0.0766,17 4.93041,17 7.52501,0 18.59857,10.851478 20.47674,20.06608 l 1.59285,7.81475 12.68807,-7.16222 c 12.23324,-6.905474 12.52002,-7.245888 8,-9.496036 -4.49775,-2.239068 -4.71073,-3.3586 -5.24632,-27.577084 -0.46418,-20.989328 -0.0188,-25.782716 2.64285,-28.44438 C 175.77867,34.507046 181.90202,34 211.74286,34 c 24.9111,0 36.17098,0.713832 37.85714,2.4 3.32526,3.325262 3.32526,51.874738 0,55.2 -1.60748,1.607486 -10.55404,2.4 -27.09318,2.4 h -24.69319 l -16.40682,9.34477 c -9.02374,5.13962 -16.67629,9.5341 -17.00566,9.76551 -0.32937,0.23142 1.77119,3.90127 4.6679,8.15524 5.91101,8.6806 5.78218,18.26895 -0.33631,25.02979 -2.04827,2.26332 -2.68923,4.46732 -1.58548,5.45188 C 171.97044,156.04953 192,166.04273 192,164.14678 192,162.96605 193.8,160.2 196,158 c 3.39702,-3.39702 6.66666,-4 21.69002,-4 C 243.0601,154 242,151.87818 242,202.65748 242,253.287 242.62836,252 217.9091,252 c -14.41752,0 -16.60144,-0.51052 -21.00001,-4.9091 z M 233.6,241.6 c 1.69112,-1.69112 2.4,-13.16826 2.4,-38.85714 C 236,159.5738 236.1869,160 217.25714,160 c -7.02222,0 -13.50424,1.04709 -14.85714,2.4 -2.59321,2.59321 -3.59186,77.74148 -1.06666,80.26666 2.36952,2.36954 29.73512,1.46488 32.26666,-1.06666 z m -24.45714,-8.74286 c -7.3633,-7.3633 -0.59352,-19.74704 10.11718,-18.50706 3.56858,0.41314 6.68638,2.56972 8.5579,5.91946 2.6369,4.71968 2.5865,5.8153 -0.48302,10.5 -3.974,6.06508 -13.1604,7.11926 -18.19206,2.0876 z m 12.21134,-6.05898 c 1.41492,-3.68722 -3.42192,-7.53044 -6.10304,-4.84932 -2.183,2.183 -0.17948,8.05116 2.74884,8.05116 1.16904,0 2.67844,-1.44084 3.3542,-3.20184 z M 207.4206,190.75392 C 206.63926,189.9726 206,188.09039 206,186.57123 c 0,-2.11836 2.91328,-2.62333 12.5,-2.16666 9.51314,0.45315 12.5,1.31228 12.5,3.59543 0,2.23496 -2.82538,3.14976 -11.0794,3.58726 -6.09368,0.32299 -11.71868,-0.052 -12.5,-0.83334 z m 0,-16 C 206.63926,173.9726 206,172.09039 206,170.57123 c 0,-2.11836 2.91328,-2.62333 12.5,-2.16666 9.51314,0.45315 12.5,1.31228 12.5,3.59543 0,2.23496 -2.82538,3.14976 -11.0794,3.58726 -6.09368,0.32299 -11.71868,-0.052 -12.5,-0.83334 z M 156,208 V 188 H 125 94 v 20 20 h 31 31 z M 21.639102,195.5 C 21.21962,192.54637 19.625451,191 17,191 c -2.625451,0 -4.219619,1.54637 -4.639102,4.5 -0.524257,3.69136 0.309379,4.5 4.639102,4.5 4.329724,0 5.163358,-0.80864 4.639102,-4.5 z m 36,0 C 57.21962,192.54637 55.625452,191 53,191 c -2.625452,0 -4.21962,1.54637 -4.639102,4.5 -0.524256,3.69136 0.309378,4.5 4.639102,4.5 4.329724,0 5.163358,-0.80864 4.639102,-4.5 z m -18,-45.02043 C 40.158854,146.83655 39.31849,146 35.139102,146 31.489064,146 30,147.06242 30,149.66667 c 0,7.75203 8.546266,8.47277 9.639102,0.8129 z m 122.703418,-7.78955 c 8.45856,-7.65489 2.24711,-20.65538 -10.84096,-22.69002 -6.18275,-0.96116 -6.40898,-1.32489 -5.82397,-9.36406 0.78122,-10.73539 -2.26557,-16.250068 -10.99252,-19.896422 -6.31953,-2.640468 -7.70041,-2.576012 -14.33902,0.669316 -5.21688,2.550308 -7.91261,5.517498 -9.30079,10.237396 -1.67039,5.67945 -2.68553,6.50652 -6.97871,5.68583 -6.261684,-1.197 -11.818846,1.64989 -13.829288,7.08463 -0.845412,2.28537 -4.59618,5.15153 -8.335042,6.36926 -8.398932,2.73549 -12.364246,9.73843 -9.612478,16.97613 1.078276,2.83608 3.029198,5.83605 4.33538,6.66659 1.306184,0.83054 20.304012,1.52386 42.217398,1.5407 34.29556,0.0264 40.35172,-0.43019 43.5,-3.27935 z M 53.580884,71.5 53,55 H 35 17 L 16.419115,71.5 15.838231,88 H 35 54.16177 Z M 192,65 V 42 h -7 -7 v 23 23 h 7 7 z m -10,0.11804 c 0,-4.10821 4.1405,-6.126762 6.09164,-2.969756 0.90444,1.463406 1.2007,3.37871 0.65836,4.25623 -1.68085,2.719664 -6.75,1.753542 -6.75,-1.28648 z M 244,65 V 42 h -22 -22 v 23 23 h 22 22 z M 48,44.094106 C 48,27.86125 29.252214,21.793182 24.167162,36.380166 20.31391,47.433614 20.841936,48 35,48 46.562262,48 48,47.568026 48,44.094106 Z M 148,27.929632 C 148,14.460213 148.02238,14.465169 134.11144,24.85504 130.32273,27.684768 125.93022,30 124.3503,30 122.77038,30 117.09315,26.85 111.73423,23 106.37531,19.15 101.54282,16 100.99537,16 100.44792,16 100,21.4 100,28 v 12 h 24 24 z M 131.26393,17.836881 C 134.96877,15.547166 138,13.297166 138,12.836881 138,12.376596 131.5004,12 123.55644,12 h -14.44356 l 6.94356,4.901926 c 3.81896,2.696059 7.28733,4.946058 7.70749,5 0.42016,0.05394 3.79516,-1.77533 7.5,-4.065045 z"
         id="path11690" />
    </g>
  </g>
</svg>
