<?xml version="1.0" encoding="UTF-8" standalone="no"?>
<!-- Created with Inkscape (http://www.inkscape.org/) -->

<svg
   width="38.551731mm"
   height="27.243397mm"
   viewBox="0 0 38.551731 27.243397"
   version="1.1"
   id="svg1"
   xml:space="preserve"
   inkscape:export-filename="astrocyte.svg"
   inkscape:export-xdpi="96"
   inkscape:export-ydpi="96"
   xmlns:inkscape="http://www.inkscape.org/namespaces/inkscape"
   xmlns:sodipodi="http://sodipodi.sourceforge.net/DTD/sodipodi-0.dtd"
   xmlns="http://www.w3.org/2000/svg"
   xmlns:svg="http://www.w3.org/2000/svg"><sodipodi:namedview
     id="namedview1"
     pagecolor="#ffffff"
     bordercolor="#000000"
     borderopacity="0.25"
     inkscape:showpageshadow="2"
     inkscape:pageopacity="0.0"
     inkscape:pagecheckerboard="0"
     inkscape:deskcolor="#d1d1d1"
     inkscape:document-units="mm"
     showguides="true"><sodipodi:guide
       position="80.929522,473.4121"
       orientation="0,-1"
       id="guide44"
       inkscape:locked="false" /><sodipodi:guide
       position="-12.494369,501.59368"
       orientation="1,0"
       id="guide45"
       inkscape:locked="false" /><sodipodi:guide
       position="58.151521,512.30154"
       orientation="0,-1"
       id="guide46"
       inkscape:locked="false" /><sodipodi:guide
       position="98.825242,515.66827"
       orientation="0,-1"
       id="guide47"
       inkscape:locked="false" /><sodipodi:guide
       position="164.93944,421.07228"
       orientation="0,-1"
       id="guide48"
       inkscape:locked="false" /><sodipodi:guide
       position="34.492041,458.09982"
       orientation="0,-1"
       id="guide49"
       inkscape:locked="false" /><sodipodi:guide
       position="-13.854579,292.18817"
       orientation="0,-1"
       id="guide53"
       inkscape:locked="false" /><sodipodi:guide
       position="22.834161,338.82974"
       orientation="0,-1"
       id="guide57"
       inkscape:locked="false" /><sodipodi:guide
       position="73.208532,269.3208"
       orientation="0,-1"
       id="guide58"
       inkscape:locked="false" /><inkscape:page
       x="6.8925328e-07"
       y="9.0066733e-06"
       width="38.551731"
       height="27.243397"
       id="page1"
       margin="0"
       bleed="0" /></sodipodi:namedview><defs
     id="defs1"><style
       class="style-fonts"
       id="style1">
      @font-face {
        font-family: &quot;Virgil&quot;;
        src: url(&quot;https://excalidraw.com/Virgil.woff2&quot;);
      }
      @font-face {
        font-family: &quot;Cascadia&quot;;
        src: url(&quot;https://excalidraw.com/Cascadia.woff2&quot;);
      }
      @font-face {
        font-family: &quot;Assistant&quot;;
        src: url(&quot;https://excalidraw.com/Assistant-Regular.woff2&quot;);
      }
    </style><style
       class="style-fonts"
       id="style1-3">
      @font-face {
        font-family: &quot;Virgil&quot;;
        src: url(&quot;https://excalidraw.com/Virgil.woff2&quot;);
      }
      @font-face {
        font-family: &quot;Cascadia&quot;;
        src: url(&quot;https://excalidraw.com/Cascadia.woff2&quot;);
      }
      @font-face {
        font-family: &quot;Assistant&quot;;
        src: url(&quot;https://excalidraw.com/Assistant-Regular.woff2&quot;);
      }
    </style><style
       class="style-fonts"
       id="style1-6">
      @font-face {
        font-family: &quot;Virgil&quot;;
        src: url(&quot;https://excalidraw.com/Virgil.woff2&quot;);
      }
      @font-face {
        font-family: &quot;Cascadia&quot;;
        src: url(&quot;https://excalidraw.com/Cascadia.woff2&quot;);
      }
      @font-face {
        font-family: &quot;Assistant&quot;;
        src: url(&quot;https://excalidraw.com/Assistant-Regular.woff2&quot;);
      }
    </style><style
       class="style-fonts"
       id="style1-9">
      @font-face {
        font-family: &quot;Virgil&quot;;
        src: url(&quot;https://excalidraw.com/Virgil.woff2&quot;);
      }
      @font-face {
        font-family: &quot;Cascadia&quot;;
        src: url(&quot;https://excalidraw.com/Cascadia.woff2&quot;);
      }
      @font-face {
        font-family: &quot;Assistant&quot;;
        src: url(&quot;https://excalidraw.com/Assistant-Regular.woff2&quot;);
      }
    </style><style
       class="style-fonts"
       id="style1-2">
      @font-face {
        font-family: &quot;Virgil&quot;;
        src: url(&quot;https://excalidraw.com/Virgil.woff2&quot;);
      }
      @font-face {
        font-family: &quot;Cascadia&quot;;
        src: url(&quot;https://excalidraw.com/Cascadia.woff2&quot;);
      }
      @font-face {
        font-family: &quot;Assistant&quot;;
        src: url(&quot;https://excalidraw.com/Assistant-Regular.woff2&quot;);
      }
    </style><style
       class="style-fonts"
       id="style1-26">
      @font-face {
        font-family: &quot;Virgil&quot;;
        src: url(&quot;https://excalidraw.com/Virgil.woff2&quot;);
      }
      @font-face {
        font-family: &quot;Cascadia&quot;;
        src: url(&quot;https://excalidraw.com/Cascadia.woff2&quot;);
      }
      @font-face {
        font-family: &quot;Assistant&quot;;
        src: url(&quot;https://excalidraw.com/Assistant-Regular.woff2&quot;);
      }
    </style><style
       class="style-fonts"
       id="style1-7">
      @font-face {
        font-family: &quot;Virgil&quot;;
        src: url(&quot;https://excalidraw.com/Virgil.woff2&quot;);
      }
      @font-face {
        font-family: &quot;Cascadia&quot;;
        src: url(&quot;https://excalidraw.com/Cascadia.woff2&quot;);
      }
      @font-face {
        font-family: &quot;Assistant&quot;;
        src: url(&quot;https://excalidraw.com/Assistant-Regular.woff2&quot;);
      }
    </style><style
       class="style-fonts"
       id="style1-90">
      @font-face {
        font-family: &quot;Virgil&quot;;
        src: url(&quot;https://excalidraw.com/Virgil.woff2&quot;);
      }
      @font-face {
        font-family: &quot;Cascadia&quot;;
        src: url(&quot;https://excalidraw.com/Cascadia.woff2&quot;);
      }
      @font-face {
        font-family: &quot;Assistant&quot;;
        src: url(&quot;https://excalidraw.com/Assistant-Regular.woff2&quot;);
      }
    </style><style
       class="style-fonts"
       id="style1-0">
      @font-face {
        font-family: &quot;Virgil&quot;;
        src: url(&quot;https://excalidraw.com/Virgil.woff2&quot;);
      }
      @font-face {
        font-family: &quot;Cascadia&quot;;
        src: url(&quot;https://excalidraw.com/Cascadia.woff2&quot;);
      }
      @font-face {
        font-family: &quot;Assistant&quot;;
        src: url(&quot;https://excalidraw.com/Assistant-Regular.woff2&quot;);
      }
    </style><style
       class="style-fonts"
       id="style1-1">
      @font-face {
        font-family: &quot;Virgil&quot;;
        src: url(&quot;https://excalidraw.com/Virgil.woff2&quot;);
      }
      @font-face {
        font-family: &quot;Cascadia&quot;;
        src: url(&quot;https://excalidraw.com/Cascadia.woff2&quot;);
      }
      @font-face {
        font-family: &quot;Assistant&quot;;
        src: url(&quot;https://excalidraw.com/Assistant-Regular.woff2&quot;);
      }
    </style><style
       class="style-fonts"
       id="style1-21">
      @font-face {
        font-family: &quot;Virgil&quot;;
        src: url(&quot;https://excalidraw.com/Virgil.woff2&quot;);
      }
      @font-face {
        font-family: &quot;Cascadia&quot;;
        src: url(&quot;https://excalidraw.com/Cascadia.woff2&quot;);
      }
      @font-face {
        font-family: &quot;Assistant&quot;;
        src: url(&quot;https://excalidraw.com/Assistant-Regular.woff2&quot;);
      }
    </style><style
       class="style-fonts"
       id="style1-13">
      @font-face {
        font-family: &quot;Virgil&quot;;
        src: url(&quot;https://excalidraw.com/Virgil.woff2&quot;);
      }
      @font-face {
        font-family: &quot;Cascadia&quot;;
        src: url(&quot;https://excalidraw.com/Cascadia.woff2&quot;);
      }
      @font-face {
        font-family: &quot;Assistant&quot;;
        src: url(&quot;https://excalidraw.com/Assistant-Regular.woff2&quot;);
      }
    </style><style
       class="style-fonts"
       id="style1-07">
      @font-face {
        font-family: &quot;Virgil&quot;;
        src: url(&quot;https://excalidraw.com/Virgil.woff2&quot;);
      }
      @font-face {
        font-family: &quot;Cascadia&quot;;
        src: url(&quot;https://excalidraw.com/Cascadia.woff2&quot;);
      }
      @font-face {
        font-family: &quot;Assistant&quot;;
        src: url(&quot;https://excalidraw.com/Assistant-Regular.woff2&quot;);
      }
    </style><style
       class="style-fonts"
       id="style1-8">
      @font-face {
        font-family: &quot;Virgil&quot;;
        src: url(&quot;https://excalidraw.com/Virgil.woff2&quot;);
      }
      @font-face {
        font-family: &quot;Cascadia&quot;;
        src: url(&quot;https://excalidraw.com/Cascadia.woff2&quot;);
      }
      @font-face {
        font-family: &quot;Assistant&quot;;
        src: url(&quot;https://excalidraw.com/Assistant-Regular.woff2&quot;);
      }
    </style><style
       class="style-fonts"
       id="style1-37">
      @font-face {
        font-family: &quot;Virgil&quot;;
        src: url(&quot;https://excalidraw.com/Virgil.woff2&quot;);
      }
      @font-face {
        font-family: &quot;Cascadia&quot;;
        src: url(&quot;https://excalidraw.com/Cascadia.woff2&quot;);
      }
      @font-face {
        font-family: &quot;Assistant&quot;;
        src: url(&quot;https://excalidraw.com/Assistant-Regular.woff2&quot;);
      }
    </style><style
       class="style-fonts"
       id="style1-05">
      @font-face {
        font-family: &quot;Virgil&quot;;
        src: url(&quot;https://excalidraw.com/Virgil.woff2&quot;);
      }
      @font-face {
        font-family: &quot;Cascadia&quot;;
        src: url(&quot;https://excalidraw.com/Cascadia.woff2&quot;);
      }
      @font-face {
        font-family: &quot;Assistant&quot;;
        src: url(&quot;https://excalidraw.com/Assistant-Regular.woff2&quot;);
      }
    </style></defs><g
     inkscape:label="Layer 1"
     inkscape:groupmode="layer"
     id="layer1"
     transform="translate(-251.58744,-243.32727)"><!-- svg-source:excalidraw --><mask
       id="mask4" /><mask
       id="mask6" /><mask
       id="mask8" /><mask
       id="mask10" /><mask
       id="mask12" /><mask
       id="mask14" /><mask
       id="mask17" /><path
       style="fill:#232323;stroke:none;stroke-width:0.20447"
       d="m 288.85388,246.21497 c -0.0419,-0.76596 -0.95048,-0.68209 -1.37311,-0.25271 -0.953,0.96826 0.0287,2.50925 1.21081,1.53332 0.26327,-0.21735 0.46828,-0.49404 0.7033,-0.73961 0.0379,0.15994 0.43005,1.26486 0.70096,0.89661 0.17817,-0.2422 -0.2458,-0.96021 -0.3201,-1.22121 -0.21585,-0.75824 0.26986,-1.58135 0.17558,-2.38038 -0.027,-0.22889 0.0489,-0.76182 -0.33441,-0.72157 -0.30731,0.0322 -0.30233,0.76222 -0.34835,0.99207 -0.19911,0.99436 0.0881,1.94046 -0.79417,2.6872 -0.77815,0.65859 -1.23869,-0.36053 -0.43196,-0.77651 0.25149,-0.12968 0.54478,-0.0287 0.81145,-0.0171 m -13.84949,-0.21639 c 0,-0.34658 0.0368,-0.68296 0.0561,-1.0279 0.014,-0.24996 0.31212,-1.40888 -0.11225,-1.42002 -0.38934,-0.0103 -0.30768,0.94817 -0.33791,1.20363 -0.1076,0.90905 -0.58141,2.81107 0.77285,3.01806 0.83613,0.12779 2.37695,-0.71009 1.34952,-1.59646 -0.43601,-0.37612 -1.20582,-0.24334 -1.72822,-0.17731 m -5.30176,-1.0279 c -0.28247,0.0223 -0.71819,0.0227 -0.96144,0.17929 -0.18934,0.12186 -0.2014,0.40195 0,0.52229 0.28552,0.17061 0.8095,-0.30806 0.98369,0.0638 0.27984,0.59753 -0.25814,1.97216 0.57367,2.27727 0.5098,0.187 1.81444,-0.66933 1.3115,-1.23786 -0.25494,-0.28817 -0.55635,0.67212 -0.9328,0.66547 -0.48917,-0.009 -0.47124,-1.41914 -0.42482,-1.76678 0.0553,-0.41444 0.69601,-0.42211 1.01904,-0.48301 0.13392,-0.0252 0.3929,-0.0718 0.33808,-0.2696 -0.11436,-0.41273 -0.98308,-0.002 -1.24053,-0.16905 -0.21662,-0.14111 -0.0721,-0.49232 -0.22592,-0.68435 -0.44615,-0.55696 -0.44047,0.72906 -0.44047,0.90246 m -16.00966,-0.81483 c -0.48031,0.065 -0.90698,0.07 -1.30199,0.39981 -0.5403,0.45111 -0.98794,1.33392 -0.72734,2.03801 0.32983,0.89117 1.88519,1.49209 2.72076,0.9512 0.22065,-0.14282 0.12828,-0.34352 -0.10119,-0.39154 -0.29872,-0.0626 -0.61595,0.0596 -0.91865,0.049 -0.58423,-0.0206 -1.40723,-0.60375 -1.24742,-1.25781 0.0976,-0.39927 0.7164,-1.47339 1.24659,-1.15538 0.2627,0.15756 0.43677,1.15308 0.84297,0.88313 0.36202,-0.2406 -0.13692,-1.56737 -0.51373,-1.51638 m 29.64274,3.19522 v 0.10819 c -0.368,0.13413 -0.87778,0.19004 -1.24428,0.0177 -0.1684,-0.0792 -0.52639,-0.40143 -0.70881,-0.20061 -0.27545,0.30321 0.28046,0.61322 0.4924,0.69803 0.46986,0.18801 1.14889,0.20679 1.62294,0.0179 0.61872,-0.24653 0.39002,-0.83862 -0.0541,-1.12996 -0.20207,-0.13255 -0.43332,-0.2282 -0.64915,-0.33612 -0.30802,-0.15402 -0.60824,-0.32813 -0.9197,-0.47354 0.24269,-0.19872 1.24548,-0.28671 1.27319,-0.54333 0.0275,-0.25454 -0.26848,-0.32407 -0.46169,-0.31659 -0.41098,0.016 -1.24651,0.19217 -1.53352,0.50448 -0.25083,0.27292 0.006,0.53757 0.23593,0.70329 0.55805,0.40057 1.32308,0.65933 1.94679,0.95055 m -22.45132,-1.19022 c -0.0542,-0.68887 -1.22358,-1.04899 -1.78528,-0.78052 -0.56811,0.27155 -0.62705,0.88028 -0.65132,1.42973 -0.0106,0.24134 -0.15646,1.15626 0.36946,1.02947 0.19872,-0.0479 0.2285,-0.32392 0.21774,-0.48848 -0.0283,-0.43368 -0.15938,-0.94159 0.18387,-1.29058 0.4937,-0.50194 1.10898,0.0954 1.66553,0.10038 m 2.43448,0 c -0.10622,-0.68649 -1.2576,-1.09305 -1.83934,-0.76072 -0.5194,0.29672 -0.55752,0.83233 -0.62627,1.35583 -0.0351,0.26698 -0.12667,1.13009 0.35297,1.07999 0.1946,-0.0203 0.26026,-0.27031 0.25899,-0.4308 -0.003,-0.44155 -0.17748,-0.97398 0.15948,-1.34017 0.47052,-0.51131 1.15083,0.091 1.69417,0.0959 m 0.59509,0.541 c 0.46546,0.21728 0.8938,0.45577 1.40655,0.1919 0.52965,-0.27256 0.66569,-1.02939 0.10607,-1.35191 -1.14631,-0.66062 -2.6692,1.21538 -1.95605,2.24197 0.48834,0.70297 1.35291,0.80392 2.12052,0.59455 0.23482,-0.0641 0.70328,-0.11365 0.72785,-0.42989 0.0296,-0.38114 -0.61389,-0.12725 -0.78195,-0.0749 -0.86691,0.27017 -1.90119,-0.11976 -1.62299,-1.17175 m 20.88243,0 c 0.61942,0.32586 1.91643,0.52718 1.83409,-0.59509 -0.0484,-0.65926 -0.83387,-0.81523 -1.34718,-0.59752 -0.64767,0.27469 -1.171,1.08172 -1.13373,1.78771 0.0545,1.03126 1.35372,1.31392 2.16162,1.11584 0.24336,-0.0596 0.78662,-0.11029 0.84522,-0.41717 0.0706,-0.36963 -0.4454,-0.22205 -0.62883,-0.17145 -0.80515,0.2221 -2.21587,0.0694 -1.73119,-1.12232 m -17.90694,-0.3787 c 0.0204,-0.19112 0.0259,-0.85449 -0.35524,-0.63441 -0.16662,0.0962 -0.0951,0.31933 -0.0959,0.47211 -0.002,0.3 -0.30334,1.345 0.17599,1.41086 0.16985,0.0233 0.26119,-0.21349 0.32982,-0.3289 0.1591,-0.26752 0.4965,-0.93597 0.83967,-0.98619 0.14443,-0.0211 0.21186,0.17918 0.24566,0.28315 0.13385,0.4117 0.19019,0.79225 0.37477,1.18997 0.13692,-0.0286 0.27221,-0.0598 0.298,-0.22228 0.074,-0.46609 -0.22077,-1.92307 -0.78494,-1.98674 -0.4457,-0.0503 -0.70801,0.57526 -1.02784,0.80243 m -9.41333,0.9197 c 0.0364,0.17865 0.31727,0.64679 0.54988,0.39782 0.17091,-0.18292 -0.13424,-0.61727 -0.15002,-0.83061 -0.0156,-0.212 0.0944,-0.39038 0.11571,-0.5951 0.0212,-0.2035 -0.17953,-0.57189 -0.40766,-0.3458 -0.37586,0.37249 -0.47734,1.64751 -1.35003,1.28077 -0.63523,-0.26696 -0.19487,-0.81671 -0.23656,-1.25661 -0.0218,-0.23072 -0.32178,-0.33996 -0.49521,-0.18651 -0.59654,0.5279 -0.0347,1.7404 0.56731,1.96913 0.51483,0.19562 0.99546,-0.17962 1.40658,-0.43309 m 21.96443,-0.32459 c 0.25624,0.26774 0.50654,0.69011 0.86559,0.82538 0.14532,0.0548 0.44435,0.0615 0.50033,-0.12881 0.0641,-0.21795 -0.58175,-0.62054 -0.70354,-0.80499 -0.2321,-0.35146 -0.35084,-0.74064 -0.69374,-1.00927 -0.63473,-0.49722 -1.48286,-0.0118 -1.8949,0.52258 -0.40728,0.52829 -0.19281,1.35493 0.51966,1.44362 0.55645,0.0692 1.16277,-0.37885 1.4066,-0.84851 m -15.25608,-0.541 c 0.14648,-0.2735 0.77207,-0.7298 1.02321,-0.2978 0.17988,0.30941 -0.40764,0.41525 -0.59042,0.39582 -0.14646,-0.0156 -0.28957,-0.0653 -0.43279,-0.098 m 20.82832,0 c 0.0937,-0.12995 0.18638,-0.23871 0.32485,-0.32497 0.6923,-0.43131 1.03365,0.48589 0.16205,0.42792 -0.16588,-0.011 -0.32569,-0.0661 -0.4869,-0.10295 m -12.60415,-0.39264 c -0.27825,0.1113 -0.30425,0.43407 0.002,0.52376 0.25534,0.0749 1.34008,0.0337 1.56042,-0.0943 0.25966,-0.15087 0.15452,-0.39644 -0.10294,-0.45103 -0.34397,-0.0729 -1.13259,-0.10894 -1.45881,0.0215 m 6.7614,0.014 c -0.004,0.49807 -0.51169,1.56352 -1.1843,1.18865 -0.50926,-0.28382 0.10749,-0.90812 0.42712,-1.04592 0.23766,-0.10246 0.50826,-0.0834 0.75718,-0.14273 m -3.24597,0.3641 c 0.33679,0.0175 0.70342,0.38244 0.40929,0.69656 -0.19221,0.20528 -0.52822,0.2031 -0.78798,0.18046 -0.27581,-0.0241 -0.62718,-0.33946 -0.39995,-0.62473 0.16222,-0.20366 0.53404,-0.26494 0.77864,-0.25229 z"
       id="path40" /><path
       style="fill:#ff6837;stroke:none;stroke-width:0.281966"
       d="m 278.30726,259.25162 c -0.64519,0.0118 -0.68982,0.73042 -0.35599,1.12159 1.17498,1.37669 2.12019,3.14352 2.56612,4.92677 0.21411,0.85626 0.3154,1.8122 -0.14834,2.61112 -0.48814,0.8409 -1.36677,0.72799 -1.97016,1.35851 -0.36123,0.37748 -0.29732,1.00911 0.28167,1.08636 1.0966,0.1463 2.27488,-0.96045 2.70156,-1.84804 1.10211,-2.29268 0.008,-4.83254 -1.04215,-6.93813 -0.35891,-0.71967 -1.04025,-2.33621 -2.03271,-2.31818 m -10.37104,0.0756 c -1.48121,-0.25128 -2.42423,1.6857 -2.87672,2.76487 -0.22293,0.53167 -0.47738,1.13838 -0.53984,1.71588 -0.22536,2.08372 1.24359,3.64495 2.59708,4.99843 0.46179,0.46179 1.52398,1.68257 2.23694,1.66085 0.73722,-0.0225 0.4086,-1.10937 0.13362,-1.43674 -0.41022,-0.48836 -1.01057,-0.76847 -1.47532,-1.20063 -1.54209,-1.43391 -2.79713,-3.23105 -1.88599,-5.36478 0.23364,-0.54714 0.5357,-1.01192 0.88453,-1.49207 0.22398,-0.30826 1.89818,-1.48085 0.9257,-1.64581 m 4.40714,1.55204 c -0.66999,0.27542 -0.11823,1.63402 -0.35817,2.17191 -0.10897,0.24427 -0.38204,0.27475 -0.61606,0.3151 -0.64329,0.11092 -2.72005,0.18272 -1.89467,1.40826 0.66188,0.98278 1.98989,-0.66231 2.57071,0.1016 0.25874,0.34031 0.1446,0.99403 0.1446,1.39375 0,1.4192 -0.10699,5.01925 2.2381,4.17377 0.37226,-0.13421 0.76843,-0.25774 1.11907,-0.44251 0.62627,-0.33002 1.73641,-1.91056 0.93858,-2.5669 -0.21784,-0.17921 -0.55123,-0.0775 -0.70816,0.13332 -0.1828,0.24557 -0.17872,0.59355 -0.30878,0.86583 -0.26931,0.56374 -1.2511,1.14273 -1.74841,0.51411 -0.61875,-0.78219 -0.27977,-2.41445 -0.39006,-3.34905 -0.0383,-0.32429 -0.11884,-0.89992 0.0983,-1.17288 0.46227,-0.58103 2.10167,-0.53194 2.78876,-0.71005 0.34977,-0.0907 0.57907,-0.46891 0.26715,-0.76072 -0.75786,-0.70901 -2.12781,0.26428 -2.94073,-0.0871 -0.61285,-0.26488 0.0376,-2.49729 -1.20027,-1.98844 m -11.71714,0.54209 c -0.23978,0.10798 -0.39667,0.26955 -0.67142,0.29335 -0.73702,0.0639 -1.84456,-0.47505 -2.17974,0.52665 -0.48543,1.45078 2.10134,0.14556 2.10076,1.26825 -4.2e-4,1.09006 -0.24767,2.19875 -0.35603,3.28251 -0.0491,0.4915 -0.0246,1.11873 -0.27022,1.56259 -0.38052,0.68753 -1.80803,0.23183 -1.81016,1.19774 -0.002,0.79711 0.89631,0.61279 1.39634,0.54173 1.03017,-0.14638 2.01508,-0.287 3.05874,-0.46115 0.44229,-0.0738 1.09971,-0.11526 1.47124,-0.38561 0.44363,-0.32284 0.0233,-0.7458 -0.35225,-0.83756 -0.67554,-0.16507 -1.79652,0.34461 -2.37015,0.009 -0.33129,-0.19377 -0.18466,-0.78933 -0.15363,-1.10461 0.11235,-1.14214 0.36225,-2.29437 0.52981,-3.43175 0.0438,-0.2976 0.0502,-0.77429 0.31021,-0.97447 0.59365,-0.45705 1.95993,0.20775 2.42457,-0.55485 0.19591,-0.32156 -0.24682,-0.7809 -0.51723,-0.88868 -0.56771,-0.22629 -1.07606,0.05 -1.64098,0.0255 -0.33493,-0.0145 -0.63816,-0.21815 -0.96986,-0.0688 z"
       id="path42" /><!-- svg-source:excalidraw --><mask
       id="mask4-9" /><mask
       id="mask6-8" /><mask
       id="mask8-7" /><mask
       id="mask10-2" /><mask
       id="mask12-8" /><mask
       id="mask16" /><!-- svg-source:excalidraw --><mask
       id="mask4-2" /><mask
       id="mask8-9" /><mask
       id="mask10-5" /><mask
       id="mask12-4" /><mask
       id="mask14-2" /><mask
       id="mask16-0" /><mask
       id="mask18" /><mask
       id="mask20" /><mask
       id="mask22" /><mask
       id="mask24" /><!-- svg-source:excalidraw --><mask
       id="mask2" /><mask
       id="mask4-1" /><mask
       id="mask6-4" /><mask
       id="mask10-50" /><mask
       id="mask14-7" /><!-- svg-source:excalidraw --><mask
       id="mask2-8" /><mask
       id="mask6-83" /><mask
       id="mask8-4" /><mask
       id="mask10-0" /><mask
       id="mask14-3" /><!-- svg-source:excalidraw --><mask
       id="mask2-0" /><mask
       id="mask6-9" /><mask
       id="mask8-3" /><mask
       id="mask10-9" /><mask
       id="mask12-2" /><mask
       id="mask14-9" /><mask
       id="mask16-3" /><mask
       id="mask18-8" /><mask
       id="mask20-7" /><mask
       id="mask22-3" /><mask
       id="mask24-2" /><mask
       id="mask26" /><mask
       id="mask28" /><mask
       id="mask32" /><!-- svg-source:excalidraw --><mask
       id="mask4-8" /><mask
       id="mask6-0" /><mask
       id="mask8-2" /><mask
       id="mask10-07" /><mask
       id="mask12-3" /><mask
       id="mask14-4" /><mask
       id="mask16-2" /><mask
       id="mask18-9" /><mask
       id="mask20-0" /><mask
       id="mask22-8" /><mask
       id="mask24-6" /><mask
       id="mask26-7" /><mask
       id="mask30" /><mask
       id="mask32-9" /><mask
       id="mask34" /><mask
       id="mask36" /><mask
       id="mask38" /><mask
       id="mask40" /><mask
       id="mask42" /><mask
       id="mask44" /><mask
       id="mask46" /><mask
       id="mask48" /><mask
       id="mask50" /><mask
       id="mask52" /><mask
       id="mask54" /><mask
       id="mask56" /><mask
       id="mask58" /><mask
       id="mask60" /><mask
       id="mask62" /><mask
       id="mask64" /><!-- svg-source:excalidraw --><mask
       id="mask4-7" /><mask
       id="mask6-43" /><!-- svg-source:excalidraw --><mask
       id="mask4-71" /><mask
       id="mask6-40" /><mask
       id="mask8-6" /><!-- svg-source:excalidraw --><mask
       id="mask4-6" /><mask
       id="mask6-49" /><mask
       id="mask8-0" /><mask
       id="mask10-1" /><mask
       id="mask12-5" /><mask
       id="mask14-38" /><mask
       id="mask16-03" /><!-- svg-source:excalidraw --><mask
       id="mask4-0" /><mask
       id="mask6-1" /><mask
       id="mask8-41" /><mask
       id="mask12-9" /><!-- svg-source:excalidraw --><mask
       id="mask4-91" /><mask
       id="mask6-03" /><mask
       id="mask10-7" /><!-- svg-source:excalidraw --><mask
       id="mask6-5" /><mask
       id="mask10-93" /><mask
       id="mask14-1" /><mask
       id="mask18-0" /><!-- svg-source:excalidraw --><mask
       id="mask10-3" /><mask
       id="mask14-21" /><mask
       id="mask18-89" /><mask
       id="mask22-82" /><!-- svg-source:excalidraw --><mask
       id="mask8-03" /><mask
       id="mask12-7" /><mask
       id="mask16-8" /></g></svg>
