<?xml version="1.0" encoding="UTF-8" standalone="no"?>
<!-- Created with Inkscape (http://www.inkscape.org/) -->

<svg
   width="175.8183mm"
   height="216.3129mm"
   viewBox="0 0 175.8183 216.3129"
   version="1.1"
   id="svg1"
   xmlns:inkscape="http://www.inkscape.org/namespaces/inkscape"
   xmlns:sodipodi="http://sodipodi.sourceforge.net/DTD/sodipodi-0.dtd"
   xmlns="http://www.w3.org/2000/svg"
   xmlns:svg="http://www.w3.org/2000/svg">
  <sodipodi:namedview
     id="namedview1"
     pagecolor="#ffffff"
     bordercolor="#000000"
     borderopacity="0.25"
     inkscape:showpageshadow="2"
     inkscape:pageopacity="0.0"
     inkscape:pagecheckerboard="0"
     inkscape:deskcolor="#d1d1d1"
     inkscape:document-units="mm" />
  <defs
     id="defs1">
    <rect
       x="14.502468"
       y="714.4115"
       width="648.05536"
       height="151.11768"
       id="rect1" />
  </defs>
  <g
     inkscape:label="Layer 1"
     inkscape:groupmode="layer"
     id="layer1"
     transform="translate(-23.645461,-25.610728)">
    <path
       class="st14"
       d="m 51.290952,193.71175 -2.878667,4.8013 c -0.627944,1.04775 0.127,2.38125 1.347611,2.38125 h 13.30325 c 1.181806,0 1.940278,-1.25236 1.393472,-2.30011 l -2.578805,-4.94242 c -0.275167,-0.52916 -0.8255,-0.85372 -1.421695,-0.84313 l -7.845777,0.14111 c -0.543278,0.007 -1.040695,0.29633 -1.319389,0.762 z"
       id="path516"
       inkscape:export-filename="device_af.svg"
       inkscape:export-xdpi="96"
       inkscape:export-ydpi="96"
       style="fill:#ffffff;stroke:#0e6a93;stroke-width:1.86454;stroke-miterlimit:10" />
    <path
       class="st15"
       d="m 149.24323,193.69058 -2.73756,4.88597 c -0.5715,1.01953 0.11289,2.31422 1.22414,2.31422 h 12.56595 c 1.07244,0 1.76036,-1.21708 1.26647,-2.23661 l -2.45181,-5.03061 c -0.25047,-0.51505 -0.75141,-0.83255 -1.29116,-0.82197 l -7.37659,0.14464 c -0.49389,0.0106 -0.94544,0.2928 -1.19944,0.74436 z"
       id="path518"
       style="fill:#ffffff;stroke:#0e6a93;stroke-width:1.80195;stroke-miterlimit:10" />
    <path
       class="st16"
       d="m 44.457647,124.2745 -0.0071,-3.97581 c -0.0035,-1.89794 1.157111,-3.43958 2.585861,-3.43252 l 114.497552,0.508 c 1.42522,0.007 2.57528,1.54869 2.57175,3.43958 l -0.15169,43.24703"
       id="path520"
       style="fill:#ffffff;stroke:#0e6a93;stroke-width:2.55104;stroke-linecap:round;stroke-linejoin:round;stroke-miterlimit:10" />
    <path
       class="st16"
       d="M 44.457647,124.2745"
       id="path522"
       style="fill:#ffffff;stroke:#0e6a93;stroke-width:2.55104;stroke-linecap:round;stroke-linejoin:round;stroke-miterlimit:10" />
    <path
       class="st16"
       d="m 163.92937,175.69539 -0.067,12.72116 c -0.007,3.30906 -1.17123,4.83659 -2.59998,4.81895 L 47.128174,192.81569 c -1.414639,-0.0141 -2.554111,-1.53811 -2.557639,-3.41842 l -0.09878,-56.28569"
       id="path524"
       style="fill:#ffffff;stroke:#0e6a93;stroke-width:2.55104;stroke-linecap:round;stroke-linejoin:round;stroke-miterlimit:10" />
    <path
       class="st17"
       d="m 120.31545,173.99853 9.20397,0.0212 c 1.59456,0.004 2.88925,-1.43933 2.89278,-3.22086 l 0.10936,-42.7567 c 0.004,-1.78506 -1.28058,-3.23498 -2.87514,-3.24556 l -73.952801,-0.51505 c -1.598084,-0.0106 -2.903361,1.43227 -2.906889,3.22086 l -0.109361,43.10591 c -0.0035,1.78506 1.287639,3.2385 2.882194,3.24203 l 56.610247,0.14111"
       id="path526"
       style="fill:#e5e5e5;stroke:#0e6a93;stroke-width:1.81539;stroke-linecap:round;stroke-miterlimit:10" />
    <circle
       class="st18"
       cx="56.956558"
       cy="184.10912"
       r="4.360333"
       id="circle528"
       style="fill:#0e6a93;stroke:#afafaf;stroke-width:0.932286;stroke-miterlimit:10" />
    <circle
       class="st18"
       cx="71.311089"
       cy="184.10912"
       r="4.360333"
       id="circle530"
       style="fill:#0e6a93;stroke:#afafaf;stroke-width:0.932286;stroke-miterlimit:10" />
    <circle
       class="st19"
       cx="129.35715"
       cy="183.45294"
       r="3.7218056"
       id="circle532"
       style="fill:#ff6633;stroke-width:0.352778" />
    <circle
       class="st20"
       cx="108.69142"
       cy="183.63994"
       r="3.7218056"
       id="circle534"
       style="fill:#fbd027;stroke-width:0.352778" />
    <circle
       class="st21"
       cx="88.022171"
       cy="183.63994"
       r="3.7218056"
       id="circle536"
       style="fill:#c1c1c1;stroke-width:0.352778" />
    <path
       class="st22"
       d="m 146.64326,131.47822 h -8.91117 c -0.18344,0 -0.33161,-0.14816 -0.33161,-0.33161 v -6.53697 c 0,-0.18345 0.14817,-0.33161 0.33161,-0.33161 h 8.91117 c 0.18344,0 0.33161,0.14816 0.33161,0.33161 v 6.53697 c 0.004,0.18345 -0.14817,0.33161 -0.33161,0.33161 z"
       id="path538"
       style="fill:#e5e5e5;stroke:#0e6a93;stroke-width:0.705556;stroke-miterlimit:10" />
    <path
       class="st22"
       d="m 159.74542,131.47822 h -8.93586 c -0.17639,0 -0.32103,-0.14464 -0.32103,-0.32103 v -6.56166 c 0,-0.17639 0.14464,-0.32103 0.32103,-0.32103 h 8.93586 c 0.17639,0 0.32103,0.14464 0.32103,0.32103 v 6.56166 c 0,0.17639 -0.14111,0.32103 -0.32103,0.32103 z"
       id="path540"
       style="fill:#e5e5e5;stroke:#0e6a93;stroke-width:0.705556;stroke-miterlimit:10" />
    <path
       class="st23"
       d="m 61.052313,148.39744 h 9.8425 l 3.799416,-15.10947 c 0.585611,-1.76036 3.157361,-1.4993 3.376084,0.34572 l 1.192388,34.15595 c 0.239889,2.02847 3.1115,2.37066 4.229806,0.0247 2.300111,-4.82247 5.990166,-19.45569 5.990166,-19.45569 l 10.092973,0.0882 4.550834,-13.99822 c 0.4445,-1.87326 3.15383,-1.7392 3.41489,0.16932 l 1.92264,32.82597 c 0.26458,1.94028 3.81352,2.032 4.20511,0.11289 l 4.50497,-19.15583 h 4.27214"
       id="path542"
       style="fill:none;stroke:#0e6a93;stroke-width:1.28595;stroke-miterlimit:10" />
    <circle
       class="st24"
       cx="144.44897"
       cy="140.98558"
       r="1.8767778"
       id="circle544"
       style="fill:#e5e5e5;stroke:#0e6a93;stroke-width:0.705556;stroke-linecap:round;stroke-miterlimit:10" />
    <circle
       class="st24"
       cx="153.31429"
       cy="141.04555"
       r="1.8767778"
       id="circle546"
       style="fill:#e5e5e5;stroke:#0e6a93;stroke-width:0.705556;stroke-linecap:round;stroke-miterlimit:10" />
    <circle
       class="st24"
       cx="144.42781"
       cy="153.34691"
       r="1.8767778"
       id="circle548"
       style="fill:#e5e5e5;stroke:#0e6a93;stroke-width:0.705556;stroke-linecap:round;stroke-miterlimit:10" />
    <circle
       class="st24"
       cx="153.29312"
       cy="153.40688"
       r="1.8767778"
       id="circle550"
       style="fill:#e5e5e5;stroke:#0e6a93;stroke-width:0.705556;stroke-linecap:round;stroke-miterlimit:10" />
    <circle
       class="st24"
       cx="144.44897"
       cy="166.75247"
       r="1.8767778"
       id="circle552"
       style="fill:#e5e5e5;stroke:#0e6a93;stroke-width:0.705556;stroke-linecap:round;stroke-miterlimit:10" />
    <circle
       class="st24"
       cx="153.31429"
       cy="166.81244"
       r="1.8767778"
       id="circle554"
       style="fill:#e5e5e5;stroke:#0e6a93;stroke-width:0.705556;stroke-linecap:round;stroke-miterlimit:10" />
    <line
       class="st25"
       x1="57.866734"
       y1="170.05093"
       x2="67.324707"
       y2="170.05093"
       id="line556"
       style="fill:none;stroke:#0e6a93;stroke-width:0.699206;stroke-linecap:round;stroke-miterlimit:10" />
    <circle
       class="st26"
       cx="151.50453"
       cy="183.61879"
       r="3.7218056"
       id="circle558"
       style="fill:#c4c4c4;stroke-width:0.352778" />
    <g
       id="g633"
       transform="matrix(0.35277777,0,0,0.35277777,263.17986,-191.3593)">&#10;				<g
   id="g631">&#10;					<g
   id="path7498_00000181795983693106255660000013471720175768901277_">&#10;						<path
   class="st27"
   d="m -462.11,648.78 c 30.93,-4.31 69.86,40.29 58.85,63.77 18.84,7.31 23.29,20.08 17.91,38.22 7.37,17.01 1.69,33.5 -9.35,37.29 1.71,6.31 -0.19,14.58 -8.01,18.71 -8.52,3.99 -16.37,1.58 -24.12,-2.58 0.2,4.08 -0.99,10.38 -11.36,16.83 -16.51,18.29 -16.77,24.18 -41.1,24.25 -4.98,0.02 -17.84,-6.01 -20.76,-10.66 2.49,8.39 3.05,14.7 2.11,19.48 -9.29,-6 -16.03,0.87 -34.44,-12.24 -3.88,-4.31 -25.31,-7.48 -32.3,-15.63 -3.7,-4.28 -5.4,-11.27 0.04,-17.18 -20.66,6.27 -49.57,-0.36 -57.38,-14.97 -21.93,7.52 -41.37,-9.59 -38.42,-25.95 -9.65,4.96 -23.76,-23.69 -12.23,-35.22 -9.45,-30.99 11.72,-57.83 28.14,-58.96 -3.85,-17.3 23.64,-35.91 36.86,-32.51 8.5,-12.19 29.1,-17.01 40.44,-9.07 13.6,-25.31 85.41,-18.88 105.12,16.42 z"
   id="path560"
   style="fill:none;stroke:#0e6a93;stroke-width:4;stroke-linecap:round;stroke-linejoin:round;stroke-miterlimit:5" />
&#10;					</g>
&#10;					<path
   class="st28"
   d="m -462.24,798.05 c 0.25,0.01 0.5,0.02 0.75,0.03 6.69,0.26 13.6,0.53 20.41,0.53 h 0.56 c 1.06,0 2.12,-0.01 3.18,-0.05 l 0.59,-0.02 c 0.62,-0.03 1.25,-0.05 1.87,-0.05 0.68,0 1.29,0.03 1.85,0.1 2.81,0.35 4.83,1.25 6.18,2.77 1.72,1.94 2.17,4.74 1.27,7.89 -0.84,2.91 -2.26,5.54 -4.23,7.81 -1.65,1.89 -3.6,3.42 -5.5,4.9 l -0.19,0.14 c -1.74,1.36 -3.73,2.97 -5.37,4.85 -1,1.15 -1.98,2.33 -2.96,3.5 l -1.23,1.48 c -2.57,3.06 -5.12,6.01 -8.19,8.5 -3.4,2.77 -7.15,4.73 -11.16,5.83 -3.3,0.91 -6.89,1.35 -10.96,1.35 -1.65,0 -3.35,-0.07 -5.21,-0.22 -2.78,-0.22 -6,-0.56 -9.08,-1.76 -3.07,-1.19 -6.09,-3.44 -7.62,-4.68 -3.11,-2.51 -5.3,-5.29 -7.62,-8.23 -0.43,-0.54 -0.86,-1.09 -1.31,-1.65 -3.36,-4.2 -7.43,-8.08 -12.1,-11.53 -0.71,-0.53 -1.43,-1.04 -2.15,-1.55 -1.01,-0.72 -2.04,-1.46 -3.05,-2.23 -1.4,-1.07 -2.84,-2.29 -3.91,-3.87 -1.06,-1.55 -1.61,-3.47 -1.48,-5.12 0.15,-1.86 1.13,-3.64 2.77,-5.01 3.51,-2.94 8.76,-4.75 12.5,-5.48 1.81,-0.35 3.68,-0.51 5.87,-0.52 1.4,0 2.73,0.06 4.14,0.12 l 1.62,0.07 c 0.1,0 0.19,0.02 0.27,0.04 h 0.21 l 0.09,0.03 0.35,0.03 c 4.11,0.34 8.31,0.55 12.37,0.75 l 2.79,0.14 1.51,4.82 c -2.53,-0.13 -5.02,-0.26 -7.46,-0.4 l -0.27,-0.02 c -2.37,-0.13 -4.74,-0.27 -7.11,-0.43 -0.69,-0.04 -1.4,-0.09 -2.1,-0.15 -0.18,-0.02 -0.35,-0.05 -0.52,-0.09 -0.01,0 -0.02,-0.01 -0.04,-0.01 h -0.11 c -0.44,-0.01 -0.84,-0.02 -1.24,-0.02 -1.13,0 -2.34,0.05 -3.69,0.16 l -0.58,0.05 c -3.8,0.3 -6.81,0.53 -10.46,1.83 -0.52,0.18 -0.96,0.39 -1.42,0.61 -0.37,0.17 -0.74,0.34 -1.15,0.51 -1.42,0.59 -2.67,1.16 -3.41,2.13 -0.43,1.05 -0.54,1.51 -0.12,2.32 1.02,1.69 2.11,2.57 3.48,3.69 0.27,0.22 0.55,0.45 0.84,0.69 l 0.52,0.38 c 3.99,2.91 8.11,5.92 11.75,9.54 1.79,1.78 3.54,3.75 5.21,5.86 0.46,0.58 0.87,1.12 1.27,1.63 0.76,0.99 1.47,1.92 2.41,2.99 2.61,2.97 6.7,6.84 11.34,8.41 2.65,0.89 5.54,1.13 8.27,1.29 1.23,0.07 2.42,0.11 3.56,0.11 1.55,0 3.05,-0.07 4.47,-0.21 2.17,-0.21 4.26,-0.62 6.2,-1.23 1.88,-0.58 3.32,-1.21 4.99,-2.18 1.49,-0.86 2.82,-1.81 4.18,-3 1.25,-1.09 2.51,-2.34 3.87,-3.83 1.32,-1.45 2.6,-3 3.84,-4.5 1.34,-1.62 2.73,-3.3 4.19,-4.88 1.58,-1.71 3.4,-3.14 5.16,-4.52 2.07,-1.62 4.03,-3.16 5.62,-5.11 1.59,-1.95 2.7,-4.33 3.05,-6.53 0.07,-0.4 0.08,-0.86 0.03,-1.22 l -0.02,-0.12 c -0.01,-0.06 -0.02,-0.12 -0.04,-0.17 -0.03,-0.12 -0.06,-0.2 -0.08,-0.28 l -0.01,-0.02 c -0.25,-0.5 -0.48,-0.74 -1.01,-1.05 -0.53,-0.31 -1.11,-0.5 -1.99,-0.67 -0.42,-0.08 -0.56,-0.09 -1.11,-0.13 -0.32,-0.02 -0.64,-0.03 -0.96,-0.03 h -0.26 c -0.5,0.01 -1.01,0.03 -1.51,0.06 -0.5,0.03 -1,0.05 -1.49,0.06 -0.91,0.02 -1.81,0.03 -2.72,0.03 -1.78,0 -3.56,-0.03 -5.34,-0.07 -5.09,-0.1 -10.18,-0.27 -15.13,-0.46 z"
   id="path563"
   style="fill:#0e6a93" />
&#10;					<path
   class="st28"
   d="m -483.4,801.58 c -0.33,-0.01 -0.65,-0.03 -0.98,-0.04 -6.36,-0.27 -12.72,-0.53 -19.08,-0.77 -0.99,-0.04 -2,-0.04 -3,-0.05 -1.42,-0.01 -2.89,-0.02 -4.33,-0.12 -0.04,0.01 -0.08,0.02 -0.13,0.04 -0.77,0.26 -1.55,0.49 -2.33,0.71 -0.58,0.17 -1.17,0.34 -1.74,0.52 l -1.13,0.36 c -2.31,0.74 -4.71,1.51 -7.14,2.06 -2.53,0.58 -4.78,0.85 -6.88,0.85 -0.45,0 -0.91,-0.01 -1.36,-0.04 -0.93,-0.06 -1.89,-0.2 -2.82,-0.33 -1.34,-0.19 -2.72,-0.38 -4.1,-0.38 -0.57,0 -1.09,0.03 -1.6,0.1 -4.19,0.18 -8.46,0.96 -13.1,2.4 -1.94,0.6 -3.89,1.31 -5.77,1.99 -1.7,0.61 -3.46,1.25 -5.22,1.81 l -0.05,0.02 -0.05,0.01 c -0.18,0.03 -0.34,0.04 -0.49,0.04 -1.19,0 -1.44,-0.82 -1.49,-1.07 -0.22,-1.11 0.94,-2.63 2.49,-3.26 1.19,-0.41 2.34,-0.83 3.49,-1.24 2.46,-0.89 5,-1.8 7.57,-2.54 4.6,-1.32 9.18,-2.03 13.59,-2.11 h 0.54 c 2.69,0 5.47,0.36 7.92,0.68 0.02,0 0.31,0 0.47,0 2.18,0 4.53,-0.35 7.39,-1.1 1.91,-0.5 3.82,-1.12 5.67,-1.71 0.78,-0.25 1.55,-0.5 2.33,-0.74 0.28,-0.09 0.56,-0.18 0.84,-0.28 0.96,-0.33 1.95,-0.67 2.99,-0.73 0.27,-0.02 0.54,-0.02 0.81,-0.02 0.39,0 0.77,0.01 1.16,0.03 l 0.64,0.02 c 3.58,0.09 7.22,0.24 10.73,0.39 l 11.28,0.46 c 0.33,0.01 0.66,0.03 1,0.04"
   id="path565"
   style="fill:#0e6a93" />
&#10;					<path
   class="st28"
   d="m -461.51,798.53 c 0.38,0.01 0.75,0.03 1.13,0.04 0.4,0.01 0.83,0.02 1.29,0.02 1.5,0 3.35,-0.07 5.32,-0.14 2.48,-0.09 5.28,-0.2 8.15,-0.2 9.05,0 15.12,1.08 19.1,3.41 l 0.09,0.05 0.07,0.07 c 2.26,2.39 7.92,4.21 11.03,4.68 1.11,0.17 2.28,0.26 3.47,0.26 2.68,0 5.31,-0.43 7.6,-1.25 4.11,-1.47 6.82,-4.75 7.63,-9.23 0.71,-4.12 0.89,-7.12 0.98,-8.57 0.07,-1.15 0.1,-1.68 0.81,-1.68 0.65,0 0.7,0.3 0.97,1.95 0.04,0.25 0.09,0.52 0.14,0.84 0.05,-0.01 0.11,-0.02 0.17,-0.02 0.74,0 0.81,0.74 0.86,1.4 0.03,0.32 0.06,0.72 0.14,1.15 0.37,4.39 -0.5,8.49 -2.44,11.6 -3.9,6.24 -11.26,7.6 -16.74,7.64 h -0.23 c -4.61,0 -11.18,-0.93 -14.53,-3.56 -6.18,-4.36 -11.78,-4.95 -16.43,-4.95 -2.44,0 -4.93,0.18 -7.57,0.38 -2.94,0.22 -5.97,0.44 -9.27,0.44"
   id="path567"
   style="fill:#0e6a93" />
&#10;					<g
   id="path29_00000178177530379755096320000002005737601504476598_">&#10;						<path
   class="st29"
   d="m -439.98,714.74 c 0.62,-0.85 1,-1.95 1.25,-2.96 0.64,-2.56 0.41,-5.29 -0.45,-7.77 -2.1,-6.05 -7.29,-11.59 -13.74,-12.87 -1.38,-0.27 -2.83,-0.41 -4.23,-0.19 0.51,0.29 1.02,0.58 1.53,0.87 -0.29,-1.36 -0.87,-2.69 -1.49,-3.92 -1.08,-2.15 -2.55,-4.14 -4.27,-5.81 -2.19,-2.13 -4.81,-3.8 -7.72,-4.75 -2.6,-0.85 -5.39,-1.16 -8.12,-1.15 -5.3,0.38 -7.05,2.7 -0.83,2.5 2.36,-0.08 4.74,0.09 7.03,0.68 4.95,1.26 9.04,4.76 11.46,9.21 0.25,0.47 0.49,0.94 0.71,1.43 0.03,0.07 0.06,0.13 0.09,0.2 0.08,0.19 -0.04,-0.12 0.07,0.19 0.07,0.18 0.14,0.35 0.2,0.53 0.18,0.5 0.35,1.02 0.46,1.54 0.15,0.71 0.9,0.97 1.53,0.87 -0.11,0.02 -0.42,0.04 -0.11,0.02 0.19,-0.01 0.39,-0.03 0.59,-0.03 0.29,-0.01 0.58,0 0.87,0.01 0.17,0.01 0.34,0.02 0.51,0.03 0.09,0.01 0.18,0.02 0.27,0.03 0.05,0.01 0.09,0.01 0.14,0.01 0.18,0.02 -0.22,-0.03 -0.04,-0.01 2.31,0.36 4.26,1.17 6.16,2.52 2.71,1.92 4.91,4.84 6.19,7.89 0.5,1.2 0.89,2.62 1,3.81 0.05,0.56 0.06,1.13 0.03,1.68 -0.01,0.24 -0.03,0.49 -0.06,0.73 -0.02,0.25 0.02,-0.11 -0.02,0.12 -0.02,0.12 -0.04,0.25 -0.06,0.38 -0.09,0.46 -0.21,0.92 -0.36,1.36 -0.06,0.18 -0.13,0.35 -0.2,0.53 -0.07,0.2 0.12,-0.24 0,0 -0.03,0.07 -0.06,0.14 -0.09,0.2 -0.13,0.28 -0.28,0.57 -0.47,0.82 -0.39,0.54 -0.09,1.39 0.45,1.7 0.64,0.42 1.32,0.15 1.72,-0.4 z"
   id="path569"
   style="fill:#072f42" />
&#10;						<path
   class="st30"
   d="m -439.98,714.74 c 0.62,-0.85 1,-1.95 1.25,-2.96 0.64,-2.56 0.41,-5.29 -0.45,-7.77 -2.1,-6.05 -7.29,-11.59 -13.74,-12.87 -1.38,-0.27 -2.83,-0.41 -4.23,-0.19 0.51,0.29 1.02,0.58 1.53,0.87 -0.29,-1.36 -0.87,-2.69 -1.49,-3.92 -1.08,-2.15 -2.55,-4.14 -4.27,-5.81 -2.19,-2.13 -4.81,-3.8 -7.72,-4.75 -2.6,-0.85 -5.39,-1.16 -8.12,-1.15 -5.3,0.38 -7.05,2.7 -0.83,2.5 2.36,-0.08 4.74,0.09 7.03,0.68 4.95,1.26 9.04,4.76 11.46,9.21 0.25,0.47 0.49,0.94 0.71,1.43 0.03,0.07 0.06,0.13 0.09,0.2 0.08,0.19 -0.04,-0.12 0.07,0.19 0.07,0.18 0.14,0.35 0.2,0.53 0.18,0.5 0.35,1.02 0.46,1.54 0.15,0.71 0.9,0.97 1.53,0.87 -0.11,0.02 -0.42,0.04 -0.11,0.02 0.19,-0.01 0.39,-0.03 0.59,-0.03 0.29,-0.01 0.58,0 0.87,0.01 0.17,0.01 0.34,0.02 0.51,0.03 0.09,0.01 0.18,0.02 0.27,0.03 0.05,0.01 0.09,0.01 0.14,0.01 0.18,0.02 -0.22,-0.03 -0.04,-0.01 2.31,0.36 4.26,1.17 6.16,2.52 2.71,1.92 4.91,4.84 6.19,7.89 0.5,1.2 0.89,2.62 1,3.81 0.05,0.56 0.06,1.13 0.03,1.68 -0.01,0.24 -0.03,0.49 -0.06,0.73 -0.02,0.25 0.02,-0.11 -0.02,0.12 -0.02,0.12 -0.04,0.25 -0.06,0.38 -0.09,0.46 -0.21,0.92 -0.36,1.36 -0.06,0.18 -0.13,0.35 -0.2,0.53 -0.07,0.2 0.12,-0.24 0,0 -0.03,0.07 -0.06,0.14 -0.09,0.2 -0.13,0.28 -0.28,0.57 -0.47,0.82 -0.39,0.54 -0.09,1.39 0.45,1.7 0.64,0.42 1.32,0.15 1.72,-0.4 z"
   id="path571"
   style="fill:none;stroke:#0e6a93;stroke-miterlimit:10" />
&#10;					</g>
&#10;					<g
   id="path41_00000040539019869321787600000015783373705227946630_">&#10;						<path
   class="st29"
   d="m -622.64,686.16 c -2.16,0.76 -4.85,2.24 -6.98,3.71 -4.18,2.88 -7.56,6.8 -8.91,11.37 -0.4,1.37 -0.63,2.8 -0.67,4.21 -0.03,0.74 0,1.48 0.07,2.22 0.01,0.04 0.12,0.65 0.07,0.67 -0.09,0.04 0.19,-0.57 0.1,-0.39 -0.14,0.27 0.18,-0.14 0.02,-0.02 -0.09,0.06 -0.16,0.15 -0.25,0.22 -0.21,0.18 -0.43,0.34 -0.65,0.51 -0.61,0.47 -1.2,0.94 -1.76,1.45 -4.46,4.15 -5.91,10.43 -4.86,15.96 0.8,4.24 3.51,8.46 7.31,11.19 0.15,0.11 0.31,0.21 0.47,0.32 -0.21,-0.47 -0.44,-0.94 -0.65,-1.41 -0.77,4.78 0.61,10.12 3.68,14.1 0.01,0.17 4.15,-0.31 3.17,-0.39 -2.25,-2.46 -3.43,-5.38 -3.98,-8.48 -0.01,-0.04 -0.04,-0.25 -0.01,-0.02 -0.02,-0.09 -0.03,-0.19 -0.04,-0.29 -0.02,-0.17 -0.05,-0.34 -0.06,-0.5 -0.03,-0.31 -0.06,-0.63 -0.08,-0.95 -0.03,-0.55 -0.04,-1.11 -0.03,-1.66 0.01,-0.35 0.03,-0.7 0.06,-1.06 0.02,-0.17 0.11,-0.76 0,-0.1 0.1,-0.62 -0.09,-1.04 -0.65,-1.41 0.25,0.16 0.3,0.21 0.06,0.03 -0.2,-0.14 -0.39,-0.29 -0.58,-0.45 -0.63,-0.51 -1.23,-1.07 -1.78,-1.65 -0.41,-0.43 -0.51,-0.54 -0.92,-1.06 -0.4,-0.49 -0.76,-1.01 -1.1,-1.53 -0.73,-1.14 -1.28,-2.27 -1.69,-3.53 -0.97,-3 -0.88,-6.26 -0.02,-9.28 0.36,-1.25 0.77,-2.27 1.43,-3.35 0.29,-0.47 0.61,-0.94 0.96,-1.38 0.07,-0.09 0.15,-0.18 0.22,-0.27 0.05,-0.06 0.23,-0.26 0.07,-0.09 0.16,-0.19 0.34,-0.37 0.51,-0.55 0.94,-0.95 2.12,-1.68 3.08,-2.61 0.53,-0.51 0.8,-1.03 0.72,-1.72 -0.16,-1.41 -0.18,-2.85 0.05,-4.26 0.68,-4.43 3.48,-8.22 7.32,-11.18 0.41,-0.31 0.82,-0.61 1.24,-0.91 0.21,-0.15 -0.12,0.08 0.09,-0.06 0.11,-0.07 0.21,-0.14 0.33,-0.21 0.2,-0.13 0.4,-0.25 0.6,-0.38 0.72,-0.45 1.47,-0.88 2.24,-1.27 0.88,-0.46 1.79,-0.86 2.72,-1.24 0.28,-0.11 -0.28,0.1 -0.19,0.07 0.78,-0.28 1.11,-0.79 0.99,-1.53 0.03,0.03 -0.59,-1.24 -1.72,-0.84 z"
   id="path574"
   style="fill:#072f42" />
&#10;						<path
   class="st30"
   d="m -622.64,686.16 c -2.16,0.76 -4.85,2.24 -6.98,3.71 -4.18,2.88 -7.56,6.8 -8.91,11.37 -0.4,1.37 -0.63,2.8 -0.67,4.21 -0.03,0.74 0,1.48 0.07,2.22 0.01,0.04 0.12,0.65 0.07,0.67 -0.09,0.04 0.19,-0.57 0.1,-0.39 -0.14,0.27 0.18,-0.14 0.02,-0.02 -0.09,0.06 -0.16,0.15 -0.25,0.22 -0.21,0.18 -0.43,0.34 -0.65,0.51 -0.61,0.47 -1.2,0.94 -1.76,1.45 -4.46,4.15 -5.91,10.43 -4.86,15.96 0.8,4.24 3.51,8.46 7.31,11.19 0.15,0.11 0.31,0.21 0.47,0.32 -0.21,-0.47 -0.44,-0.94 -0.65,-1.41 -0.77,4.78 0.61,10.12 3.68,14.1 0.01,0.17 4.15,-0.31 3.17,-0.39 -2.25,-2.46 -3.43,-5.38 -3.98,-8.48 -0.01,-0.04 -0.04,-0.25 -0.01,-0.02 -0.02,-0.09 -0.03,-0.19 -0.04,-0.29 -0.02,-0.17 -0.05,-0.34 -0.06,-0.5 -0.03,-0.31 -0.06,-0.63 -0.08,-0.95 -0.03,-0.55 -0.04,-1.11 -0.03,-1.66 0.01,-0.35 0.03,-0.7 0.06,-1.06 0.02,-0.17 0.11,-0.76 0,-0.1 0.1,-0.62 -0.09,-1.04 -0.65,-1.41 0.25,0.16 0.3,0.21 0.06,0.03 -0.2,-0.14 -0.39,-0.29 -0.58,-0.45 -0.63,-0.51 -1.23,-1.07 -1.78,-1.65 -0.41,-0.43 -0.51,-0.54 -0.92,-1.06 -0.4,-0.49 -0.76,-1.01 -1.1,-1.53 -0.73,-1.14 -1.28,-2.27 -1.69,-3.53 -0.97,-3 -0.88,-6.26 -0.02,-9.28 0.36,-1.25 0.77,-2.27 1.43,-3.35 0.29,-0.47 0.61,-0.94 0.96,-1.38 0.07,-0.09 0.15,-0.18 0.22,-0.27 0.05,-0.06 0.23,-0.26 0.07,-0.09 0.16,-0.19 0.34,-0.37 0.51,-0.55 0.94,-0.95 2.12,-1.68 3.08,-2.61 0.53,-0.51 0.8,-1.03 0.72,-1.72 -0.16,-1.41 -0.18,-2.85 0.05,-4.26 0.68,-4.43 3.48,-8.22 7.32,-11.18 0.41,-0.31 0.82,-0.61 1.24,-0.91 0.21,-0.15 -0.12,0.08 0.09,-0.06 0.11,-0.07 0.21,-0.14 0.33,-0.21 0.2,-0.13 0.4,-0.25 0.6,-0.38 0.72,-0.45 1.47,-0.88 2.24,-1.27 0.88,-0.46 1.79,-0.86 2.72,-1.24 0.28,-0.11 -0.28,0.1 -0.19,0.07 0.78,-0.28 1.11,-0.79 0.99,-1.53 0.03,0.03 -0.59,-1.24 -1.72,-0.84 z"
   id="path576"
   style="fill:none;stroke:#0e6a93;stroke-miterlimit:10" />
&#10;					</g>
&#10;					<g
   id="path47_00000098908588943514056930000011672768888676020896_">&#10;						<path
   class="st29"
   d="m -558.92,782.71 c 7.73,-4.89 16.24,-8.74 25.37,-11.16 8.05,-2.13 16.39,-3.13 24.78,-3.44 8.18,-0.3 16.36,0.02 24.53,0.32 8.1,0.3 16.22,0.57 24.31,0.17 8.1,-0.4 16.36,-1.41 24.04,-3.78 5.45,-1.68 11.02,-4.2 14.39,-8.47 2.43,-3.08 3.11,-6.94 1.86,-10.53 -1.35,-3.88 -4.48,-7.11 -8.08,-9.56 -4.47,-3.05 -9.8,-5.09 -15.3,-6.21 -6.51,-1.32 -13.28,-1.38 -19.84,-0.33 -1.72,0.28 -3.42,0.63 -5.1,1.06 -1.53,0.39 -0.88,2.5 0.66,2.11 6.38,-1.62 13.09,-2.16 19.69,-1.37 2.72,0.32 5.73,0.95 8.45,1.79 1.36,0.42 2.38,0.79 3.62,1.3 1.22,0.51 2.4,1.07 3.55,1.69 0.53,0.29 1.06,0.59 1.57,0.91 0.24,0.15 0.48,0.3 0.72,0.46 0.12,0.08 0.25,0.17 0.37,0.25 -0.17,-0.11 0.16,0.11 0.21,0.14 0.93,0.65 1.81,1.35 2.64,2.09 0.4,0.36 0.79,0.74 1.16,1.12 0.17,0.18 0.33,0.36 0.5,0.54 -0.16,-0.18 0.08,0.1 0.12,0.14 0.08,0.1 0.16,0.19 0.24,0.29 0.61,0.75 1.16,1.54 1.61,2.36 0.1,0.19 0.2,0.38 0.3,0.58 0.07,0.15 -0.06,-0.15 0.06,0.13 0.04,0.1 0.09,0.21 0.13,0.31 0.17,0.41 0.32,0.83 0.45,1.25 0.12,0.42 0.22,0.83 0.29,1.25 0.03,0.2 -0.02,-0.22 0.01,0.07 0.01,0.09 0.02,0.18 0.03,0.28 0.02,0.22 0.04,0.45 0.05,0.67 0.01,0.41 0.01,0.81 -0.03,1.22 -0.01,0.1 -0.02,0.21 -0.03,0.31 0,0.05 -0.01,0.1 -0.02,0.16 0,-0.03 0.04,-0.25 0,-0.06 -0.04,0.21 -0.08,0.42 -0.13,0.62 -0.1,0.41 -0.22,0.81 -0.38,1.2 -0.07,0.19 -0.16,0.38 -0.24,0.58 -0.08,0.19 0,0 0.01,-0.03 -0.02,0.05 -0.05,0.1 -0.07,0.15 -0.06,0.11 -0.12,0.23 -0.18,0.34 -0.22,0.4 -0.47,0.79 -0.74,1.17 -0.13,0.19 -0.28,0.37 -0.42,0.55 -0.08,0.1 -0.16,0.2 -0.24,0.29 -0.02,0.03 -0.15,0.18 -0.06,0.07 0.1,-0.11 -0.1,0.11 -0.1,0.11 -0.74,0.8 -1.56,1.52 -2.45,2.18 -0.95,0.7 -2.01,1.35 -3.21,1.98 -1.32,0.69 -2.7,1.29 -4.11,1.82 -3.46,1.3 -7.13,2.18 -10.81,2.87 -3.89,0.73 -7.83,1.22 -11.8,1.52 -7.96,0.59 -15.95,0.44 -23.92,0.17 -8,-0.27 -16,-0.66 -24.01,-0.56 -8.26,0.1 -16.53,0.75 -24.58,2.4 -8.79,1.81 -17.22,4.85 -24.94,8.97 -2.13,1.14 -4.21,2.35 -6.23,3.63 -0.54,0.35 -0.81,0.95 -0.45,1.49 0.36,0.49 1.2,0.76 1.75,0.42 z"
   id="path579"
   style="fill:#072f42" />
&#10;						<path
   class="st30"
   d="m -558.92,782.71 c 7.73,-4.89 16.24,-8.74 25.37,-11.16 8.05,-2.13 16.39,-3.13 24.78,-3.44 8.18,-0.3 16.36,0.02 24.53,0.32 8.1,0.3 16.22,0.57 24.31,0.17 8.1,-0.4 16.36,-1.41 24.04,-3.78 5.45,-1.68 11.02,-4.2 14.39,-8.47 2.43,-3.08 3.11,-6.94 1.86,-10.53 -1.35,-3.88 -4.48,-7.11 -8.08,-9.56 -4.47,-3.05 -9.8,-5.09 -15.3,-6.21 -6.51,-1.32 -13.28,-1.38 -19.84,-0.33 -1.72,0.28 -3.42,0.63 -5.1,1.06 -1.53,0.39 -0.88,2.5 0.66,2.11 6.38,-1.62 13.09,-2.16 19.69,-1.37 2.72,0.32 5.73,0.95 8.45,1.79 1.36,0.42 2.38,0.79 3.62,1.3 1.22,0.51 2.4,1.07 3.55,1.69 0.53,0.29 1.06,0.59 1.57,0.91 0.24,0.15 0.48,0.3 0.72,0.46 0.12,0.08 0.25,0.17 0.37,0.25 -0.17,-0.11 0.16,0.11 0.21,0.14 0.93,0.65 1.81,1.35 2.64,2.09 0.4,0.36 0.79,0.74 1.16,1.12 0.17,0.18 0.33,0.36 0.5,0.54 -0.16,-0.18 0.08,0.1 0.12,0.14 0.08,0.1 0.16,0.19 0.24,0.29 0.61,0.75 1.16,1.54 1.61,2.36 0.1,0.19 0.2,0.38 0.3,0.58 0.07,0.15 -0.06,-0.15 0.06,0.13 0.04,0.1 0.09,0.21 0.13,0.31 0.17,0.41 0.32,0.83 0.45,1.25 0.12,0.42 0.22,0.83 0.29,1.25 0.03,0.2 -0.02,-0.22 0.01,0.07 0.01,0.09 0.02,0.18 0.03,0.28 0.02,0.22 0.04,0.45 0.05,0.67 0.01,0.41 0.01,0.81 -0.03,1.22 -0.01,0.1 -0.02,0.21 -0.03,0.31 0,0.05 -0.01,0.1 -0.02,0.16 0,-0.03 0.04,-0.25 0,-0.06 -0.04,0.21 -0.08,0.42 -0.13,0.62 -0.1,0.41 -0.22,0.81 -0.38,1.2 -0.07,0.19 -0.16,0.38 -0.24,0.58 -0.08,0.19 0,0 0.01,-0.03 -0.02,0.05 -0.05,0.1 -0.07,0.15 -0.06,0.11 -0.12,0.23 -0.18,0.34 -0.22,0.4 -0.47,0.79 -0.74,1.17 -0.13,0.19 -0.28,0.37 -0.42,0.55 -0.08,0.1 -0.16,0.2 -0.24,0.29 -0.02,0.03 -0.15,0.18 -0.06,0.07 0.1,-0.11 -0.1,0.11 -0.1,0.11 -0.74,0.8 -1.56,1.52 -2.45,2.18 -0.95,0.7 -2.01,1.35 -3.21,1.98 -1.32,0.69 -2.7,1.29 -4.11,1.82 -3.46,1.3 -7.13,2.18 -10.81,2.87 -3.89,0.73 -7.83,1.22 -11.8,1.52 -7.96,0.59 -15.95,0.44 -23.92,0.17 -8,-0.27 -16,-0.66 -24.01,-0.56 -8.26,0.1 -16.53,0.75 -24.58,2.4 -8.79,1.81 -17.22,4.85 -24.94,8.97 -2.13,1.14 -4.21,2.35 -6.23,3.63 -0.54,0.35 -0.81,0.95 -0.45,1.49 0.36,0.49 1.2,0.76 1.75,0.42 z"
   id="path581"
   style="fill:none;stroke:#0e6a93;stroke-miterlimit:10" />
&#10;					</g>
&#10;					<g
   id="path77_00000179647122316854748150000002551737629068623233_">&#10;						<path
   class="st29"
   d="m -475.92,676.31 c -3.63,-0.39 -7.32,0.62 -10.55,2.23 -3.41,1.7 -6.45,4.19 -8.75,7.23 -1.23,1.62 -2.2,3.44 -2.8,5.39 -0.47,1.53 1.93,2.19 2.4,0.66 0.96,-3.1 3.05,-5.74 5.47,-7.86 2.56,-2.23 5.66,-3.93 8.95,-4.76 1.73,-0.44 3.49,-0.59 5.27,-0.4 0.67,0.07 1.25,-0.62 1.25,-1.25 0,-0.72 -0.57,-1.16 -1.24,-1.24 z"
   id="path584"
   style="fill:#072f42" />
&#10;						<path
   class="st30"
   d="m -475.92,676.31 c -3.63,-0.39 -7.32,0.62 -10.55,2.23 -3.41,1.7 -6.45,4.19 -8.75,7.23 -1.23,1.62 -2.2,3.44 -2.8,5.39 -0.47,1.53 1.93,2.19 2.4,0.66 0.96,-3.1 3.05,-5.74 5.47,-7.86 2.56,-2.23 5.66,-3.93 8.95,-4.76 1.73,-0.44 3.49,-0.59 5.27,-0.4 0.67,0.07 1.25,-0.62 1.25,-1.25 0,-0.72 -0.57,-1.16 -1.24,-1.24 z"
   id="path586"
   style="fill:none;stroke:#0e6a93;stroke-miterlimit:10" />
&#10;					</g>
&#10;					<path
   class="st3"
   d="m -409.07,715.06 c -1.16,0 -2.31,-0.09 -3.43,-0.28 -2.6,-0.43 -4.02,-0.97 -6.22,-2.02 -0.44,-0.21 -0.77,-0.61 -0.92,-1.11 -0.17,-0.54 -0.1,-1.14 0.17,-1.6 0.34,-0.59 0.97,-0.95 1.67,-0.95 0.32,0 0.65,0.08 0.95,0.22 1.95,0.92 2.94,1.24 5.07,1.62 1.17,0.09 2.12,0.13 3,0.13 1.46,0 2.71,-0.12 3.92,-0.39 0.15,-0.03 0.3,-0.05 0.45,-0.05 1,0 1.84,0.79 1.95,1.83 0.11,0.98 -0.47,1.79 -1.44,2 -1.76,0.4 -3.5,0.6 -5.17,0.6 z"
   id="path589"
   style="fill:#072f42;stroke:#0e6a93;stroke-miterlimit:10" />
&#10;					<path
   id="path83_00000166664494283283894840000005236840794858354055_"
   class="st3"
   d="m -418.41,712.12 c 2.24,1.07 3.57,1.55 6.03,1.96 2.79,0.46 5.58,0.31 8.34,-0.3 1.56,-0.34 0.9,-2.75 -0.66,-2.4 -2.36,0.52 -4.65,0.47 -7.2,0.26 -2.18,-0.38 -3.26,-0.73 -5.25,-1.67 -0.61,-0.29 -1.35,-0.17 -1.7,0.45 -0.33,0.54 -0.18,1.41 0.44,1.7 z"
   style="fill:#072f42;stroke:#0e6a93;stroke-miterlimit:10" />
&#10;					<path
   class="st3"
   d="m -485.3,660.36 c -0.17,0 -0.35,-0.02 -0.52,-0.07 -0.53,-0.15 -1,-0.55 -1.26,-1.06 -0.23,-0.46 -0.26,-0.97 -0.09,-1.41 1.05,-2.68 2.51,-4.63 4.48,-5.98 1.82,-1.25 4.05,-1.88 6.64,-1.88 1.06,0 2.17,0.11 3.31,0.32 1.21,0.26 2.45,0.55 3.51,1 3.31,-2.13 6.51,-0.69 9.56,-4.66 0.12,-0.03 0.23,-0.06 0.37,-0.06 1.13,0 1.78,0.93 1.84,1.86 0.06,0.97 -0.53,1.74 -1.38,1.84 -4.69,0.87 -6.28,2.05 -8.26,4.54 -0.48,0.55 -1.04,0.81 -1.69,0.81 -0.51,0 -1.09,-0.16 -1.77,-0.48 -1.84,-0.87 -3.65,-1.31 -5.4,-1.31 -0.96,0 -1.91,0.14 -2.81,0.41 -2.1,0.72 -3.28,1.59 -4.68,4.8 -0.32,0.8 -1.03,1.33 -1.85,1.33 z"
   id="path592"
   style="fill:#072f42;stroke:#0e6a93;stroke-miterlimit:10" />
&#10;					<path
   id="path95_00000137818017327238314910000005498330389326668416_"
   class="st3"
   d="m -459.3,647.26 c 1.34,0 1.52,2.15 0.37,2.29 -4.72,0.87 -6.54,2.04 -8.73,4.8 -0.55,0.63 -1.27,0.76 -2.61,0.13 -3.02,-1.43 -6,-1.75 -8.71,-0.94 -2.38,0.82 -3.67,1.84 -5.13,5.2 -0.25,0.63 -0.83,1.07 -1.53,0.87 -0.6,-0.17 -1.12,-0.91 -0.87,-1.53 0.88,-2.26 2.2,-4.27 4.22,-5.65 2.75,-1.88 6.24,-2.04 9.42,-1.45 1.42,0.3 2.76,0.64 3.81,1.16 3.02,-3.26 5.97,-4.35 9.48,-4.82 0.1,-0.02 0.19,-0.06 0.28,-0.06 z"
   style="fill:#072f42;stroke:#0e6a93;stroke-miterlimit:10" />
&#10;					<g
   id="path133_00000079452250035905575730000003788563230287214730_">&#10;						<path
   class="st29"
   d="m -636.4,741.08 c -0.25,-1.37 -0.23,-2.55 0.24,-3.76 0.02,-0.06 0.16,-0.37 0.12,-0.29 -0.04,0.08 0.12,-0.22 0.15,-0.27 0.14,-0.23 0.28,-0.46 0.45,-0.67 0.09,-0.12 0.19,-0.24 0.29,-0.36 -0.15,0.16 0.03,-0.03 0.09,-0.08 0.2,-0.2 0.41,-0.4 0.63,-0.59 0.42,-0.37 0.87,-0.71 1.34,-1.04 0.11,-0.08 0.23,-0.15 0.34,-0.23 0.05,-0.03 0.1,-0.06 0.15,-0.1 -0.21,0.14 -0.03,0.02 0.01,-0.01 0.24,-0.16 0.49,-0.32 0.73,-0.49 0.96,-0.65 1.93,-1.3 2.73,-2.1 0.98,-1 1.71,-2.16 1.96,-3.47 0.12,-0.66 -0.2,-1.34 -0.99,-1.53 -0.68,-0.16 -1.61,0.2 -1.74,0.87 -0.05,0.26 -0.11,0.52 -0.2,0.77 -0.05,0.14 -0.1,0.27 -0.16,0.41 0.11,-0.24 -0.07,0.11 -0.1,0.18 -0.12,0.21 -0.27,0.42 -0.42,0.62 -0.04,0.05 -0.25,0.3 -0.16,0.2 0.08,-0.09 -0.17,0.17 -0.22,0.23 -0.39,0.39 -0.82,0.74 -1.27,1.08 -0.21,0.16 -0.43,0.31 -0.65,0.47 -0.07,0.04 -0.35,0.24 -0.14,0.1 -0.13,0.08 -0.26,0.17 -0.38,0.26 -2.18,1.46 -4.26,2.97 -5.21,5.33 -0.67,1.65 -0.58,3.44 -0.27,5.14 0.12,0.66 1.06,1.04 1.74,0.87 0.75,-0.2 1.06,-0.87 0.94,-1.54 z"
   id="path595"
   style="fill:#072f42" />
&#10;						<path
   class="st30"
   d="m -636.4,741.08 c -0.25,-1.37 -0.23,-2.55 0.24,-3.76 0.02,-0.06 0.16,-0.37 0.12,-0.29 -0.04,0.08 0.12,-0.22 0.15,-0.27 0.14,-0.23 0.28,-0.46 0.45,-0.67 0.09,-0.12 0.19,-0.24 0.29,-0.36 -0.15,0.16 0.03,-0.03 0.09,-0.08 0.2,-0.2 0.41,-0.4 0.63,-0.59 0.42,-0.37 0.87,-0.71 1.34,-1.04 0.11,-0.08 0.23,-0.15 0.34,-0.23 0.05,-0.03 0.1,-0.06 0.15,-0.1 -0.21,0.14 -0.03,0.02 0.01,-0.01 0.24,-0.16 0.49,-0.32 0.73,-0.49 0.96,-0.65 1.93,-1.3 2.73,-2.1 0.98,-1 1.71,-2.16 1.96,-3.47 0.12,-0.66 -0.2,-1.34 -0.99,-1.53 -0.68,-0.16 -1.61,0.2 -1.74,0.87 -0.05,0.26 -0.11,0.52 -0.2,0.77 -0.05,0.14 -0.1,0.27 -0.16,0.41 0.11,-0.24 -0.07,0.11 -0.1,0.18 -0.12,0.21 -0.27,0.42 -0.42,0.62 -0.04,0.05 -0.25,0.3 -0.16,0.2 0.08,-0.09 -0.17,0.17 -0.22,0.23 -0.39,0.39 -0.82,0.74 -1.27,1.08 -0.21,0.16 -0.43,0.31 -0.65,0.47 -0.07,0.04 -0.35,0.24 -0.14,0.1 -0.13,0.08 -0.26,0.17 -0.38,0.26 -2.18,1.46 -4.26,2.97 -5.21,5.33 -0.67,1.65 -0.58,3.44 -0.27,5.14 0.12,0.66 1.06,1.04 1.74,0.87 0.75,-0.2 1.06,-0.87 0.94,-1.54 z"
   id="path597"
   style="fill:none;stroke:#0e6a93;stroke-miterlimit:10" />
&#10;					</g>
&#10;					<g
   id="g604">&#10;						<path
   class="st29"
   d="m -412.83,787.83 c -0.41,0 -0.8,-0.16 -1.06,-0.44 -0.25,-0.25 -0.37,-0.58 -0.35,-0.95 0.61,-3.8 2.8,-4.92 4.3,-5.54 -1.94,-3.13 -1.84,-5.84 -1.03,-9.16 0.13,-0.55 0.57,-0.89 1.14,-0.89 0.47,0 0.94,0.23 1.23,0.6 0.25,0.32 0.34,0.72 0.25,1.12 -0.28,1.14 -0.37,2.22 -0.27,3.29 0.07,0.71 0.25,1.46 0.52,2.19 0.03,0.07 0.05,0.14 0.08,0.21 l 0.04,0.08 c 0.53,1.08 0.79,1.49 1.38,2.14 0.1,0.11 0.21,0.22 0.32,0.32 0.36,0.32 0.51,0.76 0.4,1.21 -0.12,0.47 -0.51,0.87 -0.98,0.97 l -0.43,0.12 -0.23,-0.37 0.13,0.41 c -0.71,0.23 -1.3,0.48 -1.83,0.76 -0.7,0.37 -1.22,0.75 -1.66,1.23 -0.4,0.43 -0.65,1 -0.67,1.52 -0.02,0.69 -0.55,1.18 -1.28,1.18 z"
   id="path600"
   style="fill:#072f42" />
&#10;						<path
   class="st30"
   d="m -412.83,787.83 c -0.41,0 -0.8,-0.16 -1.06,-0.44 -0.25,-0.25 -0.37,-0.58 -0.35,-0.95 0.61,-3.8 2.8,-4.92 4.3,-5.54 -1.94,-3.13 -1.84,-5.84 -1.03,-9.16 0.13,-0.55 0.57,-0.89 1.14,-0.89 0.47,0 0.94,0.23 1.23,0.6 0.25,0.32 0.34,0.72 0.25,1.12 -0.28,1.14 -0.37,2.22 -0.27,3.29 0.07,0.71 0.25,1.46 0.52,2.19 0.03,0.07 0.05,0.14 0.08,0.21 l 0.04,0.08 c 0.53,1.08 0.79,1.49 1.38,2.14 0.1,0.11 0.21,0.22 0.32,0.32 0.36,0.32 0.51,0.76 0.4,1.21 -0.12,0.47 -0.51,0.87 -0.98,0.97 l -0.43,0.12 -0.23,-0.37 0.13,0.41 c -0.71,0.23 -1.3,0.48 -1.83,0.76 -0.7,0.37 -1.22,0.75 -1.66,1.23 -0.4,0.43 -0.65,1 -0.67,1.52 -0.02,0.69 -0.55,1.18 -1.28,1.18 z"
   id="path602"
   style="fill:none;stroke:#0e6a93;stroke-miterlimit:10" />
&#10;					</g>
&#10;					<g
   id="path157_00000165230149945519064640000006368153521102333573_">&#10;						<path
   class="st29"
   d="m -411.97,786.63 c 0.03,-0.68 0.36,-1.33 0.78,-1.79 0.52,-0.57 1.11,-0.97 1.78,-1.32 0.58,-0.3 1.19,-0.56 1.82,-0.77 0.05,-0.02 0.11,-0.03 0.16,-0.05 0.19,-0.07 -0.05,0.01 0.01,0 0.08,-0.02 0.16,-0.05 0.24,-0.07 0.08,-0.02 0.16,-0.04 0.24,-0.06 0.58,-0.14 0.98,-0.94 0.39,-1.45 -0.13,-0.11 -0.24,-0.24 -0.36,-0.36 -0.64,-0.71 -0.92,-1.16 -1.42,-2.18 -0.02,-0.04 -0.1,-0.23 -0.05,-0.09 -0.04,-0.1 -0.08,-0.19 -0.11,-0.29 -0.29,-0.77 -0.48,-1.56 -0.55,-2.3 -0.11,-1.18 0.01,-2.32 0.28,-3.43 0.26,-1.08 -1.53,-1.71 -1.79,-0.62 -0.79,3.26 -0.96,5.97 1.26,9.26 -1.45,0.58 -3.88,1.42 -4.51,5.35 -0.06,1.14 1.78,1.31 1.83,0.17 z"
   id="path606"
   style="fill:#072f42" />
&#10;						<path
   class="st30"
   d="m -411.97,786.63 c 0.03,-0.68 0.36,-1.33 0.78,-1.79 0.52,-0.57 1.11,-0.97 1.78,-1.32 0.58,-0.3 1.19,-0.56 1.82,-0.77 0.05,-0.02 0.11,-0.03 0.16,-0.05 0.19,-0.07 -0.05,0.01 0.01,0 0.08,-0.02 0.16,-0.05 0.24,-0.07 0.08,-0.02 0.16,-0.04 0.24,-0.06 0.58,-0.14 0.98,-0.94 0.39,-1.45 -0.13,-0.11 -0.24,-0.24 -0.36,-0.36 -0.64,-0.71 -0.92,-1.16 -1.42,-2.18 -0.02,-0.04 -0.1,-0.23 -0.05,-0.09 -0.04,-0.1 -0.08,-0.19 -0.11,-0.29 -0.29,-0.77 -0.48,-1.56 -0.55,-2.3 -0.11,-1.18 0.01,-2.32 0.28,-3.43 0.26,-1.08 -1.53,-1.71 -1.79,-0.62 -0.79,3.26 -0.96,5.97 1.26,9.26 -1.45,0.58 -3.88,1.42 -4.51,5.35 -0.06,1.14 1.78,1.31 1.83,0.17 z"
   id="path608"
   style="fill:none;stroke:#0e6a93;stroke-miterlimit:10" />
&#10;					</g>
&#10;					<g
   id="path2195_00000051370390319534786820000018179283123260840355_">&#10;						<path
   class="st27"
   d="m -654.08,750.5 c -10.36,3.8 -6.54,18.29 -6.54,18.29"
   id="path611"
   style="fill:none;stroke:#0e6a93;stroke-width:4;stroke-linecap:round;stroke-linejoin:round;stroke-miterlimit:5" />
&#10;					</g>
&#10;					<g
   id="path2197_00000133499417737384569160000011214409260090482598_">&#10;						<path
   class="st31"
   d="m -583.45,720.85 c -0.08,-8.57 16.17,-16.73 24.51,-9.71 6.34,-7.96 15.56,-10.57 22.82,-10.81 7.26,-0.23 17.54,3.8 19.59,9.52"
   id="path614"
   style="fill:none;stroke:#0e6a93;stroke-width:3;stroke-linecap:round;stroke-linejoin:round;stroke-miterlimit:5" />
&#10;					</g>
&#10;					<g
   id="path11296_00000149365622572045657260000014955122282193126067_">&#10;						<path
   class="st31"
   d="m -493.84,754.23 c -20.64,-0.37 -45.38,-3.44 -62.39,-8.06 -13.65,-3.13 -45.75,-6.5 -59.18,36.21"
   id="path617"
   style="fill:none;stroke:#0e6a93;stroke-width:3;stroke-linecap:round;stroke-linejoin:round;stroke-miterlimit:5" />
&#10;					</g>
&#10;					<g
   id="path157_00000041291802637164053620000002837235333837662911_">&#10;						<path
   class="st29"
   d="m -570.62,668.65 c 1.07,-0.37 2.26,-0.25 3.22,0.12 1.19,0.46 2.16,1.13 3.09,1.94 0.82,0.71 1.57,1.5 2.27,2.34 0.06,0.07 0.11,0.14 0.17,0.21 0.21,0.25 -0.05,-0.07 0.01,0.01 0.09,0.11 0.17,0.22 0.25,0.34 0.08,0.11 0.16,0.21 0.24,0.33 0.56,0.81 2.03,0.95 2.46,-0.27 0.09,-0.26 0.22,-0.51 0.34,-0.76 0.7,-1.4 1.23,-2.1 2.5,-3.49 0.05,-0.06 0.29,-0.3 0.12,-0.13 0.12,-0.12 0.25,-0.24 0.38,-0.35 1.01,-0.91 2.11,-1.67 3.21,-2.22 1.75,-0.88 3.57,-1.38 5.44,-1.63 1.82,-0.24 1.72,-3.37 -0.12,-3.12 -5.48,0.74 -9.75,2.1 -13.48,7.48 -1.77,-1.88 -4.51,-5.12 -10.93,-3.73 -1.79,0.61 -0.94,3.55 0.83,2.93 z"
   id="path620"
   style="fill:#072f42" />
&#10;						<path
   class="st30"
   d="m -570.62,668.65 c 1.07,-0.37 2.26,-0.25 3.22,0.12 1.19,0.46 2.16,1.13 3.09,1.94 0.82,0.71 1.57,1.5 2.27,2.34 0.06,0.07 0.11,0.14 0.17,0.21 0.21,0.25 -0.05,-0.07 0.01,0.01 0.09,0.11 0.17,0.22 0.25,0.34 0.08,0.11 0.16,0.21 0.24,0.33 0.56,0.81 2.03,0.95 2.46,-0.27 0.09,-0.26 0.22,-0.51 0.34,-0.76 0.7,-1.4 1.23,-2.1 2.5,-3.49 0.05,-0.06 0.29,-0.3 0.12,-0.13 0.12,-0.12 0.25,-0.24 0.38,-0.35 1.01,-0.91 2.11,-1.67 3.21,-2.22 1.75,-0.88 3.57,-1.38 5.44,-1.63 1.82,-0.24 1.72,-3.37 -0.12,-3.12 -5.48,0.74 -9.75,2.1 -13.48,7.48 -1.77,-1.88 -4.51,-5.12 -10.93,-3.73 -1.79,0.61 -0.94,3.55 0.83,2.93 z"
   id="path622"
   style="fill:none;stroke:#0e6a93;stroke-miterlimit:10" />
&#10;					</g>
&#10;					<g
   id="g629">&#10;						<path
   class="st29"
   d="m -524.67,648.76 c -0.49,0 -0.99,-0.28 -1.25,-0.72 -0.24,-0.4 -0.25,-0.87 -0.03,-1.28 1.96,-2.82 4.11,-3.14 5.55,-3.14 0.26,0 0.5,0.01 0.73,0.03 -0.38,-3.66 0.89,-6.06 3.06,-8.69 0.23,-0.28 0.54,-0.44 0.88,-0.44 0.51,0 1.02,0.35 1.27,0.88 0.23,0.49 0.17,1.03 -0.16,1.43 -0.75,0.91 -1.3,1.84 -1.67,2.84 -0.25,0.67 -0.41,1.43 -0.48,2.2 -0.01,0.07 -0.01,0.15 -0.02,0.22 v 0.09 c 0,1.2 0.06,1.69 0.31,2.53 0.04,0.14 0.09,0.29 0.15,0.43 0.17,0.39 0.14,0.81 -0.08,1.15 -0.24,0.37 -0.67,0.59 -1.11,0.59 -0.09,0 -0.18,-0.01 -0.27,-0.03 l -0.44,-0.08 -0.14,-0.02 c -0.57,-0.08 -1.1,-0.11 -1.59,-0.11 -0.12,0 -0.23,0 -0.35,0.01 -0.8,0.03 -1.42,0.14 -2.03,0.38 -0.54,0.22 -1.02,0.62 -1.26,1.08 -0.23,0.41 -0.62,0.65 -1.07,0.65 z"
   id="path625"
   style="fill:#072f42" />
&#10;						<path
   class="st30"
   d="m -524.67,648.76 c -0.49,0 -0.99,-0.28 -1.25,-0.72 -0.24,-0.4 -0.25,-0.87 -0.03,-1.28 1.96,-2.82 4.11,-3.14 5.55,-3.14 0.26,0 0.5,0.01 0.73,0.03 -0.38,-3.66 0.89,-6.06 3.06,-8.69 0.23,-0.28 0.54,-0.44 0.88,-0.44 0.51,0 1.02,0.35 1.27,0.88 0.23,0.49 0.17,1.03 -0.16,1.43 -0.75,0.91 -1.3,1.84 -1.67,2.84 -0.25,0.67 -0.41,1.43 -0.48,2.2 -0.01,0.07 -0.01,0.15 -0.02,0.22 v 0.09 c 0,1.2 0.06,1.69 0.31,2.53 0.04,0.14 0.09,0.29 0.15,0.43 0.17,0.39 0.14,0.81 -0.08,1.15 -0.24,0.37 -0.67,0.59 -1.11,0.59 -0.09,0 -0.18,-0.01 -0.27,-0.03 l -0.44,-0.08 -0.14,-0.02 c -0.57,-0.08 -1.1,-0.11 -1.59,-0.11 -0.12,0 -0.23,0 -0.35,0.01 -0.8,0.03 -1.42,0.14 -2.03,0.38 -0.54,0.22 -1.02,0.62 -1.26,1.08 -0.23,0.41 -0.62,0.65 -1.07,0.65 z"
   id="path627"
   style="fill:none;stroke:#0e6a93;stroke-miterlimit:10" />
&#10;					</g>
&#10;				</g>
&#10;			</g>
    <g
       id="g647"
       transform="matrix(0.35277777,0,0,0.35277777,263.17986,-191.3593)">&#10;				<path
   class="st38"
   d="m -316.56,1062.93 4.98,58.45 c 0.35,3.74 3.34,6.68 7.09,6.95 9.45,0.69 25.32,0.77 33.62,0.11 3.34,-0.27 6.16,-2.57 7.09,-5.79 l 78.44,-240.19 c 0,0 16.31,-38.73 -21.95,-56.3"
   id="path635"
   style="fill:none;stroke:#ff6633;stroke-width:2.5461;stroke-miterlimit:10" />
&#10;				<path
   class="st39"
   d="m -203.06,817.99 -7.31,14.83 c -1.03,2.09 -3.57,2.96 -5.66,1.93 l -147.81,-72.64 c -0.96,-0.47 -1.71,-1.29 -2.09,-2.3 l -4.1,-10.81 c -0.86,-2.26 0.35,-4.77 2.64,-5.52 l 11.91,-3.89 c 1.05,-0.34 2.19,-0.26 3.18,0.23 l 143.74,70.74 3.59,1.79 c 2.08,1.02 2.93,3.55 1.91,5.64 z"
   id="path637"
   style="fill:#e5e5e5;stroke:#ff6633;stroke-width:2.5461;stroke-miterlimit:10" />
&#10;				<line
   class="st40"
   x1="-341.09"
   y1="743.89001"
   x2="-353.23999"
   y2="768.25"
   id="line639"
   style="fill:none;stroke:#ff6633;stroke-width:2;stroke-linecap:round;stroke-miterlimit:10" />
&#10;				<line
   class="st41"
   x1="-331.17999"
   y1="748.95001"
   x2="-343.48001"
   y2="773.59998"
   id="line641"
   style="fill:none;stroke:#ff6633;stroke-width:2.0503;stroke-linecap:round;stroke-miterlimit:10" />
&#10;				<g
   id="g645">&#10;					<polygon
   class="st19"
   points="-369.27,744.68 -370.38,746.97 -408.13,727.19 "
   id="polygon643"
   style="fill:#ff6633" />
&#10;				</g>
&#10;			</g>
    <path
       class="st36"
       d="m 148.95395,182.49341 c 0,0 0.93486,-1.85913 2.55764,-1.83091 1.6263,0.0282 2.57528,1.86972 2.57528,1.86972 0,0 0.98777,1.59103 -0.88195,4.34622 h -2.64583 c -2.70228,-2.36361 -1.60514,-4.38503 -1.60514,-4.38503 z"
       id="path649"
       style="fill:#231f20;stroke:#0e6a93;stroke-width:0.720513;stroke-miterlimit:10" />
    <path
       class="st37"
       d="M 150.31567,189.05861"
       id="path651"
       style="fill:#231f20;stroke:#0e6a93;stroke-width:0.898207;stroke-miterlimit:10" />
    <text
       xml:space="preserve"
       transform="matrix(0.26458333,0,0,0.26458333,23.645473,25.610729)"
       id="text1"
       style="font-size:48px;font-family:'DejaVu Sans';-inkscape-font-specification:'DejaVu Sans';text-align:center;white-space:pre;shape-inside:url(#rect1);display:inline;fill:#393939;stroke:#ff6633;stroke-width:6.08126;stroke-linecap:round"><tspan
         x="100.37012"
         y="756.88086"
         id="tspan6"><tspan
           style="fill:#ff6633;stroke:none"
           id="tspan1">Create and manage </tspan></tspan><tspan
         x="247.19434"
         y="816.88086"
         id="tspan8"><tspan
           style="fill:#ff6633;stroke:none"
           id="tspan7">devices</tspan></tspan></text>
  </g>
</svg>
