<?xml version="1.0" encoding="UTF-8" standalone="no"?>
<!-- Created with Inkscape (http://www.inkscape.org/) -->

<svg
   version="1.1"
   id="svg8050"
   width="256"
   height="256"
   viewBox="0 0 256 256"
   sodipodi:docname="device_orange128.svg"
   inkscape:version="1.2 (1:1.2.1+202207142221+cd75a1ee6d)"
   xmlns:inkscape="http://www.inkscape.org/namespaces/inkscape"
   xmlns:sodipodi="http://sodipodi.sourceforge.net/DTD/sodipodi-0.dtd"
   xmlns="http://www.w3.org/2000/svg"
   xmlns:svg="http://www.w3.org/2000/svg">
  <defs
     id="defs8054" />
  <sodipodi:namedview
     id="namedview8052"
     pagecolor="#ffffff"
     bordercolor="#666666"
     borderopacity="1.0"
     inkscape:showpageshadow="2"
     inkscape:pageopacity="0.0"
     inkscape:pagecheckerboard="0"
     inkscape:deskcolor="#d1d1d1"
     showgrid="false"
     inkscape:zoom="3.3203125"
     inkscape:cx="77.703529"
     inkscape:cy="128.15059"
     inkscape:window-width="1848"
     inkscape:window-height="1016"
     inkscape:window-x="72"
     inkscape:window-y="27"
     inkscape:window-maximized="1"
     inkscape:current-layer="g8060" />
  <g
     inkscape:groupmode="layer"
     inkscape:label="Image"
     id="g8056">
    <g
       id="g8060"
       transform="translate(-3.3582544,2.7586213)">
      <path
         style="fill:#fed9cc;stroke-width:2"
         d="m 146,217.24488 c 0,-0.4153 1.575,-1.9903 3.5,-3.5 3.17211,-2.48774 3.24285,-2.417 0.75511,0.75512 C 147.64237,217.8315 146,218.89096 146,217.24488 Z m -100,-4 c 0,-0.4153 1.575,-1.9903 3.5,-3.5 3.172112,-2.48774 3.242852,-2.417 0.75511,0.75512 C 47.642372,213.8315 46,214.89096 46,213.24488 Z M 27.74489,170.5 c -2.487742,-3.17211 -2.417002,-3.24285 0.75511,-0.75511 1.925,1.50969 3.5,3.08469 3.5,3.5 0,1.64607 -1.642372,0.58661 -4.25511,-2.74489 z M 224,173.24489 c 0,-0.41531 1.575,-1.99031 3.5,-3.5 3.17212,-2.48774 3.24286,-2.417 0.75512,0.75511 C 225.64238,173.8315 224,174.89096 224,173.24489 Z"
         id="path8068" />
      <path
         style="fill:#feb299;stroke-width:2"
         d="m 76.5,220.50152 c 28.325,-0.31298 74.675,-0.31298 103,0 28.325,0.31298 5.15,0.56904 -51.5,0.56904 -56.65,0 -79.825,-0.25606 -51.5,-0.56904 z M 8.6562804,203 c 0.00888,-7.7 0.3703648,-10.60493 0.8033158,-6.45539 0.432951,4.14953 0.4256916,10.44953 -0.01614,13.99999 C 9.0016404,214.09508 8.6474078,210.7 8.6562804,203 Z M 37.5,214.67544 c 1.375,-0.55482 3.625,-0.55482 5,0 1.375,0.55482 0.25,1.00878 -2.5,1.00878 -2.75,0 -3.875,-0.45396 -2.5,-1.00878 z M 246.65628,203 c 0.008,-7.7 0.37036,-10.60493 0.80332,-6.45539 0.43294,4.14953 0.42568,10.44953 -0.016,13.99999 -0.44182,3.55048 -0.79606,0.1554 -0.78718,-7.5446 z m -230.036542,0 c 0.01122,-6.6 0.384602,-9.05888 0.829725,-5.46418 0.445122,3.5947 0.435938,8.9947 -0.02041,12 C 16.972704,212.54112 16.608513,209.6 16.619738,203 Z M 198.34941,204.59544 198,194.19087 l -12.5,-0.71008 -12.5,-0.71007 12.56277,-0.38536 c 14.28636,-0.43823 15.11399,0.3878 13.91282,13.88584 -0.775,8.70896 -0.77756,8.70516 -1.12618,-1.67576 z M 202.84394,203 l 0.156,-10 11.51002,-0.1644 11.51,-0.1644 -10.90884,0.7612 -10.90886,0.76119 -0.75722,9.4032 -0.75722,9.40322 0.156,-10 z m 25.72808,2 c 0.016,-5.5 0.40344,-7.51263 0.86314,-4.4725 0.45972,3.04012 0.44742,7.54012 -0.0272,10 -0.47472,2.45988 -0.85084,-0.0276 -0.83584,-5.5275 z m 10.04772,-2 c 0.012,-6.6 0.3846,-9.05888 0.82972,-5.46418 0.44512,3.5947 0.43594,8.9947 -0.0204,12 -0.45636,3.0053 -0.82054,0.0642 -0.80932,-6.53582 z m -142.028328,7.51174 c 8.575278,-0.3758 22.075278,-0.37352 29.999998,0.006 7.92473,0.3786 0.90859,0.68608 -15.59141,0.68328 -16.5,-0.002 -22.983864,-0.31258 -14.408588,-0.68838 z M 68.504366,203 c 0.0222,-4.4 0.43177,-5.96451 0.910156,-3.47668 0.478386,2.48782 0.460224,6.08782 -0.04036,8 C 68.873576,209.4355 68.482168,207.4 68.504366,203 Z m -42.114468,0 c 0.04076,-3.3 0.488996,-4.40787 0.996084,-2.46194 0.507086,1.94594 0.473738,4.64594 -0.0741,6 C 26.764028,207.89212 26.349138,206.3 26.389898,203 Z m 49.925892,1 c 0,-2.75 0.453946,-3.875 1.008772,-2.5 0.554824,1.375 0.554824,3.625 0,5 -0.554826,1.375 -1.008772,0.25 -1.008772,-2.5 z M 220,205.46618 c 0,-1.95612 -2.13842,-3.52444 -5.5,-4.03368 l -5.5,-0.83318 5.56276,-0.29966 c 5.30432,-0.28574 9.55852,4.24572 6.68432,7.11992 -0.6859,0.6859 -1.24708,-0.19314 -1.24708,-1.9534 z m -37.5,-4.84484 c 1.925,-0.50304 5.075,-0.50304 7,0 1.925,0.50306 0.35,0.91466 -3.5,0.91466 -3.85,0 -5.425,-0.4116 -3.5,-0.91466 z m -90,-12.11048 c 9.625,-0.36662 25.375,-0.36662 35,0 9.625,0.36663 1.75,0.6666 -17.5,0.6666 -19.25,0 -27.125,-0.29997 -17.5,-0.6666 z m -16,-4.00934 c 28.325,-0.31298 74.675,-0.31298 103,0 28.325,0.31297 5.15,0.56905 -51.5,0.56905 -56.65,0 -79.825,-0.25608 -51.5,-0.56905 z M 14.882772,107 c 9.49e-4,-31.9 0.277089,-44.669944 0.613644,-28.377652 0.336555,16.292292 0.335778,42.392292 -0.0017,58.000002 C 15.157187,152.23006 14.881823,138.9 14.882772,107 Z m 226.000008,0 c 9.4e-4,-31.9 0.27708,-44.669944 0.61364,-28.377652 0.33656,16.292292 0.33578,42.392292 -0.002,58.000002 C 241.15718,152.23006 240.88182,138.9 240.88278,107 Z m -62.72489,35.83333 c 0.096,-2.32988 0.56989,-2.8038 1.20834,-1.20833 0.57774,1.44375 0.50669,3.16875 -0.1579,3.83333 -0.66459,0.66459 -1.13728,-0.51666 -1.05044,-2.625 z m -103.999996,-12 c 0.09596,-2.32988 0.569882,-2.8038 1.208334,-1.20833 0.577742,1.44375 0.506688,3.16875 -0.1579,3.83333 -0.664584,0.66459 -1.137282,-0.51666 -1.05044,-2.625 z m 105.999996,-4 c 0.096,-2.32988 0.56989,-2.8038 1.20834,-1.20833 0.57774,1.44375 0.50669,3.16875 -0.1579,3.83333 -0.66459,0.66459 -1.13728,-0.51666 -1.05044,-2.625 z m -31.14373,-4.81042 c -0.70068,-1.13372 0.10212,-1.46902 1.88196,-0.78602 3.46484,1.32958 4.09878,2.76311 1.22191,2.76311 -1.03508,0 -2.43182,-0.88969 -3.10387,-1.97709 z m -76.856266,-7.18958 c 0.09596,-2.32988 0.569882,-2.8038 1.208334,-1.20833 0.577742,1.44375 0.506688,3.16875 -0.1579,3.83333 -0.664584,0.66459 -1.137282,-0.51666 -1.05044,-2.625 z M 174.31579,110 c 0,-2.75 0.45395,-3.875 1.00877,-2.5 0.55483,1.375 0.55483,3.625 0,5 -0.55482,1.375 -1.00877,0.25 -1.00877,-2.5 z m 7.8421,0.83333 c 0.096,-2.32988 0.56989,-2.8038 1.20834,-1.20833 0.57774,1.44375 0.50669,3.16875 -0.1579,3.83333 -0.66459,0.66459 -1.13728,-0.51666 -1.05044,-2.625 z M 196,108.11803 c 0,-1.03508 0.88969,-2.43182 1.97709,-3.10387 1.13372,-0.70068 1.46902,0.10212 0.78602,1.88196 C 197.43353,110.36096 196,110.9949 196,108.11803 Z m 27.52332,0.46745 c 2.48782,-0.47839 6.08782,-0.46023 8,0.0404 1.91218,0.50058 -0.1234,0.89199 -4.52332,0.86979 -4.4,-0.0222 -5.9645,-0.43177 -3.47668,-0.91015 z M 55.128586,100.58626 c -1.08537,-2.8504 -0.855642,-3.080128 1.11959,-1.119594 1.366836,1.356664 1.981342,2.970484 1.365568,3.586254 -0.615774,0.61578 -1.734096,-0.49422 -2.485158,-2.46666 z m 15.029308,-1.752926 c 0.09596,-2.329886 0.569882,-2.8038 1.208334,-1.208334 0.577742,1.44375 0.506688,3.16875 -0.1579,3.83333 -0.664584,0.66459 -1.137282,-0.51666 -1.05044,-2.624996 z M 78.31579,98 c 0,-2.75 0.453946,-3.875 1.008772,-2.5 0.554824,1.375 0.554824,3.625 0,5 -0.554826,1.375 -1.008772,0.25 -1.008772,-2.5 z m 47.23708,2.53301 c 4.70407,-0.42249 11.90407,-0.41655 16,0.0132 4.09592,0.42976 0.24713,0.77543 -8.55287,0.76817 -8.8,-0.007 -12.15121,-0.35888 -7.44713,-0.78137 z m 94.97463,0.0318 c 3.04012,-0.45971 7.54012,-0.44743 10,0.0273 2.45988,0.47472 -0.0276,0.85084 -5.5275,0.83583 -5.5,-0.015 -7.51262,-0.40343 -4.4725,-0.86313 z m -35.19417,-1.898184 c -0.73333,-0.733332 -1.30596,-2.758332 -1.27251,-4.5 0.0499,-2.600614 0.44022,-2.514214 2.18333,0.48334 2.15354,3.70338 1.52921,6.456684 -0.91082,4.01666 z M 176.31579,94 c 0,-2.75 0.45395,-3.875 1.00877,-2.5 0.55483,1.375 0.55483,3.625 0,5 -0.55482,1.375 -1.00877,0.25 -1.00877,-2.5 z M 66.157894,92.833334 c 0.09596,-2.329886 0.569882,-2.8038 1.208334,-1.208334 0.577742,1.44375 0.506688,3.16875 -0.1579,3.833334 -0.664584,0.664582 -1.137282,-0.516668 -1.05044,-2.625 z M 76.31579,82 c 0,-2.75 0.453946,-3.875 1.008772,-2.5 0.554824,1.375 0.554824,3.625 0,5 C 76.769736,85.875 76.31579,84.75 76.31579,82 Z M 60.157894,80.833334 c 0.09596,-2.329886 0.569882,-2.8038 1.208334,-1.208334 0.577742,1.44375 0.506688,3.16875 -0.1579,3.833334 -0.664584,0.664582 -1.137282,-0.516668 -1.05044,-2.625 z M 178.31579,78 c 0,-2.75 0.45395,-3.875 1.00877,-2.5 0.55483,1.375 0.55483,3.625 0,5 -0.55482,1.375 -1.00877,0.25 -1.00877,-2.5 z M 89.466666,75.751824 c 1.356668,-1.366836 2.970482,-1.981342 3.586256,-1.365568 0.615776,0.615774 -0.494224,1.734096 -2.466666,2.485158 -2.850396,1.08537 -3.080124,0.855642 -1.11959,-1.11959 z M 74.31579,66 c 0,-2.75 0.453946,-3.875 1.008772,-2.5 0.554824,1.375 0.554824,3.625 0,5 C 74.769736,69.875 74.31579,68.75 74.31579,66 Z M 22.157894,52.833334 c 0.09596,-2.329886 0.569882,-2.8038 1.208334,-1.208334 0.577742,1.44375 0.506688,3.16875 -0.1579,3.833334 -0.664584,0.664582 -1.137282,-0.516668 -1.05044,-2.625 z m 210.000006,0 c 0.096,-2.329886 0.56988,-2.8038 1.20832,-1.208334 0.57774,1.44375 0.5067,3.16875 -0.1578,3.833334 -0.6646,0.664582 -1.13728,-0.516668 -1.05044,-2.625 z"
         id="path8066" />
      <path
         style="fill:#fe8b66;stroke-width:2"
         d="M 70,54 C 68.197416,52.83508 67.950734,52.049028 69.381966,52.030626 70.692048,52.013782 72.320162,52.9 73,54 c 1.53461,2.48305 0.842246,2.48305 -3,0 z"
         id="path8064" />
      <path
         style="fill:#fe6532;stroke-width:2"
         d="m 14.828047,223.00986 c -4.629316,-4.62932 -4.948122,-6.17868 -4.409091,-21.42774 0.562043,-15.90008 0.784712,-16.57462 6.809201,-20.62735 6.186897,-4.16199 6.203459,-4.22025 2.5,-8.79383 C 16.275868,167.89755 16,163.11935 16,107.58702 16,39.79649 16.118165,39.204172 31.08776,31.957516 38.85706,28.196462 43.668058,28 128,28 c 84.33194,0 89.14294,0.19646 96.91224,3.957516 C 239.88184,39.204172 240,39.79649 240,107.58702 c 0,55.53233 -0.27586,60.31053 -3.72816,64.57392 -3.70346,4.57358 -3.6869,4.63184 2.5,8.79383 6.0245,4.05273 6.24716,4.72727 6.8092,20.62735 0.53904,15.24906 0.22022,16.79842 -4.40908,21.42774 L 236.18182,228 H 128 19.818182 Z M 236,218 c 3.10264,-3.10264 4,-6.66666 4,-15.8866 C 240,182.78548 247.50972,184 128,184 8.4902872,184 16,182.78548 16,202.1134 16,223.52862 7.3909118,222 128,222 c 101.33334,0 104.10256,-0.1026 108,-4 z M 73.309976,214.34252 C 69.442956,210.06952 68.857112,195.94289 72.4,192.4 c 1.686316,-1.68632 12.952576,-2.4 37.88659,-2.4 34.4036,0 35.58161,0.13566 38.6,4.44501 4.29036,6.12535 3.89842,14.76997 -0.88659,19.55499 -3.68339,3.68338 -6.66667,4 -37.69002,4 -30.09837,0 -34.042902,-0.38992 -37.000004,-3.65748 z m 67.526454,-3.5565 C 142.86717,210.00676 144,207.12474 144,202.73766 v -6.83438 l -33.5,0.54836 c -33.270374,0.5446 -33.50448,0.57996 -34.153528,5.15844 C 75.021346,210.95774 78.305152,212 109.08131,212 c 15.72535,0 30.01515,-0.54628 31.75512,-1.21398 z m 31.96753,2.4243 c -0.58877,-1.53432 -0.78553,-6.25932 -0.43723,-10.5 L 173,195 185.5,194.40457 198,193.80913 V 204.90456 216 h -12.06277 c -8.47328,0 -12.38132,-0.83012 -13.13327,-2.78968 z M 192,204 c 0,-3.11112 -1.33333,-4 -6,-4 -4.66667,0 -6,0.88888 -6,4 0,3.11112 1.33333,4 6,4 4.66667,0 6,-0.88888 6,-4 z m 12,1.0998 V 194 h 12.10452 12.10452 L 227.60452,204.5 227,215 215.5,215.5998 204,216.19962 Z M 222,204 c 0,-3.11112 -1.33334,-4 -6,-4 -4.66666,0 -6,0.88888 -6,4 0,3.11112 1.33334,4 6,4 4.66666,0 6,-0.88888 6,-4 z m -190.5,7.89026 c -5.51866,-3.29388 -4.652352,-15.043 1.401662,-19.00974 6.383928,-4.18291 10.713402,-3.1689 15.845314,3.71114 3.84857,5.15954 3.937406,6.0096 1.149566,11 -3.306536,5.91888 -12.200144,7.99698 -18.396542,4.2986 z m 12.139102,-9.4107 C 44.119328,199.11359 43.278592,198 40.257136,198 c -4.787022,0 -7.059154,3.02522 -5.44041,7.24358 1.710802,4.45828 8.076502,2.46394 8.822376,-2.76402 z M 227.2,171.2 234,164.4 V 136.2 108 h -6.97316 c -6.1115,0 -7.34366,0.88675 -9.97154,7.17615 -3.22668,7.72252 -7.64258,8.31534 -8.6944,1.16719 -1.0246,-6.96316 -3.64456,-5.04515 -6.3609,4.65666 -1.39488,4.98201 -3.72612,9 -5.22182,9 -2.86544,0 -3.08429,-0.66696 -7.83822,-23.8873 -1.67634,-8.188014 -3.3091,-15.148508 -3.62836,-15.467764 -0.31925,-0.319256 -2.22293,13.396374 -4.2304,30.479184 -3.04155,25.88247 -4.17097,30.95931 -6.7758,30.45766 -2.93777,-0.56576 -5.41894,-9.95739 -11.23419,-42.52324 -1.59277,-8.91961 -3.66972,-7.00583 -5.90538,5.44146 -1.71646,9.55653 -6.14983,9.76627 -10.56861,0.5 l -3.33807,-7 h -15.69234 c -12.10377,0 -15.95561,-0.68605 -16.84356,-3 -1.72415,-4.49307 -4.13296,-3.62418 -5.54454,2 -1.83541,7.31287 -4.85895,6.13328 -8.971286,-3.5 L 92.578872,95 90.42453,105 c -1.184888,5.5 -3.277112,16.1098 -4.649388,23.57733 -1.924104,10.47042 -3.213586,13.43936 -5.635094,12.9744 C 77.023988,140.95341 76.516658,138.35766 71.04166,95 69.24752,80.79184 67.688056,83.337996 63.934984,106.60314 c -1.364484,8.4584 -3.62893,16.94895 -5.0321,18.8679 -2.358702,3.22572 -2.710252,3.11321 -4.658762,-1.49102 -1.15915,-2.73901 -3.127434,-9.00731 -4.373966,-13.92954 -1.998872,-7.89305 -2.56418,-8.54232 -4.788774,-5.5 C 43.259604,107.04191 39.703936,108 32.279514,108 H 22 v 28.2 28.2 l 6.8,6.8 6.8,6.8 H 128 220.4 Z M 178.0413,89.396534 c 2.69807,-24.207084 6.15604,-32.488742 9.65111,-23.113914 0.96729,2.594558 3.38901,13.448584 5.38161,24.120056 1.99259,10.671474 4.26406,19.006414 5.04771,18.522094 0.78365,-0.48433 2.01763,-4.04053 2.74217,-7.90268 1.66852,-8.893956 6.20216,-9.131432 9.96722,-0.52209 1.56342,3.575 2.916,5.375 3.00574,4 C 213.9442,102.85509 217.42034,102 224,102 h 10 V 76.90068 C 234,49.292012 232.06868,42.495874 223.05588,38.38937 214.73608,34.598614 39.693988,35.021284 32.29005,38.850008 23.790542,43.245276 22,49.726014 22,76.094106 V 100 h 8.69662 c 8.288976,0 8.843922,-0.374992 11.83911,-8 3.110696,-7.919064 6.807786,-10.33165 8.428296,-5.5 0.461166,1.375 1.905074,6.55 3.208684,11.5 1.303608,4.95 2.630686,8.1 2.949062,7 0.318374,-1.1 2.578728,-13.065474 5.023008,-26.58994 3.627948,-20.073838 5.032862,-24.476892 7.649682,-23.974402 3.182386,0.611094 3.89949,4.257552 9.092008,46.232722 0.793888,6.41761 1.942892,11.16892 2.553344,10.55847 0.610452,-0.61045 2.598372,-8.55605 4.417598,-17.656888 4.12341,-20.627726 8.342328,-23.151922 12.377944,-7.405776 l 2.659254,10.375848 2.61761,-6.415046 c 3.33813,-8.18086 6.5041,-7.07602 10.02945,3.500012 l 2.79166,8.375 h 15.43334 c 8.78331,0 16.40472,0.97139 17.68774,2.25441 2.2226,2.2226 3.11693,0.0297 7.65634,-18.773306 1.54227,-6.38833 4.69907,-9.024894 6.77805,-5.661032 0.79287,1.282892 3.07582,11.523196 5.07323,22.756228 4.22638,23.76831 5.10293,22.49588 9.07927,-13.179766 z"
         id="path8062" />
    </g>
  </g>
</svg>
