<?xml version="1.0" encoding="UTF-8" standalone="no"?>
<!-- Created with Inkscape (http://www.inkscape.org/) -->

<svg
   version="1.1"
   id="svg16109"
   width="256"
   height="256"
   viewBox="0 0 256 256"
   sodipodi:docname="Documents-02-256_nest.svg"
   inkscape:version="1.2 (1:1.2.1+202207142221+cd75a1ee6d)"
   xmlns:inkscape="http://www.inkscape.org/namespaces/inkscape"
   xmlns:sodipodi="http://sodipodi.sourceforge.net/DTD/sodipodi-0.dtd"
   xmlns="http://www.w3.org/2000/svg"
   xmlns:svg="http://www.w3.org/2000/svg">
  <defs
     id="defs16113" />
  <sodipodi:namedview
     id="namedview16111"
     pagecolor="#ffffff"
     bordercolor="#666666"
     borderopacity="1.0"
     inkscape:showpageshadow="2"
     inkscape:pageopacity="0.0"
     inkscape:pagecheckerboard="0"
     inkscape:deskcolor="#d1d1d1"
     showgrid="false"
     inkscape:zoom="3.3203125"
     inkscape:cx="77.703529"
     inkscape:cy="19.727059"
     inkscape:window-width="1848"
     inkscape:window-height="1016"
     inkscape:window-x="72"
     inkscape:window-y="27"
     inkscape:window-maximized="1"
     inkscape:current-layer="g16115" />
  <g
     inkscape:groupmode="layer"
     inkscape:label="Image"
     id="g16115">
    <g
       id="g16119"
       transform="translate(8.3897653,0.09869459)">
      <path
         style="fill:#fed8cc"
         d="M 55,143 V 30 l 60.75,8.73e-4 60.75,8.73e-4 25.75,25.082053 L 228,80.165853 V 168.08293 256 H 141.5 55 Z m 156,22 V 91 H 189 167 V 69.5 48 H 119.5 72 V 143.5 239 H 141.5 211 Z M 90,210 v -5 h 49.5 49.5 v 5 5 H 139.5 90 Z m 0,-44.5 V 161 h 49.5 49.5 v 4.5 4.5 H 139.5 90 Z M 90,121 v -5.03267 l 26.75,0.26634 26.75,0.26633 v 4.5 4.5 L 116.75,125.76633 90,126.03267 Z M 28,107.5 V 0 h 75 75 v 5 5 H 108 38 V 112.5 215 h -5 -5 z"
         id="path16133" />
      <path
         style="fill:#fec4b1"
         d="M 55.245709,143.25 55.5,30.5 115.84051,30.242158 176.18102,29.984316 202.09051,55.145308 228,80.3063 V 168.15315 256 H 141.49571 54.991418 Z M 211,164.5 V 90 H 189 167 V 69 48 H 119.5 72 V 143.5 239 H 141.5 211 Z M 90,210 v -5 h 49.5 49.5 v 5 5 H 139.5 90 Z m 0,-44.5 V 161 h 49.5 49.5 v 4.5 4.5 H 139.5 90 Z m 0,-44 V 117 h 26.5 26.5 v 4.5 4.5 H 116.5 90 Z m -62,-14 V 0 h 75 75 v 5 5 H 108 38 V 112.5 215 h -5 -5 z"
         id="path16131" />
      <path
         style="fill:#feb198"
         d="M 56,143 V 30 h 60.08028 60.08028 l 25.91948,25.25 25.91948,25.25 2.4e-4,87.75 L 228,256 H 142 56 Z M 211.75641,164.75 211.5,90.5 189.25,90.230868 167,89.961737 V 68.480868 47 H 119.5 72 v 96 96 h 70.00641 70.0064 z M 90,210.5 V 206 h 49.5 49.5 v 4.5 4.5 H 139.5 90 Z m 0,-45 V 161 h 49.5 49.5 v 4.5 4.5 H 139.5 90 Z m 0,-44 V 117 h 26.5 26.5 v 4.5 4.5 H 116.5 90 Z m -62,-14 V 0 h 75 75 v 5 5 H 108 38 V 112.5 215 h -5 -5 z"
         id="path16129" />
      <path
         style="fill:#fe9e7e"
         d="M 56,143 V 30 l 60.25,0.0347 60.25,0.0347 25.75,25.47228 25.75,25.47228 v 87.49301 87.49302 H 142 56 v -113 z m 156,21.5 V 90 H 189.5 167 V 68.5 47 H 119.5 72 v 96 96 h 70 70 z M 90,210 v -4 h 49.5 49.5 v 4 4 H 139.5 90 Z m 0,-44.5 V 161 h 49.5 49.5 v 4.5 4.5 H 139.5 90 Z M 90,121 v -4 h 26.5 26.5 v 4 4 H 116.5 90 Z M 28,107.5 V 0 h 75.05479 75.05479 L 177.80479,4.75 177.5,9.5 107.75,9.7567987 38,10.013597 V 112.5068 215 h -5 -5 z"
         id="path16127" />
      <path
         style="fill:#fe8a65"
         d="M 56,143 V 30 h 60.03532 60.03533 L 202.03532,55.649581 228,81.299161 V 168.64958 256 H 142 56 Z m 156,21.5 V 90 H 190.01989 168.03978 L 167.76989,68.75 167.5,47.5 119.75,47.240303 72,46.980606 V 142.9903 239 h 70 70 z M 90,210 v -4 h 49.5 49.5 v 4 4 H 139.5 90 Z m 0,-44.5 V 161 h 49.5 49.5 v 4.5 4.5 H 139.5 90 Z M 90,121 v -4 h 26.5 26.5 v 4 4 H 116.5 90 Z M 28,107.5 V 0 h 75 75 V 4.5 9 H 108 38 v 103 103 h -5 -5 z"
         id="path16125" />
      <path
         style="fill:#fe774b"
         d="M 56,143.5 V 31 h 60.37963 60.37962 L 201.87963,55.599842 227,80.199684 V 168.09984 256 H 141.5 56 Z m 156,21 V 90 H 190 168 V 68.490396 46.980792 L 119.75,47.240396 71.5,47.5 71.244976,143.25 70.989953,239 H 141.49498 212 Z M 90,210 v -4 h 49.5 49.5 v 4 4 H 139.5 90 Z m 0,-44.5 V 161 h 49.5 49.5 v 4.5 4.5 H 139.5 90 Z M 90,121 v -4 h 26.5 26.5 v 4 4 H 116.5 90 Z M 29,107.5 V 0 H 103.5 178 V 4.4932471 8.9864943 L 107.75,9.2432471 37.5,9.5 37.245306,112.25 36.990613,215 H 32.995306 29 Z"
         id="path16123" />
      <path
         style="fill:#fe6532"
         d="M 56,143.5 V 31 l 60.25,0.02772 60.25,0.02772 25.29478,24.72228 L 227.08956,80.5 227.04478,168.25 227,256 H 141.5 56 Z m 156,21 V 90 H 190 168 V 68.5 47 H 119.5 71 v 96 96 H 141.5 212 Z M 90,210 v -4 h 49.5 49.5 v 4 4 H 139.5 90 Z m 0,-44 v -4 h 49.5 49.5 v 4 4 H 139.5 90 Z m 0,-45 v -4 h 26.5 26.5 v 4 4 H 116.5 90 Z M 29,107.5 V 0 h 74 74 V 4.5 9 H 107 37 v 103 103 h -4 -4 z"
         id="path16121" />
    </g>
  </g>
</svg>
