<svg id="Layer_1" data-name="Layer 1" xmlns="http://www.w3.org/2000/svg" xmlns:xlink="http://www.w3.org/1999/xlink" viewBox="0 0 2215.11 820.77"><defs><style>.cls-1{fill:#181818;}.cls-2{fill:url(#linear-gradient);}.cls-3,.cls-4{fill:none;stroke:#fff;stroke-linecap:round;stroke-linejoin:round;}.cls-3{stroke-width:8px;}.cls-4{stroke-width:4px;}</style><linearGradient id="linear-gradient" x1="2.04" y1="410.39" x2="814.7" y2="410.39" gradientUnits="userSpaceOnUse"><stop offset="0" stop-color="#f7db2e"/><stop offset="0.5" stop-color="#82c558"/><stop offset="1" stop-color="#127e7a"/></linearGradient></defs><path class="cls-1" d="M1427.51,640.35h131.34v27.21h-99.74V731.4H1552v27.1h-92.89v64.14h101v27.21H1427.51Z" transform="translate(-402.07 -334.84)"/><path class="cls-1" d="M1601.17,640.35h76.72c44.6,0,66.08,24,66.08,55,0,26.19-16.06,39.28-35.29,44.19v2c20.76,1.13,43.47,19.44,43.47,51.87,0,32.12-22,56.36-70.68,56.36h-80.3Zm74,90.64c21.27,0,37.84-12.89,37.84-33.15,0-17.39-12-30.58-37-30.58h-43.17V731Zm3.27,91.75c30.38,0,42.35-13.19,42.35-30.78,0-20-15.86-36.32-41.23-36.32h-46.75v67.1Z" transform="translate(-402.07 -334.84)"/><path class="cls-1" d="M1789.55,640.35h74.67c48.59,0,72.53,27.11,72.53,65.68,0,28.13-12.78,49.51-38.46,59l46.44,84.8h-36l-42.55-79.28h-45v79.28h-31.61Zm71.71,103c30.79,0,43.68-13.72,43.68-37.34s-12.89-38.57-44.09-38.57h-39.69v75.91Z" transform="translate(-402.07 -334.84)"/><path class="cls-1" d="M1959.42,849.85l75.39-209.5h36.52l75.39,209.5h-33.55L2094,794.41H2012.2L1993,849.85Zm125.41-82-30.89-89.4h-1.64l-30.89,89.4Z" transform="translate(-402.07 -334.84)"/><path class="cls-1" d="M2208.47,849.85h-31.61V640.35h31.61Z" transform="translate(-402.07 -334.84)"/><path class="cls-1" d="M2423.58,849.85h-29.06L2288,696.21h-1.95V849.85h-31.61V640.35h29.26l106.59,153.86h1.94V640.35h31.31Z" transform="translate(-402.07 -334.84)"/><path class="cls-1" d="M2540.45,664.8c-25.77,0-42,13.2-42,31-.1,20.05,21.69,27.72,38.06,31.91l20.45,5.32c26.6,6.55,60.26,21.18,60.26,58.93,0,35.49-28.34,61.37-77.54,61.37-47,0-76.31-23.43-78.36-61.37H2493c1.84,22.8,22.1,33.65,46.44,33.65,26.91,0,46.44-13.5,46.44-34,0-18.62-17.28-26-39.69-31.92L2521.43,753c-33.66-9.1-54.53-26.19-54.53-55.34,0-36.11,32.23-60.15,74.27-60.15,42.55,0,72.22,24.34,73.14,57.9h-30.48C2581.58,676.05,2564.49,664.8,2540.45,664.8Z" transform="translate(-402.07 -334.84)"/><polyline class="cls-2" points="406.34 0 203.46 55.46 55.47 204.94 2.04 408.37 57.51 611.25 205.2 758.21 408.37 820.77 613.3 757.19 760.25 609.49 814.7 404.28 759.23 201.4 609.77 53.42 406.34 0"/><path class="cls-3" d="M1152.91,953.78c-23.66-7-47.13-14.69-70.29-23.43-67.72-25.56-123.25-71.41-191.2-95.57-62.3-22.14-127.78-35.9-192.93-46.59-14.72-2.41-30-5.76-45-5.65-41.72.3-73,26.15-94.91,59.22-22.8,34.45-56.2,82.1-97,106.29" transform="translate(-402.07 -334.84)"/><path class="cls-4" d="M1163.56,939.66c-26.64-7.55-53.07-15.84-79.12-25.45-66.25-24.45-122.15-67.14-187.26-94.52-53.77-22.61-109.33-43.93-165.45-60.14-60-17.34-109.05,9.6-151.67,48.64-26.37,24.16-53.68,47.48-82.58,68.58-13.88,10.14-30.52,23-48.18,32.3" transform="translate(-402.07 -334.84)"/><path class="cls-4" d="M1167.76,923.82c-28.59-7.81-57-16.4-84.85-26.54-63.55-23.09-118.79-66.33-177.49-99.46C858.6,771.4,801.75,727.93,746.53,722c-64.32-6.93-110,32.67-161,64.29-34,21.12-68.39,41.82-103.66,60.82-12.5,6.73-27.55,16.2-43,23.26" transform="translate(-402.07 -334.84)"/><path class="cls-3" d="M1171.67,909.07c-30.64-7.71-61-16.4-90.66-27.52-66.46-24.93-122.32-82.21-176.57-126.35-54.69-44.51-109.61-94.34-186-60.36-45.89,20.42-90.54,44.11-136,65.56-38.57,18.21-77.24,36.25-116.39,53.18-11,4.76-24.41,12.14-37.92,17.6" transform="translate(-402.07 -334.84)"/><path class="cls-4" d="M1175.64,894.14c-34.53-8-68.66-17.33-101.38-30.83C993.8,830.1,955.11,746.26,905,681.45c-41.6-53.81-110.27-35.12-163-14.67Q646.92,703.65,551.62,740c-35.35,13.42-70.73,26.82-106.28,39.73-8.15,3-18.09,7.88-28.06,11.67" transform="translate(-402.07 -334.84)"/><path class="cls-3" d="M1181.8,870.91c-42-8.21-83.52-18.9-120.44-39-62.18-33.8-86.32-108-123.85-164.36-25.63-38.48-71.7-62-117.44-49.47-18.85,5.17-37.39,11.94-56,17.89L534.11,709.47l-128,40.92" transform="translate(-402.07 -334.84)"/><path class="cls-4" d="M1188.52,845.59c-47.71-14.51-94.06-31.63-135-62.41-53.11-40-93.65-98.58-137.9-147.63-46.11-51.11-103.89-48.23-162.65-28q-103.83,35.65-207.11,72.94c-39.75,14.46-79.5,29.06-118.71,44.94-5.2,2.11-12.51,4.38-20.24,7" transform="translate(-402.07 -334.84)"/><path class="cls-3" d="M1200.7,799.68c-43.78-16.7-87.21-34.08-127.77-58-64.19-37.79-116.12-91.39-172.49-139.47-53.23-45.41-111.8-45.34-174.72-21.91-61.59,22.94-122.9,46.7-183.57,72-36.06,15-72,30.46-107,47.84-6.66,3.31-14.52,6.79-22.49,10.69" transform="translate(-402.07 -334.84)"/><path class="cls-3" d="M1214.38,748.1c-102.13-51-201.53-105.69-300.22-163.38-60.1-35.14-118.34-66.08-190.63-40.78-47.16,16.51-93.48,36.41-139.24,56.38C544.37,617.74,504.66,636,466.49,657c-14.83,8.16-31.84,17-47,27.65" transform="translate(-402.07 -334.84)"/><path class="cls-4" d="M1208.57,709.15c-47-28.81-94.08-57.12-143.88-81.27-49.27-23.89-100.32-44.53-150.52-66.35-53.49-23.24-104.44-52.11-164.48-50.22-55.38,1.74-106.49,29.61-155.34,53.36C540.12,591,473.28,621,424.91,664" transform="translate(-402.07 -334.84)"/><path class="cls-3" d="M1195.84,662.59c-42-32.11-83.65-62.58-132.94-84.39-45.69-20.21-95.62-32-143.38-46.29-44.23-13.2-88.31-28.1-133-39.7-63.9-16.6-124.75,3.36-181,32.23-60.35,30.95-124.81,67.89-174.91,116.67" transform="translate(-402.07 -334.84)"/></svg>