<?xml version="1.0" encoding="UTF-8" standalone="no"?>
<!-- Created with Inkscape (http://www.inkscape.org/) -->

<svg
   version="1.1"
   id="svg6303"
   width="546.1333"
   height="546.1333"
   viewBox="0 0 546.1333 546.1333"
   sodipodi:docname="email_orange.svg"
   inkscape:version="1.2 (1:1.2.1+202207142221+cd75a1ee6d)"
   xmlns:inkscape="http://www.inkscape.org/namespaces/inkscape"
   xmlns:sodipodi="http://sodipodi.sourceforge.net/DTD/sodipodi-0.dtd"
   xmlns="http://www.w3.org/2000/svg"
   xmlns:svg="http://www.w3.org/2000/svg">
  <defs
     id="defs6307" />
  <sodipodi:namedview
     id="namedview6305"
     pagecolor="#ffffff"
     bordercolor="#666666"
     borderopacity="1.0"
     inkscape:showpageshadow="2"
     inkscape:pageopacity="0.0"
     inkscape:pagecheckerboard="0"
     inkscape:deskcolor="#d1d1d1"
     showgrid="false"
     inkscape:zoom="1.5563966"
     inkscape:cx="165.76752"
     inkscape:cy="273.38791"
     inkscape:window-width="1848"
     inkscape:window-height="1016"
     inkscape:window-x="72"
     inkscape:window-y="27"
     inkscape:window-maximized="1"
     inkscape:current-layer="g6309" />
  <g
     inkscape:groupmode="layer"
     inkscape:label="Image"
     id="g6309">
    <path
       style="fill:#fe6532;stroke-width:1.06667"
       d="m 33.145687,502.24587 c -14.2604,-5.06963 -25.292272,-16.25332 -30.251626,-30.66794 -1.97482,-5.73989 -2.03955,-11.30054 -2.03955,-175.19406 0,-163.89353 0.0647,-169.45417 2.03955,-175.19406 5.032495,-14.62722 16.101527,-25.720934 30.662125,-30.730514 5.904668,-2.03151 10.990146,-2.07542 240.364974,-2.07542 227.96286,0 234.49382,0.0554 240.26072,2.03955 14.62722,5.0325 25.72094,16.101534 30.73052,30.662134 2.02205,5.87718 2.07541,10.38487 2.07541,175.29831 0,164.91344 -0.0533,169.42113 -2.07541,175.29831 -5.00958,14.5606 -16.1033,25.62963 -30.73052,30.66212 -5.76978,1.9851 -12.19578,2.03748 -240.69437,1.96161 -225.975184,-0.075 -234.975118,-0.15216 -240.341823,-2.06004 z M 414.99042,396.38833 338.9949,320.39281 312.59136,346.64334 c -14.52194,14.4378 -27.59034,27.03579 -29.04088,27.99553 -3.52148,2.32999 -13.60374,2.33003 -17.12531,7e-5 -1.45054,-0.95971 -14.7589,-13.79773 -29.57413,-28.52894 l -26.93679,-26.78402 -76.52894,76.52893 -76.528945,76.52895 H 273.92115 490.98595 Z M 185.12187,295.20545 c -0.14705,-0.3571 -34.46737,-34.61223 -76.26737,-76.12251 L 32.854508,143.60971 v 152.38428 152.38428 l 76.267362,-76.26178 c 41.94705,-41.94396 76.14705,-76.55393 76,-76.91104 z m 329.86594,0.91269 v -151.7324 l -75.99812,75.99813 -75.99811,75.99812 75.72863,75.73427 c 41.65075,41.65384 75.84991,75.73427 75.99812,75.73427 0.14821,0 0.26948,-68.27958 0.26948,-151.73239 z M 383.25449,228.11721 490.98386,120.38388 H 274.18584 c -119.2389,0 -216.798,0.16332 -216.798,0.36293 0,0.80093 216.45772,215.10372 217.2667,215.10372 0.47882,0 49.34879,-48.47999 108.59995,-107.73332 z"
       id="path6313" />
  </g>
</svg>
