<?xml version="1.0" encoding="utf-8" standalone="no"?>
<!DOCTYPE svg PUBLIC "-//W3C//DTD SVG 1.1//EN"
  "http://www.w3.org/Graphics/SVG/1.1/DTD/svg11.dtd">
<svg xmlns:xlink="http://www.w3.org/1999/xlink" width="460.8pt" height="345.6pt" viewBox="0 0 460.8 345.6" xmlns="http://www.w3.org/2000/svg" version="1.1">
 <metadata>
  <rdf:RDF xmlns:dc="http://purl.org/dc/elements/1.1/" xmlns:cc="http://creativecommons.org/ns#" xmlns:rdf="http://www.w3.org/1999/02/22-rdf-syntax-ns#">
   <cc:Work>
    <dc:type rdf:resource="http://purl.org/dc/dcmitype/StillImage"/>
    <dc:date>2026-03-21T10:30:56.297441</dc:date>
    <dc:description>experiment 137</dc:description>
    <dc:format>image/svg+xml</dc:format>
    <dc:creator>
     <cc:Agent>
      <dc:title>Matplotlib v3.10.8, https://matplotlib.org/</dc:title>
     </cc:Agent>
    </dc:creator>
   </cc:Work>
  </rdf:RDF>
 </metadata>
 <defs>
  <style type="text/css">*{stroke-linejoin: round; stroke-linecap: butt}</style>
 </defs>
 <g id="figure_1">
  <g id="patch_1">
   <path d="M 0 345.6
L 460.8 345.6
L 460.8 0
L 0 0
z
" style="fill: #ffffff"/>
  </g>
  <g id="axes_1">
   <g id="patch_2">
    <path d="M 44.57 303.64
L 450 303.64
L 450 10.8
L 44.57 10.8
z
" style="fill: #ffffff"/>
   </g>
   <g id="matplotlib.axis_1">
    <g id="xtick_1">
     <g id="line2d_1">
      <path d="M 62.998636 303.64
L 62.998636 10.8
" clip-path="url(#p87ed59dbb8)" style="fill: none; stroke: #b0b0b0; stroke-width: 0.8; stroke-linecap: square"/>
     </g>
     <g id="line2d_2">
      <defs>
       <path id="me0abdcbd01" d="M 0 0
L 0 3.5
" style="stroke: #000000; stroke-width: 0.8"/>
      </defs>
      <g>
       <use xlink:href="#me0abdcbd01" x="62.998636" y="303.64" style="stroke: #000000; stroke-width: 0.8"/>
      </g>
     </g>
     <g id="text_1">
      <!-- 0 -->
      <g transform="translate(59.817386 318.238437) scale(0.1 -0.1)">
       <defs>
        <path id="DejaVuSans-30" d="M 2034 4250
Q 1547 4250 1301 3770
Q 1056 3291 1056 2328
Q 1056 1369 1301 889
Q 1547 409 2034 409
Q 2525 409 2770 889
Q 3016 1369 3016 2328
Q 3016 3291 2770 3770
Q 2525 4250 2034 4250
z
M 2034 4750
Q 2819 4750 3233 4129
Q 3647 3509 3647 2328
Q 3647 1150 3233 529
Q 2819 -91 2034 -91
Q 1250 -91 836 529
Q 422 1150 422 2328
Q 422 3509 836 4129
Q 1250 4750 2034 4750
z
" transform="scale(0.015625)"/>
       </defs>
       <use xlink:href="#DejaVuSans-30"/>
      </g>
     </g>
    </g>
    <g id="xtick_2">
     <g id="line2d_3">
      <path d="M 146.765165 303.64
L 146.765165 10.8
" clip-path="url(#p87ed59dbb8)" style="fill: none; stroke: #b0b0b0; stroke-width: 0.8; stroke-linecap: square"/>
     </g>
     <g id="line2d_4">
      <g>
       <use xlink:href="#me0abdcbd01" x="146.765165" y="303.64" style="stroke: #000000; stroke-width: 0.8"/>
      </g>
     </g>
     <g id="text_2">
      <!-- 5 -->
      <g transform="translate(143.583915 318.238437) scale(0.1 -0.1)">
       <defs>
        <path id="DejaVuSans-35" d="M 691 4666
L 3169 4666
L 3169 4134
L 1269 4134
L 1269 2991
Q 1406 3038 1543 3061
Q 1681 3084 1819 3084
Q 2600 3084 3056 2656
Q 3513 2228 3513 1497
Q 3513 744 3044 326
Q 2575 -91 1722 -91
Q 1428 -91 1123 -41
Q 819 9 494 109
L 494 744
Q 775 591 1075 516
Q 1375 441 1709 441
Q 2250 441 2565 725
Q 2881 1009 2881 1497
Q 2881 1984 2565 2268
Q 2250 2553 1709 2553
Q 1456 2553 1204 2497
Q 953 2441 691 2322
L 691 4666
z
" transform="scale(0.015625)"/>
       </defs>
       <use xlink:href="#DejaVuSans-35"/>
      </g>
     </g>
    </g>
    <g id="xtick_3">
     <g id="line2d_5">
      <path d="M 230.531694 303.64
L 230.531694 10.8
" clip-path="url(#p87ed59dbb8)" style="fill: none; stroke: #b0b0b0; stroke-width: 0.8; stroke-linecap: square"/>
     </g>
     <g id="line2d_6">
      <g>
       <use xlink:href="#me0abdcbd01" x="230.531694" y="303.64" style="stroke: #000000; stroke-width: 0.8"/>
      </g>
     </g>
     <g id="text_3">
      <!-- 10 -->
      <g transform="translate(224.169194 318.238437) scale(0.1 -0.1)">
       <defs>
        <path id="DejaVuSans-31" d="M 794 531
L 1825 531
L 1825 4091
L 703 3866
L 703 4441
L 1819 4666
L 2450 4666
L 2450 531
L 3481 531
L 3481 0
L 794 0
L 794 531
z
" transform="scale(0.015625)"/>
       </defs>
       <use xlink:href="#DejaVuSans-31"/>
       <use xlink:href="#DejaVuSans-30" transform="translate(63.623047 0)"/>
      </g>
     </g>
    </g>
    <g id="xtick_4">
     <g id="line2d_7">
      <path d="M 314.298223 303.64
L 314.298223 10.8
" clip-path="url(#p87ed59dbb8)" style="fill: none; stroke: #b0b0b0; stroke-width: 0.8; stroke-linecap: square"/>
     </g>
     <g id="line2d_8">
      <g>
       <use xlink:href="#me0abdcbd01" x="314.298223" y="303.64" style="stroke: #000000; stroke-width: 0.8"/>
      </g>
     </g>
     <g id="text_4">
      <!-- 15 -->
      <g transform="translate(307.935723 318.238437) scale(0.1 -0.1)">
       <use xlink:href="#DejaVuSans-31"/>
       <use xlink:href="#DejaVuSans-35" transform="translate(63.623047 0)"/>
      </g>
     </g>
    </g>
    <g id="xtick_5">
     <g id="line2d_9">
      <path d="M 398.064752 303.64
L 398.064752 10.8
" clip-path="url(#p87ed59dbb8)" style="fill: none; stroke: #b0b0b0; stroke-width: 0.8; stroke-linecap: square"/>
     </g>
     <g id="line2d_10">
      <g>
       <use xlink:href="#me0abdcbd01" x="398.064752" y="303.64" style="stroke: #000000; stroke-width: 0.8"/>
      </g>
     </g>
     <g id="text_5">
      <!-- 20 -->
      <g transform="translate(391.702252 318.238437) scale(0.1 -0.1)">
       <defs>
        <path id="DejaVuSans-32" d="M 1228 531
L 3431 531
L 3431 0
L 469 0
L 469 531
Q 828 903 1448 1529
Q 2069 2156 2228 2338
Q 2531 2678 2651 2914
Q 2772 3150 2772 3378
Q 2772 3750 2511 3984
Q 2250 4219 1831 4219
Q 1534 4219 1204 4116
Q 875 4013 500 3803
L 500 4441
Q 881 4594 1212 4672
Q 1544 4750 1819 4750
Q 2544 4750 2975 4387
Q 3406 4025 3406 3419
Q 3406 3131 3298 2873
Q 3191 2616 2906 2266
Q 2828 2175 2409 1742
Q 1991 1309 1228 531
z
" transform="scale(0.015625)"/>
       </defs>
       <use xlink:href="#DejaVuSans-32"/>
       <use xlink:href="#DejaVuSans-30" transform="translate(63.623047 0)"/>
      </g>
     </g>
    </g>
    <g id="text_6">
     <!-- Time (min) -->
     <g transform="translate(220.132656 331.916562) scale(0.1 -0.1)">
      <defs>
       <path id="DejaVuSans-54" d="M -19 4666
L 3928 4666
L 3928 4134
L 2272 4134
L 2272 0
L 1638 0
L 1638 4134
L -19 4134
L -19 4666
z
" transform="scale(0.015625)"/>
       <path id="DejaVuSans-69" d="M 603 3500
L 1178 3500
L 1178 0
L 603 0
L 603 3500
z
M 603 4863
L 1178 4863
L 1178 4134
L 603 4134
L 603 4863
z
" transform="scale(0.015625)"/>
       <path id="DejaVuSans-6d" d="M 3328 2828
Q 3544 3216 3844 3400
Q 4144 3584 4550 3584
Q 5097 3584 5394 3201
Q 5691 2819 5691 2113
L 5691 0
L 5113 0
L 5113 2094
Q 5113 2597 4934 2840
Q 4756 3084 4391 3084
Q 3944 3084 3684 2787
Q 3425 2491 3425 1978
L 3425 0
L 2847 0
L 2847 2094
Q 2847 2600 2669 2842
Q 2491 3084 2119 3084
Q 1678 3084 1418 2786
Q 1159 2488 1159 1978
L 1159 0
L 581 0
L 581 3500
L 1159 3500
L 1159 2956
Q 1356 3278 1631 3431
Q 1906 3584 2284 3584
Q 2666 3584 2933 3390
Q 3200 3197 3328 2828
z
" transform="scale(0.015625)"/>
       <path id="DejaVuSans-65" d="M 3597 1894
L 3597 1613
L 953 1613
Q 991 1019 1311 708
Q 1631 397 2203 397
Q 2534 397 2845 478
Q 3156 559 3463 722
L 3463 178
Q 3153 47 2828 -22
Q 2503 -91 2169 -91
Q 1331 -91 842 396
Q 353 884 353 1716
Q 353 2575 817 3079
Q 1281 3584 2069 3584
Q 2775 3584 3186 3129
Q 3597 2675 3597 1894
z
M 3022 2063
Q 3016 2534 2758 2815
Q 2500 3097 2075 3097
Q 1594 3097 1305 2825
Q 1016 2553 972 2059
L 3022 2063
z
" transform="scale(0.015625)"/>
       <path id="DejaVuSans-20" transform="scale(0.015625)"/>
       <path id="DejaVuSans-28" d="M 1984 4856
Q 1566 4138 1362 3434
Q 1159 2731 1159 2009
Q 1159 1288 1364 580
Q 1569 -128 1984 -844
L 1484 -844
Q 1016 -109 783 600
Q 550 1309 550 2009
Q 550 2706 781 3412
Q 1013 4119 1484 4856
L 1984 4856
z
" transform="scale(0.015625)"/>
       <path id="DejaVuSans-6e" d="M 3513 2113
L 3513 0
L 2938 0
L 2938 2094
Q 2938 2591 2744 2837
Q 2550 3084 2163 3084
Q 1697 3084 1428 2787
Q 1159 2491 1159 1978
L 1159 0
L 581 0
L 581 3500
L 1159 3500
L 1159 2956
Q 1366 3272 1645 3428
Q 1925 3584 2291 3584
Q 2894 3584 3203 3211
Q 3513 2838 3513 2113
z
" transform="scale(0.015625)"/>
       <path id="DejaVuSans-29" d="M 513 4856
L 1013 4856
Q 1481 4119 1714 3412
Q 1947 2706 1947 2009
Q 1947 1309 1714 600
Q 1481 -109 1013 -844
L 513 -844
Q 928 -128 1133 580
Q 1338 1288 1338 2009
Q 1338 2731 1133 3434
Q 928 4138 513 4856
z
" transform="scale(0.015625)"/>
      </defs>
      <use xlink:href="#DejaVuSans-54"/>
      <use xlink:href="#DejaVuSans-69" transform="translate(57.958984 0)"/>
      <use xlink:href="#DejaVuSans-6d" transform="translate(85.742188 0)"/>
      <use xlink:href="#DejaVuSans-65" transform="translate(183.154297 0)"/>
      <use xlink:href="#DejaVuSans-20" transform="translate(244.677734 0)"/>
      <use xlink:href="#DejaVuSans-28" transform="translate(276.464844 0)"/>
      <use xlink:href="#DejaVuSans-6d" transform="translate(315.478516 0)"/>
      <use xlink:href="#DejaVuSans-69" transform="translate(412.890625 0)"/>
      <use xlink:href="#DejaVuSans-6e" transform="translate(440.673828 0)"/>
      <use xlink:href="#DejaVuSans-29" transform="translate(504.052734 0)"/>
     </g>
    </g>
   </g>
   <g id="matplotlib.axis_2">
    <g id="ytick_1">
     <g id="line2d_11">
      <path d="M 44.57 294.24289
L 450 294.24289
" clip-path="url(#p87ed59dbb8)" style="fill: none; stroke: #b0b0b0; stroke-width: 0.8; stroke-linecap: square"/>
     </g>
     <g id="line2d_12">
      <defs>
       <path id="md832be1f6d" d="M 0 0
L -3.5 0
" style="stroke: #000000; stroke-width: 0.8"/>
      </defs>
      <g>
       <use xlink:href="#md832be1f6d" x="44.57" y="294.24289" style="stroke: #000000; stroke-width: 0.8"/>
      </g>
     </g>
     <g id="text_7">
      <!-- 15 -->
      <g transform="translate(24.845 298.042108) scale(0.1 -0.1)">
       <use xlink:href="#DejaVuSans-31"/>
       <use xlink:href="#DejaVuSans-35" transform="translate(63.623047 0)"/>
      </g>
     </g>
    </g>
    <g id="ytick_2">
     <g id="line2d_13">
      <path d="M 44.57 243.123887
L 450 243.123887
" clip-path="url(#p87ed59dbb8)" style="fill: none; stroke: #b0b0b0; stroke-width: 0.8; stroke-linecap: square"/>
     </g>
     <g id="line2d_14">
      <g>
       <use xlink:href="#md832be1f6d" x="44.57" y="243.123887" style="stroke: #000000; stroke-width: 0.8"/>
      </g>
     </g>
     <g id="text_8">
      <!-- 20 -->
      <g transform="translate(24.845 246.923106) scale(0.1 -0.1)">
       <use xlink:href="#DejaVuSans-32"/>
       <use xlink:href="#DejaVuSans-30" transform="translate(63.623047 0)"/>
      </g>
     </g>
    </g>
    <g id="ytick_3">
     <g id="line2d_15">
      <path d="M 44.57 192.004884
L 450 192.004884
" clip-path="url(#p87ed59dbb8)" style="fill: none; stroke: #b0b0b0; stroke-width: 0.8; stroke-linecap: square"/>
     </g>
     <g id="line2d_16">
      <g>
       <use xlink:href="#md832be1f6d" x="44.57" y="192.004884" style="stroke: #000000; stroke-width: 0.8"/>
      </g>
     </g>
     <g id="text_9">
      <!-- 25 -->
      <g transform="translate(24.845 195.804103) scale(0.1 -0.1)">
       <use xlink:href="#DejaVuSans-32"/>
       <use xlink:href="#DejaVuSans-35" transform="translate(63.623047 0)"/>
      </g>
     </g>
    </g>
    <g id="ytick_4">
     <g id="line2d_17">
      <path d="M 44.57 140.885881
L 450 140.885881
" clip-path="url(#p87ed59dbb8)" style="fill: none; stroke: #b0b0b0; stroke-width: 0.8; stroke-linecap: square"/>
     </g>
     <g id="line2d_18">
      <g>
       <use xlink:href="#md832be1f6d" x="44.57" y="140.885881" style="stroke: #000000; stroke-width: 0.8"/>
      </g>
     </g>
     <g id="text_10">
      <!-- 30 -->
      <g transform="translate(24.845 144.6851) scale(0.1 -0.1)">
       <defs>
        <path id="DejaVuSans-33" d="M 2597 2516
Q 3050 2419 3304 2112
Q 3559 1806 3559 1356
Q 3559 666 3084 287
Q 2609 -91 1734 -91
Q 1441 -91 1130 -33
Q 819 25 488 141
L 488 750
Q 750 597 1062 519
Q 1375 441 1716 441
Q 2309 441 2620 675
Q 2931 909 2931 1356
Q 2931 1769 2642 2001
Q 2353 2234 1838 2234
L 1294 2234
L 1294 2753
L 1863 2753
Q 2328 2753 2575 2939
Q 2822 3125 2822 3475
Q 2822 3834 2567 4026
Q 2313 4219 1838 4219
Q 1578 4219 1281 4162
Q 984 4106 628 3988
L 628 4550
Q 988 4650 1302 4700
Q 1616 4750 1894 4750
Q 2613 4750 3031 4423
Q 3450 4097 3450 3541
Q 3450 3153 3228 2886
Q 3006 2619 2597 2516
z
" transform="scale(0.015625)"/>
       </defs>
       <use xlink:href="#DejaVuSans-33"/>
       <use xlink:href="#DejaVuSans-30" transform="translate(63.623047 0)"/>
      </g>
     </g>
    </g>
    <g id="ytick_5">
     <g id="line2d_19">
      <path d="M 44.57 89.766878
L 450 89.766878
" clip-path="url(#p87ed59dbb8)" style="fill: none; stroke: #b0b0b0; stroke-width: 0.8; stroke-linecap: square"/>
     </g>
     <g id="line2d_20">
      <g>
       <use xlink:href="#md832be1f6d" x="44.57" y="89.766878" style="stroke: #000000; stroke-width: 0.8"/>
      </g>
     </g>
     <g id="text_11">
      <!-- 35 -->
      <g transform="translate(24.845 93.566097) scale(0.1 -0.1)">
       <use xlink:href="#DejaVuSans-33"/>
       <use xlink:href="#DejaVuSans-35" transform="translate(63.623047 0)"/>
      </g>
     </g>
    </g>
    <g id="ytick_6">
     <g id="line2d_21">
      <path d="M 44.57 38.647876
L 450 38.647876
" clip-path="url(#p87ed59dbb8)" style="fill: none; stroke: #b0b0b0; stroke-width: 0.8; stroke-linecap: square"/>
     </g>
     <g id="line2d_22">
      <g>
       <use xlink:href="#md832be1f6d" x="44.57" y="38.647876" style="stroke: #000000; stroke-width: 0.8"/>
      </g>
     </g>
     <g id="text_12">
      <!-- 40 -->
      <g transform="translate(24.845 42.447094) scale(0.1 -0.1)">
       <defs>
        <path id="DejaVuSans-34" d="M 2419 4116
L 825 1625
L 2419 1625
L 2419 4116
z
M 2253 4666
L 3047 4666
L 3047 1625
L 3713 1625
L 3713 1100
L 3047 1100
L 3047 0
L 2419 0
L 2419 1100
L 313 1100
L 313 1709
L 2253 4666
z
" transform="scale(0.015625)"/>
       </defs>
       <use xlink:href="#DejaVuSans-34"/>
       <use xlink:href="#DejaVuSans-30" transform="translate(63.623047 0)"/>
      </g>
     </g>
    </g>
    <g id="text_13">
     <!-- Memory usage (GB) -->
     <g transform="translate(18.765313 207.027813) rotate(-90) scale(0.1 -0.1)">
      <defs>
       <path id="DejaVuSans-4d" d="M 628 4666
L 1569 4666
L 2759 1491
L 3956 4666
L 4897 4666
L 4897 0
L 4281 0
L 4281 4097
L 3078 897
L 2444 897
L 1241 4097
L 1241 0
L 628 0
L 628 4666
z
" transform="scale(0.015625)"/>
       <path id="DejaVuSans-6f" d="M 1959 3097
Q 1497 3097 1228 2736
Q 959 2375 959 1747
Q 959 1119 1226 758
Q 1494 397 1959 397
Q 2419 397 2687 759
Q 2956 1122 2956 1747
Q 2956 2369 2687 2733
Q 2419 3097 1959 3097
z
M 1959 3584
Q 2709 3584 3137 3096
Q 3566 2609 3566 1747
Q 3566 888 3137 398
Q 2709 -91 1959 -91
Q 1206 -91 779 398
Q 353 888 353 1747
Q 353 2609 779 3096
Q 1206 3584 1959 3584
z
" transform="scale(0.015625)"/>
       <path id="DejaVuSans-72" d="M 2631 2963
Q 2534 3019 2420 3045
Q 2306 3072 2169 3072
Q 1681 3072 1420 2755
Q 1159 2438 1159 1844
L 1159 0
L 581 0
L 581 3500
L 1159 3500
L 1159 2956
Q 1341 3275 1631 3429
Q 1922 3584 2338 3584
Q 2397 3584 2469 3576
Q 2541 3569 2628 3553
L 2631 2963
z
" transform="scale(0.015625)"/>
       <path id="DejaVuSans-79" d="M 2059 -325
Q 1816 -950 1584 -1140
Q 1353 -1331 966 -1331
L 506 -1331
L 506 -850
L 844 -850
Q 1081 -850 1212 -737
Q 1344 -625 1503 -206
L 1606 56
L 191 3500
L 800 3500
L 1894 763
L 2988 3500
L 3597 3500
L 2059 -325
z
" transform="scale(0.015625)"/>
       <path id="DejaVuSans-75" d="M 544 1381
L 544 3500
L 1119 3500
L 1119 1403
Q 1119 906 1312 657
Q 1506 409 1894 409
Q 2359 409 2629 706
Q 2900 1003 2900 1516
L 2900 3500
L 3475 3500
L 3475 0
L 2900 0
L 2900 538
Q 2691 219 2414 64
Q 2138 -91 1772 -91
Q 1169 -91 856 284
Q 544 659 544 1381
z
M 1991 3584
L 1991 3584
z
" transform="scale(0.015625)"/>
       <path id="DejaVuSans-73" d="M 2834 3397
L 2834 2853
Q 2591 2978 2328 3040
Q 2066 3103 1784 3103
Q 1356 3103 1142 2972
Q 928 2841 928 2578
Q 928 2378 1081 2264
Q 1234 2150 1697 2047
L 1894 2003
Q 2506 1872 2764 1633
Q 3022 1394 3022 966
Q 3022 478 2636 193
Q 2250 -91 1575 -91
Q 1294 -91 989 -36
Q 684 19 347 128
L 347 722
Q 666 556 975 473
Q 1284 391 1588 391
Q 1994 391 2212 530
Q 2431 669 2431 922
Q 2431 1156 2273 1281
Q 2116 1406 1581 1522
L 1381 1569
Q 847 1681 609 1914
Q 372 2147 372 2553
Q 372 3047 722 3315
Q 1072 3584 1716 3584
Q 2034 3584 2315 3537
Q 2597 3491 2834 3397
z
" transform="scale(0.015625)"/>
       <path id="DejaVuSans-61" d="M 2194 1759
Q 1497 1759 1228 1600
Q 959 1441 959 1056
Q 959 750 1161 570
Q 1363 391 1709 391
Q 2188 391 2477 730
Q 2766 1069 2766 1631
L 2766 1759
L 2194 1759
z
M 3341 1997
L 3341 0
L 2766 0
L 2766 531
Q 2569 213 2275 61
Q 1981 -91 1556 -91
Q 1019 -91 701 211
Q 384 513 384 1019
Q 384 1609 779 1909
Q 1175 2209 1959 2209
L 2766 2209
L 2766 2266
Q 2766 2663 2505 2880
Q 2244 3097 1772 3097
Q 1472 3097 1187 3025
Q 903 2953 641 2809
L 641 3341
Q 956 3463 1253 3523
Q 1550 3584 1831 3584
Q 2591 3584 2966 3190
Q 3341 2797 3341 1997
z
" transform="scale(0.015625)"/>
       <path id="DejaVuSans-67" d="M 2906 1791
Q 2906 2416 2648 2759
Q 2391 3103 1925 3103
Q 1463 3103 1205 2759
Q 947 2416 947 1791
Q 947 1169 1205 825
Q 1463 481 1925 481
Q 2391 481 2648 825
Q 2906 1169 2906 1791
z
M 3481 434
Q 3481 -459 3084 -895
Q 2688 -1331 1869 -1331
Q 1566 -1331 1297 -1286
Q 1028 -1241 775 -1147
L 775 -588
Q 1028 -725 1275 -790
Q 1522 -856 1778 -856
Q 2344 -856 2625 -561
Q 2906 -266 2906 331
L 2906 616
Q 2728 306 2450 153
Q 2172 0 1784 0
Q 1141 0 747 490
Q 353 981 353 1791
Q 353 2603 747 3093
Q 1141 3584 1784 3584
Q 2172 3584 2450 3431
Q 2728 3278 2906 2969
L 2906 3500
L 3481 3500
L 3481 434
z
" transform="scale(0.015625)"/>
       <path id="DejaVuSans-47" d="M 3809 666
L 3809 1919
L 2778 1919
L 2778 2438
L 4434 2438
L 4434 434
Q 4069 175 3628 42
Q 3188 -91 2688 -91
Q 1594 -91 976 548
Q 359 1188 359 2328
Q 359 3472 976 4111
Q 1594 4750 2688 4750
Q 3144 4750 3555 4637
Q 3966 4525 4313 4306
L 4313 3634
Q 3963 3931 3569 4081
Q 3175 4231 2741 4231
Q 1884 4231 1454 3753
Q 1025 3275 1025 2328
Q 1025 1384 1454 906
Q 1884 428 2741 428
Q 3075 428 3337 486
Q 3600 544 3809 666
z
" transform="scale(0.015625)"/>
       <path id="DejaVuSans-42" d="M 1259 2228
L 1259 519
L 2272 519
Q 2781 519 3026 730
Q 3272 941 3272 1375
Q 3272 1813 3026 2020
Q 2781 2228 2272 2228
L 1259 2228
z
M 1259 4147
L 1259 2741
L 2194 2741
Q 2656 2741 2882 2914
Q 3109 3088 3109 3444
Q 3109 3797 2882 3972
Q 2656 4147 2194 4147
L 1259 4147
z
M 628 4666
L 2241 4666
Q 2963 4666 3353 4366
Q 3744 4066 3744 3513
Q 3744 3084 3544 2831
Q 3344 2578 2956 2516
Q 3422 2416 3680 2098
Q 3938 1781 3938 1306
Q 3938 681 3513 340
Q 3088 0 2303 0
L 628 0
L 628 4666
z
" transform="scale(0.015625)"/>
      </defs>
      <use xlink:href="#DejaVuSans-4d"/>
      <use xlink:href="#DejaVuSans-65" transform="translate(86.279297 0)"/>
      <use xlink:href="#DejaVuSans-6d" transform="translate(147.802734 0)"/>
      <use xlink:href="#DejaVuSans-6f" transform="translate(245.214844 0)"/>
      <use xlink:href="#DejaVuSans-72" transform="translate(306.396484 0)"/>
      <use xlink:href="#DejaVuSans-79" transform="translate(347.509766 0)"/>
      <use xlink:href="#DejaVuSans-20" transform="translate(406.689453 0)"/>
      <use xlink:href="#DejaVuSans-75" transform="translate(438.476562 0)"/>
      <use xlink:href="#DejaVuSans-73" transform="translate(501.855469 0)"/>
      <use xlink:href="#DejaVuSans-61" transform="translate(553.955078 0)"/>
      <use xlink:href="#DejaVuSans-67" transform="translate(615.234375 0)"/>
      <use xlink:href="#DejaVuSans-65" transform="translate(678.710938 0)"/>
      <use xlink:href="#DejaVuSans-20" transform="translate(740.234375 0)"/>
      <use xlink:href="#DejaVuSans-28" transform="translate(772.021484 0)"/>
      <use xlink:href="#DejaVuSans-47" transform="translate(811.035156 0)"/>
      <use xlink:href="#DejaVuSans-42" transform="translate(888.525391 0)"/>
      <use xlink:href="#DejaVuSans-29" transform="translate(957.128906 0)"/>
     </g>
    </g>
   </g>
   <g id="line2d_23">
    <path d="M 62.998636 290.329091
L 79.751942 266.866267
L 96.505248 242.494883
L 113.258554 230.823377
L 130.01186 222.556475
L 146.765165 202.488273
L 163.518471 199.283351
L 180.271777 180.313409
L 197.025083 177.797395
L 213.778388 159.10701
L 230.531694 155.612547
L 247.285 134.915341
L 264.038306 128.275861
L 280.791612 114.397851
L 297.544917 100.350109
L 314.298223 92.692243
L 331.051529 74.690766
L 347.804835 70.627205
L 364.55814 52.515902
L 381.311446 40.994158
L 398.064752 26.936432
L 414.818058 25.249106
L 431.571364 24.110909
" clip-path="url(#p87ed59dbb8)" style="fill: none; stroke-dasharray: 5.55,2.4; stroke-dashoffset: 0; stroke: #2854c5; stroke-width: 1.5"/>
    <defs>
     <path id="m576f99b75b" d="M -3 3
L 3 -3
M -3 -3
L 3 3
" style="stroke: #2854c5"/>
    </defs>
    <g clip-path="url(#p87ed59dbb8)">
     <use xlink:href="#m576f99b75b" x="62.998636" y="290.329091" style="fill: #2854c5; stroke: #2854c5"/>
     <use xlink:href="#m576f99b75b" x="79.751942" y="266.866267" style="fill: #2854c5; stroke: #2854c5"/>
     <use xlink:href="#m576f99b75b" x="96.505248" y="242.494883" style="fill: #2854c5; stroke: #2854c5"/>
     <use xlink:href="#m576f99b75b" x="113.258554" y="230.823377" style="fill: #2854c5; stroke: #2854c5"/>
     <use xlink:href="#m576f99b75b" x="130.01186" y="222.556475" style="fill: #2854c5; stroke: #2854c5"/>
     <use xlink:href="#m576f99b75b" x="146.765165" y="202.488273" style="fill: #2854c5; stroke: #2854c5"/>
     <use xlink:href="#m576f99b75b" x="163.518471" y="199.283351" style="fill: #2854c5; stroke: #2854c5"/>
     <use xlink:href="#m576f99b75b" x="180.271777" y="180.313409" style="fill: #2854c5; stroke: #2854c5"/>
     <use xlink:href="#m576f99b75b" x="197.025083" y="177.797395" style="fill: #2854c5; stroke: #2854c5"/>
     <use xlink:href="#m576f99b75b" x="213.778388" y="159.10701" style="fill: #2854c5; stroke: #2854c5"/>
     <use xlink:href="#m576f99b75b" x="230.531694" y="155.612547" style="fill: #2854c5; stroke: #2854c5"/>
     <use xlink:href="#m576f99b75b" x="247.285" y="134.915341" style="fill: #2854c5; stroke: #2854c5"/>
     <use xlink:href="#m576f99b75b" x="264.038306" y="128.275861" style="fill: #2854c5; stroke: #2854c5"/>
     <use xlink:href="#m576f99b75b" x="280.791612" y="114.397851" style="fill: #2854c5; stroke: #2854c5"/>
     <use xlink:href="#m576f99b75b" x="297.544917" y="100.350109" style="fill: #2854c5; stroke: #2854c5"/>
     <use xlink:href="#m576f99b75b" x="314.298223" y="92.692243" style="fill: #2854c5; stroke: #2854c5"/>
     <use xlink:href="#m576f99b75b" x="331.051529" y="74.690766" style="fill: #2854c5; stroke: #2854c5"/>
     <use xlink:href="#m576f99b75b" x="347.804835" y="70.627205" style="fill: #2854c5; stroke: #2854c5"/>
     <use xlink:href="#m576f99b75b" x="364.55814" y="52.515902" style="fill: #2854c5; stroke: #2854c5"/>
     <use xlink:href="#m576f99b75b" x="381.311446" y="40.994158" style="fill: #2854c5; stroke: #2854c5"/>
     <use xlink:href="#m576f99b75b" x="398.064752" y="26.936432" style="fill: #2854c5; stroke: #2854c5"/>
     <use xlink:href="#m576f99b75b" x="414.818058" y="25.249106" style="fill: #2854c5; stroke: #2854c5"/>
     <use xlink:href="#m576f99b75b" x="431.571364" y="24.110909" style="fill: #2854c5; stroke: #2854c5"/>
    </g>
   </g>
   <g id="line2d_24">
    <path d="M 62.998636 290.129407
L 79.751942 273.785304
L 96.505248 274.643944
L 113.258554 274.104798
L 130.01186 275.093232
L 146.765165 275.043311
L 163.518471 274.663912
L 180.271777 272.297661
L 197.025083 274.544102
L 213.778388 274.604007
L 230.531694 274.384355
L 247.285 274.484197
L 264.038306 273.565652
L 280.791612 274.474213
L 297.544917 273.935067
L 314.298223 274.574054
L 331.051529 274.44426
L 347.804835 273.805273
L 364.55814 274.134751
L 381.311446 272.247741
L 398.064752 263.851045
L 414.818058 262.513165
L 431.571364 261.844225
" clip-path="url(#p87ed59dbb8)" style="fill: none; stroke: #2854c5; stroke-width: 1.5; stroke-linecap: square"/>
    <g clip-path="url(#p87ed59dbb8)">
     <use xlink:href="#m576f99b75b" x="62.998636" y="290.129407" style="fill: #2854c5; stroke: #2854c5"/>
     <use xlink:href="#m576f99b75b" x="79.751942" y="273.785304" style="fill: #2854c5; stroke: #2854c5"/>
     <use xlink:href="#m576f99b75b" x="96.505248" y="274.643944" style="fill: #2854c5; stroke: #2854c5"/>
     <use xlink:href="#m576f99b75b" x="113.258554" y="274.104798" style="fill: #2854c5; stroke: #2854c5"/>
     <use xlink:href="#m576f99b75b" x="130.01186" y="275.093232" style="fill: #2854c5; stroke: #2854c5"/>
     <use xlink:href="#m576f99b75b" x="146.765165" y="275.043311" style="fill: #2854c5; stroke: #2854c5"/>
     <use xlink:href="#m576f99b75b" x="163.518471" y="274.663912" style="fill: #2854c5; stroke: #2854c5"/>
     <use xlink:href="#m576f99b75b" x="180.271777" y="272.297661" style="fill: #2854c5; stroke: #2854c5"/>
     <use xlink:href="#m576f99b75b" x="197.025083" y="274.544102" style="fill: #2854c5; stroke: #2854c5"/>
     <use xlink:href="#m576f99b75b" x="213.778388" y="274.604007" style="fill: #2854c5; stroke: #2854c5"/>
     <use xlink:href="#m576f99b75b" x="230.531694" y="274.384355" style="fill: #2854c5; stroke: #2854c5"/>
     <use xlink:href="#m576f99b75b" x="247.285" y="274.484197" style="fill: #2854c5; stroke: #2854c5"/>
     <use xlink:href="#m576f99b75b" x="264.038306" y="273.565652" style="fill: #2854c5; stroke: #2854c5"/>
     <use xlink:href="#m576f99b75b" x="280.791612" y="274.474213" style="fill: #2854c5; stroke: #2854c5"/>
     <use xlink:href="#m576f99b75b" x="297.544917" y="273.935067" style="fill: #2854c5; stroke: #2854c5"/>
     <use xlink:href="#m576f99b75b" x="314.298223" y="274.574054" style="fill: #2854c5; stroke: #2854c5"/>
     <use xlink:href="#m576f99b75b" x="331.051529" y="274.44426" style="fill: #2854c5; stroke: #2854c5"/>
     <use xlink:href="#m576f99b75b" x="347.804835" y="273.805273" style="fill: #2854c5; stroke: #2854c5"/>
     <use xlink:href="#m576f99b75b" x="364.55814" y="274.134751" style="fill: #2854c5; stroke: #2854c5"/>
     <use xlink:href="#m576f99b75b" x="381.311446" y="272.247741" style="fill: #2854c5; stroke: #2854c5"/>
     <use xlink:href="#m576f99b75b" x="398.064752" y="263.851045" style="fill: #2854c5; stroke: #2854c5"/>
     <use xlink:href="#m576f99b75b" x="414.818058" y="262.513165" style="fill: #2854c5; stroke: #2854c5"/>
     <use xlink:href="#m576f99b75b" x="431.571364" y="261.844225" style="fill: #2854c5; stroke: #2854c5"/>
    </g>
   </g>
   <g id="patch_3">
    <path d="M 44.57 303.64
L 44.57 10.8
" style="fill: none; stroke: #000000; stroke-width: 0.8; stroke-linejoin: miter; stroke-linecap: square"/>
   </g>
   <g id="patch_4">
    <path d="M 44.57 303.64
L 450 303.64
" style="fill: none; stroke: #000000; stroke-width: 0.8; stroke-linejoin: miter; stroke-linecap: square"/>
   </g>
   <g id="legend_1">
    <g id="patch_5">
     <path d="M 51.57 48.15625
L 186.87625 48.15625
Q 188.87625 48.15625 188.87625 46.15625
L 188.87625 17.8
Q 188.87625 15.8 186.87625 15.8
L 51.57 15.8
Q 49.57 15.8 49.57 17.8
L 49.57 46.15625
Q 49.57 48.15625 51.57 48.15625
z
" style="fill: #ffffff; opacity: 0.8; stroke: #cccccc; stroke-linejoin: miter"/>
    </g>
    <g id="line2d_25">
     <path d="M 53.57 23.898438
L 63.57 23.898438
L 73.57 23.898438
" style="fill: none; stroke-dasharray: 5.55,2.4; stroke-dashoffset: 0; stroke: #2854c5; stroke-width: 1.5"/>
     <g>
      <use xlink:href="#m576f99b75b" x="63.57" y="23.898438" style="fill: #2854c5; stroke: #2854c5"/>
     </g>
    </g>
    <g id="text_14">
     <!-- Without flush events -->
     <g transform="translate(81.57 27.398438) scale(0.1 -0.1)">
      <defs>
       <path id="DejaVuSans-57" d="M 213 4666
L 850 4666
L 1831 722
L 2809 4666
L 3519 4666
L 4500 722
L 5478 4666
L 6119 4666
L 4947 0
L 4153 0
L 3169 4050
L 2175 0
L 1381 0
L 213 4666
z
" transform="scale(0.015625)"/>
       <path id="DejaVuSans-74" d="M 1172 4494
L 1172 3500
L 2356 3500
L 2356 3053
L 1172 3053
L 1172 1153
Q 1172 725 1289 603
Q 1406 481 1766 481
L 2356 481
L 2356 0
L 1766 0
Q 1100 0 847 248
Q 594 497 594 1153
L 594 3053
L 172 3053
L 172 3500
L 594 3500
L 594 4494
L 1172 4494
z
" transform="scale(0.015625)"/>
       <path id="DejaVuSans-68" d="M 3513 2113
L 3513 0
L 2938 0
L 2938 2094
Q 2938 2591 2744 2837
Q 2550 3084 2163 3084
Q 1697 3084 1428 2787
Q 1159 2491 1159 1978
L 1159 0
L 581 0
L 581 4863
L 1159 4863
L 1159 2956
Q 1366 3272 1645 3428
Q 1925 3584 2291 3584
Q 2894 3584 3203 3211
Q 3513 2838 3513 2113
z
" transform="scale(0.015625)"/>
       <path id="DejaVuSans-66" d="M 2375 4863
L 2375 4384
L 1825 4384
Q 1516 4384 1395 4259
Q 1275 4134 1275 3809
L 1275 3500
L 2222 3500
L 2222 3053
L 1275 3053
L 1275 0
L 697 0
L 697 3053
L 147 3053
L 147 3500
L 697 3500
L 697 3744
Q 697 4328 969 4595
Q 1241 4863 1831 4863
L 2375 4863
z
" transform="scale(0.015625)"/>
       <path id="DejaVuSans-6c" d="M 603 4863
L 1178 4863
L 1178 0
L 603 0
L 603 4863
z
" transform="scale(0.015625)"/>
       <path id="DejaVuSans-76" d="M 191 3500
L 800 3500
L 1894 563
L 2988 3500
L 3597 3500
L 2284 0
L 1503 0
L 191 3500
z
" transform="scale(0.015625)"/>
      </defs>
      <use xlink:href="#DejaVuSans-57"/>
      <use xlink:href="#DejaVuSans-69" transform="translate(96.626953 0)"/>
      <use xlink:href="#DejaVuSans-74" transform="translate(124.410156 0)"/>
      <use xlink:href="#DejaVuSans-68" transform="translate(163.619141 0)"/>
      <use xlink:href="#DejaVuSans-6f" transform="translate(226.998047 0)"/>
      <use xlink:href="#DejaVuSans-75" transform="translate(288.179688 0)"/>
      <use xlink:href="#DejaVuSans-74" transform="translate(351.558594 0)"/>
      <use xlink:href="#DejaVuSans-20" transform="translate(390.767578 0)"/>
      <use xlink:href="#DejaVuSans-66" transform="translate(422.554688 0)"/>
      <use xlink:href="#DejaVuSans-6c" transform="translate(457.759766 0)"/>
      <use xlink:href="#DejaVuSans-75" transform="translate(485.542969 0)"/>
      <use xlink:href="#DejaVuSans-73" transform="translate(548.921875 0)"/>
      <use xlink:href="#DejaVuSans-68" transform="translate(601.021484 0)"/>
      <use xlink:href="#DejaVuSans-20" transform="translate(664.400391 0)"/>
      <use xlink:href="#DejaVuSans-65" transform="translate(696.1875 0)"/>
      <use xlink:href="#DejaVuSans-76" transform="translate(757.710938 0)"/>
      <use xlink:href="#DejaVuSans-65" transform="translate(816.890625 0)"/>
      <use xlink:href="#DejaVuSans-6e" transform="translate(878.414062 0)"/>
      <use xlink:href="#DejaVuSans-74" transform="translate(941.792969 0)"/>
      <use xlink:href="#DejaVuSans-73" transform="translate(981.001953 0)"/>
     </g>
    </g>
    <g id="line2d_26">
     <path d="M 53.57 38.576563
L 63.57 38.576563
L 73.57 38.576563
" style="fill: none; stroke: #2854c5; stroke-width: 1.5; stroke-linecap: square"/>
     <g>
      <use xlink:href="#m576f99b75b" x="63.57" y="38.576563" style="fill: #2854c5; stroke: #2854c5"/>
     </g>
    </g>
    <g id="text_15">
     <!-- With flush events -->
     <g transform="translate(81.57 42.076563) scale(0.1 -0.1)">
      <use xlink:href="#DejaVuSans-57"/>
      <use xlink:href="#DejaVuSans-69" transform="translate(96.626953 0)"/>
      <use xlink:href="#DejaVuSans-74" transform="translate(124.410156 0)"/>
      <use xlink:href="#DejaVuSans-68" transform="translate(163.619141 0)"/>
      <use xlink:href="#DejaVuSans-20" transform="translate(226.998047 0)"/>
      <use xlink:href="#DejaVuSans-66" transform="translate(258.785156 0)"/>
      <use xlink:href="#DejaVuSans-6c" transform="translate(293.990234 0)"/>
      <use xlink:href="#DejaVuSans-75" transform="translate(321.773438 0)"/>
      <use xlink:href="#DejaVuSans-73" transform="translate(385.152344 0)"/>
      <use xlink:href="#DejaVuSans-68" transform="translate(437.251953 0)"/>
      <use xlink:href="#DejaVuSans-20" transform="translate(500.630859 0)"/>
      <use xlink:href="#DejaVuSans-65" transform="translate(532.417969 0)"/>
      <use xlink:href="#DejaVuSans-76" transform="translate(593.941406 0)"/>
      <use xlink:href="#DejaVuSans-65" transform="translate(653.121094 0)"/>
      <use xlink:href="#DejaVuSans-6e" transform="translate(714.644531 0)"/>
      <use xlink:href="#DejaVuSans-74" transform="translate(778.023438 0)"/>
      <use xlink:href="#DejaVuSans-73" transform="translate(817.232422 0)"/>
     </g>
    </g>
   </g>
  </g>
 </g>
 <defs>
  <clipPath id="p87ed59dbb8">
   <rect x="44.57" y="10.8" width="405.43" height="292.84"/>
  </clipPath>
 </defs>
</svg>
