<?xml version="1.0" encoding="UTF-8" standalone="no"?>
<!-- Created with Inkscape (http://www.inkscape.org/) -->

<svg
   width="70.926109mm"
   height="70.967003mm"
   viewBox="0 0 70.926109 70.967003"
   version="1.1"
   id="svg1"
   xml:space="preserve"
   xmlns:inkscape="http://www.inkscape.org/namespaces/inkscape"
   xmlns:sodipodi="http://sodipodi.sourceforge.net/DTD/sodipodi-0.dtd"
   xmlns="http://www.w3.org/2000/svg"
   xmlns:svg="http://www.w3.org/2000/svg"><sodipodi:namedview
     id="namedview1"
     pagecolor="#ffffff"
     bordercolor="#000000"
     borderopacity="0.25"
     inkscape:showpageshadow="2"
     inkscape:pageopacity="0.0"
     inkscape:pagecheckerboard="true"
     inkscape:deskcolor="#d1d1d1"
     inkscape:document-units="mm" /><defs
     id="defs1" /><g
     inkscape:label="Layer 1"
     inkscape:groupmode="layer"
     id="layer1"
     transform="translate(-12.343247,-3.0752684)"><path
       style="fill:#ffffff;fill-opacity:1;stroke:#ffffff;stroke-width:0.5;stroke-dasharray:none;stroke-opacity:0.406072"
       d="M 14.038498,73.507016 13.67586,73.221765 V 63.175518 53.129271 L 13.344128,52.691154 C 11.7873,50.635057 12.784496,47.341231 15.24219,46.42169 c 1.524272,-0.570303 3.138664,-0.308327 4.277522,0.694137 1.381092,1.215685 1.784405,2.724657 1.250932,4.680288 -0.0887,0.325173 -0.03678,0.409163 0.438325,0.709086 1.85266,1.169533 4.432292,2.195486 6.882552,2.737281 1.825223,0.403588 6.075122,0.435701 7.944361,0.06003 2.467399,-0.495888 5.383156,-1.633311 7.247606,-2.827257 l 0.636332,-0.407492 -0.195513,-0.733149 c -0.525825,-1.97178 0.640373,-4.220916 2.563265,-4.943529 0.999169,-0.375482 2.411637,-0.324015 3.323687,0.121107 1.793077,0.875104 2.778277,2.957928 2.281062,4.822422 l -0.195513,0.733149 0.636332,0.407491 c 1.860517,1.191427 4.76754,2.326404 7.247607,2.829652 1.854601,0.37633 6.104643,0.342517 7.94436,-0.06321 2.44672,-0.539588 5.028565,-1.566128 6.882553,-2.736499 0.475109,-0.299923 0.527027,-0.383913 0.438324,-0.709086 -0.53394,-1.957344 -0.130307,-3.464473 1.254237,-4.683197 0.852199,-0.750131 1.751729,-1.036055 3.002469,-0.954357 1.1388,0.07439 1.90736,0.415488 2.68236,1.190492 1.42564,1.425636 1.64367,3.815091 0.48745,5.342101 l -0.33173,0.438117 v 10.046247 10.046247 l -0.36264,0.285251 c -0.33594,0.264252 -0.54251,0.285251 -2.80618,0.285251 -2.200686,0 -2.475846,-0.02615 -2.768469,-0.26306 l -0.324917,-0.263059 -0.03718,-9.508732 c -0.02045,-5.229803 -0.05633,-9.508732 -0.07973,-9.508732 -0.0234,0 -0.533114,0.279826 -1.132686,0.621835 -4.441178,2.533347 -10.379159,3.412778 -15.719663,2.328125 -2.232227,-0.453364 -5.33959,-1.665466 -7.069988,-2.757817 -0.287317,-0.181376 -0.554593,-0.329774 -0.593945,-0.329774 -0.03935,0 -0.07155,4.276253 -0.07155,9.502786 v 9.502785 l -0.337821,0.337821 c -0.333776,0.333777 -0.367634,0.337822 -2.827689,0.337822 -2.460055,0 -2.493912,-0.004 -2.827688,-0.337822 L 44.642802,73.11662 v -9.502785 c 0,-5.226533 -0.0322,-9.502786 -0.07155,-9.502786 -0.03935,0 -0.306628,0.148398 -0.593946,0.329774 -1.730397,1.092351 -4.837761,2.304453 -7.069987,2.757817 -5.340504,1.084653 -11.278486,0.205222 -15.719664,-2.328125 -0.599572,-0.342009 -1.107547,-0.621835 -1.128833,-0.621835 -0.02129,0 -0.05717,1.584875 -0.07973,3.521945 -0.04092,3.512621 -0.04189,3.522641 -0.365946,3.784849 -0.441893,0.357554 -0.927745,0.330246 -1.332909,-0.07492 l -0.33782,-0.337815 V 57.798934 54.45513 H 16.84137 15.740323 v 8.636337 8.636337 h 1.101047 1.101047 v -3.416781 c 0,-3.393568 0.0022,-3.418814 0.31854,-3.716033 0.453921,-0.426437 1.099841,-0.395336 1.46635,0.0706 0.283604,0.360545 0.28992,0.473468 0.250843,4.485323 l -0.04009,4.115467 -0.324917,0.262942 c -0.292565,0.236761 -0.568214,0.262942 -2.768464,0.262942 -2.263671,0 -2.470242,-0.021 -2.806185,-0.285251 z M 48.909361,63.091467 V 54.45513 h -1.101047 -1.101047 v 8.636337 8.636337 h 1.101047 1.101047 z m 30.966949,0 V 54.45513 h -1.10105 -1.10105 v 8.636337 8.636337 h 1.10105 1.10105 z M 17.909267,52.184964 c 0.526771,-0.321176 0.936096,-0.942755 1.06169,-1.612225 0.118585,-0.632115 -0.380081,-1.649586 -1.014486,-2.069945 -1.434909,-0.950774 -3.472518,0.281283 -3.280635,1.983663 0.17645,1.565457 1.935841,2.489657 3.233431,1.698507 z m 30.852904,0.07302 c 1.385421,-0.71643 1.621239,-2.419319 0.487237,-3.518437 -0.465696,-0.45137 -0.545416,-0.477802 -1.441094,-0.477802 -0.895677,0 -0.975398,0.02643 -1.441093,0.477802 -1.118199,1.083801 -0.939197,2.645093 0.396654,3.459687 0.510528,0.311317 1.456125,0.339117 1.998296,0.05875 z M 79.87771,52.149817 c 0.66275,-0.451069 0.9829,-0.951987 1.06308,-1.663356 0.13941,-1.236778 -0.85525,-2.293531 -2.15876,-2.293531 -1.77042,0 -2.747602,1.948176 -1.71451,3.418155 0.60448,0.860102 1.95702,1.119393 2.81019,0.538732 z m -54.219528,-12.992243 -0.286803,-0.364611 0.03596,-17.47076 0.03596,-17.4707598 0.324916,-0.263087 c 0.316837,-0.256546 0.864936,-0.263088 22.040099,-0.263088 21.175571,0 21.723256,0.0065 22.040099,0.263101 l 0.324917,0.263102 v 8.0069098 8.006911 l -0.324917,0.263101 c -0.441803,0.357751 -0.927677,0.330514 -1.332909,-0.07472 L 68.177682,19.715852 V 12.552791 5.3897302 H 47.807743 27.437804 l 0.03498,16.0684028 0.03498,16.068404 h 20.30055 20.300553 l 0.06882,-7.049197 c 0.06286,-6.439436 0.08953,-7.073386 0.308323,-7.328844 0.358456,-0.418531 1.109735,-0.376142 1.470889,0.08299 0.280761,0.356929 0.285251,0.482307 0.285251,7.96403 0,7.481723 -0.0045,7.6071 -0.285251,7.964029 l -0.285251,0.362638 H 47.808314 25.944985 Z m 4.268109,-4.264583 C 29.642285,34.531935 29.64104,34.473637 29.64104,21.535962 c 0,-13.8015828 -0.0084,-13.6153898 0.625505,-13.8586438 0.122536,-0.04702 1.799857,-0.08549 3.72738,-0.08549 h 3.504586 l 0.337822,0.337822 c 0.430547,0.430547 0.430547,0.958273 0,1.38882 -0.337272,0.337272 -0.342533,0.337822 -3.234326,0.337822 h -2.896504 v 6.7439118 c 0,3.709152 0.0449,6.743912 0.09979,6.743912 0.05488,0 1.683386,-1.579314 3.618899,-3.509587 2.666494,-2.659276 3.600138,-3.509587 3.853538,-3.509587 0.257323,0 1.754874,1.419153 6.495543,6.155492 5.341258,5.33638 6.186413,6.128485 6.351198,5.952535 0.104543,-0.111626 1.405477,-1.827084 2.890964,-3.812129 1.485487,-1.985045 2.856406,-3.711073 3.046486,-3.835618 0.652133,-0.427294 0.977721,-0.130045 3.383526,3.089022 1.224702,1.638703 2.280495,3.038297 2.346207,3.110209 0.06767,0.07405 0.119476,-3.611258 0.119476,-8.498706 V 9.6562882 H 52.58057 41.250015 l -0.299253,-0.31854 c -0.423444,-0.450736 -0.395274,-1.099891 0.06338,-1.460672 0.360507,-0.283575 0.432417,-0.285251 12.237891,-0.285251 6.531389,0 11.975509,0.03847 12.098045,0.08549 0.633909,0.243253 0.625505,0.05706 0.625505,13.8586438 0,12.937675 -0.0012,12.995973 -0.285251,13.357029 l -0.285251,0.362637 H 47.808314 30.211542 Z m 23.80015,-1.667909 c 0,-0.05704 -3.251428,-3.354701 -7.225396,-7.328129 l -7.225397,-7.224414 -3.785073,3.783196 -3.785072,3.783195 v 3.453179 c 0,1.899249 0.04129,3.494469 0.09175,3.544933 0.127751,0.127752 21.929184,0.115861 21.929184,-0.01196 z m 10.155252,-1.390391 0.03938,-1.42529 -2.65437,-3.558224 c -1.459903,-1.957023 -2.699837,-3.560746 -2.755407,-3.563829 -0.05557,-0.0031 -1.224826,1.490141 -2.598346,3.318274 l -2.497307,3.323879 1.716927,1.702055 1.716927,1.702056 3.496404,-0.03682 3.496405,-0.03681 z M 51.006701,18.005678 c -1.257532,-0.45607 -2.015417,-1.57291 -2.023434,-2.981791 -0.0042,-0.740348 0.06225,-1.009165 0.385455,-1.559027 1.272354,-2.164628 4.358373,-2.067444 5.493174,0.17299 0.657567,1.298233 0.448721,2.560352 -0.597539,3.611102 -0.889954,0.893773 -2.102885,1.175527 -3.257656,0.756726 z m 1.831396,-2.218565 c 0.212947,-0.212948 0.337821,-0.49507 0.337821,-0.763226 0,-0.498908 -0.528398,-1.101047 -0.966208,-1.101047 -0.353788,0 -0.832983,0.243606 -1.05947,0.538597 -0.477787,0.622301 0.100947,1.663497 0.924631,1.663497 0.268156,0 0.550278,-0.124873 0.763226,-0.337821 z"
       id="path4" /></g></svg>
