<?xml version="1.0" encoding="UTF-8" standalone="no"?>
<!-- Created with Inkscape (http://www.inkscape.org/) -->

<svg
   version="1.1"
   id="svg13647"
   width="256"
   height="256"
   viewBox="0 0 256 256"
   sodipodi:docname="Gear-256_nest.svg"
   inkscape:version="1.2 (1:1.2.1+202207142221+cd75a1ee6d)"
   xmlns:inkscape="http://www.inkscape.org/namespaces/inkscape"
   xmlns:sodipodi="http://sodipodi.sourceforge.net/DTD/sodipodi-0.dtd"
   xmlns="http://www.w3.org/2000/svg"
   xmlns:svg="http://www.w3.org/2000/svg">
  <defs
     id="defs13651" />
  <sodipodi:namedview
     id="namedview13649"
     pagecolor="#ffffff"
     bordercolor="#666666"
     borderopacity="1.0"
     inkscape:showpageshadow="2"
     inkscape:pageopacity="0.0"
     inkscape:pagecheckerboard="0"
     inkscape:deskcolor="#d1d1d1"
     showgrid="false"
     inkscape:zoom="3.3203125"
     inkscape:cx="77.703529"
     inkscape:cy="243.2"
     inkscape:window-width="1848"
     inkscape:window-height="1016"
     inkscape:window-x="72"
     inkscape:window-y="27"
     inkscape:window-maximized="1"
     inkscape:current-layer="g13653" />
  <g
     inkscape:groupmode="layer"
     inkscape:label="Image"
     id="g13653">
    <g
       id="g13657"
       transform="translate(-2.9356665,0.60652575)">
      <path
         style="fill:#fee3da"
         d="m 96.102652,253.75 c -0.466316,-1.2375 -1.166755,-3.71624 -1.556532,-5.50832 -0.389776,-1.79207 -1.542523,-3.70457 -2.561661,-4.25 -3.660511,-1.95904 -5.759717,-1.06579 -9.513805,4.0483 l -3.699683,5.03997 -2.635486,-1.71075 c -1.449517,-0.94091 -4.092415,-2.6464 -5.873106,-3.78997 -1.780692,-1.14358 -3.23952,-2.52923 -3.24184,-3.07923 -0.0023,-0.55 1.295166,-3.25 2.883301,-6 2.760069,-4.77931 2.816682,-5.1209 1.282641,-7.73915 -1.531584,-2.61406 -1.923429,-2.72823 -8.580029,-2.5 L 55.631302,228.5 54.308033,222.06373 C 52.779075,214.627 52.74916,214.66971 60.75,212.86558 c 3.895002,-0.8783 5.25,-1.63785 5.25,-2.94292 0,-0.9675 0.252273,-2.4165 0.560607,-3.22 0.3624,-0.9444 -1.213557,-2.8295 -4.457404,-5.33179 -2.759906,-2.12898 -5.03718,-4.21529 -5.060607,-4.63625 C 56.988124,195.75583 64.108309,185 64.810723,185 c 0.29016,0 2.917527,1.34881 5.838593,2.99736 5.292366,2.98683 5.321628,2.99091 8.327266,1.16308 1.65893,-1.00886 2.855836,-2.02017 2.65979,-2.24736 -0.196046,-0.2272 -0.631313,-3.16609 -0.96726,-6.53088 l -0.610813,-6.1178 5.637632,-1.1322 c 8.90413,-1.78821 8.958184,-1.76663 10.316101,4.1178 2.163594,9.37577 6.756048,10.3946 12.558398,2.78605 l 3.78555,-4.96395 3.70178,2.08052 c 2.03598,1.14429 4.86341,3.04056 6.28317,4.21395 l 2.58138,2.13343 -3.35579,5.61572 -3.3558,5.61571 2.14464,2.68801 c 2.0819,2.60938 2.32015,2.66018 8.14464,1.73669 3.3,-0.52322 6.16321,-0.79668 6.3627,-0.60769 0.33074,0.31335 3.01992,12.09457 3.10217,13.59051 0.0193,0.35143 -2.88987,1.43072 -6.46487,2.39842 -4.88872,1.32332 -6.5,2.19818 -6.5,3.52926 0,0.97339 -0.25109,2.42412 -0.55798,3.22386 -0.36248,0.94462 1.21411,2.75488 4.5,5.16695 2.78189,2.04209 5.05798,4.13149 5.05798,4.64311 0,1.35979 -7.21751,12.00949 -7.91123,11.67331 -0.32382,-0.15693 -2.93854,-1.52137 -5.81048,-3.0321 -5.09859,-2.68202 -5.28768,-2.70546 -8.0203,-0.99427 -2.60303,1.63004 -2.74995,2.06699 -2.10242,6.25251 1.35415,8.75297 1.42543,8.60721 -4.82235,9.86195 -7.684918,1.54335 -8.255916,1.47457 -9.230568,-1.11195 z m 5.912948,-26.60161 c 7.78997,-4.13959 10.47458,-14.1534 5.69707,-21.25051 C 99.590965,193.8329 81,199.47165 81,214 c 0,7.93236 6.832047,15 14.5,15 1.667162,0 4.59918,-0.83323 6.5156,-1.85161 z m 75.53175,-25.72138 c -4.33419,-1.88467 -8.02149,-3.56781 -8.19398,-3.74031 -0.1725,-0.1725 0.78668,-3.8799 2.13151,-8.23866 l 2.44514,-7.92503 -3.03629,-3.13266 -3.0363,-3.13266 -7.46681,2.37116 C 156.28387,178.93298 152.59494,180 152.193,180 c -0.40195,0 -2.0723,-3.45261 -3.71191,-7.67247 -1.6396,-4.21985 -3.12683,-8.03209 -3.30497,-8.47163 -0.17813,-0.43954 3.10459,-2.49561 7.29493,-4.56905 l 7.6188,-3.76988 -0.29492,-4.448 c -0.29255,-4.41213 -0.3529,-4.47912 -7.48517,-8.30949 l -7.19023,-3.86151 3.49864,-8.17406 c 1.92425,-4.49573 3.64401,-8.31943 3.82169,-8.4971 0.17767,-0.17767 3.86389,0.89176 8.19159,2.37651 l 7.86855,2.69956 3.13232,-2.77086 3.13232,-2.77087 -2.45041,-7.97914 c -1.34773,-4.38854 -2.18457,-8.245 -1.85964,-8.56993 1.07016,-1.07016 16.03151,-7.017039 16.67274,-6.627129 0.34503,0.2098 2.0809,3.689009 3.85747,7.731589 l 3.23015,7.35013 h 4.46388 4.46389 l 3.40374,-6.75893 c 1.87206,-3.71741 3.85186,-7.035883 4.39956,-7.374381 0.7767,-0.480022 15.23802,4.713671 16.92857,6.079781 0.20602,0.16648 -0.91102,3.92095 -2.4823,8.34325 l -2.85689,8.04055 3.00818,3.00817 3.00817,3.00818 7.78123,-2.61621 c 4.27967,-1.43891 7.99792,-2.39952 8.26276,-2.13467 0.26484,0.26484 2.02486,4.14089 3.91114,8.61344 l 3.4296,8.1319 -7.60524,3.82664 -7.60524,3.82663 -0.113,4.30229 -0.113,4.30229 7.25,3.58648 c 3.9875,1.97257 7.25,4.01948 7.25,4.54869 0,1.59768 -6.34573,16.59923 -7.02156,16.59923 -0.34547,0 -3.94246,-1.12727 -7.9933,-2.50505 l -7.36515,-2.50506 -3.055,2.75506 c -1.68025,1.51528 -3.216,2.8388 -3.41278,2.94117 -0.29056,0.15115 2.63715,9.73548 4.60319,15.06933 0.45246,1.22751 -1.05245,2.02584 -11.81782,6.26915 l -4.96336,1.95638 -3.7064,-7.49049 L 202.56143,190 h -4.58752 -4.58753 l -3.42805,7.08614 c -1.88543,3.89737 -3.67613,7.23945 -3.97934,7.42684 -0.3032,0.1874 -4.09744,-1.20129 -8.43164,-3.08597 z m 30.97958,-33.44365 c 5.1304,-3.17077 8.75878,-9.94957 8.75878,-16.3638 0,-7.40815 -3.92444,-13.78204 -10.64676,-17.29195 -3.76,-1.96319 -12.4729,-1.98651 -16.18775,-0.0433 -7.75566,4.05688 -12.38406,12.57972 -11.10659,20.45189 0.86477,5.32893 5.45318,11.38667 10.66877,14.08518 5.48219,2.83646 13.12814,2.49037 18.51355,-0.83799 z M 64.972905,143.75 c -0.04282,-3.55568 -1.80109,-20.91156 -2.154216,-21.26425 -0.175279,-0.17507 -2.619088,-1.22493 -5.430686,-2.33304 l -5.111998,-2.01473 -8.888002,7.39578 -8.888003,7.39579 -8.930164,-8.9017 -8.930165,-8.90169 7.775266,-8.56431 7.775266,-8.564299 -2.25314,-5.436106 -2.25314,-5.436106 -6.591962,-0.616676 C 17.466383,86.169491 12.25,85.575236 9.5,85.188097 L 4.5,84.484207 4.2202721,72.373049 3.9405443,60.261891 7.0952721,59.630946 C 8.8303725,59.283926 13.23125,58.993855 16.875,58.986345 c 9.610408,-0.01981 10.655461,-0.496108 12.773552,-5.821765 1.018297,-2.560369 1.967032,-4.891574 2.108301,-5.180456 0.141269,-0.288882 -3.10538,-4.565989 -7.214775,-9.504682 L 17.07045,29.5 l 8.901696,-8.930164 8.901696,-8.930165 8.579942,7.789464 8.579942,7.789463 5.409835,-2.195691 C 63.50832,22.561401 63.279413,23.119548 64.539526,7.7207806 L 65.176116,-0.05843888 77.838058,0.22078056 90.5,0.5 l 0.237204,6 c 0.130462,3.3 0.491199,8.289325 0.801639,11.08739 0.563703,5.080787 0.571615,5.090365 6.096258,7.380201 l 5.531819,2.292813 4.66654,-4.392457 c 2.5666,-2.415852 6.36132,-5.94477 8.43271,-7.84204 l 3.76617,-3.449583 8.48383,8.43976 C 133.18228,24.657952 137,28.926708 137,29.502207 c 0,0.5755 -3.1526,4.852642 -7.00577,9.504762 -3.85318,4.652119 -6.89068,8.693298 -6.75,8.980397 0.14067,0.287099 1.08892,2.616845 2.10722,5.177214 2.1302,5.356117 3.12205,5.796303 13.14855,5.83542 12.14485,0.04738 11.5,-0.71169 11.5,13.537037 v 12.303775 l -6.75,0.621874 c -16.9967,1.565896 -15.68066,1.051614 -18.19121,7.108762 l -2.24899,5.426103 7.77526,8.564299 7.77527,8.56431 -8.94702,8.94701 -8.94701,8.94702 -8.93874,-7.5249 c -4.91631,-4.13869 -9.18583,-7.40573 -9.48783,-7.26009 -0.302,0.14564 -2.632294,1.0935 -5.178428,2.10636 -5.259959,2.09243 -5.830174,3.63502 -5.850296,15.82665 C 90.993994,146.4753 91.652329,146 77.393011,146 65.215694,146 64.999528,145.96084 64.972905,143.75 Z M 88.958465,96.021189 C 100.61768,90.073103 106.29917,76.015512 102.06817,63.584137 100.27961,58.329052 93.511184,51.140338 88.073203,48.720154 c -5.90051,-2.626033 -15.245896,-2.626033 -21.146406,0 -5.437981,2.420184 -12.206411,9.608898 -13.994971,14.863983 -4.973341,14.612506 3.639184,30.63095 18.568174,34.534965 4.437256,1.160367 13.115923,0.117487 17.458465,-2.097913 z"
         id="path13671" />
      <path
         style="fill:#fed8cc"
         d="M 96.591356,254.87192 C 96.349662,254.11736 95.609087,251.7 94.945633,249.5 93.326644,244.13146 92.273744,243 88.896947,243 c -2.264141,0 -3.631386,1.0357 -6.578552,4.98331 -3.697967,4.95328 -3.735749,4.97335 -6.269391,3.32923 -1.401952,-0.90975 -4.005934,-2.58974 -5.786625,-3.73331 -1.780692,-1.14358 -3.243192,-2.43267 -3.25,-2.86465 -0.0068,-0.43198 1.312465,-3.10513 2.93172,-5.94034 2.866829,-5.01963 2.899636,-5.23057 1.25,-8.0372 -1.673085,-2.84653 -1.777289,-2.87398 -8.400669,-2.21253 l -6.70657,0.66975 -0.643711,-2.84713 c -0.354041,-1.56592 -1.083295,-4.59912 -1.620564,-6.74044 -1.147391,-4.573 -0.889416,-4.82589 6.642369,-6.51143 4.815225,-1.0776 5.363507,-1.48177 5.956798,-4.39105 0.594965,-2.91749 0.203861,-3.60688 -4.370721,-7.70421 l -5.024157,-4.5 3.42343,-5.35353 c 1.882887,-2.94445 3.631357,-5.56146 3.885489,-5.8156 0.254132,-0.25413 2.967378,0.95186 6.029436,2.67998 5.496023,3.10176 5.605478,3.11953 8.54015,1.38597 2.320166,-1.37055 2.886754,-2.32033 2.580938,-4.32644 -0.21551,-1.41371 -0.633622,-4.42165 -0.929138,-6.68432 l -0.537302,-4.11395 5.656843,-1.13605 c 8.921828,-1.79176 8.975046,-1.77062 10.354497,4.11394 1.526134,6.51029 2.481235,7.75 5.970763,7.75 2.05472,0 3.69647,-1.14639 6.44451,-4.5 2.02807,-2.475 4.1142,-4.5 4.63584,-4.5 0.52164,0 3.38104,1.61516 6.35422,3.58924 l 5.40578,3.58923 -3.33152,5.65823 c -3.21894,5.46701 -3.27657,5.75125 -1.70556,8.41076 1.73417,2.93572 2.75353,3.11779 10.40213,1.85793 l 4.70737,-0.77538 1.54263,6.7824 c 0.84844,3.73032 1.54262,6.96428 1.54262,7.18657 0,0.2223 -2.8761,1.1827 -6.39133,2.13423 -5.86436,1.58741 -6.44445,1.99128 -7.03573,4.89842 -0.67979,3.34228 0.0402,4.31427 6.88516,9.29464 l 2.9223,2.12627 -3.92275,6.05842 -3.92275,6.05843 -5.69377,-3.03475 c -5.66365,-3.01869 -5.71004,-3.02515 -8.76658,-1.21961 -1.86016,1.09883 -2.90437,2.42087 -2.64601,3.35006 0.23474,0.8442 0.71792,3.83453 1.07374,6.64517 l 0.64696,5.11026 -3.82462,0.61315 c -2.10354,0.33723 -5.28019,0.90498 -7.05922,1.26166 -2.304864,0.46211 -3.360911,0.25417 -3.674044,-0.72341 z m 5.388714,-27.62347 c 10.70446,-5.37811 10.70446,-21.11879 0,-26.4969 C 92.184601,195.83014 81,202.89297 81,214 c 0,8.06566 6.701576,14.99689 14.5,14.99689 1.65,0 4.56603,-0.7868 6.48007,-1.74844 z m 75.55107,-25.92639 c -4.38287,-1.88454 -8.0944,-3.55198 -8.24784,-3.70543 -0.15345,-0.15344 0.84504,-3.58378 2.21885,-7.62296 1.37382,-4.03919 2.48466,-7.60266 2.46854,-7.91882 -0.0161,-0.31617 -1.32693,-2.00058 -2.91291,-3.74315 l -2.88359,-3.1683 -7.83709,2.41817 c -4.31041,1.32999 -7.97256,2.41822 -8.13813,2.41829 -0.3188,1.5e-4 -1.99753,-3.87775 -5.24244,-12.11014 l -1.97523,-5.01121 7.50935,-3.46954 L 160,155.93944 v -4.75509 -4.75509 l -6.53429,-3.2222 c -3.59386,-1.77221 -6.75967,-3.80953 -7.03513,-4.52737 -0.38547,-1.00451 4.77492,-15.04486 6.05211,-16.46655 0.14174,-0.15778 3.87341,1.0327 8.29261,2.64551 l 8.03491,2.93238 3.06331,-3.16053 3.0633,-3.16053 -2.50743,-7.89596 c -1.37909,-4.34278 -2.15237,-8.20125 -1.71841,-8.57437 0.43396,-0.37313 4.28169,-2.07191 8.55052,-3.77508 l 7.76149,-3.096667 3.62767,7.936057 3.62766,7.93605 h 4.27045 4.27046 l 4.11624,-7.5 c 2.26393,-4.125 4.28615,-7.5 4.49383,-7.5 1.5237,0 16.06503,6.8868 16.04378,7.59837 -0.0148,0.4959 -1.1196,4.17568 -2.4551,8.1773 l -2.42818,7.27567 3.09312,3.09312 3.09313,3.09313 6.86197,-2.26512 c 3.77409,-1.24582 7.36387,-2.44916 7.97729,-2.6741 0.62207,-0.22811 2.57624,3.21528 4.41882,7.7863 3.80121,9.42994 4.12167,8.70108 -6.12475,13.93014 -5.48073,2.79699 -5.59192,2.9394 -5.65702,7.24585 l -0.0664,4.39278 7.46751,3.69502 c 8.43171,4.17212 8.22492,3.27855 3.29932,14.25679 l -2.78884,6.21579 -8.21001,-2.51325 -8.21001,-2.51325 -2.99075,2.99075 -2.99076,2.99076 2.26512,6.86197 c 1.24582,3.77409 2.47336,7.42693 2.72787,8.11743 0.45246,1.22751 -1.05245,2.02584 -11.81782,6.26915 l -4.96336,1.95638 -3.7064,-7.49049 L 202.56144,190 h -4.58752 -4.58753 l -3.42805,7.08614 c -1.88543,3.89737 -3.65986,7.21578 -3.94319,7.37425 -0.28333,0.15846 -4.10112,-1.25379 -8.484,-3.13833 z m 29.08495,-32.23518 c 4.94834,-2.24713 8.78751,-7.03851 10.35281,-12.92056 2.84087,-10.67538 -4.56183,-21.52716 -16.15372,-23.68008 -7.30776,-1.35724 -16.2035,3.55302 -19.76484,10.90978 -7.81362,16.14078 9.12131,33.15859 25.56575,25.69086 z M 65.672273,145.25 c -0.245169,-0.4125 -0.745268,-4.575 -1.111331,-9.25 -1.066824,-13.62443 -0.959744,-13.38279 -7.048703,-15.90652 l -5.401864,-2.23895 -8.305188,7.07263 c -4.567853,3.88995 -8.765122,7.07268 -9.327265,7.07274 -0.562143,5e-5 -4.765972,-3.76334 -9.341842,-8.36311 l -8.319765,-8.36321 7.693016,-8.62336 7.693017,-8.623367 -2.259869,-5.45234 C 27.411094,86.467092 27.943069,86.68863 12.75,85.414804 L 5,84.765025 v -12.25167 -12.25167 l 3.75,-0.619837 c 2.0625,-0.34091 6.9574,-0.624789 10.877555,-0.630842 7.864558,-0.01214 8.127145,-0.183016 10.684278,-6.952546 1.91611,-5.072542 2.336124,-4.132505 -6.726946,-15.055633 l -5.915114,-7.129101 8.393036,-8.436863 C 30.678978,16.796588 34.843697,13 35.31774,13 c 0.474042,0 4.406488,3.200584 8.738767,7.112409 l 7.876873,7.112408 5.148981,-1.851548 C 60.204372,24.25061 62.528567,22.730117 62.986363,21.510861 63.401624,20.404887 64.066568,15.1125 64.464016,9.75 L 65.186649,0 h 12.290044 c 14.253527,0 13.486184,-0.66369741 13.509652,11.6849 0.01896,9.978094 0.781756,11.461138 7.019645,13.647802 l 5.22814,1.832702 3.63294,-3.320447 c 1.99811,-1.826246 5.67032,-5.23544 8.16046,-7.575988 l 4.52753,-4.255541 8.91278,8.95426 c 8.2128,8.251031 8.79488,9.094763 7.41168,10.743286 -0.8256,0.983964 -4.12596,4.837653 -7.33413,8.563753 l -5.83305,6.774727 2.43873,5.725273 2.43874,5.725273 5.95509,0.237204 c 3.27531,0.130462 8.3176,0.500342 11.2051,0.821956 l 5.25,0.584753 v 12.310556 12.310556 l -7.75,0.649779 c -15.19307,1.273826 -14.66109,1.052288 -17.19248,7.159709 l -2.25987,5.45234 7.69302,8.623367 7.69302,8.62336 -8.31977,8.36321 c -4.57587,4.59977 -8.7797,8.35465 -9.34184,8.34418 -0.56215,-0.0105 -4.79841,-3.17669 -9.41392,-7.03605 -4.61551,-3.85937 -8.66761,-6.8883 -9.00468,-6.73097 -0.33706,0.15733 -2.707691,1.1192 -5.26806,2.1375 -5.325657,2.11809 -5.801957,3.16314 -5.821765,12.77355 -0.0075,3.64375 -0.294905,8.03125 -0.638655,9.75 L 89.75,146 H 77.934017 c -6.498791,0 -12.016576,-0.3375 -12.261744,-0.75 z M 84.30718,97.933284 c 17.19553,-4.3748 24.81752,-25.023904 14.762896,-39.994875 -10.158536,-15.125694 -32.981616,-15.125694 -43.140152,0 -13.564577,20.197169 4.747769,46.006571 28.377256,39.994875 z"
         id="path13669" />
      <path
         style="fill:#fec7b5"
         d="m 95.364667,250.25 c -2.07119,-6.85417 -2.057214,-6.8362 -5.864667,-7.54034 -2.718648,-0.50278 -3.364378,-0.0514 -6.88528,4.81316 l -3.88528,5.36797 -5.922544,-4.02192 c -3.257399,-2.21206 -5.781445,-4.32499 -5.60899,-4.6954 0.172454,-0.37041 1.557274,-3.03837 3.077377,-5.92881 2.669112,-5.07525 2.705323,-5.34463 1.056708,-7.86073 -1.645231,-2.51094 -1.952857,-2.58117 -8.48613,-1.9374 -7.604076,0.74929 -6.631936,1.68155 -8.782114,-8.42191 -1.103185,-5.18376 -1.025931,-5.26724 6.414924,-6.93243 4.973878,-1.11311 5.359614,-1.41664 5.976032,-4.70243 0.572397,-3.05113 0.29283,-3.8 -2.128339,-5.70114 -1.533011,-1.20374 -3.8214,-3.08862 -5.08531,-4.18862 l -2.298017,-2 3.676441,-5.5 c 2.022042,-3.025 3.812324,-5.66496 3.978403,-5.86659 0.166079,-0.20162 2.581257,1.03588 5.367063,2.75 5.833629,3.58947 6.748497,3.70703 9.695204,1.24579 1.960508,-1.63752 2.091934,-2.38281 1.42205,-8.06414 -0.495543,-4.20274 -0.38386,-6.38341 0.339852,-6.6358 2.097355,-0.73143 10.100092,-2.38071 11.66882,-2.40481 1.116181,-0.0172 1.952974,1.5936 2.804422,5.39827 1.327579,5.93225 2.335989,7.20956 6.104708,7.73261 1.97824,0.27455 3.30039,-0.64462 6.33507,-4.40418 2.10928,-2.61313 4.25201,-4.75115 4.76161,-4.75115 1.54939,0 10.86732,6.43012 10.8683,7.5 5e-4,0.55 -1.31199,3.23038 -2.91665,5.9564 -2.82832,4.8048 -2.86641,5.04298 -1.24539,7.78714 1.64441,2.78378 1.78353,2.81977 8.38437,2.16934 7.52688,-0.74168 6.57654,-1.6577 8.71179,8.39716 1.01758,4.79173 1.02178,4.78782 -7.65079,7.1231 -3.38154,0.91055 -4.10243,1.57914 -4.66008,4.32202 -0.69785,3.43246 -0.0164,4.36066 6.89247,9.38757 l 2.9449,2.14273 -3.72301,5.60727 c -2.04766,3.084 -4.2146,5.60727 -4.81542,5.60727 -0.60083,0 -3.28802,-1.23421 -5.97154,-2.74269 -4.71702,-2.65157 -4.9711,-2.68662 -7.64738,-1.05497 -2.47194,1.50708 -2.72326,2.14853 -2.34792,5.9927 0.92361,9.45966 1.05411,9.15151 -4.42033,10.43798 -8.247518,1.93814 -8.221853,1.94924 -10.135333,-4.38302 z m 8.437783,-23.95183 c 4.76893,-3.56052 6.42832,-6.73513 6.42832,-12.29817 0,-11.42193 -12.444798,-18.82532 -21.926436,-13.044 -10.466177,6.38163 -9.82742,21.72135 1.110852,26.67707 3.972665,1.79987 11.070674,1.14129 14.387264,-1.3349 z M 178,201.38233 c -4.125,-1.82604 -7.83442,-3.44658 -8.24316,-3.6012 -0.40874,-0.15462 0.43791,-3.88273 1.88143,-8.28468 l 2.62459,-8.00355 -3.03118,-3.24488 -3.03117,-3.24488 -6.71773,2.07489 c -3.69476,1.1412 -7.34233,2.31458 -8.10571,2.60752 -1.39149,0.53396 -2.00426,-0.59164 -6.41782,-11.78895 l -1.97253,-5.00433 7.50664,-3.42089 C 159.36056,156.3419 160,155.79976 160,153.10703 c 0,-1.6189 0.26325,-3.62947 0.585,-4.46794 0.42247,-1.10095 -1.0361,-2.3514 -5.25,-4.50091 -10.55929,-5.38628 -10.23274,-4.67744 -6.34039,-13.76331 1.85545,-4.33118 3.45265,-7.9993 3.54933,-8.15139 0.0967,-0.15209 3.78188,1.0531 8.18935,2.67818 l 8.01359,2.95471 3.09157,-3.18969 3.09157,-3.18969 -2.44514,-7.92503 c -1.34483,-4.35876 -2.31329,-8.05689 -2.15212,-8.21805 0.7005,-0.7005 15.04905,-6.330619 16.05478,-6.299613 0.61185,0.01886 2.64479,3.393863 4.51765,7.500003 L 194.31037,114 h 4.27477 4.27477 L 207,106.5 c 2.27705,-4.125 4.29626,-7.5 4.48714,-7.5 0.19088,0 2.52186,0.936616 5.17995,2.08137 2.6581,1.14475 6.29243,2.69555 8.0763,3.44621 l 3.24338,1.36484 -2.83494,8.0112 -2.83493,8.0112 3.2605,3.1602 3.26051,3.16021 7.75719,-2.60813 c 4.26646,-1.43447 7.85134,-2.4999 7.9664,-2.36762 1.04623,1.20283 6.48089,15.85877 6.10265,16.45736 -0.27218,0.43074 -3.67566,2.35816 -7.5633,4.28316 l -7.06843,3.5 -0.0162,4.53071 -0.0162,4.53072 7.56049,3.74103 c 8.5381,4.22476 8.32294,3.31329 3.38181,14.32614 l -2.79932,6.23916 -8.08546,-2.65068 -8.08546,-2.65068 -3.11172,3.11172 -3.11173,3.11173 2.6246,7.80617 c 1.44353,4.2934 2.28759,8.0934 1.87569,8.44446 -0.41189,0.35106 -4.25218,2.03611 -8.53398,3.74456 l -7.78507,3.10628 -3.68421,-7.44566 L 202.56145,190 h -4.58752 -4.58753 l -3.42805,7.08614 c -1.88543,3.89737 -3.65986,7.20541 -3.94319,7.3512 -0.28333,0.14578 -3.89014,-1.22897 -8.01514,-3.05501 z m 28.54137,-32.26199 c 14.90399,-6.76995 14.86259,-27.37231 -0.0697,-34.678 -6.79935,-3.32662 -12.84228,-2.90474 -18.97167,1.32446 -10.56134,7.2872 -11.12278,22.85349 -1.1129,30.85618 5.92928,4.74034 13.2259,5.64448 20.15427,2.49736 z M 64.485646,134.63009 c -0.388748,-5.70345 -0.994552,-10.82197 -1.34623,-11.37449 -0.351679,-0.55252 -2.976085,-2.00536 -5.832013,-3.22854 l -5.192597,-2.22396 -8.429535,7.09845 C 39.049027,128.8057 34.85076,132 34.35579,132 c -0.49497,0 -4.634347,-3.7539 -9.198615,-8.342 l -8.298669,-8.34201 5.264414,-5.90799 c 2.895428,-3.2494 6.338535,-7.09548 7.651349,-8.54685 l 2.386933,-2.638847 -1.830601,-5.222227 C 29.212446,89.810272 27.721626,87.482215 26.5,87.018233 25.4,86.600444 20.1125,85.933432 14.75,85.535984 L 5,84.813351 V 72.545966 60.278582 l 5.25,-0.630599 c 2.8875,-0.346829 8.007634,-0.63451 11.378075,-0.639291 L 27.75615,59 l 2.221765,-5.940946 2.221766,-5.940945 -7.269314,-8.632439 -7.269313,-8.632438 8.596825,-8.596825 c 9.857093,-9.857093 7.990459,-9.891842 19.421494,0.361547 L 52.5,27.735907 58,25.10079 63.5,22.465672 64.359375,11.232836 65.21875,0 h 12.259782 12.259783 l 0.619837,3.75 c 0.34091,2.0625 0.624789,7.154694 0.630842,11.315986 L 91,22.631972 l 5.269326,2.184014 c 2.89813,1.201208 5.710634,2.173751 6.250004,2.161208 0.53937,-0.01254 4.48549,-3.162543 8.76915,-7 C 115.57214,16.139737 119.40708,13 119.81056,13 c 0.40348,0 4.50942,3.795542 9.12432,8.434539 l 8.39072,8.434538 -7.21543,8.568451 -7.21543,8.568451 2.18662,5.997011 2.18662,5.99701 6.11601,0.0087 c 3.36381,0.0048 8.47851,0.292462 11.36601,0.639291 L 150,60.27859 v 12.242432 12.242432 l -8.75,0.662659 c -13.86802,1.050259 -13.61953,0.940697 -16.1879,7.137357 l -2.27032,5.477565 5.85411,6.562775 c 9.94171,11.14519 9.93231,9.30372 0.0977,19.13832 l -8.59682,8.59683 -8.57596,-7.22176 -8.57596,-7.22175 -5.982749,2.30228 -5.982749,2.30228 -0.02568,7.5 c -0.01412,4.125 -0.304609,9.1875 -0.645519,11.25 L 89.738315,145 H 77.465388 65.19246 Z M 86.536678,97.332803 C 97.421126,93.624098 105.0306,81.349581 103.65352,69.72234 101.87155,54.676341 86.816716,43.708646 72.380404,46.939351 c -20.626149,4.61593 -28.213551,29.32274 -13.517931,44.01836 7.580659,7.580659 17.458134,9.856059 27.674205,6.375092 z"
         id="path13667" />
      <path
         style="fill:#feb096"
         d="m 95.240297,249.78169 c -1.700116,-5.773 -2.078636,-6.27065 -5.285775,-6.94925 -3.015897,-0.63813 -3.708464,-0.39049 -5.454522,1.95041 -1.1,1.47475 -2.960989,3.79982 -4.135532,5.16683 l -2.135532,2.48548 -5.621388,-3.73239 -5.621387,-3.73239 3.025082,-5.99265 c 2.93407,-5.81236 2.973477,-6.07142 1.309822,-8.61047 -1.648515,-2.51596 -1.977216,-2.59348 -8.447185,-1.99216 l -6.731924,0.62567 -1.188447,-5.72472 c -0.653646,-3.14859 -1.380983,-6.22645 -1.616304,-6.83969 -0.251568,-0.65558 2.25838,-1.84211 6.091679,-2.87974 6.203742,-1.67927 6.551484,-1.93505 7.179114,-5.28061 0.576911,-3.0752 0.298142,-3.79936 -2.22421,-5.77791 -1.586083,-1.24413 -3.907137,-3.10267 -5.157897,-4.13008 L 56.951783,196.5 60.623851,191 c 2.019637,-3.025 3.77596,-5.63297 3.902939,-5.7955 0.126979,-0.16252 2.5552,1.07498 5.396047,2.75 5.968505,3.51916 6.337723,3.57611 9.548054,1.47262 2.251847,-1.47547 2.365274,-1.99335 1.831383,-8.3616 l -0.569141,-6.7887 6.678387,-1.26013 c 3.673113,-0.69306 6.820516,-1.09285 6.994229,-0.8884 0.173714,0.20444 0.957836,3.05671 1.742495,6.33837 1.341387,5.61006 1.633594,6.00972 4.889206,6.68695 3.00649,0.62542 3.74336,0.36639 5.59453,-1.96666 1.17259,-1.47782 3.03353,-3.79739 4.13544,-5.15459 l 2.00347,-2.46764 5.61455,3.72785 c 3.08801,2.05032 5.61456,3.95508 5.61456,4.23279 0,0.27772 -1.38356,2.95648 -3.07458,5.9528 -3.03412,5.37617 -3.05058,5.48157 -1.25,8.0091 1.73511,2.43565 2.15116,2.531 8.48492,1.9445 l 6.66034,-0.61673 1.45382,6.34248 c 0.7996,3.48837 1.17744,6.63017 0.83966,6.98178 -0.33779,0.3516 -3.15118,1.362 -6.25199,2.24532 -5.26618,1.50017 -5.68244,1.84382 -6.31449,5.2129 -0.37215,1.98377 -0.53513,3.69907 -0.36216,3.81178 0.17296,0.11271 2.33948,1.72853 4.81448,3.59071 2.475,1.86218 4.68072,3.5172 4.90159,3.67782 0.69113,0.50257 -6.86898,11.32218 -7.91128,11.32218 -0.5441,0 -3.21643,-1.2375 -5.93851,-2.75 -4.79984,-2.66699 -5.03381,-2.69858 -7.75052,-1.04672 -2.48585,1.51148 -2.7618,2.1871 -2.45065,6 0.8098,9.92348 1.25599,9.05249 -5.35063,10.44489 -3.3,0.69551 -6.321401,1.2842 -6.714225,1.3082 -0.392823,0.024 -1.538288,-2.75461 -2.545478,-6.17468 z M 103.01017,226.75 c 5.4516,-3.71033 7.49937,-7.25857 7.41625,-12.85041 -0.0827,-5.56729 -2.12278,-9.04689 -7.41625,-12.64959 -9.241707,-6.28985 -22.394785,1.19858 -22.394785,12.75 0,8.17444 6.773058,15 14.884615,15 2.713743,0 5.37626,-0.79767 7.51017,-2.25 z m 74.02215,-25.8751 c -3.55722,-1.63731 -6.66001,-3.16926 -6.89509,-3.40434 -0.23508,-0.23507 0.60956,-4.06928 1.87698,-8.52046 l 2.30439,-8.09304 -3.04733,-3.04732 -3.04732,-3.04733 -6.36197,2.06601 c -10.33509,3.35624 -9.61701,3.65379 -13.34044,-5.52803 l -3.32513,-8.19961 7.73513,-3.62987 7.73513,-3.62987 v -4.44248 -4.44247 l -7.37176,-4.0693 c -8.30002,-4.58171 -8.09939,-3.67851 -3.22859,-14.53461 l 2.80794,-6.25836 7.92548,2.89244 7.92549,2.89245 3.17668,-3.27751 3.17669,-3.27751 -2.49886,-7.86895 c -1.37437,-4.32792 -2.40456,-7.95013 -2.2893,-8.04936 C 170.95604,104.83239 185.3631,99 186.1129,99 c 0.49691,0 2.58347,3.39522 4.6368,7.54493 l 3.73333,7.54492 4.44015,-0.29492 c 4.36932,-0.29023 4.49824,-0.40245 8.08265,-7.03576 2.00338,-3.70746 3.87746,-6.975792 4.16462,-7.262956 0.28717,-0.287164 3.17879,0.657816 6.42583,2.099946 3.24705,1.44214 6.90989,3.00942 8.13966,3.48286 l 2.23595,0.86079 -2.91413,7.90354 -2.91413,7.90353 3.34714,3.24417 3.34714,3.24418 7.75719,-2.60813 c 4.26646,-1.43447 7.86383,-2.4999 7.99415,-2.36762 0.86913,0.88223 6.35961,16.01424 6.01368,16.57397 -0.23686,0.38326 -3.61942,2.23945 -7.51679,4.12488 L 236,147.38638 V 152 v 4.61362 l 7.08614,3.42805 c 3.89737,1.88543 7.26938,3.72456 7.49336,4.08696 0.39404,0.63758 -0.13008,2.06254 -4.43331,12.05306 l -2.01655,4.68169 -8.07879,-2.64849 -8.07879,-2.64849 -3.20283,3.20283 -3.20283,3.20283 2.60515,7.94658 2.60515,7.94657 -7.63835,3.07277 c -4.20109,1.69003 -7.94433,3.07035 -8.3183,3.0674 -0.37398,-0.003 -2.48121,-3.26788 -4.68275,-7.25538 l -4.00278,-7.25 -4.31726,0.008 -4.31726,0.008 -3.79883,7.24242 c -2.08935,3.98333 -4.33935,7.20908 -5,7.16833 -0.66064,-0.0407 -4.11162,-1.41371 -7.66885,-3.05101 z m 29.88173,-31.83105 c 13.44917,-6.86125 14.66881,-25.36294 2.21279,-33.56738 -9.89784,-6.51943 -23.39214,-2.70618 -28.24718,7.98216 -2.06199,4.53947 -2.40952,11.00576 -0.81833,15.22627 1.3946,3.69905 6.67378,9.20842 10.43867,10.89382 4.43008,1.98319 11.95915,1.73785 16.41405,-0.53487 z m -142.429528,-35.45147 -0.712775,-11.40762 -5.930588,-2.1624 -5.930588,-2.16241 -8.55992,7.20825 -8.559919,7.20825 -8.573465,-8.57347 -8.573465,-8.57346 2.428099,-2.9968 c 1.335454,-1.64823 4.608207,-5.48826 7.272783,-8.5334 l 4.844683,-5.536604 -1.75478,-4.781358 C 29.469458,90.651611 28.063069,87.990314 27.309278,87.367364 26.555487,86.744414 21.227531,85.91361 15.469375,85.521133 L 5,84.80754 V 72.548375 60.28921 l 6.75,-0.637496 c 3.7125,-0.350623 8.804694,-0.640695 11.315986,-0.644605 4.565434,-0.0071 4.566251,-0.0077 6.75,-5.276435 C 31.017194,50.832544 32,48.075004 32,47.602806 32,47.130608 28.790769,42.933245 24.868375,38.275333 L 17.736749,29.806401 26.096297,21.4032 C 30.694048,16.78144 34.742823,13 35.093574,13 c 0.350751,0 4.353705,3.317359 8.895454,7.371909 l 8.257725,7.37191 5.785755,-2.496425 5.785754,-2.496425 L 64.52903,11.375485 65.239797,0 h 12.240811 12.24081 l 0.630599,5.25 c 0.346829,2.8875 0.63451,7.956238 0.639291,11.263863 L 91,22.527726 l 5.836218,2.579448 5.836222,2.579449 8.30499,-7.343311 C 115.54518,16.30449 119.56632,13 119.91329,13 c 0.34698,0 4.39266,3.78144 8.99041,8.4032 l 8.35955,8.403201 -7.13162,8.468932 C 126.20923,42.933245 123,47.130608 123,47.602806 c 0,0.472198 0.98281,3.229738 2.18401,6.127868 2.18375,5.268689 2.18457,5.269327 6.75,5.276435 2.5113,0.0039 7.60349,0.293982 11.31599,0.644605 L 150,60.28921 v 12.271109 12.271109 l -10.98344,0.711866 c -6.11399,0.396264 -11.35778,1.209484 -11.8278,1.834286 -0.4644,0.617331 -1.63948,3.274062 -2.61127,5.903847 l -1.76691,4.781427 3.58562,4.218576 c 1.97209,2.32021 5.24605,6.15902 7.27547,8.53067 l 3.68984,4.3121 -8.60792,8.60793 -8.60793,8.60792 -8.52794,-7.24011 -8.52795,-7.24011 -6.044885,2.20408 L 91,122.26798 90.9913,128.38399 C 90.9865,131.7478 90.698838,136.8625 90.352009,139.75 L 89.72141,145 H 77.45935 65.19729 L 64.484514,133.59238 Z M 89.568214,96.222252 C 102.15299,89.795882 107.51468,73.360737 101.09075,60.902316 96.057778,51.14147 88.488344,46.523173 77.5,46.509018 66.679392,46.495078 58.680351,51.342955 53.973562,60.767387 c -7.337302,14.691524 0.149948,32.1516 16.019964,37.358148 4.290377,1.407563 15.160899,0.350602 19.574688,-1.903283 z"
         id="path13665" />
      <path
         style="fill:#fe8e69"
         d="m 95.404741,249.809 c -1.794897,-5.61125 -2.309329,-6.2867 -5.397481,-7.08692 -3.07808,-0.79762 -3.614619,-0.60809 -5.460375,1.9288 -1.125787,1.54733 -2.97551,3.89416 -4.110496,5.21519 l -2.063612,2.40187 -5.678959,-3.77062 -5.678959,-3.77061 3.208309,-5.83592 3.208309,-5.83591 -2.064656,-2.76538 c -2.115871,-2.83398 -4.810913,-3.20236 -12.469318,-1.70442 -2.464677,0.48208 -2.663265,0.20645 -3.75,-5.2048 C 54.516376,220.23766 54,217.12579 54,216.46499 c 0,-0.66079 2.656058,-1.94669 5.902351,-2.85755 3.246294,-0.91087 6.171294,-2.35697 6.5,-3.21357 1.543667,-4.02273 0.55532,-6.25461 -4.3712,-9.871 l -4.968848,-3.64747 3.610428,-5.4377 C 62.658467,188.44696 64.685387,186 65.176998,186 c 0.491611,0 3.194706,1.31408 6.006878,2.92018 l 5.11304,2.92018 2.890709,-2.1372 c 2.825901,-2.08928 2.875969,-2.2868 2.233183,-8.81006 l -0.657528,-6.67287 5.36836,-0.84185 c 8.269716,-1.29684 8.058981,-1.40585 9.784023,5.06091 1.458143,5.46622 1.860823,6.0107 5.055557,6.83591 3.74541,0.96746 3.33011,1.25491 9.1429,-6.32842 l 2.61412,-3.41038 5.63588,3.74202 c 3.09974,2.0581 5.63588,3.94261 5.63588,4.18779 0,0.24518 -1.35,2.73538 -3,5.53379 -1.65,2.79841 -3,5.33624 -3,5.63964 0,0.30339 0.88181,1.79001 1.95958,3.30359 1.83979,2.58375 2.2524,2.7038 6.75,1.96398 7.94294,-1.30655 7.84434,-1.35163 9.11867,4.16908 1.90562,8.25559 1.8204,8.44867 -4.38595,9.93755 -5.76553,1.38313 -7.4423,3.01678 -7.4423,7.2509 0,1.7228 1.33491,3.3357 4.75,5.73915 2.6125,1.83861 4.89519,3.44758 5.07264,3.57549 C 134.20514,230.8551 126.89329,242 126.3299,242 c -0.21281,0 -2.96748,-1.30266 -6.12148,-2.89479 l -5.73455,-2.89479 -2.82737,2.25446 c -2.77141,2.20985 -2.80902,2.37569 -1.90036,8.37928 1.01977,6.73768 1.31366,6.34612 -5.74614,7.65584 -1.925,0.35712 -4.200035,0.84328 -5.055634,1.08036 -1.154866,0.31999 -2.066757,-1.16685 -3.539625,-5.77136 z m 7.585939,-22.66434 C 106.82066,225.09062 111,218.26011 111,214.05461 c 0,-4.35196 -4.14529,-11.22094 -7.9844,-13.23062 -4.469293,-2.33956 -10.609385,-2.32673 -15.006277,0.0314 C 84.276887,202.85706 80,209.71031 80,213.6894 c 0,5.32996 4.616533,12.3016 9.5,14.34639 3.477857,1.45624 9.905423,1.03167 13.49068,-0.89113 z M 177.25,200.81744 c -3.9875,-1.70316 -7.25,-3.63002 -7.25,-4.2819 0,-0.65188 1.08226,-4.36721 2.40502,-8.25628 l 2.40502,-7.07105 -3.34635,-3.2434 -3.34635,-3.24341 -8.00101,2.50349 -8.00101,2.5035 -3.14899,-7.81192 c -1.73194,-4.29655 -2.92165,-8.17975 -2.64379,-8.62933 0.27785,-0.44958 3.71465,-2.37005 7.63732,-4.26772 l 7.13212,-3.4503 -0.29599,-4.46622 c -0.29289,-4.41949 -0.36923,-4.5058 -7.29599,-8.249 -3.85,-2.08053 -7,-4.14705 -7,-4.59227 0,-2.39565 6.01598,-15.26163 7.13616,-15.26163 0.725,0 4.34439,1.13906 8.04309,2.53125 l 6.72492,2.53125 3.38167,-3.38168 3.38168,-3.38167 -2.46817,-8.03694 -2.46816,-8.03694 6.6344,-2.57542 c 3.64893,-1.41649 7.42503,-2.866513 8.39134,-3.222285 1.42824,-0.525846 2.40567,0.776725 5.22475,6.962785 l 3.46783,7.60965 4.77524,-0.004 4.77525,-0.004 3.81648,-7.43428 3.81647,-7.434281 8.15317,3.438571 c 4.48424,1.89121 8.23097,3.43857 8.32606,3.43857 0.0951,0 -1.15508,3.58449 -2.77817,7.96553 l -2.95106,7.96553 3.24576,3.41121 3.24575,3.41122 6.98792,-2.37674 C 239.20574,125.06954 242.89863,124 243.56881,124 c 1.01871,0 2.56272,3.18356 7.13543,14.71239 0.28945,0.72977 -2.54148,2.70789 -7.11168,4.96928 L 236,147.43857 V 152 v 4.56143 l 7.51396,3.718 7.51395,3.71801 -1.61164,3.75128 c -0.8864,2.0632 -2.33975,5.66378 -3.22966,8.00128 -0.8899,2.3375 -2.11713,4.25 -2.72716,4.25 -0.61003,0 -4.29112,-1.08226 -8.18019,-2.40502 l -7.07105,-2.40502 -3.31227,3.4174 -3.31227,3.4174 2.59651,7.92022 2.59652,7.92023 -7.83607,3.15872 c -4.30984,1.7373 -8.20391,2.93139 -8.65349,2.65353 -0.44958,-0.27785 -2.36004,-3.69395 -4.24547,-7.59132 L 202.61362,189 h -4.58753 -4.58752 l -3.7111,7.5 c -2.0411,4.125 -4.05228,7.48067 -4.46928,7.45705 -0.41701,-0.0236 -4.02069,-1.43645 -8.00819,-3.13961 z m 31.43134,-32.42885 c 5.36276,-4.00387 8.57944,-9.04722 9.0777,-14.23264 1.8998,-19.77158 -21.34841,-29.77704 -34.46829,-14.83431 -7.75212,8.82918 -4.695,24.21916 5.87752,29.5883 5.57687,2.83215 15.37195,2.57045 19.51307,-0.52135 z M 65.631661,143.25 c -0.276712,-0.9625 -0.804144,-6.05206 -1.172071,-11.31013 l -0.668958,-9.56013 -5.709744,-2.52355 -5.709744,-2.52355 -8.848886,7.39914 -8.848887,7.39913 -8.336685,-8.29338 c -4.585177,-4.56135 -8.329603,-8.52831 -8.320947,-8.81545 0.0087,-0.28715 3.320184,-4.26715 7.35895,-8.84446 L 32.7179,97.855246 30.415872,92.177623 28.113843,86.5 16.806921,85.5 5.5,84.5 5.2204111,72.398255 4.9408221,60.296509 16.529318,59.398255 28.117814,58.5 l 2.275805,-5.617985 2.275804,-5.617985 -7.456605,-8.738598 -7.456604,-8.738598 8.349815,-8.393417 c 4.592399,-4.616379 8.58475,-8.386334 8.871893,-8.377678 0.287143,0.0087 4.267148,3.320184 8.844455,7.35895 L 52.144754,27.7179 57.822377,25.41579 63.5,23.113679 64.648903,11.806839 C 65.2808,5.5880777 65.8433,0.3875 65.898903,0.25 65.954507,0.1125 71.356696,0 77.90377,0 h 11.90377 l 0.667909,10.75 c 0.367351,5.9125 0.757071,11.11425 0.866046,11.559445 0.108974,0.445195 2.744149,1.844222 5.855943,3.10895 l 5.657812,2.299505 8.32237,-7.343211 c 4.57731,-4.038766 8.55731,-7.350293 8.84446,-7.35895 0.28714,-0.0087 4.2541,3.73577 8.81545,8.320947 l 8.29338,8.336685 -7.38518,8.832198 -7.38518,8.832198 2.26082,5.581117 2.26082,5.581116 11.58849,0.898255 11.5885,0.898254 -0.27959,12.101746 L 149.5,84.5 l -11.06802,0.872533 -11.06802,0.872533 -2.5574,5.786346 -2.55741,5.786346 7.35968,8.341122 c 4.04783,4.58762 7.36677,8.57605 7.37543,8.8632 0.009,0.28714 -3.7613,4.27949 -8.37768,8.87189 l -8.39341,8.34982 -8.75608,-7.47152 -8.75608,-7.47152 -5.850504,2.58576 C 91.273155,122.35155 91,122.64096 91,126.08526 c 0,1.98714 -0.291031,7.05588 -0.646736,11.26386 L 89.706528,145 H 77.920652 c -10.366315,0 -11.846475,-0.21078 -12.288991,-1.75 z M 88,96.92146 C 109.57908,87.164764 109.10603,56.169737 87.253257,47.993566 69.474166,41.341555 51.019538,53.82322 51.019538,72.5 c 0,18.930561 19.964609,32.11495 36.980462,24.42146 z"
         id="path13663" />
      <path
         style="fill:#fe774a"
         d="m 95.527536,249.46366 c -1.624126,-6.00001 -1.857313,-6.30294 -5.357128,-6.95951 -3.319335,-0.62271 -3.891745,-0.38285 -6.164748,2.58327 -6.121823,7.98859 -4.960672,7.62684 -11.194782,3.48763 l -5.556593,-3.68937 3.024332,-5.58384 c 3.013757,-5.5643 3.018063,-5.59547 1.231595,-8.91274 l -1.792736,-3.32891 -6.108738,0.60987 c -3.359806,0.33543 -6.31976,0.7954 -6.577675,1.02217 -0.508383,0.44699 -2.919493,-9.12947 -2.988693,-11.87051 -0.03096,-1.22632 1.417039,-2.00489 5.376834,-2.89105 6.99095,-1.56451 7.314929,-1.80525 7.726187,-5.74106 0.303643,-2.90591 -0.258362,-3.83461 -4.599707,-7.60083 l -4.945614,-4.29045 3.304211,-5.14916 C 62.721596,188.31712 64.591778,186 65.060239,186 c 0.468462,0 3.154062,1.35749 5.968001,3.01665 l 5.116252,3.01665 3.00684,-2.14106 c 2.893224,-2.06016 2.994405,-2.38928 2.677754,-8.71021 L 81.5,174.61287 l 5.996442,-1.2167 c 6.824067,-1.38463 6.724185,-1.45664 8.406544,6.06093 1.127692,5.03906 1.364552,5.32584 4.891044,5.92191 3.91425,0.66162 4.33236,0.37835 9.89156,-6.70152 l 2.1856,-2.78345 5.55889,3.6909 5.55889,3.69089 -3.11119,5.43779 -3.11119,5.43778 1.85832,3.45069 c 1.52342,2.82882 2.31037,3.36547 4.3667,2.97783 1.37962,-0.26008 4.35669,-0.75066 6.61573,-1.09019 l 4.10735,-0.61732 1.19508,6.07446 c 0.65729,3.34096 0.94787,6.47445 0.64574,6.96332 -0.30214,0.48887 -2.77844,1.4236 -5.5029,2.07719 -5.49582,1.31843 -6.55296,2.22964 -7.28253,6.2772 -0.43094,2.39083 0.15927,3.24729 4.3658,6.33517 2.67527,1.96382 4.86412,4.01368 4.86412,4.55524 0,0.75099 -4.47334,7.99603 -6.61653,10.71616 -0.16084,0.20413 -2.80891,-1.04907 -5.8846,-2.78488 l -5.59217,-3.15602 -3.02053,2.1508 c -2.96879,2.11397 -3.0089,2.25936 -2.34189,8.48785 0.75911,7.08847 1.62131,6.21469 -8.18149,8.29137 l -4.137215,0.87645 z m 9.395074,-23.21836 c 6.12477,-4.48527 7.81757,-15.09256 3.36249,-21.06979 -4.63816,-6.22289 -14.033218,-8.25881 -20.549471,-4.45312 -3.961517,2.31365 -7.697026,8.63733 -7.719179,13.06745 -0.02103,4.20609 3.283224,10.70518 6.521461,12.82696 5.443191,3.56651 13.221852,3.40933 18.384699,-0.3715 z M 178,200.96779 c -3.575,-1.58804 -6.88667,-3.03433 -7.35926,-3.21398 -0.47259,-0.17966 0.28365,-3.91026 1.68055,-8.29023 l 2.5398,-7.96358 -3.36295,-3.41574 -3.36295,-3.41574 -7.65949,2.27385 c -4.21271,1.25062 -8.00108,1.8877 -8.4186,1.41574 C 151.30724,177.51046 146,164.46042 146,163.46423 c 0,-0.2831 3.375,-2.05276 7.5,-3.93258 l 7.5,-3.41786 -0.0108,-4.8069 -0.0108,-4.80689 -7.41774,-3.89433 -7.41773,-3.89433 1.82548,-4.60567 c 1.90546,-4.80742 4.26871,-10.35247 4.67061,-10.95891 0.12875,-0.19429 3.86088,0.85458 8.29362,2.33082 l 8.05952,2.68407 3.0039,-3.0039 c 3.55498,-3.55499 3.60236,-4.10519 1.0039,-11.65775 -1.1,-3.19721 -2,-6.36218 -2,-7.03328 0,-1.02881 14.9154,-7.950525 15.54997,-7.216189 0.11857,0.137208 1.84899,3.511969 3.84538,7.499469 l 3.62979,7.25 h 4.74591 4.74591 l 3.93298,-7.34418 3.93297,-7.34418 7.30947,3.17844 c 4.02021,1.74814 7.58755,3.45652 7.92743,3.7964 0.33987,0.33987 -0.62847,4.03544 -2.15189,8.21238 l -2.76984,7.59442 3.25507,3.35838 3.25506,3.35838 7.07105,-2.40502 c 3.88907,-1.32276 7.5979,-2.40502 8.24182,-2.40502 0.64393,0 2.53327,3.4875 4.19854,7.75 l 3.02776,7.75 -7.37369,3.94884 -7.37369,3.94883 v 4.80935 4.80935 l 7.38611,3.65475 7.38611,3.65474 -2.98623,7.08707 c -1.64242,3.89789 -3.35425,7.47765 -3.80406,7.95502 -0.45618,0.48414 -4.14878,-0.25198 -8.35047,-1.66468 l -7.53264,-2.53263 -3.51438,3.3145 -3.51439,3.31449 2.58293,7.68223 c 1.42105,4.22656 2.19249,8.02814 1.71497,8.4512 -1.45351,1.28773 -14.44372,6.13814 -15.19518,5.67372 -0.38668,-0.23898 -2.24567,-3.62327 -4.1311,-7.52064 L 202.61362,189 h -4.58753 -4.58752 l -3.7111,7.5 c -2.0411,4.125 -4.05228,7.4674 -4.46928,7.42756 -0.41701,-0.0398 -3.68319,-1.37174 -7.25819,-2.95977 z m 30.92236,-32.79694 C 225.36105,158.24284 217.8121,132 198.51754,132 c -15.1376,0 -24.71068,15.96665 -17.4104,29.03827 5.81161,10.40605 17.45245,13.39108 27.81522,7.13258 z M 65.607678,140.75 c -0.283177,-2.3375 -0.87325,-7.53951 -1.311273,-11.56001 L 63.5,121.87997 l -5.690282,-2.30408 -5.690282,-2.30408 -8.777506,7.38916 -8.777506,7.38917 -8.456519,-8.45652 -8.456518,-8.45652 7.588164,-8.50583 7.588164,-8.505831 -2.355497,-5.81272 L 28.116721,86.5 17.30836,85.343892 C 11.363762,84.708032 6.1625,84.145532 5.75,84.093892 5.3375,84.042251 5,78.6 5,72 V 60 l 6.25,-0.0087 c 11.3886,-0.01584 16.819457,-1.05346 17.744328,-3.390236 0.45737,-1.15559 1.509577,-3.68754 2.338239,-5.626557 l 1.506656,-3.525484 -7.429439,-8.957545 -7.42944,-8.957544 8.446351,-8.446352 8.446352,-8.446351 7.642421,6.929381 c 4.203332,3.811159 8.169397,7.298437 8.813477,7.749506 0.684188,0.479158 3.524105,-0.226571 6.830814,-1.697481 l 5.659759,-2.517607 0.638773,-7.802519 C 64.809616,11.011134 65.339778,5.8125 65.63643,3.75 L 66.175796,0 H 78.087898 90 l 0.0071,4.75 c 0.0039,2.6125 0.297338,7.823437 0.652062,11.579859 l 0.644953,6.829859 5.4555,2.412681 c 3.000525,1.326975 5.969595,2.108351 6.597935,1.736392 0.62834,-0.37196 4.65368,-3.829153 8.94519,-7.682653 l 7.80274,-7.006362 8.45717,8.457172 8.45718,8.457173 -7.3831,8.770302 -7.3831,8.770301 2.31747,5.712638 c 2.21709,5.465189 2.50398,5.741914 6.62318,6.388515 2.36814,0.371732 7.56821,0.709232 11.55571,0.75 L 150,60 v 11.954687 11.954687 l -3.25,0.494548 c -1.7875,0.272002 -6.98931,0.854892 -11.55958,1.295313 L 126.88084,86.5 l -2.35428,5.812719 -2.35427,5.81272 7.58816,8.505831 7.58816,8.50583 -8.44127,8.44128 -8.44128,8.44128 -8.85843,-7.34723 -8.85842,-7.34723 -5.624606,2.28045 -5.624604,2.28045 -0.651103,5.30695 c -0.358107,2.91882 -0.695607,8.11945 -0.75,11.55695 L 90,145 H 78.061273 66.122546 Z M 87,97.799004 c 4.803232,-1.749874 9.963485,-6.067005 13.10663,-10.965167 2.54496,-3.965983 3.26555,-6.303311 3.66517,-11.888469 0.60377,-8.438591 -1.34149,-14.352151 -6.663166,-20.255882 -13.211373,-14.656354 -37.499366,-9.94401 -44.601871,8.653633 -2.748228,7.196133 -1.728116,17.078473 2.432178,23.561729 3.641937,5.675466 10.613244,10.769628 15.954806,11.658699 1.983439,0.330132 4.056253,0.745799 4.606253,0.923706 1.392339,0.450375 8.48964,-0.591539 11.5,-1.688249 z"
         id="path13661" />
      <path
         style="fill:#fe6532"
         d="m 95.526191,249.0865 c -1.646053,-5.43654 -2.063471,-5.96471 -5.175337,-6.5485 -4.137061,-0.77612 -4.483494,-0.57273 -8.462872,4.96845 l -3.18305,4.43232 -2.867816,-1.69406 c -1.577298,-0.93173 -4.067049,-2.6503 -5.53278,-3.81903 l -2.664965,-2.12497 3.091175,-5.47726 3.091175,-5.47726 -2.007779,-3.17107 -2.00778,-3.17107 -6.739247,0.62635 -6.739248,0.62635 -1.163834,-5.79516 C 53.708269,215.2138 53.712701,215 55.318499,215 c 0.725174,0 3.591286,-0.67495 6.369138,-1.49988 4.658953,-1.38356 5.096423,-1.78201 5.641013,-5.13793 0.507145,-3.12516 0.21115,-3.9358 -2.099602,-5.75012 -1.479487,-1.16164 -3.783515,-3.05098 -5.120061,-4.19854 l -2.430086,-2.08648 3.322603,-4.91352 c 1.827431,-2.70244 3.44798,-5.07433 3.601219,-5.27087 0.153239,-0.19653 2.773792,1.07026 5.823452,2.8151 5.537795,3.16841 5.548805,3.17013 8.669799,1.35734 3.116193,-1.81001 3.123413,-1.83403 2.573042,-8.56074 -0.615672,-7.52482 -1.466543,-6.61426 8.071629,-8.63787 l 4.240645,-0.89969 0.953951,3.6416 c 0.524673,2.00288 1.241886,4.83615 1.593807,6.29615 0.501738,2.08155 1.429733,2.80274 4.299072,3.34103 3.4364,0.64467 3.90319,0.40641 7.66555,-3.91269 2.20348,-2.52954 4.31393,-4.5955 4.68988,-4.59103 0.37596,0.004 2.94847,1.41609 5.71669,3.13691 l 5.03314,3.12877 -2.63126,4.62123 c -1.4472,2.54168 -2.97407,5.01559 -3.39305,5.49759 -0.41899,0.482 0.21757,2.4045 1.41457,4.27223 2.30879,3.60251 2.72198,3.65899 12.79061,1.74824 2.41685,-0.45865 2.66588,-0.17143 3.29782,3.80353 0.37596,2.3648 0.9269,5.27658 1.22432,6.47062 0.47677,1.91409 -0.1501,2.37988 -5.29781,3.93643 -7.06546,2.13644 -6.95171,2.04187 -7.68963,6.39259 -0.56203,3.31366 -0.32891,3.67964 4.37871,6.8742 2.73479,1.85581 4.97234,3.79973 4.97234,4.31982 0,0.77111 -1.52932,3.25704 -6.49155,10.55215 -0.0921,0.13539 -2.71179,-1.13192 -5.82155,-2.81623 -5.63259,-3.05074 -5.66593,-3.05548 -8.76547,-1.24617 -3.10918,1.81494 -3.11093,1.82091 -2.46874,8.43551 l 0.64265,6.61928 -4.49049,1.13072 c -7.720603,1.94407 -8.095849,1.766 -10.078659,-4.78278 z m 7.970409,-21.96611 c 11.97425,-6.90706 9.22398,-24.49318 -4.396043,-28.10976 -11.077396,-2.94142 -20.844023,6.88236 -18.621334,18.73031 0.785064,4.18475 6.915578,10.79688 10.734817,11.57815 3.468924,0.70961 8.93785,-0.26939 12.28256,-2.1987 z M 178,200.73515 c -4.125,-1.70772 -7.65896,-3.21821 -7.85324,-3.35663 -0.19429,-0.13842 0.83003,-3.80474 2.27626,-8.14737 l 2.62951,-7.8957 -3.29361,-3.49223 -3.2936,-3.49224 -7.48266,2.30556 c -4.11546,1.26806 -7.76469,2.31409 -8.10939,2.32451 -0.63013,0.019 -7.08913,-15.12799 -6.62274,-15.53102 0.13721,-0.11857 3.51197,-1.84899 7.49947,-3.84538 l 7.25,-3.62979 v -4.80532 -4.80532 l -7.36573,-3.89294 -7.36572,-3.89294 2.96584,-7.03917 c 1.63121,-3.87154 3.28905,-7.38494 3.68409,-7.80754 0.39504,-0.4226 4.15866,0.469 8.36359,1.98135 l 7.64534,2.74971 3.40163,-3.29699 3.40163,-3.29699 -2.45304,-8.01331 c -1.34918,-4.40733 -2.30108,-8.16399 -2.11534,-8.34815 0.18574,-0.18416 3.71271,-1.68823 7.83771,-3.34239 l 7.5,-3.00757 3.22808,6.60561 c 1.77545,3.63308 3.35045,6.93551 3.5,7.33874 0.14956,0.40323 2.52192,0.87489 5.27192,1.04814 l 5,0.315 3.50924,-6.65829 c 1.93008,-3.66206 3.83266,-6.98173 4.22797,-7.37703 1.04022,-1.040221 15.93056,5.67322 15.47308,6.97618 -0.21134,0.6019 -1.44651,4.14796 -2.74483,7.88013 l -2.36058,6.78578 3.47152,3.47151 3.47151,3.47152 7.78315,-2.61685 c 4.28073,-1.43927 7.90465,-2.45505 8.05315,-2.25729 0.14851,0.19776 1.63866,3.77765 3.31145,7.95532 l 3.04144,7.59575 -7.36855,3.64606 L 236,146.98363 V 152 v 5.01637 l 7.36181,3.64272 7.36181,3.64273 -3.19607,7.35001 c -1.75784,4.04251 -3.41638,7.57034 -3.68566,7.83961 -0.26927,0.26928 -3.992,-0.68799 -8.27273,-2.12726 l -7.78315,-2.61686 -3.40777,3.40777 -3.40777,3.40778 2.51476,7.39372 c 1.38313,4.06654 2.51477,7.70942 2.51477,8.09529 0,0.68266 -15.12007,7.19508 -15.54997,6.69759 -0.11857,-0.13721 -1.84899,-3.51197 -3.84538,-7.49947 L 202.97486,189 h -4.97533 -4.97532 l -3.76211,7.42005 -3.7621,7.42005 z m 26.10078,-29.87325 c 9.38405,-3.1419 14.34473,-10.52436 13.7152,-20.41091 -0.70039,-10.99945 -7.31589,-17.56966 -18.40151,-18.27554 -5.47189,-0.34842 -6.9652,-0.0428 -10.81607,2.21402 -5.41518,3.1735 -8.1025,6.75549 -9.63542,12.84327 -3.65838,14.52873 11.04337,28.34815 25.1378,23.62916 z M 65.525587,138.25 C 63.970112,121.67891 64.134655,122.08936 58,119.47751 c -6.286772,-2.67661 -5.16042,-3.1059 -16.286016,6.20706 l -7.388314,6.18458 -8.320731,-8.36419 -8.320731,-8.36418 7.732178,-8.51684 7.732178,-8.516843 L 30.824282,92.151256 28.5,86.195415 21,85.554778 C 16.875,85.202428 11.573679,84.655293 9.2192868,84.338922 L 4.9385737,83.763701 5.2192868,72.131851 5.5,60.5 11,60.264013 c 3.025,-0.129793 8.215924,-0.492768 11.535387,-0.806611 l 6.035388,-0.570624 1.94692,-5.193389 c 1.070807,-2.856364 2.091637,-5.491153 2.268512,-5.855087 0.176876,-0.363935 -2.290163,-3.738935 -5.482308,-7.5 -3.192144,-3.761066 -6.443087,-7.651814 -7.224317,-8.646106 -1.293532,-1.646313 -0.670733,-2.561405 6.971849,-10.243895 l 8.392267,-8.436091 4.528151,4.25615 c 2.490483,2.340883 6.16842,5.755632 8.173192,7.588332 l 3.645042,3.332182 6.011064,-2.344437 L 63.812211,23.5 64.439079,17 c 0.344777,-3.575 0.88888,-8.8625 1.209117,-11.75 L 66.230447,0 H 78.115223 90 v 5.8533088 c 0,3.2193199 0.277802,8.5068202 0.617337,11.7500002 L 91.234674,23.5 l 5.936211,2.324282 5.936215,2.324282 8.27756,-7.514942 8.27756,-7.514941 8.334,8.377523 8.33401,8.377522 -5.91512,7.129101 c -9.172,11.054419 -8.71191,9.860585 -6.18773,16.055725 1.21941,2.992796 2.30908,5.595936 2.4215,5.784755 0.11242,0.188819 5.29991,0.638819 11.52776,1 L 149.5,60.5 l 0.28108,11.674161 0.28108,11.67416 -5.78108,0.622119 c -3.17959,0.342166 -8.38998,0.938794 -11.57863,1.32584 l -5.79756,0.70372 -2.58587,5.72727 -2.58588,5.72727 7.72527,8.65952 7.72528,8.65952 -8.29292,8.33623 c -7.12575,7.16295 -8.51093,8.15265 -9.84185,7.03192 -0.8519,-0.71736 -4.82297,-4.08022 -8.8246,-7.47301 C 106.2227,119.77592 102.78958,117 102.59517,117 c -0.19442,0 -2.82072,1.12954 -5.83623,2.51008 -5.444038,2.49237 -5.48719,2.54708 -6.112151,7.75 -0.346173,2.88196 -0.633316,8.05242 -0.638097,11.48992 L 90,145 H 78.079594 66.159188 Z M 89.704096,96.39255 C 105.82127,88.666328 109.40961,66.476277 96.611426,53.678093 90.535374,47.60204 87.618394,46.507608 77.5,46.507608 c -10.118394,0 -13.035374,1.094432 -19.111426,7.170485 -11.821938,11.821938 -9.647646,32.818333 4.290578,41.432629 8.616362,5.325208 17.69231,5.755688 27.024944,1.281828 z"
         id="path13659" />
    </g>
  </g>
</svg>
