<?xml version="1.0" encoding="UTF-8" standalone="no"?>
<!-- Created with Inkscape (http://www.inkscape.org/) -->

<svg
   version="1.1"
   id="svg6210"
   width="256"
   height="256"
   viewBox="0 0 256 256"
   sodipodi:docname="glossary_orange128.svg"
   inkscape:version="1.2 (1:1.2.1+202207142221+cd75a1ee6d)"
   xmlns:inkscape="http://www.inkscape.org/namespaces/inkscape"
   xmlns:sodipodi="http://sodipodi.sourceforge.net/DTD/sodipodi-0.dtd"
   xmlns="http://www.w3.org/2000/svg"
   xmlns:svg="http://www.w3.org/2000/svg">
  <defs
     id="defs6214" />
  <sodipodi:namedview
     id="namedview6212"
     pagecolor="#ffffff"
     bordercolor="#666666"
     borderopacity="1.0"
     inkscape:showpageshadow="2"
     inkscape:pageopacity="0.0"
     inkscape:pagecheckerboard="0"
     inkscape:deskcolor="#d1d1d1"
     showgrid="false"
     inkscape:zoom="3.3203125"
     inkscape:cx="77.703529"
     inkscape:cy="114.29647"
     inkscape:window-width="1848"
     inkscape:window-height="1016"
     inkscape:window-x="72"
     inkscape:window-y="27"
     inkscape:window-maximized="1"
     inkscape:current-layer="g6216" />
  <g
     inkscape:groupmode="layer"
     inkscape:label="Image"
     id="g6216">
    <g
       id="g6222"
       transform="translate(-0.21253868,0.69662706)">
      <path
         style="fill:#fed9cc;stroke-width:2"
         d="M 83.74489,146.5 C 81.257148,143.32789 81.327888,143.25715 84.5,145.74489 87.831496,148.35763 88.890958,150 87.24489,150 c -0.415312,0 -1.990312,-1.575 -3.5,-3.5 z M 172,149.24489 c 0,-0.41531 1.575,-1.99031 3.5,-3.5 3.17211,-2.48774 3.24285,-2.417 0.75511,0.75511 C 173.64237,149.8315 172,150.89096 172,149.24489 Z m -90,-16 c 0,-0.41531 1.575,-1.99031 3.5,-3.5 3.172112,-2.48774 3.242852,-2.417 0.75511,0.75511 C 83.642372,133.8315 82,134.89096 82,133.24489 Z M 173.74489,130.5 c -2.48774,-3.17211 -2.417,-3.24285 0.75511,-0.75511 1.925,1.50969 3.5,3.08469 3.5,3.5 0,1.64607 -1.64237,0.58661 -4.25511,-2.74489 z m 61.99999,-22 c -2.48774,-3.17211 -2.417,-3.24285 0.75512,-0.75511 3.3315,2.61274 4.39096,4.25511 2.74488,4.25511 -0.4153,0 -1.9903,-1.575 -3.5,-3.5 z"
         id="path6230" />
      <path
         style="fill:#feb299;stroke-width:2"
         d="M 204.29966,239.5 204,232 h -78.88197 c -43.385078,0 -79.299568,-0.675 -79.809976,-1.5 -0.510408,-0.825 35.022452,-1.25486 78.961906,-0.95524 86.76776,0.59164 82.93964,0.0358 81.17886,11.7863 -0.71436,4.76722 -0.89716,4.47596 -1.14916,-1.83106 z M 24.31579,226 c 0,-2.75 0.453946,-3.875 1.008772,-2.5 0.554824,1.375 0.554824,3.625 0,5 -0.554826,1.375 -1.008772,0.25 -1.008772,-2.5 z M 204.29966,213.52244 204,206.04486 l -81.5,-0.5455 -81.5,-0.5455 81.56277,-0.47692 c 88.88565,-0.51976 84.67307,-1.0714 82.88605,10.85412 -0.71654,4.78166 -0.8964,4.4986 -1.14916,-1.80862 z M 24.917816,114 c 0,-47.85 0.261044,-67.425 0.580096,-43.5 0.319054,23.925 0.319054,63.075 0,87 -0.319052,23.925 -0.580096,4.35 -0.580096,-43.5 z m 30.00478,-12 c 0,-51.15 0.259004,-72.075 0.575562,-46.5 0.31656,25.575 0.31656,67.425 0,93 -0.316558,25.575 -0.575562,4.65 -0.575562,-46.5 z m 150.000004,0 c 0,-51.15 0.259,-72.075 0.57556,-46.5 0.31656,25.575 0.31656,67.425 0,93 -0.31656,25.575 -0.57556,4.65 -0.57556,-46.5 z m 25.83374,40 c 0,-12.65 0.32474,-17.825 0.72164,-11.5 0.3969,6.325 0.3969,16.675 0,23 -0.3969,6.325 -0.72164,1.15 -0.72164,-11.5 z M 109.5,150.50824 c 11.275,-0.3565 29.725,-0.3565 41,0 11.275,0.35649 2.05,0.64817 -20.5,0.64817 -22.55,0 -31.775,-0.29168 -20.5,-0.64817 z M 80.157894,138.83333 c 0.09596,-2.32988 0.569882,-2.8038 1.208334,-1.20833 0.577742,1.44375 0.506688,3.16875 -0.1579,3.83333 -0.664584,0.66459 -1.137282,-0.51666 -1.05044,-2.625 z m 97.999996,0 c 0.096,-2.32988 0.56989,-2.8038 1.20834,-1.20833 0.57774,1.44375 0.50669,3.16875 -0.1579,3.83333 -0.66459,0.66459 -1.13728,-0.51666 -1.05044,-2.625 z M 109.5,126.50824 c 11.275,-0.3565 29.725,-0.3565 41,0 11.275,0.35649 2.05,0.64817 -20.5,0.64817 -22.55,0 -31.775,-0.29168 -20.5,-0.64817 z m 54.05287,-33.975234 c 4.70407,-0.42249 11.90407,-0.416546 16,0.0132 4.09592,0.429764 0.24713,0.775438 -8.55287,0.768174 -8.8,-0.0073 -12.15121,-0.358882 -7.44713,-0.781374 z m -53.39498,-5.699672 c 0.096,-2.329886 0.56989,-2.8038 1.20834,-1.208334 0.57774,1.44375 0.50669,3.16875 -0.1579,3.833334 -0.66459,0.664582 -1.13728,-0.516668 -1.05044,-2.625 z M 230.75634,68 c 0,-12.65 0.32474,-17.825 0.72164,-11.5 0.3969,6.325 0.3969,16.675 0,23 -0.3969,6.325 -0.72164,1.15 -0.72164,-11.5 z M 91,84 83,82.567622 90.381966,82.28381 C 94.442048,82.127714 98.320162,82.9 99,84 c 0.679838,1.1 0.957952,1.872286 0.618034,1.71619 C 99.278116,85.560094 95.4,84.787808 91,84 Z M 89.625,72.633772 c 1.44375,-0.577742 3.16875,-0.506688 3.833334,0.1579 0.664582,0.664584 -0.516668,1.137282 -2.625,1.05044 -2.329886,-0.09596 -2.8038,-0.569882 -1.208334,-1.208334 z m 35.83039,-10.077236 c 3.55047,-0.441824 9.85047,-0.449084 14,-0.0162 4.14954,0.433018 1.24461,0.79451 -6.45539,0.803384 -7.7,0.0088 -11.09507,-0.34536 -7.54461,-0.787184 z m 38,-20 c 3.55047,-0.441824 9.85047,-0.449084 14,-0.0162 4.14954,0.433018 1.24461,0.79451 -6.45539,0.803384 -7.7,0.0088 -11.09507,-0.34536 -7.54461,-0.787184 z M 146.15789,4.8333334 c 0.096,-2.329886 0.56989,-2.8037988 1.20834,-1.2083334 0.57774,1.44375 0.50669,3.16875 -0.1579,3.8333334 -0.66459,0.6645832 -1.13728,-0.5166668 -1.05044,-2.625 z"
         id="path6228" />
      <path
         style="fill:#fe8b66;stroke-width:2"
         d="m 28,213.24488 c 0,-0.4153 1.575,-1.9903 3.5,-3.5 3.172112,-2.48774 3.242852,-2.417 0.75511,0.75512 C 29.642372,213.8315 28,214.89096 28,213.24488 Z M 75.74489,154.5 c -2.487742,-3.17211 -2.417002,-3.24285 0.75511,-0.75511 1.925,1.50969 3.5,3.08469 3.5,3.5 0,1.64607 -1.642372,0.58661 -4.25511,-2.74489 z M 74,125.24489 c 0,-0.41531 1.575,-1.99031 3.5,-3.5 3.172112,-2.48774 3.242852,-2.417 0.75511,0.75511 C 75.642372,125.8315 74,126.89096 74,125.24489 Z M 181.74489,122.5 c -2.48774,-3.17211 -2.417,-3.24285 0.75511,-0.75511 3.3315,2.61274 4.39096,4.25511 2.74489,4.25511 -0.41531,0 -1.99031,-1.575 -3.5,-3.5 z"
         id="path6226" />
      <path
         style="fill:#fe6532;stroke-width:2"
         d="M 32.830372,253.16822 C 25.210076,249.8367 18.671651,241.75868 15.882124,232.2292 14.479502,227.43762 13.974003,190.94378 14.382974,124 14.97437,27.19535 15.166152,22.717918 19,16.209061 c 2.2,-3.735017 6.538818,-8.6850166 9.641818,-11 C 33.929732,1.2640303 36.752538,1 73.641818,1 111.66667,1 113,1.1355076 113,5 113,8.7941936 111.48218,9.0284768 83.5,9.5534662 L 54,10.106932 V 102.05347 194 h 76 76 V 102.05491 10.109826 L 177.5,9.5549132 C 150.5183,9.0295624 149,8.7869046 149,5 c 0,-3.8383838 1.33333,-4 33,-4 h 33 l 1,10.334736 c 0.94606,9.777224 1.53724,10.694296 10.95894,17 14.26938,9.550124 15.24174,12.34913 14.5943,42.010298 -0.50334,23.058898 -0.95594,25.77313 -5.01772,30.091086 l -4.46446,4.74605 4.46446,4.45877 c 4.08222,4.07701 4.51184,6.63787 5.01772,29.90892 0.64722,29.77411 -0.31554,32.55325 -14.5943,42.12864 L 217,188.35701 216,221.6785 215,255 l -88,0.43276 c -70.194286,0.34522 -89.248348,-0.113 -94.169628,-2.26454 z M 206,238 v -8 H 126.11803 C 44.750264,230 37.948238,229.3715 47.076708,222.6966 50.02036,220.54414 66.4269,220 128.38226,220 H 206 v -8 -8 h -82.09932 c -90.428516,0 -90.71391,0.0362 -97.043828,12.27682 -4.403274,8.515 -2.302012,18.15158 5.364608,24.60262 L 38.306902,246 H 122.15345 206 Z M 44,101.60306 C 44,3.604128 44.28901,6.2184032 34.233746,13.261385 24.338836,20.19205 24,23.585868 24,115.7637 v 85.89218 L 34,197.431 44,193.20613 Z M 225.31122,170.89822 232,165.79643 v -22.89821 c 0,-20.4592 -0.43916,-23.33738 -4.12296,-27.02119 -2.26764,-2.26763 -5.64264,-3.83123 -7.5,-3.47467 -2.97038,0.57024 -3.44336,4.43844 -3.92782,32.12297 -0.30294,17.31107 0.0621,31.47467 0.81122,31.47467 0.7491,0 4.37194,-2.2958 8.05078,-5.10178 z M 229.5,92.380456 c 1.66572,-2.095458 2.5,-10.65882 2.5,-25.660932 V 44.203566 l -6.68878,-5.101784 C 221.63238,36.295802 218.03238,34 217.31122,34 216.59004,34 216,49.403508 216,68.23002 v 34.23002 l 5.5,-3.467304 c 3.025,-1.907018 6.625,-4.882544 8,-6.61228 z M 85,160.09194 c -8.406718,-3.47725 -14,-11.95291 -14,-21.21461 0,-7.27262 1.135106,-9.93551 6.538462,-15.33887 L 84.076924,117 h 45.830216 45.83021 l 6.10642,5.85032 c 7.77346,7.44745 9.59593,16.51122 5.18779,25.80069 -5.75685,12.13167 -11.11002,13.3662 -57.33382,13.22222 C 107.31398,161.8035 87.2,161.00193 85,160.09194 Z m 89.73028,-12.2371 c 6.79619,-5.34588 6.79619,-12.3638 0,-17.70968 C 169.80347,126.26973 166.8928,126 130,126 93.1072,126 90.196526,126.26973 85.269718,130.14516 82.242158,132.52664 80,136.29419 80,139 c 0,2.70581 2.242158,6.47336 5.269718,8.85484 C 90.196526,151.73027 93.1072,152 130,152 c 36.8928,0 39.80347,-0.26973 44.73028,-4.14516 z M 70.977122,89.962982 c -1.448498,-2.34372 12.296314,-39.571052 16.14807,-43.73647 1.410554,-1.52542 3.829492,-2.28812 5.375418,-1.694894 C 95.497448,45.681614 110,81.89583 110,88.229218 110,93.810734 103.06395,92.925944 100.36391,87 98.506478,82.923388 96.659704,82 90.363908,82 c -6.295798,0 -8.142572,0.923388 -10,5 -2.326902,5.106992 -7.125566,6.621712 -9.386786,2.962982 z M 93.260572,69.5 c -0.663274,-2.475 -1.250134,-5.4 -1.304134,-6.5 -0.10534,-2.145992 -5.767106,6.992756 -5.885568,9.5 -0.03898,0.825 1.834098,1.5 4.162392,1.5 3.414038,0 3.999886,-0.870846 3.02731,-4.5 z m 61.556848,19.745388 c -0.58138,-1.515036 3.57573,-9.840036 9.238,-18.5 L 174.35047,55 166.70059,54.350974 c -8.85455,-0.751234 -12.926,-3.436418 -11.36773,-7.4972 1.51083,-3.93717 31.75571,-4.113688 33.25979,-0.19412 0.56134,1.462812 -3.35106,9.337812 -8.69421,17.5 -5.34315,8.162186 -9.75613,15.51534 -9.80663,16.34034 -0.0505,0.825 3.28319,1.513782 7.40819,1.530626 9.16345,0.03742 13.48914,2.506942 11.8542,6.767524 -1.66405,4.33646 -32.88918,4.740814 -34.53678,0.447238 z M 120.07271,71.08761 C 115.91884,66.082508 119.77031,64 133.1808,64 c 10.02415,0 13.22195,0.722402 14.1734,3.20185 1.7624,4.592726 -2.85666,6.732426 -14.60931,6.767524 -6.57027,0.0196 -11.12361,-1.015846 -12.67218,-2.881764 z M 126.72839,7.0133782 C 126.03565,5.2081418 126.42788,2.7721216 127.6,1.6 c 3.04722,-3.0472179 8.82082,-0.2621768 8.02485,3.8709846 -0.88661,4.6037634 -7.29534,5.7148564 -8.89646,1.5423936 z"
         id="path6224" />
    </g>
  </g>
</svg>
