<?xml version="1.0" encoding="UTF-8" standalone="no"?>
<!-- Created with Inkscape (http://www.inkscape.org/) -->

<svg
   version="1.1"
   id="svg13747"
   width="256"
   height="256"
   viewBox="0 0 256 256"
   sodipodi:docname="GPS-Settings-256_nest.svg"
   inkscape:version="1.2 (1:1.2.1+202207142221+cd75a1ee6d)"
   xmlns:inkscape="http://www.inkscape.org/namespaces/inkscape"
   xmlns:sodipodi="http://sodipodi.sourceforge.net/DTD/sodipodi-0.dtd"
   xmlns="http://www.w3.org/2000/svg"
   xmlns:svg="http://www.w3.org/2000/svg">
  <defs
     id="defs13751" />
  <sodipodi:namedview
     id="namedview13749"
     pagecolor="#ffffff"
     bordercolor="#666666"
     borderopacity="1.0"
     inkscape:showpageshadow="2"
     inkscape:pageopacity="0.0"
     inkscape:pagecheckerboard="0"
     inkscape:deskcolor="#d1d1d1"
     showgrid="false"
     inkscape:zoom="3.3203125"
     inkscape:cx="77.703529"
     inkscape:cy="73.938824"
     inkscape:window-width="1848"
     inkscape:window-height="1016"
     inkscape:window-x="72"
     inkscape:window-y="27"
     inkscape:window-maximized="1"
     inkscape:current-layer="g13753" />
  <g
     inkscape:groupmode="layer"
     inkscape:label="Image"
     id="g13753">
    <g
       id="g13757"
       transform="translate(-1.4091359,-3.7675551)">
      <path
         style="fill:#fed8cb"
         d="m 146.97581,247.27682 c 0,-9.08773 0.33502,-12.50455 1.25,-12.74854 13.44172,-3.58441 18.62926,-5.33866 25.67838,-8.68355 25.28109,-11.99619 45.27653,-34.64167 54.01201,-61.17035 l 2.22267,-6.75 h 12.49793 12.49792 l -0.69475,3.25 c -2.99255,13.99904 -11.41505,32.7791 -20.42144,45.53469 -18.52207,26.23247 -48.53209,45.54821 -80.29272,51.67982 l -6.75,1.30314 z m -44.5,10.96912 C 93.720281,256.29156 78.804867,250.87523 70.60055,246.67087 44.87552,233.48789 24.59332,212.51755 12.464299,186.56216 8.6639586,178.42966 2.9758088,161.79433 2.9758088,158.81251 c 0,-0.48847 5.5666482,-0.88813 12.3703292,-0.88813 h 12.37033 l 2.745732,7.75 c 5.51722,15.5727 13.330969,28.06015 24.632229,39.36572 13.012048,13.017 31.150394,23.56223 47.444591,27.58323 l 6.43679,1.58843 v 12.35631 c 0,13.57408 0.22047,13.17799 -6.5,11.67787 z m 13.16399,-67.98385 c -0.36209,-10.36074 -0.65961,-23.67521 -0.66116,-29.58771 -0.003,-9.58129 -0.19309,-10.74688 -1.75283,-10.72134 -0.9625,0.0158 -14.125001,3.33381 -29.250001,7.37344 -15.125,4.03963 -27.681198,7.18303 -27.902662,6.98534 -0.221465,-0.19769 0.710084,-1.23472 2.070107,-2.30451 1.360024,-1.0698 29.430818,-23.549 62.379546,-49.95379 32.94873,-26.404796 60.01998,-47.895508 60.15834,-47.757144 0.24938,0.249372 -61.74946,140.097544 -63.48143,143.192394 -0.57632,1.02983 -1.13908,-5.18492 -1.55991,-17.22668 z M 1.4486506,115.17438 C 7.7157861,63.935045 47.060215,19.919171 98.140562,7.0020344 102.65938,5.8593218 106.94592,4.9243751 107.6662,4.9243751 c 1.00887,0 1.3068,2.813059 1.29737,12.2499999 l -0.0122,12.25 -11.737759,3.761537 c -15.700942,5.031583 -27.004719,11.75272 -39.032718,23.208525 -5.179954,4.933534 -11.343022,11.683534 -13.695706,15 -8.684239,12.241752 -16.686783,31.679593 -18.14281,44.068113 l -0.641931,5.46183 H 13.222904 0.74536218 Z m 231.1076794,4.5 c -0.1962,-0.6875 -1.12423,-5.075 -2.06231,-9.75 C 222.9321,72.238593 192.64934,40.470414 155.78411,31.549824 l -8.78362,-2.125449 -0.0123,-12.25 C 146.97379,2.8648017 146.15887,3.528319 159.56589,6.9332256 205.76987,18.667401 241.25412,53.475224 253.453,99.03059 c 1.38351,5.16659 2.80428,12.20629 3.15726,15.64379 l 0.64178,6.25 h -12.16948 c -8.87867,0 -12.26594,-0.33802 -12.52619,-1.25 z"
         id="path13771" />
      <path
         style="fill:#fec7b4"
         d="M 96.475809,256.43579 C 50.165463,244.11959 14.728361,207.58516 3.5906204,160.67438 l -0.6529157,-2.75 H 15.370039 27.802373 l 2.143748,6.63563 c 6.631982,20.52822 20.880987,39.59419 39.543595,52.91155 8.094288,5.77596 23.004876,12.7468 32.236094,15.07068 l 7.25,1.82512 v 12.27851 c 0,14.27775 1.10897,13.40921 -12.500001,9.78992 z m 50.500001,-9.49236 v -11.98095 l 2.75,-0.62151 c 19.70003,-4.4523 37.05444,-13.56983 50.99701,-26.7924 12.59991,-11.94925 22.05733,-26.7888 27.32421,-42.87419 l 2.21017,-6.75 h 12.3593 c 6.79762,0 12.35931,0.39966 12.35931,0.88813 0,2.95237 -5.66866,19.57544 -9.394,27.54745 -16.31203,34.90679 -46.87201,60.38654 -83.96548,70.00723 -15.67414,4.0653 -14.64052,4.73062 -14.64052,-9.42376 z m -31.5078,-68.49491 c -0.53194,-21.27884 -1.05861,-29.52449 -1.86661,-29.22391 -3.91533,1.45654 -55.894002,14.76469 -56.255533,14.40316 -0.24505,-0.24505 27.13394,-22.51476 60.842203,-49.48824 33.70826,-26.97349 61.40118,-48.741189 61.53983,-48.372672 0.29232,0.776985 -61.53413,140.242482 -62.72434,141.490912 -0.43699,0.45836 -1.12799,-12.5058 -1.53555,-28.80925 z M 0.9758088,119.55537 c 0,-4.15225 3.4880654,-20.292764 6.0159892,-27.838112 C 13.342521,72.761619 23.733322,56.127453 38.44779,41.360776 49.595035,30.17398 60.865478,22.214712 75.075638,15.493928 83.947642,11.297858 96.860327,7.022467 105.22581,5.5112039 l 3.75,-0.6774549 -0.008,12.295313 -0.008,12.295313 -8.24243,2.271062 C 63.831533,41.858951 33.593269,74.560364 26.99467,111.42438 c -0.689144,3.85 -1.411187,7.5625 -1.60454,8.25 -0.532966,1.89505 -24.4143212,1.77864 -24.4143212,-0.11901 z M 232.61625,119.17438 c -0.27189,-0.9625 -0.80319,-3.775 -1.18068,-6.25 C 228.42608,93.192689 215.39583,69.603653 199.49774,55.106411 185.36193,42.216169 172.69438,35.845338 148.22581,29.320474 c -0.91227,-0.243268 -1.25,-3.584048 -1.25,-12.364714 0,-13.9213012 -0.95884,-13.086426 11.57754,-10.0806998 15.10801,3.6222998 29.40099,9.9679228 43.18905,19.1745408 9.64644,6.441161 27.29226,24.069832 33.48748,33.454933 11.38553,17.247862 19.08512,37.386096 21.28465,55.669846 l 0.69173,5.75 h -12.04784 c -10.61914,0 -12.10646,-0.20752 -12.54217,-1.75 z"
         id="path13769" />
      <path
         style="fill:#feb097"
         d="M 97.475809,256.52884 C 73.705237,250.55024 53.650241,238.76928 36.321068,220.60456 26.46991,210.27841 20.257766,201.49332 14.062734,189.12728 10.303037,181.62247 5.1990911,167.7843 3.5684213,160.67438 l -0.6307166,-2.75 H 15.210081 27.482457 l 2.342469,6.75 c 2.989745,8.61518 7.672538,18.15848 12.64281,25.76543 5.729557,8.76903 19.751037,22.40704 29.675481,28.86389 9.162434,5.96109 25.465476,13.06592 32.582593,14.19942 l 4.25,0.67688 v 12.37219 c 0,9.26627 -0.3138,12.35563 -1.25,12.30623 -0.6875,-0.0363 -5.3,-1.08459 -10.250001,-2.32958 z m 49.500001,-9.47186 v -12.0945 l 2.75,-0.5952 c 6.72461,-1.45546 16.59773,-4.68256 22.69344,-7.41753 25.83983,-11.59354 47.637,-36.16904 56.12192,-63.27537 l 1.79988,-5.75 h 12.33643 12.33643 l -0.65291,2.75 c -10.89297,45.87985 -44.77239,81.71868 -89.42883,94.60094 -4.699,1.35554 -10.6615,2.78222 -13.25,3.17039 l -4.70636,0.70576 z M 115.55652,178.7347 c -0.39766,-16.10728 -0.8286,-29.39154 -0.95765,-29.52059 -0.12905,-0.12905 -12.97817,3.14682 -28.553617,7.27971 -15.575441,4.1329 -28.472987,7.36035 -28.661214,7.17212 -0.188227,-0.18822 27.205419,-22.44366 60.874771,-49.45651 33.66935,-27.012867 61.35037,-48.981843 61.51339,-48.819957 0.36839,0.36585 -61.73777,140.732587 -62.75494,141.833047 -0.40575,0.43898 -1.06309,-12.38054 -1.46074,-28.48782 z M 1.4717775,116.17438 C 7.6197698,68.959695 39.815257,28.24802 84.194526,11.570224 89.552584,9.5566574 97.495802,7.372041 106.72581,5.3734643 c 2.23786,-0.4845639 2.24996,-0.4209784 2.24242,11.7818587 l -0.008,12.269052 -8.24243,2.249066 C 82.228671,36.718589 62.075334,49.647437 49.666463,64.424375 36.793701,79.753732 29.654049,95.687658 25.358194,118.67438 c -0.408434,2.18549 -0.765737,2.25 -12.46271,2.25 H 0.853263 Z m 231.4883625,4 c -0.009,-0.4125 -0.89432,-4.91252 -1.96824,-10.00005 C 226.56893,89.221057 216.19485,70.855608 200.34254,55.915126 192.079,48.126911 185.00208,43.319361 173.82283,37.899543 166.05015,34.131264 162.05462,32.723868 151.22581,29.939911 l -4.25,-1.092624 V 16.885831 c 0,-8.9117586 0.3187,-11.9570289 1.25,-11.9440923 2.98787,0.041504 15.03165,3.0219681 22.32405,5.5245153 37.4213,12.841938 67.73986,43.43328 80.35046,81.073397 2.57575,7.688112 6.07549,23.826339 6.07549,28.015719 0,1.08262 -2.51031,1.36901 -12,1.36901 -6.6,0 -12.00705,-0.3375 -12.01567,-0.75 z"
         id="path13767" />
      <path
         style="fill:#fe9775"
         d="M 101.26594,257.36218 C 64.258447,249.24906 31.15065,223.34018 14.03146,189.09587 10.418583,181.86886 3.9758088,163.23704 3.9758088,160.016 c 0,-2.09994 0.2991391,-2.14788 11.6882852,-1.87336 l 11.688284,0.28174 3.685034,9.76748 c 5.54558,14.69901 11.932883,24.59892 23.438397,36.32803 14.255124,14.53215 27.35082,22.49102 45.734061,27.79473 l 8.26594,2.3848 0.28078,12.11248 c 0.15443,6.66186 -0.0706,12.0673 -0.5,12.01207 -0.42943,-0.0552 -3.57522,-0.71303 -6.99065,-1.46179 z m 45.70987,-10.29366 v -11.97841 l 4.90932,-1.05286 c 34.55084,-7.40983 63.82636,-33.63628 76.01401,-68.09707 l 2.65809,-7.5158 11.37499,-0.2843 c 6.25624,-0.15637 11.71015,0.0686 12.1198,0.5 1.3694,1.44202 -4.07468,17.65207 -10.01653,29.82472 -7.14318,14.63373 -14.86154,25.19816 -26.65353,36.48175 -10.06158,9.62778 -18.78645,15.72023 -31.94829,22.30903 -9.19491,4.60296 -25.10449,9.84081 -33.70786,11.09751 l -4.75,0.69384 z m -31.34524,-69.31679 c -0.3667,-15.49496 -0.8286,-28.33452 -1.02643,-28.53236 -0.19784,-0.19783 -13.10558,3.01942 -28.683887,7.14945 -15.5783,4.13004 -28.455968,7.37737 -28.617039,7.2163 -0.161072,-0.16107 27.444631,-22.48327 61.346006,-49.60487 33.90137,-27.121618 61.39658,-48.691891 61.10046,-47.93395 -3.3566,8.591545 -62.27669,139.87808 -62.77588,139.87808 -0.37208,0 -0.97653,-12.67769 -1.34323,-28.17265 z M 1.7460892,120.36133 C 0.0202595,118.6355 4.8676316,97.608005 10.042392,84.372665 24.224695,48.09899 55.938014,19.494549 94.031667,8.6169151 98.675945,7.2907425 103.95209,5.9258893 105.75644,5.5839081 l 3.28062,-0.621784 -0.28062,12.0936079 -0.28063,12.093608 -8.500001,2.451527 C 61.276498,42.762329 32.326658,76.029023 25.506751,117.17438 l -0.621568,3.75 h -11.28802 c -6.2084117,0 -11.5413947,-0.25337 -11.8510738,-0.56305 z M 232.01691,114.17438 C 228.38661,93.126285 219.0818,75.116458 203.55399,59.08328 188.86725,43.918545 170.9797,34.081618 149.72581,29.481475 l -2.75,-0.595204 V 16.86001 4.833749 l 3.75,0.6440282 c 26.26257,4.5103565 49.80611,16.8806378 69.27425,36.3981818 18.75115,18.798736 30.96497,42.376718 35.44766,68.429411 0.84045,4.88454 1.52809,9.27204 1.52809,9.75 0,0.47796 -5.35381,0.86901 -11.89735,0.86901 h -11.89734 z"
         id="path13765" />
      <path
         style="fill:#fe835b"
         d="M 98.475809,256.48037 C 88.170875,253.79459 78.815987,250.38304 70.940387,246.43874 46.955406,234.42643 24.259894,210.97045 12.963263,186.51894 9.2397012,178.4593 3.9758088,163.14566 3.9758088,160.37276 c 0,-1.18296 2.1699916,-1.44838 11.8417122,-1.44838 h 11.841713 l 1.251628,4.25 c 4.255073,14.44843 14.889119,31.34323 27.321938,43.40762 14.392741,13.96624 29.725705,22.61318 48.49301,27.34737 l 4.25,1.0721 v 11.96145 c 0,6.5788 -0.3375,11.93933 -0.75,11.91229 -0.4125,-0.027 -4.8,-1.10472 -9.750001,-2.39484 z m 48.500001,-9.269 v -11.80363 l 8.75,-2.22424 c 19.92348,-5.06452 41.16332,-18.8151 54.52585,-35.29978 7.05472,-8.70305 15.27129,-23.67454 18.34584,-33.42816 l 1.74355,-5.53118 h 11.81738 c 10.23676,0 11.81738,0.21713 11.81738,1.62335 0,3.49326 -7.34138,23.31668 -11.60472,31.33542 -18.75626,35.27786 -52.51146,59.76695 -91.64528,66.48783 l -3.75,0.64403 z M 116.5974,201.76603 c -0.29065,-2.38791 -0.76798,-15.09772 -1.06074,-28.24403 -0.29276,-13.14632 -0.72633,-24.09643 -0.9635,-24.3336 -0.23716,-0.23716 -13.18109,2.93886 -28.764278,7.05783 -15.58319,4.11897 -28.413721,7.41344 -28.512292,7.32104 -0.232418,-0.21786 120.74229,-97.045419 121.7513,-97.449141 0.63799,-0.255269 -60.61518,138.609941 -61.59841,139.647901 -0.178,0.18791 -0.56144,-1.61209 -0.85208,-4 z M 2.4962377,112.15906 C 6.6602643,86.152991 19.674184,60.435792 38.182887,41.637594 54.599182,24.964531 79.543582,11.338103 102.43144,6.5404071 l 6.60407,-1.3843288 -0.27985,11.9966307 -0.27985,11.996631 -8.26594,2.384791 c -34.596806,9.981454 -62.199191,37.68938 -71.616413,71.890249 -1.362985,4.95 -2.754931,10.6875 -3.093214,12.75 l -0.61506,3.75 H 13.069029 1.2528747 Z M 232.01221,113.17438 C 225.24859,74.117245 194.12468,40.539887 155.65599,30.799107 L 146.97581,28.60117 V 16.787773 4.9743751 l 3.25,0.5845625 c 38.47243,6.9198594 70.82302,29.4937274 90.09239,62.8654374 7.75336,13.427685 12.58505,27.950631 16.05246,48.250005 l 0.55515,3.25 h -11.87235 -11.87234 z"
         id="path13763" />
      <path
         style="fill:#fe764a"
         d="M 101.97581,257.20971 C 63.502165,249.46692 27.721369,220.35001 11.925321,183.9304 8.508452,176.05242 3.9758088,162.23361 3.9758088,159.69448 c 0,-0.42356 5.3287706,-0.7701 11.8417122,-0.7701 h 11.841713 l 1.244965,4.25 c 2.104485,7.18418 9.795215,22.60869 14.699761,29.48179 13.389183,18.76326 35.198851,34.06352 57.26427,40.17293 4.06584,1.12574 7.56814,2.22251 7.7829,2.43727 0.21476,0.21475 0.26316,5.53419 0.10757,11.82096 l -0.28289,11.4305 z m 45,-9.99728 v -11.87087 l 6.7944,-1.59455 c 22.47635,-5.2749 44.04316,-19.37708 58.24586,-38.086 7.06564,-9.30743 13.61306,-21.57508 16.53799,-30.98663 l 1.78699,-5.75 h 11.81738 c 10.23676,0 11.81738,0.21713 11.81738,1.62335 0,2.78374 -6.73641,21.90849 -10.05565,28.54814 -8.18715,16.37713 -22.16201,33.42182 -36.24865,44.21132 -16.66826,12.76686 -34.49951,20.56721 -57.4457,25.12987 l -3.25,0.64623 z m -29.96739,-41.28805 c -0.0718,-0.275 -0.52837,-13.03236 -1.01461,-28.3497 -0.48624,-15.31733 -1.12506,-28.09069 -1.4196,-28.38524 -0.29455,-0.29454 -12.74644,2.70357 -27.670865,6.66248 -14.924428,3.9589 -27.329883,7.00345 -27.567677,6.76565 -0.237794,-0.23779 26.399339,-21.90066 59.193632,-48.1397 32.79429,-26.23905 59.80103,-47.53231 60.01498,-47.318362 0.30111,0.301113 -25.2348,58.231302 -60.06623,136.264872 -0.7365,1.65 -1.39784,2.775 -1.46963,2.5 z M 1.9974509,116.67438 C 2.0291931,111.90764 5.4062595,97.535615 8.5180111,88.924375 22.893323,49.14316 56.683099,18.353416 97.385772,7.9467556 109.81942,4.7677824 108.97581,4.0807384 108.97581,17.385831 v 11.461456 l -4.25,1.072094 C 85.932145,34.660225 70.655783,43.282832 56.134714,57.346193 40.320677,72.661767 30.14467,91.629263 25.914806,113.67438 l -1.199207,6.25 H 13.345704 1.9758088 Z m 230.0147591,-3.5 C 227.94832,89.707119 213.90177,66.01117 194.97054,50.686631 184.70681,42.378293 167.88091,33.802845 155.72581,30.685252 l -8.75,-2.244238 V 16.615307 c 0,-10.7858238 0.15388,-11.7818704 1.75,-11.327188 0.9625,0.2741857 4.45,1.034634 7.75,1.6898854 21.63846,4.2965546 47.03586,18.1502486 63.00885,34.3698716 19.61819,19.921101 32.71284,46.057163 36.3311,72.514514 l 0.82903,6.06199 h -11.73183 -11.73184 z"
         id="path13761" />
      <path
         style="fill:#fe6532"
         d="M 146.97581,247.02719 V 235.18 l 3.85,-0.61564 c 5.82065,-0.93076 18.8473,-5.49371 26.18292,-9.17131 23.42844,-11.74547 44.28881,-36.2338 51.56896,-60.53762 l 1.77662,-5.93105 h 11.89021 11.8902 l -0.67735,3.25 c -1.4314,6.86798 -5.79399,18.61045 -10.082,27.137 -13.80679,27.45428 -35.63757,47.98928 -64.47115,60.64442 -6.21356,2.72715 -20.72225,6.95036 -28.67841,8.34776 l -3.25,0.57082 z m -52.002774,8.41505 C 80.464858,251.45704 65.488051,244.14159 53.229869,235.0527 31.424375,218.88492 16.251947,197.85779 7.483606,171.65398 5.5543175,165.88839 3.9758088,160.66557 3.9758088,160.04773 c 0,-0.76831 3.7675494,-1.12335 11.9205452,-1.12335 h 11.920544 l 0.708967,3.2279 c 1.362217,6.20214 7.201245,18.58389 12.852055,27.253 13.673986,20.97775 36.498344,37.48531 60.84789,44.00782 l 6.75,1.80812 v 11.35158 11.35158 l -2.75,-0.0733 c -1.5125,-0.0403 -6.576249,-1.12429 -11.252774,-2.40887 z m 21.965254,-52.51786 c -0.0541,-1.375 -0.44481,-13.86455 -0.86829,-27.75454 -0.42347,-13.89 -1.06964,-25.55424 -1.43593,-25.92053 -0.36629,-0.36629 -12.88425,2.56575 -27.817681,6.51565 -14.933435,3.9499 -27.299884,7.03345 -27.480997,6.85234 -0.317873,-0.31788 115.562178,-93.382014 118.268268,-94.982133 0.93971,-0.555655 0.78549,0.48011 -0.52114,3.5 -5.65291,13.06506 -58.44492,131.529173 -59.17581,132.789213 -0.66853,1.15253 -0.89286,0.92089 -0.96842,-1 z M 2.3798404,114.06986 C 3.91179,100.52921 11.20389,79.642195 18.664768,67.424375 35.410955,40.001073 60.134152,20.0131 89.006387,10.555257 94.776424,8.6651333 101.63001,6.7988577 104.23659,6.407978 l 4.73922,-0.7106905 v 11.5749995 11.575 l -4.25,1.093704 C 82.932631,35.549293 62.334893,48.190596 49.229671,64.000241 37.939399,77.620397 29.57864,94.907568 26.360662,111.28548 l -1.697396,8.6389 H 13.190371 1.7174762 Z M 231.76279,111.67438 C 223.94598,71.550438 193.19539,39.405466 153.72581,30.0988 l -6.75,-1.591606 V 16.83196 5.1567258 l 6.89138,1.3130931 c 24.62197,4.6915081 46.69435,16.7319901 65.6723,35.8242401 14.65869,14.746971 23.17505,28.030954 29.89469,46.630316 3.11155,8.61249 6.48825,22.984235 6.51999,27.750005 l 0.0216,3.25 h -11.30289 -11.30289 z"
         id="path13759" />
    </g>
  </g>
</svg>
