<?xml version="1.0" encoding="UTF-8" standalone="no"?>
<!-- Created with Inkscape (http://www.inkscape.org/) -->

<svg
   version="1.1"
   id="svg4533"
   width="256"
   height="256"
   viewBox="0 0 256 256"
   sodipodi:docname="hpc_orange128.svg"
   inkscape:version="1.2 (1:1.2.1+202207142221+cd75a1ee6d)"
   xmlns:inkscape="http://www.inkscape.org/namespaces/inkscape"
   xmlns:sodipodi="http://sodipodi.sourceforge.net/DTD/sodipodi-0.dtd"
   xmlns="http://www.w3.org/2000/svg"
   xmlns:svg="http://www.w3.org/2000/svg">
  <defs
     id="defs4537" />
  <sodipodi:namedview
     id="namedview4535"
     pagecolor="#ffffff"
     bordercolor="#666666"
     borderopacity="1.0"
     inkscape:showpageshadow="2"
     inkscape:pageopacity="0.0"
     inkscape:pagecheckerboard="0"
     inkscape:deskcolor="#d1d1d1"
     showgrid="false"
     inkscape:zoom="3.3203125"
     inkscape:cx="77.703529"
     inkscape:cy="128.15059"
     inkscape:window-width="1848"
     inkscape:window-height="1016"
     inkscape:window-x="72"
     inkscape:window-y="27"
     inkscape:window-maximized="1"
     inkscape:current-layer="g4539" />
  <g
     inkscape:groupmode="layer"
     inkscape:label="Image"
     id="g4539">
    <path
       style="fill:#ff6634;stroke:none;stroke-width:2"
       d="m 72.629559,89.931232 c -7.6582,0 -18.8636,-1.9944 -25.7038,2.0556 -11.8834,7.0362 -6.2962,37.979798 -6.2962,49.944398 -8.8614,0 -24.12122,-2.8956 -31.3641997,3.2068 -11.191442,9.4292 -4.66324,49.032 -4.6358,62.7932 0.01268,6.36 -0.7834,14.228 4.6358,18.794 6.9123997,5.824 20.9633997,3.206 29.3641997,3.206 22.2402,0 69.636601,10.76 70.000001,-20 h 32 c 0.3634,30.76 47.7598,20 69.99999,20 8.4,0 22.452,2.618 29.364,-3.206 5.42,-4.566 4.624,-12.434 4.636,-18.794 0.028,-13.7612 6.556,-53.364 -4.636,-62.7932 -7.242,-6.1024 -22.502,-3.2068 -31.364,-3.2068 0,-11.9646 5.588,-42.908198 -6.296,-49.944398 -6.84039,-4.05 -18.04579,-2.0556 -25.70399,-2.0556 -0.074,-13.405 5.7242,-44.764 -3.2068,-55.3642 -4.9372,-5.8598 -13.9652,-4.6328 -20.7932,-4.6358 H 96.629559 c -6.828,0.003 -15.856,-1.224 -20.7932,4.6358 -8.9312,10.6004 -3.1328,41.9592 -3.2068,55.3642 m 12.6358,-50.7932 c 14.1348,-6.9552 43.657001,-1.2068 59.364201,-1.2068 5.7658,0 14.0324,-1.4168 19.3642,1.2068 7.257,3.5708 7.257,26.0154 0,29.5864 -14.1348,6.9552 -43.657,1.2068 -59.3642,1.2068 -5.765801,0 -14.032401,1.4168 -19.364201,-1.2068 -7.257,-3.5708 -7.257,-26.0156 0,-29.5864 m 3.3642,4.7932 v 20 h 20.000001 v -20 H 88.629559 m 28.000001,0 v 8 h 16 v -8 h -16 m 28,0 v 8 h 16 v -8 h -16 m -44,8 v 4 h -4.000001 v -4 h 4.000001 m 16,4 v 8 h 16 v -8 h -16 m 28,0 v 8 h 16 v -8 h -16 m -59.364201,23.2068 c 14.1348,-6.9552 43.657001,-1.2068 59.364201,-1.2068 5.7658,0 14.0324,-1.4168 19.3642,1.2068 7.257,3.5708 7.257,26.015598 0,29.586398 -14.1348,6.9552 -43.657,1.2068 -59.3642,1.2068 -5.765801,0 -14.032401,1.4168 -19.364201,-1.2068 -7.257,-3.5708 -7.257,-26.015598 0,-29.586398 m 3.3642,4.7932 V 103.93123 H 108.62956 V 83.931232 H 88.629559 m 28.000001,0 v 8 h 16 v -8 h -16 m 28,0 v 8 h 16 v -8 h -16 m -44,8 v 4 h -4.000001 v -4 h 4.000001 m 16,4 v 7.999998 h 16 v -7.999998 h -16 m 28,0 v 7.999998 h 16 v -7.999998 h -16 m -72.000001,2 c 0.234,7.212598 1.076,14.088998 8.1172,17.944398 15.3904,8.427 48.501601,2.0556 65.882801,2.0556 6.8348,0 15.654,1.355 21.8828,-2.0556 7.0412,-3.8554 7.8832,-10.7318 8.1172,-17.944398 30.43999,0 23.99999,18.497198 23.99999,43.999998 -13.82979,0 -44.93759,-5.7908 -55.36419,4.6358 -10.3148,10.3148 -4.3608,41.5986 -4.6358,55.3642 h -32 c -0.275,-13.7656 5.679,-45.0494 -4.6358,-55.3642 -10.426601,-10.4266 -41.534201,-4.6358 -55.364201,-4.6358 0,-25.5028 -6.4404,-43.999998 24,-43.999998 m -55.3642,53.206798 c 5.3318,-2.6236 13.5984,-1.2068 19.3642,-1.2068 15.7072,0 45.2294,-5.7484 59.3642,1.2068 7.257001,3.571 7.257001,26.0154 0,29.5864 -5.3318,2.6236 -13.5984,1.2068 -19.3642,1.2068 -15.7072,0 -45.2294,5.7484 -59.3642,-1.2068 -7.25702,-3.571 -7.25702,-26.0154 0,-29.5864 m 136.000001,0 c 14.1348,-6.9552 43.6562,-1.2068 59.36419,-1.2068 5.766,0 14.032,-1.4168 19.364,1.2068 7.258,3.571 7.258,26.0154 0,29.5864 -5.332,2.6236 -13.598,1.2068 -19.364,1.2068 -15.70799,0 -45.22939,5.7484 -59.36419,-1.2068 -7.257,-3.571 -7.257,-26.0154 0,-29.5864 m -132.635801,4.7932 v 20 h 20 v -20 h -20 m 28,0 v 8 h 16 v -8 h -16 m 28,0 v 8 h 16 v -8 h -16 m 80.000001,0 v 20 h 20 v -20 h -20 m 28,0 v 8 h 15.99999 v -8 h -15.99999 m 27.99999,0 v 8 h 16 v -8 h -16 m -179.999991,8 v 4 h -4 v -4 h 4 m 136.000001,0 v 4 h -4 v -4 h 4 m -120.000001,4 v 8 h 16 v -8 h -16 m 28,0 v 8 h 16 v -8 h -16 m 108.000001,0 v 8 h 15.99999 v -8 h -15.99999 m 27.99999,0 v 8 h 16 v -8 h -16 m -195.364191,23.2068 c 14.1348,-6.9552 43.657,-1.2068 59.3642,-1.2068 5.7658,0 14.0324,-1.4168 19.3642,1.2068 7.257001,3.571 7.257001,26.0152 0,29.5872 -5.3318,2.622 -13.5984,1.206 -19.3642,1.206 -15.7072,0 -45.2294,5.748 -59.3642,-1.206 -7.25702,-3.572 -7.25702,-26.0162 0,-29.5872 m 136.000001,0 c 5.3318,-2.6236 13.5984,-1.2068 19.3642,-1.2068 15.7072,0 45.22999,-5.7484 59.36399,1.2068 7.258,3.571 7.258,26.0152 0,29.5872 -5.332,2.622 -13.598,1.206 -19.364,1.206 -15.70799,0 -45.22939,5.748 -59.36419,-1.206 -7.257,-3.572 -7.257,-26.0164 0,-29.5872 m -132.635801,4.7932 v 20 h 20 v -20 h -20 m 28,0 v 8 h 16 v -8 h -16 m 28,0 v 8 h 16 v -8 h -16 m 80.000001,0 v 20 h 20 v -20 h -20 m 28,0 v 8 h 15.99999 v -8 h -15.99999 m 27.99999,0 v 8 h 16 v -8 h -16 m -179.999991,8 v 4 h -4 v -4 h 4 m 136.000001,0 v 4 h -4 v -4 h 4 m -120.000001,4 v 8 h 16 v -8 h -16 m 28,0 v 8 h 16 v -8 h -16 m 108.000001,0 v 8 h 15.99999 v -8 h -15.99999 m 27.99999,0 v 8 h 16 v -8 z"
       id="path4543" />
  </g>
</svg>
