<?xml version="1.0" encoding="UTF-8" standalone="no"?>
<!-- Created with Inkscape (http://www.inkscape.org/) -->

<svg
   width="57.164112mm"
   height="47.339619mm"
   viewBox="0 0 57.164112 47.339619"
   version="1.1"
   id="svg1"
   xml:space="preserve"
   xmlns:inkscape="http://www.inkscape.org/namespaces/inkscape"
   xmlns:sodipodi="http://sodipodi.sourceforge.net/DTD/sodipodi-0.dtd"
   xmlns="http://www.w3.org/2000/svg"
   xmlns:svg="http://www.w3.org/2000/svg"><sodipodi:namedview
     id="namedview1"
     pagecolor="#ffffff"
     bordercolor="#000000"
     borderopacity="0.25"
     inkscape:showpageshadow="2"
     inkscape:pageopacity="0.0"
     inkscape:pagecheckerboard="true"
     inkscape:deskcolor="#d1d1d1"
     inkscape:document-units="mm"
     inkscape:zoom="0.72693603"
     inkscape:cx="396.18342"
     inkscape:cy="561.25984"
     inkscape:window-width="1850"
     inkscape:window-height="1016"
     inkscape:window-x="0"
     inkscape:window-y="0"
     inkscape:window-maximized="1"
     inkscape:current-layer="layer1" /><defs
     id="defs1" /><g
     inkscape:label="Layer 1"
     inkscape:groupmode="layer"
     id="layer1"
     transform="translate(-6.6070778,-205.35005)"><path
       style="fill:#ffffff;fill-opacity:1;stroke:none;stroke-width:0.468876"
       d="m 22.998391,219.44093 c -1.795372,0 -4.422343,-0.46756 -6.025945,0.48191 -2.785919,1.64955 -1.476069,8.9039 -1.476069,11.70887 -2.077447,0 -5.6549282,-0.67884 -7.3529572,0.75179 -2.623698,2.21056 -1.09324,11.49496 -1.086807,14.72111 0.0029,1.49102 -0.183659,3.33558 1.086807,4.40602 1.620529,1.36537 4.9146162,0.75161 6.8840812,0.75161 5.213947,0 16.325462,2.52256 16.410657,-4.68876 h 7.502016 c 0.08515,7.21132 11.196702,4.68876 16.410652,4.68876 1.969278,0 5.263595,0.61376 6.884028,-0.75161 1.270652,-1.07044 1.084038,-2.915 1.086855,-4.40602 0.0062,-3.22615 1.536977,-12.51055 -1.086855,-14.72111 -1.697795,-1.43063 -5.275316,-0.75179 -7.352907,-0.75179 0,-2.80497 1.310038,-10.05932 -1.476024,-11.70887 -1.603644,-0.94947 -4.230613,-0.48191 -6.025984,-0.48191 -0.01737,-3.14264 1.341963,-10.49438 -0.751799,-12.97947 -1.157466,-1.37376 -3.273973,-1.0861 -4.874711,-1.08681 H 28.624901 c -1.600742,7.1e-4 -3.717248,-0.28695 -4.874714,1.08681 -2.093813,2.48514 -0.734448,9.83683 -0.751796,12.97947 m 2.962311,-11.90785 c 3.313732,-1.63056 10.234861,-0.28292 13.917221,-0.28292 1.351718,0 3.289727,-0.33215 4.539699,0.28292 1.701315,0.83713 1.701315,6.099 0,6.93618 -3.313731,1.63056 -10.234852,0.28292 -13.917217,0.28292 -1.351723,0 -3.289728,0.33215 -4.539703,-0.28292 -1.701316,-0.83714 -1.701316,-6.09905 0,-6.93618 m 0.788695,1.12371 v 4.68876 h 4.688761 v -4.68876 h -4.688761 m 6.564267,0 v 1.8755 h 3.751004 v -1.8755 h -3.751004 m 6.564259,0 v 1.8755 h 3.751004 v -1.8755 h -3.751004 m -10.315271,1.8755 v 0.93775 h -0.937751 v -0.93775 h 0.937751 m 3.751012,0.93775 v 1.87551 h 3.751004 v -1.87551 h -3.751004 m 6.564259,0 v 1.87551 h 3.751004 v -1.87551 h -3.751004 m -13.917221,5.44055 c 3.313732,-1.63056 10.234861,-0.28292 13.917221,-0.28292 1.351718,0 3.289727,-0.33215 4.539699,0.28292 1.701315,0.83714 1.701315,6.09905 0,6.93618 -3.313731,1.63056 -10.234852,0.28292 -13.917217,0.28292 -1.351723,0 -3.289728,0.33215 -4.539703,-0.28292 -1.701316,-0.83713 -1.701316,-6.09904 0,-6.93618 m 0.788695,1.12371 v 4.68876 h 4.688761 v -4.68876 h -4.688761 m 6.564267,0 v 1.87551 h 3.751004 v -1.87551 h -3.751004 m 6.564259,0 v 1.87551 h 3.751004 v -1.87551 h -3.751004 m -10.315271,1.87551 v 0.93775 h -0.937751 v -0.93775 h 0.937751 m 3.751012,0.93775 v 1.8755 h 3.751004 v -1.8755 h -3.751004 m 6.564259,0 v 1.8755 h 3.751004 v -1.8755 h -3.751004 m -16.879532,0.46887 c 0.05486,1.69091 0.252255,3.303 1.90298,4.20685 3.608093,1.97561 11.370615,0.48192 15.445431,0.48192 1.602332,0 3.669884,0.31766 5.130154,-0.48192 1.650721,-0.90385 1.848118,-2.51594 1.902983,-4.20685 7.136285,0 5.626502,4.33645 5.626502,10.31528 -3.242226,0 -10.535069,-1.35759 -12.979464,1.0868 -2.418177,2.41818 -1.022333,9.75229 -1.086803,12.97947 h -7.502016 c -0.06451,-3.22718 1.331374,-10.56129 -1.086809,-12.97947 -2.444391,-2.44439 -9.737192,-1.0868 -12.979468,-1.0868 0,-5.97883 -1.509874,-10.31528 5.62651,-10.31528 m -12.979467,12.47369 c 1.249975,-0.61507 3.18798,-0.28292 4.539702,-0.28292 3.682363,0 10.603486,-1.34764 13.91722,0.28292 1.701315,0.83718 1.701315,6.099 0,6.93618 -1.249977,0.61507 -3.187981,0.28292 -4.539704,0.28292 -3.682363,0 -10.603486,1.34764 -13.917218,-0.28292 -1.7013212,-0.83718 -1.7013212,-6.099 0,-6.93618 m 31.883559,0 c 3.313731,-1.63056 10.234666,-0.28292 13.917213,-0.28292 1.351771,0 3.289638,-0.33215 4.539654,0.28292 1.701551,0.83718 1.701551,6.099 0,6.93618 -1.250016,0.61507 -3.187883,0.28292 -4.539654,0.28292 -3.682547,0 -10.603482,1.34764 -13.917213,-0.28292 -1.701315,-0.83718 -1.701315,-6.099 0,-6.93618 m -31.094863,1.12371 v 4.68876 h 4.688757 v -4.68876 H 10.80762 m 6.564261,0 v 1.87551 h 3.751006 v -1.87551 h -3.751006 m 6.564261,0 v 1.87551 h 3.751007 v -1.87551 h -3.751007 m 18.755036,0 v 4.68876 h 4.688761 v -4.68876 h -4.688761 m 6.564259,0 v 1.87551 h 3.751004 v -1.87551 h -3.751004 m 6.564259,0 v 1.87551 h 3.751012 v -1.87551 h -3.751012 m -42.198821,1.87551 v 0.93775 h -0.937752 v -0.93775 h 0.937752 m 31.883558,0 v 0.93775 h -0.937749 v -0.93775 h 0.937749 m -28.132552,0.93775 v 1.8755 h 3.751006 v -1.8755 h -3.751006 m 6.564261,0 v 1.8755 h 3.751007 v -1.8755 h -3.751007 m 25.319295,0 v 1.8755 h 3.751004 v -1.8755 h -3.751004 m 6.564259,0 v 1.8755 h 3.751012 v -1.8755 h -3.751012 m -45.800772,5.44055 c 3.313732,-1.63056 10.234855,-0.28291 13.917218,-0.28291 1.351723,0 3.289727,-0.33216 4.539704,0.28291 1.701315,0.83718 1.701315,6.09895 0,6.93636 -1.249977,0.6147 -3.187981,0.28273 -4.539704,0.28273 -3.682363,0 -10.603486,1.34756 -13.917218,-0.28273 -1.7013212,-0.83741 -1.7013212,-6.09918 0,-6.93636 m 31.883559,0 c 1.249971,-0.61507 3.187981,-0.28291 4.539699,-0.28291 3.682369,0 10.603623,-1.34765 13.917168,0.28291 1.701551,0.83718 1.701551,6.09895 0,6.93636 -1.250016,0.6147 -3.187883,0.28273 -4.539654,0.28273 -3.682547,0 -10.603482,1.34756 -13.917213,-0.28273 -1.701315,-0.83741 -1.701315,-6.09923 0,-6.93636 m -31.094863,1.12371 v 4.68876 h 4.688757 v -4.68876 H 10.80762 m 6.564261,0 v 1.8755 h 3.751006 v -1.8755 h -3.751006 m 6.564261,0 v 1.8755 h 3.751007 v -1.8755 h -3.751007 m 18.755036,0 v 4.68876 h 4.688761 v -4.68876 h -4.688761 m 6.564259,0 v 1.8755 h 3.751004 v -1.8755 h -3.751004 m 6.564259,0 v 1.8755 h 3.751012 v -1.8755 h -3.751012 m -42.198821,1.8755 v 0.93776 h -0.937752 v -0.93776 h 0.937752 m 31.883558,0 v 0.93776 h -0.937749 v -0.93776 h 0.937749 m -28.132552,0.93776 v 1.8755 h 3.751006 v -1.8755 h -3.751006 m 6.564261,0 v 1.8755 h 3.751007 v -1.8755 h -3.751007 m 25.319295,0 v 1.8755 h 3.751004 v -1.8755 h -3.751004 m 6.564259,0 v 1.8755 h 3.751012 v -1.8755 z"
       id="path4543-7" /></g></svg>
