<?xml version="1.0" encoding="UTF-8" standalone="no"?>
<!-- Created with Inkscape (http://www.inkscape.org/) -->

<svg
   width="80.587006mm"
   height="87.019287mm"
   viewBox="0 0 80.587006 87.019287"
   version="1.1"
   id="svg1"
   xml:space="preserve"
   inkscape:export-filename="astrocyte.svg"
   inkscape:export-xdpi="96"
   inkscape:export-ydpi="96"
   inkscape:version="1.3.2 (091e20ef0f, 2023-11-25)"
   sodipodi:docname="diagrams_models_david.svg"
   xmlns:inkscape="http://www.inkscape.org/namespaces/inkscape"
   xmlns:sodipodi="http://sodipodi.sourceforge.net/DTD/sodipodi-0.dtd"
   xmlns="http://www.w3.org/2000/svg"
   xmlns:svg="http://www.w3.org/2000/svg"><sodipodi:namedview
     id="namedview1"
     pagecolor="#ffffff"
     bordercolor="#000000"
     borderopacity="0.25"
     inkscape:showpageshadow="2"
     inkscape:pageopacity="0.0"
     inkscape:pagecheckerboard="0"
     inkscape:deskcolor="#d1d1d1"
     inkscape:document-units="mm"
     showguides="true"
     inkscape:zoom="0.45131744"
     inkscape:cx="3727.9747"
     inkscape:cy="561.6889"
     inkscape:window-width="1504"
     inkscape:window-height="1289"
     inkscape:window-x="26"
     inkscape:window-y="23"
     inkscape:window-maximized="0"
     inkscape:current-layer="layer1"
     showgrid="false"><sodipodi:guide
       position="-649.60432,324.37523"
       orientation="0,-1"
       id="guide44"
       inkscape:locked="false" /><sodipodi:guide
       position="-493.58261,195.82639"
       orientation="1,0"
       id="guide45"
       inkscape:locked="false" /><sodipodi:guide
       position="-405.27656,439.17561"
       orientation="0,-1"
       id="guide46"
       inkscape:locked="false" /><sodipodi:guide
       position="-364.60284,442.54234"
       orientation="0,-1"
       id="guide47"
       inkscape:locked="false" /><sodipodi:guide
       position="-34.470438,427.18699"
       orientation="0,-1"
       id="guide48"
       inkscape:locked="false" /><sodipodi:guide
       position="-428.93604,384.97389"
       orientation="0,-1"
       id="guide49"
       inkscape:locked="false" /><sodipodi:guide
       position="243.07064,208.47993"
       orientation="0,-1"
       id="guide53"
       inkscape:locked="false" /><sodipodi:guide
       position="285.34798,285.70534"
       orientation="0,-1"
       id="guide57"
       inkscape:locked="false" /><sodipodi:guide
       position="56.689262,110.14888"
       orientation="0,-1"
       id="guide58"
       inkscape:locked="false" /><sodipodi:guide
       position="-203.40826,401.68942"
       orientation="1,0"
       id="guide43"
       inkscape:locked="false" /><sodipodi:guide
       position="-14.450798,364.90131"
       orientation="1,0"
       id="guide50"
       inkscape:locked="false" /><inkscape:grid
       id="grid52"
       units="px"
       originx="-715.0155"
       originy="-170.20134"
       spacingx="0.26458333"
       spacingy="0.26458334"
       empcolor="#0099e5"
       empopacity="0.30196078"
       color="#0099e5"
       opacity="0.14902"
       empspacing="5"
       dotted="false"
       gridanglex="30"
       gridanglez="30"
       visible="false" /><sodipodi:guide
       position="-241.41711,331.79067"
       orientation="1,0"
       id="guide66"
       inkscape:locked="false" /><sodipodi:guide
       position="-273.95266,309.6487"
       orientation="1,0"
       id="guide68"
       inkscape:locked="false" /><inkscape:page
       x="3.569236e-06"
       y="2.9789493e-07"
       width="80.587006"
       height="87.019287"
       id="page3"
       margin="0"
       bleed="0" /></sodipodi:namedview><defs
     id="defs1"><style
       class="style-fonts"
       id="style1" /><style
       class="style-fonts"
       id="style1-3">
      @font-face {
        font-family: &quot;Virgil&quot;;
        src: url(&quot;https://excalidraw.com/Virgil.woff2&quot;);
      }
      @font-face {
        font-family: &quot;Cascadia&quot;;
        src: url(&quot;https://excalidraw.com/Cascadia.woff2&quot;);
      }
      @font-face {
        font-family: &quot;Assistant&quot;;
        src: url(&quot;https://excalidraw.com/Assistant-Regular.woff2&quot;);
      }
    </style><style
       class="style-fonts"
       id="style1-6">
      @font-face {
        font-family: &quot;Virgil&quot;;
        src: url(&quot;https://excalidraw.com/Virgil.woff2&quot;);
      }
      @font-face {
        font-family: &quot;Cascadia&quot;;
        src: url(&quot;https://excalidraw.com/Cascadia.woff2&quot;);
      }
      @font-face {
        font-family: &quot;Assistant&quot;;
        src: url(&quot;https://excalidraw.com/Assistant-Regular.woff2&quot;);
      }
    </style><style
       class="style-fonts"
       id="style1-9">
      @font-face {
        font-family: &quot;Virgil&quot;;
        src: url(&quot;https://excalidraw.com/Virgil.woff2&quot;);
      }
      @font-face {
        font-family: &quot;Cascadia&quot;;
        src: url(&quot;https://excalidraw.com/Cascadia.woff2&quot;);
      }
      @font-face {
        font-family: &quot;Assistant&quot;;
        src: url(&quot;https://excalidraw.com/Assistant-Regular.woff2&quot;);
      }
    </style><style
       class="style-fonts"
       id="style1-2">
      @font-face {
        font-family: &quot;Virgil&quot;;
        src: url(&quot;https://excalidraw.com/Virgil.woff2&quot;);
      }
      @font-face {
        font-family: &quot;Cascadia&quot;;
        src: url(&quot;https://excalidraw.com/Cascadia.woff2&quot;);
      }
      @font-face {
        font-family: &quot;Assistant&quot;;
        src: url(&quot;https://excalidraw.com/Assistant-Regular.woff2&quot;);
      }
    </style><style
       class="style-fonts"
       id="style1-26">
      @font-face {
        font-family: &quot;Virgil&quot;;
        src: url(&quot;https://excalidraw.com/Virgil.woff2&quot;);
      }
      @font-face {
        font-family: &quot;Cascadia&quot;;
        src: url(&quot;https://excalidraw.com/Cascadia.woff2&quot;);
      }
      @font-face {
        font-family: &quot;Assistant&quot;;
        src: url(&quot;https://excalidraw.com/Assistant-Regular.woff2&quot;);
      }
    </style><style
       class="style-fonts"
       id="style1-7">
      @font-face {
        font-family: &quot;Virgil&quot;;
        src: url(&quot;https://excalidraw.com/Virgil.woff2&quot;);
      }
      @font-face {
        font-family: &quot;Cascadia&quot;;
        src: url(&quot;https://excalidraw.com/Cascadia.woff2&quot;);
      }
      @font-face {
        font-family: &quot;Assistant&quot;;
        src: url(&quot;https://excalidraw.com/Assistant-Regular.woff2&quot;);
      }
    </style><style
       class="style-fonts"
       id="style1-90">
      @font-face {
        font-family: &quot;Virgil&quot;;
        src: url(&quot;https://excalidraw.com/Virgil.woff2&quot;);
      }
      @font-face {
        font-family: &quot;Cascadia&quot;;
        src: url(&quot;https://excalidraw.com/Cascadia.woff2&quot;);
      }
      @font-face {
        font-family: &quot;Assistant&quot;;
        src: url(&quot;https://excalidraw.com/Assistant-Regular.woff2&quot;);
      }
    </style><style
       class="style-fonts"
       id="style1-0">
      @font-face {
        font-family: &quot;Virgil&quot;;
        src: url(&quot;https://excalidraw.com/Virgil.woff2&quot;);
      }
      @font-face {
        font-family: &quot;Cascadia&quot;;
        src: url(&quot;https://excalidraw.com/Cascadia.woff2&quot;);
      }
      @font-face {
        font-family: &quot;Assistant&quot;;
        src: url(&quot;https://excalidraw.com/Assistant-Regular.woff2&quot;);
      }
    </style><style
       class="style-fonts"
       id="style1-1">
      @font-face {
        font-family: &quot;Virgil&quot;;
        src: url(&quot;https://excalidraw.com/Virgil.woff2&quot;);
      }
      @font-face {
        font-family: &quot;Cascadia&quot;;
        src: url(&quot;https://excalidraw.com/Cascadia.woff2&quot;);
      }
      @font-face {
        font-family: &quot;Assistant&quot;;
        src: url(&quot;https://excalidraw.com/Assistant-Regular.woff2&quot;);
      }
    </style><style
       class="style-fonts"
       id="style1-21">
      @font-face {
        font-family: &quot;Virgil&quot;;
        src: url(&quot;https://excalidraw.com/Virgil.woff2&quot;);
      }
      @font-face {
        font-family: &quot;Cascadia&quot;;
        src: url(&quot;https://excalidraw.com/Cascadia.woff2&quot;);
      }
      @font-face {
        font-family: &quot;Assistant&quot;;
        src: url(&quot;https://excalidraw.com/Assistant-Regular.woff2&quot;);
      }
    </style><style
       class="style-fonts"
       id="style1-13">
      @font-face {
        font-family: &quot;Virgil&quot;;
        src: url(&quot;https://excalidraw.com/Virgil.woff2&quot;);
      }
      @font-face {
        font-family: &quot;Cascadia&quot;;
        src: url(&quot;https://excalidraw.com/Cascadia.woff2&quot;);
      }
      @font-face {
        font-family: &quot;Assistant&quot;;
        src: url(&quot;https://excalidraw.com/Assistant-Regular.woff2&quot;);
      }
    </style><style
       class="style-fonts"
       id="style1-07">
      @font-face {
        font-family: &quot;Virgil&quot;;
        src: url(&quot;https://excalidraw.com/Virgil.woff2&quot;);
      }
      @font-face {
        font-family: &quot;Cascadia&quot;;
        src: url(&quot;https://excalidraw.com/Cascadia.woff2&quot;);
      }
      @font-face {
        font-family: &quot;Assistant&quot;;
        src: url(&quot;https://excalidraw.com/Assistant-Regular.woff2&quot;);
      }
    </style><style
       class="style-fonts"
       id="style1-8">
      @font-face {
        font-family: &quot;Virgil&quot;;
        src: url(&quot;https://excalidraw.com/Virgil.woff2&quot;);
      }
      @font-face {
        font-family: &quot;Cascadia&quot;;
        src: url(&quot;https://excalidraw.com/Cascadia.woff2&quot;);
      }
      @font-face {
        font-family: &quot;Assistant&quot;;
        src: url(&quot;https://excalidraw.com/Assistant-Regular.woff2&quot;);
      }
    </style><style
       class="style-fonts"
       id="style1-37">
      @font-face {
        font-family: &quot;Virgil&quot;;
        src: url(&quot;https://excalidraw.com/Virgil.woff2&quot;);
      }
      @font-face {
        font-family: &quot;Cascadia&quot;;
        src: url(&quot;https://excalidraw.com/Cascadia.woff2&quot;);
      }
      @font-face {
        font-family: &quot;Assistant&quot;;
        src: url(&quot;https://excalidraw.com/Assistant-Regular.woff2&quot;);
      }
    </style><style
       class="style-fonts"
       id="style1-05">
      @font-face {
        font-family: &quot;Virgil&quot;;
        src: url(&quot;https://excalidraw.com/Virgil.woff2&quot;);
      }
      @font-face {
        font-family: &quot;Cascadia&quot;;
        src: url(&quot;https://excalidraw.com/Cascadia.woff2&quot;);
      }
      @font-face {
        font-family: &quot;Assistant&quot;;
        src: url(&quot;https://excalidraw.com/Assistant-Regular.woff2&quot;);
      }
    </style><style
       class="style-fonts"
       id="style1-67">
      @font-face {
        font-family: &quot;Virgil&quot;;
        src: url(&quot;https://excalidraw.com/Virgil.woff2&quot;);
      }
      @font-face {
        font-family: &quot;Cascadia&quot;;
        src: url(&quot;https://excalidraw.com/Cascadia.woff2&quot;);
      }
      @font-face {
        font-family: &quot;Assistant&quot;;
        src: url(&quot;https://excalidraw.com/Assistant-Regular.woff2&quot;);
      }
    </style><style
       class="style-fonts"
       id="style1-93">
      @font-face {
        font-family: &quot;Virgil&quot;;
        src: url(&quot;https://excalidraw.com/Virgil.woff2&quot;);
      }
      @font-face {
        font-family: &quot;Cascadia&quot;;
        src: url(&quot;https://excalidraw.com/Cascadia.woff2&quot;);
      }
      @font-face {
        font-family: &quot;Assistant&quot;;
        src: url(&quot;https://excalidraw.com/Assistant-Regular.woff2&quot;);
      }
    </style><style
       class="style-fonts"
       id="style1-675">
      @font-face {
        font-family: &quot;Virgil&quot;;
        src: url(&quot;https://excalidraw.com/Virgil.woff2&quot;);
      }
      @font-face {
        font-family: &quot;Cascadia&quot;;
        src: url(&quot;https://excalidraw.com/Cascadia.woff2&quot;);
      }
      @font-face {
        font-family: &quot;Assistant&quot;;
        src: url(&quot;https://excalidraw.com/Assistant-Regular.woff2&quot;);
      }
    </style><style
       class="style-fonts"
       id="style1-06">
      @font-face {
        font-family: &quot;Virgil&quot;;
        src: url(&quot;https://excalidraw.com/Virgil.woff2&quot;);
      }
      @font-face {
        font-family: &quot;Cascadia&quot;;
        src: url(&quot;https://excalidraw.com/Cascadia.woff2&quot;);
      }
      @font-face {
        font-family: &quot;Assistant&quot;;
        src: url(&quot;https://excalidraw.com/Assistant-Regular.woff2&quot;);
      }
    </style><style
       class="style-fonts"
       id="style1-15">
      @font-face {
        font-family: &quot;Virgil&quot;;
        src: url(&quot;https://excalidraw.com/Virgil.woff2&quot;);
      }
      @font-face {
        font-family: &quot;Cascadia&quot;;
        src: url(&quot;https://excalidraw.com/Cascadia.woff2&quot;);
      }
      @font-face {
        font-family: &quot;Assistant&quot;;
        src: url(&quot;https://excalidraw.com/Assistant-Regular.woff2&quot;);
      }
    </style><style
       class="style-fonts"
       id="style1-33">
      @font-face {
        font-family: &quot;Virgil&quot;;
        src: url(&quot;https://excalidraw.com/Virgil.woff2&quot;);
      }
      @font-face {
        font-family: &quot;Cascadia&quot;;
        src: url(&quot;https://excalidraw.com/Cascadia.woff2&quot;);
      }
      @font-face {
        font-family: &quot;Assistant&quot;;
        src: url(&quot;https://excalidraw.com/Assistant-Regular.woff2&quot;);
      }
    </style><style
       class="style-fonts"
       id="style1-5">
      @font-face {
        font-family: &quot;Virgil&quot;;
        src: url(&quot;https://excalidraw.com/Virgil.woff2&quot;);
      }
      @font-face {
        font-family: &quot;Cascadia&quot;;
        src: url(&quot;https://excalidraw.com/Cascadia.woff2&quot;);
      }
      @font-face {
        font-family: &quot;Assistant&quot;;
        src: url(&quot;https://excalidraw.com/Assistant-Regular.woff2&quot;);
      }
    </style><font
       horiz-adv-x="1000"
       id="font3076"
       inkscape:label="font 1"
       horiz-origin-x="0"
       horiz-origin-y="0"
       vert-origin-x="512"
       vert-origin-y="768"
       vert-adv-y="1024"><font-face
         units-per-em="1000"
         ascent="750"
         cap-height="600"
         x-height="400"
         descent="200"
         id="font-face3076"
         font-family="SVGFont 1" /><missing-glyph
         d="M0,0h1000v1000h-1000z"
         id="missing-glyph3076" /></font><style
       class="style-fonts"
       id="style1-87">
      @font-face {
        font-family: &quot;Virgil&quot;;
        src: url(&quot;https://excalidraw.com/Virgil.woff2&quot;);
      }
      @font-face {
        font-family: &quot;Cascadia&quot;;
        src: url(&quot;https://excalidraw.com/Cascadia.woff2&quot;);
      }
      @font-face {
        font-family: &quot;Assistant&quot;;
        src: url(&quot;https://excalidraw.com/Assistant-Regular.woff2&quot;);
      }
    </style><marker
       style="overflow:visible"
       id="marker73_F-ff6633_S-ff6633-53"
       refX="0"
       refY="0"
       orient="auto-start-reverse"
       inkscape:stockid="Triangle arrow"
       markerWidth="0.5"
       markerHeight="0.5"
       viewBox="0 0 1 1"
       inkscape:isstock="true"
       inkscape:collect="always"
       preserveAspectRatio="xMidYMid"><path
         transform="scale(0.5)"
         style="fill:#ff6633;fill-rule:evenodd;stroke:#ff6633;stroke-width:1pt"
         d="M 5.77,0 -2.88,5 V -5 Z"
         id="path1-93-4" /></marker><style
       class="style-fonts"
       id="style1-4">
      @font-face {
        font-family: &quot;Virgil&quot;;
        src: url(&quot;https://excalidraw.com/Virgil.woff2&quot;);
      }
      @font-face {
        font-family: &quot;Cascadia&quot;;
        src: url(&quot;https://excalidraw.com/Cascadia.woff2&quot;);
      }
      @font-face {
        font-family: &quot;Assistant&quot;;
        src: url(&quot;https://excalidraw.com/Assistant-Regular.woff2&quot;);
      }
    </style><style
       class="style-fonts"
       id="style1-150">
      @font-face {
        font-family: &quot;Virgil&quot;;
        src: url(&quot;https://excalidraw.com/Virgil.woff2&quot;);
      }
      @font-face {
        font-family: &quot;Cascadia&quot;;
        src: url(&quot;https://excalidraw.com/Cascadia.woff2&quot;);
      }
      @font-face {
        font-family: &quot;Assistant&quot;;
        src: url(&quot;https://excalidraw.com/Assistant-Regular.woff2&quot;);
      }
    </style></defs><g
     inkscape:label="Layer 1"
     inkscape:groupmode="layer"
     id="layer1"
     transform="translate(-715.01552,-170.20133)"><g
       stroke-linecap="round"
       id="g13-4-5"
       transform="matrix(0.09801724,0,0,0.09801724,719.51229,170.03995)"><g
         transform="translate(286.44379,150.64274)"
         id="g10-76-6"><path
           d="m -0.42,-0.07 c 42.03,29.39 211,146.9 253.53,176.19 M 1.56,-1.15 c 42.33,29.02 211.75,145.59 253.91,175.27"
           stroke="#1e1e1e"
           stroke-width="2"
           fill="none"
           id="path9-5-7" /></g><g
         transform="translate(286.44379,150.64274)"
         id="g11-69-7"><path
           d="m 231.3,167.74 c 9.03,1.36 18.68,6.55 24.17,6.38 m -24.17,-6.38 c 6.07,1.05 13.6,3.77 24.17,6.38"
           stroke="#1e1e1e"
           stroke-width="2"
           fill="none"
           id="path10-3-4" /></g><g
         transform="translate(286.44379,150.64274)"
         id="g12-74-0"><path
           d="m 241.05,153.69 c 5.31,6.66 11.27,17.17 14.42,20.43 m -14.42,-20.43 c 3.26,5.06 8.03,11.74 14.42,20.43"
           stroke="#1e1e1e"
           stroke-width="2"
           fill="none"
           id="path11-5-6" /></g></g><g
       stroke-linecap="round"
       transform="matrix(0.09801724,0,0,0.09801724,767.61925,201.20496)"
       id="g2-28-9"
       inkscape:export-filename="../input_noise_nn.svg"
       inkscape:export-xdpi="96"
       inkscape:export-ydpi="96"><path
         d="m 15.47,67.77 c 0,0 0,0 0,0 m 0,0 c 0,0 0,0 0,0 M 8.39,88.12 C 21.5,71.21 34.36,58.43 49.72,40.57 M 8.39,88.12 C 16.01,78.74 25.98,68.43 49.72,40.57 M 1.96,107.7 C 35.24,71.13 65.23,33.31 83.31,14.12 M 1.96,107.7 C 20.79,84.35 41.42,62.43 83.31,14.12 M 2.09,119.74 C 34.26,87.3 63.17,49.47 97.22,10.31 M 2.09,119.74 C 23.07,95.68 45.16,71.43 97.22,10.31 M 2.23,131.79 C 26.72,106.15 49.05,78.54 110.47,7.26 M 2.23,131.79 C 41.65,86.07 81.14,41.14 110.47,7.26 M 3.01,143.07 C 46.08,93.39 88.85,42.67 126.35,1.19 M 3.01,143.07 C 30.36,111.54 56.83,80.07 126.35,1.19 M 5.77,152.09 C 35.77,119.26 61.85,88.12 136.33,1.91 M 5.77,152.09 C 43.91,108.71 82.08,64.01 136.33,1.91 M 9.19,160.36 C 60.52,103.38 109.9,45.97 146.3,2.63 M 9.19,160.36 C 61.54,102.04 113.08,43.64 146.3,2.63 m -133.7,166 C 65.34,107.17 120.14,47.94 156.28,3.35 M 12.6,168.63 C 61.83,112.81 112.66,56.03 156.28,3.35 M 16.01,176.9 C 47.9,139.95 80.62,104.62 166.91,3.31 M 16.01,176.9 C 64.11,122.72 110.15,68.33 166.91,3.31 M 19.43,185.16 C 54.95,145.34 89.99,102.66 175.57,5.54 M 19.43,185.16 C 55.08,143.9 91.07,104.05 175.57,5.54 M 23.5,192.68 C 78.86,127 135.16,62.15 183.57,8.53 M 23.5,192.68 C 57.15,152.15 90.28,113.62 183.57,8.53 M 28.88,198.68 C 64.11,156.75 99.19,118.74 192.24,10.76 M 28.88,198.68 C 88.32,131.71 147.5,63.12 192.24,10.76 M 34.26,204.68 C 102.13,128.14 168.68,51.54 200.24,13.74 M 34.26,204.68 C 82.51,147.14 131.29,91.07 200.24,13.74 M 39.64,210.69 C 95.92,144.96 150.86,82.48 208.25,16.72 M 39.64,210.69 C 100.62,140.41 159.38,71.25 208.25,16.72 M 45.02,216.69 C 112.21,142.43 175.77,68.06 217.57,18.2 M 45.02,216.69 C 103.1,148.99 161.29,81.92 217.57,18.2 M 50.4,222.69 C 95.4,170.46 142.66,116.55 223.6,23.45 M 50.4,222.69 C 105.53,157.69 160.06,93.58 223.6,23.45 M 57.75,226.43 C 100.02,177.54 139.23,129.33 229.64,28.7 M 57.75,226.43 C 118.79,153.93 182.87,81.09 229.64,28.7 M 64.45,230.92 C 111.38,174.74 158.89,120.95 236.33,33.19 M 64.45,230.92 C 125.44,159.37 187.87,87.29 236.33,33.19 M 71.8,234.66 C 137.46,160.93 203.15,86.94 242.37,38.44 M 71.8,234.66 C 129.1,168.52 188.02,101.49 242.37,38.44 M 79.15,238.4 C 126.28,180.32 176.2,125.64 248.41,43.69 M 79.15,238.4 C 128.93,180.14 178.44,123.07 248.41,43.69 M 85.84,242.9 C 137.8,185.95 185.38,129.75 254.45,48.94 M 85.84,242.9 C 134.83,187.36 184.07,130.55 254.45,48.94 M 92.53,247.39 c 36.38,-40 68.4,-78.11 166.64,-191.7 M 92.53,247.39 C 145.71,188.33 198.42,126.86 259.17,55.69 M 101.85,248.86 C 155.06,187.38 207.49,126.42 263.24,63.21 M 101.85,248.86 C 162.41,179.77 223.31,109.26 263.24,63.21 M 111.17,250.34 c 34.6,-41.69 70.46,-82.41 156.8,-180.38 M 111.17,250.34 C 161.78,190.13 215.92,128.73 267.97,69.96 M 120.49,251.81 C 173.96,192.98 221.87,134.04 272.69,76.72 m -152.2,175.09 c 32.56,-38.74 66.37,-77.7 152.2,-175.09 M 129.15,254.04 C 171.92,200.37 217.81,151.52 276.76,84.23 M 129.15,254.04 C 166.74,210.58 204.14,166.85 276.76,84.23 M 138.47,255.52 C 167.77,223.1 197.38,190.1 278.86,94.01 M 138.47,255.52 C 192.82,193.32 246.54,132.28 278.86,94.01 M 149.75,254.73 C 188.97,210.45 225.9,170.41 280.97,103.79 M 149.75,254.73 c 35.09,-40.05 71.2,-81.44 131.22,-150.94 M 161.04,253.94 C 205.9,202.68 251.64,153.17 283.07,113.56 M 161.04,253.94 C 194.23,214.21 227.12,176.5 283.07,113.56 M 172.33,253.15 C 216.42,204.52 257.3,153.12 283.86,124.85 M 172.33,253.15 C 217.94,201.92 260.49,152.2 283.86,124.85 M 183.61,252.36 c 22.36,-25.87 44.48,-54.08 98.41,-113.2 m -98.41,113.2 c 24.99,-30.08 50.01,-59.06 98.41,-113.2 m -81.87,106.38 c 22.29,-25.6 46.2,-53 80.04,-92.08 m -80.04,92.08 c 25.06,-27.79 50.44,-55.96 80.04,-92.08 m -56.95,77.7 c 10.27,-14.57 25.5,-26.41 56.42,-64.9 m -56.42,64.9 c 20.26,-21.21 39.26,-43.47 56.42,-64.9 M 48.11,220.54 c 0,0 0,0 0,0 m 0,0 c 0,0 0,0 0,0 m 34.68,19.55 C 69.89,225.81 51.7,214.22 17.89,183.67 m 64.9,56.42 C 67.99,226.23 53.18,214.31 17.89,183.67 m 82.98,61.54 C 67.5,215.72 30.6,182.57 10.31,166.48 m 90.56,78.73 C 74.78,222.87 50.06,199.89 10.31,166.48 m 106.38,81.87 C 87.16,222.06 56.91,198.21 2.73,149.29 m 113.96,99.06 C 79.89,217.9 42.72,184.98 2.73,149.29 M 131.75,250.85 C 80.47,209.25 30.03,165.19 2.69,138.66 M 131.75,250.85 C 81.93,207.44 30.31,164.45 2.69,138.66 M 144.54,251.37 C 110.35,219.17 75.97,189.72 1.9,127.37 m 142.64,124 C 97.32,209.83 52.85,171.43 1.9,127.37 M 155.83,250.58 C 119.14,215.24 80.35,184.33 1.87,116.74 M 155.83,250.58 C 120.78,220.3 87.28,191.37 1.87,116.74 M 166.36,249.13 C 129.54,217.92 91.52,185.48 1.83,106.11 M 166.36,249.13 C 113.43,201.69 61.05,157.09 1.83,106.11 M 177.65,248.34 C 114.01,193.73 47.08,136.89 4.82,98.11 M 177.65,248.34 C 130.81,206.29 81.19,164.93 4.82,98.11 M 186.67,245.59 C 148.33,210.81 107.98,176.36 7.8,90.1 M 186.67,245.59 C 142.92,208.37 97.97,170.38 7.8,90.1 M 194.94,242.17 C 127.33,183.79 59.86,123.05 10.79,82.1 M 194.94,242.17 C 131.94,188.57 69.58,133.74 10.79,82.1 M 203.2,238.76 C 139.65,181.64 76.65,126.82 13.77,74.09 M 203.2,238.76 C 137.5,182.02 74.11,126.87 13.77,74.09 m 197.7,161.26 C 163.86,193.82 115.86,153.77 16.76,66.08 M 211.47,235.35 C 143.16,177.79 74.81,117.3 16.76,66.08 M 219.74,231.93 C 164.18,184.36 105.65,135.36 22,60.05 M 219.74,231.93 C 163.57,182.76 108.34,134.15 22,60.05 M 226.5,227.21 C 149.07,162.77 72.88,94.99 27.25,54.01 M 226.5,227.21 C 160.81,168.92 93.38,111.45 27.25,54.01 M 232.5,221.83 C 175.47,173.54 116.51,122.46 32.5,47.97 m 200,173.86 C 177.39,176.13 122.54,128.32 32.5,47.97 m 206,168.47 C 192.89,179.59 149.51,142.57 37.75,41.93 M 238.5,216.44 C 178.39,164.18 116.62,109.84 37.75,41.93 M 244.51,211.06 C 174.65,151.21 102.16,89.68 43,35.9 M 244.51,211.06 C 174.07,151.32 103.35,90.52 43,35.9 M 250.51,205.68 C 188.18,150.31 122.85,93.86 49.76,31.17 M 250.51,205.68 C 184.95,147.26 116.72,90.01 49.76,31.17 m 206,168.47 C 179.52,133.56 101.74,64.94 57.27,27.1 M 255.76,199.64 C 206.49,156.41 155.34,112.6 57.27,27.1 M 260.25,192.95 C 203.57,143.58 149.1,91.89 64.03,22.37 M 260.25,192.95 C 206.28,146.36 152.33,99.47 64.03,22.37 M 264.74,186.26 C 203.46,132.52 143.61,80.01 71.54,18.3 m 193.2,167.96 C 192.52,120.7 118.6,57.04 71.54,18.3 M 268.48,178.91 C 206.69,125.02 142.71,71.29 78.3,13.58 M 268.48,178.91 C 217.88,135.01 165.57,88.82 78.3,13.58 M 272.98,172.21 C 212.35,117.59 149.53,65.03 86.56,10.17 M 272.98,172.21 C 230.3,134.9 187.35,96.71 86.56,10.17 M 277.47,165.52 C 235.35,129.22 195.32,90.09 96.34,8.06 M 277.47,165.52 C 235.82,129.9 196.06,94.2 96.34,8.06 M 278.95,156.2 C 238.85,120.04 199.26,84.37 106.12,5.96 M 278.95,156.2 C 217.7,103.8 157.59,51.92 106.12,5.96 m 174.3,140.92 C 218.26,90.09 153.31,36.47 115.14,3.21 M 280.42,146.88 C 224.89,100.42 171.67,52.84 115.14,3.21 M 281.9,137.56 C 226.95,88.82 171.31,41.08 124.92,1.1 M 281.9,137.56 C 222.07,83.64 161.02,31.99 124.92,1.1 m 157.7,126.49 C 225.67,79.07 170.65,29.36 137.71,1.63 M 282.62,127.59 C 233.5,85.46 184.54,43.56 137.71,1.63 M 282.58,116.96 C 233.82,75.12 188.6,35.64 150.51,2.15 M 282.58,116.96 C 252.22,91.12 220.54,63.35 150.51,2.15 M 279.53,103.71 C 254.25,81.35 230.77,60.85 164.06,3.33 M 279.53,103.71 C 245.07,73.8 211.77,45.13 164.06,3.33 M 277.23,91.11 C 249.37,66.6 222.78,44.91 178.36,5.16 m 98.87,85.95 C 248.04,65.06 216.15,38.38 178.36,5.16 m 93.55,70.73 C 251.03,57.84 232.96,39.32 197.95,11.59 m 73.96,64.3 C 255.43,61.9 240.15,49.3 197.95,11.59 m 58.83,40.54 C 243.38,44.44 232.85,30.76 217.54,18.02 m 39.24,34.11 C 247.92,43.42 237.41,35.11 217.54,18.02"
         stroke="#ffd8a8"
         stroke-width="1"
         fill="none"
         id="path1-97-6" /><path
         d="m 173.18,3.91 c 14.96,0.86 30.87,6.98 44.12,14.17 13.24,7.19 25.78,18.28 35.36,28.98 9.58,10.7 17.01,22.43 22.1,35.23 5.09,12.79 7.99,27.78 8.44,41.53 0.45,13.76 -1.11,28.13 -5.74,40.99 -4.63,12.86 -12.93,25.11 -22.03,36.17 -9.11,11.06 -19.93,22.22 -32.59,30.18 -12.66,7.96 -28.6,14.1 -43.37,17.6 -14.78,3.49 -30.19,4.18 -45.27,3.34 -15.07,-0.83 -30.79,-3.09 -45.17,-8.38 C 74.65,238.44 59.63,229.67 47.94,220.39 36.24,211.11 26.41,199.85 18.87,188.06 11.33,176.28 5.62,163.05 2.71,149.66 -0.19,136.27 -0.67,121.34 1.43,107.72 3.53,94.1 8.31,79.93 15.33,67.94 22.34,55.95 32.47,45.1 43.5,35.77 54.54,26.44 67.74,17.72 81.52,11.94 95.29,6.17 110.37,2.41 126.13,1.13 c 15.77,-1.28 41.23,2.26 49.99,3.15 8.77,0.89 3.16,0.07 2.6,2.19 M 103.31,3.6 c 13.66,-5.56 31.52,-4.99 47.05,-4.05 15.53,0.94 31.92,4.2 46.12,9.68 14.21,5.49 27.84,13.98 39.12,23.25 11.29,9.28 21.14,20.62 28.58,32.42 7.45,11.79 12.81,25.24 16.08,38.37 3.28,13.13 5.36,26.93 3.58,40.43 -1.77,13.49 -6.75,28.3 -14.21,40.52 -7.47,12.23 -19.25,23.5 -30.56,32.82 -11.3,9.32 -23.64,17.2 -37.29,23.11 -13.64,5.9 -29.4,10.62 -44.57,12.3 -15.17,1.68 -31.46,0.86 -46.44,-2.2 C 95.79,247.18 80.42,241.63 67.33,234.04 54.24,226.46 42.15,215.39 32.23,204.75 22.31,194.1 13.1,182.81 7.83,170.17 2.56,157.53 0.92,142.49 0.61,128.9 0.3,115.31 1.47,101.81 5.99,88.62 10.51,75.43 18.21,61.07 27.73,49.78 37.25,38.48 50.28,28.29 63.1,20.84 75.92,13.39 97.84,7.27 104.64,5.06 c 6.79,-2.21 -1.3,0.56 -0.77,2.52"
         stroke="#1e1e1e"
         stroke-width="2"
         fill="none"
         id="path2-36-2" /></g><g
       stroke-linecap="round"
       transform="matrix(0.09801724,0,0,0.09801724,729.11089,170.24154)"
       id="g4-12-1"><path
         d="m 10.82,41.2 c 0,0 0,0 0,0 m 0,0 c 0,0 0,0 0,0 M 4.39,60.79 c 10.45,-12.52 22.38,-27.37 34.77,-40 m -34.77,40 c 7.05,-9.01 14.6,-16.29 34.77,-40 M 3.21,74.34 C 20.62,54.93 37.46,31.73 57.01,12.46 M 3.21,74.34 C 14.91,59.48 27.69,46.14 57.01,12.46 M 4.66,84.87 C 27.91,60.92 47.55,35.36 73.54,5.63 M 4.66,84.87 C 26.57,59.08 48.8,33.56 73.54,5.63 M 6.1,95.4 C 36.35,62.92 64.22,28.26 83.52,6.35 M 6.1,95.4 C 29.02,68.46 52.58,41.12 83.52,6.35 M 6.23,107.45 C 42.28,69.73 75.43,28.6 94.15,6.31 M 6.23,107.45 C 27.1,81.6 47.92,57.47 94.15,6.31 M 10.96,114.2 C 48.51,73.09 84.1,30.26 107.4,3.26 M 10.96,114.2 C 45.63,73.33 83.27,31.52 107.4,3.26 M 15.69,120.96 C 42.83,88.3 69.29,56.65 115.41,6.25 M 15.69,120.96 C 53.69,78.72 90.97,36.38 115.41,6.25 m -95,121.47 C 47.31,96.6 76.42,62.12 123.41,9.23 m -103,118.49 C 42.28,101.86 66.2,76.11 123.41,9.23 m -98.93,126 C 59.51,96.76 92.49,61.38 132.07,11.46 M 24.48,135.23 C 50.79,105.33 78.14,73.81 132.07,11.46 M 30.52,140.48 C 59.96,103.17 92.69,69.24 140.74,13.69 M 30.52,140.48 C 61.09,104.62 90.32,71.27 140.74,13.69 M 37.21,144.97 C 61.26,114.39 87.76,84.52 146.12,19.69 M 37.21,144.97 C 81.21,94.19 124.19,44.46 146.12,19.69 M 44.56,148.71 C 73.55,112.58 104.38,77.74 152.16,24.94 M 44.56,148.71 C 82.47,106.9 118.82,64.94 152.16,24.94 M 51.26,153.21 C 80.58,122.34 109.11,86.31 158.19,30.19 M 51.26,153.21 C 77.43,124.04 105.17,92.48 158.19,30.19 M 58.61,156.95 C 88.01,125.54 115.28,92.44 164.23,35.44 M 58.61,156.95 C 84.43,126.19 110.84,95.6 164.23,35.44 M 67.92,158.42 C 106.06,110.32 149.94,64.2 170.27,40.69 M 67.92,158.42 C 92.89,130.11 114.74,103.76 170.27,40.69 M 77.24,159.9 c 20.87,-25.71 41.7,-48.95 95.79,-110.19 M 77.24,159.9 C 115.68,116.83 152.21,72.65 173.03,49.71 M 85.9,162.13 c 25.5,-28.6 54.09,-59.25 90.54,-104.15 M 85.9,162.13 c 22.87,-27.48 45.3,-53.31 90.54,-104.15 M 95.22,163.6 C 122.49,133.23 148.14,99.95 179.2,67 M 95.22,163.6 C 128.43,125.71 161.78,87.7 179.2,67 m -70.07,92.79 c 30.13,-34.81 56.58,-66.52 74.14,-85.28 m -74.14,85.28 c 19.28,-21.22 38.23,-41.73 74.14,-85.28 m -60.88,82.23 c 17.65,-23.91 39.64,-43.42 60.35,-69.43 m -60.35,69.43 C 138,139.33 152.43,123.38 182.74,87.31 m -48.41,67.88 c 9.27,-11.98 21.04,-21.43 44.61,-51.32 m -44.61,51.32 c 10.86,-11.59 21.15,-23.11 44.61,-51.32 m -154.67,31.3 c 0,0 0,0 0,0 m 0,0 c 0,0 0,0 0,0 m 33.93,18.89 c -12.45,-9 -20.72,-19.59 -49.81,-43.3 m 49.81,43.3 C 46.68,144.16 35.9,134.93 8.39,110.76 m 64.87,45.8 C 49.29,133.42 23.73,114.59 4.58,96.85 m 68.68,59.71 C 51.38,138.03 28.13,118.63 4.58,96.85 M 89.07,159.7 C 61.19,137.44 33.49,113.13 3.04,84.91 M 89.07,159.7 C 69.48,141.1 50,125.44 3.04,84.91 m 96.57,73.35 C 62.15,125 25.92,91.26 0.74,72.31 m 98.87,85.95 C 76.37,138.22 55.5,120.28 0.74,72.31 m 108.64,83.85 C 76.41,128.29 40.87,98.92 3.72,64.31 m 105.66,91.85 C 73.63,124.39 36.94,93.2 3.72,64.31 M 118.41,153.4 C 82.23,120.97 44.97,91.49 5.95,55.65 M 118.41,153.4 C 95.01,131.6 70.97,111.68 5.95,55.65 M 128.18,151.3 C 101.39,131.31 79.85,109.42 8.94,47.64 M 128.18,151.3 C 88.86,117.69 49.7,84.79 8.94,47.64 m 126.75,99.59 C 93.41,111.07 50.7,72.66 11.92,39.63 m 123.77,107.6 C 96.34,111.48 58.09,78.36 11.92,39.63 M 142.45,142.5 C 113.71,116.69 80.6,91.21 17.93,34.25 M 142.45,142.5 C 106.97,112.84 72.47,83.42 17.93,34.25 M 149.21,137.78 C 103.37,96.56 56.56,57.71 23.93,28.87 M 149.21,137.78 C 102.42,96.23 52.87,55.34 23.93,28.87 M 155.97,133.05 C 123.61,105.64 95.68,83.09 29.18,22.83 M 155.97,133.05 C 128.65,110.14 100.45,84.98 29.18,22.83 M 161.22,127.01 C 126.74,100.29 94.95,72.04 35.18,17.45 M 161.22,127.01 C 136.79,105.19 110.23,82.11 35.18,17.45 M 165.71,120.32 C 134.06,95.86 106.59,70 42.69,13.38 M 165.71,120.32 C 126.29,87.07 87.32,52.78 42.69,13.38 M 170.2,113.63 C 141.85,90.21 115.33,67.45 50.96,9.97 M 170.2,113.63 C 126.32,75.55 82.96,38.64 50.96,9.97 M 174.7,106.93 C 148.26,84.34 118.8,61.32 58.47,5.9 M 174.7,106.93 C 146.81,82.04 119.7,58.2 58.47,5.9 M 177.68,98.93 C 154.19,77.2 128.19,53.96 66.74,2.49 M 177.68,98.93 C 156.48,78.77 132.25,57.89 66.74,2.49 M 177.65,88.3 C 148.54,65.24 121.36,38.35 78.03,1.7 m 99.62,86.6 C 155.81,71.46 135.63,53.47 78.03,1.7 M 178.37,78.32 C 144.92,47.79 111.95,21.47 90.07,1.56 m 88.3,76.76 C 153.13,56.4 128.94,35.67 90.07,1.56 m 89.02,66.79 C 150.29,44.37 121.15,20.09 102.11,1.43 m 76.98,66.92 C 154.41,45.73 129.18,25.65 102.11,1.43 m 70.91,51.04 C 154.05,38.03 138.31,24.13 118.68,5.23 m 54.34,47.24 C 157.49,39.26 141.94,26.21 118.68,5.23"
         stroke="#ffec99"
         stroke-width="1"
         fill="none"
         id="path3-93-2" /><path
         d="m 105.79,1.94 c 11.43,0.46 24.07,5.51 34.38,11.66 10.3,6.16 20.97,15.76 27.43,25.26 6.46,9.51 9.75,21.13 11.32,31.76 1.57,10.63 1.64,21.86 -1.89,32 -3.52,10.13 -11.29,20.67 -19.24,28.8 -7.95,8.14 -17.5,15.12 -28.44,20.02 -10.94,4.9 -24.89,8.93 -37.22,9.37 -12.34,0.44 -25.5,-2.51 -36.77,-6.75 C 44.08,149.82 32.79,143.31 24.49,135.36 16.18,127.41 9.51,116.8 5.54,106.35 1.57,95.9 -0.25,83.54 0.66,72.65 1.56,61.76 5.26,50.22 10.99,41 16.73,31.78 25.47,23.86 35.04,17.33 44.61,10.8 55.75,4.38 68.42,1.82 c 12.67,-2.56 34.94,-0.36 42.64,0.13 7.69,0.49 3.87,1.33 3.54,2.81 m 16.57,3.82 c 10.87,3.86 21.82,14.29 29.62,22.87 7.8,8.59 14.45,18.42 17.17,28.64 2.73,10.21 1.27,21.68 -0.82,32.64 -2.09,10.95 -5.29,24.1 -11.71,33.09 -6.41,8.99 -16.44,15.06 -26.76,20.87 -10.32,5.81 -22.83,12.34 -35.15,13.97 -12.31,1.63 -26.79,-1.04 -38.75,-4.19 C 52.81,153.33 41.16,148.9 31.76,141.8 22.35,134.7 13.73,123.8 8.36,113.88 2.98,103.96 -0.36,92.8 -0.49,82.27 -0.62,71.75 2.9,60.87 7.6,50.76 12.3,40.64 18.99,29.33 27.71,21.56 36.43,13.78 48.46,7.47 59.91,4.1 71.35,0.74 84.45,0.38 96.37,1.38 c 11.92,1 29.17,7 35.06,8.73 5.9,1.74 0.64,0.45 0.32,1.69"
         stroke="#1e1e1e"
         stroke-width="2"
         fill="none"
         id="path4-19-0" /></g><g
       stroke-linecap="round"
       transform="matrix(0.09801724,0,0,0.09801724,715.14502,202.25514)"
       id="g6-45-7"><path
         d="m 27.88,21.59 c 0,0 0,0 0,0 m 0,0 c 0,0 0,0 0,0 M 5.71,59.29 C 21.76,41.39 36.01,27.13 47.7,10.99 M 5.71,59.29 C 19.25,44.41 32.69,27.68 47.7,10.99 M 1.91,75.86 C 24.94,51.92 42.01,29.32 64.23,4.16 M 1.91,75.86 C 25.49,48.12 51.04,20.37 64.23,4.16 M 1.38,88.65 C 19.14,72.37 33.95,54.42 75.52,3.37 M 1.38,88.65 C 27.59,59.25 52.16,28.12 75.52,3.37 M 4.14,97.68 C 27.32,69.95 51.24,41.53 87.46,1.83 M 4.14,97.68 C 23.39,76.82 41.26,57.11 87.46,1.83 M 6.9,106.7 C 39.87,67.33 75.68,26.71 98.09,1.79 M 6.9,106.7 C 41.82,65.05 78.79,23.42 98.09,1.79 M 9.66,115.72 C 37.77,81.47 64.72,50.83 106.75,4.02 M 9.66,115.72 C 30.99,89.55 53.87,63.47 106.75,4.02 M 15.04,121.72 C 50.48,81.26 86.95,36.39 116.07,5.5 M 15.04,121.72 C 40.69,91.5 66.97,62.39 116.07,5.5 M 20.42,127.73 C 45.41,98.53 74.31,67.45 124.73,7.73 m -104.31,120 C 50.09,95.06 78.16,62.11 124.73,7.73 m -98.93,126 C 49.26,107.63 72.82,77.8 133.39,9.96 M 25.8,133.73 C 54.59,101.4 81.33,70.88 133.39,9.96 M 30.53,140.49 C 61.51,103.81 94.23,68.35 139.43,15.21 M 30.53,140.49 C 71.05,93.53 112.57,44.61 139.43,15.21 M 37.88,144.23 C 79.55,93.12 124.62,46.39 146.13,19.7 M 37.88,144.23 C 74.86,101.78 114.07,57.74 146.13,19.7 M 45.23,147.97 C 82.56,106.45 118.58,62.48 152.16,24.95 M 45.23,147.97 C 70.14,117.14 98.03,87.78 152.16,24.95 m -98.93,126 C 75.76,125.67 99.09,98.06 158.86,29.44 M 53.23,150.95 C 77.32,124.58 99.8,99.35 158.86,29.44 M 60.58,154.69 c 34.35,-40.35 68.74,-80.15 103,-118.49 m -103,118.49 c 35.09,-42.16 72.2,-84.18 103,-118.49 M 68.59,157.67 C 92.97,133.11 116.71,106.25 168.31,42.96 M 68.59,157.67 c 36.58,-41.08 71.98,-81.9 99.72,-114.71 M 78.56,158.39 C 116.77,116.22 152.35,75.93 172.38,50.47 M 78.56,158.39 c 23.53,-28.15 46.97,-54.04 93.82,-107.92 M 88.54,159.11 c 23,-25.53 44.62,-54.72 87.91,-101.13 M 88.54,159.11 c 16.58,-21.5 34.17,-41.05 87.91,-101.13 M 98.51,159.83 c 16.63,-20.14 35.92,-42.2 79.38,-91.32 m -79.38,91.32 c 20.08,-25.79 42.79,-49.56 79.38,-91.32 m -66.78,89.02 C 135,128.65 157.15,100.67 178.03,80.55 m -66.92,76.98 c 15.24,-17.44 29.33,-32.47 66.92,-76.98 m -51.04,70.91 C 145.21,128.42 165.15,111 177.5,93.35 m -50.51,58.11 c 10.51,-13.98 22.94,-26.09 50.51,-58.11 m -30.04,46.76 c 4.05,-4.27 10.33,-9.8 21.65,-24.91 m -21.65,24.91 c 8.81,-8.98 16.07,-17.99 21.65,-24.91 M 31.9,141.64 c 0,0 0,0 0,0 m 0,0 c 0,0 0,0 0,0 m 25.62,11.68 C 48.88,143.19 35.26,134.73 7.71,110.02 m 49.81,43.3 C 41.44,140.69 26.61,126.05 7.71,110.02 m 66.38,47.1 C 56.96,144.5 40.02,128.41 3.9,96.11 m 70.19,61.01 C 52.44,137.27 30.05,118.36 3.9,96.11 M 87.64,158.3 C 68.17,140.21 47.31,123.96 0.1,82.2 m 87.54,76.1 C 62.42,138.22 37.58,116.86 0.1,82.2 m 101.09,77.28 C 71.51,137.44 47.01,110.55 2.33,73.54 m 98.86,85.94 C 68.57,132.03 36.2,102.83 2.33,73.54 m 108.64,83.84 C 87.81,137.57 62.76,115.02 3.8,64.22 m 107.17,93.16 C 77.92,128.35 43.73,99.24 3.8,64.22 m 115.44,89.75 C 91.01,131.56 67.02,110.39 6.03,55.56 m 113.21,98.41 C 85.33,125.98 52.15,95.7 6.03,55.56 M 127.5,150.55 C 96.14,123.66 63.32,95.94 9.02,47.55 m 118.48,103 C 100.44,125.78 73.01,103.27 9.02,47.55 M 136.53,147.79 C 108.73,124.9 83.84,98.7 14.26,41.51 M 136.53,147.79 C 110.49,127.65 86.86,106.44 14.26,41.51 M 143.28,143.07 C 96.98,104.94 54.45,62.64 18.76,34.82 M 143.28,143.07 C 104.63,109.34 66.69,76.83 18.76,34.82 M 149.29,137.69 C 99.4,96.32 50.52,49.57 23.25,28.13 M 149.29,137.69 C 105.18,99.12 60.62,60.42 23.25,28.13 m 132.8,104.83 C 104.71,89.65 57.22,45.75 27.74,21.43 M 156.05,132.96 C 120.83,101.7 84.08,69.33 27.74,21.43 M 162.05,127.58 C 135.52,106.03 112.28,83.67 35.26,17.36 M 162.05,127.58 C 122.93,93.53 84.23,59.1 35.26,17.36 M 167.3,121.54 C 139.09,97.35 113.19,75.6 42.77,13.29 M 167.3,121.54 C 127.14,85.97 88.17,53.46 42.77,13.29 M 170.28,113.54 C 129.33,77.75 86.78,39.77 50.28,9.22 m 120,104.32 C 123.3,73.2 77.72,31.12 50.28,9.22 m 122.99,96.31 C 131.16,67.04 84.37,28.57 57.8,5.15 M 173.27,105.53 C 144.82,81.58 117.33,56.94 57.8,5.15 M 176.25,97.53 C 152.11,76.85 124.09,53.21 68.33,3.71 M 176.25,97.53 C 140.16,65.03 102.72,33.38 68.33,3.71 M 178.48,88.86 C 157.44,69.6 136.93,50.02 78.86,2.26 m 99.62,86.6 C 146.48,62.7 114.57,34.55 78.86,2.26 m 99.59,75.97 C 151.12,53.55 122.07,29.87 90.14,1.47 m 88.31,76.76 C 152.3,56.49 126.24,34.43 90.14,1.47 M 178.41,67.6 C 154.25,48.35 131.85,25.86 102.94,2 m 75.47,65.6 C 157.69,48.18 136.19,29.66 102.94,2 m 72.42,52.35 C 155.97,35.51 133.63,17.35 119.51,5.8 m 55.85,48.55 C 153.74,36.66 132.61,16.96 119.51,5.8"
         stroke="#ffec99"
         stroke-width="1"
         fill="none"
         id="path5-0-3" /><path
         d="m 131.61,8.88 c 10.87,3.84 21.59,13.82 29.28,22.4 7.69,8.58 14.09,18.75 16.88,29.07 2.79,10.32 1.96,21.98 -0.15,32.84 -2.11,10.87 -5.95,23.35 -12.51,32.33 -6.56,8.99 -16.51,15.82 -26.84,21.59 -10.34,5.78 -22.93,11.5 -35.17,13.08 -12.24,1.58 -26.39,-0.49 -38.27,-3.6 C 52.94,153.49 41.2,148.64 31.82,141.58 22.44,134.51 13.92,124.07 8.57,114.21 3.21,104.34 -0.1,93 -0.31,82.37 -0.53,71.74 2.61,60.54 7.28,50.44 11.95,40.35 18.95,29.49 27.7,21.8 36.44,14.11 48.3,7.79 59.76,4.32 71.21,0.85 82.21,-1.23 96.43,0.99 c 14.22,2.22 38.72,12.06 48.66,16.66 9.94,4.6 11.66,9.86 10.99,10.95 M 109.14,2.9 c 11.63,1.29 25.35,7.73 35.13,13.9 9.78,6.17 17.41,14.13 23.53,23.13 6.12,8.99 12.16,19.9 13.21,30.85 1.05,10.96 -2.7,24.41 -6.9,34.87 -4.2,10.47 -10.42,19.88 -18.28,27.92 -7.86,8.04 -18.06,16.06 -28.86,20.33 -10.79,4.27 -23.77,5.55 -35.91,5.29 C 78.92,158.93 65.5,156.91 54.14,152.36 42.78,147.81 31.21,139.75 22.89,131.9 14.57,124.05 7.94,115.53 4.22,105.24 0.51,94.96 -0.9,81.14 0.58,70.21 2.06,59.29 6.92,49.12 13.1,39.71 19.28,30.3 27.85,20.19 37.68,13.76 47.5,7.33 60.04,3.32 72.04,1.13 c 12,-2.19 31.81,-0.68 37.65,-0.49 5.84,0.18 -2.25,-0.08 -2.59,1.6"
         stroke="#1e1e1e"
         stroke-width="2"
         fill="none"
         id="path6-36-1" /></g><g
       stroke-linecap="round"
       transform="matrix(0.09801724,0,0,0.09801724,725.9375,237.14226)"
       id="g8-32-1"><path
         d="m 25.86,23.81 c 0,0 0,0 0,0 m 0,0 c 0,0 0,0 0,0 M 5,60 C 15.04,50.91 22.18,39.54 48.3,10.19 M 5,60 C 18.32,44.98 30.03,31.45 48.3,10.19 M 1.86,75.81 C 19.33,57.67 36.86,36 63.52,4.87 M 1.86,75.81 C 22.17,52.64 43.39,27.86 63.52,4.87 M 0.68,89.36 C 31.45,53.98 62.57,21.23 75.47,3.33 M 0.68,89.36 C 22.32,64.09 44.1,39.61 75.47,3.33 M 4.09,97.63 C 25.71,72.06 50.36,44.87 87.41,1.78 M 4.09,97.63 C 25.92,72.38 47.56,46.9 87.41,1.78 M 6.85,106.65 C 36.17,71.24 62.27,40.77 98.7,0.99 M 6.85,106.65 C 27.49,83.37 46.69,59.41 98.7,0.99 M 9.6,115.67 C 46.49,72.55 81.35,32.82 107.36,3.22 M 9.6,115.67 C 46.04,73.47 82.82,31.51 107.36,3.22 M 14.99,121.68 C 56.58,76.81 92.1,32.03 116.68,4.7 M 14.99,121.68 C 48.43,81.84 83.7,42.01 116.68,4.7 M 20.37,127.68 C 44.62,99.75 71.75,71.07 125.34,6.93 M 20.37,127.68 C 56.18,84.11 92.76,41.98 125.34,6.93 M 25.75,133.68 C 57.08,99.84 83.99,65.59 133.34,9.91 M 25.75,133.68 C 60.62,93.69 97.19,53.85 133.34,9.91 M 31.13,139.69 C 69.96,92.28 111.59,46.39 140.04,14.41 M 31.13,139.69 C 72.4,92.67 114.55,44.77 140.04,14.41 M 37.17,144.94 C 75.34,99.81 115.76,51 146.07,19.65 M 37.17,144.94 C 65.43,113.74 92.83,82.21 146.07,19.65 M 45.17,147.92 C 73.78,119.33 97.82,86.75 152.77,24.15 M 45.17,147.92 C 68.91,121.24 92.59,93.34 152.77,24.15 M 53.18,150.9 C 85.36,117.49 113.13,79.73 159.46,28.64 M 53.18,150.9 C 91.63,106.91 130.13,61.19 159.46,28.64 M 61.19,153.89 c 25.56,-27.08 53.41,-59.1 103,-118.49 m -103,118.49 c 37.8,-44.7 77,-90.8 103,-118.49 m -95,121.47 C 104.15,116.74 139.04,72.53 168.26,42.91 M 69.19,156.87 C 102.3,118.01 136.01,80.75 168.26,42.91 M 79.17,157.59 c 25.89,-32.4 57.5,-65.71 93.16,-107.16 M 79.17,157.59 c 28.48,-33.6 56.66,-65.23 93.16,-107.16 M 89.14,158.31 C 123.06,120.14 155.08,81.73 177.05,57.18 M 89.14,158.31 c 19.68,-22.68 40.59,-43.79 87.91,-101.13 M 99.11,159.03 C 119.1,137.9 137.17,113.41 178.5,67.71 M 99.11,159.03 C 129.1,125.26 160.25,90.47 178.5,67.71 m -68.1,90.53 C 138.08,124.57 164.7,95.83 179.29,79 M 110.4,158.24 C 129.52,134.78 150.59,110.8 179.29,79 m -53.67,73.93 c 13.37,-16.64 28.85,-32.53 53.8,-61.89 m -53.8,61.89 c 20.44,-23.11 41.18,-47.79 53.8,-61.89 m -34.64,52.04 c 10.01,-9.98 18.72,-21.29 26.24,-30.19 m -26.24,30.19 c 9.56,-12.72 20.36,-23.44 26.24,-30.19 M 34.41,143.33 c 0,0 0,0 0,0 m 0,0 c 0,0 0,0 0,0 m 22.6,9.05 C 40.39,139.86 24.98,127.18 13.24,114.33 m 43.77,38.05 C 41.56,139 26.04,125.14 13.24,114.33 m 57.33,39.23 C 49.3,134.47 28.48,113.32 7.92,99.11 m 62.65,54.45 C 44.76,131.91 20.24,110.36 7.92,99.11 m 76.2,55.63 C 54.83,129.25 22.02,101.52 1.1,82.57 m 83.02,72.17 C 55.26,129.95 25.93,106.37 1.1,82.57 m 96.57,73.35 C 60.98,124.39 24.01,92.5 3.33,73.91 m 94.34,82.01 C 74.23,137.29 52.28,119.22 3.33,73.91 M 108.2,154.47 C 80.91,131.17 53.74,106.37 4.8,64.59 m 103.4,89.88 C 76.76,128.52 44.04,99.49 4.8,64.59 m 112.42,87.12 C 79.74,119.8 45.21,87.51 7.03,55.93 m 110.19,95.78 C 79.17,117.37 40.98,85.19 7.03,55.93 M 125.49,148.3 C 82.74,113.6 42.25,77.09 10.02,47.92 M 125.49,148.3 C 91.52,116.66 56.27,87.28 10.02,47.92 m 124.49,97.62 C 102.44,116.96 68.89,89.5 14.51,41.23 m 120,104.31 C 106.34,122.23 80.25,100.31 14.51,41.23 M 143.53,142.79 C 117.02,119.78 89.66,99.75 19,34.54 M 143.53,142.79 C 107.36,112.75 72.65,80.54 19,34.54 M 149.53,137.4 C 116.6,109.31 82.49,77.69 23.5,27.84 M 149.53,137.4 C 107.24,99.43 64.81,62.27 23.5,27.84 M 155.54,132.02 C 124.36,107.57 96.57,79.15 27.99,21.15 M 155.54,132.02 C 118.62,99.94 82.6,66.66 27.99,21.15 M 161.54,126.64 C 112.96,85.41 62.53,41.37 35.5,17.08 M 161.54,126.64 C 128.84,99.17 97.37,70.56 35.5,17.08 M 168.3,121.92 C 130.55,88.95 89.48,53.41 42.26,12.35 M 168.3,121.92 C 142.06,97.93 114.42,75.98 42.26,12.35 M 171.28,113.91 C 126.76,74.85 85.9,38.87 49.77,8.28 M 171.28,113.91 C 136.15,83.63 100.75,52.31 49.77,8.28 m 124.5,97.62 C 137.36,73.09 97.34,41.82 57.29,4.21 M 174.27,105.9 C 148.66,82.31 121.39,60.14 57.29,4.21 M 178.01,98.55 C 135.85,61.21 91.62,24.86 68.57,3.43 M 178.01,98.55 C 149.22,73.9 121.62,50.68 68.57,3.43 M 180.99,90.55 C 155.02,66.8 128.52,44.42 79.1,1.98 M 180.99,90.55 C 158.49,71.55 137.79,54.18 79.1,1.98 M 180.2,79.26 C 145.57,49.53 107.36,17.1 89.64,0.54 M 180.2,79.26 C 150.98,53.67 119.16,25.99 89.64,0.54 m 90.53,68.09 C 153.54,45.67 126.65,21.98 97.9,-2.88 m 82.27,71.51 C 158.75,50.39 138.24,32.92 97.9,-2.88 m 80.72,59.57 C 164.84,42.58 151.6,32.82 113.72,0.27 m 64.9,56.42 C 154.03,34.82 129.63,14.29 113.72,0.27 m 52.04,34.64 C 154.05,22.91 140,14.97 132.55,6.04 m 33.21,28.87 C 158.17,28.33 152.19,22.28 132.55,6.04"
         stroke="#ffec99"
         stroke-width="1"
         fill="none"
         id="path7-06-9" /><path
         d="m 57.24,4.95 c 10.31,-4.96 25.32,-5.14 37.56,-4.69 12.24,0.45 24.93,2.45 35.87,7.39 10.94,4.95 21.98,13.78 29.79,22.26 7.8,8.48 13.91,18.21 17.04,28.63 3.12,10.43 3.62,23.03 1.71,33.93 -1.91,10.89 -6.47,22.27 -13.16,31.42 -6.69,9.15 -16.64,17.51 -26.99,23.48 -10.36,5.98 -23.24,10.79 -35.13,12.38 -11.89,1.59 -24.6,-0.07 -36.22,-2.85 C 56.08,154.13 43.75,149.76 34.17,143.13 24.6,136.5 16.04,126.88 10.24,117.12 4.44,107.36 0.01,95.52 -0.62,84.58 -1.26,73.63 2.03,61.54 6.42,51.44 10.82,41.34 17.02,31.68 25.73,23.97 34.43,16.25 52.5,8.2 58.68,5.16 64.85,2.12 62.29,4.44 62.77,5.73 m 63.42,1.5 c 11.43,3.04 24.43,11.48 32.48,19.49 8.05,8.02 12.56,18.08 15.82,28.63 3.27,10.55 4.71,23.77 3.77,34.66 -0.95,10.89 -3.73,21.4 -9.45,30.69 -5.73,9.29 -14.92,18.77 -24.89,25.05 -9.96,6.29 -22.9,10.48 -34.91,12.66 C 97,160.6 84.07,161.39 71.86,158.85 59.65,156.32 45.75,149.54 35.72,143.2 25.69,136.87 17.69,130.1 11.69,120.82 5.7,111.53 0.95,98.63 -0.23,87.5 -1.41,76.37 0.69,64.47 4.62,54.03 8.54,43.59 15.25,32.97 23.32,24.86 31.39,16.74 41.66,9.72 53.04,5.35 64.41,0.99 79.1,-1.67 91.59,-1.35 c 12.48,0.32 30.37,6.84 36.35,8.62 5.98,1.78 0.08,0.95 -0.48,2.07"
         stroke="#1e1e1e"
         stroke-width="2"
         fill="none"
         id="path8-1-0" /></g><g
       stroke-linecap="round"
       id="g17-2-4"
       transform="matrix(0.09801724,0,0,0.09801724,714.16485,174.74031)"><g
         transform="translate(209.51411,385.19203)"
         id="g14-547-7"><path
           d="M 0.81,0.86 C 53.69,3.23 264.19,10.91 316.96,13.18 M -0.23,0.26 c 52.71,2.58 263.2,11.31 316.03,13.92"
           stroke="#1e1e1e"
           stroke-width="2"
           fill="none"
           id="path13-4-4" /></g><g
         transform="translate(209.51411,385.19203)"
         id="g15-4-8"><path
           d="m 291.95,21.66 c 8.03,-2.88 11.42,-4.07 23.85,-7.48 m -23.85,7.48 c 8.13,-3.49 16.26,-5.51 23.85,-7.48"
           stroke="#1e1e1e"
           stroke-width="2"
           fill="none"
           id="path14-3-5" /></g><g
         transform="translate(209.51411,385.19203)"
         id="g16-07-8"><path
           d="m 292.72,4.58 c 7.67,1.8 10.85,5.29 23.08,9.6 m -23.08,-9.6 c 7.86,1.98 15.74,5.43 23.08,9.6"
           stroke="#1e1e1e"
           stroke-width="2"
           fill="none"
           id="path15-86-2" /></g></g><g
       transform="matrix(0.09782083,-0.00620185,0.00620185,0.09782083,744.11368,241.80223)"
       id="g18-4-6"
       style="stroke-linecap:round"><path
         d="m -0.9,0.31 c 52.85,-22.26 264.65,-111.78 317.46,-134.4 M 0.82,-0.57 c 52.75,-22.56 262.51,-112.97 314.86,-135.28"
         stroke="#1e1e1e"
         stroke-width="2"
         fill="none"
         id="path17-0" /></g><g
       transform="matrix(0.09799582,-0.00204895,0.00204895,0.09799582,743.71821,240.60531)"
       id="g19-3-6"
       style="stroke-linecap:round"><path
         d="m 297.46,-118.73 c 5.26,-4.04 10.54,-9.42 18.22,-17.12 m -18.22,17.12 c 4.89,-3.36 8.11,-9.18 18.22,-17.12"
         stroke="#1e1e1e"
         stroke-width="2"
         fill="none"
         id="path18-14-6" /></g><g
       transform="matrix(0.09791839,-0.00440085,0.00440085,0.09791839,743.95396,241.25432)"
       id="g20-9-4"
       style="stroke-linecap:round"><path
         d="m 290.72,-134.45 c 6.91,0.04 13.92,-1.32 24.96,-1.4 m -24.96,1.4 c 6.6,0.54 11.49,-1.39 24.96,-1.4"
         stroke="#1e1e1e"
         stroke-width="2"
         fill="none"
         id="path19-2-6" /></g><g
       stroke-linecap="round"
       id="g4-33-3-6"
       transform="matrix(0.18359568,-0.163822,0.16848359,0.17665722,810.60949,287.1143)"
       style="stroke:#ff6633;stroke-width:3.59026;stroke-dasharray:3.59026, 7.18053;stroke-dashoffset:10.7708;stroke-opacity:1"><g
         transform="translate(9.5665185,10.366864)"
         id="g3-65-0-0"
         style="stroke:#ff6633;stroke-width:3.59026;stroke-dasharray:3.59026, 7.18053;stroke-dashoffset:10.7708;stroke-opacity:1" /><path
         style="fill:#ff6633;fill-opacity:1;stroke:#ff6633;stroke-width:3.59026;stroke-linecap:round;stroke-dasharray:3.59026, 7.18053;stroke-dashoffset:10.7708;stroke-opacity:1;marker-end:url(#marker73_F-ff6633_S-ff6633-53)"
         d="m 89.717944,-252.67797 -52.9624,55.14878"
         id="path75-1-7" /></g><text
       xml:space="preserve"
       style="font-style:normal;font-variant:normal;font-weight:normal;font-stretch:normal;font-size:10.0215px;font-family:'Samyak Gujarati';-inkscape-font-specification:'Samyak Gujarati';text-align:center;letter-spacing:-0.0751612px;word-spacing:-0.505629px;text-anchor:middle;fill:#232323;stroke:none;stroke-width:0.732132;stroke-linecap:round"
       x="738.05469"
       y="181.2883"
       id="text44-1"><tspan
         sodipodi:role="line"
         id="tspan44-3"
         style="font-style:normal;font-variant:normal;font-weight:normal;font-stretch:normal;font-family:'Virgil 3 YOFF';-inkscape-font-specification:'Virgil 3 YOFF';stroke:none;stroke-width:0.732137"
         x="738.01709"
         y="181.2883">1</tspan></text><text
       xml:space="preserve"
       style="font-style:normal;font-variant:normal;font-weight:normal;font-stretch:normal;font-size:10.0215px;font-family:'Samyak Gujarati';-inkscape-font-specification:'Samyak Gujarati';text-align:center;letter-spacing:-0.0751612px;word-spacing:-0.505629px;text-anchor:middle;fill:#232323;stroke:none;stroke-width:0.732132;stroke-linecap:round"
       x="723.27222"
       y="212.97285"
       id="text44-8-7"><tspan
         sodipodi:role="line"
         id="tspan44-6-7"
         style="font-style:normal;font-variant:normal;font-weight:normal;font-stretch:normal;font-family:'Virgil 3 YOFF';-inkscape-font-specification:'Virgil 3 YOFF';stroke:none;stroke-width:0.732137"
         x="723.23462"
         y="212.97285">2</tspan></text><text
       xml:space="preserve"
       style="font-style:normal;font-variant:normal;font-weight:normal;font-stretch:normal;font-size:10.0215px;font-family:'Samyak Gujarati';-inkscape-font-specification:'Samyak Gujarati';text-align:center;letter-spacing:-0.0751612px;word-spacing:-0.505629px;text-anchor:middle;fill:#232323;stroke:none;stroke-width:0.732132;stroke-linecap:round"
       x="735.49854"
       y="247.75558"
       id="text44-8-8-2"><tspan
         sodipodi:role="line"
         id="tspan44-6-0-6"
         style="font-style:normal;font-variant:normal;font-weight:normal;font-stretch:normal;font-family:'Virgil 3 YOFF';-inkscape-font-specification:'Virgil 3 YOFF';stroke:none;stroke-width:0.732137"
         x="735.46094"
         y="247.75558">3</tspan></text><text
       xml:space="preserve"
       style="font-style:normal;font-variant:normal;font-weight:normal;font-stretch:normal;font-size:6.57387px;font-family:'Virgil 3 YOFF';-inkscape-font-specification:'Virgil 3 YOFF';text-align:center;letter-spacing:-0.0493045px;word-spacing:-0.331685px;text-anchor:middle;fill:#232323;stroke:none;stroke-width:0.480269;stroke-linecap:round"
       x="808.8396"
       y="169.84952"
       id="text46-0-2"
       transform="rotate(6.2079204)"
       inkscape:transform-center-x="-1.6236932"
       inkscape:transform-center-y="6.2568194"><tspan
         sodipodi:role="line"
         id="tspan45-8-0"
         style="fill:#ff6633;fill-opacity:1;stroke-width:0.480269"
         x="808.81494"
         y="169.84952">I(t)</tspan></text><!-- svg-source:excalidraw --><mask
       id="mask4" /><mask
       id="mask6" /><mask
       id="mask8" /><mask
       id="mask10" /><mask
       id="mask12" /><mask
       id="mask14" /><mask
       id="mask17" /><!-- svg-source:excalidraw --><mask
       id="mask4-9" /><mask
       id="mask6-8" /><mask
       id="mask8-7" /><mask
       id="mask10-2" /><mask
       id="mask12-8" /><mask
       id="mask16" /><!-- svg-source:excalidraw --><mask
       id="mask4-2" /><mask
       id="mask8-9" /><mask
       id="mask10-5" /><mask
       id="mask12-4" /><mask
       id="mask14-2" /><mask
       id="mask16-0" /><mask
       id="mask18" /><mask
       id="mask20" /><mask
       id="mask22" /><mask
       id="mask24" /><!-- svg-source:excalidraw --><mask
       id="mask2" /><mask
       id="mask4-1" /><mask
       id="mask6-4" /><mask
       id="mask10-50" /><mask
       id="mask14-7" /><!-- svg-source:excalidraw --><mask
       id="mask2-8" /><mask
       id="mask6-83" /><mask
       id="mask8-4" /><mask
       id="mask10-0" /><mask
       id="mask14-3" /><!-- svg-source:excalidraw --><mask
       id="mask2-0" /><mask
       id="mask6-9" /><mask
       id="mask8-3" /><mask
       id="mask10-9" /><mask
       id="mask12-2" /><mask
       id="mask14-9" /><mask
       id="mask16-3" /><mask
       id="mask18-8" /><mask
       id="mask20-7" /><mask
       id="mask22-3" /><mask
       id="mask24-2" /><mask
       id="mask26" /><mask
       id="mask28" /><mask
       id="mask32" /><!-- svg-source:excalidraw --><mask
       id="mask4-8" /><mask
       id="mask6-0" /><mask
       id="mask8-2" /><mask
       id="mask10-07" /><mask
       id="mask12-3" /><mask
       id="mask14-4" /><mask
       id="mask16-2" /><mask
       id="mask18-9" /><mask
       id="mask20-0" /><mask
       id="mask22-8" /><mask
       id="mask24-6" /><mask
       id="mask26-7" /><mask
       id="mask30" /><mask
       id="mask32-9" /><mask
       id="mask34" /><mask
       id="mask36" /><mask
       id="mask38" /><mask
       id="mask40" /><mask
       id="mask42" /><mask
       id="mask44" /><mask
       id="mask46" /><mask
       id="mask48" /><mask
       id="mask50" /><mask
       id="mask52" /><mask
       id="mask54" /><mask
       id="mask56" /><mask
       id="mask58" /><mask
       id="mask60" /><mask
       id="mask62" /><mask
       id="mask64" /><!-- svg-source:excalidraw --><mask
       id="mask4-7" /><mask
       id="mask6-43" /><!-- svg-source:excalidraw --><mask
       id="mask4-71" /><mask
       id="mask6-40" /><mask
       id="mask8-6" /><!-- svg-source:excalidraw --><mask
       id="mask4-6" /><mask
       id="mask6-49" /><mask
       id="mask8-0" /><mask
       id="mask10-1" /><mask
       id="mask12-5" /><mask
       id="mask14-38" /><mask
       id="mask16-03" /><!-- svg-source:excalidraw --><mask
       id="mask4-0" /><mask
       id="mask6-1" /><mask
       id="mask8-41" /><mask
       id="mask12-9" /><!-- svg-source:excalidraw --><mask
       id="mask4-91" /><mask
       id="mask6-03" /><mask
       id="mask10-7" /><!-- svg-source:excalidraw --><mask
       id="mask6-5" /><mask
       id="mask10-93" /><mask
       id="mask14-1" /><mask
       id="mask18-0" /><!-- svg-source:excalidraw --><mask
       id="mask10-3" /><mask
       id="mask14-21" /><mask
       id="mask18-89" /><mask
       id="mask22-82" /><!-- svg-source:excalidraw --><mask
       id="mask8-03" /><mask
       id="mask12-7" /><mask
       id="mask16-8" /><!-- svg-source:excalidraw --><mask
       id="mask4-3" /><mask
       id="mask8-75" /><mask
       id="mask10-8" /><mask
       id="mask12-1" /><!-- svg-source:excalidraw --><mask
       id="mask2-03" /><mask
       id="mask6-6" /><mask
       id="mask10-74" /><mask
       id="mask12-6" /><!-- svg-source:excalidraw --><mask
       id="mask-usAb6USveUPUEAwlPIBJt"><rect
         x="0"
         y="0"
         fill="#ffffff"
         width="1711.9503"
         height="621.24451"
         id="rect17" /><rect
         x="1330.1437"
         y="472.48776"
         fill="#000000"
         width="147.13672"
         height="96.599998"
         opacity="1"
         id="rect18" /></mask><mask
       id="mask-48NT3KkRuZYvAlyzlmfn9"><rect
         x="0"
         y="0"
         fill="#ffffff"
         width="2683.6455"
         height="333.90344"
         id="rect24" /><rect
         x="2136.5432"
         y="200.01263"
         fill="#000000"
         width="107.36523"
         height="64.400002"
         opacity="1"
         id="rect25" /></mask><mask
       id="mask-RAsrBMn-Ux8upF21-Sgrx"><rect
         x="0"
         y="0"
         fill="#ffffff"
         width="1019.9377"
         height="838.51709"
         id="rect30" /><rect
         x="792.75769"
         y="633.47052"
         fill="#000000"
         width="252.95703"
         height="32.200001"
         opacity="1"
         id="rect31" /></mask><mask
       id="mask-ra-xoXCpKcxtOTRvVpZKf"><rect
         x="0"
         y="0"
         fill="#ffffff"
         width="1854.0552"
         height="832.28046"
         id="rect37" /><rect
         x="1618.1378"
         y="331.60699"
         fill="#000000"
         width="270.74414"
         height="96.599998"
         opacity="1"
         id="rect38" /></mask><mask
       id="mask-aYc6c7S_giOqhHZvKzBND"><rect
         x="0"
         y="0"
         fill="#ffffff"
         width="1862.1145"
         height="845.59082"
         id="rect44" /><rect
         x="1632.4562"
         y="637.77448"
         fill="#000000"
         width="252.95703"
         height="32.200001"
         opacity="1"
         id="rect45" /></mask><mask
       id="mask-RLh_7sqDvKkhdQIvWQiRM"><rect
         x="0"
         y="0"
         fill="#ffffff"
         width="1705.3574"
         height="895.79462"
         id="rect49" /><rect
         x="1326.2188"
         y="747.21497"
         fill="#000000"
         width="147.13672"
         height="96.599998"
         opacity="1"
         id="rect50" /></mask><mask
       id="mask-aQYzC_jEexyN_K8Esby0q"><rect
         x="0"
         y="0"
         fill="#ffffff"
         width="1713.2278"
         height="1040.2041"
         id="rect63" /><rect
         x="1330.8972"
         y="887.21545"
         fill="#000000"
         width="147.13672"
         height="96.599998"
         opacity="1"
         id="rect64" /></mask><mask
       id="mask72" /><mask
       id="mask74" /><mask
       id="mask76" /><mask
       id="mask84" /><mask
       id="mask-Opjn_nAqVx-0vYVokcgFM"><rect
         x="0"
         y="0"
         fill="#ffffff"
         width="1711.4454"
         height="1179.0013"
         id="rect88" /><rect
         x="1334.8489"
         y="1029.1156"
         fill="#000000"
         width="147.13672"
         height="96.599998"
         opacity="1"
         id="rect89" /></mask><mask
       id="mask-0LcETKpT9Yob1w4B1-8jD"><rect
         x="0"
         y="0"
         fill="#ffffff"
         width="1709.3024"
         height="1354.9363"
         id="rect95" /><rect
         x="1327.8109"
         y="1198.2921"
         fill="#000000"
         width="154.91602"
         height="96.599998"
         opacity="1"
         id="rect96" /></mask><mask
       id="mask101" /><mask
       id="mask103" /><!-- svg-source:excalidraw --><mask
       id="mask2-1" /><mask
       id="mask4-03" /><mask
       id="mask6-3" /><mask
       id="mask8-40" /><mask
       id="mask10-56" /><!-- svg-source:excalidraw --><!-- svg-source:excalidraw --><mask
       id="mask4-73" /><mask
       id="mask6-87" /><!-- svg-source:excalidraw --><mask
       id="mask30-1" /><mask
       id="mask34-1" /><mask
       id="mask38-8" /><mask
       id="mask42-6" /><mask
       id="mask46-9" /><mask
       id="mask50-3" /><mask
       id="mask54-5" /><mask
       id="mask58-2" /><mask
       id="mask62-6" /><mask
       id="mask66" /><mask
       id="mask70" /><mask
       id="mask74-5" /><mask
       id="mask77" /><mask
       id="mask84-0" /><mask
       id="mask88" /><!-- svg-source:excalidraw --><mask
       id="mask30-6" /><mask
       id="mask34-9" /><mask
       id="mask38-6" /><mask
       id="mask42-4" /><mask
       id="mask46-96" /><mask
       id="mask50-9" /><mask
       id="mask54-3" /><mask
       id="mask58-1" /><mask
       id="mask62-9" /><mask
       id="mask66-2" /><mask
       id="mask70-6" /><mask
       id="mask74-2" /><mask
       id="mask77-0" /><mask
       id="mask84-2" /><mask
       id="mask88-1" /></g></svg>
