<?xml version="1.0" encoding="UTF-8" standalone="no"?>
<!-- Created with Inkscape (http://www.inkscape.org/) -->

<svg
   width="76.947006mm"
   height="80.925255mm"
   viewBox="0 0 76.947006 80.925255"
   version="1.1"
   id="svg1"
   xml:space="preserve"
   xmlns:inkscape="http://www.inkscape.org/namespaces/inkscape"
   xmlns:sodipodi="http://sodipodi.sourceforge.net/DTD/sodipodi-0.dtd"
   xmlns="http://www.w3.org/2000/svg"
   xmlns:svg="http://www.w3.org/2000/svg"><sodipodi:namedview
     id="namedview1"
     pagecolor="#ffffff"
     bordercolor="#000000"
     borderopacity="0.25"
     inkscape:showpageshadow="2"
     inkscape:pageopacity="0.0"
     inkscape:pagecheckerboard="true"
     inkscape:deskcolor="#d1d1d1"
     inkscape:document-units="mm" /><defs
     id="defs1" /><g
     inkscape:label="Layer 1"
     inkscape:groupmode="layer"
     id="layer1"
     transform="translate(-11.95828,-81.910024)"><path
       style="fill:#ffffff;fill-opacity:1;stroke:#ffffff;stroke-width:0.5;stroke-dasharray:none;stroke-opacity:0.406072"
       d="m 49.420569,162.43926 c -1.87073,-0.37549 -3.39246,-1.2541 -4.75326,-2.74443 -0.80893,-0.88593 -1.48104,-2.12661 -6.35645,-11.73365 -2.99853,-5.90864 -5.53625,-11.08279 -5.63938,-11.49811 -0.26986,-1.08686 -0.10619,-2.61622 0.38811,-3.62653 0.49394,-1.00958 1.71047,-2.19251 2.73231,-2.65685 1.04769,-0.47608 3.108,-0.47552 4.15703,0.001 0.98097,0.44573 1.79255,1.07701 2.24992,1.75009 l 0.37154,0.54677 0.0461,-11.38142 0.0461,-11.38142 0.36207,-0.89608 c 0.97014,-2.40104 3.62545,-3.90341 6.06035,-3.42894 1.7517,0.34134 3.07579,1.31272 3.90419,2.86419 0.35596,0.66667 0.36099,0.75247 0.40651,6.93304 0.0354,4.81161 0.0899,6.23953 0.23575,6.178 2.31376,-0.97639 4.49771,-0.61444 6.08687,1.00879 0.39097,0.39936 0.84045,1.01349 0.99884,1.36472 l 0.28797,0.6386 0.72994,-0.33665 c 1.12832,-0.52039 3.25159,-0.48228 4.45078,0.0799 1.20909,0.5668 2.22523,1.5432 2.79719,2.68779 0.26163,0.52356 0.47569,1.04274 0.47569,1.15373 0,0.14445 0.21218,0.10425 0.74652,-0.14144 0.58075,-0.26702 1.04388,-0.34358 2.0857,-0.34477 1.19577,-10e-4 1.45062,0.0533 2.37981,0.51076 1.2111,0.59623 2.04227,1.44823 2.62483,2.69066 0.41104,0.87664 0.41449,0.91512 0.46039,5.13589 0.0449,4.12876 0.0366,4.26495 -0.28644,4.67557 -0.46712,0.59386 -1.40642,0.5983 -1.87009,0.009 -0.30854,-0.39225 -0.32573,-0.60896 -0.32573,-4.10727 0,-4.16547 -0.089,-4.68298 -0.95355,-5.54758 -1.39085,-1.39086 -3.61595,-1.03461 -4.40625,0.70545 -0.24544,0.54041 -0.29167,1.05079 -0.29458,3.25228 -0.003,2.40085 -0.0297,2.64464 -0.32918,3.02537 -0.43103,0.54796 -1.35136,0.57809 -1.83792,0.0602 -0.31994,-0.34056 -0.33433,-0.52308 -0.38102,-4.83274 -0.0465,-4.28992 -0.0634,-4.50659 -0.40067,-5.13764 -1.13774,-2.1285 -4.17729,-2.30864 -5.12858,-0.30395 -0.20292,0.42763 -0.25567,1.05603 -0.25567,3.04548 0,2.60208 -0.13688,3.39053 -0.63485,3.65704 -0.45911,0.24571 -1.1855,0.17875 -1.5873,-0.14632 -0.37017,-0.29948 -0.37121,-0.31036 -0.44961,-4.67558 -0.0746,-4.15095 -0.0962,-4.40362 -0.42134,-4.92547 -0.87051,-1.39701 -2.81235,-1.61225 -3.92657,-0.43523 -0.77841,0.82229 -0.83844,1.0561 -0.83844,3.26591 v 2.06553 l -0.4594,0.45939 c -0.56188,0.56188 -1.1029,0.5875 -1.69282,0.0802 l -0.44096,-0.37922 -0.0438,-10.0934 c -0.0429,-9.8966 -0.0501,-10.10224 -0.36685,-10.5471 -0.45347,-0.63684 -1.39231,-1.07523 -2.30267,-1.07523 -1.03826,0 -2.06919,0.65363 -2.52898,1.60341 -0.33667,0.69548 -0.33697,0.70839 -0.33697,14.48455 0,14.63454 0.007,14.49874 -0.71427,14.77535 -0.51771,0.19866 -1.12276,0.0912 -1.4417,-0.25599 -0.17865,-0.19449 -0.94955,-1.47389 -1.71313,-2.84311 -1.21253,-2.1743 -1.47339,-2.53937 -2.06027,-2.8833 -0.78395,-0.45943 -1.95335,-0.52151 -2.68608,-0.1426 -1.12457,0.58154 -1.79074,1.9922 -1.4792,3.13229 0.0983,0.35988 2.56392,5.34609 5.47906,11.08046 5.73722,11.28572 5.87183,11.50628 7.57714,12.4152 1.44004,0.76753 2.54903,0.85285 10.0454,0.77285 6.0947,-0.065 6.64887,-0.094 7.81703,-0.40843 5.14722,-1.38551 8.65105,-5.57092 9.11507,-10.88819 0.12118,-1.38872 0.2927,-1.78651 0.87415,-2.02735 0.51944,-0.21516 0.98517,-0.0962 1.41035,0.36014 0.40701,0.43687 0.4111,1.87941 0.0109,3.81874 -1.00406,4.86488 -4.62793,9.07955 -9.24251,10.7493 -2.43141,0.87978 -3.27891,0.95089 -11.10745,0.93187 -3.90005,-0.009 -7.37389,-0.074 -7.71964,-0.1434 z m 26.79614,-17.08261 c -1.11866,-0.40147 -1.2906,-1.8186 -0.28381,-2.33923 0.91518,-0.47326 1.85543,0.0961 1.85543,1.12349 0,0.73748 -0.9204,1.44946 -1.57162,1.21574 z M 18.533765,132.12977 c -1.492802,-0.47779 -2.753293,-1.25632 -3.81555,-2.35663 -1.678235,-1.73834 -2.518425,-3.80074 -2.50987,-6.1609 0.0089,-2.45877 0.851384,-4.45345 2.619148,-6.20124 1.830846,-1.81016 3.705955,-2.59003 6.219036,-2.58653 2.38651,0.003 4.37218,0.79347 6.11198,2.43213 l 1.04517,0.98441 0.55007,-0.29927 c 0.33437,-0.18192 0.70413,-0.26436 0.94297,-0.21025 0.52507,0.11897 1.10013,0.78636 1.10013,1.27676 0,0.37837 -0.54676,1.04363 -1.14538,1.39361 -0.24784,0.14489 -0.25057,0.22463 -0.0351,1.02155 0.29773,1.10098 0.30052,3.28525 0.006,4.39341 -0.80751,3.03437 -3.34259,5.5978 -6.29689,6.36729 -1.26543,0.32961 -3.677231,0.30225 -4.791354,-0.0543 z m 5.094794,-2.81703 c 1.42426,-0.66649 2.34099,-1.56724 3.04519,-2.99209 0.55465,-1.12225 0.58696,-1.27071 0.58696,-2.69697 0,-1.42895 -0.0316,-1.57324 -0.59287,-2.70893 -0.70018,-1.41671 -1.60372,-2.29394 -3.10044,-3.01014 -0.92162,-0.44101 -1.16762,-0.48883 -2.5146,-0.48883 -1.347633,0 -1.594411,0.048 -2.53398,0.4932 -4.461133,2.11372 -5.070409,7.79872 -1.15557,10.78234 1.734554,1.32195 4.23774,1.57023 6.26531,0.62142 z m 55.14608,-6.08376 c -1.49781,-0.32546 -3.03751,-1.21325 -4.13051,-2.38167 -1.0538,-1.12652 -1.58841,-2.07042 -1.98927,-3.51224 -0.14894,-0.53572 -0.34554,-1.00137 -0.43688,-1.03478 -0.26003,-0.0951 -13.97798,-2.88658 -13.99568,-2.84798 -0.59945,1.30727 -1.23437,2.47149 -1.45847,2.67429 -0.16038,0.14514 -0.51397,0.30836 -0.78576,0.36272 -0.41202,0.0824 -0.57359,0.0194 -0.97195,-0.37895 -0.60026,-0.60025 -0.60093,-1.02322 -0.003,-1.91642 1.01517,-1.51657 1.44918,-3.99659 1.03913,-5.93778 -0.6354,-3.00802 -2.69984,-5.36415 -5.55826,-6.34359 -1.49949,-0.5138 -3.77054,-0.5138 -5.27003,0 -2.86795,0.98271 -4.92256,3.31755 -5.55199,6.30921 -0.41345,1.96515 -0.0615,3.97285 1.03787,5.92087 0.5868,1.03975 0.58855,1.37112 0.0104,1.94933 -0.57049,0.57049 -1.09524,0.58564 -1.73181,0.05 -0.47268,-0.39773 -0.50167,-0.40221 -1.01807,-0.15716 -0.67035,0.3181 -1.02707,0.31825 -1.48054,6.3e-4 -0.86862,-0.60841 -0.71442,-1.75095 0.30662,-2.27184 0.33622,-0.17153 0.6113,-0.3635 0.6113,-0.4266 0,-0.0631 -0.10485,-0.60977 -0.23301,-1.21481 -0.48448,-2.28727 -0.2038,-4.73287 0.78124,-6.80709 l 0.55008,-1.15832 -3.24263,-3.35671 -3.24264,-3.356701 -0.60213,0.307183 c -1.51716,0.774 -3.7577,0.987632 -5.53964,0.528197 -2.7528,-0.709753 -5.001173,-2.915548 -5.82269,-5.71242 -0.327105,-1.113636 -0.325842,-3.315296 0.0025,-4.42207 0.984433,-3.317949 3.851583,-5.645836 7.279273,-5.910161 2.85848,-0.220429 5.58539,1.079746 7.25706,3.460115 1.01845,1.450212 1.46711,2.875644 1.46711,4.661081 0,1.968286 -0.4819,3.343199 -1.82699,5.212637 -0.16244,0.225753 0.22134,0.682671 2.77211,3.300404 1.62836,1.671105 3.01308,3.059275 3.07716,3.084825 0.0641,0.0256 0.5761,-0.30141 1.13783,-0.72658 2.15206,-1.62889 4.34867,-2.307113 7.09831,-2.191672 2.80157,0.11762 4.97382,1.017892 7.0143,2.907012 l 0.93438,0.86508 4.43873,-3.577267 c 2.73156,-2.201422 4.42957,-3.674137 4.41492,-3.829131 -0.0131,-0.138525 -0.21843,-0.711562 -0.4563,-1.273417 -0.51765,-1.222728 -0.69496,-3.454108 -0.39085,-4.918959 0.44471,-2.142157 2.21641,-4.64422 4.04907,-5.718226 3.59424,-2.106367 8.02042,-1.556863 10.8879,1.351716 1.74618,1.771213 2.57342,3.770925 2.57342,6.220808 0,3.431975 -1.88139,6.438609 -4.95094,7.912079 -2.0993,1.007722 -3.87616,1.204287 -5.9928,0.662939 -1.37797,-0.352427 -2.13105,-0.709353 -3.17015,-1.502515 -0.49265,-0.376051 -0.80565,-0.51917 -0.92736,-0.424042 -0.10105,0.07897 -2.18642,1.752148 -4.63416,3.718165 -3.49672,2.80854 -4.42581,3.63004 -4.3355,3.83342 0.58707,1.32216 0.89294,2.60838 0.96853,4.07275 0.0763,1.47845 0.11102,1.61977 0.4142,1.68708 0.182,0.0404 2.06362,0.42554 4.18138,0.85587 2.11776,0.43034 5.04011,1.02526 6.4941,1.32206 1.85148,0.37794 2.66018,0.48564 2.69885,0.35943 0.44397,-1.44889 0.67426,-1.97902 1.20475,-2.77344 2.85691,-4.27826 8.90424,-4.87584 12.54083,-1.23924 0.97091,0.97091 1.89033,2.57068 2.20259,3.83246 0.28884,1.16714 0.22157,3.15297 -0.14726,4.34708 -0.87785,2.84216 -3.52648,5.14761 -6.4608,5.62371 -1.27783,0.20733 -1.86793,0.19369 -3.08783,-0.0714 z m 4.32079,-3.05508 c 1.17494,-0.62751 1.97354,-1.46709 2.50997,-2.63881 1.41923,-3.10002 -0.30163,-6.72466 -3.64312,-7.6735 -2.53349,-0.7194 -5.3607,0.60374 -6.50464,3.04418 -0.36275,0.77389 -0.41955,1.09772 -0.41889,2.38832 6.6e-4,1.31611 0.0508,1.58816 0.42349,2.29573 1.18168,2.24381 2.87138,3.24869 5.31217,3.15921 1.16193,-0.0426 1.46415,-0.11749 2.32102,-0.57513 z m -7.4387,-23.511707 c 1.28494,-0.638022 2.35203,-1.723158 2.9631,-3.013213 0.46311,-0.977706 0.50438,-1.193385 0.50438,-2.636436 0,-1.443052 -0.0413,-1.658731 -0.50438,-2.636436 -1.9325,-4.079788 -7.22495,-4.865542 -10.31213,-1.531012 -2.22177,2.399777 -2.20634,5.993209 0.036,8.384698 0.7582,0.808627 1.3049,1.186832 2.35541,1.629464 0.76876,0.323915 1.08198,0.364622 2.45291,0.318784 1.36309,-0.04558 1.69543,-0.114023 2.50469,-0.515849 z m -45.39017,-1.313871 c 1.18293,-0.55356 2.16912,-1.528959 2.71529,-2.685576 0.35016,-0.741527 0.40818,-1.076612 0.40818,-2.357432 0,-1.316366 -0.052,-1.598859 -0.43915,-2.387306 -0.57072,-1.162191 -1.87293,-2.356965 -3.04817,-2.796679 -2.7296,-1.021272 -5.70491,0.166652 -6.99845,2.794202 -0.4607,0.935814 -0.5155,1.189848 -0.51485,2.386479 6.2e-4,1.142116 0.0672,1.483364 0.45255,2.31898 0.71847,1.558034 2.30117,2.84415 3.9227,3.187617 1.05538,0.223546 2.42539,0.04347 3.5019,-0.460285 z m 2.01619,22.546088 c -1.14757,-1.14758 0.56455,-2.85827 1.83282,-1.83129 0.5195,0.42067 0.5195,1.49883 0,1.9195 -0.52578,0.42575 -1.35896,0.38565 -1.83282,-0.0882 z"
       id="path1" /></g></svg>
