<?xml version="1.0" encoding="UTF-8" standalone="no"?>
<!-- Created with Inkscape (http://www.inkscape.org/) -->

<svg
   version="1.1"
   id="svg4220"
   width="256"
   height="256"
   viewBox="0 0 256 256"
   sodipodi:docname="math_orange128.svg"
   inkscape:version="1.2 (1:1.2.1+202207142221+cd75a1ee6d)"
   xmlns:inkscape="http://www.inkscape.org/namespaces/inkscape"
   xmlns:sodipodi="http://sodipodi.sourceforge.net/DTD/sodipodi-0.dtd"
   xmlns="http://www.w3.org/2000/svg"
   xmlns:svg="http://www.w3.org/2000/svg">
  <defs
     id="defs4224" />
  <sodipodi:namedview
     id="namedview4222"
     pagecolor="#ffffff"
     bordercolor="#666666"
     borderopacity="1.0"
     inkscape:showpageshadow="2"
     inkscape:pageopacity="0.0"
     inkscape:pagecheckerboard="0"
     inkscape:deskcolor="#d1d1d1"
     showgrid="false"
     inkscape:zoom="3.3203125"
     inkscape:cx="77.703529"
     inkscape:cy="128.15059"
     inkscape:window-width="1848"
     inkscape:window-height="1016"
     inkscape:window-x="72"
     inkscape:window-y="27"
     inkscape:window-maximized="1"
     inkscape:current-layer="g4226" />
  <g
     inkscape:groupmode="layer"
     inkscape:label="Image"
     id="g4226">
    <g
       id="g4452"
       transform="translate(0.341028,3.7765625)">
      <path
         style="fill:#fed9cc;stroke-width:2"
         d="m 86.5,246.66666 c -5.216338,-2.08652 -1.998164,-9.76956 13.55192,-32.3537 L 116.10384,191 58.03156,190.46976 -0.04071962,189.93952 0.47964018,99.469758 1,9 h 127 127 l 0.52036,90.469758 0.52036,90.469762 -58.07228,0.53024 L 139.89616,191 155.94808,214.31296 C 164.77664,227.1351 172,239.41382 172,241.599 c 0,4.05096 -4.93981,7.2923 -8.11903,5.32744 -0.96693,-0.5976 -9.13021,-11.87736 -18.14061,-25.06612 -9.01041,-13.18878 -17.13494,-23.72775 -18.05451,-23.41995 -0.91957,0.3078 -9.10008,11.29503 -18.1789,24.41609 C 93.03038,246.66902 91.211592,248.5513 86.5,246.66666 Z M 244,110 V 42 H 128 12 v 68 68 H 128 244 Z M 96.105162,162.5 c -1.14557,-4.125 -2.087874,-8.57325 -2.094008,-9.885 -0.0064,-1.37373 -3.615294,-2.64578 -8.511154,-3 C 77.930666,149.06734 77,148.45255 77,144 c 0,-4.82051 0.466666,-5 13,-5 h 13 l 3.15874,-11 3.15874,-11 24.48015,-0.56267 24.48015,-0.56268 -0.63889,5.56268 L 157,127 l -19.05977,0.56711 -19.05977,0.56712 -4.7321,18.43288 C 108.94537,166.83422 107.28375,170 101.84912,170 c -2.52699,0 -4.306318,-2.3233 -5.743958,-7.5 z M 122,159.4 c 0,-2.53 1.08,-5.68 2.4,-7 1.86667,-1.86667 1.86667,-2.93333 0,-4.8 -3.40111,-3.40111 -2.97762,-11.50389 0.67449,-12.90533 1.69097,-0.64889 4.84097,0.41885 7,2.37274 3.7607,3.40339 4.09032,3.40339 7.85102,0 7.32709,-6.63092 15.638,1.67999 9.00708,9.00708 -3.40339,3.7607 -3.40339,4.09032 0,7.85102 1.95389,2.15903 3.02163,5.30903 2.37274,7 -1.40144,3.65211 -9.50422,4.0756 -12.90533,0.67449 -1.86667,-1.86667 -2.93333,-1.86667 -4.8,0 -1.32,1.32 -4.47,2.4 -7,2.4 -3.46667,0 -4.6,-1.13333 -4.6,-4.6 z m 46.71348,1.57453 C 166.25993,154.58068 171.82927,152 188.08131,152 206.92872,152 210,153.01083 210,159.21398 210,163.94394 209.76498,164 189.93723,164 c -16.06366,0 -20.29419,-0.60307 -21.22375,-3.02547 z m 46.427,-0.32961 c -0.7081,-1.8453 -0.0642,-4.57837 1.43094,-6.07349 3.82374,-3.82374 9.42858,-1.06397 9.42858,4.64255 0,3.71469 -1.07132,4.78602 -4.78602,4.78602 -2.63438,0 -5.36482,-1.50834 -6.0735,-3.35508 z m -37.80715,-27.97825 c -3.0079,-3.00791 -0.90061,-7.95617 6.67589,-15.67607 l 8.00922,-8.1608 -8.00922,-7.8208 C 179.25789,96.369456 176,91.319476 176,88.594104 176,84.045862 176.25072,84 201.115,84 h 25.115 l -0.615,8.482746 c -0.46904,6.469542 -1.51816,8.654274 -4.4205,9.205484 -2.09302,0.3975 -4.61274,-0.71973 -5.59938,-2.482748 C 214.40026,97.070394 211.03806,96 205.52644,96 h -8.2748 l 5.59266,5.83748 c 5.86394,6.12063 5.71788,7.65542 -1.49046,15.66252 l -4.0511,4.5 h 8.24926 c 5.48818,0 8.84966,-1.07289 10.04312,-3.20548 0.98664,-1.76302 3.50636,-2.88025 5.59938,-2.48275 2.90234,0.55121 3.95146,2.73594 4.4205,9.20548 L 226.23,134 h -23.78168 c -13.07991,0 -24.38165,-0.6 -25.11499,-1.33333 z M 30.702574,102.94611 C 30.058036,101.26647 31.9631,96.382248 34.936052,92.092278 37.909002,87.80231 40.82367,80.696864 41.41309,76.3024 42.433518,68.694544 42.210166,68.281086 36.742382,67.656234 32.125504,67.128622 31,66.020004 31,62 V 57 L 57.264376,56.44359 C 80.180978,55.958104 83.690648,56.309076 84.798882,59.197086 86.39715,63.362104 82.686074,68 77.75511,68 c -3.329506,0 -3.72424,1.530092 -3.482746,13.5 0.1498,7.425 0.652424,11.551096 1.116942,9.169102 C 77.119552,81.796608 88,83.63503 88,92.799876 88,100.69092 82.484474,106 74.286592,106 63.426136,106 62,103.51605 62,84.6 62,69.333334 61.678714,68 58,68 c -3.223656,0 -4,1.333334 -4,6.8698 0,13.482054 -9.940354,31.0937 -17.56277,31.11653 -2.509522,0.008 -5.090118,-1.36058 -5.734656,-3.04022 z m 66.607402,-0.60359 c -4.139842,-4.574474 -4.175894,-7.134092 -0.14758,-10.477302 2.556676,-2.121852 3.934764,-2.142216 7.194754,-0.10632 4.95927,3.097116 5.51484,2.579622 6.99006,-6.511098 C 112.30388,79.352544 111.90298,78 109.19892,78 c -5.3884,0 -6.18301,-5.908606 -1.43472,-10.6683 2.37672,-2.382436 6.1674,-6.8067 8.42372,-9.8317 C 123.25072,48.031056 140,51.340966 140,62.205626 c 0,5.150988 -5.44999,7.088346 -10.76493,3.826708 -4.10224,-2.517438 -4.1253,-2.475352 -0.73507,1.34184 1.925,2.167434 3.50702,4.769922 3.5156,5.783308 0.023,2.712996 9.77412,6.800796 11.10109,4.653712 1.86943,-3.024806 8.9268,-2.025018 10.26172,1.453738 0.68908,1.795712 0.22926,4.903988 -1.02181,6.907278 -1.44778,2.31826 -1.56252,4.082488 -0.31564,4.853104 3.14447,1.94339 2.25612,8.986226 -1.30589,10.353096 -1.79571,0.68908 -4.90399,0.22926 -6.90728,-1.02181 -2.31826,-1.447778 -4.08249,-1.562522 -4.8531,-0.31564 -1.83159,2.96357 -8.95194,2.34548 -10.19147,-0.884678 -0.60018,-1.564046 -0.1195,-4.659426 1.06818,-6.878624 1.42777,-2.667802 1.47995,-4.45484 0.154,-5.274316 C 128.90243,86.321666 128,84.017048 128,81.881966 c 0,-7.66255 -3.50082,-3.695414 -4.49097,5.089178 C 121.98975,100.45015 117.54343,106 108.26387,106 c -4.86532,0 -8.84711,-1.32951 -10.953894,-3.65748 z M 244,25 V 20 H 128 12 v 5 5 h 116 116 z"
         id="path4460" />
      <path
         style="fill:#feb299;stroke-width:2"
         d="M 86.24371,245.44372 C 85.00967,244.20966 84,242.17482 84,240.92184 c 0,-1.25298 7.2,-12.75212 16,-25.55364 8.8,-12.8015 16,-23.73253 16,-24.29116 0,-0.55864 -25.875,-1.2545 -57.5,-1.54637 L 1,189 0.47893138,100.13106 C 0.06985554,30.362628 0.49971364,10.918131 2.4789314,9.6616806 c 3.2944186,-2.091369 247.7477086,-2.091369 251.0421286,0 1.97922,1.2564504 2.40908,20.7009474 2,90.4693794 L 255,189 l -57.5,0.53067 c -31.625,0.29187 -57.5,0.98773 -57.5,1.54637 0,0.55863 7.2,11.48966 16,24.29116 8.8,12.80152 16,24.37046 16,25.70876 0,1.33828 -1.28978,3.50368 -2.86618,4.81198 -3.83619,3.18376 -6.49008,0.2842 -25.13382,-27.46046 -8.25,-12.27722 -15.45,-22.32557 -16,-22.32964 -0.55,-0.004 -8.5734,11.18268 -17.82978,24.85944 -9.25638,13.67678 -17.921706,25.28588 -19.256288,25.798 -1.334582,0.51212 -3.436182,-0.0786 -4.670222,-1.31256 z M 244,110 V 42 H 128 12 v 68 68 H 128 244 Z M 98.50567,167.5 c -1.09126,-1.375 -2.582822,-5.82478 -3.314582,-9.88841 -1.261428,-7.00499 -1.767956,-7.42015 -9.76078,-8 C 77.934404,149.06779 77,148.44581 77,144 c 0,-4.83252 0.445888,-5 13.311686,-5 h 13.311684 l 3.19671,-11.5 3.19671,-11.5 h 23.05438 c 18.73405,0 23.27193,0.56696 24.21535,3.02547 2.53233,6.59914 -3.0646,8.97453 -21.14588,8.97453 h -17.36958 l -3.66883,14.5 c -6.53318,25.8205 -10.82023,32.27824 -16.59656,25 z m 24.82766,-4.83333 c -2.34996,-2.34997 -1.42824,-8.09812 1.71713,-10.70855 2.73394,-2.26897 2.73394,-2.88139 0,-5.90237 -6.60876,-7.30259 -1.25967,-14.3806 6.67029,-8.82624 3.69002,2.58459 4.74543,2.55725 9.00433,-0.23329 4.41978,-2.89595 5.10413,-2.88129 8.1602,0.17478 3.11444,3.11444 3.07303,3.61766 -0.62404,7.58241 -3.8789,4.15975 -3.88321,4.34061 -0.21083,8.84432 6.74618,8.27335 -0.40783,14.31871 -8.39293,7.09229 -3.40332,-3.07996 -3.91164,-3.07996 -7.31496,0 -3.88183,3.51301 -6.82671,4.15913 -9.00919,1.97665 z m 45.7718,-2.11391 C 166.85774,154.69616 173.48791,152 190.13737,152 c 16.02769,0 21.59225,2.60792 19.14915,8.97453 -0.92268,2.40448 -5.02974,3.02547 -20.00977,3.02547 -15.99635,0 -19.04898,-0.52168 -20.17162,-3.44724 z m 46.19383,0.50512 c -0.62096,-1.61817 0.31132,-4.38246 2.07174,-6.14286 2.83928,-2.83928 3.53814,-2.86333 6.1885,-0.21296 1.64328,1.64328 2.44296,4.40756 1.77706,6.14286 -1.52688,3.979 -8.53508,4.1277 -10.0373,0.21296 z M 177.3934,132.72673 c -3.10261,-3.10261 -0.97023,-8.0065 7.02302,-16.15103 L 192.83283,108 184.14553,99.148288 C 170.7363,85.485278 172.77968,83.74919 201.46172,84.436198 L 225,85 l 0.62168,7.516074 c 0.72672,8.785696 -3.62236,11.913236 -9.35366,6.726488 C 214.29738,97.459154 209.3009,96 205.16474,96 h -7.52031 l 5.29099,6.28799 5.291,6.28798 -6.50554,6.71202 L 195.21533,122 h 8.73485 c 5.24808,0 10.16512,-1.29437 12.31784,-3.24256 5.7313,-5.18675 10.08038,-2.05921 9.35366,6.72649 L 225,133 l -23.1066,0.56007 c -12.70863,0.30803 -23.73363,-0.067 -24.5,-0.83334 z M 30.694668,102.92551 c -0.648886,-1.69097 0.17082,-4.61597 1.821592,-6.5 C 37.691828,90.518582 42,80.436828 42,74.232164 42,69.210032 41.129488,68.165526 36.5,67.632844 32.135426,67.130646 31,65.967796 31,62 v -5 l 25.207332,-0.557568 c 20.65845,-0.456952 25.665258,-0.0058 27.74489,2.5 C 87.111414,62.749024 83.51874,68 77.75511,68 c -3.3182,0 -3.736738,1.570736 -3.597216,13.5 0.08684,7.425 0.657688,12.15 1.268546,10.5 2.334434,-6.305588 4.850848,-7.992334 8.78357,-5.887606 C 92.967378,90.799194 86.078082,106 75.196568,106 64.790862,106 62,101.20831 62,83.342518 62,69.333334 61.652382,68 58,68 54.935418,68 54,69.333334 54,73.701554 54,91.98496 35.431402,115.26924 30.694668,102.92551 Z m 66.04282,-2.04546 c -3.00893,-4.592214 -3.0398,-5.43488 -0.299488,-8.175192 2.595316,-2.595318 3.7047,-2.652528 7.36964,-0.380046 3.66565,2.272918 4.60137,2.224076 6.22276,-0.324812 3.10569,-4.882276 2.39375,-14 -1.09317,-14 -5.60623,0 -5.61507,-5.977512 -0.0176,-11.91959 2.97756,-3.160892 7.13874,-7.622076 9.24708,-9.913744 C 125.26085,48.455598 140,52.879762 140,62.72025 c 0,4.272194 -5.5161,6.563652 -8.53443,3.545316 -1.24607,-1.246062 -3.66057,-2.245554 -5.36557,-2.221094 -2.20293,0.0316 -1.70746,1.11506 1.71218,3.744082 C 132.86101,71.670096 132.56497,78 127.33462,78 c -1.80871,0 -3.24372,3.303508 -4.07753,9.386806 C 121.62821,99.270756 115.6414,106 106.69748,106 c -4.87992,0 -7.481548,-1.33737 -9.959992,-5.11995 z M 130,99 c -1.99219,-2.400448 -1.96526,-3.632008 0.13478,-6.162402 2.1375,-2.57553 2.15043,-3.9216 0.0697,-7.253384 -2.13586,-3.420048 -2.02882,-4.617022 0.65266,-7.2985 2.6919,-2.691902 3.87052,-2.793466 7.33191,-0.631794 3.16348,1.975628 4.78089,2.03088 6.9422,0.23715 6.09165,-5.055624 12.35742,3.82026 6.69448,9.483194 -1.56568,1.565686 -1.56568,2.550388 0,3.518034 3.21651,1.98791 2.63774,9.055392 -0.8512,10.394222 -1.66401,0.63854 -4.40216,0.0184 -6.08477,-1.378006 -2.31722,-1.923126 -3.62088,-1.9774 -5.37453,-0.22375 C 136.36426,102.83574 132.98133,102.59229 130,99 Z M 244,25 V 20 H 128 12 v 5 5 h 116 116 z"
         id="path4458" />
      <path
         style="fill:#fe8b66;stroke-width:2"
         d="m 84.699378,242.93778 c -0.721522,-1.88026 5.092444,-12.23616 15.062768,-26.83 C 108.69297,203.03552 116,191.82731 116,191.20068 c 0,-0.62664 -25.875,-1.37814 -57.5,-1.67001 L 1,189 0.4794099,99.5 -0.04118018,10 H 128 256.04118 L 255.5206,99.5 255,189 l -57.5,0.53067 c -31.625,0.29187 -57.5,1.04337 -57.5,1.67001 0,0.62663 7.30703,11.83484 16.23785,24.9071 15.96927,23.37464 18.22758,29.90968 10.32492,29.87788 -2.3187,-0.01 -9.45734,-8.73898 -20.44365,-25 C 136.83464,207.24356 128.68103,196 128,196 c -0.68103,0 -8.83464,11.24356 -18.11912,24.98566 -16.507322,24.43276 -22.293856,29.4772 -25.181502,21.95212 z M 245.52626,110.5 246.05252,42 H 128.02626 10 v 67.66667 c 0,37.21666 0.607186,68.27385 1.349302,69.01597 0.742116,0.74211 53.617116,1.11711 117.499998,0.83333 L 245,179 Z m -145.00065,57.81496 c -1.161404,-0.72323 -3.12582,-5.08924 -4.365366,-9.70225 -2.153126,-8.01292 -2.631028,-8.41463 -10.706982,-9 C 78.53757,149.11145 77,148.27244 77,145 c 0,-3.58974 1.333334,-4 13,-4 h 13 l 4,-12 4,-12 h 23 c 21.66667,0 23,0.23188 23,4 0,3.66975 -1.52488,4.04744 -18.46958,4.57465 -21.35096,0.6643 -19.71291,-0.8712 -26.46527,24.80839 -4.39497,16.71434 -6.99832,20.75981 -11.53954,17.93192 z m 22.19172,-7.3304 c -0.63643,-1.65849 0.25849,-5.17596 1.9887,-7.81659 2.75366,-4.20262 2.78107,-5.10386 0.2199,-7.22944 C 120.23704,142.0471 121.25563,136 126.6,136 c 2.53,0 5.68,1.08 7,2.4 1.86667,1.86667 2.93333,1.86667 4.8,0 1.32,-1.32 4.47,-2.4 7,-2.4 5.39516,0 6.15972,4.96157 1.54954,10.05575 -2.73394,3.02098 -2.73394,3.6334 0,5.90237 3.9401,3.27 3.9262,9.83136 -0.024,11.34721 -1.69097,0.64889 -4.84097,-0.41885 -7,-2.37274 -3.65785,-3.31032 -4.17488,-3.32686 -7.58299,-0.24257 -4.55198,4.11949 -8.11557,4.22854 -9.62519,0.29454 z M 170,159 v -5.14485 l 19.5,0.57243 c 17.97586,0.52768 19.5,0.88506 19.5,4.57242 0,3.68736 -1.52414,4.04474 -19.5,4.57242 l -19.5,0.57243 z m 46,0 c 0,-4.32972 0.80864,-5.16336 4.5,-4.6391 2.95364,0.41948 4.5,2.01365 4.5,4.6391 0,2.62545 -1.54636,4.21962 -4.5,4.6391 -3.69136,0.52426 -4.5,-0.30938 -4.5,-4.6391 z m -38.6066,-26.27327 c -2.93805,-2.93805 -1.10285,-7.13131 6.93963,-15.85638 l 8.33304,-9.04027 -8.60392,-8.766752 C 170.74337,85.492476 172.81604,83.750062 201.46172,84.436198 L 225,85 l 0.62074,7.5 c 0.56256,6.797332 0.161,7.5 -4.28604,7.5 -2.6987,0 -5.42478,-1.35 -6.05796,-3 -0.79822,-2.080148 -4.04474,-3 -10.58816,-3 h -9.43694 l 5.37418,5.609438 C 207.2997,106.57547 207.37806,110.00812 201,116 c -6.98011,6.55748 -6.30284,8 3.75606,8 6.77248,0 9.41042,-0.98552 11.64458,-4.35036 4.59772,-6.92453 9.99398,-3.51024 9.22104,5.83429 L 225,133 l -23.1066,0.56007 c -12.70863,0.30803 -23.73363,-0.067 -24.5,-0.83334 z M 32,101.91901 c 0,-2.244536 1.863542,-6.601556 4.141204,-9.682258 4.436068,-6.000104 8.687268,-21.278224 6.779622,-24.36486 C 42.284534,66.842352 39.054452,66 35.742864,66 30.642764,66 29.819552,65.311692 30.360898,61.5 30.986242,57.096878 31.559734,57 57,57 c 25.184308,0 26.019456,0.13664 26.620174,4.35556 0.494526,3.473116 -0.51848,4.486122 -5,5 -5.369506,0.615696 -5.647294,1.16967 -6.228218,12.420496 C 71.690692,92.357484 73.730044,100.13979 75.857284,92 76.668056,88.89762 78.840718,86.757446 81.581988,86.360898 85.419158,85.80582 86,86.641602 86,92.71804 86,101.14439 81.674144,106 74.167118,106 64.699146,106 62,100.75184 62,82.342518 62,67.333334 61.673652,66 58,66 55.15017,66 54,67.333334 54,70.636998 54,78.201246 48.31994,95.053826 43.859044,100.72494 38.82297,107.12727 32,107.81427 32,101.91901 Z m 67.5,1.92079 C 94.549096,100.95617 94.838032,92 99.881966,92 c 2.135084,0 4.465204,0.943702 5.178054,2.097116 C 107.43992,97.947874 112,91.809486 112,84.75511 112,80.083902 111.07452,78 109,78 c -1.86667,0 -3,-1.888888 -3,-5 0,-3.09105 1.13512,-5 2.97316,-5 1.63524,0 4.23839,-3.028126 5.78479,-6.729168 2.96368,-7.093088 10.19829,-10.506434 17.41426,-8.216176 4.42604,1.404774 8.57881,8.112132 6.80224,10.986678 -1.58854,2.570316 -8.39147,2.519976 -9.99461,-0.07396 C 127.56795,61.68289 124,63.223792 124,66.118034 124,67.153116 125.35,68 127,68 c 1.86667,0 3,1.888888 3,5 0,5.309184 2.84108,6.14273 17.5,5.134328 5.18488,-0.356674 6.5,0.312878 6.5,3.309264 0,2.066024 -0.97842,4.734828 -2.17426,5.930672 -1.56569,1.565686 -1.56569,2.550388 0,3.518034 3.2165,1.98791 2.63773,9.055392 -0.85121,10.394222 -1.66401,0.63854 -4.36401,0.0501 -6,-1.307658 -2.35947,-1.958188 -3.58959,-1.958188 -5.94906,0 -1.63599,1.357748 -4.33599,1.946198 -6,1.307658 -3.48894,-1.33883 -4.06771,-8.406312 -0.85121,-10.394222 1.56569,-0.967646 1.56569,-1.952348 0,-3.518034 C 130.97842,86.17842 130,83.58 130,81.6 c 0,-2.266666 -1.48148,-3.6 -4,-3.6 -3.41333,0 -4,1.333334 -4,9.09091 0,14.47252 -11.59251,23.10192 -22.5,16.74889 z M 245.63284,25.5 246.26568,20 H 128.13284 10 v 4.666666 c 0,2.566668 0.607186,5.273854 1.349302,6.01597 0.742116,0.742116 53.617116,1.117116 117.499998,0.833332 L 245,31 Z"
         id="path4456" />
      <path
         style="fill:#fe6532;stroke-width:2"
         d="m 84.82317,243.26038 c -0.57821,-1.5068 6.700082,-14.09312 16.17398,-27.96962 L 118.22242,190.06077 59.611212,189.53039 1,189 V 100 11 h 127 127 v 89 89 l -58.61121,0.53039 -58.61121,0.53038 17.22527,25.22999 c 16.43051,24.0659 19.42514,31.85996 11.66379,30.35706 -1.84,-0.3563 -11.2186,-12.15996 -20.84133,-26.23034 l -17.49587,-25.58252 -4.83832,6.58252 C 120.83005,204.03786 112.61194,215.775 105.22866,226.5 92.464868,245.04076 87.173988,249.38652 84.82317,243.26038 Z M 246,111 V 42 H 128 10 v 69 69 h 118 118 z m -145.51188,57.30167 c -1.307754,-0.80823 -3.112882,-5.03175 -4.0114,-9.38559 -1.506762,-7.30114 -2.198368,-7.96359 -8.902972,-8.52774 -8.163066,-0.68685 -13.499334,-5.26275 -10.10067,-8.66142 1.178384,-1.17838 7.46547,-1.80082 14.294956,-1.41523 L 103.95944,141 l 3.57932,-12 3.57932,-12 h 22.94096 C 155.66667,117 157,117.23248 157,121 c 0,3.68392 -1.52324,4.04502 -19.27655,4.56973 l -19.27655,0.56973 -5.45055,19.87386 c -5.52509,20.14561 -8.21623,24.94095 -12.50823,22.28835 z m 22.20655,-7.37616 c -0.64889,-1.69097 0.41885,-4.84097 2.37274,-7 3.31032,-3.65786 3.32686,-4.17489 0.24257,-7.58299 C 123.48949,144.3309 122,141.60266 122,140.27975 c 0,-4.18338 5.99443,-4.90474 10.07449,-1.21234 3.7607,3.40339 4.09032,3.40339 7.85102,0 4.08006,-3.6924 10.07449,-2.97104 10.07449,1.21234 0,1.32291 -1.48949,4.05115 -3.30998,6.06277 -3.08429,3.4081 -3.06775,3.92513 0.24257,7.58299 3.6924,4.08006 2.97104,10.07449 -1.21234,10.07449 -1.32291,0 -4.05115,-1.48949 -6.06277,-3.30998 -3.40332,-3.07996 -3.91164,-3.07996 -7.31496,0 -4.57316,4.13865 -8.11688,4.22515 -9.64785,0.23549 z m 48.00597,0.0156 c -2.18362,-5.69046 2.2986,-7.11806 20.48186,-6.52361 16.29,0.53256 17.8175,0.92542 17.8175,4.5825 0,3.67084 -1.52516,4.04736 -18.5338,4.5755 -15.51684,0.48182 -18.7343,0.053 -19.76556,-2.63444 z m 46.02774,0.0723 c -0.69272,-1.80529 -0.3005,-4.24131 0.87162,-5.41343 3.04722,-3.04722 8.82082,-0.26218 8.02484,3.87098 -0.8866,4.60377 -7.29532,5.71486 -8.89646,1.5424 z m -38.81066,-30.11257 c -2.18513,-2.63292 -1.17209,-4.52048 6.73408,-12.54735 l 9.30614,-9.4482 -9.06497,-9.064972 c -6.42785,-6.427848 -8.67993,-10.068356 -7.74142,-12.514068 1.16599,-3.038542 4.09255,-3.382274 24.58599,-2.887686 L 225,85 v 7 c 0,5.736562 -0.8122,7.115352 -4.5,7.639102 -3.02676,0.429868 -4.5,-0.388604 -4.5,-2.5 C 216,94.705512 213.7525,94 206,94 c -5.5,0 -10,0.743118 -10,1.651372 0,0.908254 2.25,3.765138 5,6.348628 6.43536,6.04571 6.30748,7.46059 -1.39233,15.40479 L 193.21533,124 h 11.39233 C 213.01198,124 216,123.26927 216,121.21398 c 0,-3.74594 4.96632,-5.44765 7.75628,-2.65769 2.94968,2.94967 2.86494,10.0225 -0.1562,13.04371 -3.83244,3.83244 -42.41142,3.24201 -45.68228,-0.69914 z M 32.774562,103.13371 C 32.169618,101.55725 33.95137,96.382252 36.73401,91.633712 39.516648,86.88517 42.404876,79.175 43.152294,74.5 44.503026,66.05133 44.47417,66 38.37365,66 31.239104,66 28.628048,63.062954 32.07271,58.91239 33.915764,56.691644 39.617412,56 56.081314,56 80.358266,56 84,56.810556 84,62.213978 84,65.087336 82.553632,66 78,66 h -6 v 15 c 0,14.883792 2.380946,19.72309 4.85464,9.867112 1.759406,-7.010026 7.927652,-5.728826 8.795272,1.826858 C 86.967318,104.16663 74.208904,110.2089 66,102 62.666666,98.666666 62,95.333334 62,82 62,67.595886 61.619748,66 58.187676,66 55.146754,66 54.106142,67.957388 53.044898,75.673552 50.624294,93.273448 36.390306,112.55619 32.774562,103.13371 Z m 66.535414,-0.79119 C 97.489488,100.3309 96,97.180904 96,95.342518 c 0,-3.792942 6.03458,-4.507934 9.42574,-1.116782 3.65414,3.65414 6.57426,0.04309 6.57426,-8.129792 0,-4.971008 -1.05516,-8.07289 -3,-8.819196 C 105.0491,75.760646 105.09051,68 109.0495,68 c 1.67723,0 3.88706,-2.202932 4.91073,-4.895402 1.02368,-2.692472 4.15671,-6.39946 6.9623,-8.237752 4.26992,-2.797762 6.05335,-2.947904 10.94556,-0.921484 5.9592,2.468378 9.04239,6.963422 7.02036,10.235122 -1.66393,2.692302 -8.41288,2.207436 -9.47178,-0.680484 -0.73193,-1.99616 -1.44923,-1.99767 -3.55918,-0.0074 -2.17694,2.053368 -1.98754,2.971426 1.07496,5.210786 C 131.04598,71.711174 129.95335,78 125.31723,78 c -1.92199,0 -3.12288,3.273768 -3.80501,10.372862 -0.72489,7.544046 -2.21828,11.36203 -5.47603,13.999998 -5.73056,4.64033 -12.51045,4.62803 -16.726214,-0.0303 z m 31.311614,-3.607452 c -0.68908,-1.795712 -0.22926,-4.903988 1.02181,-6.907278 1.44778,-2.31826 1.56252,-4.082488 0.31564,-4.853104 C 130.88157,86.308772 130,84.017048 130,81.881966 c 0,-4.27791 5.75557,-5.326396 9.37426,-1.707702 1.56569,1.565686 2.55039,1.565686 3.51804,0 1.66104,-2.687618 8.44776,-2.86011 10.05742,-0.255618 0.65218,1.055254 0.0844,3.682174 -1.26164,5.837598 -1.94918,3.121136 -1.91312,4.562748 0.17714,7.081354 2.11907,2.553322 2.13783,3.748882 0.0974,6.207462 -2.24157,2.70093 -3.03961,2.7093 -7.06147,0.07408 -3.97721,-2.605968 -4.83265,-2.611504 -6.96261,-0.04506 -3.17589,3.82672 -5.76442,3.70679 -7.31693,-0.339004 z M 246,26 V 20 H 128 10 v 6 6 h 118 118 z"
         id="path4454" />
    </g>
  </g>
</svg>
