<?xml version="1.0" encoding="UTF-8" standalone="no"?>
<svg
   version="1.1"
   id="svg282"
   width="256"
   height="256"
   viewBox="0 0 256 256"
   sodipodi:docname="nestsonata.svg"
   inkscape:version="1.2.2 (b0a8486, 2022-12-01)"
   inkscape:export-filename="nestsonata.svg"
   inkscape:export-xdpi="96"
   inkscape:export-ydpi="96"
   xmlns:inkscape="http://www.inkscape.org/namespaces/inkscape"
   xmlns:sodipodi="http://sodipodi.sourceforge.net/DTD/sodipodi-0.dtd"
   xmlns="http://www.w3.org/2000/svg"
   xmlns:svg="http://www.w3.org/2000/svg"
   xmlns:rdf="http://www.w3.org/1999/02/22-rdf-syntax-ns#"
   xmlns:cc="http://creativecommons.org/ns#"
   xmlns:dc="http://purl.org/dc/elements/1.1/"
   xmlns:sketch="http://www.bohemiancoding.com/sketch/ns">
  <sodipodi:namedview
     id="namedview284"
     pagecolor="#ffffff"
     bordercolor="#000000"
     borderopacity="0.25"
     inkscape:showpageshadow="2"
     inkscape:pageopacity="0.0"
     inkscape:pagecheckerboard="0"
     inkscape:deskcolor="#d1d1d1"
     showgrid="false"
     inkscape:zoom="2.7278865"
     inkscape:cx="122.98899"
     inkscape:cy="120.05631"
     inkscape:window-width="1309"
     inkscape:window-height="695"
     inkscape:window-x="33"
     inkscape:window-y="154"
     inkscape:window-maximized="0"
     inkscape:current-layer="svg282" />
  <title
     id="title273">icon 62 document table</title>
  <desc
     id="desc275">Created with Sketch.</desc>
  <defs
     id="defs277" />
  <g
     id="Page-1"
     stroke="none"
     stroke-width="1"
     fill="none"
     fill-rule="evenodd"
     sketch:type="MSPage"
     style="fill:#fe6532;fill-opacity:1"
     transform="matrix(13.444568,0,0,9.4721674,-93.745391,-28.416502)">
    <g
       id="icon-62-document-table"
       sketch:type="MSArtboardGroup"
       fill="#000000"
       style="fill:#fe6532;fill-opacity:1">
      <path
         d="m 16,21 h -4 v 2 0 h 4 z m 1,0 h 4 v 2 h -4 z m -1,5 h -4 v -2 h 4 z m 1,0 h 4 v -2 h -4 z m -1,-8 h -4 v 2 0 h 4 z m 1,0 h 4 v 2 h -4 z m -1,-3 h -4 v 2 0 h 4 z m 1,0 h 4 v 2 H 17 Z M 19.5,3 H 9.0027601 C 7.8966662,3 7,3.8983383 7,5.0073299 V 27.99267 C 7,29.101288 7.8909254,30 8.9974219,30 H 24.002578 C 25.105724,30 26,29.101788 26,28.009205 V 10.5 10 L 20,3 Z M 19,4 H 8.9955775 C 8.4457352,4 8,4.4552629 8,4.995457 V 28.004543 C 8,28.554319 8.4547089,29 8.9999602,29 H 24.00004 C 24.552303,29 25,28.555054 25,28.006602 V 11 H 20.997913 C 19.894496,11 19,10.113445 19,8.994081 Z m 1,0.5 V 8.9912152 C 20,9.5483517 20.450651,10 20.996739,10 h 3.703212 z M 11,13 V 27 H 22 V 13 Z"
         id="document-table"
         sketch:type="MSShapeGroup"
         style="fill:#fe6532;fill-opacity:1" />
    </g>
  </g>
  <ellipse
     class="st0"
     cx="87.97876"
     cy="46.708492"
     id="circle2103"
     style="fill:#ffffff;stroke:#fe6532;stroke-width:6.33354;stroke-linejoin:round;stroke-miterlimit:10;stroke-opacity:1"
     rx="24.382111"
     ry="14.80692" />
  <ellipse
     class="st0"
     cx="126.58376"
     cy="30.667667"
     id="circle2105"
     style="fill:#ffffff;stroke:#fe6532;stroke-width:6.33354;stroke-linejoin:round;stroke-miterlimit:10;stroke-opacity:1"
     rx="10.159213"
     ry="6.1695504" />
  <ellipse
     class="st0"
     cx="45.310062"
     cy="20.796383"
     id="circle2107"
     style="fill:#ffffff;stroke:#fe6532;stroke-width:6.33354;stroke-linejoin:round;stroke-miterlimit:10;stroke-opacity:1"
     rx="10.159213"
     ry="6.1695504" />
  <ellipse
     class="st0"
     cx="53.437428"
     cy="72.620605"
     id="circle2109"
     style="fill:#ffffff;stroke:#fe6532;stroke-width:6.33354;stroke-linejoin:round;stroke-miterlimit:10;stroke-opacity:1"
     rx="10.159213"
     ry="6.1695504" />
  <ellipse
     class="st0"
     cx="130.64745"
     cy="65.21714"
     id="circle2111"
     style="fill:#ffffff;stroke:#fe6532;stroke-width:6.33354;stroke-linejoin:round;stroke-miterlimit:10;stroke-opacity:1"
     rx="10.159213"
     ry="6.1695504" />
  <line
     class="st0"
     x1="72.943092"
     y1="58.307247"
     x2="59.939335"
     y2="67.931747"
     id="line2113"
     style="fill:#ffffff;stroke:#fe6532;stroke-width:6.33354;stroke-linejoin:round;stroke-miterlimit:10;stroke-opacity:1" />
  <line
     class="st0"
     x1="52.624699"
     y1="25.238462"
     x2="70.91127"
     y2="36.343655"
     id="line2115"
     style="fill:#ffffff;stroke:#fe6532;stroke-width:6.33354;stroke-linejoin:round;stroke-miterlimit:10;stroke-opacity:1" />
  <line
     class="st0"
     x1="118.4564"
     y1="34.3694"
     x2="108.29716"
     y2="38.56469"
     id="line2117"
     style="fill:#ffffff;stroke:#fe6532;stroke-width:6.33354;stroke-linejoin:round;stroke-miterlimit:10;stroke-opacity:1" />
  <line
     class="st0"
     x1="122.52009"
     y1="61.515411"
     x2="107.89081"
     y2="55.099075"
     id="line2119"
     style="fill:#ffffff;stroke:#fe6532;stroke-width:6.33354;stroke-linejoin:round;stroke-miterlimit:10;stroke-opacity:1" />
  <metadata
     id="metadata7473">
    <rdf:RDF>
      <cc:Work
         rdf:about="">
        <dc:title>icon 62 document table</dc:title>
      </cc:Work>
    </rdf:RDF>
  </metadata>
</svg>
