<?xml version="1.0" encoding="UTF-8" standalone="no"?>
<svg
   height="90.785507pt"
   version="1.1"
   viewBox="0 0 299.846 90.785507"
   width="299.84601pt"
   id="svg734"
   sodipodi:docname="nestlogos_print_screen-page001.svg"
   xmlns:inkscape="http://www.inkscape.org/namespaces/inkscape"
   xmlns:sodipodi="http://sodipodi.sourceforge.net/DTD/sodipodi-0.dtd"
   xmlns="http://www.w3.org/2000/svg"
   xmlns:svg="http://www.w3.org/2000/svg">
  <sodipodi:namedview
     id="namedview736"
     pagecolor="#ffffff"
     bordercolor="#000000"
     borderopacity="0.25"
     inkscape:showpageshadow="2"
     inkscape:pageopacity="0.0"
     inkscape:pagecheckerboard="0"
     inkscape:deskcolor="#d1d1d1"
     inkscape:document-units="pt"
     showgrid="false" />
  <defs
     id="defs516" />
  <g
     id="Background"
     inkscape:groupmode="layer"
     inkscape:label="Background"
     transform="translate(-530.029,-186.695)">
    <path
       id="Copy of  path240"
       style="fill:#ffffff;fill-rule:nonzero;stroke:none"
       transform="translate(613.693,186.695)"
       d="m 216.182,76.4317 c 0,7.4019 -5.914,14.3538 -13.209,14.3538 H 0 V 13.406 C 0,6.00416 5.9153,0 13.2092,0 H 202.973 c 7.298,0 13.209,6.00416 13.209,13.406 z"
       inkscape:export-filename="nestml022023.png"
       inkscape:export-xdpi="96"
       inkscape:export-ydpi="96" />
    <path
       id="Copy of  path244"
       style="fill:#ff6532;fill-rule:nonzero;stroke:none"
       transform="translate(530.029,186.695)"
       d="m 216.179,76.4317 c 0,7.4019 -5.911,14.3538 -13.206,14.3538 H 0 V 13.406 C 0,6.00416 5.9105,0 13.2092,0 H 202.973 c 7.295,0 13.206,6.00416 13.206,13.406 z" />
    <path
       id="Copy of  path248"
       style="fill:#ffffff;fill-rule:nonzero;stroke:none"
       transform="translate(540.142,216.218)"
       d="M 31.4798,24.0262 V 12.993 C 31.4798,4.3302 28.1631,0 20.987,0 16.7888,0 13.7435,1.62353 11.6421,4.80332 V 2.23235 c 0,-0.88142 -0.6052,-1.420589 -1.89491,-1.420589 H 4.13206 C 1.35574,0.811761 0,1.68837 0,4.46589 0,6.83513 1.22005,8.05398 3.58809,8.05398 H 4.13206 V 24.0262 H 3.72498 C 1.22005,24.0262 0,25.2463 0,27.6852 c 0,2.7066 1.28969,3.6541 4.13206,3.6541 H 12.323 c 2.8423,0 4.1272,-0.9475 4.1272,-3.6541 0,-2.4389 -1.2188,-3.659 -3.7237,-3.659 H 12.323 v -9.5406 c 0,-4.67241 2.7715,-7.31304 6.2238,-7.31304 3.7947,0 4.8082,2.50491 4.8082,7.31304 v 9.5406 h -0.4083 c -2.505,0 -3.7898,1.2201 -3.7898,3.659 0,2.7066 1.3557,3.6541 4.1981,3.6541 h 8.1248 c 2.8424,0 4.1273,-0.9475 4.1273,-3.6541 0,-2.4389 -1.2188,-3.659 -3.7238,-3.659 z" />
    <path
       id="Copy of  path252"
       style="fill:#ffffff;fill-rule:nonzero;stroke:none"
       transform="translate(578.808,216.284)"
       d="M 8.39622,17.9368 H 29.7158 c 3.4524,0 4.8081,-0.4731 4.8081,-3.3816 C 34.5239,6.83873 28.0274,0 18.0077,0 7.04168,0 0,6.90478 0,16.0419 0,25.1803 7.11133,32.085 18.0077,32.085 c 9.6775,0 15.9722,-3.791 15.9722,-7.5808 0,-1.9658 -1.2152,-3.2507 -2.978,-3.2507 -2.4353,0 -5.6151,3.9964 -12.7217,3.9964 -5.4841,0 -8.73475,-2.3693 -9.88398,-7.3131 m 0,-5.1455 C 9.54545,8.46226 12.4586,6.3656 17.262,6.3656 c 4.9438,0 8.1908,2.2984 8.9365,6.4257 H 8.39622" />
    <path
       id="Copy of  path256"
       style="fill:#ffffff;fill-rule:nonzero;stroke:none"
       transform="translate(619.575,216.012)"
       d="m 6.36081,31.1375 c 3.18103,0.8815 6.36569,1.2201 9.81319,1.2201 9.274,0 14.2178,-3.9267 14.2178,-10.3572 0,-6.4977 -4.6724,-8.4622 -13.1334,-9.6774 -5.9574,-0.8815 -8.66404,-0.6101 -8.66404,-3.45246 0,-1.89492 1.82884,-3.1798 5.41694,-3.1798 5.9573,0 7.8523,4.73726 11.169,4.73726 1.7592,0 2.8424,-1.0843 2.8424,-2.97924 V 3.38754 C 28.0227,1.154 27.1412,0 25.3172,0 24.0262,0 22.9431,0.543976 22.0653,1.62833 18.9516,0.680871 15.9723,0.206543 12.9942,0.206543 4.60279,0.206543 0,3.79462 0,9.95369 c 0,5.27761 3.72018,8.25571 11.3707,9.34011 7.1774,1.0171 10.2875,1.0171 10.2875,4.1272 0,1.764 -1.7592,3.3167 -5.2116,3.3167 -3.6541,0 -6.4317,-0.9475 -8.66401,-2.9084 C 6.15907,22.3379 6.22511,20.443 3.38274,20.443 c -2.36924,0 -3.250648,1.0831 -3.250648,3.9963 v 4.4659 c 0,2.3032 0.473127,3.5881 2.640628,3.5881 1.22004,0 2.36924,-0.4743 3.58809,-1.3558" />
    <path
       id="Copy of  path260"
       style="fill:#ffffff;fill-rule:nonzero;stroke:none"
       transform="translate(655.464,207.01)"
       d="m 4.12846,19.092 h 3.11376 v 8.4574 0.7457 c 0,3.9916 0.06605,7.0406 2.03178,9.339 1.8949,2.2371 5.3474,3.5881 10.0149,3.5881 8.1945,0 15.0945,-3.6542 15.0945,-6.6322 0,-2.3033 -1.5527,-3.7899 -3.3166,-3.7899 -2.8424,0 -6.0883,2.978 -10.7607,2.978 -3.9255,0 -4.939,-1.8949 -4.939,-6.2287 V 19.092 h 10.0857 c 2.7716,0 4.1933,-0.8826 4.1933,-3.6589 0,-2.7728 -1.4217,-3.5893 -4.1933,-3.5893 H 15.3671 V 4.12846 C 15.3671,1.28489 14.3487,0 11.235,0 8.664,0 7.24222,1.42179 7.24222,2.77752 V 4.12846 11.8438 H 4.12846 C 1.35094,11.8438 0,12.6603 0,15.4331 0,18.2094 1.35094,19.092 4.12846,19.092 Z" />
    <path
       id="Copy of  path264"
       style="fill:#ffffff;fill-rule:nonzero;stroke:none"
       transform="translate(704.061,215.586)"
       d="m 11.8907,5.94292 c 0,3.28306 -2.65993,5.94778 -5.94298,5.94778 C 2.66465,11.8907 0,9.22598 0,5.94292 0,2.65984 2.66465,0 5.94772,0 9.23077,0 11.8907,2.65984 11.8907,5.94292 Z" />
    <path
       id="Copy of  path268"
       style="fill:#ffffff;fill-rule:nonzero;stroke:none"
       transform="translate(724.184,215.586)"
       d="m 11.8907,5.94292 c 0,3.28306 -2.65993,5.94778 -5.94298,5.94778 C 2.66465,11.8907 0,9.22598 0,5.94292 0,2.65984 2.66465,0 5.94772,0 9.23077,0 11.8907,2.65984 11.8907,5.94292 Z" />
    <path
       id="Copy of  path272"
       style="fill:#ffffff;fill-rule:nonzero;stroke:none"
       transform="translate(724.184,235.709)"
       d="m 11.8907,5.94292 c 0,3.28306 -2.65993,5.94778 -5.94298,5.94778 C 2.66465,11.8907 0,9.22598 0,5.94292 0,2.65864 2.66465,0 5.94772,0 9.23077,0 11.8907,2.65864 11.8907,5.94292 Z" />
    <path
       id="Copy of  path276"
       style="fill:#ffffff;fill-rule:nonzero;stroke:none"
       transform="translate(704.061,235.709)"
       d="m 11.8907,5.94292 c 0,3.28306 -2.65993,5.94778 -5.94298,5.94778 C 2.66465,11.8907 0,9.22598 0,5.94292 0,2.65864 2.66465,0 5.94772,0 9.23077,0 11.8907,2.65864 11.8907,5.94292 Z" />
    <path
       id="Copy of  path280"
       style="fill:#ff6532;fill-rule:nonzero;stroke:none"
       transform="translate(750.377,216.218)"
       d="M 38.5155,11.5724 C 38.5155,3.99156 36.6206,0 30.0545,0 27.3477,0 24.8428,1.0135 22.9479,3.04411 21.5261,0.947456 19.6312,0 17.1263,0 14.2839,0 11.9807,1.1492 10.3572,3.45239 V 3.11015 c 0,-1.68836 -0.544,-2.298389 -2.30321,-2.298389 H 3.58928 C 1.1492,0.811761 0,1.68837 0,4.39984 0,6.76908 1.08435,8.05398 3.11496,8.05398 H 3.58928 V 24.0971 H 3.11496 C 1.08435,24.0971 0,25.3159 0,27.6852 c 0,2.7066 1.1492,3.6541 3.58928,3.6541 h 7.50882 c 2.4401,0 3.6589,-0.8827 3.6589,-3.6541 0,-2.3693 -1.0831,-3.5881 -3.1846,-3.5881 H 11.0981 V 12.5198 c 0,-3.78976 1.4217,-5.68467 3.5233,-5.68467 1.7592,0 2.6406,1.42059 2.6406,4.39987 v 18.6825 c 0,0.8826 0.7408,1.4218 1.9609,1.4218 h 5.549 c 2.4389,0 3.659,-0.8827 3.659,-3.6541 0,-2.3693 -1.0832,-3.5881 -3.1846,-3.5881 H 24.7719 V 12.5198 c 0,-3.78976 1.4219,-5.68467 3.5233,-5.68467 1.7593,0 2.6406,1.42059 2.6406,4.39987 v 18.6825 c 0,0.8826 0.741,1.4218 1.961,1.4218 h 5.6187 c 2.4353,0 3.5893,-0.8827 3.5893,-3.6541 0,-2.3693 -1.0843,-3.5881 -3.115,-3.5881 h -0.4743 z" />
    <path
       id="Copy of  path284"
       style="fill:#ff6532;fill-rule:nonzero;stroke:none"
       transform="translate(794.32,204.304)"
       d="M 11.2386,7.30826 V 36.0117 H 4.13206 C 1.35574,36.0117 0,36.8223 0,39.5998 0,42.3714 1.35574,43.254 4.13206,43.254 H 26.536 c 2.7763,0 4.1273,-0.8826 4.1273,-3.6542 0,-2.7775 -1.351,-3.5881 -4.1273,-3.5881 H 19.4294 V 1.42179 C 19.4294,0.539173 18.6837,0 17.4637,0 H 7.58445 c -2.77631,0 -4.1981,0.882611 -4.1981,3.65413 0,2.77752 1.42179,3.65413 4.1981,3.65413 z" />
  </g>
</svg>
