<?xml version="1.0" encoding="UTF-8" standalone="no"?>
<svg
   height="90.780121pt"
   version="1.1"
   viewBox="0 0 496.08398 90.780121"
   width="496.08398pt"
   id="svg734"
   sodipodi:docname="nestlogos_print_screen-page001.svg"
   xmlns:inkscape="http://www.inkscape.org/namespaces/inkscape"
   xmlns:sodipodi="http://sodipodi.sourceforge.net/DTD/sodipodi-0.dtd"
   xmlns="http://www.w3.org/2000/svg"
   xmlns:svg="http://www.w3.org/2000/svg">
  <sodipodi:namedview
     id="namedview736"
     pagecolor="#ffffff"
     bordercolor="#000000"
     borderopacity="0.25"
     inkscape:showpageshadow="2"
     inkscape:pageopacity="0.0"
     inkscape:pagecheckerboard="0"
     inkscape:deskcolor="#d1d1d1"
     inkscape:document-units="pt"
     showgrid="false" />
  <defs
     id="defs516" />
  <g
     id="Background"
     inkscape:groupmode="layer"
     inkscape:label="Background"
     transform="translate(-4.0289903,-191.82401)">
    <path
       id="Copy of  path288"
       style="fill:#ffffff;fill-rule:nonzero;stroke:none"
       transform="translate(139.831,191.824)"
       d="m 360.282,76.4269 c 0,7.4019 -5.911,14.3532 -13.209,14.3532 H 0.00480333 L 0,13.4013 C 0,5.99935 5.9153,0 13.2092,0 H 347.073 c 7.298,0 13.209,5.99935 13.209,13.4013 z"
       inkscape:export-filename="nestdesktop022023.png"
       inkscape:export-xdpi="96"
       inkscape:export-ydpi="96" />
    <path
       id="Copy of  path292"
       style="fill:#ff6532;fill-rule:nonzero;stroke:none"
       transform="translate(4.02899,191.824)"
       d="m 216.179,76.4269 c 0,7.4019 -5.911,14.3532 -13.206,14.3532 H 0 V 13.4013 C 0,5.99935 5.9105,0 13.2092,0 H 202.973 c 7.295,0 13.206,5.99935 13.206,13.4013 z" />
    <path
       id="Copy of  path296"
       style="fill:#ffffff;fill-rule:nonzero;stroke:none"
       transform="translate(14.1424,221.343)"
       d="M 31.4798,24.0311 V 12.999 C 31.4798,4.335 28.1631,0 20.987,0 16.7888,0 13.7435,1.62353 11.6421,4.80813 V 2.23355 c 0,-0.87781 -0.6052,-1.421789 -1.89491,-1.421789 H 4.13206 C 1.35574,0.811761 0,1.69437 0,4.47069 0,6.83994 1.22005,8.05398 3.58809,8.05398 H 4.13206 V 24.0311 H 3.72498 C 1.22005,24.0311 0,25.251 0,27.6852 c 0,2.7066 1.28969,3.6541 4.13206,3.6541 H 12.323 c 2.8423,0 4.1272,-0.9475 4.1272,-3.6541 0,-2.4342 -1.2188,-3.6541 -3.7237,-3.6541 H 12.323 v -9.5455 c 0,-4.66764 2.7715,-7.30824 6.2238,-7.30824 3.7947,0 4.8082,2.50497 4.8082,7.30824 v 9.5455 h -0.4083 c -2.505,0 -3.7898,1.2199 -3.7898,3.6541 0,2.7066 1.3557,3.6541 4.1981,3.6541 h 8.1248 c 2.8424,0 4.1273,-0.9475 4.1273,-3.6541 0,-2.4342 -1.2188,-3.6541 -3.7238,-3.6541 z" />
    <path
       id="Copy of  path300"
       style="fill:#ffffff;fill-rule:nonzero;stroke:none"
       transform="translate(52.808,221.414)"
       d="M 8.39622,17.9368 H 29.7158 c 3.4524,0 4.8081,-0.4731 4.8081,-3.3863 C 34.5239,6.83393 28.0274,0 18.0077,0 7.04168,0 0,6.89997 0,16.0419 0,25.1803 7.11133,32.085 18.0077,32.085 c 9.6775,0 15.9722,-3.791 15.9722,-7.5856 0,-1.961 -1.2152,-3.2459 -2.978,-3.2459 -2.4353,0 -5.6151,3.9916 -12.7217,3.9916 -5.4841,0 -8.73475,-2.3681 -9.88398,-7.3083 m 0,-5.1455 C 9.54545,8.45746 12.4586,6.3608 17.262,6.3608 c 4.9438,0 8.1908,2.3032 8.9365,6.4305 H 8.39622" />
    <path
       id="Copy of  path304"
       style="fill:#ffffff;fill-rule:nonzero;stroke:none"
       transform="translate(93.575,221.141)"
       d="m 6.36081,31.1375 c 3.18103,0.8779 6.36569,1.2201 9.81319,1.2201 9.274,0 14.2178,-3.9267 14.2178,-10.3572 0,-6.5013 -4.6724,-8.4622 -13.1334,-9.6823 -5.9574,-0.8766 -8.66404,-0.61 -8.66404,-3.45237 0,-1.89491 1.82884,-3.1798 5.41694,-3.1798 5.9573,0 7.8523,4.73727 11.169,4.73727 1.7592,0 2.8424,-1.08311 2.8424,-2.97805 V 3.38274 C 28.0227,1.1492 27.1412,0 25.3172,0 24.0262,0 22.9431,0.540374 22.0653,1.62353 18.9516,0.676068 15.9723,0.20174 12.9942,0.20174 4.60279,0.20174 0,3.79102 0,9.95009 c 0,5.28121 3.72018,8.25931 11.3707,9.34371 7.1774,1.0135 10.2875,1.0135 10.2875,4.1272 0,1.7593 -1.7592,3.3167 -5.2116,3.3167 -3.6541,0 -6.4317,-0.9475 -8.66401,-2.9132 C 6.15907,22.3379 6.22511,20.443 3.38274,20.443 c -2.36924,0 -3.250648,1.0831 -3.250648,3.9915 v 4.4707 c 0,2.2984 0.473127,3.5833 2.640628,3.5833 1.22004,0 2.36924,-0.4731 3.58809,-1.351" />
    <path
       id="Copy of  path308"
       style="fill:#ffffff;fill-rule:nonzero;stroke:none"
       transform="translate(129.464,212.14)"
       d="m 4.12846,19.0872 h 3.11376 v 8.4622 0.7457 c 0,3.9916 0.06605,7.0357 2.03178,9.339 1.8949,2.2335 5.3474,3.5881 10.0149,3.5881 8.1945,0 15.0945,-3.6542 15.0945,-6.6322 0,-2.3033 -1.5527,-3.7947 -3.3166,-3.7947 -2.8424,0 -6.0883,2.9781 -10.7607,2.9781 -3.9255,0 -4.939,-1.8949 -4.939,-6.224 v -8.4622 h 10.0857 c 2.7716,0 4.1933,-0.8826 4.1933,-3.6541 0,-2.7775 -1.4217,-3.5881 -4.1933,-3.5881 H 15.3671 V 4.12846 C 15.3671,1.28609 14.3487,0 11.235,0 8.664,0 7.24222,1.42179 7.24222,2.77272 V 4.12846 11.845 H 4.12846 C 1.35094,11.845 0,12.6556 0,15.4331 c 0,2.7715 1.35094,3.6541 4.12846,3.6541 z" />
    <path
       id="Copy of  path312"
       style="fill:#ffffff;fill-rule:nonzero;stroke:none"
       transform="translate(178.061,220.71)"
       d="m 11.8907,5.94772 c 0,3.2843 -2.65993,5.94298 -5.94298,5.94298 C 2.66465,11.8907 0,9.23202 0,5.94772 0,2.66465 2.66465,0 5.94772,0 9.23077,0 11.8907,2.66465 11.8907,5.94772 Z" />
    <path
       id="Copy of  path316"
       style="fill:#ffffff;fill-rule:nonzero;stroke:none"
       transform="translate(198.184,220.71)"
       d="m 11.8907,5.94772 c 0,3.2843 -2.65993,5.94298 -5.94298,5.94298 C 2.66465,11.8907 0,9.23202 0,5.94772 0,2.66465 2.66465,0 5.94772,0 9.23077,0 11.8907,2.66465 11.8907,5.94772 Z" />
    <path
       id="Copy of  path320"
       style="fill:#ffffff;fill-rule:nonzero;stroke:none"
       transform="translate(198.184,240.834)"
       d="m 11.8907,5.94772 c 0,3.28304 -2.65993,5.94298 -5.94298,5.94298 C 2.66465,11.8907 0,9.23076 0,5.94772 0,2.66465 2.66465,0 5.94772,0 9.23077,0 11.8907,2.66465 11.8907,5.94772 Z" />
    <path
       id="Copy of  path324"
       style="fill:#ffffff;fill-rule:nonzero;stroke:none"
       transform="translate(178.061,240.834)"
       d="m 11.8907,5.94772 c 0,3.28304 -2.65993,5.94298 -5.94298,5.94298 C 2.66465,11.8907 0,9.23076 0,5.94772 0,2.66465 2.66465,0 5.94772,0 9.23077,0 11.8907,2.66465 11.8907,5.94772 Z" />
    <path
       id="Copy of  path328"
       style="fill:#ff6532;fill-rule:nonzero;stroke:none"
       transform="translate(227.154,209.428)"
       d="m 19.8978,7.31306 h 4.3999 V 15.7057 C 21.8636,13.7447 18.6778,12.6603 15.2253,12.6603 6.6322,12.6603 0,19.6312 0,28.6326 c 0,8.9366 6.69824,15.4379 15.2253,15.4379 4.2642,0 7.6517,-1.6284 9.8841,-4.5367 v 2.2983 c 0,0.8827 0.6797,1.4219 1.9658,1.4219 h 5.0747 c 2.7775,0 4.1284,-0.8767 4.1284,-3.6542 0,-2.3692 -1.22,-3.5881 -3.5892,-3.5881 H 32.1499 V 2.1675 C 32.1499,0.545177 31.7416,0 30.1842,0 H 19.8978 c -2.7763,0 -4.1981,0.882611 -4.1981,3.65893 0,2.77272 1.4218,3.65413 4.1981,3.65413 M 16.6471,37.0289 c -4.329,0 -7.51,-3.5881 -7.51,-8.6629 0,-5.0807 3.2459,-8.5991 7.51,-8.5991 4.269,0 7.5148,3.5184 7.5148,8.5991 0,5.0748 -3.181,8.6629 -7.5148,8.6629" />
    <path
       id="Copy of  path332"
       style="fill:#ff6532;fill-rule:nonzero;stroke:none"
       transform="translate(266.29,221.414)"
       d="M 8.39622,17.9368 H 29.7158 c 3.4524,0 4.8081,-0.4731 4.8081,-3.3863 C 34.5239,6.83393 28.0263,0 18.0077,0 7.04048,0 0,6.89997 0,16.0419 0,25.1803 7.11013,32.085 18.0077,32.085 c 9.6763,0 15.9711,-3.791 15.9711,-7.5856 0,-1.961 -1.2141,-3.2459 -2.9733,-3.2459 -2.4389,0 -5.6199,3.9916 -12.7264,3.9916 -5.483,0 -8.73365,-2.3681 -9.88288,-7.3083 m 0,-5.1455 C 9.54545,8.45746 12.4586,6.3608 17.262,6.3608 c 4.9438,0 8.1896,2.3032 8.9354,6.4305 H 8.39622" />
    <path
       id="Copy of  path336"
       style="fill:#ff6532;fill-rule:nonzero;stroke:none"
       transform="translate(307.057,221.141)"
       d="m 6.36081,31.1375 c 3.17977,0.8779 6.36439,1.2201 9.81679,1.2201 9.2693,0 14.2131,-3.9267 14.2131,-10.3572 0,-6.5013 -4.6713,-8.4622 -13.1336,-9.6823 -5.9525,-0.8766 -8.66395,-0.61 -8.66395,-3.45237 0,-1.89491 1.82885,-3.1798 5.41815,-3.1798 5.9573,0 7.8523,4.73727 11.169,4.73727 1.758,0 2.8424,-1.08311 2.8424,-2.97805 V 3.38274 C 28.0227,1.1492 27.14,0 25.3159,0 24.0262,0 22.9467,0.540374 22.0653,1.62353 18.9503,0.676068 15.9723,0.20174 12.993,0.20174 4.60159,0.20174 0,3.79102 0,9.95009 c 0,5.28121 3.71897,8.25931 11.3707,9.34371 7.1761,1.0135 10.2863,1.0135 10.2863,4.1272 0,1.7593 -1.7592,3.3167 -5.2116,3.3167 -3.6541,0 -6.4305,-0.9475 -8.66401,-2.9132 C 6.15907,22.3379 6.22392,20.443 3.38155,20.443 c -2.36805,0 -3.25066,1.0831 -3.25066,3.9915 v 4.4707 c 0,2.2984 0.479133,3.5833 2.64063,3.5833 1.22005,0 2.36924,-0.4731 3.58929,-1.351" />
    <path
       id="Copy of  path340"
       style="fill:#ff6532;fill-rule:nonzero;stroke:none"
       transform="translate(343.348,209.428)"
       d="m 18.8903,19.0212 -6.9757,6.2959 V 2.1675 C 11.9146,0.610022 11.5773,0 10.0197,0 H 4.06242 C 1.29089,0 0,0.882611 0,3.65893 0,6.02817 1.22005,7.31306 3.52324,7.31306 H 4.06242 V 36.0117 H 3.52324 C 1.22005,36.0117 0,37.2306 0,39.5998 0,42.3773 1.29089,43.254 4.06242,43.254 h 5.95728 c 1.5576,0 1.8949,-0.6053 1.8949,-2.1628 v -6.8387 l 4.1285,-3.7202 5.4181,6.5626 c -1.83,0.6808 -2.44,1.5574 -2.44,3.2506 0,2.0318 1.3557,2.9085 4.0624,2.9085 h 8.1248 c 2.7764,0 4.1981,-0.8767 4.1981,-3.6542 0,-2.4341 -1.2897,-3.6541 -3.8606,-3.6541 -0.2017,0 -0.5392,0.066 -0.8118,0.066 L 22.0004,25.185 24.3685,22.7461 c 1.6944,-1.7591 3.0501,-2.7775 5.5538,-3.3167 1.961,-0.4082 2.7728,-0.9474 2.7728,-3.1149 0,-2.7763 -1.2849,-3.5881 -4.1273,-3.5881 h -7.3083 c -2.7775,0 -4.0624,0.6809 -4.0624,3.6589 0,1.4867 0.2714,2.1628 1.6932,2.6359 z" />
    <path
       id="Copy of  path344"
       style="fill:#ff6532;fill-rule:nonzero;stroke:none"
       transform="translate(381.405,212.14)"
       d="m 4.13206,19.0872 h 3.11497 v 8.4622 0.7457 c 0,3.9916 0.06604,7.0357 2.02697,9.339 1.8949,2.2335 5.3474,3.5881 10.0185,3.5881 8.1909,0 15.0958,-3.6542 15.0958,-6.6322 0,-2.3033 -1.5576,-3.7947 -3.3168,-3.7947 -2.8423,0 -6.093,2.9781 -10.7606,2.9781 -3.9267,0 -4.9438,-1.8949 -4.9438,-6.224 v -8.4622 h 10.0845 c 2.7776,0 4.1981,-0.8826 4.1981,-3.6541 0,-2.7775 -1.4205,-3.5881 -4.1981,-3.5881 H 15.3671 V 4.12846 C 15.3671,1.28609 14.3535,0 11.2386,0 8.66881,0 7.24703,1.42179 7.24703,2.77272 V 4.12846 11.845 H 4.13206 C 1.35574,11.845 0,12.6556 0,15.4331 c 0,2.7715 1.35574,3.6541 4.13206,3.6541 z" />
    <path
       id="Copy of  path348"
       style="fill:#ff6532;fill-rule:nonzero;stroke:none"
       transform="translate(419.461,221.414)"
       d="M 36.0814,16.0419 C 36.0814,6.89997 29.0409,0 18.0737,0 7.11133,0 0,6.89997 0,16.0419 0,25.1803 7.11133,32.085 18.0737,32.085 c 10.9672,0 18.0077,-6.9047 18.0077,-16.0431 m -18.0077,9.0675 c -5.1407,0 -8.86572,-3.8559 -8.86572,-9.1371 0,-5.2117 3.65412,-9.00148 8.86572,-9.00148 5.2825,0 8.7998,3.78978 8.7998,9.00148 0,5.2115 -3.5834,9.1371 -8.7998,9.1371" />
    <path
       id="Copy of  path352"
       style="fill:#ff6532;fill-rule:nonzero;stroke:none"
       transform="translate(455.758,221.343)"
       d="m 18.1433,37.2306 h -4.198 v -9.0015 c 2.3031,1.8949 5.4841,2.9084 9.0014,2.9084 8.664,0 15.2314,-6.6322 15.2314,-15.9062 C 38.1781,6.56734 31.6815,0 22.5433,0 18.5468,0 15.301,1.55747 13.0638,4.53674 V 2.1675 c 0,-0.88141 -0.6052,-1.355739 -1.8949,-1.355739 H 6.09302 c -2.77632,0 -4.12725,0.811769 -4.12725,3.588079 0,2.36924 1.21884,3.65414 3.58808,3.65414 H 6.09302 V 37.2306 H 4.13206 C 1.35574,37.2306 0,38.1083 0,40.8847 c 0,2.7775 1.35574,3.5892 4.13206,3.5892 H 18.1433 c 2.7728,0 4.1285,-0.8117 4.1285,-3.5892 0,-2.7764 -1.3557,-3.6541 -4.1285,-3.6541 M 14.081,15.6396 c 0,-5.0807 3.181,-8.59792 7.5148,-8.59792 4.3302,0 7.5099,3.51722 7.5099,8.59792 0,5.0747 -3.2458,8.5932 -7.5099,8.5932 -4.3338,0 -7.5148,-3.5185 -7.5148,-8.5932" />
  </g>
</svg>
