<?xml version="1.0" encoding="UTF-8" standalone="no"?>
<!-- Created with Inkscape (http://www.inkscape.org/) -->

<svg
   version="1.1"
   id="svg2"
   xml:space="preserve"
   width="552"
   height="293.32913"
   viewBox="0 0 552 293.32913"
   sodipodi:docname="NetworkSketch_TwoPopulationNetworkPlastic.pdf"
   xmlns:inkscape="http://www.inkscape.org/namespaces/inkscape"
   xmlns:sodipodi="http://sodipodi.sourceforge.net/DTD/sodipodi-0.dtd"
   xmlns="http://www.w3.org/2000/svg"
   xmlns:svg="http://www.w3.org/2000/svg"><defs
     id="defs6"><clipPath
       clipPathUnits="userSpaceOnUse"
       id="clipPath16"><path
         d="M 0,0.028 H 413.971 V 219.996 L 0,219.996 Z"
         clip-rule="evenodd"
         id="path14" /></clipPath></defs><sodipodi:namedview
     id="namedview4"
     pagecolor="#ffffff"
     bordercolor="#666666"
     borderopacity="1.0"
     inkscape:pageshadow="2"
     inkscape:pageopacity="0.0"
     inkscape:pagecheckerboard="0" /><g
     id="g8"
     inkscape:groupmode="layer"
     inkscape:label="NetworkSketch_TwoPopulationNetworkPlastic"
     transform="matrix(1.3333333,0,0,-1.3333333,0,293.32913)"><g
       id="g10"><g
         id="g12"
         clip-path="url(#clipPath16)"><path
           d="M 0,219.996 H 413.972 V 0.027 L 0,0.027 Z"
           style="fill:#ffffff;fill-opacity:1;fill-rule:evenodd;stroke:none"
           id="path18" /><g
           id="g20"><path
             d="m 173.31,131.668 h 72.879"
             style="fill:none;stroke:#000000;stroke-width:1.50233;stroke-linecap:round;stroke-linejoin:round;stroke-miterlimit:10;stroke-dasharray:3.00467, 2.97632;stroke-dashoffset:0;stroke-opacity:1"
             id="path22" /></g><path
           d="m 173.735,130.988 -0.198,-0.68 -0.34,-0.681 -0.482,-0.623 -0.595,-0.482 -0.681,-0.34 -0.68,-0.17 -0.709,-0.114 -0.68,0.114 -0.709,0.17 -0.652,0.34 -0.595,0.482 -0.482,0.623 -0.34,0.681 -0.227,0.68 -0.056,0.709 0.056,0.652 0.227,0.708 0.34,0.652 0.482,0.624 0.595,0.482 0.652,0.34 0.709,0.17 0.68,0.085 0.709,-0.085 0.68,-0.17 0.681,-0.34 0.595,-0.482 0.482,-0.624 0.34,-0.652 0.198,-0.708 0.085,-0.652 z"
           style="fill:#000000;fill-opacity:1;fill-rule:evenodd;stroke:none"
           id="path24" /><g
           id="g26"><path
             d="M 236.409,168.292 H 147.685"
             style="fill:none;stroke:#000000;stroke-width:1.50233;stroke-linecap:round;stroke-linejoin:round;stroke-miterlimit:10;stroke-dasharray:3.00467, 2.97632;stroke-dashoffset:0;stroke-opacity:1"
             id="path28" /></g><path
           d="m 236.523,165.316 -0.595,-0.794 10.488,3.77 -10.488,3.742 0.566,-0.737 0.454,-0.907 0.283,-0.992 0.114,-1.049 -0.085,-1.077 -0.284,-1.021 z"
           style="fill:#000000;fill-opacity:1;fill-rule:evenodd;stroke:none"
           id="path30" /><g
           id="g32"><path
             d="m 237.061,49.974 29.311,60.293"
             style="fill:none;stroke:#000000;stroke-width:1.50233;stroke-linecap:round;stroke-linejoin:round;stroke-miterlimit:10;stroke-dasharray:none;stroke-opacity:1"
             id="path34" /></g><path
           d="m 269.093,109.048 0.425,-0.879 1.219,11.084 -7.965,-7.796 0.935,0.17 0.992,0.029 1.021,-0.17 1.02,-0.369 0.936,-0.538 0.765,-0.709 z"
           style="fill:#000000;fill-opacity:1;fill-rule:evenodd;stroke:none"
           id="path36" /><g
           id="g38"><path
             d="m 176.627,49.946 -30.614,60.406"
             style="fill:none;stroke:#000000;stroke-width:1.50233;stroke-linecap:round;stroke-linejoin:round;stroke-miterlimit:10;stroke-dasharray:none;stroke-opacity:1"
             id="path40" /></g><path
           d="m 148.62,111.769 0.993,-0.17 -8.107,7.654 1.388,-11.055 0.426,0.85 0.595,0.794 0.737,0.737 0.907,0.567 0.992,0.425 1.049,0.17 z"
           style="fill:#000000;fill-opacity:1;fill-rule:evenodd;stroke:none"
           id="path42" /><path
           d="m 196.356,171.467 c -4.819,0 -9.61,0 -14.428,0 0,2.551 0,5.131 0,7.682 9.609,0 19.19,0 28.8,0 0,-2.551 0,-5.131 0,-7.682 -4.791,0 -9.582,0 -14.372,0 z"
           style="fill:#ffffff;fill-opacity:1;fill-rule:evenodd;stroke:none"
           id="path44" /><path
           d="m 186.491,176.853 c 0,0.028 -0.056,0.113 -0.056,0.141 0,0.029 0.198,0.171 0.283,0.227 0.567,0.454 1.162,0.907 1.758,1.361 0.935,0.68 1.332,0.708 1.615,0.737 0.085,0.028 0.17,0.028 0.17,0.198 0,0.057 -0.028,0.114 -0.085,0.114 -0.226,0 -0.482,-0.029 -0.708,-0.029 -0.369,0 -0.766,0.029 -1.106,0.029 -0.085,0 -0.198,0 -0.198,-0.199 0,-0.056 0.056,-0.085 0.113,-0.113 0.227,0 0.312,-0.057 0.312,-0.199 0,-0.17 -0.283,-0.396 -0.369,-0.453 -1.303,-0.992 -2.579,-1.984 -3.883,-2.977 0.283,1.078 0.539,2.126 0.822,3.175 0.085,0.369 0.085,0.454 0.822,0.454 0.255,0 0.34,0 0.34,0.198 0,0.085 -0.085,0.114 -0.141,0.114 -0.284,0 -0.993,-0.029 -1.276,-0.029 -0.284,0 -0.992,0.029 -1.276,0.029 -0.085,0 -0.198,0 -0.198,-0.199 0,-0.113 0.085,-0.113 0.283,-0.113 0.142,0 0.312,0 0.426,0 0.17,-0.029 0.226,-0.057 0.226,-0.17 0,-0.029 -0.028,-0.085 -0.056,-0.199 -0.454,-1.757 -0.879,-3.543 -1.333,-5.3 -0.085,-0.397 -0.113,-0.454 -0.907,-0.454 -0.17,0 -0.255,0 -0.255,-0.198 0,-0.114 0.114,-0.114 0.142,-0.114 0.283,0 0.992,0.029 1.247,0.029 0.227,0 0.454,0 0.652,0 0.227,0 0.425,-0.029 0.652,-0.029 0.057,0 0.199,0 0.199,0.199 0,0.113 -0.086,0.113 -0.284,0.113 -0.368,0 -0.652,0 -0.652,0.17 0,0.057 0.057,0.284 0.085,0.425 0.142,0.539 0.284,1.049 0.397,1.531 0.51,0.397 0.992,0.794 1.502,1.162 0.369,-0.879 0.766,-1.757 1.134,-2.636 0.142,-0.283 0.142,-0.283 0.142,-0.34 0,-0.312 -0.425,-0.312 -0.539,-0.312 -0.113,0 -0.198,0 -0.198,-0.198 0,-0.114 0.113,-0.114 0.142,-0.114 0.396,0 0.793,0.029 1.19,0.029 0.227,0 0.766,-0.029 0.992,-0.029 0.057,0 0.17,0 0.17,0.199 0,0.113 -0.113,0.113 -0.198,0.113 -0.397,0 -0.539,0.085 -0.68,0.425 -0.482,1.077 -0.964,2.155 -1.418,3.232 z"
           style="fill:#000000;fill-opacity:1;fill-rule:evenodd;stroke:none"
           id="path46" /><path
           d="m 191.112,176.144 c -0.227,0 -0.482,0 -0.709,0 0,-0.227 0,-0.482 0,-0.709 0.227,0 0.482,0 0.709,0 0,0.227 0,0.482 0,0.709 z m -0.057,-1.701 c -0.198,0 -0.397,0 -0.595,0 0,-1.02 0,-2.041 0,-3.061 0.198,0 0.397,0 0.595,0 0,1.02 0,2.041 0,3.061 z"
           style="fill:#000000;fill-opacity:1;fill-rule:evenodd;stroke:none"
           id="path48" /><path
           d="m 194.882,173.451 c 0,0.539 -0.17,1.106 -1.021,1.106 -0.396,0 -0.765,-0.17 -1.077,-0.539 0,0.17 0,0.34 0,0.51 -0.198,0 -0.368,0 -0.567,0 0,-1.049 0,-2.097 0,-3.146 0.199,0 0.426,0 0.624,0 0,0.567 0,1.134 0,1.701 0,0.453 0.198,0.992 0.709,0.992 0.737,0 0.737,-0.482 0.737,-0.681 0,-0.652 0,-1.332 0,-2.012 0.198,0 0.396,0 0.595,0 0,0.708 0,1.389 0,2.069 z"
           style="fill:#000000;fill-opacity:1;fill-rule:evenodd;stroke:none"
           id="path50" /><path
           d="m 197.972,172.884 c 0,0.652 -0.255,1.049 -0.652,1.049 -0.312,0 -0.539,-0.255 -0.539,-0.539 0,-0.255 0.227,-0.51 0.539,-0.51 0.113,0 0.255,0.029 0.34,0.114 0.028,0.028 0.028,0.028 0.057,0.028 0,-0.057 0.028,0 0.028,-0.142 0,-0.737 -0.34,-1.332 -0.68,-1.644 -0.114,-0.113 -0.114,-0.142 -0.114,-0.17 0,-0.057 0.057,-0.113 0.114,-0.113 0.085,0 0.907,0.765 0.907,1.927 z"
           style="fill:#000000;fill-opacity:1;fill-rule:evenodd;stroke:none"
           id="path52" /><path
           d="m 206.674,174.925 c -0.652,1.531 -1.276,3.033 -1.928,4.536 -0.056,0.198 -0.085,0.198 -0.34,0.198 -0.623,0 -1.219,0 -1.842,0 -0.199,0 -0.34,0 -0.34,-0.17 0,-0.17 0.17,-0.17 0.226,-0.17 0.114,0 0.397,-0.029 0.596,-0.114 0,-1.757 0,-3.515 0,-5.272 0,-0.198 0,-0.652 -0.652,-0.709 -0.199,-0.028 -0.142,-0.113 -0.199,-0.17 0,-0.17 0.142,-0.17 0.34,-0.17 0.511,0 1.021,0 1.531,0 0.199,0 0.34,0 0.34,0.17 0,0.085 -0.085,0.17 -0.17,0.17 -0.765,0.057 -0.765,0.482 -0.765,0.709 0,1.616 0,3.26 0,4.904 l 0.028,0.028 c 0.794,-1.927 1.616,-3.855 2.41,-5.782 0.085,-0.17 0.141,-0.199 0.226,-0.199 0.114,0 0.142,0.085 0.199,0.199 0.822,1.927 1.616,3.855 2.438,5.782 v -0.028 c 0,-1.644 0,-3.288 0,-4.904 0,-0.198 0,-0.652 -0.681,-0.709 -0.198,-0.028 -0.141,-0.113 -0.198,-0.17 0,-0.17 0.17,-0.17 0.34,-0.17 0.879,0 1.758,0 2.665,0 0.198,0 0.34,0 0.34,0.17 0,0.085 -0.085,0.17 -0.17,0.17 -0.766,0.057 -0.766,0.482 -0.766,0.709 0,1.559 0,3.118 0,4.677 0,0.199 0,0.624 0.681,0.709 0.113,0 0.198,0.057 0.198,0.17 0,0.17 -0.17,0.17 -0.34,0.17 -0.652,0 -1.304,0 -1.928,0 -0.255,0 -0.283,0 -0.368,-0.227 -0.624,-1.502 -1.247,-3.005 -1.871,-4.507 z m -0.312,-0.142 c 0.085,-0.17 0.085,-0.17 0.199,-0.226 -0.142,-0.369 -0.284,-0.709 -0.426,-1.049 h -0.028 c -0.765,1.786 -1.502,3.6 -2.268,5.386 -0.056,0.113 -0.113,0.283 -0.255,0.425 0.284,0 0.567,0 0.851,0 0.652,-1.503 1.275,-3.033 1.927,-4.536 z m -3.005,-1.559 c -0.056,0 -0.113,0 -0.17,0 0.029,0.029 0.029,0.057 0.057,0.085 0,0 0,0.029 0.028,0.029 0.029,-0.057 0.057,-0.085 0.085,-0.114 z m 5.755,6.095 c 0.34,0 0.708,0 1.077,0 -0.227,-0.255 -0.227,-0.51 -0.227,-0.709 0,-1.559 0,-3.146 0,-4.705 0,-0.17 0,-0.426 0.227,-0.681 -0.425,0 -0.85,0 -1.276,0 0.199,0.255 0.199,0.511 0.199,0.681 0,1.785 0,3.6 0,5.414 z"
           style="fill:#000000;fill-opacity:1;fill-rule:evenodd;stroke:none"
           id="path54" /><path
           d="m 195.874,157.18 c -5.868,0 -11.707,0 -17.546,0 0,2.58 0,5.188 0,7.767 11.678,0 23.357,0 35.036,0 0,-2.579 0,-5.187 0,-7.767 -5.84,0 -11.679,0 -17.49,0 z"
           style="fill:#ffffff;fill-opacity:1;fill-rule:evenodd;stroke:none"
           id="path56" /><path
           d="m 182.891,162.566 c 0,0.028 -0.056,0.113 -0.056,0.142 0,0.028 0.198,0.142 0.283,0.227 0.595,0.453 1.162,0.878 1.758,1.332 0.935,0.709 1.332,0.737 1.615,0.765 0.085,0 0.17,0.029 0.17,0.199 0,0.056 -0.028,0.113 -0.085,0.113 -0.226,0 -0.482,-0.028 -0.708,-0.028 -0.369,0 -0.766,0.028 -1.106,0.028 -0.085,0 -0.198,0 -0.198,-0.198 0,-0.057 0.056,-0.114 0.113,-0.114 0.227,-0.028 0.312,-0.056 0.312,-0.198 0,-0.199 -0.283,-0.425 -0.369,-0.454 -1.303,-0.992 -2.579,-1.984 -3.883,-2.976 0.283,1.077 0.539,2.126 0.822,3.175 0.085,0.368 0.085,0.453 0.822,0.453 0.255,0 0.34,0 0.34,0.199 0,0.085 -0.085,0.113 -0.141,0.113 -0.284,0 -0.993,-0.028 -1.276,-0.028 -0.284,0 -0.992,0.028 -1.276,0.028 -0.085,0 -0.198,0 -0.198,-0.198 0,-0.114 0.085,-0.114 0.283,-0.114 0.142,0 0.312,0 0.426,-0.028 0.17,0 0.226,-0.028 0.226,-0.142 0,-0.057 -0.028,-0.085 -0.056,-0.198 -0.454,-1.758 -0.879,-3.544 -1.333,-5.301 -0.085,-0.397 -0.113,-0.454 -0.907,-0.454 -0.17,0 -0.255,0 -0.255,-0.198 0,-0.113 0.114,-0.113 0.142,-0.113 0.283,0 0.992,0.028 1.247,0.028 0.227,0 0.454,-0.028 0.652,-0.028 0.227,0 0.425,0 0.652,0 0.057,0 0.199,0 0.199,0.198 0,0.113 -0.086,0.113 -0.284,0.113 -0.368,0 -0.652,0 -0.652,0.17 0,0.057 0.057,0.284 0.085,0.426 0.142,0.538 0.284,1.048 0.397,1.53 0.51,0.397 0.992,0.794 1.502,1.163 0.369,-0.879 0.766,-1.758 1.134,-2.637 0.142,-0.283 0.142,-0.283 0.142,-0.368 0,-0.284 -0.425,-0.284 -0.539,-0.284 -0.113,0 -0.198,0 -0.198,-0.198 0,-0.113 0.113,-0.113 0.142,-0.113 0.396,0 0.793,0.028 1.19,0.028 0.227,0 0.766,-0.028 0.992,-0.028 0.057,0 0.17,0 0.17,0.198 0,0.113 -0.113,0.113 -0.198,0.113 -0.397,0 -0.539,0.085 -0.68,0.426 -0.482,1.077 -0.936,2.154 -1.418,3.231 z"
           style="fill:#000000;fill-opacity:1;fill-rule:evenodd;stroke:none"
           id="path58" /><path
           d="m 190.091,159.335 c 0,0.17 0,0.311 0,0.453 -0.822,0 -1.615,0 -2.437,0 0,0.539 0,1.077 0,1.616 0.34,0 0.68,0 1.02,0 0.085,0 0.17,-0.028 0.255,-0.028 0.454,0 0.907,0 1.361,0 0,0.17 0,0.34 0,0.51 -1.106,0 -2.24,0 -3.345,0 0,-1.588 0,-3.203 0,-4.791 1.162,0 2.296,0 3.458,0 0,0.17 0,0.34 0,0.51 -0.198,0 -0.425,0 -0.623,0 -0.596,0 -1.163,0 -1.758,0 -0.113,0 -0.255,0 -0.368,0 0,0.596 0,1.163 0,1.73 0.822,0 1.615,0 2.437,0 z"
           style="fill:#000000;fill-opacity:1;fill-rule:evenodd;stroke:none"
           id="path60" /><path
           d="m 193.238,158.598 c 0,0.652 -0.255,1.048 -0.624,1.048 -0.34,0 -0.538,-0.255 -0.538,-0.538 0,-0.255 0.198,-0.51 0.538,-0.51 0.114,0 0.227,0.028 0.34,0.113 0.029,0.028 0.029,0.028 0.057,0.028 0,-0.056 0,0 0,-0.141 0,-0.737 -0.34,-1.333 -0.68,-1.645 -0.085,-0.113 -0.085,-0.141 -0.085,-0.17 0,-0.056 0.028,-0.113 0.085,-0.113 0.113,0 0.907,0.765 0.907,1.928 z"
           style="fill:#000000;fill-opacity:1;fill-rule:evenodd;stroke:none"
           id="path62" /><path
           d="m 202.649,164.607 c 0.085,0.34 0.113,0.425 0.652,0.425 0.17,0 0.283,0 0.283,0.199 0,0.085 -0.056,0.113 -0.141,0.113 -0.256,0 -0.851,-0.028 -1.106,-0.028 -0.34,0 -1.134,0.028 -1.474,0.028 -0.085,0 -0.198,0 -0.198,-0.198 0,-0.114 0.085,-0.114 0.34,-0.114 0.226,0 0.312,0 0.567,-0.028 0.255,-0.028 0.311,-0.057 0.311,-0.199 0,-0.056 -0.028,-0.113 -0.028,-0.198 -0.397,-1.502 -0.765,-3.033 -1.162,-4.535 -0.227,-0.964 -0.907,-1.474 -1.417,-1.474 -0.284,0 -0.794,0.085 -0.964,0.595 0.028,0 0.085,0 0.113,0 0.397,0 0.652,0.34 0.652,0.652 0,0.312 -0.255,0.397 -0.425,0.397 -0.17,0 -0.68,-0.114 -0.68,-0.794 0,-0.595 0.538,-1.077 1.332,-1.077 0.907,0 1.956,0.652 2.183,1.644 0.396,1.531 0.765,3.061 1.162,4.592 z"
           style="fill:#000000;fill-opacity:1;fill-rule:evenodd;stroke:none"
           id="path64" /><path
           d="m 204.661,158.598 c 0,0.652 -0.255,1.048 -0.623,1.048 -0.34,0 -0.539,-0.255 -0.539,-0.538 0,-0.255 0.199,-0.51 0.539,-0.51 0.113,0 0.255,0.028 0.34,0.113 0.028,0.028 0.028,0.028 0.057,0.028 0,-0.056 0,0 0,-0.141 0,-0.737 -0.341,-1.333 -0.652,-1.645 -0.114,-0.113 -0.114,-0.141 -0.114,-0.17 0,-0.056 0.029,-0.113 0.085,-0.113 0.114,0 0.907,0.765 0.907,1.928 z"
           style="fill:#000000;fill-opacity:1;fill-rule:evenodd;stroke:none"
           id="path66" /><path
           d="m 213.874,165.344 c -0.057,0.028 0,0.113 -0.142,0.113 -0.141,0 -1.077,-0.085 -1.247,-0.113 -0.085,0 -0.142,-0.057 -0.142,-0.198 0,-0.114 0.085,-0.114 0.227,-0.114 0.482,0 0.51,-0.056 0.51,-0.17 0,-0.057 -0.028,-0.142 -0.028,-0.198 -0.198,-0.794 -0.397,-1.559 -0.595,-2.353 -0.199,0.368 -0.482,0.652 -0.936,0.652 -1.162,0 -2.381,-1.474 -2.381,-2.891 0,-0.936 0.539,-1.588 1.304,-1.588 0.199,0 0.709,0.029 1.304,0.737 0.085,-0.425 0.425,-0.737 0.907,-0.737 0.34,0 0.567,0.227 0.737,0.539 0.17,0.368 0.284,0.964 0.284,0.992 0,0.085 -0.085,0.085 -0.114,0.085 -0.085,0 -0.113,-0.028 -0.142,-0.17 -0.17,-0.652 -0.34,-1.219 -0.737,-1.219 -0.283,0 -0.311,0.255 -0.311,0.454 0,0.226 0.028,0.311 0.056,0.481 0.482,1.9 0.964,3.799 1.446,5.698 z m -2.069,-5.584 c -0.057,-0.17 -0.057,-0.199 -0.199,-0.369 -0.453,-0.538 -0.85,-0.68 -1.134,-0.68 -0.51,0 -0.623,0.539 -0.623,0.935 0,0.482 0.312,1.673 0.538,2.126 0.312,0.596 0.766,0.964 1.163,0.964 0.623,0 0.765,-0.822 0.765,-0.879 0,-0.056 0,-0.113 -0.028,-0.17 -0.17,-0.652 -0.312,-1.275 -0.482,-1.927 z"
           style="fill:#000000;fill-opacity:1;fill-rule:evenodd;stroke:none"
           id="path68" /><g
           id="g70"><path
             d="M 125.688,149.952 H 90.85 v 50.457 h 50.514 v -9.44"
             style="fill:none;stroke:#000000;stroke-width:1.50233;stroke-linecap:round;stroke-linejoin:round;stroke-miterlimit:10;stroke-dasharray:3.00467, 2.97632;stroke-dashoffset:0;stroke-opacity:1"
             id="path72" /></g><path
           d="m 138.387,190.856 -0.765,0.595 3.742,-10.488 3.77,10.488 -0.765,-0.567 -0.908,-0.453 -0.992,-0.284 -1.049,-0.113 -1.077,0.085 -1.02,0.283 z"
           style="fill:#000000;fill-opacity:1;fill-rule:evenodd;stroke:none"
           id="path74" /><g
           id="g76"><path
             d="m 301.408,149.952 h 19.956 v 50.457 h -50.627 v -12.671"
             style="fill:none;stroke:#000000;stroke-width:1.50233;stroke-linecap:round;stroke-linejoin:round;stroke-miterlimit:10;stroke-dasharray:3.00467, 2.97632;stroke-dashoffset:0;stroke-opacity:1"
             id="path78" /></g><path
           d="m 271.417,188.163 0.681,-0.198 0.68,-0.341 0.624,-0.482 0.481,-0.595 0.341,-0.68 0.17,-0.68 0.113,-0.709 -0.113,-0.68 -0.17,-0.709 -0.341,-0.652 -0.481,-0.595 -0.624,-0.482 -0.68,-0.34 -0.681,-0.227 -0.708,-0.057 -0.652,0.057 -0.709,0.227 -0.652,0.34 -0.624,0.482 -0.481,0.595 -0.341,0.652 -0.17,0.709 -0.085,0.68 0.085,0.709 0.17,0.68 0.341,0.68 0.481,0.595 0.624,0.482 0.652,0.341 0.709,0.198 0.652,0.085 z"
           style="fill:#000000;fill-opacity:1;fill-rule:evenodd;stroke:none"
           id="path80" /><path
           d="m 205.569,134.787 c -4.819,0 -9.61,0 -14.429,0 0,2.551 0,5.13 0,7.681 9.61,0 19.191,0 28.8,0 0,-2.551 0,-5.13 0,-7.681 -4.79,0 -9.581,0 -14.371,0 z"
           style="fill:#ffffff;fill-opacity:1;fill-rule:evenodd;stroke:none"
           id="path82" /><path
           d="m 195.704,140.172 c 0,0.029 -0.057,0.114 -0.057,0.142 0,0.028 0.199,0.17 0.284,0.227 0.567,0.453 1.162,0.907 1.757,1.361 0.936,0.68 1.332,0.708 1.616,0.737 0.085,0.028 0.17,0.028 0.17,0.198 0,0.057 -0.028,0.113 -0.085,0.113 -0.227,0 -0.482,-0.028 -0.709,-0.028 -0.368,0 -0.765,0.028 -1.105,0.028 -0.085,0 -0.199,0 -0.199,-0.198 0,-0.057 0.057,-0.085 0.114,-0.113 0.227,0 0.312,-0.057 0.312,-0.199 0,-0.17 -0.284,-0.397 -0.369,-0.453 -1.304,-0.993 -2.579,-1.985 -3.883,-2.977 0.283,1.077 0.538,2.126 0.822,3.175 0.085,0.368 0.085,0.454 0.822,0.454 0.255,0 0.34,0 0.34,0.198 0,0.085 -0.085,0.113 -0.142,0.113 -0.283,0 -0.992,-0.028 -1.275,-0.028 -0.284,0 -0.993,0.028 -1.276,0.028 -0.085,0 -0.198,0 -0.198,-0.198 0,-0.113 0.085,-0.113 0.283,-0.113 0.142,0 0.312,0 0.425,0 0.17,-0.029 0.227,-0.057 0.227,-0.171 0,-0.028 -0.028,-0.085 -0.057,-0.198 -0.453,-1.757 -0.878,-3.543 -1.332,-5.301 -0.085,-0.397 -0.113,-0.453 -0.907,-0.453 -0.17,0 -0.255,0 -0.255,-0.199 0,-0.113 0.113,-0.113 0.142,-0.113 0.283,0 0.992,0.028 1.247,0.028 0.227,0 0.453,0 0.652,0 0.226,0 0.425,-0.028 0.652,-0.028 0.056,0 0.198,0 0.198,0.198 0,0.114 -0.085,0.114 -0.283,0.114 -0.369,0 -0.652,0 -0.652,0.17 0,0.056 0.056,0.283 0.085,0.425 0.141,0.539 0.283,1.049 0.397,1.531 0.51,0.397 0.992,0.793 1.502,1.162 0.368,-0.879 0.765,-1.758 1.134,-2.636 0.142,-0.284 0.142,-0.284 0.142,-0.341 0,-0.311 -0.426,-0.311 -0.539,-0.311 -0.113,0 -0.198,0 -0.198,-0.199 0,-0.113 0.113,-0.113 0.141,-0.113 0.397,0 0.794,0.028 1.191,0.028 0.227,0 0.765,-0.028 0.992,-0.028 0.057,0 0.17,0 0.17,0.198 0,0.114 -0.113,0.114 -0.198,0.114 -0.397,0 -0.539,0.085 -0.681,0.425 -0.482,1.077 -0.964,2.154 -1.417,3.231 z"
           style="fill:#000000;fill-opacity:1;fill-rule:evenodd;stroke:none"
           id="path84" /><path
           d="m 200.324,139.464 c -0.226,0 -0.481,0 -0.708,0 0,-0.227 0,-0.482 0,-0.709 0.227,0 0.482,0 0.708,0 0,0.227 0,0.482 0,0.709 z m -0.056,-1.701 c -0.199,0 -0.397,0 -0.596,0 0,-1.021 0,-2.041 0,-3.061 0.199,0 0.397,0 0.596,0 0,1.02 0,2.04 0,3.061 z"
           style="fill:#000000;fill-opacity:1;fill-rule:evenodd;stroke:none"
           id="path86" /><path
           d="m 204.094,136.771 c 0,0.538 -0.17,1.105 -1.02,1.105 -0.397,0 -0.765,-0.17 -1.077,-0.538 0,0.17 0,0.34 0,0.51 -0.199,0 -0.369,0 -0.567,0 0,-1.049 0,-2.098 0,-3.146 0.198,0 0.425,0 0.624,0 0,0.566 0,1.133 0,1.7 0,0.454 0.198,0.992 0.708,0.992 0.737,0 0.737,-0.481 0.737,-0.68 0,-0.652 0,-1.332 0,-2.012 0.199,0 0.397,0 0.595,0 0,0.708 0,1.388 0,2.069 z"
           style="fill:#000000;fill-opacity:1;fill-rule:evenodd;stroke:none"
           id="path88" /><path
           d="m 207.184,136.204 c 0,0.652 -0.255,1.049 -0.652,1.049 -0.312,0 -0.538,-0.255 -0.538,-0.539 0,-0.255 0.226,-0.51 0.538,-0.51 0.114,0 0.255,0.028 0.34,0.113 0.029,0.029 0.029,0.029 0.057,0.029 0,-0.057 0.028,0 0.028,-0.142 0,-0.737 -0.34,-1.332 -0.68,-1.644 -0.113,-0.114 -0.113,-0.142 -0.113,-0.17 0,-0.057 0.056,-0.114 0.113,-0.114 0.085,0 0.907,0.766 0.907,1.928 z"
           style="fill:#000000;fill-opacity:1;fill-rule:evenodd;stroke:none"
           id="path90" /><path
           d="m 215.887,138.245 c -0.652,1.531 -1.276,3.033 -1.928,4.535 -0.057,0.199 -0.085,0.199 -0.34,0.199 -0.624,0 -1.219,0 -1.843,0 -0.198,0 -0.34,0 -0.34,-0.17 0,-0.17 0.17,-0.17 0.227,-0.17 0.113,0 0.397,-0.029 0.595,-0.114 0,-1.757 0,-3.515 0,-5.272 0,-0.199 0,-0.652 -0.652,-0.709 -0.198,-0.028 -0.141,-0.113 -0.198,-0.17 0,-0.17 0.142,-0.17 0.34,-0.17 0.51,0 1.021,0 1.531,0 0.198,0 0.34,0 0.34,0.17 0,0.085 -0.085,0.17 -0.17,0.17 -0.766,0.057 -0.766,0.482 -0.766,0.709 0,1.615 0,3.26 0,4.904 l 0.029,0.028 c 0.794,-1.928 1.616,-3.855 2.409,-5.783 0.085,-0.17 0.142,-0.198 0.227,-0.198 0.113,0 0.142,0.085 0.198,0.198 0.823,1.928 1.616,3.855 2.438,5.783 v -0.028 c 0,-1.644 0,-3.289 0,-4.904 0,-0.199 0,-0.652 -0.68,-0.709 -0.198,-0.028 -0.142,-0.113 -0.198,-0.17 0,-0.17 0.17,-0.17 0.34,-0.17 0.878,0 1.757,0 2.664,0 0.199,0 0.34,0 0.34,0.17 0,0.085 -0.085,0.17 -0.17,0.17 -0.765,0.057 -0.765,0.482 -0.765,0.709 0,1.559 0,3.118 0,4.677 0,0.198 0,0.623 0.68,0.709 0.114,0 0.199,0.056 0.199,0.17 0,0.17 -0.17,0.17 -0.34,0.17 -0.652,0 -1.304,0 -1.928,0 -0.255,0 -0.283,0 -0.369,-0.227 -0.623,-1.502 -1.247,-3.005 -1.87,-4.507 z m -0.312,-0.142 c 0.085,-0.17 0.085,-0.17 0.198,-0.227 -0.142,-0.368 -0.283,-0.708 -0.425,-1.049 h -0.028 c -0.766,1.786 -1.503,3.6 -2.268,5.386 -0.057,0.114 -0.113,0.284 -0.255,0.426 0.283,0 0.567,0 0.85,0 0.652,-1.503 1.276,-3.034 1.928,-4.536 z m -3.005,-1.559 c -0.057,0 -0.113,0 -0.17,0 0.028,0.028 0.028,0.057 0.057,0.085 0,0 0,0.028 0.028,0.028 0.028,-0.056 0.057,-0.085 0.085,-0.113 z m 5.754,6.095 c 0.341,0 0.709,0 1.078,0 -0.227,-0.256 -0.227,-0.511 -0.227,-0.709 0,-1.559 0,-3.147 0,-4.706 0,-0.17 0,-0.425 0.227,-0.68 -0.426,0 -0.851,0 -1.276,0 0.198,0.255 0.198,0.51 0.198,0.68 0,1.786 0,3.6 0,5.415 z"
           style="fill:#000000;fill-opacity:1;fill-rule:evenodd;stroke:none"
           id="path92" /><path
           d="m 180.142,128.097 c 15.165,0 30.33,0 45.496,0 0,-2.636 0,-5.244 0,-7.881 -15.166,0 -30.331,0 -45.496,0 0,2.637 0,5.245 0,7.881 z"
           style="fill:#ffffff;fill-opacity:1;fill-rule:evenodd;stroke:none"
           id="path94" /><path
           d="m 184.706,125.716 c -0.029,0.028 -0.057,0.113 -0.057,0.141 0,0.029 0.17,0.17 0.283,0.227 0.596,0.454 1.162,0.907 1.758,1.361 0.935,0.68 1.304,0.708 1.616,0.737 0.085,0.028 0.17,0.028 0.17,0.198 0,0.057 -0.029,0.114 -0.114,0.114 -0.198,0 -0.453,-0.029 -0.708,-0.029 -0.341,0 -0.737,0.029 -1.106,0.029 -0.057,0 -0.17,0 -0.17,-0.199 0,-0.056 0.057,-0.085 0.113,-0.113 0.227,0 0.312,-0.057 0.312,-0.199 0,-0.17 -0.312,-0.396 -0.368,-0.453 -1.304,-0.992 -2.58,-1.984 -3.884,-2.977 0.255,1.078 0.539,2.126 0.794,3.175 0.113,0.369 0.113,0.454 0.85,0.454 0.255,0 0.34,0 0.34,0.198 0,0.085 -0.085,0.114 -0.141,0.114 -0.284,0 -0.992,-0.029 -1.276,-0.029 -0.283,0 -0.992,0.029 -1.275,0.029 -0.086,0 -0.199,0 -0.199,-0.199 0,-0.113 0.085,-0.113 0.284,-0.113 0.113,0 0.311,0 0.425,0 0.17,-0.029 0.227,-0.057 0.227,-0.17 0,-0.029 -0.029,-0.057 -0.057,-0.199 -0.454,-1.757 -0.879,-3.543 -1.332,-5.3 -0.085,-0.397 -0.114,-0.454 -0.908,-0.454 -0.17,0 -0.283,0 -0.283,-0.198 0,-0.114 0.142,-0.114 0.17,-0.114 0.255,0 0.964,0.029 1.247,0.029 0.227,0 0.426,0 0.652,0 0.199,0 0.425,-0.029 0.652,-0.029 0.057,0 0.199,0 0.199,0.199 0,0.113 -0.114,0.113 -0.284,0.113 -0.368,0 -0.652,0 -0.652,0.17 0,0.057 0.057,0.284 0.085,0.425 0.142,0.539 0.284,1.049 0.397,1.531 0.482,0.397 0.992,0.794 1.474,1.162 0.397,-0.879 0.766,-1.757 1.162,-2.636 0.114,-0.284 0.114,-0.284 0.114,-0.34 0,-0.312 -0.425,-0.312 -0.51,-0.312 -0.114,0 -0.227,0 -0.227,-0.198 0,-0.114 0.085,-0.085 0.141,-0.114 0.397,0 0.823,0.029 1.219,0.029 0.227,0 0.766,-0.029 0.992,-0.029 0.029,0 0.171,0 0.171,0.199 0,0.113 -0.114,0.113 -0.199,0.113 -0.397,0 -0.538,0.085 -0.68,0.425 -0.482,1.077 -0.936,2.155 -1.417,3.232 z"
           style="fill:#000000;fill-opacity:1;fill-rule:evenodd;stroke:none"
           id="path96" /><path
           d="m 188.759,125.035 c 0.227,0 0.482,0 0.709,0 0,-1.587 0,-3.203 0,-4.79 -0.227,0 -0.482,0 -0.709,0 0,1.587 0,3.203 0,4.79 z"
           style="fill:#000000;fill-opacity:1;fill-rule:evenodd;stroke:none"
           id="path98" /><path
           d="m 192.671,121.747 c 0,0.652 -0.255,1.049 -0.652,1.049 -0.312,0 -0.51,-0.255 -0.51,-0.539 0,-0.255 0.198,-0.51 0.51,-0.51 0.142,0 0.255,0.029 0.368,0.114 0.029,0.028 0.029,0.028 0.029,0.028 0.028,0 0.028,0 0.028,-0.142 0,-0.737 -0.34,-1.332 -0.68,-1.644 -0.114,-0.113 -0.114,-0.142 -0.114,-0.17 0,-0.057 0.057,-0.113 0.114,-0.113 0.113,0 0.907,0.765 0.907,1.927 z"
           style="fill:#000000;fill-opacity:1;fill-rule:evenodd;stroke:none"
           id="path100" /><path
           d="m 203.301,123.987 c 0.17,0 0.34,0 0.34,0.198 0,0.198 -0.17,0.198 -0.34,0.198 -1.786,0 -3.6,0 -5.386,0 -0.17,0 -0.369,0 -0.369,-0.198 0,-0.198 0.199,-0.198 0.369,-0.198 1.786,0 3.6,0 5.386,0 z"
           style="fill:#000000;fill-opacity:1;fill-rule:evenodd;stroke:none"
           id="path102" /><path
           d="m 209.14,125.461 c 0,0.056 0.029,0.113 0.029,0.17 0,0.17 -0.114,0.283 -0.284,0.283 -0.113,0 -0.368,-0.085 -0.425,-0.425 -0.17,0.368 -0.51,0.624 -0.907,0.624 -1.134,0 -2.381,-1.389 -2.381,-2.835 0,-0.964 0.595,-1.559 1.332,-1.559 0.567,0 1.049,0.453 1.134,0.567 h 0.028 c -0.227,-0.851 -0.227,-0.851 -0.34,-1.276 -0.028,-0.113 -0.369,-1.077 -1.417,-1.077 -0.199,0 -0.539,0 -0.794,0.085 0.283,0.085 0.397,0.34 0.397,0.51 0,0.17 -0.114,0.369 -0.369,0.369 -0.226,0 -0.538,-0.199 -0.538,-0.595 0,-0.397 0.368,-0.596 1.304,-0.596 1.247,0 1.984,0.766 2.126,1.361 0.368,1.446 0.737,2.92 1.105,4.394 z m -1.304,-2.467 c -0.056,-0.255 -0.283,-0.51 -0.51,-0.708 -0.198,-0.17 -0.51,-0.34 -0.794,-0.34 -0.51,0 -0.652,0.51 -0.652,0.907 0,0.482 0.284,1.644 0.567,2.154 0.255,0.482 0.681,0.879 1.106,0.879 0.652,0 0.793,-0.794 0.793,-0.851 0,-0.056 -0.028,-0.113 -0.028,-0.141 -0.17,-0.624 -0.312,-1.248 -0.482,-1.9 z"
           style="fill:#000000;fill-opacity:1;fill-rule:evenodd;stroke:none"
           id="path104" /><path
           d="m 214.951,127.785 c 0.057,0.312 0.085,0.397 0.624,0.397 0.17,0 0.283,0 0.283,0.198 0,0.085 -0.056,0.114 -0.141,0.114 -0.256,0 -0.851,-0.029 -1.106,-0.029 -0.34,0 -1.134,0.029 -1.474,0.029 -0.085,0 -0.198,0 -0.198,-0.199 0,-0.113 0.085,-0.113 0.34,-0.113 0.227,0 0.312,0 0.567,0 0.255,-0.029 0.311,-0.085 0.311,-0.199 0,-0.085 -0.028,-0.141 -0.028,-0.226 -0.397,-1.503 -0.765,-3.033 -1.162,-4.536 -0.227,-0.964 -0.907,-1.474 -1.417,-1.474 -0.256,0 -0.794,0.085 -0.964,0.624 0.028,-0.029 0.113,-0.029 0.142,-0.029 0.368,0 0.623,0.341 0.623,0.652 0,0.312 -0.255,0.397 -0.425,0.397 -0.17,0 -0.68,-0.113 -0.68,-0.793 0,-0.596 0.538,-1.078 1.332,-1.078 0.907,0 1.956,0.652 2.183,1.645 0.396,1.53 0.793,3.089 1.19,4.62 z"
           style="fill:#000000;fill-opacity:1;fill-rule:evenodd;stroke:none"
           id="path106" /><path
           d="m 216.935,121.747 c 0,0.652 -0.226,1.049 -0.623,1.049 -0.34,0 -0.539,-0.255 -0.539,-0.539 0,-0.255 0.199,-0.51 0.539,-0.51 0.113,0 0.255,0.029 0.34,0.114 0.028,0.028 0.028,0.028 0.057,0.028 0,-0.057 0.028,0 0.028,-0.142 0,-0.737 -0.368,-1.332 -0.68,-1.644 -0.114,-0.113 -0.114,-0.142 -0.114,-0.17 0,-0.057 0.057,-0.113 0.085,-0.113 0.114,0 0.907,0.765 0.907,1.927 z"
           style="fill:#000000;fill-opacity:1;fill-rule:evenodd;stroke:none"
           id="path108" /><path
           d="m 226.148,128.494 c -0.057,0.028 0,0.113 -0.142,0.113 -0.141,0 -1.077,-0.085 -1.247,-0.113 -0.085,0 -0.142,-0.057 -0.142,-0.199 0,-0.113 0.085,-0.113 0.227,-0.113 0.482,0 0.51,-0.057 0.51,-0.17 0,-0.057 -0.028,-0.142 -0.028,-0.199 -0.198,-0.765 -0.397,-1.559 -0.595,-2.352 -0.199,0.368 -0.482,0.652 -0.936,0.652 -1.162,0 -2.381,-1.474 -2.381,-2.892 0,-0.935 0.539,-1.587 1.332,-1.587 0.199,0 0.681,0.028 1.276,0.737 0.085,-0.397 0.425,-0.737 0.907,-0.737 0.34,0 0.595,0.227 0.737,0.538 0.17,0.369 0.312,0.964 0.312,0.993 0,0.085 -0.085,0.085 -0.142,0.085 -0.085,0 -0.085,-0.029 -0.113,-0.171 -0.17,-0.652 -0.369,-1.218 -0.766,-1.218 -0.283,0 -0.311,0.255 -0.311,0.453 0,0.227 0.028,0.312 0.056,0.482 0.482,1.899 0.964,3.798 1.446,5.698 z m -2.069,-5.556 c -0.057,-0.199 -0.057,-0.199 -0.199,-0.369 -0.453,-0.567 -0.85,-0.708 -1.134,-0.708 -0.481,0 -0.623,0.538 -0.623,0.935 0,0.482 0.312,1.672 0.538,2.126 0.312,0.595 0.766,0.964 1.163,0.964 0.652,0 0.793,-0.822 0.793,-0.879 0,-0.057 -0.028,-0.113 -0.056,-0.17 -0.17,-0.624 -0.312,-1.276 -0.482,-1.899 z"
           style="fill:#000000;fill-opacity:1;fill-rule:evenodd;stroke:none"
           id="path110" /><path
           d="m 34.016,187.029 c 17.83,0 35.688,0 53.518,0 0,-7.937 0,-15.874 0,-23.811 -17.83,0 -35.688,0 -53.518,0 0,7.937 0,15.874 0,23.811 z"
           style="fill:#ffffff;fill-opacity:1;fill-rule:evenodd;stroke:none"
           id="path112" /><path
           d="m 40.904,184.563 c 0,0.028 -0.057,0.085 -0.057,0.142 0.114,0.085 0.199,0.141 0.312,0.226 0.567,0.454 1.162,0.879 1.729,1.333 0.936,0.68 1.332,0.737 1.616,0.765 0.085,0 0.198,0 0.198,0.198 0,0.029 -0.028,0.114 -0.113,0.114 -0.227,0 -0.482,-0.028 -0.709,-0.028 -0.368,0 -0.737,0.028 -1.105,0.028 -0.085,0 -0.199,0 -0.199,-0.199 0,-0.085 0.057,-0.113 0.114,-0.113 0.227,-0.028 0.312,-0.085 0.312,-0.227 0,-0.17 -0.284,-0.397 -0.341,-0.453 -1.304,-0.992 -2.579,-1.984 -3.883,-2.977 0.255,1.078 0.539,2.126 0.794,3.204 0.085,0.34 0.113,0.453 0.822,0.453 0.255,0 0.34,0 0.34,0.198 0,0.086 -0.085,0.114 -0.142,0.114 -0.283,0 -0.992,-0.028 -1.275,-0.028 -0.284,0 -0.993,0.028 -1.276,0.028 -0.057,0 -0.198,0 -0.198,-0.199 0,-0.113 0.085,-0.113 0.283,-0.113 0.142,0 0.312,-0.028 0.425,-0.028 0.17,-0.029 0.227,-0.057 0.227,-0.17 0,-0.029 0,-0.057 -0.028,-0.17 -0.454,-1.786 -0.879,-3.572 -1.333,-5.358 -0.113,-0.397 -0.141,-0.453 -0.907,-0.453 -0.17,0 -0.283,0 -0.283,-0.199 0,-0.113 0.113,-0.113 0.142,-0.113 0.283,0 0.992,0.028 1.275,0.028 0.199,0 0.425,-0.028 0.624,-0.028 0.226,0 0.453,0 0.652,0 0.056,0 0.198,0 0.198,0.198 0,0.114 -0.085,0.114 -0.283,0.114 -0.369,0 -0.652,0 -0.652,0.17 0,0.056 0.056,0.283 0.085,0.425 0.141,0.538 0.283,1.049 0.425,1.587 0.482,0.369 0.992,0.766 1.474,1.134 0.397,-0.879 0.765,-1.757 1.162,-2.664 0.114,-0.284 0.114,-0.284 0.114,-0.369 0,-0.283 -0.426,-0.283 -0.511,-0.283 -0.113,0 -0.226,0 -0.226,-0.199 0,-0.113 0.113,-0.113 0.141,-0.113 0.397,0 0.822,0.028 1.219,0.028 0.199,0 0.737,-0.028 0.964,-0.028 0.057,0 0.17,0 0.17,0.198 0,0.114 -0.113,0.114 -0.198,0.114 -0.397,0 -0.539,0.085 -0.681,0.425 -0.482,1.105 -0.935,2.182 -1.417,3.288 z"
           style="fill:#000000;fill-opacity:1;fill-rule:evenodd;stroke:none"
           id="path114" /><path
           d="m 45.524,183.826 c -0.226,0 -0.481,0 -0.708,0 0,-0.227 0,-0.482 0,-0.709 0.227,0 0.482,0 0.708,0 0,0.227 0,0.482 0,0.709 z m -0.056,-1.701 c -0.199,0 -0.397,0 -0.596,0 0,-1.02 0,-2.069 0,-3.09 0.199,0 0.397,0 0.596,0 0,1.021 0,2.07 0,3.09 z"
           style="fill:#000000;fill-opacity:1;fill-rule:evenodd;stroke:none"
           id="path116" /><path
           d="m 49.294,181.105 c 0,0.538 -0.141,1.105 -1.02,1.105 -0.397,0 -0.765,-0.17 -1.077,-0.538 0,0.17 0,0.34 0,0.51 -0.199,0 -0.369,0 -0.567,0 0,-1.049 0,-2.098 0,-3.147 0.198,0 0.425,0 0.624,0 0,0.567 0,1.134 0,1.701 0,0.454 0.198,0.992 0.737,0.992 0.708,0 0.708,-0.482 0.708,-0.68 0,-0.68 0,-1.332 0,-2.013 0.199,0 0.397,0 0.595,0 0,0.681 0,1.389 0,2.07 z"
           style="fill:#000000;fill-opacity:1;fill-rule:evenodd;stroke:none"
           id="path118" /><path
           d="m 52.413,180.538 c 0,0.652 -0.256,1.049 -0.652,1.049 -0.312,0 -0.511,-0.256 -0.511,-0.539 0,-0.255 0.199,-0.51 0.511,-0.51 0.113,0 0.255,0.028 0.368,0.113 0.028,0.028 0.028,0.028 0.028,0.028 0.029,0 0.029,0 0.029,-0.141 0,-0.737 -0.34,-1.333 -0.68,-1.673 -0.114,-0.085 -0.114,-0.113 -0.114,-0.141 0,-0.085 0.057,-0.114 0.114,-0.114 0.113,0 0.907,0.766 0.907,1.928 z"
           style="fill:#000000;fill-opacity:1;fill-rule:evenodd;stroke:none"
           id="path120" /><path
           d="m 62.561,183.713 c 0,0.34 -0.029,0.368 -0.369,0.368 -1.616,0 -3.203,0 -4.819,0 -0.17,0 -0.368,0 -0.368,-0.198 0,-0.199 0.198,-0.199 0.368,-0.199 1.588,0 3.203,0 4.791,0 0,-0.623 0,-1.275 0,-1.899 0,-0.198 0,-0.369 0.198,-0.369 0.199,0 0.199,0.171 0.199,0.369 0,0.652 0,1.276 0,1.928 z"
           style="fill:#000000;fill-opacity:1;fill-rule:evenodd;stroke:none"
           id="path122" /><path
           d="m 66.728,187.313 c -0.057,0.17 -0.085,0.226 -0.199,0.226 -0.113,0 -0.17,-0.085 -0.198,-0.198 -0.766,-1.984 -1.503,-3.969 -2.268,-5.953 -0.142,-0.34 -0.34,-0.482 -0.595,-0.51 -0.057,0 -0.227,-0.028 -0.227,-0.17 0,-0.17 0.17,-0.17 0.34,-0.17 0.539,0 1.049,0 1.588,0 0.198,0 0.34,0 0.34,0.17 0,0.142 -0.142,0.17 -0.199,0.17 -0.141,0 -0.397,0.057 -0.397,0.652 0,0.312 0.057,0.652 0.142,0.964 0.737,0 1.446,0 2.183,0 0.34,-0.992 0.368,-1.134 0.368,-1.361 -0.226,-0.227 -0.51,-0.255 -0.623,-0.255 -0.114,0 -0.17,-0.085 -0.17,-0.17 0,-0.17 0.141,-0.17 0.311,-0.17 0.879,0 1.73,0 2.608,0 0.17,0 0.34,0 0.34,0.17 0,0.142 -0.113,0.17 -0.226,0.17 -0.199,0.028 -0.369,0.198 -0.567,0.652 -0.851,1.927 -1.701,3.855 -2.551,5.783 z m -1.588,-4.479 c 0.227,0.879 0.567,1.729 0.879,2.551 0.312,-0.652 0.907,-2.098 1.077,-2.551 -0.652,0 -1.304,0 -1.956,0 z m -0.567,-1.106 c 0,-0.028 0,-0.056 0,-0.113 0,-0.028 0,-0.028 0,-0.085 0,-0.057 0,-0.425 0.114,-0.652 -0.17,0 -0.369,0 -0.539,0 0.142,0.142 0.17,0.255 0.255,0.425 0.057,0.142 0.114,0.284 0.17,0.425 z m 1.588,4.196 c 0.113,0.34 0.255,0.652 0.368,0.992 0.794,-1.843 1.616,-3.685 2.41,-5.528 0.056,-0.085 0.17,-0.34 0.311,-0.51 -0.481,0 -0.935,0 -1.417,0 0.085,0.057 0.113,0.198 0.113,0.312 0,0.623 -0.85,2.636 -1.275,3.628 -0.17,0.369 -0.34,0.737 -0.51,1.106 z"
           style="fill:#000000;fill-opacity:1;fill-rule:evenodd;stroke:none"
           id="path124" /><path
           d="m 72.283,180.538 c 0,0.652 -0.255,1.049 -0.623,1.049 -0.34,0 -0.539,-0.256 -0.539,-0.539 0,-0.255 0.199,-0.51 0.539,-0.51 0.113,0 0.227,0.028 0.34,0.113 0.028,0.028 0.028,0.028 0.057,0.028 0,-0.056 0,0 0,-0.141 0,-0.737 -0.34,-1.333 -0.652,-1.673 -0.114,-0.085 -0.114,-0.113 -0.114,-0.141 0,-0.085 0.029,-0.114 0.085,-0.114 0.114,0 0.907,0.766 0.907,1.928 z"
           style="fill:#000000;fill-opacity:1;fill-rule:evenodd;stroke:none"
           id="path126" /><path
           d="m 80.986,182.607 c -0.624,1.502 -1.276,3.033 -1.899,4.535 -0.085,0.199 -0.085,0.199 -0.369,0.199 -0.624,0 -1.219,0 -1.842,0 -0.17,0 -0.341,0 -0.341,-0.17 0,-0.17 0.199,-0.17 0.256,-0.17 0.113,0 0.368,-0.029 0.595,-0.085 0,-1.786 0,-3.544 0,-5.329 0,-0.199 0,-0.652 -0.68,-0.709 -0.199,-0.028 -0.142,-0.113 -0.199,-0.17 0,-0.17 0.17,-0.17 0.34,-0.17 0.51,0 1.049,0 1.559,0 0.17,0 0.312,0 0.312,0.17 0,0.085 -0.057,0.17 -0.142,0.17 -0.765,0.057 -0.765,0.482 -0.765,0.709 0,1.644 0,3.316 0,4.96 0.822,-1.927 1.616,-3.855 2.438,-5.811 0.085,-0.17 0.142,-0.198 0.198,-0.198 0.114,0 0.142,0.085 0.199,0.198 0.822,1.956 1.615,3.884 2.437,5.811 h 0.029 c 0,-1.644 0,-3.316 0,-4.96 0,-0.199 0,-0.652 -0.681,-0.709 -0.198,-0.028 -0.141,-0.113 -0.198,-0.17 0,-0.17 0.17,-0.17 0.34,-0.17 0.879,0 1.786,0 2.665,0 0.17,0 0.312,0 0.312,0.17 0,0.085 -0.057,0.17 -0.142,0.17 -0.765,0.057 -0.765,0.482 -0.765,0.709 0,1.587 0,3.146 0,4.705 0,0.198 0,0.652 0.68,0.709 0.085,0 0.17,0.056 0.17,0.17 0,0.17 -0.142,0.17 -0.312,0.17 -0.652,0 -1.275,0 -1.927,0 -0.256,0 -0.284,0 -0.369,-0.199 -0.624,-1.502 -1.276,-3.033 -1.899,-4.535 z m -0.284,-0.17 c 0.057,-0.17 0.085,-0.17 0.199,-0.227 -0.142,-0.34 -0.284,-0.68 -0.425,-1.049 h -0.029 c -0.765,1.815 -1.502,3.6 -2.267,5.415 -0.057,0.141 -0.142,0.311 -0.284,0.425 0.284,0 0.595,0 0.879,0 0.652,-1.531 1.275,-3.033 1.927,-4.564 z m -3.004,-1.559 c -0.057,0 -0.114,0 -0.17,0 0,0.028 0.028,0.057 0.056,0.085 0,0.028 0,0.028 0,0.028 0.029,-0.028 0.085,-0.056 0.114,-0.113 z m 5.754,6.123 c 0.34,0 0.709,0 1.049,0 -0.227,-0.255 -0.227,-0.511 -0.227,-0.681 0,-1.587 0,-3.174 0,-4.762 0,-0.17 0,-0.425 0.227,-0.68 -0.425,0 -0.851,0 -1.276,0 0.227,0.255 0.227,0.51 0.227,0.68 0,1.814 0,3.629 0,5.443 z"
           style="fill:#000000;fill-opacity:1;fill-rule:evenodd;stroke:none"
           id="path128" /><path
           d="m 38.58,169.653 c -0.029,0.028 -0.057,0.113 -0.057,0.141 0.085,0.085 0.17,0.142 0.283,0.227 0.596,0.454 1.163,0.879 1.758,1.332 0.935,0.681 1.304,0.737 1.616,0.766 0.085,0 0.17,0.028 0.17,0.198 0,0.029 -0.029,0.114 -0.114,0.114 -0.198,0 -0.453,-0.029 -0.708,-0.029 -0.341,0 -0.737,0.029 -1.106,0.029 -0.057,0 -0.17,0 -0.17,-0.199 0,-0.085 0.057,-0.113 0.113,-0.113 0.227,-0.029 0.312,-0.085 0.312,-0.227 0,-0.17 -0.312,-0.397 -0.368,-0.453 -1.304,-0.993 -2.58,-1.985 -3.884,-2.977 0.255,1.077 0.539,2.126 0.794,3.203 0.113,0.34 0.113,0.454 0.85,0.454 0.255,0 0.34,0 0.34,0.198 0,0.085 -0.085,0.114 -0.141,0.114 -0.284,0 -0.992,-0.029 -1.276,-0.029 -0.283,0 -0.992,0.029 -1.275,0.029 -0.086,0 -0.199,0 -0.199,-0.199 0,-0.113 0.085,-0.113 0.284,-0.113 0.113,0 0.311,0 0.425,-0.029 0.142,-0.028 0.227,-0.056 0.227,-0.141 0,-0.057 -0.029,-0.085 -0.057,-0.199 -0.454,-1.785 -0.879,-3.571 -1.332,-5.357 -0.085,-0.369 -0.114,-0.454 -0.908,-0.454 -0.17,0 -0.283,0 -0.283,-0.198 0,-0.114 0.142,-0.114 0.17,-0.114 0.255,0 0.964,0.029 1.247,0.029 0.227,0 0.426,0 0.652,0 0.199,0 0.426,-0.029 0.652,-0.029 0.057,0 0.199,0 0.199,0.199 0,0.113 -0.114,0.113 -0.284,0.113 -0.368,0 -0.652,0 -0.652,0.17 0,0.085 0.057,0.284 0.085,0.454 0.142,0.51 0.284,1.02 0.397,1.559 0.482,0.368 0.992,0.765 1.474,1.134 0.397,-0.879 0.766,-1.758 1.162,-2.665 0.114,-0.283 0.114,-0.283 0.114,-0.34 0,-0.312 -0.425,-0.312 -0.51,-0.312 -0.114,0 -0.227,0 -0.227,-0.198 0,-0.114 0.085,-0.057 0.141,-0.114 0.397,0 0.823,0.029 1.219,0.029 0.227,0 0.766,-0.029 0.993,-0.029 0.028,0 0.17,0 0.17,0.199 0,0.113 -0.114,0.113 -0.199,0.113 -0.425,0 -0.538,0.085 -0.68,0.454 -0.482,1.105 -0.936,2.183 -1.417,3.26 z"
           style="fill:#000000;fill-opacity:1;fill-rule:evenodd;stroke:none"
           id="path130" /><path
           d="m 45.78,166.393 c 0,0.17 0,0.312 0,0.482 -0.823,0 -1.616,0 -2.438,0 0,0.538 0,1.049 0,1.587 0.34,0 0.68,0 1.02,0 0.085,0 0.17,0 0.255,0 0.454,0 0.907,0 1.361,0 0,0.17 0,0.312 0,0.482 -1.106,0 -2.239,0 -3.345,0 0,-1.616 0,-3.203 0,-4.819 1.162,0 2.296,0 3.458,0 0,0.199 0,0.369 0,0.539 -0.198,0 -0.425,0 -0.623,0 -0.596,0 -1.191,0 -1.758,0 -0.113,0 -0.255,0 -0.368,0 0,0.567 0,1.162 0,1.729 0.822,0 1.615,0 2.438,0 z"
           style="fill:#000000;fill-opacity:1;fill-rule:evenodd;stroke:none"
           id="path132" /><path
           d="m 48.926,165.627 c 0,0.652 -0.255,1.049 -0.652,1.049 -0.312,0 -0.51,-0.255 -0.51,-0.538 0,-0.255 0.198,-0.511 0.51,-0.511 0.142,0 0.255,0.029 0.369,0.114 0.028,0.028 0.028,0.028 0.028,0.028 0.028,0 0.028,0 0.028,-0.142 0,-0.737 -0.34,-1.332 -0.68,-1.644 -0.113,-0.113 -0.113,-0.141 -0.113,-0.17 0,-0.085 0.056,-0.113 0.113,-0.113 0.113,0 0.907,0.765 0.907,1.927 z"
           style="fill:#000000;fill-opacity:1;fill-rule:evenodd;stroke:none"
           id="path134" /><path
           d="m 58.365,171.694 c 0.085,0.34 0.114,0.425 0.652,0.425 0.17,0 0.255,0 0.255,0.198 0,0.085 -0.056,0.114 -0.141,0.114 -0.227,0 -0.851,-0.029 -1.077,-0.029 -0.341,0 -1.163,0.029 -1.474,0.029 -0.086,0 -0.199,0 -0.199,-0.199 0,-0.113 0.057,-0.113 0.312,-0.113 0.255,0 0.34,0 0.595,-0.029 0.227,-0.028 0.312,-0.056 0.312,-0.198 0,-0.057 -0.028,-0.113 -0.057,-0.198 -0.368,-1.531 -0.765,-3.033 -1.134,-4.564 -0.255,-0.992 -0.907,-1.503 -1.445,-1.503 -0.255,0 -0.766,0.086 -0.936,0.624 0.029,-0.028 0.085,-0.028 0.114,-0.028 0.397,0 0.652,0.34 0.652,0.652 0,0.312 -0.255,0.425 -0.425,0.425 -0.199,0 -0.681,-0.142 -0.681,-0.822 0,-0.595 0.539,-1.077 1.304,-1.077 0.936,0 1.956,0.652 2.211,1.644 0.397,1.559 0.766,3.09 1.162,4.649 z"
           style="fill:#000000;fill-opacity:1;fill-rule:evenodd;stroke:none"
           id="path136" /><path
           d="m 60.746,168.49 c 0,0.114 -0.056,0.256 -0.255,0.256 -0.198,0 -0.397,-0.17 -0.397,-0.369 0,-0.142 0.086,-0.283 0.284,-0.283 0.198,0 0.368,0.198 0.368,0.396 z m -1.417,-3.543 c -0.028,-0.085 -0.057,-0.17 -0.057,-0.283 0,-0.34 0.284,-0.596 0.652,-0.596 0.709,0 1.021,0.964 1.021,1.049 0,0.114 -0.085,0.114 -0.114,0.114 -0.085,0 -0.113,-0.057 -0.141,-0.142 -0.142,-0.539 -0.454,-0.822 -0.737,-0.822 -0.142,0 -0.17,0.085 -0.17,0.227 0,0.17 0.056,0.311 0.113,0.453 0.057,0.199 0.142,0.369 0.227,0.567 0.057,0.142 0.312,0.794 0.34,0.879 0.028,0.057 0.028,0.142 0.028,0.227 0,0.311 -0.255,0.595 -0.652,0.595 -0.68,0 -1.02,-0.964 -1.02,-1.077 0,-0.085 0.113,-0.085 0.142,-0.085 0.085,0 0.085,0.028 0.113,0.113 0.17,0.595 0.482,0.85 0.737,0.85 0.113,0 0.17,-0.056 0.17,-0.255 0,-0.17 -0.028,-0.255 -0.198,-0.68 -0.142,-0.368 -0.312,-0.765 -0.454,-1.134 z"
           style="fill:#000000;fill-opacity:1;fill-rule:evenodd;stroke:none"
           id="path138" /><path
           d="m 64.346,168.49 c 0,0.114 -0.085,0.256 -0.283,0.256 -0.198,0 -0.369,-0.199 -0.369,-0.369 0,-0.113 0.057,-0.283 0.256,-0.283 0.198,0 0.396,0.198 0.396,0.396 z m -1.474,-4.705 c -0.113,-0.482 -0.481,-0.879 -0.907,-0.879 -0.085,0 -0.17,0 -0.255,0.029 0.199,0.085 0.255,0.255 0.255,0.368 0,0.17 -0.141,0.255 -0.283,0.255 -0.199,0 -0.397,-0.198 -0.397,-0.425 0,-0.255 0.284,-0.425 0.709,-0.425 0.397,0 1.219,0.255 1.445,1.105 0.199,0.822 0.426,1.673 0.624,2.495 0.028,0.085 0.028,0.142 0.028,0.227 0,0.396 -0.34,0.68 -0.737,0.68 -0.793,0 -1.219,-0.992 -1.219,-1.077 0,-0.085 0.085,-0.085 0.114,-0.085 0.085,0 0.085,0.028 0.142,0.113 0.17,0.397 0.538,0.85 0.935,0.85 0.17,0 0.227,-0.113 0.227,-0.34 0,-0.085 0,-0.17 0,-0.226 -0.227,-0.879 -0.454,-1.786 -0.681,-2.665 z"
           style="fill:#000000;fill-opacity:1;fill-rule:evenodd;stroke:none"
           id="path140" /><path
           d="m 68.769,163.246 c 0,0.029 0,0.029 -0.171,0.199 -1.218,1.275 -1.559,3.146 -1.559,4.677 0,1.729 0.397,3.458 1.616,4.705 0.114,0.114 0.114,0.142 0.114,0.171 0,0.056 -0.029,0.085 -0.086,0.085 -0.113,0 -0.992,-0.681 -1.587,-1.928 -0.51,-1.105 -0.624,-2.211 -0.624,-3.033 0,-0.794 0.114,-1.984 0.652,-3.118 0.596,-1.219 1.446,-1.871 1.559,-1.871 0.057,0 0.086,0.028 0.086,0.113 z"
           style="fill:#000000;fill-opacity:1;fill-rule:evenodd;stroke:none"
           id="path142" /><path
           d="m 71.405,169.596 c 0.312,0 0.623,0 0.935,0 0.199,0 0.312,0 0.312,0.198 0,0.114 -0.113,0.114 -0.283,0.114 -0.284,0 -0.596,0 -0.879,0 0.368,1.417 0.397,1.616 0.397,1.672 0,0.17 -0.114,0.284 -0.284,0.284 -0.028,0 -0.312,-0.029 -0.397,-0.369 -0.141,-0.538 -0.255,-1.049 -0.397,-1.587 -0.311,0 -0.623,0 -0.935,0 -0.198,0 -0.283,0 -0.283,-0.17 0,-0.142 0.085,-0.142 0.283,-0.142 0.283,0 0.595,0 0.879,0 -0.737,-2.806 -0.766,-2.976 -0.766,-3.175 0,-0.538 0.369,-0.907 0.907,-0.907 1.021,0 1.588,1.446 1.588,1.531 0,0.113 -0.085,0.113 -0.113,0.113 -0.086,0 -0.114,-0.028 -0.142,-0.142 -0.454,-1.048 -0.964,-1.275 -1.304,-1.275 -0.199,0 -0.312,0.113 -0.312,0.453 0,0.227 0.028,0.312 0.057,0.482 0.255,0.992 0.482,1.956 0.737,2.92 z"
           style="fill:#000000;fill-opacity:1;fill-rule:evenodd;stroke:none"
           id="path144" /><path
           d="m 75.827,168.122 c 0,0.765 -0.114,1.984 -0.652,3.09 -0.595,1.219 -1.446,1.871 -1.559,1.871 -0.057,0 -0.085,-0.029 -0.085,-0.085 0,-0.029 0,-0.057 0.17,-0.227 0.992,-0.992 1.559,-2.58 1.559,-4.649 0,-1.701 -0.369,-3.458 -1.616,-4.706 -0.113,-0.141 -0.113,-0.141 -0.113,-0.17 0,-0.085 0.028,-0.113 0.085,-0.113 0.113,0 0.992,0.68 1.587,1.956 0.51,1.077 0.624,2.183 0.624,3.033 z"
           style="fill:#000000;fill-opacity:1;fill-rule:evenodd;stroke:none"
           id="path146" /><path
           d="m 78.831,165.627 c 0,0.652 -0.226,1.049 -0.623,1.049 -0.34,0 -0.539,-0.255 -0.539,-0.538 0,-0.255 0.199,-0.511 0.539,-0.511 0.113,0 0.255,0.029 0.34,0.114 0.028,0.028 0.028,0.028 0.057,0.028 0,-0.056 0.028,0 0.028,-0.142 0,-0.737 -0.368,-1.332 -0.68,-1.644 -0.114,-0.113 -0.114,-0.141 -0.114,-0.17 0,-0.085 0.057,-0.113 0.085,-0.113 0.114,0 0.907,0.765 0.907,1.927 z"
           style="fill:#000000;fill-opacity:1;fill-rule:evenodd;stroke:none"
           id="path148" /><path
           d="m 88.044,172.431 c -0.057,0.028 0,0.113 -0.142,0.113 -0.141,0 -1.077,-0.113 -1.247,-0.113 -0.085,-0.029 -0.142,-0.057 -0.142,-0.199 0,-0.113 0.085,-0.113 0.227,-0.113 0.482,0 0.51,-0.085 0.51,-0.17 0,-0.057 -0.028,-0.142 -0.028,-0.199 -0.198,-0.793 -0.397,-1.559 -0.595,-2.352 -0.199,0.368 -0.482,0.623 -0.936,0.623 -1.162,0 -2.381,-1.474 -2.381,-2.919 0,-0.936 0.539,-1.588 1.333,-1.588 0.198,0 0.68,0.028 1.275,0.737 0.085,-0.397 0.425,-0.737 0.907,-0.737 0.34,0 0.595,0.227 0.737,0.539 0.17,0.368 0.312,0.963 0.312,0.992 0,0.113 -0.085,0.113 -0.142,0.113 -0.085,0 -0.085,-0.056 -0.113,-0.198 -0.17,-0.652 -0.369,-1.219 -0.765,-1.219 -0.284,0 -0.312,0.255 -0.312,0.453 0,0.227 0.028,0.312 0.056,0.482 0.482,1.928 0.964,3.827 1.446,5.755 z m -2.069,-5.613 c -0.057,-0.198 -0.057,-0.198 -0.199,-0.368 -0.453,-0.567 -0.85,-0.709 -1.133,-0.709 -0.482,0 -0.624,0.538 -0.624,0.935 0,0.482 0.312,1.701 0.538,2.183 0.312,0.567 0.766,0.935 1.163,0.935 0.652,0 0.793,-0.793 0.793,-0.878 0,-0.057 -0.028,-0.114 -0.028,-0.17 -0.17,-0.624 -0.34,-1.276 -0.51,-1.928 z"
           style="fill:#000000;fill-opacity:1;fill-rule:evenodd;stroke:none"
           id="path150" /><path
           d="m 325.928,187.624 c 16.242,0 32.456,0 48.699,0 0,-7.653 0,-15.278 0,-22.932 -16.243,0 -32.457,0 -48.699,0 0,7.654 0,15.279 0,22.932 z"
           style="fill:#ffffff;fill-opacity:1;fill-rule:evenodd;stroke:none"
           id="path152" /><path
           d="m 330.491,185.158 c -0.028,0.029 -0.056,0.114 -0.056,0.142 0.085,0.085 0.17,0.142 0.283,0.227 0.595,0.453 1.162,0.878 1.758,1.332 0.935,0.68 1.304,0.737 1.615,0.765 0.085,0 0.17,0 0.17,0.199 0,0.028 -0.028,0.113 -0.113,0.113 -0.198,0 -0.454,-0.028 -0.709,-0.028 -0.34,0 -0.737,0.028 -1.105,0.028 -0.057,0 -0.17,0 -0.17,-0.198 0,-0.085 0.056,-0.114 0.113,-0.114 0.227,-0.028 0.312,-0.085 0.312,-0.226 0,-0.171 -0.312,-0.397 -0.369,-0.454 -1.303,-0.992 -2.579,-1.984 -3.883,-2.976 0.255,1.077 0.539,2.126 0.794,3.203 0.113,0.34 0.113,0.453 0.85,0.453 0.255,0 0.34,0 0.34,0.199 0,0.085 -0.085,0.113 -0.141,0.113 -0.284,0 -0.993,-0.028 -1.276,-0.028 -0.284,0 -0.992,0.028 -1.276,0.028 -0.085,0 -0.198,0 -0.198,-0.198 0,-0.114 0.085,-0.114 0.283,-0.114 0.114,0 0.312,-0.028 0.426,-0.028 0.17,-0.028 0.226,-0.057 0.226,-0.17 0,-0.028 -0.028,-0.057 -0.056,-0.17 -0.454,-1.786 -0.879,-3.572 -1.333,-5.358 -0.085,-0.396 -0.113,-0.453 -0.907,-0.453 -0.17,0 -0.283,0 -0.283,-0.199 0,-0.113 0.142,-0.113 0.17,-0.113 0.255,0 0.964,0.028 1.247,0.028 0.227,0 0.425,-0.028 0.652,-0.028 0.199,0 0.425,0 0.652,0 0.057,0 0.199,0 0.199,0.198 0,0.114 -0.114,0.114 -0.284,0.114 -0.368,0 -0.652,0 -0.652,0.17 0,0.057 0.057,0.283 0.085,0.425 0.142,0.539 0.284,1.049 0.397,1.587 0.482,0.369 0.992,0.766 1.474,1.134 0.397,-0.878 0.765,-1.757 1.162,-2.664 0.114,-0.284 0.114,-0.284 0.114,-0.34 0,-0.312 -0.426,-0.312 -0.511,-0.312 -0.113,0 -0.226,0 -0.226,-0.199 0,-0.113 0.085,-0.056 0.141,-0.113 0.397,0 0.822,0.028 1.219,0.028 0.227,0 0.766,-0.028 0.992,-0.028 0.029,0 0.17,0 0.17,0.198 0,0.114 -0.113,0.114 -0.198,0.114 -0.425,0 -0.539,0.085 -0.68,0.425 -0.482,1.106 -0.936,2.183 -1.418,3.288 z"
           style="fill:#000000;fill-opacity:1;fill-rule:evenodd;stroke:none"
           id="path154" /><path
           d="m 335.112,184.421 c -0.227,0 -0.482,0 -0.709,0 0,-0.227 0,-0.482 0,-0.708 0.227,0 0.482,0 0.709,0 0,0.226 0,0.481 0,0.708 z m -0.057,-1.701 c -0.198,0 -0.397,0 -0.595,0 0,-1.02 0,-2.069 0,-3.089 0.198,0 0.397,0 0.595,0 0,1.02 0,2.069 0,3.089 z"
           style="fill:#000000;fill-opacity:1;fill-rule:evenodd;stroke:none"
           id="path156" /><path
           d="m 338.882,181.7 c 0,0.539 -0.17,1.105 -1.021,1.105 -0.396,0 -0.765,-0.17 -1.077,-0.538 0,0.17 0,0.34 0,0.51 -0.198,0 -0.368,0 -0.567,0 0,-1.049 0,-2.098 0,-3.146 0.199,0 0.397,0 0.596,0 0,0.567 0,1.134 0,1.7 0,0.454 0.198,0.993 0.737,0.993 0.737,0 0.737,-0.482 0.737,-0.681 0,-0.68 0,-1.332 0,-2.012 0.198,0 0.396,0 0.595,0 0,0.68 0,1.389 0,2.069 z"
           style="fill:#000000;fill-opacity:1;fill-rule:evenodd;stroke:none"
           id="path158" /><path
           d="m 341.972,181.133 c 0,0.652 -0.227,1.049 -0.624,1.049 -0.34,0 -0.539,-0.255 -0.539,-0.539 0,-0.255 0.199,-0.51 0.539,-0.51 0.113,0 0.255,0.028 0.34,0.113 0.029,0.029 0.029,0.029 0.057,0.029 0,-0.057 0.028,0 0.028,-0.142 0,-0.737 -0.368,-1.332 -0.68,-1.672 -0.113,-0.085 -0.113,-0.114 -0.113,-0.142 0,-0.085 0.056,-0.114 0.085,-0.114 0.113,0 0.907,0.766 0.907,1.928 z"
           style="fill:#000000;fill-opacity:1;fill-rule:evenodd;stroke:none"
           id="path160" /><path
           d="m 352.12,184.308 c 0,0.34 -0.029,0.368 -0.34,0.368 -1.616,0 -3.232,0 -4.848,0 -0.17,0 -0.34,0 -0.34,-0.198 0,-0.199 0.17,-0.199 0.34,-0.199 1.588,0 3.203,0 4.791,0 0,-0.623 0,-1.275 0,-1.899 0,-0.198 0,-0.368 0.198,-0.368 0.199,0 0.199,0.17 0.199,0.368 0,0.652 0,1.276 0,1.928 z"
           style="fill:#000000;fill-opacity:1;fill-rule:evenodd;stroke:none"
           id="path162" /><path
           d="m 356.315,187.908 c -0.085,0.17 -0.085,0.227 -0.198,0.227 -0.114,0 -0.171,-0.085 -0.227,-0.199 -0.766,-1.984 -1.503,-3.968 -2.268,-5.953 -0.113,-0.34 -0.312,-0.481 -0.595,-0.51 -0.057,0 -0.199,-0.028 -0.199,-0.17 0,-0.17 0.142,-0.17 0.341,-0.17 0.538,0 1.048,0 1.587,0 0.17,0 0.34,0 0.34,0.17 0,0.142 -0.142,0.17 -0.227,0.17 -0.141,0 -0.397,0.057 -0.397,0.652 0,0.312 0.085,0.652 0.142,0.964 0.737,0 1.474,0 2.211,0 0.34,-0.964 0.34,-1.134 0.369,-1.332 -0.255,-0.255 -0.539,-0.284 -0.624,-0.284 -0.113,0 -0.17,-0.085 -0.17,-0.17 0,-0.17 0.142,-0.17 0.312,-0.17 0.879,0 1.729,0 2.608,0 0.17,0 0.34,0 0.34,0.17 0,0.142 -0.142,0.17 -0.227,0.17 -0.227,0.029 -0.397,0.199 -0.595,0.652 -0.851,1.928 -1.673,3.855 -2.523,5.783 z m -1.587,-4.479 c 0.226,0.879 0.538,1.729 0.878,2.551 0.312,-0.652 0.907,-2.097 1.077,-2.551 -0.652,0 -1.303,0 -1.955,0 z m -0.596,-1.105 h 0.029 c 0,-0.029 0,-0.057 0,-0.114 -0.029,-0.028 -0.029,-0.028 -0.029,-0.085 0,-0.057 0,-0.425 0.142,-0.652 -0.17,0 -0.368,0 -0.539,0 0.142,0.142 0.171,0.255 0.227,0.425 0.057,0.142 0.114,0.284 0.17,0.426 z m 1.616,4.195 c 0.113,0.34 0.255,0.652 0.369,0.992 0.793,-1.843 1.615,-3.685 2.409,-5.528 0.028,-0.085 0.142,-0.34 0.283,-0.51 -0.481,0 -0.935,0 -1.417,0 0.114,0.057 0.142,0.199 0.142,0.312 0,0.624 -0.879,2.636 -1.304,3.628 -0.17,0.369 -0.312,0.737 -0.482,1.106 z"
           style="fill:#000000;fill-opacity:1;fill-rule:evenodd;stroke:none"
           id="path164" /><path
           d="m 361.871,181.133 c 0,0.652 -0.255,1.049 -0.652,1.049 -0.312,0 -0.51,-0.255 -0.51,-0.539 0,-0.255 0.198,-0.51 0.51,-0.51 0.142,0 0.255,0.028 0.368,0.113 0.029,0.029 0.029,0.029 0.029,0.029 0.028,0 0.028,0 0.028,-0.142 0,-0.737 -0.34,-1.332 -0.68,-1.672 -0.114,-0.085 -0.114,-0.114 -0.114,-0.142 0,-0.085 0.057,-0.114 0.114,-0.114 0.113,0 0.907,0.766 0.907,1.928 z"
           style="fill:#000000;fill-opacity:1;fill-rule:evenodd;stroke:none"
           id="path166" /><path
           d="m 370.573,183.231 c -0.623,1.502 -1.275,3.004 -1.899,4.507 -0.085,0.198 -0.085,0.198 -0.368,0.198 -0.624,0 -1.219,0 -1.843,0 -0.198,0 -0.34,0 -0.34,-0.17 0,-0.17 0.17,-0.17 0.227,-0.17 0.113,0 0.396,-0.028 0.623,-0.085 0,-1.786 0,-3.543 0,-5.329 0,-0.199 0,-0.652 -0.68,-0.709 -0.199,-0.028 -0.142,-0.113 -0.199,-0.17 0,-0.17 0.171,-0.17 0.341,-0.17 0.51,0 1.02,0 1.53,0 0.199,0 0.341,0 0.341,0.17 0,0.085 -0.086,0.17 -0.171,0.17 -0.765,0.057 -0.765,0.482 -0.765,0.709 0,1.672 0,3.316 0,4.96 h 0.028 c 0.794,-1.927 1.616,-3.855 2.41,-5.811 0.085,-0.17 0.17,-0.198 0.227,-0.198 0.113,0 0.141,0.085 0.198,0.198 0.822,1.956 1.616,3.884 2.438,5.811 0,-1.644 0,-3.288 0,-4.96 0,-0.199 0,-0.652 -0.68,-0.709 -0.171,-0.028 -0.114,-0.113 -0.171,-0.17 0,-0.17 0.142,-0.17 0.341,-0.17 0.878,0 1.757,0 2.636,0 0.198,0 0.34,0 0.34,0.17 0,0.085 -0.085,0.17 -0.17,0.17 -0.765,0.057 -0.765,0.482 -0.765,0.709 0,1.587 0,3.146 0,4.705 0,0.199 0,0.652 0.68,0.709 0.113,0 0.198,0.057 0.198,0.17 0,0.17 -0.141,0.17 -0.34,0.17 -0.623,0 -1.275,0 -1.899,0 -0.284,0 -0.284,0 -0.369,-0.198 -0.623,-1.503 -1.275,-3.005 -1.899,-4.507 z m -0.312,-0.199 c 0.085,-0.17 0.085,-0.17 0.227,-0.227 -0.142,-0.34 -0.312,-0.68 -0.453,-1.048 h -0.029 c -0.765,1.814 -1.502,3.6 -2.267,5.414 -0.029,0.142 -0.114,0.312 -0.256,0.425 0.284,0 0.567,0 0.851,0 0.652,-1.531 1.275,-3.033 1.927,-4.564 z m -3.004,-1.559 c -0.057,0 -0.114,0 -0.17,0 0.028,0.029 0.028,0.085 0.056,0.085 0.029,0.029 0.029,0.029 0.029,0.029 0.028,-0.029 0.056,-0.057 0.085,-0.114 z m 5.782,6.123 c 0.341,0 0.709,0 1.049,0 -0.227,-0.255 -0.227,-0.51 -0.227,-0.68 0,-1.588 0,-3.175 0,-4.763 0,-0.17 0,-0.425 0.227,-0.68 -0.425,0 -0.85,0 -1.275,0 0.226,0.255 0.226,0.51 0.226,0.68 0,1.815 0,3.629 0,5.443 z"
           style="fill:#000000;fill-opacity:1;fill-rule:evenodd;stroke:none"
           id="path168" /><path
           d="m 332.164,170.248 c 0,0.028 -0.057,0.113 -0.057,0.142 0.085,0.085 0.199,0.141 0.284,0.226 0.595,0.454 1.162,0.879 1.757,1.333 0.935,0.708 1.332,0.737 1.616,0.765 0.085,0 0.198,0.028 0.198,0.199 0,0.028 -0.056,0.113 -0.113,0.113 -0.227,0 -0.482,-0.028 -0.709,-0.028 -0.368,0 -0.765,0.028 -1.105,0.028 -0.085,0 -0.199,0 -0.199,-0.199 0,-0.085 0.057,-0.113 0.114,-0.113 0.226,-0.028 0.311,-0.057 0.311,-0.198 0,-0.199 -0.283,-0.426 -0.34,-0.482 -1.304,-0.992 -2.579,-1.984 -3.883,-2.977 0.255,1.078 0.538,2.126 0.793,3.204 0.086,0.34 0.086,0.453 0.823,0.453 0.255,0 0.34,0 0.34,0.199 0,0.085 -0.085,0.113 -0.142,0.113 -0.283,0 -0.992,-0.028 -1.276,-0.028 -0.283,0 -0.992,0.028 -1.275,0.028 -0.085,0 -0.199,0 -0.199,-0.199 0,-0.113 0.085,-0.113 0.284,-0.113 0.142,0 0.312,0 0.425,-0.028 0.17,0 0.227,-0.029 0.227,-0.142 0,-0.057 0,-0.085 -0.057,-0.198 -0.453,-1.786 -0.879,-3.572 -1.332,-5.358 -0.085,-0.368 -0.114,-0.453 -0.907,-0.453 -0.17,0 -0.255,0 -0.255,-0.199 0,-0.113 0.113,-0.113 0.141,-0.113 0.284,0 0.992,0.028 1.248,0.028 0.226,0 0.453,0 0.652,0 0.226,0 0.425,-0.028 0.652,-0.028 0.056,0 0.198,0 0.198,0.198 0,0.114 -0.085,0.114 -0.284,0.114 -0.368,0 -0.651,0 -0.651,0.17 0,0.085 0.056,0.283 0.085,0.453 0.141,0.51 0.283,1.049 0.396,1.559 0.511,0.397 0.993,0.766 1.503,1.162 0.368,-0.878 0.765,-1.785 1.134,-2.692 0.141,-0.256 0.141,-0.284 0.141,-0.341 0,-0.311 -0.425,-0.311 -0.538,-0.311 -0.085,0 -0.199,0 -0.199,-0.199 0,-0.113 0.114,-0.113 0.142,-0.113 0.397,0 0.794,0.028 1.191,0.028 0.226,0 0.765,-0.028 0.992,-0.028 0.056,0 0.17,0 0.17,0.198 0,0.114 -0.114,0.114 -0.199,0.114 -0.396,0 -0.538,0.085 -0.68,0.453 -0.482,1.106 -0.935,2.183 -1.417,3.26 z"
           style="fill:#000000;fill-opacity:1;fill-rule:evenodd;stroke:none"
           id="path170" /><path
           d="m 336.217,169.568 c 0.227,0 0.482,0 0.709,0 0,-1.616 0,-3.232 0,-4.848 -0.227,0 -0.482,0 -0.709,0 0,1.616 0,3.232 0,4.848 z"
           style="fill:#000000;fill-opacity:1;fill-rule:evenodd;stroke:none"
           id="path172" /><path
           d="m 340.129,166.223 c 0,0.68 -0.255,1.049 -0.623,1.049 -0.341,0 -0.539,-0.256 -0.539,-0.511 0,-0.283 0.198,-0.538 0.539,-0.538 0.113,0 0.226,0.028 0.34,0.142 0.028,0 0.028,0.028 0.056,0.028 0,-0.057 0,-0.028 0,-0.17 0,-0.737 -0.368,-1.304 -0.68,-1.644 -0.113,-0.085 -0.085,-0.142 -0.085,-0.17 0,-0.057 0.028,-0.114 0.085,-0.114 0.113,0 0.907,0.766 0.907,1.928 z"
           style="fill:#000000;fill-opacity:1;fill-rule:evenodd;stroke:none"
           id="path174" /><path
           d="m 350.759,168.519 c 0.17,0 0.34,0 0.34,0.198 0,0.199 -0.17,0.199 -0.34,0.199 -1.786,0 -3.6,0 -5.386,0 -0.17,0 -0.368,0 -0.368,-0.199 0,-0.198 0.198,-0.198 0.368,-0.198 1.786,0 3.6,0 5.386,0 z"
           style="fill:#000000;fill-opacity:1;fill-rule:evenodd;stroke:none"
           id="path176" /><path
           d="m 356.598,169.965 c 0,0.056 0.029,0.113 0.029,0.198 0,0.17 -0.114,0.255 -0.284,0.255 -0.113,0 -0.368,-0.057 -0.425,-0.425 -0.17,0.368 -0.51,0.623 -0.907,0.623 -1.134,0 -2.381,-1.389 -2.381,-2.834 0,-0.964 0.624,-1.559 1.332,-1.559 0.595,0 1.049,0.453 1.162,0.567 -0.198,-0.879 -0.226,-0.851 -0.34,-1.304 -0.028,-0.114 -0.368,-1.077 -1.417,-1.077 -0.198,0 -0.51,0 -0.794,0.085 0.284,0.085 0.397,0.368 0.397,0.51 0,0.17 -0.113,0.368 -0.368,0.368 -0.227,0 -0.539,-0.198 -0.539,-0.595 0,-0.397 0.368,-0.595 1.304,-0.595 1.247,0 1.984,0.765 2.126,1.36 0.368,1.474 0.737,2.948 1.105,4.423 z m -1.304,-2.467 c -0.056,-0.255 -0.283,-0.51 -0.51,-0.708 -0.198,-0.17 -0.51,-0.34 -0.793,-0.34 -0.511,0 -0.652,0.51 -0.652,0.907 0,0.482 0.283,1.644 0.567,2.154 0.255,0.482 0.68,0.879 1.105,0.879 0.652,0 0.794,-0.794 0.794,-0.851 0,-0.028 -0.029,-0.113 -0.029,-0.141 -0.17,-0.624 -0.311,-1.276 -0.482,-1.9 z"
           style="fill:#000000;fill-opacity:1;fill-rule:evenodd;stroke:none"
           id="path178" /><path
           d="m 362.409,172.289 c 0.057,0.34 0.085,0.425 0.624,0.425 0.17,0 0.284,0 0.284,0.199 0,0.085 -0.057,0.113 -0.142,0.113 -0.255,0 -0.851,-0.028 -1.106,-0.028 -0.34,0 -1.134,0.028 -1.474,0.028 -0.085,0 -0.198,0 -0.198,-0.199 0,-0.113 0.085,-0.113 0.34,-0.113 0.227,0 0.34,0 0.567,-0.028 0.255,-0.029 0.312,-0.057 0.312,-0.199 0,-0.056 0,-0.113 -0.029,-0.198 -0.396,-1.531 -0.765,-3.033 -1.162,-4.564 -0.227,-0.964 -0.907,-1.502 -1.417,-1.502 -0.255,0 -0.794,0.113 -0.964,0.623 0.057,-0.028 0.113,-0.028 0.142,-0.028 0.368,0 0.652,0.34 0.652,0.652 0,0.312 -0.284,0.425 -0.454,0.425 -0.17,0 -0.652,-0.142 -0.652,-0.793 0,-0.624 0.511,-1.106 1.304,-1.106 0.907,0 1.956,0.652 2.211,1.644 0.397,1.559 0.766,3.09 1.162,4.649 z"
           style="fill:#000000;fill-opacity:1;fill-rule:evenodd;stroke:none"
           id="path180" /><path
           d="m 364.394,166.223 c 0,0.68 -0.227,1.049 -0.624,1.049 -0.34,0 -0.539,-0.256 -0.539,-0.511 0,-0.283 0.199,-0.538 0.539,-0.538 0.113,0 0.255,0.028 0.34,0.142 0.029,0 0.029,0.028 0.057,0.028 0,-0.057 0.028,-0.028 0.028,-0.17 0,-0.737 -0.368,-1.333 -0.68,-1.644 -0.113,-0.114 -0.113,-0.142 -0.113,-0.17 0,-0.057 0.056,-0.114 0.085,-0.114 0.113,0 0.907,0.766 0.907,1.928 z"
           style="fill:#000000;fill-opacity:1;fill-rule:evenodd;stroke:none"
           id="path182" /><path
           d="m 373.606,173.026 c -0.056,0.028 0,0.113 -0.141,0.113 -0.142,0 -1.078,-0.085 -1.248,-0.113 -0.085,-0.028 -0.141,-0.057 -0.141,-0.199 0,-0.113 0.085,-0.113 0.226,-0.113 0.482,0 0.511,-0.057 0.511,-0.17 0,-0.057 -0.029,-0.142 -0.029,-0.198 -0.198,-0.794 -0.397,-1.559 -0.595,-2.353 -0.198,0.368 -0.482,0.623 -0.935,0.623 -1.163,0 -2.382,-1.445 -2.382,-2.919 0,-0.936 0.539,-1.588 1.333,-1.588 0.198,0 0.68,0.057 1.275,0.737 0.085,-0.396 0.426,-0.737 0.907,-0.737 0.341,0 0.596,0.227 0.737,0.539 0.17,0.368 0.199,0.68 0.312,0.992 0,0.113 -0.085,0.113 -0.142,0.113 -0.085,0 -0.085,-0.056 -0.113,-0.198 -0.17,-0.624 -0.368,-1.219 -0.765,-1.219 -0.284,0 -0.312,0.255 -0.312,0.454 0,0.226 0.028,0.312 0.057,0.482 0.482,1.927 0.963,3.826 1.445,5.754 z m -2.069,-5.613 c -0.057,-0.198 -0.057,-0.198 -0.198,-0.368 -0.454,-0.567 -0.851,-0.709 -1.134,-0.709 -0.482,0 -0.624,0.539 -0.624,0.936 0,0.481 0.312,1.729 0.539,2.182 0.311,0.567 0.765,0.936 1.162,0.936 0.652,0 0.794,-0.766 0.794,-0.851 0,-0.056 -0.029,-0.141 -0.057,-0.17 -0.17,-0.652 -0.312,-1.304 -0.482,-1.956 z"
           style="fill:#000000;fill-opacity:1;fill-rule:evenodd;stroke:none"
           id="path184" /><path
           d="m 147.487,58.62 c -2.608,0 -5.188,0 -7.767,0 0,7.625 0,15.25 0,22.875 5.187,0 10.346,0 15.534,0 0,-7.625 0,-15.25 0,-22.875 -2.58,0 -5.188,0 -7.767,0 z"
           style="fill:#ffffff;fill-opacity:1;fill-rule:evenodd;stroke:none"
           id="path186" /><path
           d="m 147.742,79.284 c -1.248,-0.312 -2.211,-1.616 -2.211,-2.806 0,-0.964 0.652,-1.673 1.587,-1.673 1.162,0 1.984,1.56 1.984,2.948 0,0.908 -0.396,1.389 -0.737,1.843 -0.368,0.454 -0.935,1.191 -0.935,1.616 0,0.227 0.198,0.482 0.539,0.482 0.311,0 0.51,-0.142 0.708,-0.284 0.199,-0.113 0.397,-0.255 0.539,-0.255 0.255,0 0.397,0.255 0.397,0.397 0,0.227 -0.142,0.255 -0.511,0.34 -0.51,0.113 -0.652,0.113 -0.822,0.113 -0.765,0 -1.134,-0.425 -1.134,-1.02 0,-0.539 0.284,-1.106 0.596,-1.701 z m 0.141,-0.227 c 0.227,-0.453 0.539,-0.992 0.539,-1.7 0,-0.681 -0.397,-2.325 -1.304,-2.325 -0.538,0 -0.964,0.425 -0.964,1.162 0,0.624 0.369,2.495 1.729,2.863 z"
           style="fill:#000000;fill-opacity:1;fill-rule:evenodd;stroke:none"
           id="path188" /><path
           d="m 144.595,66.103 c 0.085,0.34 0.085,0.425 0.652,0.425 0.142,0 0.255,0 0.255,0.17 0,0.114 -0.056,0.142 -0.141,0.142 -0.227,0 -0.851,-0.028 -1.106,-0.028 -0.312,0 -1.134,0.028 -1.446,0.028 -0.085,0 -0.226,0 -0.226,-0.198 0,-0.114 0.085,-0.114 0.34,-0.114 0.227,0 0.34,0 0.595,-0.028 0.227,-0.028 0.312,-0.057 0.312,-0.198 0,-0.057 -0.028,-0.142 -0.057,-0.199 -0.397,-1.531 -0.765,-3.033 -1.134,-4.564 -0.255,-0.963 -0.907,-1.502 -1.445,-1.502 -0.255,0 -0.766,0.085 -0.936,0.624 0.029,-0.029 0.085,0 0.114,-0.029 0.397,0 0.652,0.34 0.652,0.652 0,0.312 -0.255,0.425 -0.426,0.425 -0.198,0 -0.68,-0.141 -0.68,-0.822 0,-0.595 0.539,-1.077 1.304,-1.077 0.935,0 1.956,0.652 2.211,1.644 0.369,1.559 0.765,3.09 1.162,4.649 z"
           style="fill:#000000;fill-opacity:1;fill-rule:evenodd;stroke:none"
           id="path190" /><path
           d="m 146.608,60.037 c 0,0.652 -0.255,1.049 -0.652,1.049 -0.312,0 -0.51,-0.255 -0.51,-0.51 0,-0.284 0.198,-0.539 0.51,-0.539 0.113,0 0.255,0.028 0.34,0.113 0.057,0.029 0.028,0.029 0.057,0.057 0.028,0 0.028,-0.028 0.028,-0.17 0,-0.737 -0.34,-1.332 -0.68,-1.644 -0.114,-0.114 -0.114,-0.142 -0.114,-0.17 0,-0.057 0.057,-0.114 0.114,-0.114 0.113,0 0.907,0.766 0.907,1.928 z"
           style="fill:#000000;fill-opacity:1;fill-rule:evenodd;stroke:none"
           id="path192" /><path
           d="m 155.764,66.84 c -0.057,0.028 0,0.085 -0.142,0.085 -0.142,0 -1.077,-0.085 -1.247,-0.085 -0.085,-0.028 -0.142,-0.085 -0.142,-0.198 0,-0.114 0.085,-0.114 0.227,-0.114 0.482,0 0.51,-0.085 0.51,-0.17 -0.028,-0.056 -0.028,-0.142 -0.028,-0.198 -0.199,-0.794 -0.397,-1.559 -0.596,-2.353 -0.198,0.369 -0.481,0.624 -0.935,0.624 -1.162,0 -2.381,-1.474 -2.381,-2.92 0,-0.935 0.539,-1.587 1.304,-1.587 0.227,0 0.709,0.028 1.304,0.737 0.085,-0.397 0.425,-0.737 0.907,-0.737 0.34,0 0.567,0.226 0.737,0.538 0.17,0.369 0.283,0.964 0.283,0.992 0,0.114 -0.085,0.114 -0.113,0.114 -0.085,0 -0.113,-0.057 -0.142,-0.199 -0.17,-0.652 -0.34,-1.219 -0.737,-1.219 -0.283,0 -0.312,0.255 -0.312,0.454 0,0.227 0.029,0.312 0.057,0.482 0.482,1.927 0.964,3.827 1.446,5.754 z m -2.07,-5.613 c -0.056,-0.198 -0.056,-0.198 -0.198,-0.368 -0.453,-0.567 -0.85,-0.709 -1.134,-0.709 -0.482,0 -0.623,0.539 -0.623,0.936 0,0.482 0.311,1.701 0.538,2.182 0.312,0.567 0.766,0.936 1.162,0.936 0.652,0 0.766,-0.794 0.766,-0.879 0,-0.057 0,-0.113 -0.029,-0.17 -0.17,-0.624 -0.311,-1.276 -0.482,-1.928 z"
           style="fill:#000000;fill-opacity:1;fill-rule:evenodd;stroke:none"
           id="path194" /><path
           d="m 264.302,58.96 c -2.608,0 -5.187,0 -7.767,0 0,7.625 0,15.25 0,22.875 5.188,0 10.347,0 15.534,0 0,-7.625 0,-15.25 0,-22.875 -2.579,0 -5.187,0 -7.767,0 z"
           style="fill:#ffffff;fill-opacity:1;fill-rule:evenodd;stroke:none"
           id="path196" /><path
           d="m 264.557,79.624 c -1.247,-0.311 -2.211,-1.615 -2.211,-2.806 0,-0.964 0.652,-1.672 1.588,-1.672 1.162,0 1.984,1.559 1.984,2.948 0,0.907 -0.397,1.389 -0.737,1.842 -0.368,0.454 -0.935,1.191 -0.935,1.616 0,0.227 0.198,0.482 0.538,0.482 0.312,0 0.51,-0.142 0.709,-0.284 0.198,-0.113 0.397,-0.255 0.538,-0.255 0.256,0 0.397,0.255 0.397,0.397 0,0.227 -0.141,0.255 -0.51,0.34 -0.51,0.114 -0.652,0.114 -0.822,0.114 -0.765,0 -1.134,-0.426 -1.134,-1.021 0,-0.538 0.284,-1.105 0.595,-1.701 z m 0.142,-0.226 c 0.227,-0.454 0.539,-0.993 0.539,-1.701 0,-0.681 -0.397,-2.325 -1.304,-2.325 -0.539,0 -0.964,0.426 -0.964,1.163 0,0.623 0.369,2.494 1.729,2.863 z"
           style="fill:#000000;fill-opacity:1;fill-rule:evenodd;stroke:none"
           id="path198" /><path
           d="m 261.411,66.443 c 0.085,0.34 0.085,0.425 0.652,0.425 0.142,0 0.255,0 0.255,0.171 0,0.113 -0.057,0.141 -0.142,0.141 -0.226,0 -0.85,-0.028 -1.105,-0.028 -0.312,0 -1.134,0.028 -1.446,0.028 -0.085,0 -0.227,0 -0.227,-0.198 0,-0.114 0.085,-0.114 0.341,-0.114 0.226,0 0.34,0 0.595,-0.028 0.227,-0.028 0.312,-0.057 0.312,-0.198 0,-0.057 -0.029,-0.142 -0.057,-0.199 -0.397,-1.53 -0.765,-3.033 -1.134,-4.564 -0.255,-0.963 -0.907,-1.502 -1.446,-1.502 -0.255,0 -0.765,0.085 -0.935,0.624 0.028,-0.029 0.085,0 0.113,-0.029 0.397,0 0.652,0.341 0.652,0.652 0,0.312 -0.255,0.426 -0.425,0.426 -0.198,0 -0.68,-0.142 -0.68,-0.823 0,-0.595 0.538,-1.077 1.304,-1.077 0.935,0 1.956,0.652 2.211,1.644 0.368,1.559 0.765,3.09 1.162,4.649 z"
           style="fill:#000000;fill-opacity:1;fill-rule:evenodd;stroke:none"
           id="path200" /><path
           d="m 263.424,60.377 c 0,0.652 -0.255,1.049 -0.652,1.049 -0.312,0 -0.511,-0.255 -0.511,-0.51 0,-0.284 0.199,-0.539 0.511,-0.539 0.113,0 0.255,0.028 0.34,0.113 0.057,0.029 0.028,0.029 0.057,0.057 0.028,0 0.028,-0.028 0.028,-0.17 0,-0.737 -0.34,-1.332 -0.68,-1.644 -0.114,-0.113 -0.114,-0.142 -0.114,-0.17 0,-0.057 0.057,-0.113 0.114,-0.113 0.113,0 0.907,0.765 0.907,1.927 z"
           style="fill:#000000;fill-opacity:1;fill-rule:evenodd;stroke:none"
           id="path202" /><path
           d="m 272.58,67.18 c -0.057,0.029 0,0.085 -0.142,0.085 -0.142,0 -1.077,-0.085 -1.247,-0.085 -0.085,-0.028 -0.142,-0.085 -0.142,-0.198 0,-0.114 0.085,-0.114 0.227,-0.114 0.481,0 0.51,-0.085 0.51,-0.17 -0.029,-0.056 -0.029,-0.141 -0.029,-0.198 -0.198,-0.794 -0.396,-1.559 -0.595,-2.353 -0.198,0.369 -0.482,0.624 -0.935,0.624 -1.162,0 -2.381,-1.474 -2.381,-2.92 0,-0.935 0.538,-1.587 1.304,-1.587 0.226,0 0.708,0.028 1.304,0.737 0.085,-0.397 0.425,-0.737 0.907,-0.737 0.34,0 0.567,0.226 0.737,0.538 0.17,0.369 0.283,0.964 0.283,0.992 0,0.114 -0.085,0.114 -0.113,0.114 -0.085,0 -0.114,-0.057 -0.142,-0.199 -0.17,-0.652 -0.34,-1.219 -0.737,-1.219 -0.283,0 -0.312,0.256 -0.312,0.454 0,0.227 0.029,0.312 0.057,0.482 0.482,1.927 0.964,3.827 1.446,5.754 z m -2.07,-5.612 c -0.056,-0.199 -0.056,-0.199 -0.198,-0.369 -0.454,-0.567 -0.851,-0.709 -1.134,-0.709 -0.482,0 -0.624,0.539 -0.624,0.936 0,0.482 0.312,1.701 0.539,2.183 0.312,0.567 0.765,0.935 1.162,0.935 0.652,0 0.765,-0.794 0.765,-0.879 0,-0.056 0,-0.113 -0.028,-0.17 -0.17,-0.623 -0.312,-1.275 -0.482,-1.927 z"
           style="fill:#000000;fill-opacity:1;fill-rule:evenodd;stroke:none"
           id="path204" /><g
           id="g206"><path
             d="m 141.392,179.886 29.991,-60.01 h -60.01 l 30.019,60.01 z"
             style="fill:none;stroke:#000000;stroke-width:2.01142;stroke-linecap:butt;stroke-linejoin:round;stroke-miterlimit:10;stroke-dasharray:none;stroke-opacity:1"
             id="path208" /></g><path
           d="m 137.537,144.878 c 2.438,0 4.876,0 7.313,0 0,-3.317 0,-6.633 0,-9.921 -2.437,0 -4.875,0 -7.313,0 0,3.288 0,6.604 0,9.921 z"
           style="fill:#ffffff;fill-opacity:1;fill-rule:evenodd;stroke:none"
           id="path210" /><path
           d="m 140.513,140.257 c -3.174,-1.729 -3.344,-3.77 -3.344,-4.167 0,-1.19 1.19,-1.955 2.664,-1.955 2.665,0 4.791,2.494 4.791,2.863 0,0.085 -0.085,0.085 -0.17,0.085 -0.199,0 -0.823,-0.17 -1.191,-0.681 -0.312,-0.453 -0.992,-1.417 -2.381,-1.417 -1.134,0 -2.353,0.595 -2.353,1.814 0,0.794 0.851,3.147 3.373,3.232 0.737,0 1.276,0.595 1.276,0.765 0,0.085 -0.057,0.085 -0.142,0.085 -2.239,0.113 -2.636,1.191 -2.636,1.814 0,0.369 0.227,2.155 2.409,2.155 0.312,0 1.503,-0.057 1.503,-0.908 0,-0.226 -0.142,-0.453 -0.17,-0.566 -0.057,-0.029 -0.114,-0.114 -0.114,-0.171 0,-0.141 0.142,-0.141 0.199,-0.141 0.453,0 1.445,0.652 1.445,1.559 0,0.935 -1.077,1.077 -1.814,1.077 -2.182,0 -4.819,-1.729 -4.819,-3.685 0,-0.907 0.709,-1.474 1.474,-1.758 z"
           style="fill:#000000;fill-opacity:1;fill-rule:evenodd;stroke:none"
           id="path212" /><g
           id="g214"><path
             d="m 300.841,149.867 c 0,-5.244 -1.389,-10.432 -4.025,-14.995 -2.636,-4.536 -6.435,-8.334 -10.97,-10.97 -4.564,-2.637 -9.752,-4.026 -14.996,-4.026 -5.272,0 -10.459,1.389 -14.995,4.026 -4.564,2.636 -8.362,6.434 -10.998,10.97 -2.637,4.563 -4.026,9.751 -4.026,14.995 0,5.272 1.389,10.46 4.026,14.995 2.636,4.564 6.434,8.362 10.97,10.999 4.564,2.636 9.751,4.025 15.023,4.025 5.244,0 10.432,-1.389 14.967,-4.025 4.564,-2.637 8.363,-6.435 10.999,-10.971 2.636,-4.563 4.025,-9.751 4.025,-15.023 z"
             style="fill:none;stroke:#000000;stroke-width:2.01142;stroke-linecap:butt;stroke-linejoin:round;stroke-miterlimit:10;stroke-dasharray:none;stroke-opacity:1"
             id="path216" /></g><path
           d="m 266.457,154.431 c 2.948,0 5.839,0 8.787,0 0,-3.062 0,-6.095 0,-9.156 -2.948,0 -5.839,0 -8.787,0 0,3.061 0,6.094 0,9.156 z"
           style="fill:#ffffff;fill-opacity:1;fill-rule:evenodd;stroke:none"
           id="path218" /><path
           d="m 271.616,155.253 c -1.956,0 -2.807,-0.369 -3.175,-0.511 -1.644,-0.652 -1.984,-1.757 -1.984,-1.984 0,-0.085 0.085,-0.085 0.17,-0.085 0.283,0 1.049,0.369 1.162,0.737 0.198,0.567 0.227,0.766 1.332,0.907 0.539,0.029 1.021,0.085 1.559,0.085 0.454,0 0.936,0 1.418,0 -0.992,-0.992 -1.418,-2.664 -1.985,-4.904 -0.453,-1.899 -0.822,-3.118 -1.445,-3.968 -0.199,-0.142 -0.199,-0.199 -0.652,-0.199 -0.312,0 -0.652,0 -0.992,0 -0.312,0 -0.482,0 -0.851,-0.226 -0.17,-0.085 -0.538,-0.34 -0.538,-0.539 0,-0.085 0,-0.085 0.368,-0.085 1.786,0 3.6,0 5.386,0 1.842,0 3.203,1.361 3.203,1.956 0,0.085 -0.085,0.085 -0.142,0.085 -0.255,0 -1.02,-0.369 -1.162,-0.737 -0.142,-0.369 -0.198,-0.454 -0.964,-0.454 -0.992,0 -1.984,0 -2.976,0 1.106,0.993 1.531,2.552 2.098,4.678 0.397,1.729 0.793,3.259 1.417,4.195 0.113,0.142 0.142,0.198 0.454,0.198 0.453,0 0.907,0 1.36,0 0.312,0 0.454,0 0.851,0.227 0.141,0.085 0.51,0.312 0.51,0.539 0,0.085 0,0.085 -0.369,0.085 -1.36,0 -2.693,0 -4.053,0 z"
           style="fill:#000000;fill-opacity:1;fill-rule:evenodd;stroke:none"
           id="path220" /><g
           id="g222"><path
             d="m 191.991,79.653 h 29.99 L 237.005,49.634 221.981,19.643 h -29.99 l -14.996,29.991 14.996,30.019 z"
             style="fill:none;stroke:#000000;stroke-width:2.01142;stroke-linecap:butt;stroke-linejoin:round;stroke-miterlimit:10;stroke-dasharray:none;stroke-opacity:1"
             id="path224" /></g><path
           d="m 202.876,53.914 c 2.579,0 5.159,0 7.738,0 0,-2.863 0,-5.698 0,-8.561 -2.579,0 -5.159,0 -7.738,0 0,2.863 0,5.698 0,8.561 z"
           style="fill:#ffffff;fill-opacity:1;fill-rule:evenodd;stroke:none"
           id="path226" /><path
           d="m 211.266,54.113 c 0.17,0.17 0.17,0.226 0.17,0.255 0,0.085 -0.056,0.198 -0.17,0.198 -0.085,0 -0.198,-0.113 -0.283,-0.198 -1.191,-1.333 -2.41,-2.665 -3.6,-4.026 -0.624,2.013 -0.766,2.41 -1.106,3.26 -0.198,0.369 -0.51,1.134 -1.899,1.134 -0.964,0 -1.361,-0.822 -1.361,-1.049 0.085,-0.056 0,-0.17 0.227,-0.17 0.142,0 0.142,0.142 0.17,0.17 0.227,0.652 0.766,0.681 0.879,0.681 0.453,0 0.935,-1.163 1.219,-1.9 0.482,-1.218 0.992,-3.033 0.992,-3.089 -0.057,-0.057 0,-0.029 -0.142,-0.17 -1.219,-1.333 -2.409,-2.665 -3.628,-4.026 -0.17,-0.17 -0.17,-0.226 -0.17,-0.255 0,-0.085 0.085,-0.198 0.17,-0.198 0.142,0 0.198,0.113 0.283,0.198 1.191,1.333 2.41,2.665 3.6,4.025 0.482,-1.644 0.652,-2.239 1.077,-3.118 0.171,-0.51 0.539,-1.275 1.928,-1.275 0.907,0 1.361,0.822 1.361,1.049 0,0.028 -0.029,0.17 -0.17,0.17 -0.17,0 -0.199,-0.085 -0.227,-0.227 -0.142,-0.397 -0.539,-0.624 -0.851,-0.624 -0.822,0 -1.87,3.799 -2.239,4.989 1.247,1.389 2.523,2.778 3.77,4.196 z"
           style="fill:#000000;fill-opacity:1;fill-rule:evenodd;stroke:none"
           id="path228" /></g></g></g></svg>
