<?xml version="1.0" encoding="UTF-8" standalone="no"?>
<svg
   id="mySvg"
   width="667.03"
   height="574.41"
   version="1.1"
   viewBox="0 0 176.48 151.98"
   xml:space="preserve"
   sodipodi:docname="network-brain_1.1comp.svg"
   inkscape:version="1.3 (0e150ed6c4, 2023-07-21)"
   inkscape:export-filename="network-brain-inkscape.svg"
   inkscape:export-xdpi="96"
   inkscape:export-ydpi="96"
   xmlns:inkscape="http://www.inkscape.org/namespaces/inkscape"
   xmlns:sodipodi="http://sodipodi.sourceforge.net/DTD/sodipodi-0.dtd"
   xmlns="http://www.w3.org/2000/svg"
   xmlns:svg="http://www.w3.org/2000/svg"><sodipodi:namedview
   id="namedview5"
   pagecolor="#ffffff"
   bordercolor="#000000"
   borderopacity="0.25"
   inkscape:showpageshadow="2"
   inkscape:pageopacity="0.0"
   inkscape:pagecheckerboard="0"
   inkscape:deskcolor="#d1d1d1"
   inkscape:zoom="0.52358075"
   inkscape:cx="330.41704"
   inkscape:cy="248.29026"
   inkscape:window-width="1850"
   inkscape:window-height="1016"
   inkscape:window-x="0"
   inkscape:window-y="0"
   inkscape:window-maximized="1"
   inkscape:current-layer="mySvg"
   showgrid="false" /><defs
   id="defs13722"><marker
   id="Arrow4"
   overflow="visible"
   markerHeight="6"
   markerWidth="5"
   orient="auto-start-reverse"
   preserveAspectRatio="xMidYMid"
   viewBox="0 0 5 6"><path
     id="path1741"
     d="m1 0-3 3h-2l3-3-3-3h2z"
     fill="context-stroke"
     fill-rule="evenodd" /></marker><marker
   id="Dot"
   overflow="visible"
   markerHeight="5.6666665"
   markerWidth="5.6666665"
   orient="auto"
   preserveAspectRatio="xMidYMid"
   viewBox="0 0 5.6666667 5.6666667"><path
     id="Dot1"
     transform="scale(.5)"
     d="m5 0c0 2.76-2.24 5-5 5s-5-2.24-5-5 2.3-5 5-5c2.76 0 5 2.24 5 5z"
     fill="context-stroke"
     fill-rule="evenodd"
     stroke="context-stroke"
     stroke-width="1pt" /></marker><marker
   id="TriangleStart"
   overflow="visible"
   markerHeight="6.155385"
   markerWidth="5.3244081"
   orient="auto-start-reverse"
   preserveAspectRatio="xMidYMid"
   viewBox="0 0 5.3244081 6.1553851"><path
     id="path135"
     transform="scale(.5)"
     d="m5.77 0-8.65 5v-10z"
     fill="context-stroke"
     fill-rule="evenodd"
     stroke="context-stroke"
     stroke-width="1pt" /></marker><marker
   id="TriangleStart-7"
   overflow="visible"
   markerHeight="6.155385"
   markerWidth="5.3244081"
   orient="auto-start-reverse"
   preserveAspectRatio="xMidYMid"
   viewBox="0 0 5.3244081 6.1553851"><path
     id="path135-8"
     transform="scale(.5)"
     d="m5.77 0-8.65 5v-10z"
     fill="context-stroke"
     fill-rule="evenodd"
     stroke="context-stroke"
     stroke-width="1pt" /></marker>&#10;<marker
   id="Dot-3"
   overflow="visible"
   markerHeight="5.6666665"
   markerWidth="5.6666665"
   orient="auto"
   preserveAspectRatio="xMidYMid"
   viewBox="0 0 5.6666667 5.6666667"><path
     id="Dot1-1"
     transform="scale(.5)"
     d="m5 0c0 2.76-2.24 5-5 5s-5-2.24-5-5 2.3-5 5-5c2.76 0 5 2.24 5 5z"
     fill="context-stroke"
     fill-rule="evenodd"
     stroke="context-stroke"
     stroke-width="1pt" /></marker>&#10;<marker
   id="TriangleStart-7-9"
   overflow="visible"
   markerHeight="6.155385"
   markerWidth="5.3244081"
   orient="auto-start-reverse"
   preserveAspectRatio="xMidYMid"
   viewBox="0 0 5.3244081 6.1553851">&#10;<path
   id="path135-8-2"
   transform="scale(.5)"
   d="m5.77 0-8.65 5v-10z"
   fill="context-stroke"
   fill-rule="evenodd"
   stroke="context-stroke"
   stroke-width="1pt" /></marker>&#10;       <filter
   id="filter2268"
   x="-0.14998011"
   y="-0.94013108"
   width="1.3702634"
   height="3.3862355"
   color-interpolation-filters="sRGB"><feFlood
     id="feFlood2258"
     flood-color="rgb(0,0,0)"
     flood-opacity=".52157"
     result="flood" /><feComposite
     id="feComposite2260"
     in="flood"
     in2="SourceGraphic"
     operator="in"
     result="composite1" /><feGaussianBlur
     id="feGaussianBlur2262"
     in="composite1"
     result="blur"
     stdDeviation="2.4" /><feOffset
     id="feOffset2264"
     dx="2.7"
     dy="3.1"
     result="offset" /><feComposite
     id="feComposite2266"
     in="SourceGraphic"
     in2="offset"
     result="composite2" /></filter><filter
   id="filter2352"
   x="-0.43269525"
   y="-0.44436937"
   width="2.0682164"
   height="2.1278959"
   color-interpolation-filters="sRGB"><feFlood
     id="feFlood2342"
     flood-color="rgb(0,0,0)"
     flood-opacity=".52157"
     result="flood" /><feComposite
     id="feComposite2344"
     in="flood"
     in2="SourceGraphic"
     operator="in"
     result="composite1" /><feGaussianBlur
     id="feGaussianBlur2346"
     in="composite1"
     result="blur"
     stdDeviation="2.4" /><feOffset
     id="feOffset2348"
     dx="2.7"
     dy="3.1"
     result="offset" /><feComposite
     id="feComposite2350"
     in="SourceGraphic"
     in2="offset"
     result="composite2" /></filter><filter
   id="filter2436"
   x="-0.36583044"
   y="-0.37876797"
   width="1.9031439"
   height="1.9613867"
   color-interpolation-filters="sRGB"><feFlood
     id="feFlood2426"
     flood-color="rgb(0,0,0)"
     flood-opacity=".52157"
     result="flood" /><feComposite
     id="feComposite2428"
     in="flood"
     in2="SourceGraphic"
     operator="in"
     result="composite1" /><feGaussianBlur
     id="feGaussianBlur2430"
     in="composite1"
     result="blur"
     stdDeviation="2.4" /><feOffset
     id="feOffset2432"
     dx="2.7"
     dy="3.1"
     result="offset" /><feComposite
     id="feComposite2434"
     in="SourceGraphic"
     in2="offset"
     result="composite2" /></filter><filter
   id="filter2520"
   x="-0.41134896"
   y="-0.28472679"
   width="2.0379386"
   height="1.7405104"
   color-interpolation-filters="sRGB"
   style="color-interpolation-filters:sRGB;"
   inkscape:label="Drop Shadow"><feFlood
     id="feFlood2510"
     flood-color="rgb(0,0,0)"
     flood-opacity=".52157"
     result="flood" /><feComposite
     id="feComposite2512"
     in="flood"
     in2="SourceGraphic"
     operator="in"
     result="composite1" /><feGaussianBlur
     id="feGaussianBlur2514"
     in="composite1"
     result="blur"
     stdDeviation="2.4" /><feOffset
     id="feOffset2516"
     dx="2.7"
     dy="3.1"
     result="offset" /><feComposite
     id="feComposite2518"
     in="SourceGraphic"
     in2="offset"
     result="fbSourceGraphic" /><feColorMatrix
     result="fbSourceGraphicAlpha"
     in="fbSourceGraphic"
     values="0 0 0 -1 0 0 0 0 -1 0 0 0 0 -1 0 0 0 0 1 0"
     id="feColorMatrix32" /><feFlood
     id="feFlood32"
     result="flood"
     in="fbSourceGraphic"
     flood-opacity="0.521569"
     flood-color="rgb(0,0,0)" /><feGaussianBlur
     id="feGaussianBlur32"
     result="blur"
     in="fbSourceGraphic"
     stdDeviation="1.900000" /><feOffset
     id="feOffset32"
     result="offset"
     in="blur"
     dx="2.700000"
     dy="3.100000" /><feComposite
     id="feComposite32"
     result="comp1"
     operator="in"
     in="flood"
     in2="offset" /><feComposite
     id="feComposite33"
     result="comp2"
     operator="over"
     in="fbSourceGraphic"
     in2="comp1" /></filter><filter
   id="filter2604"
   x="-0.48255231"
   y="-0.31741005"
   width="2.191301"
   height="1.8056484"
   color-interpolation-filters="sRGB"
   style="color-interpolation-filters:sRGB;"
   inkscape:label="Drop Shadow"><feFlood
     id="feFlood2594"
     flood-color="rgb(0,0,0)"
     flood-opacity=".52157"
     result="flood" /><feComposite
     id="feComposite2596"
     in="flood"
     in2="SourceGraphic"
     operator="in"
     result="composite1" /><feGaussianBlur
     id="feGaussianBlur2598"
     in="composite1"
     result="blur"
     stdDeviation="2.4" /><feOffset
     id="feOffset2600"
     dx="2.7"
     dy="3.1"
     result="offset" /><feComposite
     id="feComposite2602"
     in="SourceGraphic"
     in2="offset"
     result="fbSourceGraphic" /><feColorMatrix
     result="fbSourceGraphicAlpha"
     in="fbSourceGraphic"
     values="0 0 0 -1 0 0 0 0 -1 0 0 0 0 -1 0 0 0 0 1 0"
     id="feColorMatrix29" /><feFlood
     id="feFlood29"
     result="flood"
     in="fbSourceGraphic"
     flood-opacity="0.521569"
     flood-color="rgb(0,0,0)" /><feGaussianBlur
     id="feGaussianBlur29"
     result="blur"
     in="fbSourceGraphic"
     stdDeviation="2.400000" /><feOffset
     id="feOffset29"
     result="offset"
     in="blur"
     dx="2.700000"
     dy="3.100000" /><feComposite
     id="feComposite29"
     result="comp1"
     operator="in"
     in="flood"
     in2="offset" /><feComposite
     id="feComposite30"
     result="comp2"
     operator="over"
     in="fbSourceGraphic"
     in2="comp1" /></filter><filter
   id="filter2688"
   x="-1.1540448"
   y="-1.1192725"
   width="3.849048"
   height="3.8409313"
   color-interpolation-filters="sRGB"><feFlood
     id="feFlood2678"
     flood-color="rgb(0,0,0)"
     flood-opacity=".52157"
     result="flood" /><feComposite
     id="feComposite2680"
     in="flood"
     in2="SourceGraphic"
     operator="in"
     result="composite1" /><feGaussianBlur
     id="feGaussianBlur2682"
     in="composite1"
     result="blur"
     stdDeviation="2.4" /><feOffset
     id="feOffset2684"
     dx="2.7"
     dy="3.1"
     result="offset" /><feComposite
     id="feComposite2686"
     in="SourceGraphic"
     in2="offset"
     result="composite2" /></filter><filter
   id="filter2772"
   x="-0.078451672"
   y="-0.089740178"
   width="1.1936776"
   height="1.227778"
   color-interpolation-filters="sRGB"><feFlood
     id="feFlood2762"
     flood-color="rgb(0,0,0)"
     flood-opacity=".52157"
     result="flood" /><feComposite
     id="feComposite2764"
     in="flood"
     in2="SourceGraphic"
     operator="in"
     result="composite1" /><feGaussianBlur
     id="feGaussianBlur2766"
     in="composite1"
     result="blur"
     stdDeviation="2.4" /><feOffset
     id="feOffset2768"
     dx="2.7"
     dy="3.1"
     result="offset" /><feComposite
     id="feComposite2770"
     in="SourceGraphic"
     in2="offset"
     result="composite2" /></filter><filter
   id="filter2940"
   x="-0.61296931"
   y="-0.627095"
   width="2.6793688"
   height="2.7900444"
   color-interpolation-filters="sRGB"><feFlood
     id="feFlood2930"
     flood-color="rgb(0,0,0)"
     flood-opacity=".52157"
     result="flood" /><feComposite
     id="feComposite2932"
     in="flood"
     in2="SourceGraphic"
     operator="in"
     result="composite1" /><feGaussianBlur
     id="feGaussianBlur2934"
     in="composite1"
     result="blur"
     stdDeviation="2.4" /><feOffset
     id="feOffset2936"
     dx="2.7"
     dy="3.1"
     result="offset" /><feComposite
     id="feComposite2938"
     in="SourceGraphic"
     in2="offset"
     result="composite2" /></filter><filter
   id="filter3024"
   x="-0.26760826"
   y="-0.51542565"
   width="1.6606579"
   height="2.3082505"
   color-interpolation-filters="sRGB"><feFlood
     id="feFlood3014"
     flood-color="rgb(0,0,0)"
     flood-opacity=".52157"
     result="flood" /><feComposite
     id="feComposite3016"
     in="flood"
     in2="SourceGraphic"
     operator="in"
     result="composite1" /><feGaussianBlur
     id="feGaussianBlur3018"
     in="composite1"
     result="blur"
     stdDeviation="2.4" /><feOffset
     id="feOffset3020"
     dx="2.7"
     dy="3.1"
     result="offset" /><feComposite
     id="feComposite3022"
     in="SourceGraphic"
     in2="offset"
     result="composite2" /></filter>&#10;              <filter
   style="color-interpolation-filters:sRGB"
   inkscape:label="Drop Shadow"
   id="filter35"
   x="-0.092827075"
   y="-0.18725527"
   width="1.3483184"
   height="1.4997028"><feFlood
     result="flood"
     in="SourceGraphic"
     flood-opacity="0.521569"
     flood-color="rgb(0,0,0)"
     id="feFlood33" /><feGaussianBlur
     result="blur"
     in="SourceGraphic"
     stdDeviation="0.642 1.932"
     id="feGaussianBlur33" /><feOffset
     result="offset"
     in="blur"
     dx="2.700000"
     dy="3.100000"
     id="feOffset33" /><feComposite
     result="comp1"
     operator="in"
     in="flood"
     in2="offset"
     id="feComposite34" /><feComposite
     result="comp2"
     operator="over"
     in="SourceGraphic"
     in2="comp1"
     id="feComposite35" /></filter>&#10;       &#10;       &#10;       <filter
   id="filter2268-3"
   x="-0.1470581"
   y="-0.98299287"
   width="1.3630497"
   height="3.495027"
   color-interpolation-filters="sRGB"><feFlood
     id="feFlood2258-6"
     flood-color="rgb(0,0,0)"
     flood-opacity=".52157"
     result="flood" /><feComposite
     id="feComposite2260-7"
     in="flood"
     in2="SourceGraphic"
     operator="in"
     result="composite1" /><feGaussianBlur
     id="feGaussianBlur2262-5"
     in="composite1"
     result="blur"
     stdDeviation="2.4" /><feOffset
     id="feOffset2264-3"
     dx="2.7"
     dy="3.1"
     result="offset" /><feComposite
     id="feComposite2266-5"
     in="SourceGraphic"
     in2="offset"
     result="composite2" /></filter></defs>&#10;              <path
   id="path7498"
   d="m 129.34501,25.892029 c 28.02747,-5.236963 41.45821,21.446138 34.31781,37.690192 10.98416,4.320918 12.66139,15.496628 7.29338,22.86525 7.90686,4.381011 4.13236,19.527759 -2.30646,21.767049 0.99477,3.72826 -0.10861,8.61553 -4.67141,11.05692 -4.96839,2.35549 -9.54343,0.93373 -14.06656,-1.52425 0.11932,2.41 -0.57947,6.13686 -6.62279,9.95013 -9.62664,10.81276 -9.77832,14.28978 -23.96845,14.33363 -2.90459,0.0111 -9.82047,-2.37293 -11.52331,-5.11797 1.44921,4.95633 1.19419,7.50734 0.64715,10.33142 -5.41644,-3.54818 -9.345214,0.51658 -20.083824,-7.23269 -2.262508,-2.54992 -14.760165,-4.42217 -18.834134,-9.23719 -2.156373,-2.53228 -3.148456,-6.65966 0.02438,-10.15203 C 57.502285,124.33022 40.649328,120.4076 36.09302,111.77237 23.307056,116.21716 11.971098,106.10538 13.688184,96.433179 8.0615633,99.367374 2.8345656,91.835614 4.8808181,84.362751 -3.5922001,77.106941 3.2179452,63.042181 11.191982,60.822825 7.2378004,52.573636 14.891341,42.044499 22.966429,40.771882 20.722856,30.5461 37.916938,20.600355 43.936208,25.200511 45.222179,17.347757 60.347685,12.55606 68.945075,18.302269 73.773047,6.5268254 116.94874,-0.37938891 129.34505,25.893026 Z"
   fill="#e5e5e5"
   stroke="#cbcbcb"
   stroke-linejoin="round"
   stroke-miterlimit="5"
   stroke-width="1.46256"
   style="stroke-linecap:round"
   inkscape:label="brain" /><path
   id="path25730-6-0-9"
   d="m 120.95,84.048 c 4.5067,4.5894 8.0574,7.4322 11.863,11.812"
   fill="#0f5133"
   filter="url(#filter2940)"
   marker-end="url(#Arrow4)"
   stroke="#072f42"
   stroke-width="1.055"
   style="stroke-linecap:round"
   inkscape:label="arrow-recording" /><g
   pointer-events="all"
   stroke-opacity="0"
   id="g2"
   transform="translate(-10.86,-25.582)">&#10;       &#10;       <path
   id="device1"
   class="clickable"
   transform="matrix(0.26458,0,0,0.26458,93.315923,-23.062203)"
   d="m -148.98,389.82 -17.001,28.885 -33.516,-0.28125 -16.514,-29.166 17.001,-28.885 33.516,0.28125 z"
   cursor="pointer"
   fill="#072f42"
   filter="url(#filter3024)"
   onmouseout="this.style.fill='#072f42'"
   onmouseover="this.style.fill='#ff6633'" />&#10;       <path
   id="device2"
   class="clickable"
   d="m 147.77,123.12 c 0.21485,0.0446 14.459,0.17923 14.459,0.17923 l -7.289,10.996 -14.235,-0.19896 z"
   cursor="pointer"
   fill="#072f42"
   filter="url(#filter3024)"
   onmouseout="this.style.fill='#072f42'"
   onmouseover="this.style.fill='#ff6633'" /></g><path
   id="synapse4"
   style="color:#000000;fill:#4b210c;stroke:none;stroke-width:0.497419;stroke-linecap:round;stroke-dasharray:none;filter:url(#filter2268);fill-opacity:1"
   class="clickable"
   cursor="pointer"
   inkscape:label="synapse4"
   onmouseover="this.style.fill='#ff6633'"
   onmouseout="this.style.fill='#4b210c'"
   d="M 69.173021 74.507937 A 0.50006479 0.50006479 0 0 0 68.665556 74.999899 A 0.50006479 0.50006479 0 0 0 69.157518 75.507881 C 69.157518 75.507881 76.656178 75.625008 80.386341 75.765747 C 83.387078 75.878967 86.853274 76.218051 91.630151 76.730551 C 95.935127 77.1924 96.881931 77.428419 98.63234 77.683469 C 99.862454 77.862692 100.91776 78.022873 102.07091 78.196101 C 102.09946 79.386648 102.97848 80.422201 104.19637 80.606301 C 105.56104 80.812581 106.83591 79.87239 107.0422 78.507712 C 107.24848 77.143043 106.30829 75.868167 104.94361 75.661877 C 103.79665 75.488502 102.67302 76.155114 102.24816 77.211661 C 101.09717 77.038418 100.02116 76.874689 98.776517 76.693344 C 97.062329 76.443574 96.060987 76.200341 91.735571 75.736292 C 86.954275 75.223312 83.469883 74.880764 80.423032 74.765804 C 76.66341 74.623954 69.173021 74.507937 69.173021 74.507937 z " /><path
   id="synapse3"
   style="color:#000000;fill:#4b210c;fill-opacity:1;stroke:none;stroke-width:0.497419;stroke-linecap:round;stroke-dasharray:none;filter:url(#filter2268-3)"
   class="clickable"
   cursor="pointer"
   inkscape:label="synapse3"
   onmouseover="this.style.fill='#ff6633'"
   onmouseout="this.style.fill='#4b210c'"
   d="M 103.13417 72.756162 L 99.849603 69.10871 L 99.208365 70.888656 C 99.018239 70.859914 95.916598 70.391159 94.076881 70.12311 C 92.362693 69.87334 91.361489 69.629743 87.036073 69.165694 C 82.254777 68.652714 78.770336 68.310475 75.723485 68.195515 C 71.963863 68.053665 64.473605 67.937216 64.473605 67.937216 A 0.50006479 0.50006479 0 0 0 63.966037 68.429659 A 0.50006479 0.50006479 0 0 0 64.458005 68.937429 C 64.458005 68.937429 71.956212 69.054598 75.686375 69.195338 C 78.687112 69.308558 82.15343 69.647427 86.930308 70.159926 C 91.235283 70.621776 92.181837 70.858061 93.932245 71.113111 C 95.696087 71.370096 98.462507 71.787455 98.863019 71.84785 L 98.161194 73.796815 L 103.13417 72.756162 z "
   transform="rotate(-66.937099,66.884877,69.847016)" /><path
   id="synapse2"
   style="color:#000000;fill:#4b210c;stroke-width:1.60867402;stroke-linecap:round;stroke-dasharray:none;filter:url(#filter2604);fill-opacity:1"
   class="clickable"
   cursor="pointer"
   inkscape:label="synapse2"
   onmouseover="this.style.fill='#ff6633'"
   onmouseout="this.style.fill='#4b210c'"
   d="M 91.607413 35.023345 A 0.54460001 0.54460001 0 0 0 91.21312 35.156154 A 0.54460001 0.54460001 0 0 0 91.16041 35.92407 C 91.16041 35.92407 96.482733 42.028023 99.168227 44.992291 C 101.30485 47.350786 103.46262 50.20185 106.05104 54.667714 C 108.37976 58.685617 108.46678 58.952483 109.27928 60.654456 C 109.62929 61.387638 110.29126 63.178207 110.8456 64.748282 C 111.28362 65.988876 111.50694 66.659253 111.64659 67.073732 L 109.73611 67.714006 L 113.81443 71.31587 L 114.89964 65.984388 L 112.68013 66.728015 C 112.54039 66.314114 112.31451 65.637192 111.87294 64.386545 C 111.3152 62.806876 110.67412 61.049764 110.26166 60.185749 C 109.45495 58.495928 109.3276 58.149123 106.99414 54.123042 C 104.37475 49.603723 102.15957 46.673679 99.974383 44.261583 C 97.307687 41.318063 91.980519 35.208865 91.980519 35.208865 A 0.54460001 0.54460001 0 0 0 91.607413 35.023345 z " /><path
   id="synapse1"
   style="color:#000000;display:inline;fill:#4b210c;fill-opacity:1;stroke:none;stroke-width:0.497419;stroke-linecap:round;stroke-dasharray:none;filter:url(#filter2520)"
   class="clickable"
   cursor="pointer"
   inkscape:label="synapse1"
   onmouseover="this.style.fill='#ff6633'"
   onmouseout="this.style.fill='#4b210c'"
   d="M 88.800337 37.275931 C 88.59416 37.278145 88.384851 37.306218 88.176599 37.362231 C 86.843791 37.720716 86.053351 39.093332 86.411841 40.426141 C 86.729335 41.606557 87.890887 42.390452 89.096961 42.262213 C 90.246633 46.009242 93.099979 51.548947 94.990168 54.744712 C 97.51366 58.981349 98.429215 59.529722 100.20486 62.102953 C 101.34833 63.760368 103.91541 66.542167 106.22209 68.952696 C 108.52877 71.363224 110.5619 73.376735 110.5619 73.376735 C 110.75824 73.570837 111.07516 73.568857 111.26935 73.372601 C 111.46343 73.17623 111.4615 72.859826 111.26522 72.665664 C 111.26522 72.665664 109.24117 70.660748 106.94505 68.261262 C 104.64894 65.861774 102.72834 63.690564 101.68901 62.184085 C 99.023 59.041518 96.918221 56.094617 94.39692 51.861671 C 92.124512 48.046611 92.232882 46.978054 91.362983 45.388135 L 91.362983 45.386068 C 90.981664 44.689157 90.47819 43.273016 90.057113 41.953703 C 91.026886 41.405766 91.543089 40.252451 91.240509 39.127506 C 90.938042 38.002949 89.913688 37.263975 88.800337 37.275931 z " /><path
   id="neuron3"
   class="clickable"
   transform="matrix(0.2156,0,0,0.2156,84.694559,-37.383999)"
   d="m 48.564,341.08 -73.421,-1.2023 37.752,-62.983 17.835,32.093 z"
   cursor="pointer"
   fill="#0e6a93"
   filter="url(#filter2772)"
   onmouseout="this.style.fill='#0e6a93'"
   onmouseover="this.style.fill='#ff6633'" /><path
   id="neuron2"
   class="clickable"
   d="m 123.70856,79.708 a 7.8725,7.6036 0 0 1 -7.8725,7.6036 7.8725,7.6036 0 0 1 -7.8725,-7.6036 7.8725,7.6036 0 0 1 7.8725,-7.6036 7.8725,7.6036 0 0 1 7.8725,7.6036 z"
   cursor="pointer"
   fill="#0e6a93"
   filter="url(#filter2436)"
   pointer-events="all"
   stroke-opacity="0"
   onmouseout="this.style.fill='#0e6a93'"
   onmouseover="this.style.fill='#ff6633'" /><path
   id="neuron1"
   class="clickable"
   d="m 54.453559,70.269 h 13.1 c 0.0587,0 0.10595,0.18023 0.10595,0.40409 v 12.154 c 0,0.22387 -0.04725,0.4041 -0.10595,0.4041 h -13.1 c -0.0587,0 -0.10596,-0.18023 -0.10596,-0.4041 v -12.154 c 0,-0.22387 0.04726,-0.40409 0.10596,-0.40409 z"
   cursor="pointer"
   fill="#0e6a93"
   filter="url(#filter2352)"
   pointer-events="all"
   stroke-opacity="0"
   onmouseout="this.style.fill='#0e6a93'"
   onmouseover="this.style.fill='#ff6633'" /><path
   id="path25730-6-0"
   d="m 40.936968,57.994311 c 3.896,3.8949 6.9656,6.3075 10.255,10.024"
   fill="#072f42"
   filter="url(#filter2940)"
   marker-end="url(#TriangleStart-7-9)"
   stroke="#072f42"
   stroke-linecap="round"
   stroke-width="1.052"
   inkscape:label="arrow-stimulating"
   transform="rotate(-3.0908132,48.389431,65.692013)" /><text
   id="text4342"
   x="88.565132"
   y="20.702896"
   fill="#635c59"
   text-align="center"
   xml:space="preserve"
   style="font-size:4.2333px;font-family:'DejaVu Sans';text-anchor:middle;stroke-width:1.484;stroke-linecap:round;stroke-opacity:0.49615"><tspan
     id="tspan4340"
     x="88.565132"
     y="20.702896"
     fill="#635c59"
     font-size="4.2333px"
     stroke-opacity="0.49615"
     stroke-width="1.484">Neurons</tspan></text><text
   id="text4342-4"
   x="61.086967"
   y="88.863518"
   fill="#635c59"
   text-align="center"
   xml:space="preserve"
   style="font-size:4.2333px;font-family:'DejaVu Sans';text-anchor:middle;stroke-width:1.484;stroke-linecap:round;stroke-opacity:0.49615"><tspan
     id="tspan4340-8"
     x="61.086967"
     y="88.863518"
     fill="#635c59"
     font-size="4.2333px"
     stroke-opacity="0.49615"
     stroke-width="1.484">Neurons</tspan></text><text
   id="text4342-7"
   x="115.52384"
   y="92.612076"
   fill="#635c59"
   text-align="center"
   xml:space="preserve"
   style="font-size:4.2333px;font-family:'DejaVu Sans';text-anchor:middle;stroke-width:1.484;stroke-linecap:round;stroke-opacity:0.49615"><tspan
     id="tspan4340-1"
     x="115.52384"
     y="92.612076"
     fill="#635c59"
     font-size="4.2333px"
     stroke-opacity="0.49615"
     stroke-width="1.484">Neurons</tspan></text><text
   id="text4342-3"
   x="43.137665"
   y="44.912773"
   fill="#635c59"
   text-align="center"
   xml:space="preserve"
   style="font-size:4.2333px;font-family:'DejaVu Sans';text-anchor:middle;stroke-width:1.484;stroke-linecap:round;stroke-opacity:0.49615"><tspan
     id="tspan4340-5"
     x="43.137665"
     y="44.912773"
     fill="#635c59"
     font-size="4.2333px"
     stroke-opacity="0.49615"
     stroke-width="1.484">Stimulating Devices</tspan></text><text
   id="text4342-2"
   x="98.198227"
   y="-68.860313"
   fill="#69625f"
   text-align="center"
   xml:space="preserve"
   style="font-size:4.2333px;font-family:'DejaVu Sans';text-anchor:middle;stroke-width:1.484;stroke-linecap:round;stroke-opacity:0.49615"
   transform="rotate(59.77696)"><tspan
     id="tspan4340-9"
     x="98.198227"
     y="-68.860313"
     fill="#69625f"
     font-size="4.2333px"
     stroke-opacity="0.49615"
     stroke-width="1.484">Synapses</tspan></text><text
   id="text4342-2-72"
   x="-18.913246"
   y="85.802872"
   fill="#69625f"
   text-align="center"
   xml:space="preserve"
   style="font-size:4.2333px;font-family:'DejaVu Sans';text-anchor:middle;stroke-width:1.484;stroke-linecap:round;stroke-opacity:0.49615"
   transform="rotate(-64.690254)"
   inkscape:transform-center-x="-59.874451"
   inkscape:transform-center-y="-9.74183"><tspan
     id="tspan4340-9-26"
     x="-18.913246"
     y="85.802872"
     fill="#69625f"
     font-size="4.2333px"
     stroke-opacity="0.49615"
     stroke-width="1.484">Synapses</tspan></text><text
   id="text4342-2-7"
   x="90.105072"
   y="75.0056"
   fill="#69625f"
   text-align="center"
   xml:space="preserve"
   style="font-size:4.2333px;font-family:'DejaVu Sans';text-anchor:middle;stroke-width:1.484;stroke-linecap:round;stroke-opacity:0.49615"
   transform="rotate(3.8061598)"><tspan
     id="tspan4340-9-2"
     x="90.105072"
     y="75.0056"
     fill="#69625f"
     font-size="4.2333px"
     stroke-opacity="0.49615"
     stroke-width="1.484">Synapses</tspan></text><text
   id="text4446"
   x="138.15623"
   y="114.07932"
   fill="#69625f"
   text-align="center"
   xml:space="preserve"
   style="font-size:4.2333px;font-family:'DejaVu Sans';text-anchor:middle;stroke-width:1.484;stroke-linecap:round;stroke-opacity:0.49615"><tspan
     id="tspan4444"
     x="138.15623"
     y="114.07932"
     fill="#69625f"
     font-size="4.2333px"
     stroke-opacity="0.49615"
     stroke-width="1.484">Recording Devices</tspan></text>&#10;       </svg>
