<?xml version="1.0" encoding="UTF-8" standalone="no"?>
<svg
   id="mySvg"
   width="667.03"
   height="574.41"
   version="1.1"
   viewBox="0 0 176.48 151.98"
   xml:space="preserve"
   sodipodi:docname="network-brain_1.1.svg"
   inkscape:version="1.3 (0e150ed6c4, 2023-07-21)"
   inkscape:export-filename="network-brain-inkscape.svg"
   inkscape:export-xdpi="96"
   inkscape:export-ydpi="96"
   xmlns:inkscape="http://www.inkscape.org/namespaces/inkscape"
   xmlns:sodipodi="http://sodipodi.sourceforge.net/DTD/sodipodi-0.dtd"
   xmlns="http://www.w3.org/2000/svg"
   xmlns:svg="http://www.w3.org/2000/svg"><sodipodi:namedview
   id="namedview5"
   pagecolor="#ffffff"
   bordercolor="#000000"
   borderopacity="0.25"
   inkscape:showpageshadow="2"
   inkscape:pageopacity="0.0"
   inkscape:pagecheckerboard="0"
   inkscape:deskcolor="#d1d1d1"
   inkscape:zoom="1.48091"
   inkscape:cx="395.02738"
   inkscape:cy="326.82607"
   inkscape:window-width="1850"
   inkscape:window-height="1016"
   inkscape:window-x="0"
   inkscape:window-y="0"
   inkscape:window-maximized="1"
   inkscape:current-layer="mySvg"
   showgrid="false" /><defs
   id="defs13722"><marker
   id="Arrow4"
   overflow="visible"
   markerHeight="6"
   markerWidth="5"
   orient="auto-start-reverse"
   preserveAspectRatio="xMidYMid"
   viewBox="0 0 5 6"><path
     id="path1741"
     d="m1 0-3 3h-2l3-3-3-3h2z"
     fill="context-stroke"
     fill-rule="evenodd" /></marker><marker
   id="Dot"
   overflow="visible"
   markerHeight="5.6666665"
   markerWidth="5.6666665"
   orient="auto"
   preserveAspectRatio="xMidYMid"
   viewBox="0 0 5.6666667 5.6666667"><path
     id="Dot1"
     transform="scale(.5)"
     d="m5 0c0 2.76-2.24 5-5 5s-5-2.24-5-5 2.3-5 5-5c2.76 0 5 2.24 5 5z"
     fill="context-stroke"
     fill-rule="evenodd"
     stroke="context-stroke"
     stroke-width="1pt" /></marker><marker
   id="TriangleStart"
   overflow="visible"
   markerHeight="6.155385"
   markerWidth="5.3244081"
   orient="auto-start-reverse"
   preserveAspectRatio="xMidYMid"
   viewBox="0 0 5.3244081 6.1553851"><path
     id="path135"
     transform="scale(.5)"
     d="m5.77 0-8.65 5v-10z"
     fill="context-stroke"
     fill-rule="evenodd"
     stroke="context-stroke"
     stroke-width="1pt" /></marker><marker
   id="TriangleStart-7"
   overflow="visible"
   markerHeight="6.155385"
   markerWidth="5.3244081"
   orient="auto-start-reverse"
   preserveAspectRatio="xMidYMid"
   viewBox="0 0 5.3244081 6.1553851"><path
     id="path135-8"
     transform="scale(.5)"
     d="m5.77 0-8.65 5v-10z"
     fill="context-stroke"
     fill-rule="evenodd"
     stroke="context-stroke"
     stroke-width="1pt" /></marker>&#10;<marker
   id="Dot-3"
   overflow="visible"
   markerHeight="5.6666665"
   markerWidth="5.6666665"
   orient="auto"
   preserveAspectRatio="xMidYMid"
   viewBox="0 0 5.6666667 5.6666667"><path
     id="Dot1-1"
     transform="scale(.5)"
     d="m5 0c0 2.76-2.24 5-5 5s-5-2.24-5-5 2.3-5 5-5c2.76 0 5 2.24 5 5z"
     fill="context-stroke"
     fill-rule="evenodd"
     stroke="context-stroke"
     stroke-width="1pt" /></marker>&#10;<marker
   id="TriangleStart-7-9"
   overflow="visible"
   markerHeight="6.155385"
   markerWidth="5.3244081"
   orient="auto-start-reverse"
   preserveAspectRatio="xMidYMid"
   viewBox="0 0 5.3244081 6.1553851">&#10;<path
   id="path135-8-2"
   transform="scale(.5)"
   d="m5.77 0-8.65 5v-10z"
   fill="context-stroke"
   fill-rule="evenodd"
   stroke="context-stroke"
   stroke-width="1pt" /></marker>&#10;       <filter
   id="filter2268"
   x="-1.1517112"
   y="-1.4513459"
   width="3.843287"
   height="4.6837981"
   color-interpolation-filters="sRGB"><feFlood
     id="feFlood2258"
     flood-color="rgb(0,0,0)"
     flood-opacity=".52157"
     result="flood" /><feComposite
     id="feComposite2260"
     in="flood"
     in2="SourceGraphic"
     operator="in"
     result="composite1" /><feGaussianBlur
     id="feGaussianBlur2262"
     in="composite1"
     result="blur"
     stdDeviation="2.4" /><feOffset
     id="feOffset2264"
     dx="2.7"
     dy="3.1"
     result="offset" /><feComposite
     id="feComposite2266"
     in="SourceGraphic"
     in2="offset"
     result="composite2" /></filter><filter
   id="filter2352"
   x="-0.43269525"
   y="-0.44436937"
   width="2.0682164"
   height="2.1278959"
   color-interpolation-filters="sRGB"><feFlood
     id="feFlood2342"
     flood-color="rgb(0,0,0)"
     flood-opacity=".52157"
     result="flood" /><feComposite
     id="feComposite2344"
     in="flood"
     in2="SourceGraphic"
     operator="in"
     result="composite1" /><feGaussianBlur
     id="feGaussianBlur2346"
     in="composite1"
     result="blur"
     stdDeviation="2.4" /><feOffset
     id="feOffset2348"
     dx="2.7"
     dy="3.1"
     result="offset" /><feComposite
     id="feComposite2350"
     in="SourceGraphic"
     in2="offset"
     result="composite2" /></filter><filter
   id="filter2436"
   x="-0.36583044"
   y="-0.37876797"
   width="1.9031439"
   height="1.9613867"
   color-interpolation-filters="sRGB"><feFlood
     id="feFlood2426"
     flood-color="rgb(0,0,0)"
     flood-opacity=".52157"
     result="flood" /><feComposite
     id="feComposite2428"
     in="flood"
     in2="SourceGraphic"
     operator="in"
     result="composite1" /><feGaussianBlur
     id="feGaussianBlur2430"
     in="composite1"
     result="blur"
     stdDeviation="2.4" /><feOffset
     id="feOffset2432"
     dx="2.7"
     dy="3.1"
     result="offset" /><feComposite
     id="feComposite2434"
     in="SourceGraphic"
     in2="offset"
     result="composite2" /></filter><filter
   id="filter2520"
   x="-2.0633072"
   y="-2.0640922"
   width="6.2062519"
   height="6.3682398"
   color-interpolation-filters="sRGB"
   style="color-interpolation-filters:sRGB;"
   inkscape:label="Drop Shadow"><feFlood
     id="feFlood2510"
     flood-color="rgb(0,0,0)"
     flood-opacity=".52157"
     result="flood" /><feComposite
     id="feComposite2512"
     in="flood"
     in2="SourceGraphic"
     operator="in"
     result="composite1" /><feGaussianBlur
     id="feGaussianBlur2514"
     in="composite1"
     result="blur"
     stdDeviation="2.4" /><feOffset
     id="feOffset2516"
     dx="2.7"
     dy="3.1"
     result="offset" /><feComposite
     id="feComposite2518"
     in="SourceGraphic"
     in2="offset"
     result="fbSourceGraphic" /><feColorMatrix
     result="fbSourceGraphicAlpha"
     in="fbSourceGraphic"
     values="0 0 0 -1 0 0 0 0 -1 0 0 0 0 -1 0 0 0 0 1 0"
     id="feColorMatrix32" /><feFlood
     id="feFlood32"
     result="flood"
     in="fbSourceGraphic"
     flood-opacity="0.521569"
     flood-color="rgb(0,0,0)" /><feGaussianBlur
     id="feGaussianBlur32"
     result="blur"
     in="fbSourceGraphic"
     stdDeviation="1.900000" /><feOffset
     id="feOffset32"
     result="offset"
     in="blur"
     dx="2.700000"
     dy="3.100000" /><feComposite
     id="feComposite32"
     result="comp1"
     operator="in"
     in="flood"
     in2="offset" /><feComposite
     id="feComposite33"
     result="comp2"
     operator="over"
     in="fbSourceGraphic"
     in2="comp1" /></filter><filter
   id="filter2604"
   x="-2.2308678"
   y="-2.1606249"
   width="6.5074548"
   height="6.4840861"
   color-interpolation-filters="sRGB"
   style="color-interpolation-filters:sRGB;"
   inkscape:label="Drop Shadow"><feFlood
     id="feFlood2594"
     flood-color="rgb(0,0,0)"
     flood-opacity=".52157"
     result="flood" /><feComposite
     id="feComposite2596"
     in="flood"
     in2="SourceGraphic"
     operator="in"
     result="composite1" /><feGaussianBlur
     id="feGaussianBlur2598"
     in="composite1"
     result="blur"
     stdDeviation="2.4" /><feOffset
     id="feOffset2600"
     dx="2.7"
     dy="3.1"
     result="offset" /><feComposite
     id="feComposite2602"
     in="SourceGraphic"
     in2="offset"
     result="fbSourceGraphic" /><feColorMatrix
     result="fbSourceGraphicAlpha"
     in="fbSourceGraphic"
     values="0 0 0 -1 0 0 0 0 -1 0 0 0 0 -1 0 0 0 0 1 0"
     id="feColorMatrix29" /><feFlood
     id="feFlood29"
     result="flood"
     in="fbSourceGraphic"
     flood-opacity="0.521569"
     flood-color="rgb(0,0,0)" /><feGaussianBlur
     id="feGaussianBlur29"
     result="blur"
     in="fbSourceGraphic"
     stdDeviation="2.400000" /><feOffset
     id="feOffset29"
     result="offset"
     in="blur"
     dx="2.700000"
     dy="3.100000" /><feComposite
     id="feComposite29"
     result="comp1"
     operator="in"
     in="flood"
     in2="offset" /><feComposite
     id="feComposite30"
     result="comp2"
     operator="over"
     in="fbSourceGraphic"
     in2="comp1" /></filter><filter
   id="filter2688"
   x="-1.1540448"
   y="-1.1192725"
   width="3.849048"
   height="3.8409313"
   color-interpolation-filters="sRGB"><feFlood
     id="feFlood2678"
     flood-color="rgb(0,0,0)"
     flood-opacity=".52157"
     result="flood" /><feComposite
     id="feComposite2680"
     in="flood"
     in2="SourceGraphic"
     operator="in"
     result="composite1" /><feGaussianBlur
     id="feGaussianBlur2682"
     in="composite1"
     result="blur"
     stdDeviation="2.4" /><feOffset
     id="feOffset2684"
     dx="2.7"
     dy="3.1"
     result="offset" /><feComposite
     id="feComposite2686"
     in="SourceGraphic"
     in2="offset"
     result="composite2" /></filter><filter
   id="filter2772"
   x="-0.078451672"
   y="-0.089740178"
   width="1.1936776"
   height="1.227778"
   color-interpolation-filters="sRGB"><feFlood
     id="feFlood2762"
     flood-color="rgb(0,0,0)"
     flood-opacity=".52157"
     result="flood" /><feComposite
     id="feComposite2764"
     in="flood"
     in2="SourceGraphic"
     operator="in"
     result="composite1" /><feGaussianBlur
     id="feGaussianBlur2766"
     in="composite1"
     result="blur"
     stdDeviation="2.4" /><feOffset
     id="feOffset2768"
     dx="2.7"
     dy="3.1"
     result="offset" /><feComposite
     id="feComposite2770"
     in="SourceGraphic"
     in2="offset"
     result="composite2" /></filter><filter
   id="filter2940"
   x="-0.61296931"
   y="-0.627095"
   width="2.6793688"
   height="2.7900444"
   color-interpolation-filters="sRGB"><feFlood
     id="feFlood2930"
     flood-color="rgb(0,0,0)"
     flood-opacity=".52157"
     result="flood" /><feComposite
     id="feComposite2932"
     in="flood"
     in2="SourceGraphic"
     operator="in"
     result="composite1" /><feGaussianBlur
     id="feGaussianBlur2934"
     in="composite1"
     result="blur"
     stdDeviation="2.4" /><feOffset
     id="feOffset2936"
     dx="2.7"
     dy="3.1"
     result="offset" /><feComposite
     id="feComposite2938"
     in="SourceGraphic"
     in2="offset"
     result="composite2" /></filter><filter
   id="filter3024"
   x="-0.26760826"
   y="-0.51542565"
   width="1.6606579"
   height="2.3082505"
   color-interpolation-filters="sRGB"><feFlood
     id="feFlood3014"
     flood-color="rgb(0,0,0)"
     flood-opacity=".52157"
     result="flood" /><feComposite
     id="feComposite3016"
     in="flood"
     in2="SourceGraphic"
     operator="in"
     result="composite1" /><feGaussianBlur
     id="feGaussianBlur3018"
     in="composite1"
     result="blur"
     stdDeviation="2.4" /><feOffset
     id="feOffset3020"
     dx="2.7"
     dy="3.1"
     result="offset" /><feComposite
     id="feComposite3022"
     in="SourceGraphic"
     in2="offset"
     result="composite2" /></filter>&#10;              <filter
   style="color-interpolation-filters:sRGB;"
   inkscape:label="Drop Shadow"
   id="filter35"
   x="-0.33178804"
   y="-0.17280712"
   width="1.8352295"
   height="1.4482624"><feFlood
     result="flood"
     in="SourceGraphic"
     flood-opacity="0.521569"
     flood-color="rgb(0,0,0)"
     id="feFlood33" /><feGaussianBlur
     result="blur"
     in="SourceGraphic"
     stdDeviation="1.900000"
     id="feGaussianBlur33" /><feOffset
     result="offset"
     in="blur"
     dx="2.700000"
     dy="3.100000"
     id="feOffset33" /><feComposite
     result="comp1"
     operator="in"
     in="flood"
     in2="offset"
     id="feComposite34" /><feComposite
     result="comp2"
     operator="over"
     in="SourceGraphic"
     in2="comp1"
     id="feComposite35" /></filter>&#10;       &#10;       &#10;       </defs>&#10;              <path
   id="path7498"
   d="m 129.34501,25.892029 c 28.02747,-5.236963 41.45821,21.446138 34.31781,37.690192 10.98416,4.320918 12.66139,15.496628 7.29338,22.86525 7.90686,4.381011 4.13236,19.527759 -2.30646,21.767049 0.99477,3.72826 -0.10861,8.61553 -4.67141,11.05692 -4.96839,2.35549 -9.54343,0.93373 -14.06656,-1.52425 0.11932,2.41 -0.57947,6.13686 -6.62279,9.95013 -9.62664,10.81276 -9.77832,14.28978 -23.96845,14.33363 -2.90459,0.0111 -9.82047,-2.37293 -11.52331,-5.11797 1.44921,4.95633 1.19419,7.50734 0.64715,10.33142 -5.41644,-3.54818 -9.345214,0.51658 -20.083824,-7.23269 -2.262508,-2.54992 -14.760165,-4.42217 -18.834134,-9.23719 -2.156373,-2.53228 -3.148456,-6.65966 0.02438,-10.15203 C 57.502285,124.33022 40.649328,120.4076 36.09302,111.77237 23.307056,116.21716 11.971098,106.10538 13.688184,96.433179 8.0615633,99.367374 2.8345656,91.835614 4.8808181,84.362751 -3.5922001,77.106941 3.2179452,63.042181 11.191982,60.822825 7.2378004,52.573636 14.891341,42.044499 22.966429,40.771882 20.722856,30.5461 37.916938,20.600355 43.936208,25.200511 45.222179,17.347757 60.347685,12.55606 68.945075,18.302269 73.773047,6.5268254 116.94874,-0.37938891 129.34505,25.893026 Z"
   fill="#e5e5e5"
   stroke="#cbcbcb"
   stroke-linejoin="round"
   stroke-miterlimit="5"
   stroke-width="1.46256"
   style="stroke-linecap:round"
   inkscape:label="brain" /><path
   id="path25730-6-0-9"
   d="m 120.95,84.048 c 4.5067,4.5894 8.0574,7.4322 11.863,11.812"
   fill="#0f5133"
   filter="url(#filter2940)"
   marker-end="url(#Arrow4)"
   stroke="#072f42"
   stroke-width="1.055"
   style="stroke-linecap:round"
   inkscape:label="arrow-recording" /><g
   pointer-events="all"
   stroke-opacity="0"
   id="g2"
   transform="translate(-10.86,-25.582)">&#10;       &#10;       <path
   id="device1"
   class="clickable"
   transform="matrix(0.26458,0,0,0.26458,93.69,-24.212)"
   d="m -148.98,389.82 -17.001,28.885 -33.516,-0.28125 -16.514,-29.166 17.001,-28.885 33.516,0.28125 z"
   cursor="pointer"
   fill="#072f42"
   filter="url(#filter3024)"
   onmouseout="this.style.fill='#072f42'"
   onmouseover="this.style.fill='#ff6633'" />&#10;       <path
   id="device2"
   class="clickable"
   d="m 147.77,123.12 c 0.21485,0.0446 14.459,0.17923 14.459,0.17923 l -7.289,10.996 -14.235,-0.19896 z"
   cursor="pointer"
   fill="#072f42"
   filter="url(#filter3024)"
   onmouseout="this.style.fill='#072f42'"
   onmouseover="this.style.fill='#ff6633'" /></g><path
   style="color:#000000;fill:#4b210c;stroke:none;stroke-width:0.497419;stroke-linecap:round;stroke-dasharray:none;filter:url(#filter2268);fill-opacity:1"
   cursor="pointer"
   class="clickable"
   d="m 69.173203,74.50784 a 0.50006479,0.50006479 0 0 0 -0.507812,0.49219 0.50006479,0.50006479 0 0 0 0.492187,0.50781 c 0,0 7.498349,0.11708 11.228516,0.25782 3.00074,0.11322 6.467254,0.45234 11.244136,0.96484 4.30498,0.46185 5.25155,0.69808 7.00196,0.95313 1.88934,0.27527 5.28125,0.7871 5.28125,0.7871 a 0.50006479,0.50006479 0 0 0 0.57031,-0.41992 0.50006479,0.50006479 0 0 0 -0.41992,-0.56836 c 0,0 -3.39145,-0.51286 -5.28711,-0.78906 -1.71419,-0.24977 -2.7156,-0.49298 -7.04102,-0.95703 -4.781301,-0.51298 -8.265643,-0.85574 -11.312497,-0.9707 -3.759626,-0.14185 -11.25,-0.25782 -11.25,-0.25782 z"
   onmouseout="this.style.fill='#4b210c'"
   onmouseover="this.style.fill='#ff6633'"
   id="synapse4"
   inkscape:label="synapse4" /><path
   onmouseout="this.style.fill='#4b210c'"
   onmouseover="this.style.fill='#ff6633'"
   style="color:#000000;fill:#4b210c;fill-rule:evenodd;stroke:none;stroke-width:1.00013;stroke-linecap:round;-inkscape-stroke:none;filter:url(#filter2268);fill-opacity:1"
   d="m 107.04227,78.507744 c -0.20629,1.36468 -1.48127,2.30482 -2.84594,2.09854 -1.36468,-0.20629 -2.30482,-1.48127 -2.09854,-2.84594 0.20629,-1.36468 1.51094,-2.30034 2.84594,-2.09854 1.36468,0.20629 2.30482,1.48127 2.09854,2.84594 z"
   id="synapsecap4"
   cursor="pointer"
   class="clickable"
   inkscape:label="synapsecap4" /><path
   style="color:#000000;fill:#4b210c;fill-rule:evenodd;stroke:none;stroke-width:1.00013;stroke-linecap:round;-inkscape-stroke:none;filter:url(#filter2688);fill-opacity:1"
   d="m 94.212321,63.860059 -1.06542,5.1462 -3.925721,-3.500903 z"
   id="synapsecap3"
   cursor="pointer"
   class="clickable"
   transform="matrix(0.93027315,0,0,0.96829318,-3.8810742,-24.200514)"
   onmouseover="this.style.fill='#ff6633'"
   onmouseout="this.style.fill='#4b210c'"
   inkscape:label="synapsecap3" /><path
   style="fill:none;fill-opacity:1;stroke:#4b210c;stroke-width:1.3176311;stroke-linecap:round;stroke-dasharray:none;stroke-opacity:1;filter:url(#filter35)"
   d="m 81.064593,40.75918 c -0.365701,0.180931 -5.422888,8.324162 -7.800743,12.597252 -3.229691,5.80387 -7.928623,17.602983 -7.928623,17.602983"
   id="synapse3"
   cursor="pointer"
   class="clickable"
   sodipodi:nodetypes="csc"
   onmouseover="this.style.stroke='#ff6633'"
   onmouseout="this.style.stroke='#4b210c'"
   inkscape:label="synapse3" /><path
   style="color:#000000;fill:#4b210c;stroke-width:1.60867;stroke-linecap:round;stroke-dasharray:none;filter:url(#filter2604);fill-opacity:1"
   d="m 91.607422,35.023437 a 0.54460001,0.54460001 0 0 0 -0.394531,0.132813 0.54460001,0.54460001 0 0 0 -0.05273,0.767578 c 0,0 5.322317,6.104088 8.007813,9.068359 2.136626,2.358497 4.294396,5.209913 6.882816,9.675782 2.32872,4.017907 2.41602,4.284353 3.22852,5.986328 0.35001,0.733183 1.01206,2.523674 1.5664,4.09375 0.55435,1.570076 1.01368,2.943359 1.01368,2.943359 a 0.54460001,0.54460001 0 0 0 0.68944,0.341797 0.54460001,0.54460001 0 0 0 0.34375,-0.689453 c 0,0 -0.46179,-1.37736 -1.01953,-2.957031 -0.55774,-1.579671 -1.19886,-3.337156 -1.61132,-4.201172 -0.80671,-1.689822 -0.93412,-2.036415 -3.26758,-6.0625 -2.61939,-4.519323 -4.83435,-7.44923 -7.019536,-9.861328 -2.666698,-2.943523 -7.99414,-9.052735 -7.99414,-9.052735 a 0.54460001,0.54460001 0 0 0 -0.373047,-0.185547 z"
   id="synapse2"
   cursor="pointer"
   class="clickable"
   onmouseover="this.style.fill='#ff6633'"
   onmouseout="this.style.fill='#4b210c'"
   inkscape:label="synapse2" /><path
   style="color:#000000;fill:#4b210c;fill-rule:evenodd;-inkscape-stroke:none;filter:url(#filter2604);fill-opacity:1"
   d="m 113.81432,71.31598 -4.07842,-3.60177 5.16391,-1.730021 z"
   id="synapsecap2"
   cursor="pointer"
   class="clickable"
   onmouseover="this.style.fill='#ff6633'"
   onmouseout="this.style.fill='#4b210c'"
   inkscape:label="synapsecap2" /><path
   style="color:#000000;display:inline;fill:#602a0e;fill-opacity:1;stroke:none;stroke-width:0.497419;stroke-linecap:round;stroke-dasharray:none;filter:url(#filter2520)"
   d="m 88.540638,38.540541 c -0.267149,0.0715 -0.425534,0.34627 -0.353518,0.613281 0,0 0.330108,1.229711 0.779298,2.675781 1.052588,3.740988 4.060315,9.595774 6.0237,12.915292 2.523495,4.236641 3.438935,4.784912 5.214582,7.358146 1.14347,1.657417 3.7109,4.439078 6.01758,6.849609 2.30668,2.410531 4.33983,4.423828 4.33983,4.423828 0.19634,0.194102 0.51284,0.192356 0.70703,-0.0039 0.19408,-0.196371 0.19228,-0.512869 -0.004,-0.707031 0,0 -2.02419,-2.004808 -4.32031,-4.404297 -2.29611,-2.39949 -4.21639,-4.570646 -5.25572,-6.077126 -2.666017,-3.142571 -4.770767,-6.089717 -7.292071,-10.322667 -2.27241,-3.815064 -2.164341,-4.883333 -3.034241,-6.473254 v -0.002 c -0.42189,-0.77106 -0.99861,-2.428014 -1.4414,-3.853516 -0.4428,-1.425502 -0.76758,-2.638672 -0.76758,-2.638672 -0.0715,-0.267147 -0.34627,-0.425531 -0.61328,-0.353515 z"
   id="synapse1"
   cursor="pointer"
   class="clickable"
   sodipodi:nodetypes="ccsccscccscsccsccc"
   onmouseover="this.style.fill='#ff6633'"
   onmouseout="this.style.fill='#4b210c'"
   inkscape:label="synapse1" /><path
   style="color:#000000;fill:#4b210c;fill-opacity:1;fill-rule:evenodd;stroke:none;stroke-width:0.0740836;stroke-linecap:round;stroke-dasharray:none;stroke-opacity:1;filter:url(#filter2520)"
   d="m 88.176709,37.362326 c 1.332813,-0.358484 2.705463,0.432272 3.063943,1.765082 0.35849,1.33281 -0.43227,2.705455 -1.76508,3.06394 -1.332813,0.358484 -2.713253,-0.461246 -3.063943,-1.765082 -0.35849,-1.33281 0.43227,-2.705455 1.76508,-3.06394 z"
   id="synapsecap1"
   cursor="pointer"
   class="clickable"
   onmouseover="this.style.fill='#ff6633'"
   onmouseout="this.style.fill='#4b210c'"
   inkscape:label="synapsecap1" /><path
   id="neuron3"
   class="clickable"
   transform="matrix(0.2156,0,0,0.2156,84.694559,-37.383999)"
   d="m 48.564,341.08 -73.421,-1.2023 37.752,-62.983 17.835,32.093 z"
   cursor="pointer"
   fill="#0e6a93"
   filter="url(#filter2772)"
   onmouseout="this.style.fill='#0e6a93'"
   onmouseover="this.style.fill='#ff6633'" /><path
   id="neuron2"
   class="clickable"
   d="m 123.70856,79.708 a 7.8725,7.6036 0 0 1 -7.8725,7.6036 7.8725,7.6036 0 0 1 -7.8725,-7.6036 7.8725,7.6036 0 0 1 7.8725,-7.6036 7.8725,7.6036 0 0 1 7.8725,7.6036 z"
   cursor="pointer"
   fill="#0e6a93"
   filter="url(#filter2436)"
   pointer-events="all"
   stroke-opacity="0"
   onmouseout="this.style.fill='#0e6a93'"
   onmouseover="this.style.fill='#ff6633'" /><path
   id="neuron1"
   class="clickable"
   d="m 54.453559,70.269 h 13.1 c 0.0587,0 0.10595,0.18023 0.10595,0.40409 v 12.154 c 0,0.22387 -0.04725,0.4041 -0.10595,0.4041 h -13.1 c -0.0587,0 -0.10596,-0.18023 -0.10596,-0.4041 v -12.154 c 0,-0.22387 0.04726,-0.40409 0.10596,-0.40409 z"
   cursor="pointer"
   fill="#0e6a93"
   filter="url(#filter2352)"
   pointer-events="all"
   stroke-opacity="0"
   onmouseout="this.style.fill='#0e6a93'"
   onmouseover="this.style.fill='#ff6633'" /><path
   id="path25730-6-0"
   d="m 41.389559,57.332 c 3.896,3.8949 6.9656,6.3075 10.255,10.024"
   fill="#072f42"
   filter="url(#filter2940)"
   marker-end="url(#TriangleStart-7-9)"
   stroke="#072f42"
   stroke-linecap="round"
   stroke-width="1.052"
   inkscape:label="arrow-stimulating" /><text
   id="text4342"
   x="88.565132"
   y="20.702896"
   fill="#635c59"
   text-align="center"
   xml:space="preserve"
   style="font-size:4.2333px;font-family:'DejaVu Sans';text-anchor:middle;stroke-width:1.484;stroke-linecap:round;stroke-opacity:0.49615"><tspan
     id="tspan4340"
     x="88.565132"
     y="20.702896"
     fill="#635c59"
     font-size="4.2333px"
     stroke-opacity="0.49615"
     stroke-width="1.484">Neurons</tspan></text><text
   id="text4342-4"
   x="61.086967"
   y="88.863518"
   fill="#635c59"
   text-align="center"
   xml:space="preserve"
   style="font-size:4.2333px;font-family:'DejaVu Sans';text-anchor:middle;stroke-width:1.484;stroke-linecap:round;stroke-opacity:0.49615"><tspan
     id="tspan4340-8"
     x="61.086967"
     y="88.863518"
     fill="#635c59"
     font-size="4.2333px"
     stroke-opacity="0.49615"
     stroke-width="1.484">Neurons</tspan></text><text
   id="text4342-7"
   x="114.21667"
   y="92.986847"
   fill="#635c59"
   text-align="center"
   xml:space="preserve"
   style="font-size:4.2333px;font-family:'DejaVu Sans';text-anchor:middle;stroke-width:1.484;stroke-linecap:round;stroke-opacity:0.49615"><tspan
     id="tspan4340-1"
     x="114.21667"
     y="92.986847"
     fill="#635c59"
     font-size="4.2333px"
     stroke-opacity="0.49615"
     stroke-width="1.484">Neurons</tspan></text><text
   id="text4342-3"
   x="41.051632"
   y="44.13147"
   fill="#635c59"
   text-align="center"
   xml:space="preserve"
   style="font-size:4.2333px;font-family:'DejaVu Sans';text-anchor:middle;stroke-width:1.484;stroke-linecap:round;stroke-opacity:0.49615"><tspan
     id="tspan4340-5"
     x="41.051632"
     y="44.13147"
     fill="#635c59"
     font-size="4.2333px"
     stroke-opacity="0.49615"
     stroke-width="1.484">Stimulating Devices</tspan></text><text
   id="text4342-2"
   x="98.198227"
   y="-68.860313"
   fill="#69625f"
   text-align="center"
   xml:space="preserve"
   style="font-size:4.2333px;font-family:'DejaVu Sans';text-anchor:middle;stroke-width:1.484;stroke-linecap:round;stroke-opacity:0.49615"
   transform="rotate(59.77696)"><tspan
     id="tspan4340-9"
     x="98.198227"
     y="-68.860313"
     fill="#69625f"
     font-size="4.2333px"
     stroke-opacity="0.49615"
     stroke-width="1.484">Synapses</tspan></text><text
   id="text4342-2-72"
   x="-18.913246"
   y="85.802872"
   fill="#69625f"
   text-align="center"
   xml:space="preserve"
   style="font-size:4.2333px;font-family:'DejaVu Sans';text-anchor:middle;stroke-width:1.484;stroke-linecap:round;stroke-opacity:0.49615"
   transform="rotate(-64.690254)"
   inkscape:transform-center-x="-59.874451"
   inkscape:transform-center-y="-9.74183"><tspan
     id="tspan4340-9-26"
     x="-18.913246"
     y="85.802872"
     fill="#69625f"
     font-size="4.2333px"
     stroke-opacity="0.49615"
     stroke-width="1.484">Synapses</tspan></text><text
   id="text4342-2-7"
   x="90.105072"
   y="75.0056"
   fill="#69625f"
   text-align="center"
   xml:space="preserve"
   style="font-size:4.2333px;font-family:'DejaVu Sans';text-anchor:middle;stroke-width:1.484;stroke-linecap:round;stroke-opacity:0.49615"
   transform="rotate(3.8061598)"><tspan
     id="tspan4340-9-2"
     x="90.105072"
     y="75.0056"
     fill="#69625f"
     font-size="4.2333px"
     stroke-opacity="0.49615"
     stroke-width="1.484">Synapses</tspan></text><text
   id="text4446"
   x="138.15623"
   y="114.07932"
   fill="#69625f"
   text-align="center"
   xml:space="preserve"
   style="font-size:4.2333px;font-family:'DejaVu Sans';text-anchor:middle;stroke-width:1.484;stroke-linecap:round;stroke-opacity:0.49615"><tspan
     id="tspan4444"
     x="138.15623"
     y="114.07932"
     fill="#69625f"
     font-size="4.2333px"
     stroke-opacity="0.49615"
     stroke-width="1.484">Recording Devices</tspan></text>&#10;       </svg>
