<?xml version="1.0" encoding="UTF-8" standalone="no"?>
<svg
   id="mySvg"
   width="667.03"
   height="574.41"
   version="1.1"
   viewBox="0 0 176.48 151.98"
   xml:space="preserve"
   sodipodi:docname="network-brain-all_1.1.svg"
   inkscape:version="1.3 (0e150ed6c4, 2023-07-21)"
   xmlns:inkscape="http://www.inkscape.org/namespaces/inkscape"
   xmlns:sodipodi="http://sodipodi.sourceforge.net/DTD/sodipodi-0.dtd"
   xmlns="http://www.w3.org/2000/svg"
   xmlns:svg="http://www.w3.org/2000/svg"><sodipodi:namedview
   id="namedview5"
   pagecolor="#ffffff"
   bordercolor="#000000"
   borderopacity="0.25"
   inkscape:showpageshadow="2"
   inkscape:pageopacity="0.0"
   inkscape:pagecheckerboard="0"
   inkscape:deskcolor="#d1d1d1"
   inkscape:zoom="2.094323"
   inkscape:cx="355.24607"
   inkscape:cy="288.63743"
   inkscape:window-width="2560"
   inkscape:window-height="1403"
   inkscape:window-x="0"
   inkscape:window-y="0"
   inkscape:window-maximized="1"
   inkscape:current-layer="mySvg" /><defs
   id="defs13722"><marker
   id="Arrow4"
   overflow="visible"
   markerHeight="6"
   markerWidth="5"
   orient="auto-start-reverse"
   preserveAspectRatio="xMidYMid"
   viewBox="0 0 5 6"><path
     id="path1741"
     d="m1 0-3 3h-2l3-3-3-3h2z"
     fill="context-stroke"
     fill-rule="evenodd" /></marker><marker
   id="Dot"
   overflow="visible"
   markerHeight="5.6666665"
   markerWidth="5.6666665"
   orient="auto"
   preserveAspectRatio="xMidYMid"
   viewBox="0 0 5.6666667 5.6666667"><path
     id="Dot1"
     transform="scale(.5)"
     d="m5 0c0 2.76-2.24 5-5 5s-5-2.24-5-5 2.3-5 5-5c2.76 0 5 2.24 5 5z"
     fill="context-stroke"
     fill-rule="evenodd"
     stroke="context-stroke"
     stroke-width="1pt" /></marker><marker
   id="TriangleStart"
   overflow="visible"
   markerHeight="6.155385"
   markerWidth="5.3244081"
   orient="auto-start-reverse"
   preserveAspectRatio="xMidYMid"
   viewBox="0 0 5.3244081 6.1553851"><path
     id="path135"
     transform="scale(.5)"
     d="m5.77 0-8.65 5v-10z"
     fill="context-stroke"
     fill-rule="evenodd"
     stroke="context-stroke"
     stroke-width="1pt" /></marker><marker
   id="TriangleStart-7"
   overflow="visible"
   markerHeight="6.155385"
   markerWidth="5.3244081"
   orient="auto-start-reverse"
   preserveAspectRatio="xMidYMid"
   viewBox="0 0 5.3244081 6.1553851"><path
     id="path135-8"
     transform="scale(.5)"
     d="m5.77 0-8.65 5v-10z"
     fill="context-stroke"
     fill-rule="evenodd"
     stroke="context-stroke"
     stroke-width="1pt" /></marker>&#10;<marker
   id="Dot-3"
   overflow="visible"
   markerHeight="5.6666665"
   markerWidth="5.6666665"
   orient="auto"
   preserveAspectRatio="xMidYMid"
   viewBox="0 0 5.6666667 5.6666667"><path
     id="Dot1-1"
     transform="scale(.5)"
     d="m5 0c0 2.76-2.24 5-5 5s-5-2.24-5-5 2.3-5 5-5c2.76 0 5 2.24 5 5z"
     fill="context-stroke"
     fill-rule="evenodd"
     stroke="context-stroke"
     stroke-width="1pt" /></marker>&#10;<marker
   id="TriangleStart-7-9"
   overflow="visible"
   markerHeight="6.155385"
   markerWidth="5.3244081"
   orient="auto-start-reverse"
   preserveAspectRatio="xMidYMid"
   viewBox="0 0 5.3244081 6.1553851">&#10;<path
   id="path135-8-2"
   transform="scale(.5)"
   d="m5.77 0-8.65 5v-10z"
   fill="context-stroke"
   fill-rule="evenodd"
   stroke="context-stroke"
   stroke-width="1pt" /></marker>&#10;       <filter
   id="filter2268"
   x="-1.2516488"
   y="-1.5140131"
   width="4.0431622"
   height="4.8091156"
   color-interpolation-filters="sRGB"><feFlood
     id="feFlood2258"
     flood-color="rgb(0,0,0)"
     flood-opacity=".52157"
     result="flood" /><feComposite
     id="feComposite2260"
     in="flood"
     in2="SourceGraphic"
     operator="in"
     result="composite1" /><feGaussianBlur
     id="feGaussianBlur2262"
     in="composite1"
     result="blur"
     stdDeviation="2.4" /><feOffset
     id="feOffset2264"
     dx="2.7"
     dy="3.1"
     result="offset" /><feComposite
     id="feComposite2266"
     in="SourceGraphic"
     in2="offset"
     result="composite2" /></filter><filter
   id="filter2352"
   x="-0.43269525"
   y="-0.44436937"
   width="2.0682164"
   height="2.1278959"
   color-interpolation-filters="sRGB"><feFlood
     id="feFlood2342"
     flood-color="rgb(0,0,0)"
     flood-opacity=".52157"
     result="flood" /><feComposite
     id="feComposite2344"
     in="flood"
     in2="SourceGraphic"
     operator="in"
     result="composite1" /><feGaussianBlur
     id="feGaussianBlur2346"
     in="composite1"
     result="blur"
     stdDeviation="2.4" /><feOffset
     id="feOffset2348"
     dx="2.7"
     dy="3.1"
     result="offset" /><feComposite
     id="feComposite2350"
     in="SourceGraphic"
     in2="offset"
     result="composite2" /></filter><filter
   id="filter2436"
   x="-0.36583044"
   y="-0.37876797"
   width="1.9031439"
   height="1.9613867"
   color-interpolation-filters="sRGB"><feFlood
     id="feFlood2426"
     flood-color="rgb(0,0,0)"
     flood-opacity=".52157"
     result="flood" /><feComposite
     id="feComposite2428"
     in="flood"
     in2="SourceGraphic"
     operator="in"
     result="composite1" /><feGaussianBlur
     id="feGaussianBlur2430"
     in="composite1"
     result="blur"
     stdDeviation="2.4" /><feOffset
     id="feOffset2432"
     dx="2.7"
     dy="3.1"
     result="offset" /><feComposite
     id="feComposite2434"
     in="SourceGraphic"
     in2="offset"
     result="composite2" /></filter><filter
   id="filter2520"
   x="-2.0633072"
   y="-2.0640922"
   width="6.2062519"
   height="6.3682398"
   color-interpolation-filters="sRGB"
   style="color-interpolation-filters:sRGB;"
   inkscape:label="Drop Shadow"><feFlood
     id="feFlood2510"
     flood-color="rgb(0,0,0)"
     flood-opacity=".52157"
     result="flood" /><feComposite
     id="feComposite2512"
     in="flood"
     in2="SourceGraphic"
     operator="in"
     result="composite1" /><feGaussianBlur
     id="feGaussianBlur2514"
     in="composite1"
     result="blur"
     stdDeviation="2.4" /><feOffset
     id="feOffset2516"
     dx="2.7"
     dy="3.1"
     result="offset" /><feComposite
     id="feComposite2518"
     in="SourceGraphic"
     in2="offset"
     result="fbSourceGraphic" /><feColorMatrix
     result="fbSourceGraphicAlpha"
     in="fbSourceGraphic"
     values="0 0 0 -1 0 0 0 0 -1 0 0 0 0 -1 0 0 0 0 1 0"
     id="feColorMatrix32" /><feFlood
     id="feFlood32"
     result="flood"
     in="fbSourceGraphic"
     flood-opacity="0.521569"
     flood-color="rgb(0,0,0)" /><feGaussianBlur
     id="feGaussianBlur32"
     result="blur"
     in="fbSourceGraphic"
     stdDeviation="1.900000" /><feOffset
     id="feOffset32"
     result="offset"
     in="blur"
     dx="2.700000"
     dy="3.100000" /><feComposite
     id="feComposite32"
     result="comp1"
     operator="in"
     in="flood"
     in2="offset" /><feComposite
     id="feComposite33"
     result="comp2"
     operator="over"
     in="fbSourceGraphic"
     in2="comp1" /></filter><filter
   id="filter2604"
   x="-2.2308678"
   y="-2.1606249"
   width="6.5074548"
   height="6.4840861"
   color-interpolation-filters="sRGB"
   style="color-interpolation-filters:sRGB;"
   inkscape:label="Drop Shadow"><feFlood
     id="feFlood2594"
     flood-color="rgb(0,0,0)"
     flood-opacity=".52157"
     result="flood" /><feComposite
     id="feComposite2596"
     in="flood"
     in2="SourceGraphic"
     operator="in"
     result="composite1" /><feGaussianBlur
     id="feGaussianBlur2598"
     in="composite1"
     result="blur"
     stdDeviation="2.4" /><feOffset
     id="feOffset2600"
     dx="2.7"
     dy="3.1"
     result="offset" /><feComposite
     id="feComposite2602"
     in="SourceGraphic"
     in2="offset"
     result="fbSourceGraphic" /><feColorMatrix
     result="fbSourceGraphicAlpha"
     in="fbSourceGraphic"
     values="0 0 0 -1 0 0 0 0 -1 0 0 0 0 -1 0 0 0 0 1 0"
     id="feColorMatrix29" /><feFlood
     id="feFlood29"
     result="flood"
     in="fbSourceGraphic"
     flood-opacity="0.521569"
     flood-color="rgb(0,0,0)" /><feGaussianBlur
     id="feGaussianBlur29"
     result="blur"
     in="fbSourceGraphic"
     stdDeviation="2.400000" /><feOffset
     id="feOffset29"
     result="offset"
     in="blur"
     dx="2.700000"
     dy="3.100000" /><feComposite
     id="feComposite29"
     result="comp1"
     operator="in"
     in="flood"
     in2="offset" /><feComposite
     id="feComposite30"
     result="comp2"
     operator="over"
     in="fbSourceGraphic"
     in2="comp1" /></filter><filter
   id="filter2688"
   x="-1.3503207"
   y="-1.264189"
   width="4.1785733"
   height="4.1704565"
   color-interpolation-filters="sRGB"><feFlood
     id="feFlood2678"
     flood-color="rgb(0,0,0)"
     flood-opacity=".52157"
     result="flood" /><feComposite
     id="feComposite2680"
     in="flood"
     in2="SourceGraphic"
     operator="in"
     result="composite1" /><feGaussianBlur
     id="feGaussianBlur2682"
     in="composite1"
     result="blur"
     stdDeviation="2.4" /><feOffset
     id="feOffset2684"
     dx="2.7"
     dy="3.1"
     result="offset" /><feComposite
     id="feComposite2686"
     in="SourceGraphic"
     in2="offset"
     result="composite2" /></filter><filter
   id="filter2772"
   x="-0.078451672"
   y="-0.089740178"
   width="1.1936776"
   height="1.227778"
   color-interpolation-filters="sRGB"><feFlood
     id="feFlood2762"
     flood-color="rgb(0,0,0)"
     flood-opacity=".52157"
     result="flood" /><feComposite
     id="feComposite2764"
     in="flood"
     in2="SourceGraphic"
     operator="in"
     result="composite1" /><feGaussianBlur
     id="feGaussianBlur2766"
     in="composite1"
     result="blur"
     stdDeviation="2.4" /><feOffset
     id="feOffset2768"
     dx="2.7"
     dy="3.1"
     result="offset" /><feComposite
     id="feComposite2770"
     in="SourceGraphic"
     in2="offset"
     result="composite2" /></filter><filter
   id="filter2940"
   x="-0.61296931"
   y="-0.627095"
   width="2.6793688"
   height="2.7900444"
   color-interpolation-filters="sRGB"><feFlood
     id="feFlood2930"
     flood-color="rgb(0,0,0)"
     flood-opacity=".52157"
     result="flood" /><feComposite
     id="feComposite2932"
     in="flood"
     in2="SourceGraphic"
     operator="in"
     result="composite1" /><feGaussianBlur
     id="feGaussianBlur2934"
     in="composite1"
     result="blur"
     stdDeviation="2.4" /><feOffset
     id="feOffset2936"
     dx="2.7"
     dy="3.1"
     result="offset" /><feComposite
     id="feComposite2938"
     in="SourceGraphic"
     in2="offset"
     result="composite2" /></filter><filter
   id="filter3024"
   x="-0.26760826"
   y="-0.51542565"
   width="1.6606579"
   height="2.3082505"
   color-interpolation-filters="sRGB"><feFlood
     id="feFlood3014"
     flood-color="rgb(0,0,0)"
     flood-opacity=".52157"
     result="flood" /><feComposite
     id="feComposite3016"
     in="flood"
     in2="SourceGraphic"
     operator="in"
     result="composite1" /><feGaussianBlur
     id="feGaussianBlur3018"
     in="composite1"
     result="blur"
     stdDeviation="2.4" /><feOffset
     id="feOffset3020"
     dx="2.7"
     dy="3.1"
     result="offset" /><feComposite
     id="feComposite3022"
     in="SourceGraphic"
     in2="offset"
     result="composite2" /></filter>&#10;              <filter
   style="color-interpolation-filters:sRGB;"
   inkscape:label="Drop Shadow"
   id="filter35"
   x="-0.34188059"
   y="-0.17806368"
   width="1.8554146"
   height="1.4587756"><feFlood
     result="flood"
     in="SourceGraphic"
     flood-opacity="0.521569"
     flood-color="rgb(0,0,0)"
     id="feFlood33" /><feGaussianBlur
     result="blur"
     in="SourceGraphic"
     stdDeviation="1.900000"
     id="feGaussianBlur33" /><feOffset
     result="offset"
     in="blur"
     dx="2.700000"
     dy="3.100000"
     id="feOffset33" /><feComposite
     result="comp1"
     operator="in"
     in="flood"
     in2="offset"
     id="feComposite34" /><feComposite
     result="comp2"
     operator="over"
     in="SourceGraphic"
     in2="comp1"
     id="feComposite35" /></filter></defs>&#10;              <path
   id="path7498"
   d="m 131.0032,23.205608 c 28.124,-5.255 41.601,21.52 34.436,37.82 11.022,4.3358 12.705,15.55 7.3185,22.944 7.9341,4.3961 4.1466,19.595012 -2.3144,21.842012 0.9982,3.7411 -0.10898,8.6452 -4.6875,11.095 -4.9855,2.3636 -9.5763,0.93695 -14.115,-1.5295 0.11973,2.4183 -0.58147,6.158 -6.6456,9.9844 -9.6598,10.85 -9.812,14.339 -24.051,14.383 -2.9146,0.0111 -9.8543,-2.3811 -11.563,-5.1356 1.4542,4.9734 1.1983,7.5332 0.64938,10.367 -5.4351,-3.5604 -9.3774,0.51836 -20.152996,-7.2576 -2.2703,-2.5587 -14.811,-4.4374 -18.899,-9.269 -2.1638,-2.541 -3.1593,-6.6826 0.02446,-10.187 -12.09,3.7205 -29.001,-0.21563 -33.573,-8.8806 -12.83,4.4601 -24.205,-5.6865 -22.482,-15.392012 -5.646,2.9443 -10.891,-4.6134 -8.8377,-12.112 -8.5022,-7.2808 -1.6686,-21.394 6.3329,-23.621 -3.9678,-8.2776 3.7121,-18.843 11.815,-20.12 -2.2513,-10.261 15.002,-20.241 21.042,-15.625 1.2904,-7.8798 16.468,-12.6879994 25.095,-6.922 4.8446,-11.8159994 48.168996,-18.7459994 60.607996,7.6169 z"
   fill="#e5e5e5"
   stroke="#cbcbcb"
   stroke-linejoin="round"
   stroke-miterlimit="5"
   stroke-width="1.4676"
   style="stroke-linecap:round" /><path
   id="path25730-6-0-9"
   d="m 120.95,84.048 c 4.5067,4.5894 8.0574,7.4322 11.863,11.812"
   fill="#0f5133"
   filter="url(#filter2940)"
   marker-end="url(#Arrow4)"
   stroke="#072f42"
   stroke-width="1.055"
   style="stroke-linecap:round" /><path
   style="color:#000000;fill:#922c00;stroke-linecap:round;filter:url(#filter2604);stroke-width:1.60867402;stroke-dasharray:none"
   d="m 91.607422,35.023437 a 0.54460001,0.54460001 0 0 0 -0.394531,0.132813 0.54460001,0.54460001 0 0 0 -0.05273,0.767578 c 0,0 5.322317,6.104088 8.007813,9.068359 2.136626,2.358497 4.294396,5.209913 6.882816,9.675782 2.32872,4.017907 2.41602,4.284353 3.22852,5.986328 0.35001,0.733183 1.01206,2.523674 1.5664,4.09375 0.55435,1.570076 1.01368,2.943359 1.01368,2.943359 a 0.54460001,0.54460001 0 0 0 0.68944,0.341797 0.54460001,0.54460001 0 0 0 0.34375,-0.689453 c 0,0 -0.46179,-1.37736 -1.01953,-2.957031 -0.55774,-1.579671 -1.19886,-3.337156 -1.61132,-4.201172 -0.80671,-1.689822 -0.93412,-2.036415 -3.26758,-6.0625 -2.61939,-4.519323 -4.83435,-7.44923 -7.019536,-9.861328 -2.666698,-2.943523 -7.99414,-9.052735 -7.99414,-9.052735 a 0.54460001,0.54460001 0 0 0 -0.373047,-0.185547 z"
   id="path28" /><path
   style="color:#000000;fill:#922c00;fill-rule:evenodd;-inkscape-stroke:none;filter:url(#filter2604)"
   d="m 113.81432,71.31598 -4.07842,-3.60177 5.16391,-1.730021 z"
   id="path26" /><path
   style="color:#000000;fill:#922c00;fill-rule:evenodd;stroke:none;stroke-opacity:1;-inkscape-stroke:none;filter:url(#filter2604)"
   d="m 5.4895805,-4.8062918 -6.35742995,2.130859 5.02148995,4.433594 0.125,-0.615235 z m -0.96289,1.08789 -0.83594,4.09961003 -3.13476995,-2.76757803 z"
   id="path27" /><g
   pointer-events="all"
   stroke-opacity="0"
   id="g2"
   transform="translate(-10.86,-25.582)">&#10;       <path
   id="neuron3"
   class="clickable"
   transform="matrix(0.2156,0,0,0.2156,95.408,-11.802)"
   d="m 48.564,341.08 -73.421,-1.2023 37.752,-62.983 17.835,32.093 z"
   cursor="pointer"
   fill="#0e6a93"
   filter="url(#filter2772)"
   onmouseout="this.style.fill='#0e6a93'"
   onmouseover="this.style.fill='#ff6633'" />&#10;       <path
   id="device1"
   class="clickable"
   transform="matrix(0.26458,0,0,0.26458,93.69,-24.212)"
   d="m -148.98,389.82 -17.001,28.885 -33.516,-0.28125 -16.514,-29.166 17.001,-28.885 33.516,0.28125 z"
   cursor="pointer"
   fill="#072f42"
   filter="url(#filter3024)"
   onmouseout="this.style.fill='#072f42'"
   onmouseover="this.style.fill='#ff6633'" />&#10;       <path
   id="device2"
   class="clickable"
   d="m 147.77,123.12 c 0.21485,0.0446 14.459,0.17923 14.459,0.17923 l -7.289,10.996 -14.235,-0.19896 z"
   cursor="pointer"
   fill="#072f42"
   filter="url(#filter3024)"
   onmouseout="this.style.fill='#072f42'"
   onmouseover="this.style.fill='#ff6633'" /></g><path
   style="color:#000000;fill:#922c00;stroke:#922c00;stroke-width:1.00013;stroke-linecap:round;-inkscape-stroke:none;filter:url(#filter2688)"
   d="M 92.542969,65.732422 C 89.319205,64.614137 72.489054,94.79634 74.978516,96.513673 c 0.27129,0.104169 -1.359152,-0.57062 -0.234135,-0.702927 0,0 3.082811,-7.203684 4.53704,-10.746369 1.686619,-2.326145 2.73196,-5.815233 5.532342,-9.885408 2.519866,-3.66277 2.781982,-4.322072 3.920382,-5.718022 1.048632,-1.285904 3.545423,-3.032181 3.545423,-3.032181 -0.04737,-0.58254 0.479461,-0.502619 0.263396,-0.696343 z"
   id="path11"
   transform="matrix(0.91016375,0,0,0.92863829,-60.341831,-57.469199)"
   sodipodi:nodetypes="sccccscss" /><path
   style="color:#000000;fill:#922c00;stroke:#922c00;stroke-width:0;stroke-linecap:round;stroke-dasharray:none;filter:url(#filter2688)"
   d="m 92.132812,65.103516 c -0.26327,0.0152 -0.520542,0.130429 -0.707031,0.339843 0,0 -2.239805,2.51106 -3.345703,3.867188 -1.126048,1.380804 -1.401924,1.667546 -3.929687,5.341797 -2.851235,4.144087 -4.500129,7.315051 -5.705079,10.25 -1.470685,3.582774 -4.235458,10.745793 -4.236328,10.748047 -0.203556,0.524678 0.06605,1.129303 0.591797,1.330078 0.523208,0.199662 1.123649,-0.06673 1.324219,-0.589844 0,0 2.769943,-7.179509 4.21875,-10.708984 1.15299,-2.80839 2.713952,-5.820685 5.498047,-9.867188 2.517468,-3.659284 2.683669,-3.80605 3.826172,-5.207031 1.02958,-1.262541 3.287736,-3.797338 3.289062,-3.798828 v -0.002 c 0.371931,-0.417714 0.336517,-1.073747 -0.08008,-1.447266 -0.209556,-0.187438 -0.480279,-0.271096 -0.744141,-0.255859 z m 0.07617,1.001953 c 0.01504,0.01348 0.01542,0.02009 0.002,0.03516 v 0.002 c 0,0 -2.249027,2.523138 -3.316406,3.832031 -1.134295,1.390917 -1.354694,1.607189 -3.876953,5.273438 -2.816663,4.093839 -4.914023,8.767239 -6.0922,11.636977 -1.459649,3.555888 -3.733972,9.146226 -3.733972,9.146226 -0.0073,0.01892 -0.01429,0.02289 -0.0332,0.01563 h -0.002 c -0.01906,-0.0073 -0.512827,1.390086 -0.505447,1.371066 3.2454,-11.245733 10.383593,-22.221295 17.523074,-31.310563 0.01351,-0.01523 0.01998,-0.01553 0.03516,-0.002 z"
   id="path12"
   sodipodi:nodetypes="ccccccccccccccccccccccccccccc"
   transform="matrix(0.91016375,0,0,0.92863829,-62.688012,-77.894588)" /><path
   style="color:#000000;fill:#922c00;fill-rule:evenodd;stroke:#922c00;stroke-width:1.00013;stroke-linecap:round;-inkscape-stroke:none;filter:url(#filter2688)"
   d="m 94.212321,63.860059 -1.06542,5.1462 -3.925721,-3.500903 z"
   id="path13"
   transform="matrix(0.76569172,0,0,0.79698534,11.045013,-13.440868)" /><path
   style="color:#000000;fill:#922c00;fill-rule:evenodd;stroke:#922c00;stroke-width:1.00013;stroke-linecap:round;-inkscape-stroke:none;filter:url(#filter2688)"
   d="m 94.876953,63.115234 -0.820312,0.269532 -5.814454,1.916015 5.21875,4.65625 z m -1.330078,1.492188 -0.714844,3.447265 -2.630859,-2.345703 z"
   id="path14"
   transform="matrix(0.76569172,0,0,0.79698534,-47.672538,-63.780268)" /><path
   style="color:#000000;fill:#922c00;fill-rule:evenodd;stroke:#922c00;stroke-width:0.47096;stroke-linecap:round;stroke-dasharray:none;filter:url(#filter2688)"
   d="m 94.677734,63.337891 -0.576172,0.189453 -5.566406,1.835937 4.832031,4.308594 z"
   id="path15"
   transform="matrix(0.76569172,0,0,0.79698534,-52.419933,-63.43134)" /><path
   style="color:#000000;fill:#922c00;fill-opacity:1;fill-rule:evenodd;stroke:none;stroke-width:0;stroke-linecap:round;stroke-dasharray:none;filter:url(#filter2688)"
   d="m 94.938367,62.9767 -0.735317,0.243815 -0.516472,0.171377 -5.728461,1.90635 5.492111,4.939902 z m -1.192262,1.346282 -0.85962,4.197856 -3.172363,-2.855107 z"
   id="path16"
   transform="matrix(0.76569172,0,0,0.79698534,-72.697817,-60.683488)" /><path
   style="color:#000000;fill:#922c00;stroke:#922c00;stroke-width:0.49741894;stroke-linecap:round;stroke-dasharray:none;filter:url(#filter2268)"
   d="m 69.173203,74.50784 a 0.50006479,0.50006479 0 0 0 -0.507812,0.49219 0.50006479,0.50006479 0 0 0 0.492187,0.50781 c 0,0 7.498349,0.11708 11.228516,0.25782 3.00074,0.11322 6.467254,0.45234 11.244136,0.96484 4.30498,0.46185 5.25155,0.69808 7.00196,0.95313 1.88934,0.27527 5.28125,0.7871 5.28125,0.7871 a 0.50006479,0.50006479 0 0 0 0.57031,-0.41992 0.50006479,0.50006479 0 0 0 -0.41992,-0.56836 c 0,0 -3.39145,-0.51286 -5.28711,-0.78906 -1.71419,-0.24977 -2.7156,-0.49298 -7.04102,-0.95703 -4.781301,-0.51298 -8.265643,-0.85574 -11.312497,-0.9707 -3.759626,-0.14185 -11.25,-0.25782 -11.25,-0.25782 z"
   id="path20" /><path
   style="color:#000000;fill:#922c00;fill-rule:evenodd;stroke:#922c00;stroke-width:1.00013;stroke-linecap:round;-inkscape-stroke:none;filter:url(#filter2268)"
   d="m 106.87794,78.70218 c -0.20629,1.36468 -1.48127,2.30482 -2.84594,2.09854 -1.36468,-0.20629 -2.30482,-1.48127 -2.09854,-2.84594 0.20629,-1.36468 1.51094,-2.30034 2.84594,-2.09854 1.36468,0.20629 2.30482,1.48127 2.09854,2.84594 z"
   id="path18" /><path
   style="color:#000000;fill:#922c00;fill-rule:evenodd;stroke:none;stroke-width:0.153459;stroke-linecap:round;stroke-dasharray:none;filter:url(#filter2268)"
   d="m 3.3324622,-25.940967 c -1.517307,-0.22936 -2.99062704,0.8311 -3.22459704,2.37891 -0.23324,1.54302 0.83587,2.99331 2.37890004,3.22656 1.543017,0.23324 2.991357,-0.83588 3.224607,-2.37891 0.23324,-1.54302 -0.83588,-2.99331 -2.37891,-3.22656 z m -0.0996,0.66016 c 1.18632,0.17933 1.99963,1.28048 1.82031,2.46679 -0.17933,1.18633 -1.28048,1.99768 -2.466797,1.81836 -1.18633,-0.17933 -1.99768004,-1.28048 -1.81836004,-2.46679 0.17861,-1.18156 1.31216004,-1.99261 2.46484704,-1.81836 z"
   id="path19" /><path
   style="fill:none;fill-opacity:1;stroke:#922c00;stroke-width:1.63513;stroke-linecap:round;stroke-dasharray:none;stroke-opacity:1;filter:url(#filter35)"
   d="m 80.815092,40.283209 c -0.365701,0.180931 -5.422888,8.324162 -7.800743,12.597252 -3.229691,5.80387 -7.928623,17.602983 -7.928623,17.602983"
   id="path29"
   sodipodi:nodetypes="csc" /><path
   style="color:#000000;fill:#922c00;stroke:#922c00;stroke-width:0.497419;stroke-linecap:round;stroke-dasharray:none;filter:url(#filter2520)"
   d="m 88.798493,39.59066 c -0.267149,0.0715 -0.425534,0.34627 -0.353518,0.613281 0,0 0.330108,1.229711 0.779298,2.675781 1.052588,3.740988 4.060315,9.595774 6.0237,12.915292 2.52349,4.236641 3.43893,4.784912 5.214577,7.358146 1.14347,1.657417 3.7109,4.439078 6.01758,6.849609 2.30668,2.410531 4.33984,4.423828 4.33984,4.423828 0.19634,0.194102 0.51284,0.192356 0.70703,-0.0039 0.19408,-0.196371 0.19228,-0.512869 -0.004,-0.707031 0,0 -2.0242,-2.004808 -4.32032,-4.404297 -2.29611,-2.39949 -4.21639,-4.570646 -5.25572,-6.077126 -2.438273,-2.26366 -4.267897,-6.238752 -6.789197,-10.471702 -2.27241,-3.815064 -2.66721,-4.734298 -3.53711,-6.324219 v -0.002 c -0.42189,-0.77106 -0.99861,-2.428014 -1.4414,-3.853516 -0.4428,-1.425502 -0.76758,-2.638672 -0.76758,-2.638672 -0.0715,-0.267147 -0.34627,-0.425531 -0.61328,-0.353515 z"
   id="path24"
   sodipodi:nodetypes="ccsccscccscsccsccc" /><path
   style="color:#000000;fill:#922c00;fill-opacity:1;fill-rule:evenodd;stroke:none;stroke-width:0.0740836;stroke-linecap:round;stroke-dasharray:none;stroke-opacity:1;filter:url(#filter2520)"
   d="m 87.813101,35.959538 c 1.332813,-0.358484 2.705463,0.432272 3.063943,1.765082 0.35849,1.33281 -0.43227,2.705455 -1.76508,3.06394 -1.332813,0.358484 -2.713253,-0.461246 -3.063943,-1.765082 -0.35849,-1.33281 0.43227,-2.705455 1.76508,-3.06394 z"
   id="path22" /><g
   id="g5"
   transform="translate(-10.821441,-25.582)"><path
   id="neuron2"
   class="clickable"
   d="m 134.53,105.29 a 7.8725,7.6036 0 0 1 -7.8725,7.6036 7.8725,7.6036 0 0 1 -7.8725,-7.6036 7.8725,7.6036 0 0 1 7.8725,-7.6036 7.8725,7.6036 0 0 1 7.8725,7.6036 z"
   cursor="pointer"
   fill="#0e6a93"
   filter="url(#filter2436)"
   pointer-events="all"
   stroke-opacity="0"
   onmouseout="this.style.fill='#0e6a93'"
   onmouseover="this.style.fill='#ff6633'" />&#10;       <path
   id="neuron1"
   class="clickable"
   d="m 65.275,95.851 h 13.1 c 0.0587,0 0.10595,0.18023 0.10595,0.40409 v 12.154 c 0,0.22387 -0.04725,0.4041 -0.10595,0.4041 h -13.1 c -0.0587,0 -0.10596,-0.18023 -0.10596,-0.4041 v -12.154 c 0,-0.22387 0.04726,-0.40409 0.10596,-0.40409 z"
   cursor="pointer"
   fill="#0e6a93"
   filter="url(#filter2352)"
   pointer-events="all"
   stroke-opacity="0"
   onmouseout="this.style.fill='#0e6a93'"
   onmouseover="this.style.fill='#ff6633'" />&#10;       <path
   id="path25730-6-0"
   d="m 52.211,82.914 c 3.896,3.8949 6.9656,6.3075 10.255,10.024"
   fill="#072f42"
   filter="url(#filter2940)"
   marker-end="url(#TriangleStart-7-9)"
   stroke="#072f42"
   stroke-linecap="round"
   stroke-width="1.052" /><g
   font-family="'DejaVu Sans'"
   font-size="4.2333px"
   stroke-linecap="round"
   stroke-opacity="0.49615"
   stroke-width="1.484"
   text-anchor="middle"
   id="g4">&#10;       <text
   id="text4342"
   x="99.386574"
   y="46.284897"
   fill="#635c59"
   text-align="center"
   xml:space="preserve"><tspan
     id="tspan4340"
     x="99.386574"
     y="46.284897"
     fill="#635c59"
     font-size="4.2333px"
     stroke-opacity="0.49615"
     stroke-width="1.484">Neurons</tspan></text><text
   id="text4342-3"
   x="51.873074"
   y="69.71347"
   fill="#635c59"
   text-align="center"
   xml:space="preserve"><tspan
     id="tspan4340-5"
     x="51.873074"
     y="69.71347"
     fill="#635c59"
     font-size="4.2333px"
     stroke-opacity="0.49615"
     stroke-width="1.484">Stimulating Devices</tspan></text><text
   id="text4342-2"
   x="127.56969"
   y="73.442909"
   fill="#69625f"
   text-align="center"
   xml:space="preserve"><tspan
     id="tspan4340-9"
     x="127.56969"
     y="73.442909"
     fill="#69625f"
     font-size="4.2333px"
     stroke-opacity="0.49615"
     stroke-width="1.484">Synapses</tspan></text><text
   id="text4446"
   x="148.97768"
   y="139.66132"
   fill="#69625f"
   text-align="center"
   xml:space="preserve"><tspan
     id="tspan4444"
     x="148.97768"
     y="139.66132"
     fill="#69625f"
     font-size="4.2333px"
     stroke-opacity="0.49615"
     stroke-width="1.484">Recording Devices</tspan></text></g></g>&#10;       </svg>
