<?xml version="1.0" encoding="UTF-8" standalone="no"?>
<!-- Created with Inkscape (http://www.inkscape.org/) -->

<svg
   width="50.923359mm"
   height="52.738369mm"
   viewBox="0 0 50.923359 52.738369"
   version="1.1"
   id="svg1"
   xml:space="preserve"
   xmlns:inkscape="http://www.inkscape.org/namespaces/inkscape"
   xmlns:sodipodi="http://sodipodi.sourceforge.net/DTD/sodipodi-0.dtd"
   xmlns="http://www.w3.org/2000/svg"
   xmlns:svg="http://www.w3.org/2000/svg"><sodipodi:namedview
     id="namedview1"
     pagecolor="#ffffff"
     bordercolor="#000000"
     borderopacity="0.25"
     inkscape:showpageshadow="2"
     inkscape:pageopacity="0.0"
     inkscape:pagecheckerboard="true"
     inkscape:deskcolor="#d1d1d1"
     inkscape:document-units="mm"
     inkscape:zoom="0.72693603"
     inkscape:cx="396.18342"
     inkscape:cy="561.25984"
     inkscape:window-width="1850"
     inkscape:window-height="1016"
     inkscape:window-x="0"
     inkscape:window-y="0"
     inkscape:window-maximized="1"
     inkscape:current-layer="layer1" /><defs
     id="defs1" /><g
     inkscape:label="Layer 1"
     inkscape:groupmode="layer"
     id="layer1"
     transform="translate(-133.94254,-70.697805)"><path
       style="fill:#000000;fill-opacity:1;stroke-width:0.113655"
       d="m 152.44661,123.31807 c -0.35633,-0.20768 -0.4487,-0.90304 -0.31875,-2.3996 0.21723,-2.50172 0.84353,-4.87206 1.5815,-5.9854 0.37642,-0.56788 0.36205,-0.97985 -0.03,-0.86008 -1.02709,0.31375 -4.91025,2.54983 -6.2249,3.58454 -0.99234,0.78102 -2.2434,-8.6e-4 -1.68143,-1.05108 0.41401,-0.77358 4.67915,-3.34174 7.34245,-4.42108 l 0.92797,-0.37608 0.0742,-0.74877 c 0.3155,-3.18286 -2.0054,-6.37776 -5.25268,-7.23072 -0.36048,-0.0947 -1.0723,-0.17431 -1.58182,-0.17694 -1.56981,-0.008 -2.28599,0.25264 -4.03193,1.46803 l -1.20769,0.84069 -0.3523,1.15218 c -0.74261,2.42862 -1.26657,5.62196 -1.26773,7.72621 -8.6e-4,1.30672 -0.13809,1.95155 -0.45149,2.11928 -0.37302,0.19964 -1.00439,0.13599 -1.26823,-0.12785 -0.23563,-0.23563 -0.24092,-0.3056 -0.17812,-2.35835 0.0654,-2.1384 0.25761,-3.75121 0.64486,-5.41138 0.11663,-0.50001 0.19781,-0.92335 0.1804,-0.94076 -0.0174,-0.0174 -0.68125,0.54511 -1.4752,1.25006 -2.58318,2.29363 -2.66966,2.36146 -3.01081,2.36146 -0.17611,0 -0.45496,-0.106 -0.61967,-0.23556 -0.24149,-0.18996 -0.29946,-0.33123 -0.29946,-0.72979 0,-0.48223 0.0297,-0.52177 1.22179,-1.62824 1.49866,-1.39098 3.09906,-2.7431 4.73268,-3.99847 l 1.23777,-0.95117 -0.72632,-0.1466 c -1.37495,-0.27752 -2.66231,-0.73663 -4.25526,-1.51755 -1.9274,-0.94488 -2.21066,-1.17703 -2.21066,-1.81177 0,-0.59459 0.30352,-0.914675 0.86734,-0.914675 0.28612,0 0.71319,0.171757 1.39228,0.559935 1.9927,1.13907 4.36057,1.88686 6.38472,2.01633 l 1.08625,0.0695 1.13003,-0.7101 c 2.40531,-1.51147 3.51075,-2.514811 4.10487,-3.725748 0.24977,-0.509089 0.32984,-0.853101 0.36236,-1.556804 0.0549,-1.187346 -0.11718,-1.923249 -0.77449,-3.312528 -0.97699,-2.064945 -2.64341,-4.303888 -5.74506,-7.71885 -0.62511,-0.688252 -1.33451,-1.493852 -1.57646,-1.790221 l -0.4399,-0.538854 -1.37859,-0.0021 c -2.17797,-0.0034 -4.80287,-0.410178 -5.19803,-0.805342 -0.29669,-0.296687 -0.29001,-1.049881 0.012,-1.351877 0.27451,-0.274517 0.71849,-0.287018 2.01972,-0.05686 0.517,0.09144 1.42877,0.200615 2.02617,0.242609 l 1.08618,0.07635 -0.62157,-0.955054 c -1.15162,-1.76946 -2.01008,-3.458003 -2.01008,-3.953725 0,-0.543488 0.39503,-0.922442 0.96158,-0.922442 0.4358,0 0.71228,0.272619 1.13697,1.121068 0.88726,1.772592 3.2589,5.317634 3.47016,5.187068 0.13655,-0.08439 0.44423,-1.495677 0.6319,-2.89847 0.0878,-0.656361 0.16066,-2.024489 0.16188,-3.040285 0.002,-1.693698 0.0211,-1.865758 0.22953,-2.074213 0.30408,-0.304081 1.05524,-0.30862 1.35567,-0.0082 0.31751,0.31751 0.38914,1.05103 0.3163,3.238798 -0.0704,2.115547 -0.31668,3.713603 -0.85943,5.577696 l -0.33092,1.136558 0.75368,0.776798 c 2.32506,2.396405 5.19566,3.491561 9.16502,3.496523 3.4429,0.0043 5.32312,-0.730371 7.49781,-2.929675 0.90723,-0.917501 0.95267,-0.988156 1.06909,-1.662387 0.11702,-0.677706 0.38046,-3.739257 0.32461,-3.772488 -0.015,-0.0089 -0.2901,-0.122541 -0.6114,-0.25251 -2.26395,-0.915805 -4.23392,-3.056322 -5.04095,-5.477362 -0.34664,-1.03991 -0.33288,-1.579744 0.0486,-1.907908 0.6769,-0.58224 1.4019,-0.187982 1.71338,0.931734 0.43501,1.563799 1.56644,3.128177 2.91259,4.027096 0.38076,0.254263 0.73274,0.462297 0.78218,0.462297 0.18431,0 -0.30907,-2.988259 -0.73744,-4.466468 -0.35749,-1.233613 -0.36177,-1.56162 -0.0245,-1.878429 0.34077,-0.320141 1.09557,-0.339581 1.37093,-0.03531 0.51046,0.564059 1.43472,5.107053 1.43472,7.052096 0,0.363136 0.0322,0.895014 0.0715,1.18195 l 0.0715,0.521701 0.55895,-0.471317 c 1.19983,-1.01171 2.42822,-2.785328 3.11413,-4.496353 0.21783,-0.543411 0.48101,-1.051951 0.58482,-1.130089 0.29786,-0.224191 1.02048,-0.176138 1.28186,0.08524 0.45404,0.454036 0.20129,1.531735 -0.79045,3.370343 -0.94358,1.749343 -2.64455,3.635714 -4.23685,4.698657 l -0.7123,0.475498 -0.21559,1.268455 c -0.32447,1.909121 -0.3067,2.936943 0.0645,3.731959 0.93148,1.994869 2.96033,2.830921 4.81229,1.983061 1.08102,-0.494905 1.33763,-0.748593 1.6985,-1.679123 0.41547,-1.07135 1.43033,-3.108506 2.02601,-4.066894 1.2312,-1.980875 3.15643,-4.289696 4.69833,-5.634463 0.736,-0.641906 0.90463,-0.737828 1.29698,-0.737828 0.59404,0 0.90562,0.305776 0.90562,0.888772 0,0.40745 -0.1066,0.541994 -1.73325,2.187869 -1.77579,1.796768 -2.55614,2.787927 -3.72773,4.734806 -0.7905,1.313594 -0.81259,1.290634 0.95872,0.996107 2.51327,-0.417893 4.93901,-1.433923 6.96941,-2.919158 0.75135,-0.549615 1.36525,-0.596978 1.72985,-0.133466 0.27936,0.355155 0.30286,0.804071 0.0602,1.15048 -0.2763,0.394477 -1.54145,1.24684 -2.89668,1.95157 l -1.24324,0.646494 0.53803,0.192848 c 0.92159,0.330322 2.08892,0.528648 3.1237,0.530701 1.18959,0.0021 1.44911,0.165545 1.44911,0.911217 0,0.855352 -0.66014,1.121506 -2.43221,0.980622 -1.62922,-0.129527 -3.16082,-0.602107 -4.50542,-1.390155 l -0.64109,-0.375732 -1.06942,0.226132 c -0.58817,0.124371 -1.64394,0.257467 -2.34615,0.295772 l -1.27674,0.06965 -0.23586,0.630394 c -0.12973,0.346718 -0.41068,0.914537 -0.62435,1.261827 -0.73554,1.195503 -0.89217,1.813109 -0.89517,3.529647 -0.003,1.349595 0.0297,1.616462 0.26632,2.216284 0.70785,1.794457 2.03057,3.116092 3.70909,3.706043 1.10517,0.388433 1.5584,0.38827 2.93508,-8.59e-4 1.80736,-0.51113 2.98691,-0.698244 4.87461,-0.773267 1.64508,-0.06538 1.68561,-0.06131 1.96055,0.196989 0.34836,0.327268 0.38073,0.984737 0.0675,1.371535 -0.20042,0.2475 -0.32008,0.26837 -1.98916,0.34697 -0.97676,0.046 -1.82651,0.11489 -1.88834,0.1531 -0.0618,0.0382 0.2893,0.37218 0.78028,0.74215 0.49099,0.36998 1.4367,1.24038 2.10158,1.93423 1.14891,1.19894 1.20888,1.28551 1.20888,1.74501 0,0.59959 -0.34653,0.97774 -0.89598,0.97774 -0.32093,0 -0.53802,-0.17052 -1.64068,-1.28875 -1.27547,-1.29347 -2.35386,-2.15887 -3.69784,-2.96748 -0.6784,-0.40815 -0.74733,-0.42641 -1.13655,-0.30099 -0.2279,0.0734 -1.2071,0.18131 -2.17601,0.23973 -2.76811,0.16688 -4.06121,0.5892 -4.93704,1.61241 -0.59488,0.69498 -0.76303,1.35964 -0.82917,3.2774 l -0.057,1.65206 0.83738,0.43851 c 0.46055,0.24118 1.14424,0.62996 1.5193,0.86396 l 0.68194,0.42546 0.85241,-0.1571 c 1.22564,-0.22588 4.17648,-0.32078 5.44405,-0.17507 0.83643,0.0961 1.12629,0.17728 1.33545,0.37377 0.36537,0.34325 0.36535,0.9887 -4e-5,1.33197 -0.26155,0.24571 -0.30891,0.24938 -2.24574,0.17378 -1.08821,-0.0425 -2.27721,-0.0399 -2.64223,0.006 l -0.66367,0.0829 0.95439,0.98491 c 1.76529,1.82172 2.93229,3.46566 2.93229,4.13067 0,0.57596 -0.31253,0.88901 -0.88752,0.88901 -0.53618,0 -0.66702,-0.10347 -1.2655,-1.00071 -1.50772,-2.26035 -3.88094,-4.47816 -6.27043,-5.85984 l -0.5244,-0.30322 0.14159,0.88431 c 0.29924,1.86884 1.03839,3.91397 1.9746,5.46346 0.53589,0.88692 0.61148,1.46705 0.23964,1.8389 -0.3328,0.33279 -1.07134,0.30969 -1.39771,-0.0437 -0.60028,-0.65004 -1.7124,-2.97639 -2.23394,-4.67298 -0.30812,-1.00237 -0.68726,-3.18983 -0.68726,-3.96522 v -0.58981 l -0.59669,-0.36012 c -1.51975,-0.91722 -2.68988,-1.21374 -4.46098,-1.13044 -2.64042,0.12419 -4.77591,1.39099 -6.09648,3.61652 l -0.49554,0.83512 0.003,1.13794 c 0.008,2.6303 1.35196,4.9177 3.56474,6.06891 1.0118,0.5264 1.23798,0.8585 1.01681,1.49296 -0.24071,0.69048 -0.95025,0.74859 -2.10243,0.17217 -1.29396,-0.64733 -2.52424,-1.89293 -3.33621,-3.37773 l -0.32068,-0.58641 -0.13531,0.5025 c -0.37722,1.40084 -0.67674,3.44121 -0.67859,4.62253 -0.001,0.74789 -0.25785,1.05291 -0.88176,1.04785 -0.23442,-0.002 -0.5142,-0.0547 -0.62174,-0.11742 z m 3.95332,-14.89107 c 0.50963,-0.53495 1.85195,-1.39286 2.78904,-1.78258 1.33236,-0.55409 2.50201,-0.74391 4.17866,-0.67815 1.55358,0.0609 2.39171,0.24331 3.50986,0.76373 l 0.71035,0.33061 v -0.77962 c 0,-1.85055 0.59657,-3.56645 1.58285,-4.55274 0.58623,-0.58623 1.87326,-1.29581 2.59636,-1.43147 l 0.38105,-0.0715 -0.63417,-0.565226 c -1.16904,-1.041946 -2.14504,-2.681953 -2.50523,-4.209642 -0.18211,-0.772356 -0.22024,-2.902191 -0.0662,-3.698869 0.0936,-0.484235 0.0917,-0.488406 -0.20385,-0.432292 -1.41109,0.267962 -2.43445,0.141726 -3.62632,-0.447327 -1.31216,-0.648504 -2.44975,-1.954147 -2.86769,-3.291302 -0.0781,-0.250041 -0.1642,-0.493359 -0.19122,-0.540701 -0.027,-0.04735 -0.41386,0.199304 -0.85965,0.548106 -0.99776,0.780699 -2.55344,1.540121 -3.8349,1.872062 -0.76671,0.198605 -1.40511,0.261983 -3.09353,0.30713 -2.23458,0.05975 -3.30419,-0.03505 -4.88129,-0.432601 -0.47925,-0.120807 -0.89588,-0.219649 -0.92586,-0.219649 -0.03,0 0.22455,0.421948 0.56563,0.937661 0.86351,1.305643 1.70862,3.088256 1.98817,4.193726 0.33405,1.320983 0.26238,3.249567 -0.15849,4.264721 -0.3873,0.934199 -0.88852,1.642853 -1.77082,2.503703 -0.45408,0.44304 -0.67128,0.72823 -0.57434,0.75412 0.0857,0.0229 0.5139,0.12746 0.95147,0.23234 1.70206,0.40799 3.56405,1.61682 4.7413,3.07812 0.6152,0.76364 1.35554,2.22182 1.57459,3.10132 0.0817,0.32818 0.18053,0.59669 0.21952,0.59669 0.039,0 0.22113,-0.15767 0.40473,-0.35039 z m 2.18207,-5.21212 c -0.83416,-0.26666 -1.63573,-0.78266 -2.27123,-1.46205 -1.02823,-1.09926 -1.45234,-2.200975 -1.45234,-3.772716 0,-1.571736 0.42411,-2.673452 1.45234,-3.772706 1.07776,-1.152211 2.33987,-1.682757 4.00312,-1.682757 1.66325,0 2.92536,0.530546 4.00312,1.682757 1.02823,1.099254 1.45234,2.20097 1.45234,3.772706 0,1.571741 -0.42411,2.673456 -1.45234,3.772716 -0.64846,0.69325 -1.44216,1.19775 -2.30863,1.46742 -0.91664,0.28529 -2.52502,0.28277 -3.42638,-0.005 z m 3.29937,-2.0375 c 0.61697,-0.31832 1.3026,-1.0004 1.63826,-1.629786 0.21858,-0.409852 0.26012,-0.660193 0.26012,-1.56748 0,-1.236869 -0.1875,-1.722474 -0.96544,-2.500419 -0.77795,-0.777945 -1.26355,-0.965441 -2.50042,-0.965441 -0.90245,0 -1.15852,0.04205 -1.55961,0.256106 -1.20494,0.643075 -1.85561,1.622837 -1.93788,2.917982 -0.0624,0.981884 0.0891,1.581384 0.5792,2.292587 0.39912,0.579171 1.236,1.224391 1.82248,1.405111 0.62265,0.19187 2.11334,0.0751 2.66329,-0.20866 z"
       id="path2781-3" /></g></svg>
