<?xml version="1.0" encoding="UTF-8" standalone="no"?>
<!-- Created with Inkscape (http://www.inkscape.org/) -->

<svg
   version="1.1"
   id="svg2771"
   width="512"
   height="512"
   viewBox="0 0 512 512"
   sodipodi:docname="neuron_orange.svg"
   inkscape:version="1.2 (1:1.2.1+202207142221+cd75a1ee6d)"
   xmlns:inkscape="http://www.inkscape.org/namespaces/inkscape"
   xmlns:sodipodi="http://sodipodi.sourceforge.net/DTD/sodipodi-0.dtd"
   xmlns="http://www.w3.org/2000/svg"
   xmlns:svg="http://www.w3.org/2000/svg">
  <defs
     id="defs2775" />
  <sodipodi:namedview
     id="namedview2773"
     pagecolor="#ffffff"
     bordercolor="#666666"
     borderopacity="1.0"
     inkscape:showpageshadow="2"
     inkscape:pageopacity="0.0"
     inkscape:pagecheckerboard="0"
     inkscape:deskcolor="#d1d1d1"
     showgrid="false"
     inkscape:zoom="1.6601562"
     inkscape:cx="155.40706"
     inkscape:cy="256.30118"
     inkscape:window-width="1848"
     inkscape:window-height="1016"
     inkscape:window-x="72"
     inkscape:window-y="27"
     inkscape:window-maximized="1"
     inkscape:current-layer="g2777" />
  <g
     inkscape:groupmode="layer"
     inkscape:label="Image"
     id="g2777">
    <path
       style="fill:#fe6532"
       d="m 179.72345,486.64317 c -3.1352,-1.82731 -3.94791,-7.94546 -2.80456,-21.11293 1.91128,-22.01149 7.42185,-42.86694 13.9149,-52.66269 3.31186,-4.99646 3.18544,-8.62121 -0.26393,-7.56747 -9.03687,2.76063 -43.20296,22.43479 -54.76993,31.53865 -8.73113,6.87189 -19.73861,-0.009 -14.79408,-9.24792 3.64265,-6.80635 41.16963,-29.4023 64.60273,-38.89894 l 8.16477,-3.3089 0.65306,-6.58814 c 2.77597,-28.00445 -17.64451,-56.11481 -46.21578,-63.61956 -3.17174,-0.83311 -9.43472,-1.53371 -13.91773,-1.55688 -13.81193,-0.0714 -20.11328,2.22293 -35.474953,12.9165 l -10.62588,7.39689 -3.09974,10.13746 c -6.53379,21.36823 -11.14392,49.46491 -11.15408,67.97919 -0.006,11.49723 -1.215,17.17076 -3.97244,18.64649 -3.2821,1.75653 -8.83721,1.19655 -11.15859,-1.12484 -2.07321,-2.07321 -2.11971,-2.68888 -1.56719,-20.75 0.57557,-18.81475 2.26659,-33.00504 5.67383,-47.61215 1.02618,-4.39932 1.74043,-8.12411 1.58722,-8.27732 -0.15321,-0.15321 -5.99401,4.79624 -12.97956,10.99876 -22.72818,20.18053 -23.48908,20.77732 -26.49066,20.77732 -1.54952,0 -4.003,-0.93266 -5.45217,-2.07258 -2.12479,-1.67136 -2.63486,-2.91439 -2.63486,-6.42109 0,-4.24291 0.26106,-4.59082 10.75,-14.3261 13.186,-12.23856 27.26713,-24.1352 41.64052,-35.18058 l 10.89052,-8.36893 -6.39052,-1.28986 c -12.09753,-2.44177 -23.4244,-6.48127 -37.43993,-13.35219 -16.95832,-8.31357 -19.45059,-10.35614 -19.45059,-15.94092 0,-5.23145 2.67057,-8.04775 7.63132,-8.04775 2.51744,0 6.27506,1.51121 12.25,4.92661 17.5328,10.02211 38.36662,16.60154 56.17608,17.74071 l 9.557413,0.61133 9.94259,-6.24782 c 21.16312,-13.29867 30.88936,-22.12662 36.11673,-32.78107 2.19762,-4.47922 2.90215,-7.50601 3.18829,-13.69755 0.48281,-10.4469 -1.03106,-16.92174 -6.81439,-29.14533 -8.59604,-18.16846 -23.25809,-37.86786 -50.548033,-67.91447 -5.5,-6.05558 -11.74171,-13.14366 -13.87047,-15.75128 l -3.87046,-4.74113 -12.12954,-0.0195 c -19.16291,-0.0308 -42.25817,-3.60911 -45.73502,-7.08597 -2.61041,-2.6104 -2.55164,-9.23739 0.10549,-11.89451 2.41533,-2.41533 6.32165,-2.52531 17.77056,-0.50031 4.54881,0.80456 12.5711,1.76513 17.82732,2.13461 l 9.55676,0.67177 -5.46895,-8.40303 C 48.496987,92.041117 40.943827,77.184407 40.943827,72.822807 c 0,-4.78189 3.47572,-8.11612 8.46054,-8.11612 3.83436,0 6.26701,2.39864 10.00363,9.86375 7.80659,15.59618 28.67345,46.787273 30.53219,45.638503 1.20145,-0.74254 3.90857,-13.15975 5.55984,-25.502253 0.77261,-5.775 1.41354,-17.8125 1.42428,-26.75 0.0179,-14.902028 0.18542,-16.4159 2.01952,-18.249996 2.675463,-2.675462 9.284603,-2.715402 11.927923,-0.07208 2.79361,2.793613 3.42389,9.247506 2.78295,28.496616 -0.61979,18.61367 -2.78628,32.674223 -7.5617,49.075473 l -2.91161,10 6.63122,6.83469 c 20.45712,21.08482 45.71419,30.72057 80.63859,30.76421 30.29242,0.0378 46.83557,-6.42618 65.96965,-25.7768 7.98231,-8.07265 8.38209,-8.69428 9.40643,-14.62653 1.02963,-5.96282 3.3475,-32.8999 2.85612,-33.19232 -0.13177,-0.0784 -2.5525,-1.07818 -5.37941,-2.221713 -19.91944,-8.05771 -37.25228,-26.89109 -44.35291,-48.192661 -3.04993,-9.149666 -2.92886,-13.899403 0.42789,-16.786759 5.95566,-5.122848 12.33465,-1.65396 15.07518,8.197876 3.82745,13.759115 13.78237,27.523324 25.62644,35.432494 3.35012,2.23713 6.44704,4.0675 6.88203,4.0675 1.62163,0 -2.71938,-26.292236 -6.48838,-39.298283 -3.14536,-10.853969 -3.18307,-13.739949 -0.21597,-16.527399 2.99831,-2.816762 9.63937,-2.987806 12.06215,-0.310667 4.49135,4.962879 12.6234,44.934499 12.6234,62.047999 0,3.19507 0.28312,7.8748 0.62916,10.3994 l 0.62915,4.590193 4.91795,-4.146873 c 10.55671,-8.90156 21.3647,-24.50676 27.39966,-39.56125 1.91666,-4.781212 4.23218,-9.255616 5.14559,-9.943116 2.62073,-1.97255 8.97874,-1.549753 11.27849,0.75 3.99484,3.994843 1.77098,13.476996 -6.95479,29.654016 -8.30216,15.39165 -23.26817,31.988913 -37.27806,41.341243 l -6.26715,4.18365 -1.89685,11.16054 c -2.85489,16.79743 -2.69854,25.84073 0.5677,32.8357 8.19571,17.55189 26.04654,24.90791 42.34108,17.44802 9.51135,-4.35444 11.76918,-6.58652 14.94426,-14.77383 3.65554,-9.42626 12.58476,-27.35024 17.82587,-35.78262 10.8328,-17.42877 27.77193,-37.742973 41.33841,-49.574943 6.47574,-5.6478 7.95932,-6.49178 11.41149,-6.49178 5.2267,0 7.96805,2.69037 7.96805,7.81986 0,3.58496 -0.93783,4.76877 -15.25,19.250003 -15.62434,15.8089 -22.49021,24.52965 -32.79849,41.65929 -6.9552,11.55767 -7.14962,11.35566 8.43537,8.76427 22.11303,-3.67685 43.45589,-12.61639 61.32042,-25.68428 6.61077,-4.83577 12.01218,-5.25251 15.22012,-1.17428 2.45799,3.12483 2.66479,7.07463 0.52997,10.12252 -2.43105,3.4708 -13.56249,10.97034 -25.48654,17.17092 l -10.93867,5.68818 4.73391,1.69678 c 8.10856,2.90635 18.37936,4.65131 27.48391,4.66938 10.46663,0.0208 12.75,1.45658 12.75,8.01736 0,7.52584 -5.80821,9.86761 -21.39982,8.62803 -14.33473,-1.13965 -27.81058,-5.29764 -39.64106,-12.2313 l -5.64065,-3.30589 -9.40923,1.98961 c -5.17508,1.09429 -14.46429,2.26536 -20.64269,2.60237 l -11.23345,0.61276 -2.07523,5.54654 c -1.14137,3.0506 -3.61338,8.04659 -5.49334,11.10221 -6.4716,10.51867 -7.84973,15.95268 -7.87612,31.05567 -0.0207,11.87443 0.2614,14.22248 2.3432,19.5 6.22802,15.78857 17.866,27.417 32.63449,32.6077 9.72383,3.41765 13.7116,3.41621 25.82438,-0.009 15.9021,-4.49717 26.28041,-6.1435 42.88932,-6.8036 14.47428,-0.57527 14.83086,-0.53944 17.25,1.73322 3.06503,2.87945 3.34978,8.66421 0.594,12.06745 -1.76333,2.17762 -2.81623,2.36127 -17.50166,3.05279 -8.594,0.40468 -16.07056,1.01088 -16.61458,1.3471 -0.54402,0.33622 2.54539,3.27465 6.86536,6.52984 4.31996,3.2552 12.64082,10.91346 18.49078,17.01837 10.10868,10.54889 10.6363,11.31053 10.6363,15.3535 0,5.27545 -3.04895,8.60263 -7.88325,8.60263 -2.82375,0 -4.73381,-1.50034 -14.43555,-11.33906 -11.22224,-11.38068 -20.71046,-18.99488 -32.53551,-26.10941 -5.96893,-3.5912 -6.57541,-3.75182 -10,-2.6483 -2.00513,0.64612 -10.62069,1.59527 -19.14569,2.10923 -24.3552,1.46834 -35.73264,5.18415 -43.43858,14.18681 -5.23406,6.11482 -6.71359,11.96286 -7.29548,28.83635 l -0.50127,14.53562 7.36766,3.85824 c 4.05221,2.12203 10.06766,5.54275 13.36766,7.6016 l 6,3.74337 7.5,-1.38223 c 10.78383,-1.98744 36.74683,-2.82236 47.89955,-1.54035 7.35936,0.84596 9.90971,1.55975 11.75,3.28862 3.21474,3.02009 3.21457,8.6991 -3.5e-4,11.71936 -2.30125,2.1619 -2.7179,2.19414 -19.75921,1.529 -9.57462,-0.37371 -20.03608,-0.35116 -23.2477,0.0501 l -5.8393,0.72957 8.39725,8.66573 c 15.53187,16.02847 25.79977,30.49274 25.79977,36.34381 0,5.06757 -2.74976,7.82194 -7.80887,7.82194 -4.71755,0 -5.86878,-0.91034 -11.13454,-8.80471 -13.26568,-19.88774 -34.14647,-39.40125 -55.17051,-51.55794 l -4.61391,-2.66789 1.2458,7.78059 c 2.63283,16.44308 9.13623,34.4372 17.37351,48.07036 4.71502,7.80362 5.3802,12.9079 2.10851,16.17959 -2.92811,2.92811 -9.42617,2.7248 -12.29775,-0.38476 -5.28163,-5.71935 -15.06665,-26.18775 -19.65534,-41.11524 -2.71107,-8.81939 -6.04691,-28.06576 -6.04691,-34.88809 v -5.18934 l -5.25,-3.16854 c -13.37149,-8.07014 -23.66698,-10.67908 -39.25,-9.94618 -23.2318,1.09264 -42.02092,12.2386 -53.63998,31.81996 l -4.36002,7.34785 0.0319,10.01217 c 0.0738,23.14274 11.89522,43.26846 31.3644,53.39744 8.90238,4.63152 10.89246,7.5535 8.94645,13.13584 -2.11783,6.07519 -8.36079,6.58644 -18.49829,1.51485 -11.38487,-5.69561 -22.20954,-16.65503 -29.35364,-29.71904 l -2.82152,-5.15956 -1.19057,4.42132 c -3.31893,12.32524 -5.95433,30.27748 -5.97058,40.67132 -0.0103,6.58034 -2.26865,9.26411 -7.7582,9.21959 -2.0625,-0.0167 -4.52417,-0.48162 -5.47037,-1.03311 z m 34.78328,-131.0194 c 4.48408,-4.70672 16.29442,-12.25511 24.53945,-15.68401 11.7228,-4.87521 22.01397,-6.54535 36.76601,-5.96672 13.66924,0.53616 21.04354,2.14076 30.88163,6.71966 l 6.25,2.90891 v -6.85949 c 0,-16.28218 5.24888,-31.37955 13.92668,-40.05735 5.15797,-5.15796 16.48193,-11.40131 22.84416,-12.59487 l 3.35267,-0.62896 -5.57975,-4.97315 c -10.28578,-9.16756 -18.87311,-23.5972 -22.04234,-37.0386 -1.60227,-6.79559 -1.93775,-25.53499 -0.58262,-32.54455 0.82367,-4.26056 0.80637,-4.29725 -1.79356,-3.80353 -12.41553,2.35767 -21.41951,1.24698 -31.9062,-3.93583 -11.54507,-5.70588 -21.55424,-17.19359 -25.23145,-28.95859 -0.68762,-2.2 -1.44474,-4.34082 -1.68248,-4.75737 -0.23774,-0.41656 -3.64137,1.75358 -7.56363,4.82253 -8.77885,6.86898 -22.46647,13.55078 -33.74148,16.47138 -6.74589,1.74741 -12.36286,2.30507 -27.21846,2.70227 -19.66095,0.52569 -29.07196,-0.30835 -42.94814,-3.80623 -4.21664,-1.06292 -7.88243,-1.93258 -8.14621,-1.93258 -0.26377,0 1.97576,3.7125 4.97674,8.25 7.59766,11.48772 15.03336,27.17211 17.49297,36.89858 2.93913,11.62271 2.30851,28.59139 -1.39451,37.52326 -3.40769,8.21953 -7.81768,14.45466 -15.58058,22.02887 -3.99521,3.89809 -5.90625,6.40731 -5.05337,6.63512 0.75436,0.2015 4.52157,1.12143 8.37157,2.04428 14.97557,3.58968 31.35836,14.22561 41.71639,27.08288 5.41286,6.71889 11.92679,19.5487 13.85412,27.28701 0.71917,2.8875 1.58832,5.25 1.93144,5.25 0.34312,0 1.94555,-1.38731 3.56095,-3.08292 z m 19.19904,-45.85894 c -7.33939,-2.34622 -14.39205,-6.8862 -19.98347,-12.86388 -9.04688,-9.67184 -12.77848,-19.3653 -12.77848,-33.19426 0,-13.82896 3.7316,-23.52242 12.77848,-33.19426 9.48268,-10.13775 20.5874,-14.80574 35.22152,-14.80574 14.63412,0 25.73884,4.66799 35.22152,14.80574 9.04688,9.67184 12.77848,19.3653 12.77848,33.19426 0,13.82896 -3.7316,23.52242 -12.77848,33.19426 -5.70545,6.09959 -12.68887,10.53845 -20.31248,12.91118 -8.06505,2.51013 -22.21645,2.48792 -30.14709,-0.0473 z m 29.02954,-17.92697 c 5.42843,-2.80074 11.46093,-8.80203 14.41426,-14.33968 1.9232,-3.60611 2.28872,-5.80871 2.28872,-13.79149 0,-10.88262 -1.64971,-15.15524 -8.49447,-22 -6.84476,-6.84476 -11.11738,-8.49447 -22,-8.49447 -7.94026,0 -10.19322,0.36996 -13.7222,2.25337 -10.60171,5.65811 -16.32672,14.27857 -17.05054,25.67393 -0.54875,8.63913 0.78386,13.91383 5.09614,20.17136 3.5117,5.09581 10.87496,10.77282 16.0351,12.3629 5.47836,1.68815 18.59432,0.66054 23.43299,-1.83592 z"
       id="path2781" />
  </g>
</svg>
