<?xml version="1.0" encoding="UTF-8" standalone="no"?>
<!-- Created with Inkscape (http://www.inkscape.org/) -->

<svg
   width="50.923367mm"
   height="52.738056mm"
   viewBox="0 0 50.923367 52.738056"
   version="1.1"
   id="svg1"
   xml:space="preserve"
   xmlns:inkscape="http://www.inkscape.org/namespaces/inkscape"
   xmlns:sodipodi="http://sodipodi.sourceforge.net/DTD/sodipodi-0.dtd"
   xmlns="http://www.w3.org/2000/svg"
   xmlns:svg="http://www.w3.org/2000/svg"><sodipodi:namedview
     id="namedview1"
     pagecolor="#ffffff"
     bordercolor="#000000"
     borderopacity="0.25"
     inkscape:showpageshadow="2"
     inkscape:pageopacity="0.0"
     inkscape:pagecheckerboard="true"
     inkscape:deskcolor="#d1d1d1"
     inkscape:document-units="mm"
     inkscape:zoom="0.72693603"
     inkscape:cx="396.18342"
     inkscape:cy="561.25984"
     inkscape:window-width="1850"
     inkscape:window-height="1016"
     inkscape:window-x="0"
     inkscape:window-y="0"
     inkscape:window-maximized="1"
     inkscape:current-layer="layer1" /><defs
     id="defs1" /><g
     inkscape:label="Layer 1"
     inkscape:groupmode="layer"
     id="layer1"
     transform="translate(-135.29166,-14.576677)"><path
       style="fill:#ffffff;fill-opacity:1;stroke-width:0.113655"
       d="m 153.79573,67.196963 c -0.35633,-0.207681 -0.4487,-0.903042 -0.31875,-2.3996 0.21723,-2.501726 0.84353,-4.872065 1.5815,-5.985405 0.37642,-0.567875 0.36205,-0.979848 -0.03,-0.860081 -1.02709,0.313757 -4.91025,2.549836 -6.2249,3.58454 -0.99234,0.781025 -2.2434,-8.59e-4 -1.68143,-1.051079 0.41401,-0.773576 4.67915,-3.341734 7.34245,-4.421078 l 0.92797,-0.376075 0.0742,-0.748777 c 0.3155,-3.182859 -2.0054,-6.377759 -5.25268,-7.230715 -0.36048,-0.09469 -1.0723,-0.174313 -1.58182,-0.176946 -1.56981,-0.0081 -2.28599,0.252648 -4.03193,1.468031 l -1.20769,0.840696 -0.3523,1.152177 c -0.74261,2.428617 -1.26657,5.621962 -1.26773,7.726212 -8.6e-4,1.306721 -0.13809,1.951549 -0.45149,2.119276 -0.37302,0.19964 -1.00439,0.135992 -1.26823,-0.127847 -0.23563,-0.235629 -0.24092,-0.305605 -0.17812,-2.35835 0.0654,-2.1384 0.25761,-3.751207 0.64486,-5.411382 0.11663,-0.500008 0.19781,-0.923352 0.1804,-0.940762 -0.0174,-0.0174 -0.68125,0.545117 -1.4752,1.250066 -2.58318,2.293631 -2.66966,2.36146 -3.01081,2.36146 -0.17611,0 -0.45496,-0.106004 -0.61967,-0.23556 -0.24149,-0.189962 -0.29946,-0.331237 -0.29946,-0.729795 0,-0.482229 0.0297,-0.521771 1.22179,-1.628237 1.49866,-1.39098 3.09906,-2.743102 4.73268,-3.998469 l 1.23777,-0.951175 -0.72632,-0.146597 c -1.37495,-0.277524 -2.66231,-0.736634 -4.25526,-1.517551 -1.9274,-0.944882 -2.21066,-1.177032 -2.21066,-1.811773 0,-0.594585 0.30352,-0.914671 0.86734,-0.914671 0.28612,0 0.71319,0.171757 1.39228,0.559937 1.9927,1.139067 4.36057,1.886856 6.38472,2.016327 l 1.08625,0.06948 1.13003,-0.7101 c 2.40531,-1.511468 3.51075,-2.51481 4.10487,-3.725747 0.24977,-0.509089 0.32984,-0.853101 0.36236,-1.556804 0.0549,-1.187346 -0.11718,-1.923249 -0.77449,-3.312528 -0.97699,-2.064945 -2.64341,-4.303888 -5.74506,-7.71885 -0.62511,-0.688252 -1.33451,-1.493852 -1.57646,-1.790221 l -0.4399,-0.538854 -1.37859,-0.0021 c -2.17797,-0.0034 -4.80287,-0.410178 -5.19803,-0.805342 -0.29669,-0.296687 -0.29001,-1.049881 0.012,-1.351877 0.27451,-0.274517 0.71849,-0.287018 2.01972,-0.05686 0.517,0.09144 1.42877,0.200615 2.02617,0.242609 l 1.08618,0.07635 -0.62157,-0.955054 c -1.15162,-1.76946 -2.01008,-3.458003 -2.01008,-3.953725 0,-0.543488 0.39503,-0.922442 0.96158,-0.922442 0.4358,0 0.71228,0.272619 1.13697,1.121068 0.88726,1.772592 3.2589,5.317634 3.47016,5.187068 0.13655,-0.08439 0.44423,-1.495677 0.6319,-2.89847 0.0878,-0.656361 0.16066,-2.024489 0.16188,-3.040285 0.002,-1.693698 0.0211,-1.865758 0.22953,-2.074213 0.30408,-0.304081 1.05524,-0.30862 1.35567,-0.0082 0.31751,0.31751 0.38914,1.05103 0.3163,3.238798 -0.0704,2.115547 -0.31668,3.713603 -0.85943,5.577696 l -0.33092,1.136558 0.75368,0.776798 c 2.32506,2.396405 5.19566,3.491561 9.16502,3.496523 3.4429,0.0043 5.32312,-0.730371 7.49781,-2.929675 0.90723,-0.917501 0.95267,-0.988156 1.06909,-1.662387 0.11702,-0.677706 0.38046,-3.739257 0.32461,-3.772488 -0.015,-0.0089 -0.2901,-0.122541 -0.6114,-0.25251 -2.26395,-0.915805 -4.23392,-3.056322 -5.04095,-5.477362 -0.34664,-1.03991 -0.33288,-1.579744 0.0486,-1.907908 0.6769,-0.58224 1.4019,-0.187982 1.71338,0.931734 0.43501,1.563799 1.56644,3.128177 2.91259,4.027096 0.38076,0.254263 0.73274,0.462297 0.78218,0.462297 0.18431,0 -0.30907,-2.988259 -0.73744,-4.466468 -0.35749,-1.233613 -0.36177,-1.56162 -0.0245,-1.878429 0.34077,-0.320141 1.09557,-0.339581 1.37093,-0.03531 0.51046,0.564059 1.43472,5.107053 1.43472,7.052096 0,0.363136 0.0322,0.895014 0.0715,1.18195 l 0.0715,0.521701 0.55895,-0.471317 c 1.19983,-1.01171 2.42822,-2.785328 3.11413,-4.496353 0.21783,-0.543411 0.48101,-1.051951 0.58482,-1.130089 0.29786,-0.224191 1.02048,-0.176138 1.28186,0.08524 0.45404,0.454036 0.20129,1.531735 -0.79045,3.370343 -0.94358,1.749343 -2.64455,3.635714 -4.23685,4.698657 l -0.7123,0.475498 -0.21559,1.268455 c -0.32447,1.909121 -0.3067,2.936943 0.0645,3.731959 0.93148,1.994869 2.96033,2.830921 4.81229,1.983061 1.08102,-0.494905 1.33763,-0.748593 1.6985,-1.679123 0.41547,-1.07135 1.43033,-3.108506 2.02601,-4.066894 1.2312,-1.980875 3.15643,-4.289696 4.69833,-5.634463 0.736,-0.641906 0.90463,-0.737828 1.29698,-0.737828 0.59404,0 0.90562,0.305776 0.90562,0.888772 0,0.40745 -0.1066,0.541994 -1.73325,2.187869 -1.77579,1.796768 -2.55614,2.787927 -3.72773,4.734806 -0.7905,1.313594 -0.81259,1.290634 0.95872,0.996107 2.51327,-0.417893 4.93901,-1.433923 6.96941,-2.919158 0.75135,-0.549615 1.36525,-0.596978 1.72985,-0.133466 0.27936,0.355155 0.30286,0.804071 0.0602,1.15048 -0.2763,0.394477 -1.54145,1.24684 -2.89668,1.95157 l -1.24324,0.646494 0.53803,0.192848 c 0.92159,0.330322 2.08892,0.528648 3.1237,0.530701 1.18959,0.0021 1.44911,0.165545 1.44911,0.911217 0,0.855352 -0.66014,1.121506 -2.43221,0.980622 -1.62922,-0.129527 -3.16082,-0.602107 -4.50542,-1.390155 l -0.64109,-0.375732 -1.06942,0.226132 c -0.58817,0.124371 -1.64394,0.257467 -2.34615,0.295772 l -1.27674,0.06965 -0.23586,0.630394 c -0.12973,0.346718 -0.41068,0.914537 -0.62435,1.261827 -0.73554,1.195503 -0.89217,1.813109 -0.89517,3.529647 -0.003,1.349595 0.0297,1.616462 0.26632,2.216284 0.70785,1.794457 2.03057,3.116092 3.70909,3.706043 1.10517,0.388433 1.5584,0.38827 2.93508,-8.59e-4 1.80736,-0.51113 2.98691,-0.698244 4.87461,-0.773267 1.64508,-0.06538 1.68561,-0.06131 1.96055,0.196989 0.34836,0.327268 0.38073,0.984737 0.0675,1.371534 -0.20042,0.247497 -0.32008,0.26837 -1.98916,0.346967 -0.97676,0.04599 -1.82651,0.114892 -1.88834,0.153106 -0.0618,0.03823 0.2893,0.372178 0.78028,0.742149 0.49099,0.369975 1.4367,1.240375 2.10158,1.934232 1.14891,1.19894 1.20888,1.285505 1.20888,1.74501 0,0.599586 -0.34653,0.977735 -0.89598,0.977735 -0.32093,0 -0.53802,-0.17052 -1.64068,-1.288744 -1.27547,-1.293477 -2.35386,-2.158873 -3.69784,-2.96748 -0.6784,-0.408159 -0.74733,-0.426415 -1.13655,-0.300991 -0.2279,0.07343 -1.2071,0.18131 -2.17601,0.239722 -2.76811,0.166886 -4.06121,0.589208 -4.93704,1.612412 -0.59488,0.694983 -0.76303,1.359643 -0.82917,3.277407 l -0.057,1.652056 0.83738,0.438509 c 0.46055,0.241183 1.14424,0.629964 1.5193,0.863965 l 0.68194,0.425453 0.85241,-0.157096 c 1.22564,-0.225886 4.17648,-0.320777 5.44405,-0.175069 0.83643,0.09614 1.12629,0.177273 1.33545,0.373768 0.36537,0.343252 0.36535,0.988702 -4e-5,1.331971 -0.26155,0.245711 -0.30891,0.249375 -2.24574,0.173776 -1.08821,-0.04248 -2.27721,-0.03991 -2.64223,0.0057 l -0.66367,0.08292 0.95439,0.984909 c 1.76529,1.821725 2.93229,3.465667 2.93229,4.130675 0,0.575955 -0.31253,0.889004 -0.88752,0.889004 -0.53618,0 -0.66702,-0.103464 -1.2655,-1.000704 -1.50772,-2.260349 -3.88094,-4.478166 -6.27043,-5.859842 l -0.5244,-0.303221 0.14159,0.884309 c 0.29924,1.868845 1.03839,3.913974 1.9746,5.463458 0.53589,0.886926 0.61148,1.467056 0.23964,1.8389 -0.3328,0.332796 -1.07134,0.30969 -1.39771,-0.04373 -0.60028,-0.650033 -1.7124,-2.976381 -2.23394,-4.672974 -0.30812,-1.002371 -0.68726,-3.189827 -0.68726,-3.96522 v -0.589809 l -0.59669,-0.360121 c -1.51975,-0.917219 -2.68988,-1.213739 -4.46098,-1.130437 -2.64042,0.124182 -4.77591,1.390985 -6.09648,3.616514 l -0.49554,0.835124 0.003,1.137937 c 0.008,2.630298 1.35196,4.917697 3.56474,6.068911 1.0118,0.526401 1.23798,0.858497 1.01681,1.492963 -0.24071,0.690477 -0.95025,0.748584 -2.10243,0.172169 -1.29396,-0.647336 -2.52424,-1.892934 -3.33621,-3.377731 l -0.32068,-0.586415 -0.13531,0.502508 c -0.37722,1.400835 -0.67674,3.441204 -0.67859,4.622522 -0.001,0.747889 -0.25785,1.052913 -0.88176,1.047857 -0.23442,-0.0017 -0.5142,-0.05474 -0.62174,-0.117421 z m 3.95332,-14.891075 c 0.50963,-0.534945 1.85195,-1.392861 2.78904,-1.782575 1.33236,-0.554095 2.50201,-0.743915 4.17866,-0.678148 1.55358,0.06094 2.39171,0.243309 3.50986,0.763726 l 0.71035,0.330614 v -0.77962 c 0,-1.850558 0.59657,-3.566456 1.58285,-4.55274 0.58623,-0.58623 1.87326,-1.295818 2.59636,-1.431475 l 0.38105,-0.07148 -0.63417,-0.565225 c -1.16904,-1.041946 -2.14504,-2.681953 -2.50523,-4.209642 -0.18211,-0.772356 -0.22024,-2.902191 -0.0662,-3.698869 0.0936,-0.484235 0.0917,-0.488406 -0.20385,-0.432292 -1.41109,0.267962 -2.43445,0.141726 -3.62632,-0.447327 -1.31216,-0.648504 -2.44975,-1.954147 -2.86769,-3.291302 -0.0781,-0.250041 -0.1642,-0.493359 -0.19122,-0.540701 -0.027,-0.04735 -0.41386,0.199304 -0.85965,0.548106 -0.99776,0.780699 -2.55344,1.540121 -3.8349,1.872062 -0.76671,0.198605 -1.40511,0.261983 -3.09353,0.30713 -2.23458,0.05975 -3.30419,-0.03505 -4.88129,-0.432601 -0.47925,-0.120807 -0.89588,-0.219649 -0.92586,-0.219649 -0.03,0 0.22455,0.421948 0.56563,0.937661 0.86351,1.305643 1.70862,3.088256 1.98817,4.193726 0.33405,1.320983 0.26238,3.249567 -0.15849,4.264721 -0.3873,0.934199 -0.88852,1.642855 -1.77082,2.503706 -0.45408,0.44304 -0.67128,0.728223 -0.57434,0.754117 0.0857,0.0229 0.5139,0.127456 0.95147,0.232343 1.70206,0.407987 3.56405,1.616819 4.7413,3.078118 0.6152,0.763641 1.35554,2.221818 1.57459,3.10132 0.0817,0.328178 0.18053,0.59669 0.21952,0.59669 0.039,0 0.22113,-0.157676 0.40473,-0.350391 z m 2.18207,-5.21212 c -0.83416,-0.266661 -1.63573,-0.782653 -2.27123,-1.462052 -1.02823,-1.099258 -1.45234,-2.20097 -1.45234,-3.772711 0,-1.571736 0.42411,-2.673452 1.45234,-3.772706 1.07776,-1.152211 2.33987,-1.682757 4.00312,-1.682757 1.66325,0 2.92536,0.530546 4.00312,1.682757 1.02823,1.099254 1.45234,2.20097 1.45234,3.772706 0,1.571741 -0.42411,2.673453 -1.45234,3.772711 -0.64846,0.693252 -1.44216,1.197754 -2.30863,1.467426 -0.91664,0.28529 -2.52502,0.282769 -3.42638,-0.0054 z m 3.29937,-2.0375 c 0.61697,-0.31832 1.3026,-1.000399 1.63826,-1.629783 0.21858,-0.409852 0.26012,-0.660193 0.26012,-1.56748 0,-1.236869 -0.1875,-1.722474 -0.96544,-2.500419 -0.77795,-0.777945 -1.26355,-0.965441 -2.50042,-0.965441 -0.90245,0 -1.15852,0.04205 -1.55961,0.256106 -1.20494,0.643075 -1.85561,1.622837 -1.93788,2.917982 -0.0624,0.981884 0.0891,1.581384 0.5792,2.292587 0.39912,0.579169 1.236,1.224391 1.82248,1.405113 0.62265,0.191865 2.11334,0.07507 2.66329,-0.208665 z"
       id="path2781" /></g></svg>
