<?xml version="1.0" encoding="UTF-8" standalone="no"?>
<!-- Created with Inkscape (http://www.inkscape.org/) -->

<svg
   width="77.940552mm"
   height="77.952354mm"
   viewBox="0 0 77.940552 77.952354"
   version="1.1"
   id="svg1"
   xml:space="preserve"
   xmlns:inkscape="http://www.inkscape.org/namespaces/inkscape"
   xmlns:sodipodi="http://sodipodi.sourceforge.net/DTD/sodipodi-0.dtd"
   xmlns="http://www.w3.org/2000/svg"
   xmlns:svg="http://www.w3.org/2000/svg"><sodipodi:namedview
     id="namedview1"
     pagecolor="#ffffff"
     bordercolor="#000000"
     borderopacity="0.25"
     inkscape:showpageshadow="2"
     inkscape:pageopacity="0.0"
     inkscape:pagecheckerboard="true"
     inkscape:deskcolor="#d1d1d1"
     inkscape:document-units="mm" /><defs
     id="defs1" /><g
     inkscape:label="Layer 1"
     inkscape:groupmode="layer"
     id="layer1"
     transform="translate(-113.59761,-53.505675)"><path
       style="fill:#ffffff;fill-opacity:1"
       d="m 150.90902,131.23374 c -0.17616,-0.12338 -0.44524,-0.50143 -0.59796,-0.84011 -0.24368,-0.54038 -0.4117,-0.66813 -1.37205,-1.04323 -1.07215,-0.41877 -1.1082,-0.42217 -1.77519,-0.16745 -0.61123,0.23344 -0.72745,0.23589 -1.13721,0.024 -0.49204,-0.25444 -1.78565,-1.56818 -2.07318,-2.10544 -0.1369,-0.2558 -0.11748,-0.48824 0.0869,-1.03958 0.26013,-0.70186 0.25803,-0.72293 -0.18094,-1.81335 -0.38687,-0.961 -0.51848,-1.13299 -1.02079,-1.33398 -0.31716,-0.1269 -0.67058,-0.34389 -0.78536,-0.4822 -0.26167,-0.31529 -0.39247,-2.16137 -0.21236,-2.99722 0.11624,-0.53946 0.24263,-0.68439 0.89085,-1.02155 0.65666,-0.34155 0.80335,-0.51292 1.12234,-1.31116 0.20182,-0.50504 0.40117,-0.95247 0.44299,-0.99429 0.0418,-0.0418 -0.0594,-0.38219 -0.22489,-0.75637 -0.16552,-0.37418 -0.25549,-0.81078 -0.19994,-0.97023 0.0556,-0.15945 0.56674,-0.76729 1.13598,-1.35075 1.11455,-1.1424 1.41948,-1.251 2.37935,-0.8474 0.46415,0.19516 0.59696,0.17627 1.55038,-0.2204 0.92959,-0.38676 1.08537,-0.5165 1.43565,-1.1957 l 0.3929,-0.76187 h 1.80737 1.80736 l 0.39583,0.77101 c 0.30386,0.59187 0.52638,0.8162 0.95774,0.96554 0.30905,0.107 0.78512,0.30996 1.05792,0.45104 0.44802,0.23168 0.54087,0.23329 0.95969,0.0167 0.88835,-0.45939 1.26388,-0.33022 2.3871,0.82106 0.56924,0.58347 1.08043,1.19131 1.13598,1.35075 0.0556,0.15945 -0.0344,0.59606 -0.19994,0.97023 -0.16551,0.37418 -0.26672,0.71455 -0.22489,0.75637 0.0418,0.0418 0.24117,0.48926 0.44299,0.9943 0.31899,0.79824 0.46568,0.96961 1.12234,1.31116 0.64822,0.33716 0.77461,0.48209 0.89085,1.02155 0.18011,0.83585 0.0493,2.68193 -0.21236,2.99722 -0.11478,0.13831 -0.47115,0.35648 -0.79193,0.48483 -0.50077,0.20037 -0.63267,0.36559 -0.93299,1.16862 -0.19237,0.5144 -0.40915,0.97197 -0.48173,1.01683 -0.0726,0.0448 0.008,0.43612 0.1786,0.86947 0.24792,0.62897 0.27435,0.85557 0.13103,1.12337 -0.29023,0.54229 -1.58181,1.85568 -2.07639,2.11143 -0.41022,0.21213 -0.52614,0.20938 -1.14552,-0.0272 -0.67721,-0.25863 -0.70784,-0.25583 -1.77271,0.16196 -0.95096,0.37309 -1.11788,0.50117 -1.36374,1.0464 -0.41823,0.92745 -0.71988,1.06993 -2.26523,1.06993 -0.91038,0 -1.44794,-0.0724 -1.6648,-0.22433 z m 2.94137,-6.8507 c 0.84198,-0.23388 1.92061,-1.26175 2.33507,-2.2252 0.71065,-1.65196 0.13315,-3.69254 -1.33651,-4.72254 -2.47558,-1.73499 -5.88838,-0.15701 -6.16092,2.84863 -0.25502,2.8124 2.34946,4.88045 5.16236,4.09911 z m -23.3875,1.43147 c -0.50944,-0.31742 -0.83203,-1.05877 -0.83387,-1.91631 -8.6e-4,-0.40356 -0.0202,-0.41037 -1.45462,-0.5122 -0.79957,-0.0568 -1.89422,-0.23705 -2.43258,-0.40065 -3.01015,-0.91476 -5.39268,-3.30932 -6.42526,-6.45767 -0.25607,-0.78076 -0.29175,-1.7719 -0.36876,-10.24356 -0.0837,-9.202807 -0.0914,-9.387497 -0.41403,-9.822627 -0.61008,-0.8229 -1.27226,-1.15061 -2.32694,-1.15158 -2.25353,-0.002 -2.60922,-0.38757 -2.60922,-2.82804 0,-2.44047 0.35569,-2.82598 2.60922,-2.82804 1.05468,-9.6e-4 1.71686,-0.32867 2.32694,-1.15157 0.32259,-0.43514 0.33037,-0.61983 0.41403,-9.822637 0.077,-8.471661 0.11269,-9.462798 0.36876,-10.243554 1.03859,-3.166701 3.37747,-5.520487 6.42934,-6.470337 0.53128,-0.165352 1.62212,-0.343741 2.4241,-0.396421 1.44056,-0.09463 1.45816,-0.100711 1.45902,-0.504275 0.002,-0.857058 0.32454,-1.598447 0.83387,-1.915806 0.88378,-0.550667 1.22179,-0.358172 3.6835,2.097733 3.16766,3.16018 3.17048,3.063724 -0.18637,6.387682 -1.97349,1.954162 -2.11118,2.058721 -2.71105,2.058721 -0.95832,0 -1.41628,-0.504976 -1.55288,-1.71232 l -0.10854,-0.959436 h -0.73699 c -1.28011,0 -2.32093,0.41179 -3.15895,1.249813 -1.26519,1.265189 -1.24981,1.131745 -1.24981,10.846894 0,8.424793 0,8.424943 0.35361,9.124903 0.19449,0.38498 0.59392,0.85967 0.88763,1.05485 0.47121,0.31314 0.73226,0.35489 2.21932,0.35489 h 1.68529 l 0.10785,-0.813 c 0.0593,-0.44715 0.1802,-0.9482 0.26864,-1.11344 0.21211,-0.39632 1.05184,-0.73687 1.57187,-0.63746 0.54891,0.10493 4.78357,4.36318 4.93314,4.96062 0.20746,0.82863 -0.0757,1.26346 -2.25457,3.46269 -2.2342,2.25504 -2.69841,2.5531 -3.53395,2.26905 -0.58525,-0.19897 -0.8539,-0.64788 -0.98475,-1.64553 l -0.10823,-0.8251 h -1.68529 c -1.48706,0 -1.74811,0.0417 -2.21932,0.35488 -0.29371,0.19519 -0.69314,0.66987 -0.88763,1.05486 -0.35361,0.69996 -0.35361,0.70011 -0.35361,9.124897 0,9.7503 -0.0138,9.63186 1.26277,10.86968 0.8441,0.81849 1.89155,1.22702 3.14599,1.22702 h 0.73699 l 0.10859,-0.95982 c 0.13983,-1.23597 0.5632,-1.71193 1.52274,-1.71193 0.63846,0 0.73615,0.0734 2.74114,2.05872 3.35685,3.32395 3.35403,3.2275 0.18637,6.38768 -2.46171,2.4559 -2.79972,2.6484 -3.6835,2.09773 z m 55.19355,0.15742 c -0.60747,-0.26012 -0.91535,-0.77913 -0.989,-1.66717 l -0.0715,-0.86195 h -7.37496 c -7.87364,0 -8.04749,-0.016 -8.45483,-0.77711 -0.089,-0.1663 -0.16182,-1.05312 -0.16182,-1.9707 0,-1.73128 0.19494,-2.45596 0.71427,-2.65524 0.13993,-0.0537 3.64333,-0.0976 7.78534,-0.0976 h 7.53093 v -0.63369 c 0,-0.79487 0.34731,-1.64622 0.76217,-1.86825 0.17451,-0.0934 0.58716,-0.17085 0.91699,-0.17212 0.56536,-0.002 0.72738,0.12784 2.83076,2.27156 2.4211,2.46754 2.67106,2.90062 2.1942,3.80168 -0.13136,0.24821 -1.18078,1.38689 -2.33205,2.53039 -2.14015,2.1257 -2.60726,2.41851 -3.35052,2.10023 z m -34.4185,-22.78234 c -0.35644,-0.0751 -0.55737,-0.26957 -0.82344,-0.79714 -0.30029,-0.59543 -0.50798,-0.77014 -1.41484,-1.19019 -0.96076,-0.44502 -1.10816,-0.47302 -1.53399,-0.29148 -0.97489,0.4156 -1.38845,0.29061 -2.42929,-0.73419 -1.19942,-1.180937 -1.30432,-1.437657 -0.96084,-2.351377 l 0.26592,-0.70741 -0.48903,-1.06176 c -0.41803,-0.90761 -0.59052,-1.11295 -1.18804,-1.41429 -0.66757,-0.33665 -0.70547,-0.39317 -0.84233,-1.25619 -0.0863,-0.54422 -0.0863,-1.26315 0,-1.80737 0.13686,-0.86302 0.17476,-0.91954 0.84233,-1.2562 0.59752,-0.30134 0.77001,-0.50667 1.18804,-1.41428 l 0.48903,-1.06177 -0.26592,-0.7074 c -0.34565,-0.91949 -0.22641,-1.21454 0.96004,-2.37548 1.02369,-1.00168 1.46131,-1.12857 2.43047,-0.70474 0.41403,0.18107 0.54808,0.16774 1.10013,-0.10937 0.34576,-0.17356 0.80301,-0.36237 1.01612,-0.41958 0.25575,-0.0687 0.52289,-0.36782 0.78581,-0.87998 0.38719,-0.754247 0.42363,-0.77997 1.30202,-0.919269 0.54422,-0.08631 1.26315,-0.08631 1.80737,0 0.86274,0.136816 0.91963,0.174928 1.25563,0.841179 0.30029,0.59543 0.50798,0.77014 1.41484,1.19019 0.96076,0.44501 1.10816,0.47302 1.53399,0.29148 0.97489,-0.4156 1.38845,-0.29062 2.42929,0.73419 1.19942,1.18094 1.30432,1.43766 0.96084,2.35138 l -0.26592,0.7074 0.48903,1.06177 c 0.41803,0.90761 0.59052,1.11294 1.18804,1.41428 0.66757,0.33666 0.70547,0.39318 0.84233,1.2562 0.0863,0.54422 0.0863,1.26315 0,1.80737 -0.13686,0.86302 -0.17476,0.91954 -0.84233,1.25619 -0.59752,0.30134 -0.77001,0.50668 -1.18804,1.41429 l -0.48903,1.06176 0.26592,0.70741 c 0.34348,0.91372 0.23858,1.17044 -0.96084,2.351377 -1.04084,1.0248 -1.4544,1.14979 -2.42929,0.73419 -0.42583,-0.18154 -0.57323,-0.15354 -1.53399,0.29148 -0.90686,0.42005 -1.11455,0.59476 -1.41484,1.19019 -0.3925,0.77828 -0.67709,0.89642 -2.15931,0.89642 -0.47542,0 -1.07657,-0.0447 -1.33588,-0.0993 z m 2.82892,-7.072137 c 0.94567,-0.43109 1.58087,-1.03828 2.03088,-1.94134 1.65648,-3.32412 -1.98198,-6.90267 -5.27118,-5.18438 -2.93237,1.53189 -2.87922,5.66427 0.0906,7.04721 0.97786,0.45535 2.25325,0.48714 3.14967,0.0785 z m 31.66339,1.64844 c -0.64595,-0.20878 -1.09475,-0.97339 -1.09512,-1.86574 l -2.4e-4,-0.58936 -7.26875,-0.009 c -7.7723,-0.01 -8.19089,-0.0475 -8.55892,-0.77694 -0.12201,-0.24181 -0.19824,-1.02748 -0.19824,-2.04311 0,-1.01562 0.0762,-1.80129 0.19824,-2.0431 0.36803,-0.72946 0.78662,-0.76746 8.55892,-0.77694 l 7.26875,-0.009 v -0.55512 c 0,-1.43613 1.01093,-2.35999 2.08239,-1.90302 0.67491,0.28785 4.62602,4.32767 4.76182,4.86873 0.0578,0.23008 0.0576,0.60703 -2.5e-4,0.83767 -0.13142,0.52359 -4.20815,4.694 -4.78522,4.89516 -0.2732,0.0952 -0.60707,0.0847 -0.96338,-0.0305 z M 150.85798,74.891045 c -0.12254,-0.07756 -0.37007,-0.437976 -0.55007,-0.800921 -0.282,-0.568625 -0.47149,-0.719603 -1.37001,-1.091567 -0.95286,-0.39446 -1.0865,-0.413271 -1.55038,-0.218226 -0.95987,0.403595 -1.2648,0.294995 -2.37935,-0.847402 -0.56924,-0.583464 -1.08043,-1.191302 -1.13598,-1.350751 -0.0555,-0.159449 0.0344,-0.596053 0.19994,-0.97023 0.16551,-0.374178 0.26672,-0.714542 0.22489,-0.756366 -0.0418,-0.04182 -0.24117,-0.489257 -0.44299,-0.994297 -0.31899,-0.798237 -0.46568,-0.969606 -1.12234,-1.311158 -0.64822,-0.337163 -0.77461,-0.482094 -0.89085,-1.021554 -0.18011,-0.83585 -0.0493,-2.681929 0.21236,-2.997218 0.11478,-0.138309 0.4682,-0.355302 0.78536,-0.482205 0.50231,-0.200985 0.63392,-0.372977 1.02079,-1.333972 0.43897,-1.09042 0.44107,-1.11149 0.18094,-1.813353 -0.20434,-0.551346 -0.22376,-0.783778 -0.0869,-1.039581 0.28753,-0.537264 1.58114,-1.850996 2.07318,-2.105442 0.40976,-0.211895 0.52598,-0.209444 1.13721,0.02399 0.66699,0.254724 0.70304,0.251324 1.77519,-0.167442 0.96035,-0.375099 1.12837,-0.502858 1.37205,-1.043229 0.4156,-0.921633 0.71919,-1.064448 2.26276,-1.064448 1.54356,0 1.84715,0.142815 2.26275,1.064448 0.24368,0.540371 0.4117,0.66813 1.37205,1.043229 1.07215,0.418766 1.1082,0.422166 1.77519,0.167442 0.61123,-0.233432 0.72745,-0.235883 1.13721,-0.02399 0.49204,0.254446 1.78565,1.568178 2.07318,2.105442 0.13662,0.255276 0.11829,0.486061 -0.0814,1.024879 -0.25286,0.682248 -0.24944,0.716576 0.18085,1.813319 0.38493,0.98111 0.50918,1.146145 1.01535,1.348674 0.31721,0.126922 0.67066,0.34393 0.78544,0.482239 0.26167,0.315289 0.39247,2.161368 0.21236,2.997218 -0.11624,0.53946 -0.24263,0.684391 -0.89085,1.021554 -0.65666,0.341552 -0.80335,0.512921 -1.12234,1.311158 -0.20182,0.50504 -0.40224,0.95355 -0.44538,0.996689 -0.0431,0.04314 0.0554,0.390558 0.21888,0.772042 0.16352,0.381485 0.25457,0.817012 0.20233,0.967838 -0.0522,0.150827 -0.56073,0.751611 -1.12997,1.335075 -1.11953,1.147498 -1.49958,1.28002 -2.37404,0.827818 -0.41497,-0.214588 -0.51695,-0.203697 -1.28878,0.137646 -0.46099,0.203871 -0.96156,0.412454 -1.11237,0.46352 -0.15081,0.05107 -0.38917,0.380164 -0.52968,0.73133 -0.1405,0.351166 -0.38376,0.707143 -0.54056,0.791061 -0.3578,0.191487 -3.13557,0.196937 -3.43605,0.0067 z m 2.99323,-6.852263 c 2.19785,-0.748885 3.25968,-3.240983 2.2786,-5.347867 -1.41077,-3.029658 -5.70122,-3.029658 -7.11199,0 -1.44771,3.108988 1.57822,6.457013 4.83339,5.347867 z m 31.51547,1.476595 c -0.3928,-0.228332 -0.73179,-1.089973 -0.73179,-1.860068 v -0.633696 l -7.58308,-0.005 c -5.71312,-0.0038 -7.64456,-0.05221 -7.83243,-0.196453 -0.49733,-0.381839 -0.61503,-0.881003 -0.61503,-2.608371 0,-1.602426 0.028,-1.762952 0.37921,-2.171311 l 0.3792,-0.44096 7.61696,-0.04362 7.61696,-0.04362 0.0722,-0.870272 c 0.0945,-1.140101 0.60786,-1.70711 1.54546,-1.70711 0.61049,0 0.72858,0.0928 2.89542,2.275279 2.2653,2.281659 2.5746,2.740287 2.37755,3.525399 -0.0532,0.212151 -1.10407,1.415707 -2.33518,2.674569 -2.15516,2.203756 -2.26173,2.288556 -2.86701,2.281247 -0.34576,-0.0042 -0.75904,-0.08339 -0.91841,-0.176025 z"
       id="path6" /></g></svg>
