<?xml version="1.0" encoding="UTF-8" standalone="no"?>
<!-- Created with Inkscape (http://www.inkscape.org/) -->

<svg
   width="63.571224mm"
   height="63.623734mm"
   viewBox="0 0 63.571224 63.623734"
   version="1.1"
   id="svg1"
   xml:space="preserve"
   xmlns:inkscape="http://www.inkscape.org/namespaces/inkscape"
   xmlns:sodipodi="http://sodipodi.sourceforge.net/DTD/sodipodi-0.dtd"
   xmlns="http://www.w3.org/2000/svg"
   xmlns:svg="http://www.w3.org/2000/svg"><sodipodi:namedview
     id="namedview1"
     pagecolor="#ffffff"
     bordercolor="#000000"
     borderopacity="0.25"
     inkscape:showpageshadow="2"
     inkscape:pageopacity="0.0"
     inkscape:pagecheckerboard="true"
     inkscape:deskcolor="#d1d1d1"
     inkscape:document-units="mm" /><defs
     id="defs1" /><g
     inkscape:label="Layer 1"
     inkscape:groupmode="layer"
     id="layer1"
     transform="translate(-15.465437,-225.84187)"><path
       style="fill:#ffffff;fill-opacity:1;stroke:#fefefe;stroke-width:0.8;stroke-dasharray:none;stroke-opacity:0.406072"
       d="m 34.449242,288.8603 c -1.75856,-0.42276 -3.31439,-1.69762 -4.16064,-3.40926 l -0.59287,-1.19915 -0.0474,-6.40222 -0.0474,-6.40223 -4.51032,-0.05 -4.510312,-0.05 -1.021554,-0.48883 c -1.496723,-0.71621 -2.400265,-1.59344 -3.10044,-3.01015 l -0.592869,-1.19959 v -10.31042 -10.31042 l 0.592869,-1.19959 c 0.700175,-1.41671 1.603717,-2.29393 3.10044,-3.01014 l 1.021554,-0.48883 7.023312,-0.0468 7.02331,-0.0468 0.049,-5.14829 0.049,-5.14828 0.59287,-1.19903 c 0.70021,-1.41611 1.60419,-2.2936 3.10044,-3.00958 l 1.02156,-0.48883 h 10.30227 10.30227 l 1.19959,0.59287 c 1.41671,0.70017 2.29393,1.60371 3.01014,3.10044 l 0.48883,1.02155 0.0474,6.39363 0.0474,6.39363 4.51908,0.05 4.51908,0.05 1.19898,0.59286 c 1.41605,0.70021 2.29356,1.60424 3.00952,3.10045 l 0.48883,1.02155 0.0502,9.74405 c 0.0366,7.10559 -4.3e-4,9.97811 -0.13666,10.60844 -0.42536,1.96826 -1.5916,3.45772 -3.41206,4.35774 l -1.19919,0.59287 -7.04155,0.0468 -7.04156,0.0468 -0.002,4.74663 c -0.001,3.45743 -0.0589,4.96007 -0.21177,5.53245 -0.5093,1.9066 -1.60953,3.25487 -3.36367,4.12199 l -1.19935,0.59287 -9.98819,0.0263 c -5.50367,0.0145 -10.25308,-0.0374 -10.57818,-0.11555 z m 20.36258,-2.59664 c 0.88906,-0.30293 2.00521,-1.47088 2.27902,-2.38481 0.12611,-0.4209 0.18684,-2.13742 0.18684,-5.28093 v -4.65734 h -6.52937 -6.52937 l -0.38577,-0.38576 c -0.51036,-0.51036 -0.51036,-1.23271 0,-1.74307 l 0.38577,-0.38576 h 14.32995 c 10.79163,0 14.48968,-0.0472 14.97683,-0.19113 0.86327,-0.25506 2.16522,-1.55702 2.42028,-2.42028 0.27292,-0.92369 0.27292,-18.99944 0,-19.92312 -0.25506,-0.86327 -1.55701,-2.16522 -2.42028,-2.42028 -0.43413,-0.12827 -1.97187,-0.19113 -4.67557,-0.19113 h -4.02869 l -0.002,3.49686 c -0.001,2.4146 -0.0668,3.74005 -0.21177,4.28266 -0.5093,1.9066 -1.60953,3.25488 -3.36368,4.122 l -1.19935,0.59287 -12.58136,0.0786 c -9.42754,0.0589 -12.6894,0.12673 -13.01235,0.27068 -0.23704,0.10566 -0.74457,0.48115 -1.12783,0.83443 -1.23362,1.13711 -1.19151,0.68747 -1.19151,12.72515 0,12.1288 -0.0519,11.60176 1.25926,12.78064 0.41773,0.37557 0.99483,0.75816 1.28245,0.8502 0.34347,0.10991 3.76317,0.17285 9.96397,0.18339 8.24563,0.014 9.53388,-0.0156 10.1744,-0.23385 z m -4.89253,-3.7774 c -0.28701,-0.14633 -0.71135,-0.51452 -0.94297,-0.8182 -0.55137,-0.72288 -0.59996,-2.1214 -0.0971,-2.79493 1.44007,-1.92882 4.322,-1.23938 4.58534,1.09695 0.21127,1.87438 -1.88541,3.36245 -3.54527,2.51618 z m -20.27495,-17.47343 0.0514,-3.89857 0.59287,-1.19894 c 0.70021,-1.41601 1.60427,-2.29354 3.10044,-3.00949 l 1.02156,-0.48883 12.57297,-0.0786 c 11.12289,-0.0695 12.63721,-0.10782 13.13003,-0.3321 0.73176,-0.33302 1.7761,-1.5338 2.00845,-2.3093 0.26435,-0.88234 0.2625,-21.50156 -0.002,-22.38443 -0.10276,-0.34298 -0.49257,-0.96365 -0.86624,-1.37926 -1.16385,-1.29448 -0.80653,-1.25544 -11.49037,-1.25544 -6.76432,0 -9.51638,0.0516 -9.9678,0.18684 -0.34298,0.10275 -0.96365,0.49256 -1.37926,0.86623 -1.20724,1.08541 -1.25544,1.34775 -1.25544,6.83303 v 4.68687 h 6.52937 6.52938 l 0.38576,0.38576 c 0.24316,0.24317 0.38576,0.56533 0.38576,0.87154 0,0.30621 -0.1426,0.62837 -0.38576,0.87153 l -0.38576,0.38576 h -14.35948 c -16.103137,0 -15.243505,-0.0599 -16.424699,1.14487 -1.163457,1.1867 -1.134022,0.89028 -1.134022,11.41987 0,10.73023 -0.04006,10.36336 1.259269,11.53158 0.417722,0.37556 0.994822,0.75815 1.282444,0.85019 0.308888,0.0988 2.206718,0.17391 4.636358,0.18339 l 4.11342,0.016 z m 12.73117,-27.78926 c -0.28701,-0.14633 -0.71135,-0.51452 -0.94297,-0.8182 -0.55138,-0.72288 -0.59996,-2.1214 -0.0971,-2.79493 1.44007,-1.92882 4.322,-1.23938 4.58534,1.09695 0.21127,1.87438 -1.88541,3.36246 -3.54527,2.51618 z"
       id="path5" /></g></svg>
