<?xml version="1.0" encoding="UTF-8" standalone="no"?>
<!-- Created with Inkscape (http://www.inkscape.org/) -->

<svg
   version="1.1"
   id="svg1616"
   width="128"
   height="128"
   viewBox="0 0 128 128"
   sodipodi:docname="quote_orange128.svg"
   inkscape:version="1.2 (1:1.2.1+202207142221+cd75a1ee6d)"
   xmlns:inkscape="http://www.inkscape.org/namespaces/inkscape"
   xmlns:sodipodi="http://sodipodi.sourceforge.net/DTD/sodipodi-0.dtd"
   xmlns="http://www.w3.org/2000/svg"
   xmlns:svg="http://www.w3.org/2000/svg">
  <defs
     id="defs1620" />
  <sodipodi:namedview
     id="namedview1618"
     pagecolor="#ffffff"
     bordercolor="#666666"
     borderopacity="1.0"
     inkscape:showpageshadow="2"
     inkscape:pageopacity="0.0"
     inkscape:pagecheckerboard="0"
     inkscape:deskcolor="#d1d1d1"
     showgrid="false"
     inkscape:zoom="6.640625"
     inkscape:cx="38.851765"
     inkscape:cy="64.075294"
     inkscape:window-width="1848"
     inkscape:window-height="1016"
     inkscape:window-x="72"
     inkscape:window-y="27"
     inkscape:window-maximized="1"
     inkscape:current-layer="g1622" />
  <g
     inkscape:groupmode="layer"
     inkscape:label="Image"
     id="g1622">
    <path
       style="fill:#ff6d3e;stroke:none"
       d="m 34.419945,12.61659 c -15.0692,20.9783 -31.1935701,45.8482 -29.4861101,73 1.28462,20.428 18.1200101,37.033 39.4861101,28.521 27.8555,-11.098 18.9975,-53.196 -10,-54.521 l -0.8302,-27 2.8302,-20 h -2 m 65,0 c -18.151,19.7654 -30.1291,47.0694 -29.9992,74 0.0952,19.752 17.49,34.249 36.999195,28.226 30.22201,-9.33 22.59301,-53.8922 -7.999995,-55.226 -0.2253,-10.9136 -1.5446,-21.0658 0.2855,-32 0.831,-4.965 3.934495,-10.5781 0.7145,-15 m -68,12 v 38 c 8.7943,0.6999 17.0336,3.4839 22.3511,11.0039 10.1742,14.3883 1.5844,34.8601 -15.3511,38.4781 -14.6626,3.133 -28.7079601,-7.64 -29.9066401,-22.482 -1.61798,-20.0341 6.9139401,-51.75 22.9066401,-65 m 64,0 c -1.2336,9.7611 -5.3512,26.9427 0.9383,35.7215 2.6252,3.6642 8.272695,3.3985 12.061695,5.1983 8.35801,3.9697 13.95901,12.8781 13.97101,22.0802 0.025,20.637 -25.211905,33.385 -40.955605,18.892 -20.2664,-18.6561 -3.3232,-66.0284 13.9846,-81.892 z"
       id="path1626" />
  </g>
</svg>
