<?xml version="1.0" encoding="UTF-8" standalone="no"?>
<!-- Created with Inkscape (http://www.inkscape.org/) -->

<svg
   version="1.1"
   id="svg1523"
   width="256"
   height="256"
   viewBox="0 0 256 256"
   sodipodi:docname="random_orange128.svg"
   inkscape:version="1.2 (1:1.2.1+202207142221+cd75a1ee6d)"
   xmlns:inkscape="http://www.inkscape.org/namespaces/inkscape"
   xmlns:sodipodi="http://sodipodi.sourceforge.net/DTD/sodipodi-0.dtd"
   xmlns="http://www.w3.org/2000/svg"
   xmlns:svg="http://www.w3.org/2000/svg">
  <defs
     id="defs1527" />
  <sodipodi:namedview
     id="namedview1525"
     pagecolor="#ffffff"
     bordercolor="#666666"
     borderopacity="1.0"
     inkscape:showpageshadow="2"
     inkscape:pageopacity="0.0"
     inkscape:pagecheckerboard="0"
     inkscape:deskcolor="#d1d1d1"
     showgrid="false"
     inkscape:zoom="3.3203125"
     inkscape:cx="77.703529"
     inkscape:cy="128.15059"
     inkscape:window-width="1848"
     inkscape:window-height="1016"
     inkscape:window-x="72"
     inkscape:window-y="27"
     inkscape:window-maximized="1"
     inkscape:current-layer="g1529" />
  <g
     inkscape:groupmode="layer"
     inkscape:label="Image"
     id="g1529">
    <path
       style="fill:#ff6736;stroke:none;stroke-width:2"
       d="m 33.533275,89.810665 v -16 h -14 l 3.2068,37.944405 36.7932,2.0556 v -12 h -16 c 12.635,-12.635005 25.0884,-28.922805 40,-38.824008 7.959998,-5.2856 21.227395,-7.8788 16.435198,-21.0588 -3.025,-8.3192 -15.038598,-10.5284 -21.569398,-4.9104 -4.8514,4.1732 -5.6372,11.7404 -9.4938,16.7932 -10.0196,13.1268 -23.7018,24.329803 -35.372,36.000003 m 109.999995,-34.000003 6,-14 -14,-6 c -4.1696,9.6766 -15.1008,21.095 -15.2546,31.8132 -0.169,11.764803 24.1252,20.863603 33.2546,24.186803 5.0738,-10.7598 2.755,-15.199 -8,-20.000003 15.4098,-5.8136 33.4578,-11.2722 49.821,-13.4814 6.679,-0.902 13.563,2.796 20.063,0.2654 8.394,-3.2686 11.156,-17.001 3.248,-22.426 -10.144,-6.9604 -17.484,2.65 -25.5502,6.8132 -13.7254,7.0846 -34.3248,10.7744 -49.5818,12.8288 m 54,-10 -2,2 2,-2 m -54,10 -2,2 2,-2 m 0,93.999998 h -16 v 12 l 39.9444,-3.20679 2.0556,-36.7932 h -14 v 16 c -11.7924,-11.7924 -24.7586,-23.0902 -35.5324,-35.821 -4.6368,-5.479005 -5.1022,-14.209205 -11.0262,-18.435205 -10.621997,-7.5772 -24.820795,4.1218 -19.947597,16.0386 3.1194,7.627805 12.540797,8.290805 18.506197,12.845605 12.9962,9.9232 26.6074,24.038 36,37.372 m 58,6 c -6.7648,14.2366 -17.5634,30.4186 -28.6004,41.7346 -5.299,5.433 -14.622,8.2554 -16.4444,16.3534 -2.792,12.406 12.779,20.89599 22.176,12.70599 5.3678,-4.68 4.1722,-12.836 7.2422,-18.794 7.6718,-14.8876 20.3966,-26.7828 27.6266,-42 l 4,16 14,-2 c -0.408,-9.4952 -0.476,-29.7088 -7.484,-36.79319 -5.824,-5.88981 -33.9798,-2.8044 -37.192,5.3828 -3.921,9.9942 9.468,8.59299 14.676,7.4104 m -98,42 -13.999998,2 4,14 c 9.236398,-1.912 30.131998,-4.454 35.561798,-13.02 8.593,-13.55761 -7.0086,-37.533 -21.5618,-34.98 l 4,16 c -14.477197,-6.0594 -30.712995,-13.9932 -43.783995,-22.7038 -6.1684,-4.1106 -8.861,-12.3674 -16.3256,-14.4196 -12.0798,-3.3212 -22.9754,10.0052 -14.4042,20.48759 4.8508,5.93261 13.8998,4.2668 20.5138,6.56781 15.0858,5.24899 34.781798,14.69499 45.999995,26.068 z"
       id="path1533" />
  </g>
</svg>
