<?xml version="1.0" encoding="UTF-8" standalone="no"?>
<!-- Created with Inkscape (http://www.inkscape.org/) -->

<svg
   width="56.091663mm"
   height="51.893112mm"
   viewBox="0 0 56.091663 51.893112"
   version="1.1"
   id="svg1"
   xml:space="preserve"
   xmlns:inkscape="http://www.inkscape.org/namespaces/inkscape"
   xmlns:sodipodi="http://sodipodi.sourceforge.net/DTD/sodipodi-0.dtd"
   xmlns="http://www.w3.org/2000/svg"
   xmlns:svg="http://www.w3.org/2000/svg"><sodipodi:namedview
     id="namedview1"
     pagecolor="#ffffff"
     bordercolor="#000000"
     borderopacity="0.25"
     inkscape:showpageshadow="2"
     inkscape:pageopacity="0.0"
     inkscape:pagecheckerboard="true"
     inkscape:deskcolor="#d1d1d1"
     inkscape:document-units="mm"
     inkscape:zoom="0.72693603"
     inkscape:cx="396.18342"
     inkscape:cy="561.25984"
     inkscape:window-width="1850"
     inkscape:window-height="1016"
     inkscape:window-x="0"
     inkscape:window-y="0"
     inkscape:window-maximized="1"
     inkscape:current-layer="layer1" /><defs
     id="defs1" /><g
     inkscape:label="Layer 1"
     inkscape:groupmode="layer"
     id="layer1"
     transform="translate(-133.90406,-72.083418)"><path
       style="fill:#fefefe;fill-opacity:1;stroke:none;stroke-width:0.529167"
       d="m 137.60822,86.926427 v -4.23334 h -3.70417 l 0.84847,10.03946 9.73487,0.54388 v -3.175 h -4.23334 c 3.34301,-3.34301 6.63798,-7.6525 10.58334,-10.27219 2.10608,-1.39848 5.61641,-2.0846 4.34848,-5.57181 -0.80037,-2.20112 -3.97897,-2.78564 -5.70691,-1.29921 -1.2836,1.10416 -1.49151,3.10632 -2.5119,4.4432 -2.65102,3.47314 -6.2711,6.43727 -9.35884,9.52501 m 29.10417,-8.99584 1.5875,-3.70417 -3.70417,-1.5875 c -1.1032,2.56027 -3.99542,5.58139 -4.03611,8.41725 -0.0447,3.11277 6.38312,5.52016 8.79861,6.39942 1.34244,-2.84686 0.72893,-4.0214 -2.11666,-5.29167 4.07717,-1.53818 8.85237,-2.98243 13.1818,-3.56695 1.76715,-0.23865 3.58855,0.73978 5.30834,0.0702 2.22091,-0.86482 2.95169,-4.49818 0.85936,-5.93354 -2.68393,-1.84161 -4.62597,0.70114 -6.76015,1.80265 -3.63152,1.87447 -9.08177,2.85073 -13.11852,3.39429 m 14.2875,-2.64583 -0.52917,0.52916 0.52917,-0.52916 m -14.2875,2.64583 -0.52917,0.52917 0.52917,-0.52917 m 0,24.870833 h -4.23333 v 3.175 l 10.56862,-0.84846 0.54388,-9.734873 h -3.70417 v 4.23334 c -3.12007,-3.12008 -6.55071,-6.10929 -9.40128,-9.47764 -1.22682,-1.44966 -1.34996,-3.75952 -2.91735,-4.87765 -2.81041,-2.0048 -6.56717,1.09056 -5.2778,4.24355 0.82534,2.01819 3.31808,2.1936 4.89643,3.39873 3.43858,2.62551 7.03987,6.36005 9.525,9.888013 m 15.34583,1.5875 c -1.78985,3.76676 -4.64698,8.04825 -7.56719,11.04228 -1.40202,1.43748 -3.86873,2.18424 -4.35091,4.32683 -0.73872,3.28242 3.38111,5.52873 5.8674,3.3618 1.42023,-1.23825 1.10389,-3.39619 1.91616,-4.97258 2.02983,-3.93901 5.3966,-7.08628 7.30954,-11.1125 l 1.05834,4.23333 3.70416,-0.52917 c -0.10795,-2.51227 -0.12594,-7.86045 -1.98014,-9.73486 -1.54093,-1.558353 -8.99049,-0.742 -9.84038,1.4242 -1.03743,2.6443 2.50507,2.27356 3.88302,1.96067 m -25.92917,11.1125 -3.70416,0.52916 1.05833,3.70417 c 2.4438,-0.50588 7.97243,-1.17845 9.40906,-3.44487 2.27357,-3.58712 -1.85436,-9.93061 -5.70489,-9.25513 l 1.05833,4.23333 c -3.83043,-1.60321 -8.12615,-3.70236 -11.58452,-6.00704 -1.63205,-1.0876 -2.34447,-3.27221 -4.31948,-3.81519 -3.19611,-0.87873 -6.07891,2.64721 -3.81111,5.42068 1.28344,1.56967 3.67766,1.12892 5.42761,1.73773 3.99145,1.38879 9.20269,3.88805 12.17083,6.89716 z"
       id="path1533-1" /></g></svg>
