<?xml version="1.0" encoding="UTF-8" standalone="no"?>
<!-- Created with Inkscape (http://www.inkscape.org/) -->

<svg
   version="1.1"
   id="svg1444"
   width="256"
   height="256"
   viewBox="0 0 256 256"
   sodipodi:docname="refresh_orange128.svg"
   inkscape:version="1.2 (1:1.2.1+202207142221+cd75a1ee6d)"
   xmlns:inkscape="http://www.inkscape.org/namespaces/inkscape"
   xmlns:sodipodi="http://sodipodi.sourceforge.net/DTD/sodipodi-0.dtd"
   xmlns="http://www.w3.org/2000/svg"
   xmlns:svg="http://www.w3.org/2000/svg">
  <defs
     id="defs1448" />
  <sodipodi:namedview
     id="namedview1446"
     pagecolor="#ffffff"
     bordercolor="#666666"
     borderopacity="1.0"
     inkscape:showpageshadow="2"
     inkscape:pageopacity="0.0"
     inkscape:pagecheckerboard="0"
     inkscape:deskcolor="#d1d1d1"
     showgrid="false"
     inkscape:zoom="3.3203125"
     inkscape:cx="77.703529"
     inkscape:cy="128.15059"
     inkscape:window-width="1848"
     inkscape:window-height="1016"
     inkscape:window-x="72"
     inkscape:window-y="27"
     inkscape:window-maximized="1"
     inkscape:current-layer="g1450" />
  <g
     inkscape:groupmode="layer"
     inkscape:label="Image"
     id="g1450">
    <path
       style="fill:#ff6634;stroke:none;stroke-width:2"
       d="m 20.819154,132.62121 c -41.4818,0.119 4.7932,40.683 18,54 11.5918,-8.3376 34.857,-29.6564 38.2192,-43.9614 3.2316,-13.7502 -19.145,-6.0078 -20.4028,-18.1558 -3.8558,-37.240797 42.1756,-71.492797 76.183596,-68.523197 16.6952,1.4578 26.9524,11.7318 41.9984,16.0724 9.0822,2.6202 25.2866,-14.386 24.159,-23.3518 -0.9768,-7.7672 -12.1366,-12.4654 -18.1574,-15.5616 -20.8152,-10.7042 -44.7338,-15.00274 -68,-11.6622 -56.532996,8.1172 -91.993796,55.7978 -91.999996,111.143597 M 216.81915,80.621213 c -13.832,14.453399 -58.7846,53.877197 -16,53.999997 -2.867,35.0536 -34.522,65.733 -70,66.572 -15.8738,0.376 -32.200196,-13.7388 -45.992196,-12.3682 -10.0098,0.9946 -20.2124,17.6082 -24.0078,25.7962 69.933196,46.12 172.069996,11.292 175.999996,-80 41.246,-0.1184 -4.52,-43.064797 -20,-53.999997 z"
       id="path1454" />
  </g>
</svg>
