<?xml version="1.0" encoding="UTF-8" standalone="no"?>
<!-- Created with Inkscape (http://www.inkscape.org/) -->

<svg
   width="53.526608mm"
   height="45.995094mm"
   viewBox="0 0 53.526608 45.995094"
   version="1.1"
   id="svg1"
   xml:space="preserve"
   xmlns:inkscape="http://www.inkscape.org/namespaces/inkscape"
   xmlns:sodipodi="http://sodipodi.sourceforge.net/DTD/sodipodi-0.dtd"
   xmlns="http://www.w3.org/2000/svg"
   xmlns:svg="http://www.w3.org/2000/svg"><sodipodi:namedview
     id="namedview1"
     pagecolor="#ffffff"
     bordercolor="#000000"
     borderopacity="0.25"
     inkscape:showpageshadow="2"
     inkscape:pageopacity="0.0"
     inkscape:pagecheckerboard="true"
     inkscape:deskcolor="#d1d1d1"
     inkscape:document-units="mm"
     inkscape:zoom="0.72693603"
     inkscape:cx="396.18342"
     inkscape:cy="561.25984"
     inkscape:window-width="1850"
     inkscape:window-height="1016"
     inkscape:window-x="0"
     inkscape:window-y="0"
     inkscape:window-maximized="1"
     inkscape:current-layer="layer1" /><defs
     id="defs1" /><g
     inkscape:label="Layer 1"
     inkscape:groupmode="layer"
     id="layer1"
     transform="translate(-131.39043,-235.58294)"><path
       style="fill:#000000;fill-opacity:1;stroke:none;stroke-width:0.428727"
       d="m 135.01378,259.64574 c -8.89217,0.0255 1.02748,8.72095 3.85854,11.57562 2.48486,-1.78728 7.47206,-6.35725 8.19279,-9.42371 0.69274,-2.94754 -4.10398,-1.28786 -4.37361,-3.89194 -0.82654,-7.98306 9.0409,-15.32543 16.33097,-14.68886 3.57883,0.3125 5.7776,2.51487 9.00291,3.44534 1.94689,0.56167 5.42052,-3.08384 5.17881,-5.00578 -0.2094,-1.665 -2.60165,-2.67212 -3.89229,-3.33583 -4.46201,-2.29459 -9.58928,-3.21603 -14.5767,-2.49995 -12.1186,1.74003 -19.72009,11.96101 -19.72142,23.82511 m 42.0152,-11.14689 c -2.96507,3.09828 -12.60125,11.54929 -3.42981,11.57562 -0.61458,7.5142 -7.40025,14.09074 -15.00543,14.27059 -3.40276,0.0806 -6.90254,-2.9451 -9.85904,-2.65129 -2.14573,0.2132 -4.3328,3.77456 -5.14639,5.52976 14.99111,9.88644 36.8855,2.42059 37.72794,-17.14906 8.84163,-0.0254 -0.96892,-9.23152 -4.28727,-11.57562 z"
       id="path1454" /></g></svg>
