<?xml version="1.0" encoding="UTF-8" standalone="no"?>
<!-- Created with Inkscape (http://www.inkscape.org/) -->

<svg
   width="78.449287mm"
   height="72.059959mm"
   viewBox="0 0 78.449287 72.059959"
   version="1.1"
   id="svg1"
   xml:space="preserve"
   xmlns:inkscape="http://www.inkscape.org/namespaces/inkscape"
   xmlns:sodipodi="http://sodipodi.sourceforge.net/DTD/sodipodi-0.dtd"
   xmlns="http://www.w3.org/2000/svg"
   xmlns:svg="http://www.w3.org/2000/svg"><sodipodi:namedview
     id="namedview1"
     pagecolor="#ffffff"
     bordercolor="#000000"
     borderopacity="0.25"
     inkscape:showpageshadow="2"
     inkscape:pageopacity="0.0"
     inkscape:pagecheckerboard="true"
     inkscape:deskcolor="#d1d1d1"
     inkscape:document-units="mm" /><defs
     id="defs1" /><g
     inkscape:label="Layer 1"
     inkscape:groupmode="layer"
     id="layer1"
     transform="translate(-18.529309,-48.333441)"><g
       inkscape:label="Layer 1"
       inkscape:groupmode="layer"
       id="layer1-6"
       transform="translate(0.84956954,-114.31697)"><path
         style="fill:#020202;stroke:none;stroke-width:0.575149"
         d="m 26.649242,162.97812 c -4.434054,0.5839 -7.939072,3.18415 -8.608795,7.84851 -0.665218,4.63299 -0.06517,9.7733 -0.06517,14.45661 v 29.21756 c 0,4.95792 -1.393169,12.27582 1.87013,16.43476 3.952672,5.03751 11.971618,3.50014 17.608243,3.50014 h 33.782803 c 5.653004,0 11.930174,0.75873 17.500104,-0.24588 6.359,-1.14693 7.15222,-7.07557 7.15222,-12.38463 v -39.71762 c 0,-5.03447 1.32426,-12.02738 -2.24529,-16.12454 -4.00486,-4.59683 -12.09274,-3.04949 -17.537445,-3.04949 H 43.08412 c -5.346368,0 -11.137483,-0.63301 -16.434878,0.0646 m 64.369935,11.34851 H 22.844873 c 0,-1.74814 -0.237098,-3.53045 0.880876,-5.01566 1.079133,-1.43361 2.808815,-1.52786 4.445241,-1.52786 h 7.913089 40.935018 8.67396 c 1.71397,0 3.47194,0.13247 4.54927,1.67992 1.01258,1.45444 0.77685,3.1849 0.77685,4.8636 m 0,4.8696 v 35.15237 8.82614 c 0,1.63871 0.21125,3.29216 -0.77685,4.71143 -1.10319,1.58461 -2.95587,1.67991 -4.70144,1.67991 H 75.64952 36.997128 28.323165 c -1.685157,0 -3.466297,-0.0718 -4.597416,-1.53548 -1.049034,-1.35744 -0.880876,-2.94029 -0.880876,-4.55151 v -8.82614 -35.45672 H 91.019177 M 59.36682,192.2403 c -2.483297,0.0331 -2.623087,2.9123 -3.061109,4.7604 -1.272091,5.3672 -2.526272,10.74583 -3.722173,16.13053 -0.409644,1.84445 -1.050469,4.99335 1.913687,4.99335 2.469867,0 2.636977,-3.05168 3.061109,-4.84118 1.272091,-5.36722 2.526261,-10.74584 3.722179,-16.13053 0.41187,-1.85445 1.044005,-4.95194 -1.913693,-4.91257 m -13.239205,4.84529 c -1.033147,0.11919 -1.664221,0.84903 -2.302465,1.58903 -1.429778,1.65775 -4.975976,4.45576 -4.668807,6.84787 0.210563,1.63977 2.156931,3.21652 3.186746,4.41307 1.089294,1.26565 2.432531,3.62392 4.393226,3.29712 4.201941,-0.70037 0.659564,-4.99592 -0.628544,-6.49279 -0.343344,-0.399 -1.029576,-0.96418 -1.082601,-1.52176 -0.05644,-0.59356 0.770756,-1.26547 1.122289,-1.67391 0.797826,-0.927 2.094909,-2.00491 2.467792,-3.19568 0.508561,-1.62404 -0.691053,-3.4702 -2.487636,-3.26295 m 20.543596,0.1544 c -3.649809,1.04741 -0.12716,4.94185 1.045379,6.30423 0.345704,0.40166 1.04286,0.97232 1.118883,1.52174 0.08883,0.64194 -0.8361,1.38925 -1.209998,1.8261 -0.765466,0.89434 -1.985414,1.90924 -2.369044,3.0435 -0.586031,1.73268 0.742316,3.61513 2.63218,3.29712 0.959383,-0.16145 1.594686,-0.92349 2.19444,-1.6232 1.417966,-1.65431 4.975354,-4.45324 4.620896,-6.84787 -0.230187,-1.55504 -1.993144,-2.96769 -2.969753,-4.10872 -1.288391,-1.5053 -2.711746,-4.08765 -5.062983,-3.4129 z"
         id="path1-2" /></g></g></svg>
