<?xml version="1.0" encoding="UTF-8" standalone="no"?>
<!-- Created with Inkscape (http://www.inkscape.org/) -->

<svg
   width="79.143929mm"
   height="72.698067mm"
   viewBox="0 0 79.143929 72.698067"
   version="1.1"
   id="svg1"
   xml:space="preserve"
   xmlns:inkscape="http://www.inkscape.org/namespaces/inkscape"
   xmlns:sodipodi="http://sodipodi.sourceforge.net/DTD/sodipodi-0.dtd"
   xmlns="http://www.w3.org/2000/svg"
   xmlns:svg="http://www.w3.org/2000/svg"><sodipodi:namedview
     id="namedview1"
     pagecolor="#ffffff"
     bordercolor="#000000"
     borderopacity="0.25"
     inkscape:showpageshadow="2"
     inkscape:pageopacity="0.0"
     inkscape:pagecheckerboard="true"
     inkscape:deskcolor="#d1d1d1"
     inkscape:document-units="mm" /><defs
     id="defs1" /><g
     inkscape:label="Layer 1"
     inkscape:groupmode="layer"
     id="layer1"
     transform="translate(-113.27457,-108.99726)"><g
       inkscape:label="Layer 1"
       inkscape:groupmode="layer"
       id="layer1-6"
       transform="translate(0.84956954,-114.31697)"><path
         style="fill:#ffffff;fill-opacity:1;stroke:none;stroke-width:0.580242"
         d="m 121.47397,223.64486 c -4.47332,0.58908 -8.00937,3.21234 -8.68502,7.91801 -0.67111,4.67402 -0.0658,9.85985 -0.0658,14.58462 v 29.47628 c 0,5.00183 -1.4055,12.38453 1.88669,16.58029 3.98767,5.08212 12.07763,3.53113 17.76417,3.53113 h 34.08194 c 5.70306,0 12.03582,0.76545 17.65506,-0.24805 6.41532,-1.15709 7.21555,-7.13822 7.21555,-12.4943 v -40.06932 c 0,-5.07905 1.33599,-12.13387 -2.26517,-16.26732 -4.04032,-4.63753 -12.19982,-3.07649 -17.69273,-3.07649 h -33.31433 c -5.39371,0 -11.2361,-0.63862 -16.58041,0.0651 m 64.93993,11.44903 h -68.77798 c 0,-1.76363 -0.2392,-3.56172 0.88867,-5.06008 1.08869,-1.4463 2.83369,-1.54139 4.48461,-1.54139 h 7.98316 41.29748 8.75078 c 1.72914,0 3.50268,0.13364 4.58955,1.6948 1.02155,1.46731 0.78373,3.2131 0.78373,4.90667 m 0,4.91271 v 35.46365 8.90429 c 0,1.65322 0.21311,3.32131 -0.78373,4.75315 -1.11296,1.59864 -2.98204,1.69478 -4.74307,1.69478 h -9.97896 -38.99465 -8.75077 c -1.70008,0 -3.49699,-0.0725 -4.63813,-1.54907 -1.05832,-1.36947 -0.88867,-2.96633 -0.88867,-4.59182 v -8.90429 -35.77069 h 68.77798 m -31.93264,13.15956 c -2.50529,0.0334 -2.64631,2.93808 -3.08821,4.80254 -1.28336,5.41474 -2.54865,10.841 -3.75514,16.27337 -0.41327,1.86079 -1.05977,5.03757 1.93064,5.03757 2.49173,0 2.66032,-3.07871 3.08821,-4.88405 1.28336,-5.41474 2.54863,-10.841 3.75514,-16.27336 0.41552,-1.87088 1.05325,-4.99579 -1.93064,-4.95607 m -13.35643,4.88819 c -1.0423,0.12024 -1.67896,0.85655 -2.32286,1.6031 -1.44244,1.67243 -5.02004,4.49522 -4.71015,6.90851 0.21243,1.65429 2.17604,3.245 3.21497,4.45214 1.09894,1.27686 2.45407,3.65601 4.43212,3.32632 4.23915,-0.70657 0.66541,-5.04016 -0.63411,-6.55028 -0.34638,-0.40254 -1.03869,-0.97272 -1.09218,-1.53523 -0.0569,-0.59882 0.77758,-1.27668 1.13223,-1.68874 0.80488,-0.93521 2.11346,-2.02266 2.48964,-3.22397 0.51307,-1.63842 -0.69717,-3.50094 -2.50966,-3.29185 m 20.7255,0.15577 c -3.68213,1.05668 -0.12828,4.98561 1.05464,6.36005 0.34876,0.40522 1.05209,0.98094 1.12879,1.53522 0.0896,0.64762 -0.8435,1.40155 -1.22071,1.84227 -0.77225,0.90225 -2.003,1.92614 -2.39003,3.07044 -0.59122,1.74803 0.74889,3.64715 2.65549,3.32632 0.96788,-0.16287 1.60881,-0.93166 2.21387,-1.63757 1.43053,-1.66896 5.01941,-4.49268 4.66182,-6.90851 -0.23223,-1.56881 -2.0108,-2.99397 -2.99605,-4.1451 -1.2998,-1.51863 -2.73576,-4.12384 -5.10782,-3.44312 z"
         id="path1-2-7" /></g></g></svg>
