<?xml version="1.0" encoding="UTF-8" standalone="no"?>
<!-- Created with Inkscape (http://www.inkscape.org/) -->

<svg
   width="94.571465mm"
   height="86.869041mm"
   viewBox="0 0 94.571465 86.869041"
   version="1.1"
   id="svg1"
   xml:space="preserve"
   xmlns:inkscape="http://www.inkscape.org/namespaces/inkscape"
   xmlns:sodipodi="http://sodipodi.sourceforge.net/DTD/sodipodi-0.dtd"
   xmlns="http://www.w3.org/2000/svg"
   xmlns:svg="http://www.w3.org/2000/svg"><sodipodi:namedview
     id="namedview1"
     pagecolor="#ffffff"
     bordercolor="#000000"
     borderopacity="0.25"
     inkscape:showpageshadow="2"
     inkscape:pageopacity="0.0"
     inkscape:pagecheckerboard="true"
     inkscape:deskcolor="#d1d1d1"
     inkscape:document-units="mm" /><defs
     id="defs1" /><g
     inkscape:label="Layer 1"
     inkscape:groupmode="layer"
     id="layer1"
     transform="translate(-18.734688,-187.89656)"><path
       style="fill:#ff6633;fill-opacity:1;stroke:none;stroke-width:0.693348"
       d="m 29.547519,188.29161 c -5.345301,0.7039 -9.570639,3.83853 -10.377997,9.46146 -0.801927,5.58512 -0.07856,11.78183 -0.07856,17.4276 v 35.22209 c 0,5.97683 -1.679481,14.79864 2.254461,19.81228 4.76499,6.07277 14.431917,4.21945 21.22693,4.21945 h 40.725541 c 6.814761,0 14.381957,0.91466 21.096566,-0.2964 7.66585,-1.38263 8.62207,-8.52968 8.62207,-14.92981 v -47.88002 c 0,-6.06912 1.59642,-14.49913 -2.70672,-19.43831 -4.8279,-5.54152 -14.577928,-3.67619 -21.141571,-3.67619 H 49.359943 c -6.445105,0 -13.426357,-0.7631 -19.812424,0.0779 m 77.598661,13.68078 H 24.96131 c 0,-2.10741 -0.285824,-4.256 1.061906,-6.04644 1.300907,-1.72823 3.386057,-1.84184 5.358787,-1.84184 h 9.539315 49.347611 10.456561 c 2.0662,0 4.18546,0.15968 5.48419,2.02515 1.22068,1.75334 0.9365,3.83943 0.9365,5.86313 m 0,5.87035 v 42.37657 10.64 c 0,1.97548 0.25466,3.96873 -0.9365,5.67968 -1.32991,1.91027 -3.56333,2.02515 -5.66764,2.02515 H 88.617893 42.022008 31.565451 c -2.031475,0 -4.178658,-0.0866 -5.542235,-1.85103 -1.264622,-1.63642 -1.061906,-3.54455 -1.061906,-5.4869 v -10.64 -42.74347 h 82.18487 m -38.15726,15.72475 c -2.993642,0.0399 -3.162161,3.5108 -3.690201,5.7387 -1.53352,6.47023 -3.045456,12.95423 -4.487125,19.44554 -0.493826,2.22351 -1.266347,6.01953 2.306975,6.01953 2.977452,0 3.178904,-3.67883 3.6902,-5.83609 1.53352,-6.47024 3.045435,-12.95423 4.487128,-19.44552 0.496514,-2.23557 1.258559,-5.96962 -2.306977,-5.92216 m -15.960009,5.84104 c -1.245471,0.14368 -2.006237,1.02351 -2.775648,1.9156 -1.723612,1.99843 -5.998593,5.37146 -5.628298,8.25517 0.253837,1.97677 2.600205,3.87756 3.841658,5.32001 1.313156,1.52575 2.932442,4.36868 5.296082,3.97472 5.065485,-0.8443 0.795112,-6.02264 -0.757716,-7.82714 -0.413906,-0.48099 -1.241166,-1.16233 -1.305088,-1.83448 -0.06804,-0.71555 0.929155,-1.52555 1.352932,-2.01793 0.961788,-1.11751 2.525435,-2.41694 2.97495,-3.85242 0.613076,-1.9578 -0.833072,-4.18337 -2.998872,-3.93353 m 24.765531,0.18614 c -4.399884,1.26266 -0.153292,5.95745 1.260216,7.59981 0.416751,0.48421 1.257179,1.17215 1.348826,1.83448 0.10708,0.77387 -1.007928,1.67475 -1.458666,2.20138 -0.922777,1.07814 -2.393438,2.30161 -2.855909,3.66897 -0.706466,2.08877 0.89487,4.35808 3.173122,3.97472 1.156547,-0.19463 1.922412,-1.11328 2.645422,-1.95679 1.709374,-1.99429 5.997844,-5.36843 5.57054,-8.25518 -0.277492,-1.87462 -2.402757,-3.57759 -3.580069,-4.95311 -1.553169,-1.81465 -3.26904,-4.9277 -6.103482,-4.11428 z"
       id="path1" /></g></svg>
