<?xml version="1.0" encoding="UTF-8" standalone="no"?>
<!-- Created with Inkscape (http://www.inkscape.org/) -->

<svg
   width="77.4468mm"
   height="65.765656mm"
   viewBox="0 0 77.4468 65.765656"
   version="1.1"
   id="svg1"
   xml:space="preserve"
   xmlns:inkscape="http://www.inkscape.org/namespaces/inkscape"
   xmlns:sodipodi="http://sodipodi.sourceforge.net/DTD/sodipodi-0.dtd"
   xmlns="http://www.w3.org/2000/svg"
   xmlns:svg="http://www.w3.org/2000/svg"><sodipodi:namedview
     id="namedview1"
     pagecolor="#ffffff"
     bordercolor="#000000"
     borderopacity="0.25"
     inkscape:showpageshadow="2"
     inkscape:pageopacity="0.0"
     inkscape:pagecheckerboard="true"
     inkscape:deskcolor="#d1d1d1"
     inkscape:document-units="mm" /><defs
     id="defs1" /><g
     inkscape:label="Layer 1"
     inkscape:groupmode="layer"
     id="layer1"
     transform="translate(-107.08294,-165.86819)"><path
       style="fill:#fefefe;fill-opacity:1;stroke:#ffffff;stroke-width:0.6;stroke-dasharray:none;stroke-opacity:0.406072"
       d="m 112.39984,231.22986 c -1.78472,-0.45096 -3.31649,-1.70894 -4.16064,-3.41695 -0.56129,-1.13569 -0.59287,-1.27999 -0.59287,-2.70893 0,-1.42626 0.0323,-1.57472 0.58696,-2.69697 0.70693,-1.43039 1.617,-2.32137 3.07812,-3.01359 0.94939,-0.44978 1.19257,-0.49735 2.54283,-0.49735 1.35025,0 1.59343,0.0476 2.54282,0.49735 1.46112,0.69222 2.37119,1.5832 3.07812,3.01359 0.55465,1.12225 0.58696,1.27071 0.58696,2.69697 0,1.42626 -0.0323,1.57471 -0.58696,2.69696 -1.06203,2.14889 -2.94876,3.40972 -5.26745,3.52005 -0.66984,0.0319 -1.48339,-0.009 -1.80789,-0.0911 z m 12.77007,-6.12588 v -1.2573 h 1.25729 1.2573 v 1.2573 1.25729 h -1.2573 -1.25729 z m 5.02919,0.004 v -1.2535 l 2.63246,-0.0431 2.63247,-0.0431 1.44407,-7.70094 c 2.28427,-12.18161 2.19248,-11.75154 2.5745,-12.0622 0.3023,-0.24583 0.76183,-0.27503 4.32843,-0.27503 h 3.99022 v 1.2573 1.25729 l -3.26111,6.2e-4 -3.26112,6.1e-4 -1.47129,7.89678 c -2.20008,11.80839 -2.16143,11.62729 -2.54879,11.94371 -0.29732,0.24287 -0.72981,0.27503 -3.69827,0.27503 h -3.36157 z m 34.57566,-2.60987 c -4.25087,-0.49175 -7.59226,-1.58956 -10.68702,-3.51122 -0.82118,-0.5099 -1.51213,-0.90839 -1.53546,-0.88553 -0.0233,0.0229 0.0999,0.6354 0.27393,1.36121 0.4535,1.89177 0.49013,1.79686 -0.8065,2.08968 -0.61878,0.13974 -1.14869,0.23043 -1.17758,0.20154 -0.0289,-0.0289 -0.43802,-1.69736 -0.90917,-3.70771 -0.90934,-3.88002 -0.92188,-4.1435 -0.22071,-4.63462 0.62139,-0.43524 1.00016,-0.3008 2.24294,0.79608 1.591,1.40421 2.7461,2.25527 4.15539,3.0616 3.36425,1.92488 7.82878,2.98112 11.62135,2.74945 5.2146,-0.31854 10.01129,-2.3718 13.66001,-5.84727 l 1.20359,-1.14645 0.73183,0.61272 c 1.23984,1.03806 1.25622,0.90256 -0.28649,2.37026 -3.28129,3.12175 -7.41654,5.23762 -11.94396,6.11132 -1.56704,0.30241 -5.13502,0.51626 -6.32215,0.37894 z m -0.52712,-9.09501 c -0.24404,-0.22617 -0.41585,-0.55405 -0.41585,-0.79361 0,-0.88251 -0.36709,-1.2366 -2.00227,-1.93143 -0.85615,-0.3638 -1.71439,-0.66145 -1.90721,-0.66145 -0.19282,0 -0.61077,0.17681 -0.92879,0.39291 -1.01346,0.68866 -1.32512,0.57645 -2.97148,-1.06991 -1.64727,-1.64727 -1.74269,-1.91732 -1.06581,-3.01631 0.21296,-0.34575 0.38756,-0.76497 0.388,-0.93159 4.4e-4,-0.16663 -0.29685,-1.00344 -0.66064,-1.85958 -0.69483,-1.63519 -1.04893,-2.00227 -1.93143,-2.00227 -0.23956,0 -0.56744,-0.17181 -0.79362,-0.41586 -0.36709,-0.39609 -0.3854,-0.51081 -0.3854,-2.41458 0,-1.94999 0.0101,-2.00883 0.41434,-2.41306 0.22788,-0.22789 0.58501,-0.41434 0.79361,-0.41434 0.85188,0 1.21333,-0.3804 1.9025,-2.00226 0.36379,-0.85615 0.66108,-1.69296 0.66064,-1.85958 -4.4e-4,-0.16663 -0.17504,-0.58584 -0.388,-0.9316 -0.67688,-1.09898 -0.58146,-1.36903 1.06581,-3.0163 1.6435,-1.64351 1.98948,-1.76951 2.93772,-1.06992 0.29291,0.2161 0.71345,0.39291 0.93455,0.39291 0.22109,0 1.10807,-0.30565 1.97105,-0.67923 1.66423,-0.72043 1.74078,-0.80261 2.03641,-2.18612 0.15193,-0.71108 0.76466,-0.90654 2.8418,-0.90654 1.78484,0 1.83732,0.0101 2.26045,0.43318 0.2642,0.26421 0.47313,0.68302 0.53559,1.07362 0.0563,0.35224 0.22725,0.75 0.37983,0.8839 0.36289,0.31847 3.04645,1.38119 3.48777,1.38119 0.18836,0 0.60266,-0.17681 0.92068,-0.39291 1.01346,-0.68866 1.32512,-0.57644 2.97148,1.06992 1.64351,1.6435 1.76951,1.98947 1.06991,2.93772 -0.51923,0.70378 -0.4981,1.03173 0.17596,2.73085 0.6872,1.73223 0.87138,1.95929 1.69622,2.09119 0.39061,0.0625 0.80942,0.27139 1.07362,0.53559 0.42468,0.42468 0.43319,0.47024 0.43319,2.31916 0,1.7774 -0.0224,1.9126 -0.38903,2.34831 -0.27665,0.32879 -0.57797,0.48768 -1.04317,0.55007 -0.84836,0.11379 -1.00034,0.28379 -1.66248,1.85962 -0.76658,1.82438 -0.80655,2.2135 -0.3021,2.94141 0.70403,1.01592 0.5987,1.31259 -1.05212,2.96341 -1.64727,1.64727 -1.91732,1.74269 -3.0163,1.06581 -0.34576,-0.21296 -0.76498,-0.38756 -0.9316,-0.388 -0.16662,-4.4e-4 -1.00343,0.29684 -1.85958,0.66064 -1.61126,0.68466 -1.99566,1.04558 -2.00726,1.88463 -0.006,0.42952 -0.26013,0.79209 -0.73119,1.04298 -0.20574,0.10958 -1.09387,0.18283 -2.21661,0.18283 -1.77067,0 -1.89612,-0.0211 -2.28919,-0.3854 z m 4.2139,-7.39902 c 2.71061,-0.70603 4.79863,-2.80074 5.50851,-5.52615 1.01795,-3.90818 -1.48366,-8.03178 -5.50851,-9.08012 -3.93273,-1.02435 -8.05254,1.4656 -9.10397,5.5023 -1.40077,5.3779 3.72606,10.50473 9.10397,9.10397 z m -60.26514,-7.30314 v -5.65783 h 5.65784 5.65783 v 5.65783 5.65784 h -5.65783 -5.65784 z m 16.97351,0 v -1.2573 h 1.25729 1.2573 v 1.2573 1.2573 h -1.2573 -1.25729 z m 5.02919,0 v -1.2573 h 8.17243 8.17243 v 1.2573 1.2573 h -8.17243 -8.17243 z m 9.30808,-5.34415 c -0.18594,-0.17323 -0.40542,-0.57989 -0.48772,-0.90368 -0.0823,-0.3238 -0.91595,-4.70804 -1.85254,-9.74276 l -1.70289,-9.15405 -3.26112,-6.5e-4 -3.26111,-6.5e-4 v -1.2573 -1.25729 h 4.00763 c 3.7619,0 4.0264,0.0188 4.31367,0.30603 0.41244,0.41244 0.37847,0.25593 2.31303,10.65538 l 1.70289,9.15404 3.26112,6.5e-4 3.26111,6.5e-4 v 1.2573 1.25729 h -3.978 c -3.76345,0 -3.99623,-0.017 -4.31607,-0.31496 z m 10.27788,-9.79932 -0.9102,-0.80848 1.23127,-1.19033 c 3.06336,-2.9615 6.60224,-4.94285 10.6534,-5.96461 6.28668,-1.58558 12.86771,-0.60025 18.33519,2.74522 0.8976,0.54923 1.65108,0.98084 1.67442,0.95914 0.0233,-0.0217 -0.0999,-0.63329 -0.27394,-1.3591 -0.45505,-1.89823 -0.49048,-1.80542 0.80139,-2.09925 0.61597,-0.1401 1.15135,-0.22332 1.18973,-0.18494 0.0384,0.0384 0.45188,1.70372 0.91888,3.70075 0.90427,3.86694 0.9161,4.13575 0.20396,4.63455 -0.60126,0.42115 -1.03671,0.30497 -1.90959,-0.50949 -3.32644,-3.10377 -6.85377,-4.94985 -11.05649,-5.78657 -1.90494,-0.37925 -6.04825,-0.38167 -7.94007,-0.005 -4.02771,0.80274 -7.72531,2.69775 -10.7539,5.51137 l -1.25385,1.16486 z m -39.11402,-11.18139 c 1.70652,-3.41434 3.13896,-6.2079 3.1832,-6.2079 0.0442,0 1.47667,2.79356 3.18319,6.2079 l 3.10277,6.20791 h -6.28596 -6.28597 z m 13.24157,-0.0786 v -1.25729 h 1.2573 1.25729 v 1.25729 1.2573 h -1.25729 -1.2573 z"
       id="path2" /></g></svg>
