<?xml version="1.0" encoding="UTF-8" standalone="no"?>
<!-- Created with Inkscape (http://www.inkscape.org/) -->

<svg
   width="55.868813mm"
   height="67.666786mm"
   viewBox="0 0 55.868813 67.666786"
   version="1.1"
   id="svg1"
   xml:space="preserve"
   xmlns:inkscape="http://www.inkscape.org/namespaces/inkscape"
   xmlns:sodipodi="http://sodipodi.sourceforge.net/DTD/sodipodi-0.dtd"
   xmlns="http://www.w3.org/2000/svg"
   xmlns:svg="http://www.w3.org/2000/svg"
   xmlns:sketch="http://www.bohemiancoding.com/sketch/ns"><sodipodi:namedview
     id="namedview1"
     pagecolor="#ffffff"
     bordercolor="#000000"
     borderopacity="0.25"
     inkscape:showpageshadow="2"
     inkscape:pageopacity="0.0"
     inkscape:pagecheckerboard="true"
     inkscape:deskcolor="#d1d1d1"
     inkscape:document-units="mm"
     inkscape:zoom="0.72693603"
     inkscape:cx="396.18342"
     inkscape:cy="561.25984"
     inkscape:window-width="1850"
     inkscape:window-height="1016"
     inkscape:window-x="0"
     inkscape:window-y="0"
     inkscape:window-maximized="1"
     inkscape:current-layer="layer1" /><defs
     id="defs1" /><g
     inkscape:label="Layer 1"
     inkscape:groupmode="layer"
     id="layer1"
     transform="translate(-144.97417,-213.93353)"><g
       id="g2"
       transform="matrix(0.21871019,0,0,0.26458333,144.89398,213.93353)"
       style="fill:#ffffff;fill-opacity:1"><g
         id="Page-1-2"
         stroke="none"
         stroke-width="1"
         fill="none"
         fill-rule="evenodd"
         sketch:type="MSPage"
         style="fill:#ffffff;fill-opacity:1"
         transform="matrix(13.444568,0,0,9.4721674,-93.745391,-28.416502)"><g
           id="icon-62-document-table-5"
           sketch:type="MSArtboardGroup"
           fill="#000000"
           style="fill:#ffffff;fill-opacity:1"><path
             d="m 16,21 h -4 v 2 0 h 4 z m 1,0 h 4 v 2 h -4 z m -1,5 h -4 v -2 h 4 z m 1,0 h 4 v -2 h -4 z m -1,-8 h -4 v 2 0 h 4 z m 1,0 h 4 v 2 h -4 z m -1,-3 h -4 v 2 0 h 4 z m 1,0 h 4 v 2 H 17 Z M 19.5,3 H 9.0027601 C 7.8966662,3 7,3.8983383 7,5.0073299 V 27.99267 C 7,29.101288 7.8909254,30 8.9974219,30 H 24.002578 C 25.105724,30 26,29.101788 26,28.009205 V 10.5 10 L 20,3 Z M 19,4 H 8.9955775 C 8.4457352,4 8,4.4552629 8,4.995457 V 28.004543 C 8,28.554319 8.4547089,29 8.9999602,29 H 24.00004 C 24.552303,29 25,28.555054 25,28.006602 V 11 H 20.997913 C 19.894496,11 19,10.113445 19,8.994081 Z m 1,0.5 V 8.9912152 C 20,9.5483517 20.450651,10 20.996739,10 h 3.703212 z M 11,13 V 27 H 22 V 13 Z"
             id="document-table-4"
             sketch:type="MSShapeGroup"
             style="fill:#ffffff;fill-opacity:1" /></g></g><ellipse
         class="st0"
         cx="87.97876"
         cy="46.708492"
         id="circle2103-7"
         style="fill:#ffffff;fill-opacity:1;stroke:#eaeaea;stroke-width:6.33354;stroke-linejoin:round;stroke-miterlimit:10;stroke-opacity:1"
         rx="24.382111"
         ry="14.80692" /><ellipse
         class="st0"
         cx="126.58376"
         cy="30.667667"
         id="circle2105-4"
         style="fill:#ffffff;fill-opacity:1;stroke:#e7e6e6;stroke-width:6.33354;stroke-linejoin:round;stroke-miterlimit:10;stroke-opacity:1"
         rx="10.159213"
         ry="6.1695504" /><ellipse
         class="st0"
         cx="45.310062"
         cy="20.796383"
         id="circle2107-4"
         style="fill:#ffffff;fill-opacity:1;stroke:#e2e2e2;stroke-width:6.33354;stroke-linejoin:round;stroke-miterlimit:10;stroke-opacity:1"
         rx="10.159213"
         ry="6.1695504" /><ellipse
         class="st0"
         cx="53.437428"
         cy="72.620605"
         id="circle2109-3"
         style="fill:#ffffff;fill-opacity:1;stroke:#e1e1e1;stroke-width:6.33354;stroke-linejoin:round;stroke-miterlimit:10;stroke-opacity:1"
         rx="10.159213"
         ry="6.1695504" /><ellipse
         class="st0"
         cx="130.64745"
         cy="65.21714"
         id="circle2111-0"
         style="fill:#ffffff;fill-opacity:1;stroke:#e1e1e1;stroke-width:6.33354;stroke-linejoin:round;stroke-miterlimit:10;stroke-opacity:1"
         rx="10.159213"
         ry="6.1695504" /><line
         class="st0"
         x1="72.943092"
         y1="58.307247"
         x2="59.939335"
         y2="67.931747"
         id="line2113-7"
         style="fill:#ffffff;fill-opacity:1;stroke:#e1e1e1;stroke-width:6.33354;stroke-linejoin:round;stroke-miterlimit:10;stroke-opacity:1" /><line
         class="st0"
         x1="52.624699"
         y1="25.238462"
         x2="70.91127"
         y2="36.343655"
         id="line2115-8"
         style="fill:#ffffff;fill-opacity:1;stroke:#e5e5e5;stroke-width:6.33354;stroke-linejoin:round;stroke-miterlimit:10;stroke-opacity:1" /><line
         class="st0"
         x1="118.4564"
         y1="34.3694"
         x2="108.29716"
         y2="38.56469"
         id="line2117-6"
         style="fill:#ffffff;fill-opacity:1;stroke:#e3e3e3;stroke-width:6.33354;stroke-linejoin:round;stroke-miterlimit:10;stroke-opacity:1" /><line
         class="st0"
         x1="122.52009"
         y1="61.515411"
         x2="107.89081"
         y2="55.099075"
         id="line2119-8"
         style="fill:#ffffff;fill-opacity:1;stroke:#e4e4e4;stroke-width:6.33354;stroke-linejoin:round;stroke-miterlimit:10;stroke-opacity:1" /></g></g></svg>
