<?xml version="1.0" encoding="UTF-8" standalone="no"?>
<!-- Created with Inkscape (http://www.inkscape.org/) -->

<svg
   width="36.751324mm"
   height="41.679703mm"
   viewBox="0 0 36.751324 41.679703"
   version="1.1"
   id="svg1"
   xml:space="preserve"
   xmlns:inkscape="http://www.inkscape.org/namespaces/inkscape"
   xmlns:sodipodi="http://sodipodi.sourceforge.net/DTD/sodipodi-0.dtd"
   xmlns="http://www.w3.org/2000/svg"
   xmlns:svg="http://www.w3.org/2000/svg"><sodipodi:namedview
     id="namedview1"
     pagecolor="#ffffff"
     bordercolor="#000000"
     borderopacity="0.25"
     inkscape:showpageshadow="2"
     inkscape:pageopacity="0.0"
     inkscape:pagecheckerboard="true"
     inkscape:deskcolor="#d1d1d1"
     inkscape:document-units="mm" /><defs
     id="defs1" /><g
     inkscape:label="Layer 1"
     inkscape:groupmode="layer"
     id="layer1"
     transform="translate(-139.86936,-27.960195)"><path
       style="fill:#ffffff;fill-opacity:1;stroke:none;stroke-width:2.18275"
       d="m 148.93471,29.948525 c -0.21029,-1.08061 -1.66474,-2.03142 -2.25364,-0.58441 -0.364,0.89439 -0.0843,2.37912 -0.0843,3.33981 v 7.76521 26.71898 h -3.84085 c -0.6683,0 -1.44403,-0.10717 -2.08743,0.10216 -1.13789,0.37032 -1.0414,2.02721 0.16701,2.21783 1.11577,0.17593 2.37699,0.0175 3.50686,0.0175 h 7.09724 c 0.97333,0 2.93597,0.37176 3.74859,-0.22568 0.81117,-0.59637 0.41315,-1.83547 -0.49222,-2.04349 -1.76307,-0.40508 -3.95294,-0.0688 -5.76128,-0.0688 v -12.69152 -3.17287 c 0,-0.49355 -0.0877,-1.01937 0.26286,-1.41617 1.97952,-2.24058 5.82176,-3.02984 8.6713,-2.8347 1.45768,0.0998 2.8846,0.46973 4.34184,0.56952 5.97529,0.4092 11.52744,-2.22226 13.82292,-8.00821 0.31049,-0.78263 0.98576,-2.18077 0.26904,-2.90365 -0.66747,-0.6732 -2.13335,-0.18575 -2.98688,-0.18575 -2.06798,0 -4.1048,-0.31443 -6.01177,-1.15741 -1.64462,-0.72703 -3.01947,-1.80867 -4.25506,-3.10092 -0.95393,-0.9977 -1.70259,-2.07006 -2.84217,-2.88663 -3.55229,-2.54544 -7.75802,-1.30022 -11.27208,0.54872 m 24.88206,8.93416 c -0.28592,0.9925 -0.93022,1.95675 -1.5704,2.7554 -0.57902,0.72236 -1.26912,1.36771 -2.01996,1.90746 -4.50632,3.23951 -9.64813,0.93232 -14.61195,1.2729 -1.52941,0.10499 -3.11033,0.53172 -4.50883,1.14994 -0.73194,0.32357 -1.41335,0.85719 -2.17092,1.09698 v -7.18071 -4.92632 c 0,-0.61038 -0.18713,-1.58943 0.0504,-2.15553 0.22675,-0.54041 1.29358,-0.97482 1.78655,-1.24207 1.955,-1.05984 4.32067,-1.7235 6.51275,-1.07457 2.52674,0.74801 3.73495,3.33489 5.67779,4.90595 3.11456,2.51857 6.91062,3.49057 10.85459,3.49057 z"
       id="path2-2"
       inkscape:label="start_white" /></g></svg>
