<?xml version="1.0" encoding="UTF-8" standalone="no"?>
<!DOCTYPE svg PUBLIC "-//W3C//DTD SVG 1.1//EN" "http://www.w3.org/Graphics/SVG/1.1/DTD/svg11.dtd">
<!-- Created with matplotlib (http://matplotlib.org/) -->
<svg height="345.6pt" version="1.1" viewBox="0 0 460.8 345.6" width="460.8pt" xmlns="http://www.w3.org/2000/svg" xmlns:xlink="http://www.w3.org/1999/xlink">
 <defs>
  <style type="text/css">
*{stroke-linecap:butt;stroke-linejoin:round;}
  </style>
 </defs>
 <g id="figure_1">
  <g id="patch_1">
   <path d="M 0 345.6  L 460.8 345.6  L 460.8 0  L 0 0  z " style="fill:#ffffff;"/>
  </g>
  <g id="axes_1">
   <g id="patch_2">
    <path d="M 57.6 307.584  L 414.72 307.584  L 414.72 41.472  L 57.6 41.472  z " style="fill:#ffffff;"/>
   </g>
   <g id="matplotlib.axis_1">
    <g id="xtick_1">
     <g id="line2d_1">
      <defs>
       <path d="M 0 0  L 0 3.5  " id="m63d8451ddd" style="stroke:#000000;stroke-width:0.8;"/>
      </defs>
      <g>
       <use style="stroke:#000000;stroke-width:0.8;" x="73.832727" xlink:href="#m63d8451ddd" y="307.584"/>
      </g>
     </g>
     <g id="text_1">
      <!-- 0 -->
      <defs>
       <path d="M 31.78125 66.40625  Q 24.171875 66.40625 20.328125 58.90625  Q 16.5 51.421875 16.5 36.375  Q 16.5 21.390625 20.328125 13.890625  Q 24.171875 6.390625 31.78125 6.390625  Q 39.453125 6.390625 43.28125 13.890625  Q 47.125 21.390625 47.125 36.375  Q 47.125 51.421875 43.28125 58.90625  Q 39.453125 66.40625 31.78125 66.40625  z M 31.78125 74.21875  Q 44.046875 74.21875 50.515625 64.515625  Q 56.984375 54.828125 56.984375 36.375  Q 56.984375 17.96875 50.515625 8.265625  Q 44.046875 -1.421875 31.78125 -1.421875  Q 19.53125 -1.421875 13.0625 8.265625  Q 6.59375 17.96875 6.59375 36.375  Q 6.59375 54.828125 13.0625 64.515625  Q 19.53125 74.21875 31.78125 74.21875  z " id="DejaVuSans-30"/>
      </defs>
      <g transform="translate(70.651477 322.182437)scale(0.1 -0.1)">
       <use xlink:href="#DejaVuSans-30"/>
      </g>
     </g>
    </g>
    <g id="xtick_2">
     <g id="line2d_2">
      <g>
       <use style="stroke:#000000;stroke-width:0.8;" x="114.618474" xlink:href="#m63d8451ddd" y="307.584"/>
      </g>
     </g>
     <g id="text_2">
      <!-- 25 -->
      <defs>
       <path d="M 19.1875 8.296875  L 53.609375 8.296875  L 53.609375 0  L 7.328125 0  L 7.328125 8.296875  Q 12.9375 14.109375 22.625 23.890625  Q 32.328125 33.6875 34.8125 36.53125  Q 39.546875 41.84375 41.421875 45.53125  Q 43.3125 49.21875 43.3125 52.78125  Q 43.3125 58.59375 39.234375 62.25  Q 35.15625 65.921875 28.609375 65.921875  Q 23.96875 65.921875 18.8125 64.3125  Q 13.671875 62.703125 7.8125 59.421875  L 7.8125 69.390625  Q 13.765625 71.78125 18.9375 73  Q 24.125 74.21875 28.421875 74.21875  Q 39.75 74.21875 46.484375 68.546875  Q 53.21875 62.890625 53.21875 53.421875  Q 53.21875 48.921875 51.53125 44.890625  Q 49.859375 40.875 45.40625 35.40625  Q 44.1875 33.984375 37.640625 27.21875  Q 31.109375 20.453125 19.1875 8.296875  z " id="DejaVuSans-32"/>
       <path d="M 10.796875 72.90625  L 49.515625 72.90625  L 49.515625 64.59375  L 19.828125 64.59375  L 19.828125 46.734375  Q 21.96875 47.46875 24.109375 47.828125  Q 26.265625 48.1875 28.421875 48.1875  Q 40.625 48.1875 47.75 41.5  Q 54.890625 34.8125 54.890625 23.390625  Q 54.890625 11.625 47.5625 5.09375  Q 40.234375 -1.421875 26.90625 -1.421875  Q 22.3125 -1.421875 17.546875 -0.640625  Q 12.796875 0.140625 7.71875 1.703125  L 7.71875 11.625  Q 12.109375 9.234375 16.796875 8.0625  Q 21.484375 6.890625 26.703125 6.890625  Q 35.15625 6.890625 40.078125 11.328125  Q 45.015625 15.765625 45.015625 23.390625  Q 45.015625 31 40.078125 35.4375  Q 35.15625 39.890625 26.703125 39.890625  Q 22.75 39.890625 18.8125 39.015625  Q 14.890625 38.140625 10.796875 36.28125  z " id="DejaVuSans-35"/>
      </defs>
      <g transform="translate(108.255974 322.182437)scale(0.1 -0.1)">
       <use xlink:href="#DejaVuSans-32"/>
       <use x="63.623047" xlink:href="#DejaVuSans-35"/>
      </g>
     </g>
    </g>
    <g id="xtick_3">
     <g id="line2d_3">
      <g>
       <use style="stroke:#000000;stroke-width:0.8;" x="155.404221" xlink:href="#m63d8451ddd" y="307.584"/>
      </g>
     </g>
     <g id="text_3">
      <!-- 50 -->
      <g transform="translate(149.041721 322.182437)scale(0.1 -0.1)">
       <use xlink:href="#DejaVuSans-35"/>
       <use x="63.623047" xlink:href="#DejaVuSans-30"/>
      </g>
     </g>
    </g>
    <g id="xtick_4">
     <g id="line2d_4">
      <g>
       <use style="stroke:#000000;stroke-width:0.8;" x="196.189968" xlink:href="#m63d8451ddd" y="307.584"/>
      </g>
     </g>
     <g id="text_4">
      <!-- 75 -->
      <defs>
       <path d="M 8.203125 72.90625  L 55.078125 72.90625  L 55.078125 68.703125  L 28.609375 0  L 18.3125 0  L 43.21875 64.59375  L 8.203125 64.59375  z " id="DejaVuSans-37"/>
      </defs>
      <g transform="translate(189.827468 322.182437)scale(0.1 -0.1)">
       <use xlink:href="#DejaVuSans-37"/>
       <use x="63.623047" xlink:href="#DejaVuSans-35"/>
      </g>
     </g>
    </g>
    <g id="xtick_5">
     <g id="line2d_5">
      <g>
       <use style="stroke:#000000;stroke-width:0.8;" x="236.975715" xlink:href="#m63d8451ddd" y="307.584"/>
      </g>
     </g>
     <g id="text_5">
      <!-- 100 -->
      <defs>
       <path d="M 12.40625 8.296875  L 28.515625 8.296875  L 28.515625 63.921875  L 10.984375 60.40625  L 10.984375 69.390625  L 28.421875 72.90625  L 38.28125 72.90625  L 38.28125 8.296875  L 54.390625 8.296875  L 54.390625 0  L 12.40625 0  z " id="DejaVuSans-31"/>
      </defs>
      <g transform="translate(227.431965 322.182437)scale(0.1 -0.1)">
       <use xlink:href="#DejaVuSans-31"/>
       <use x="63.623047" xlink:href="#DejaVuSans-30"/>
       <use x="127.246094" xlink:href="#DejaVuSans-30"/>
      </g>
     </g>
    </g>
    <g id="xtick_6">
     <g id="line2d_6">
      <g>
       <use style="stroke:#000000;stroke-width:0.8;" x="277.761462" xlink:href="#m63d8451ddd" y="307.584"/>
      </g>
     </g>
     <g id="text_6">
      <!-- 125 -->
      <g transform="translate(268.217712 322.182437)scale(0.1 -0.1)">
       <use xlink:href="#DejaVuSans-31"/>
       <use x="63.623047" xlink:href="#DejaVuSans-32"/>
       <use x="127.246094" xlink:href="#DejaVuSans-35"/>
      </g>
     </g>
    </g>
    <g id="xtick_7">
     <g id="line2d_7">
      <g>
       <use style="stroke:#000000;stroke-width:0.8;" x="318.547209" xlink:href="#m63d8451ddd" y="307.584"/>
      </g>
     </g>
     <g id="text_7">
      <!-- 150 -->
      <g transform="translate(309.003459 322.182437)scale(0.1 -0.1)">
       <use xlink:href="#DejaVuSans-31"/>
       <use x="63.623047" xlink:href="#DejaVuSans-35"/>
       <use x="127.246094" xlink:href="#DejaVuSans-30"/>
      </g>
     </g>
    </g>
    <g id="xtick_8">
     <g id="line2d_8">
      <g>
       <use style="stroke:#000000;stroke-width:0.8;" x="359.332956" xlink:href="#m63d8451ddd" y="307.584"/>
      </g>
     </g>
     <g id="text_8">
      <!-- 175 -->
      <g transform="translate(349.789206 322.182437)scale(0.1 -0.1)">
       <use xlink:href="#DejaVuSans-31"/>
       <use x="63.623047" xlink:href="#DejaVuSans-37"/>
       <use x="127.246094" xlink:href="#DejaVuSans-35"/>
      </g>
     </g>
    </g>
    <g id="xtick_9">
     <g id="line2d_9">
      <g>
       <use style="stroke:#000000;stroke-width:0.8;" x="400.118703" xlink:href="#m63d8451ddd" y="307.584"/>
      </g>
     </g>
     <g id="text_9">
      <!-- 200 -->
      <g transform="translate(390.574953 322.182437)scale(0.1 -0.1)">
       <use xlink:href="#DejaVuSans-32"/>
       <use x="63.623047" xlink:href="#DejaVuSans-30"/>
       <use x="127.246094" xlink:href="#DejaVuSans-30"/>
      </g>
     </g>
    </g>
    <g id="text_10">
     <!-- Time in [s] -->
     <defs>
      <path d="M -0.296875 72.90625  L 61.375 72.90625  L 61.375 64.59375  L 35.5 64.59375  L 35.5 0  L 25.59375 0  L 25.59375 64.59375  L -0.296875 64.59375  z " id="DejaVuSans-54"/>
      <path d="M 9.421875 54.6875  L 18.40625 54.6875  L 18.40625 0  L 9.421875 0  z M 9.421875 75.984375  L 18.40625 75.984375  L 18.40625 64.59375  L 9.421875 64.59375  z " id="DejaVuSans-69"/>
      <path d="M 52 44.1875  Q 55.375 50.25 60.0625 53.125  Q 64.75 56 71.09375 56  Q 79.640625 56 84.28125 50.015625  Q 88.921875 44.046875 88.921875 33.015625  L 88.921875 0  L 79.890625 0  L 79.890625 32.71875  Q 79.890625 40.578125 77.09375 44.375  Q 74.3125 48.1875 68.609375 48.1875  Q 61.625 48.1875 57.5625 43.546875  Q 53.515625 38.921875 53.515625 30.90625  L 53.515625 0  L 44.484375 0  L 44.484375 32.71875  Q 44.484375 40.625 41.703125 44.40625  Q 38.921875 48.1875 33.109375 48.1875  Q 26.21875 48.1875 22.15625 43.53125  Q 18.109375 38.875 18.109375 30.90625  L 18.109375 0  L 9.078125 0  L 9.078125 54.6875  L 18.109375 54.6875  L 18.109375 46.1875  Q 21.1875 51.21875 25.484375 53.609375  Q 29.78125 56 35.6875 56  Q 41.65625 56 45.828125 52.96875  Q 50 49.953125 52 44.1875  z " id="DejaVuSans-6d"/>
      <path d="M 56.203125 29.59375  L 56.203125 25.203125  L 14.890625 25.203125  Q 15.484375 15.921875 20.484375 11.0625  Q 25.484375 6.203125 34.421875 6.203125  Q 39.59375 6.203125 44.453125 7.46875  Q 49.3125 8.734375 54.109375 11.28125  L 54.109375 2.78125  Q 49.265625 0.734375 44.1875 -0.34375  Q 39.109375 -1.421875 33.890625 -1.421875  Q 20.796875 -1.421875 13.15625 6.1875  Q 5.515625 13.8125 5.515625 26.8125  Q 5.515625 40.234375 12.765625 48.109375  Q 20.015625 56 32.328125 56  Q 43.359375 56 49.78125 48.890625  Q 56.203125 41.796875 56.203125 29.59375  z M 47.21875 32.234375  Q 47.125 39.59375 43.09375 43.984375  Q 39.0625 48.390625 32.421875 48.390625  Q 24.90625 48.390625 20.390625 44.140625  Q 15.875 39.890625 15.1875 32.171875  z " id="DejaVuSans-65"/>
      <path id="DejaVuSans-20"/>
      <path d="M 54.890625 33.015625  L 54.890625 0  L 45.90625 0  L 45.90625 32.71875  Q 45.90625 40.484375 42.875 44.328125  Q 39.84375 48.1875 33.796875 48.1875  Q 26.515625 48.1875 22.3125 43.546875  Q 18.109375 38.921875 18.109375 30.90625  L 18.109375 0  L 9.078125 0  L 9.078125 54.6875  L 18.109375 54.6875  L 18.109375 46.1875  Q 21.34375 51.125 25.703125 53.5625  Q 30.078125 56 35.796875 56  Q 45.21875 56 50.046875 50.171875  Q 54.890625 44.34375 54.890625 33.015625  z " id="DejaVuSans-6e"/>
      <path d="M 8.59375 75.984375  L 29.296875 75.984375  L 29.296875 69  L 17.578125 69  L 17.578125 -6.203125  L 29.296875 -6.203125  L 29.296875 -13.1875  L 8.59375 -13.1875  z " id="DejaVuSans-5b"/>
      <path d="M 44.28125 53.078125  L 44.28125 44.578125  Q 40.484375 46.53125 36.375 47.5  Q 32.28125 48.484375 27.875 48.484375  Q 21.1875 48.484375 17.84375 46.4375  Q 14.5 44.390625 14.5 40.28125  Q 14.5 37.15625 16.890625 35.375  Q 19.28125 33.59375 26.515625 31.984375  L 29.59375 31.296875  Q 39.15625 29.25 43.1875 25.515625  Q 47.21875 21.78125 47.21875 15.09375  Q 47.21875 7.46875 41.1875 3.015625  Q 35.15625 -1.421875 24.609375 -1.421875  Q 20.21875 -1.421875 15.453125 -0.5625  Q 10.6875 0.296875 5.421875 2  L 5.421875 11.28125  Q 10.40625 8.6875 15.234375 7.390625  Q 20.0625 6.109375 24.8125 6.109375  Q 31.15625 6.109375 34.5625 8.28125  Q 37.984375 10.453125 37.984375 14.40625  Q 37.984375 18.0625 35.515625 20.015625  Q 33.0625 21.96875 24.703125 23.78125  L 21.578125 24.515625  Q 13.234375 26.265625 9.515625 29.90625  Q 5.8125 33.546875 5.8125 39.890625  Q 5.8125 47.609375 11.28125 51.796875  Q 16.75 56 26.8125 56  Q 31.78125 56 36.171875 55.265625  Q 40.578125 54.546875 44.28125 53.078125  z " id="DejaVuSans-73"/>
      <path d="M 30.421875 75.984375  L 30.421875 -13.1875  L 9.71875 -13.1875  L 9.71875 -6.203125  L 21.390625 -6.203125  L 21.390625 69  L 9.71875 69  L 9.71875 75.984375  z " id="DejaVuSans-5d"/>
     </defs>
     <g transform="translate(209.530312 335.860562)scale(0.1 -0.1)">
      <use xlink:href="#DejaVuSans-54"/>
      <use x="61.037109" xlink:href="#DejaVuSans-69"/>
      <use x="88.820312" xlink:href="#DejaVuSans-6d"/>
      <use x="186.232422" xlink:href="#DejaVuSans-65"/>
      <use x="247.755859" xlink:href="#DejaVuSans-20"/>
      <use x="279.542969" xlink:href="#DejaVuSans-69"/>
      <use x="307.326172" xlink:href="#DejaVuSans-6e"/>
      <use x="370.705078" xlink:href="#DejaVuSans-20"/>
      <use x="402.492188" xlink:href="#DejaVuSans-5b"/>
      <use x="441.505859" xlink:href="#DejaVuSans-73"/>
      <use x="493.605469" xlink:href="#DejaVuSans-5d"/>
     </g>
    </g>
   </g>
   <g id="matplotlib.axis_2">
    <g id="ytick_1">
     <g id="line2d_10">
      <defs>
       <path d="M 0 0  L -3.5 0  " id="m9462f5d925" style="stroke:#000000;stroke-width:0.8;"/>
      </defs>
      <g>
       <use style="stroke:#000000;stroke-width:0.8;" x="57.6" xlink:href="#m9462f5d925" y="307.584"/>
      </g>
     </g>
     <g id="text_11">
      <!-- 0.00 -->
      <defs>
       <path d="M 10.6875 12.40625  L 21 12.40625  L 21 0  L 10.6875 0  z " id="DejaVuSans-2e"/>
      </defs>
      <g transform="translate(28.334375 311.383219)scale(0.1 -0.1)">
       <use xlink:href="#DejaVuSans-30"/>
       <use x="63.623047" xlink:href="#DejaVuSans-2e"/>
       <use x="95.410156" xlink:href="#DejaVuSans-30"/>
       <use x="159.033203" xlink:href="#DejaVuSans-30"/>
      </g>
     </g>
    </g>
    <g id="ytick_2">
     <g id="line2d_11">
      <g>
       <use style="stroke:#000000;stroke-width:0.8;" x="57.6" xlink:href="#m9462f5d925" y="259.2"/>
      </g>
     </g>
     <g id="text_12">
      <!-- 0.05 -->
      <g transform="translate(28.334375 262.999219)scale(0.1 -0.1)">
       <use xlink:href="#DejaVuSans-30"/>
       <use x="63.623047" xlink:href="#DejaVuSans-2e"/>
       <use x="95.410156" xlink:href="#DejaVuSans-30"/>
       <use x="159.033203" xlink:href="#DejaVuSans-35"/>
      </g>
     </g>
    </g>
    <g id="ytick_3">
     <g id="line2d_12">
      <g>
       <use style="stroke:#000000;stroke-width:0.8;" x="57.6" xlink:href="#m9462f5d925" y="210.816"/>
      </g>
     </g>
     <g id="text_13">
      <!-- 0.10 -->
      <g transform="translate(28.334375 214.615219)scale(0.1 -0.1)">
       <use xlink:href="#DejaVuSans-30"/>
       <use x="63.623047" xlink:href="#DejaVuSans-2e"/>
       <use x="95.410156" xlink:href="#DejaVuSans-31"/>
       <use x="159.033203" xlink:href="#DejaVuSans-30"/>
      </g>
     </g>
    </g>
    <g id="ytick_4">
     <g id="line2d_13">
      <g>
       <use style="stroke:#000000;stroke-width:0.8;" x="57.6" xlink:href="#m9462f5d925" y="162.432"/>
      </g>
     </g>
     <g id="text_14">
      <!-- 0.15 -->
      <g transform="translate(28.334375 166.231219)scale(0.1 -0.1)">
       <use xlink:href="#DejaVuSans-30"/>
       <use x="63.623047" xlink:href="#DejaVuSans-2e"/>
       <use x="95.410156" xlink:href="#DejaVuSans-31"/>
       <use x="159.033203" xlink:href="#DejaVuSans-35"/>
      </g>
     </g>
    </g>
    <g id="ytick_5">
     <g id="line2d_14">
      <g>
       <use style="stroke:#000000;stroke-width:0.8;" x="57.6" xlink:href="#m9462f5d925" y="114.048"/>
      </g>
     </g>
     <g id="text_15">
      <!-- 0.20 -->
      <g transform="translate(28.334375 117.847219)scale(0.1 -0.1)">
       <use xlink:href="#DejaVuSans-30"/>
       <use x="63.623047" xlink:href="#DejaVuSans-2e"/>
       <use x="95.410156" xlink:href="#DejaVuSans-32"/>
       <use x="159.033203" xlink:href="#DejaVuSans-30"/>
      </g>
     </g>
    </g>
    <g id="ytick_6">
     <g id="line2d_15">
      <g>
       <use style="stroke:#000000;stroke-width:0.8;" x="57.6" xlink:href="#m9462f5d925" y="65.664"/>
      </g>
     </g>
     <g id="text_16">
      <!-- 0.25 -->
      <g transform="translate(28.334375 69.463219)scale(0.1 -0.1)">
       <use xlink:href="#DejaVuSans-30"/>
       <use x="63.623047" xlink:href="#DejaVuSans-2e"/>
       <use x="95.410156" xlink:href="#DejaVuSans-32"/>
       <use x="159.033203" xlink:href="#DejaVuSans-35"/>
      </g>
     </g>
    </g>
    <g id="text_17">
     <!-- Ca concentration -->
     <defs>
      <path d="M 64.40625 67.28125  L 64.40625 56.890625  Q 59.421875 61.53125 53.78125 63.8125  Q 48.140625 66.109375 41.796875 66.109375  Q 29.296875 66.109375 22.65625 58.46875  Q 16.015625 50.828125 16.015625 36.375  Q 16.015625 21.96875 22.65625 14.328125  Q 29.296875 6.6875 41.796875 6.6875  Q 48.140625 6.6875 53.78125 8.984375  Q 59.421875 11.28125 64.40625 15.921875  L 64.40625 5.609375  Q 59.234375 2.09375 53.4375 0.328125  Q 47.65625 -1.421875 41.21875 -1.421875  Q 24.65625 -1.421875 15.125 8.703125  Q 5.609375 18.84375 5.609375 36.375  Q 5.609375 53.953125 15.125 64.078125  Q 24.65625 74.21875 41.21875 74.21875  Q 47.75 74.21875 53.53125 72.484375  Q 59.328125 70.75 64.40625 67.28125  z " id="DejaVuSans-43"/>
      <path d="M 34.28125 27.484375  Q 23.390625 27.484375 19.1875 25  Q 14.984375 22.515625 14.984375 16.5  Q 14.984375 11.71875 18.140625 8.90625  Q 21.296875 6.109375 26.703125 6.109375  Q 34.1875 6.109375 38.703125 11.40625  Q 43.21875 16.703125 43.21875 25.484375  L 43.21875 27.484375  z M 52.203125 31.203125  L 52.203125 0  L 43.21875 0  L 43.21875 8.296875  Q 40.140625 3.328125 35.546875 0.953125  Q 30.953125 -1.421875 24.3125 -1.421875  Q 15.921875 -1.421875 10.953125 3.296875  Q 6 8.015625 6 15.921875  Q 6 25.140625 12.171875 29.828125  Q 18.359375 34.515625 30.609375 34.515625  L 43.21875 34.515625  L 43.21875 35.40625  Q 43.21875 41.609375 39.140625 45  Q 35.0625 48.390625 27.6875 48.390625  Q 23 48.390625 18.546875 47.265625  Q 14.109375 46.140625 10.015625 43.890625  L 10.015625 52.203125  Q 14.9375 54.109375 19.578125 55.046875  Q 24.21875 56 28.609375 56  Q 40.484375 56 46.34375 49.84375  Q 52.203125 43.703125 52.203125 31.203125  z " id="DejaVuSans-61"/>
      <path d="M 48.78125 52.59375  L 48.78125 44.1875  Q 44.96875 46.296875 41.140625 47.34375  Q 37.3125 48.390625 33.40625 48.390625  Q 24.65625 48.390625 19.8125 42.84375  Q 14.984375 37.3125 14.984375 27.296875  Q 14.984375 17.28125 19.8125 11.734375  Q 24.65625 6.203125 33.40625 6.203125  Q 37.3125 6.203125 41.140625 7.25  Q 44.96875 8.296875 48.78125 10.40625  L 48.78125 2.09375  Q 45.015625 0.34375 40.984375 -0.53125  Q 36.96875 -1.421875 32.421875 -1.421875  Q 20.0625 -1.421875 12.78125 6.34375  Q 5.515625 14.109375 5.515625 27.296875  Q 5.515625 40.671875 12.859375 48.328125  Q 20.21875 56 33.015625 56  Q 37.15625 56 41.109375 55.140625  Q 45.0625 54.296875 48.78125 52.59375  z " id="DejaVuSans-63"/>
      <path d="M 30.609375 48.390625  Q 23.390625 48.390625 19.1875 42.75  Q 14.984375 37.109375 14.984375 27.296875  Q 14.984375 17.484375 19.15625 11.84375  Q 23.34375 6.203125 30.609375 6.203125  Q 37.796875 6.203125 41.984375 11.859375  Q 46.1875 17.53125 46.1875 27.296875  Q 46.1875 37.015625 41.984375 42.703125  Q 37.796875 48.390625 30.609375 48.390625  z M 30.609375 56  Q 42.328125 56 49.015625 48.375  Q 55.71875 40.765625 55.71875 27.296875  Q 55.71875 13.875 49.015625 6.21875  Q 42.328125 -1.421875 30.609375 -1.421875  Q 18.84375 -1.421875 12.171875 6.21875  Q 5.515625 13.875 5.515625 27.296875  Q 5.515625 40.765625 12.171875 48.375  Q 18.84375 56 30.609375 56  z " id="DejaVuSans-6f"/>
      <path d="M 18.3125 70.21875  L 18.3125 54.6875  L 36.8125 54.6875  L 36.8125 47.703125  L 18.3125 47.703125  L 18.3125 18.015625  Q 18.3125 11.328125 20.140625 9.421875  Q 21.96875 7.515625 27.59375 7.515625  L 36.8125 7.515625  L 36.8125 0  L 27.59375 0  Q 17.1875 0 13.234375 3.875  Q 9.28125 7.765625 9.28125 18.015625  L 9.28125 47.703125  L 2.6875 47.703125  L 2.6875 54.6875  L 9.28125 54.6875  L 9.28125 70.21875  z " id="DejaVuSans-74"/>
      <path d="M 41.109375 46.296875  Q 39.59375 47.171875 37.8125 47.578125  Q 36.03125 48 33.890625 48  Q 26.265625 48 22.1875 43.046875  Q 18.109375 38.09375 18.109375 28.8125  L 18.109375 0  L 9.078125 0  L 9.078125 54.6875  L 18.109375 54.6875  L 18.109375 46.1875  Q 20.953125 51.171875 25.484375 53.578125  Q 30.03125 56 36.53125 56  Q 37.453125 56 38.578125 55.875  Q 39.703125 55.765625 41.0625 55.515625  z " id="DejaVuSans-72"/>
     </defs>
     <g transform="translate(22.254687 217.301437)rotate(-90)scale(0.1 -0.1)">
      <use xlink:href="#DejaVuSans-43"/>
      <use x="69.824219" xlink:href="#DejaVuSans-61"/>
      <use x="131.103516" xlink:href="#DejaVuSans-20"/>
      <use x="162.890625" xlink:href="#DejaVuSans-63"/>
      <use x="217.871094" xlink:href="#DejaVuSans-6f"/>
      <use x="279.052734" xlink:href="#DejaVuSans-6e"/>
      <use x="342.431641" xlink:href="#DejaVuSans-63"/>
      <use x="397.412109" xlink:href="#DejaVuSans-65"/>
      <use x="458.935547" xlink:href="#DejaVuSans-6e"/>
      <use x="522.314453" xlink:href="#DejaVuSans-74"/>
      <use x="561.523438" xlink:href="#DejaVuSans-72"/>
      <use x="602.636719" xlink:href="#DejaVuSans-61"/>
      <use x="663.916016" xlink:href="#DejaVuSans-74"/>
      <use x="703.125" xlink:href="#DejaVuSans-69"/>
      <use x="730.908203" xlink:href="#DejaVuSans-6f"/>
      <use x="792.089844" xlink:href="#DejaVuSans-6e"/>
     </g>
    </g>
   </g>
   <g id="line2d_16">
    <path clip-path="url(#p153d8c3b2a)" d="M 57.6 259.2  L 414.72 259.2  " style="fill:none;stroke:#9999ff;stroke-linecap:square;stroke-width:4;"/>
   </g>
   <g id="line2d_17">
    <path clip-path="url(#p153d8c3b2a)" d="M 73.832727 304.118321  L 75.464157 300.853934  L 78.727017 295.245308  L 80.358447 292.836844  L 83.621307 288.711835  L 85.252736 286.902663  L 88.515596 283.880698  L 91.778456 281.30207  L 93.409886 279.819128  L 95.041316 275.450612  L 96.672746 268.579768  L 98.304175 262.571612  L 99.935605 258.023783  L 101.567035 255.578678  L 103.198465 254.360685  L 104.829895 253.764474  L 106.461325 253.699371  L 108.092755 253.931571  L 111.355614 255.636784  L 112.987044 256.53819  L 117.881334 258.814604  L 121.144194 260.148959  L 124.407053 261.510008  L 129.301343 263.062178  L 134.195633 264.735461  L 139.089922 265.784157  L 143.984212 266.710036  L 150.509931 267.360651  L 152.141361 267.455825  L 155.404221 267.335722  L 157.035651 267.154192  L 165.1928 267.201087  L 166.82423 267.31362  L 170.08709 267.211874  L 174.98138 266.998762  L 179.875669 266.451446  L 188.032819 265.248232  L 191.295678 264.408114  L 192.927108 264.13266  L 194.558538 264.024374  L 196.189968 263.739794  L 199.452828 263.363549  L 202.715688 262.790219  L 204.347117 262.316818  L 207.609977 261.793316  L 212.504267 260.336389  L 222.292846 257.416642  L 227.187136 256.944479  L 228.818566 256.985533  L 232.081425 257.337378  L 233.712855 257.493226  L 235.344285 257.455867  L 236.975715 257.592029  L 238.607145 257.586773  L 240.238575 257.852061  L 241.870005 257.791841  L 243.501434 257.853847  L 248.395724 258.588197  L 254.921444 258.940625  L 256.552873 259.212182  L 259.815733 258.929933  L 263.078593 259.241366  L 269.604312 259.721246  L 272.867172 259.777483  L 274.498602 260.075937  L 289.181471 260.667252  L 290.812901 260.432141  L 294.075761 260.160537  L 295.70719 259.714682  L 298.97005 259.049629  L 300.60148 258.419278  L 302.23291 258.364451  L 305.49577 257.943284  L 307.1272 258.119439  L 310.390059 257.772241  L 328.335788 259.316947  L 333.230078 259.105459  L 336.492937 258.781456  L 344.650087 259.263944  L 346.281517 259.570262  L 352.807236 259.793416  L 354.438666 259.929257  L 357.701526 260.313932  L 362.595815 260.483673  L 367.490105 260.02131  L 369.121535 259.832311  L 372.384395 259.706197  L 377.278684 258.825909  L 378.910114 258.419569  L 382.172974 258.382015  L 383.804404 258.447192  L 388.698693 258.071883  L 390.330123 258.193994  L 391.961553 258.040452  L 393.592983 258.204755  L 395.224413 258.113475  L 396.855843 258.208663  L 398.487273 258.525632  L 398.487273 258.525632  " style="fill:none;stroke:#0000ff;stroke-linecap:square;stroke-width:2;"/>
   </g>
   <g id="line2d_18">
    <path clip-path="url(#p153d8c3b2a)" d="M 57.6 114.048  L 414.72 114.048  " style="fill:none;stroke:#ff9999;stroke-linecap:square;stroke-width:4;"/>
   </g>
   <g id="line2d_19">
    <path clip-path="url(#p153d8c3b2a)" d="M 73.832727 304.082417  L 77.095587 298.07104  L 80.358447 292.752965  L 81.989877 290.609961  L 85.252736 286.986384  L 88.515596 283.678931  L 90.147026 282.415887  L 91.778456 281.361657  L 93.409886 278.592358  L 95.041316 271.62328  L 96.672746 262.182905  L 98.304175 253.644659  L 99.935605 246.047025  L 101.567035 239.807592  L 103.198465 234.922721  L 104.829895 231.217449  L 106.461325 228.26469  L 108.092755 226.56119  L 109.724185 225.596199  L 114.618474 225.266776  L 116.249904 224.470966  L 117.881334 223.894376  L 119.512764 222.844201  L 121.144194 221.646367  L 122.775624 221.100961  L 126.038483 220.368313  L 130.932773 220.024283  L 132.564203 219.329119  L 134.195633 218.804278  L 137.458492 216.541483  L 139.089922 215.059463  L 142.352782 211.741469  L 143.984212 210.148292  L 150.509931 202.635369  L 152.141361 200.26652  L 153.772791 197.635077  L 157.035651 191.610497  L 158.667081 189.260427  L 161.929941 183.85877  L 163.56137 181.198019  L 165.1928 179.221827  L 166.82423 176.982576  L 168.45566 174.233201  L 174.98138 165.097919  L 176.61281 162.597863  L 178.244239 159.853971  L 179.875669 157.515018  L 181.507099 154.966412  L 184.769959 149.490576  L 188.032819 145.26656  L 189.664249 142.451311  L 192.927108 137.732398  L 194.558538 135.908095  L 196.189968 133.900561  L 197.821398 132.275245  L 199.452828 129.926723  L 202.715688 126.219771  L 204.347117 123.820063  L 207.609977 119.894034  L 217.398556 105.510911  L 220.661416 102.49024  L 222.292846 101.613332  L 223.924276 101.450139  L 227.187136 101.90978  L 228.818566 102.332111  L 230.449995 103.308812  L 232.081425 104.106791  L 233.712855 104.683905  L 235.344285 104.72877  L 236.975715 105.370606  L 238.607145 105.817699  L 240.238575 107.051  L 241.870005 107.412266  L 243.501434 108.084659  L 245.132864 109.023694  L 246.764294 110.108808  L 248.395724 111.641533  L 250.027154 112.181087  L 251.658584 113.284119  L 253.290014 113.525509  L 254.921444 114.143339  L 256.552873 115.393596  L 258.184303 115.388406  L 259.815733 115.494859  L 261.447163 116.358013  L 263.078593 116.908324  L 264.710023 117.772226  L 267.972883 118.497863  L 271.235742 119.04487  L 272.867172 119.301106  L 274.498602 119.790083  L 277.761462 119.434405  L 279.392892 119.085778  L 281.024322 119.019355  L 282.655751 118.727309  L 284.287181 118.588174  L 285.918611 117.908483  L 287.550041 117.718861  L 289.181471 117.043296  L 290.812901 116.004094  L 294.075761 114.977213  L 295.70719 113.753436  L 297.33862 112.976062  L 298.97005 111.747674  L 300.60148 109.838295  L 302.23291 109.576718  L 303.86434 108.742186  L 305.49577 108.160632  L 307.1272 108.766781  L 308.75863 107.994583  L 310.390059 107.858216  L 312.021489 108.55169  L 315.284349 110.305531  L 316.915779 110.788101  L 318.547209 111.020131  L 320.178639 111.819634  L 321.810069 111.863515  L 325.072928 112.859697  L 326.704358 112.678214  L 328.335788 113.869106  L 331.598648 113.625571  L 334.861508 114.146882  L 336.492937 113.838345  L 338.124367 114.285471  L 339.755797 114.459429  L 343.018657 115.313664  L 346.281517 117.007986  L 347.912947 117.400425  L 352.807236 118.238463  L 356.070096 119.359979  L 359.332956 118.912522  L 362.595815 117.889533  L 364.227245 117.129361  L 365.858675 116.735008  L 367.490105 115.959005  L 369.121535 115.439661  L 372.384395 114.88158  L 374.015825 113.756937  L 377.278684 112.249119  L 378.910114 111.073665  L 382.172974 110.828407  L 383.804404 110.940112  L 385.435834 110.599766  L 387.067264 110.826805  L 388.698693 110.688653  L 390.330123 111.022993  L 391.961553 110.743769  L 393.592983 111.412842  L 395.224413 111.289511  L 396.855843 111.536084  L 398.487273 112.112421  L 398.487273 112.112421  " style="fill:none;stroke:#ff0000;stroke-linecap:square;stroke-width:2;"/>
   </g>
   <g id="patch_3">
    <path d="M 57.6 307.584  L 57.6 41.472  " style="fill:none;stroke:#000000;stroke-linecap:square;stroke-linejoin:miter;stroke-width:0.8;"/>
   </g>
   <g id="patch_4">
    <path d="M 414.72 307.584  L 414.72 41.472  " style="fill:none;stroke:#000000;stroke-linecap:square;stroke-linejoin:miter;stroke-width:0.8;"/>
   </g>
   <g id="patch_5">
    <path d="M 57.6 307.584  L 414.72 307.584  " style="fill:none;stroke:#000000;stroke-linecap:square;stroke-linejoin:miter;stroke-width:0.8;"/>
   </g>
   <g id="patch_6">
    <path d="M 57.6 41.472  L 414.72 41.472  " style="fill:none;stroke:#000000;stroke-linecap:square;stroke-linejoin:miter;stroke-width:0.8;"/>
   </g>
   <g id="legend_1">
    <g id="patch_7">
     <path d="M 189.9575 78.82825  L 407.72 78.82825  Q 409.72 78.82825 409.72 76.82825  L 409.72 48.472  Q 409.72 46.472 407.72 46.472  L 189.9575 46.472  Q 187.9575 46.472 187.9575 48.472  L 187.9575 76.82825  Q 187.9575 78.82825 189.9575 78.82825  z " style="fill:#ffffff;opacity:0.8;stroke:#cccccc;stroke-linejoin:miter;"/>
    </g>
    <g id="line2d_20">
     <path d="M 191.9575 54.570437  L 211.9575 54.570437  " style="fill:none;stroke:#0000ff;stroke-linecap:square;stroke-width:2;"/>
    </g>
    <g id="line2d_21"/>
    <g id="text_18">
     <!-- Ca Concentration Excitatory Neurons -->
     <defs>
      <path d="M 9.8125 72.90625  L 55.90625 72.90625  L 55.90625 64.59375  L 19.671875 64.59375  L 19.671875 43.015625  L 54.390625 43.015625  L 54.390625 34.71875  L 19.671875 34.71875  L 19.671875 8.296875  L 56.78125 8.296875  L 56.78125 0  L 9.8125 0  z " id="DejaVuSans-45"/>
      <path d="M 54.890625 54.6875  L 35.109375 28.078125  L 55.90625 0  L 45.3125 0  L 29.390625 21.484375  L 13.484375 0  L 2.875 0  L 24.125 28.609375  L 4.6875 54.6875  L 15.28125 54.6875  L 29.78125 35.203125  L 44.28125 54.6875  z " id="DejaVuSans-78"/>
      <path d="M 32.171875 -5.078125  Q 28.375 -14.84375 24.75 -17.8125  Q 21.140625 -20.796875 15.09375 -20.796875  L 7.90625 -20.796875  L 7.90625 -13.28125  L 13.1875 -13.28125  Q 16.890625 -13.28125 18.9375 -11.515625  Q 21 -9.765625 23.484375 -3.21875  L 25.09375 0.875  L 2.984375 54.6875  L 12.5 54.6875  L 29.59375 11.921875  L 46.6875 54.6875  L 56.203125 54.6875  z " id="DejaVuSans-79"/>
      <path d="M 9.8125 72.90625  L 23.09375 72.90625  L 55.421875 11.921875  L 55.421875 72.90625  L 64.984375 72.90625  L 64.984375 0  L 51.703125 0  L 19.390625 60.984375  L 19.390625 0  L 9.8125 0  z " id="DejaVuSans-4e"/>
      <path d="M 8.5 21.578125  L 8.5 54.6875  L 17.484375 54.6875  L 17.484375 21.921875  Q 17.484375 14.15625 20.5 10.265625  Q 23.53125 6.390625 29.59375 6.390625  Q 36.859375 6.390625 41.078125 11.03125  Q 45.3125 15.671875 45.3125 23.6875  L 45.3125 54.6875  L 54.296875 54.6875  L 54.296875 0  L 45.3125 0  L 45.3125 8.40625  Q 42.046875 3.421875 37.71875 1  Q 33.40625 -1.421875 27.6875 -1.421875  Q 18.265625 -1.421875 13.375 4.4375  Q 8.5 10.296875 8.5 21.578125  z M 31.109375 56  z " id="DejaVuSans-75"/>
     </defs>
     <g transform="translate(219.9575 58.070437)scale(0.1 -0.1)">
      <use xlink:href="#DejaVuSans-43"/>
      <use x="69.824219" xlink:href="#DejaVuSans-61"/>
      <use x="131.103516" xlink:href="#DejaVuSans-20"/>
      <use x="162.890625" xlink:href="#DejaVuSans-43"/>
      <use x="232.714844" xlink:href="#DejaVuSans-6f"/>
      <use x="293.896484" xlink:href="#DejaVuSans-6e"/>
      <use x="357.275391" xlink:href="#DejaVuSans-63"/>
      <use x="412.255859" xlink:href="#DejaVuSans-65"/>
      <use x="473.779297" xlink:href="#DejaVuSans-6e"/>
      <use x="537.158203" xlink:href="#DejaVuSans-74"/>
      <use x="576.367188" xlink:href="#DejaVuSans-72"/>
      <use x="617.480469" xlink:href="#DejaVuSans-61"/>
      <use x="678.759766" xlink:href="#DejaVuSans-74"/>
      <use x="717.96875" xlink:href="#DejaVuSans-69"/>
      <use x="745.751953" xlink:href="#DejaVuSans-6f"/>
      <use x="806.933594" xlink:href="#DejaVuSans-6e"/>
      <use x="870.3125" xlink:href="#DejaVuSans-20"/>
      <use x="902.099609" xlink:href="#DejaVuSans-45"/>
      <use x="965.283203" xlink:href="#DejaVuSans-78"/>
      <use x="1024.447266" xlink:href="#DejaVuSans-63"/>
      <use x="1079.427734" xlink:href="#DejaVuSans-69"/>
      <use x="1107.210938" xlink:href="#DejaVuSans-74"/>
      <use x="1146.419922" xlink:href="#DejaVuSans-61"/>
      <use x="1207.699219" xlink:href="#DejaVuSans-74"/>
      <use x="1246.908203" xlink:href="#DejaVuSans-6f"/>
      <use x="1308.089844" xlink:href="#DejaVuSans-72"/>
      <use x="1349.203125" xlink:href="#DejaVuSans-79"/>
      <use x="1408.382812" xlink:href="#DejaVuSans-20"/>
      <use x="1440.169922" xlink:href="#DejaVuSans-4e"/>
      <use x="1514.974609" xlink:href="#DejaVuSans-65"/>
      <use x="1576.498047" xlink:href="#DejaVuSans-75"/>
      <use x="1639.876953" xlink:href="#DejaVuSans-72"/>
      <use x="1680.958984" xlink:href="#DejaVuSans-6f"/>
      <use x="1742.140625" xlink:href="#DejaVuSans-6e"/>
      <use x="1805.519531" xlink:href="#DejaVuSans-73"/>
     </g>
    </g>
    <g id="line2d_22">
     <path d="M 191.9575 69.248562  L 211.9575 69.248562  " style="fill:none;stroke:#ff0000;stroke-linecap:square;stroke-width:2;"/>
    </g>
    <g id="line2d_23"/>
    <g id="text_19">
     <!-- Ca Concentration Inhibitory Neurons -->
     <defs>
      <path d="M 9.8125 72.90625  L 19.671875 72.90625  L 19.671875 0  L 9.8125 0  z " id="DejaVuSans-49"/>
      <path d="M 54.890625 33.015625  L 54.890625 0  L 45.90625 0  L 45.90625 32.71875  Q 45.90625 40.484375 42.875 44.328125  Q 39.84375 48.1875 33.796875 48.1875  Q 26.515625 48.1875 22.3125 43.546875  Q 18.109375 38.921875 18.109375 30.90625  L 18.109375 0  L 9.078125 0  L 9.078125 75.984375  L 18.109375 75.984375  L 18.109375 46.1875  Q 21.34375 51.125 25.703125 53.5625  Q 30.078125 56 35.796875 56  Q 45.21875 56 50.046875 50.171875  Q 54.890625 44.34375 54.890625 33.015625  z " id="DejaVuSans-68"/>
      <path d="M 48.6875 27.296875  Q 48.6875 37.203125 44.609375 42.84375  Q 40.53125 48.484375 33.40625 48.484375  Q 26.265625 48.484375 22.1875 42.84375  Q 18.109375 37.203125 18.109375 27.296875  Q 18.109375 17.390625 22.1875 11.75  Q 26.265625 6.109375 33.40625 6.109375  Q 40.53125 6.109375 44.609375 11.75  Q 48.6875 17.390625 48.6875 27.296875  z M 18.109375 46.390625  Q 20.953125 51.265625 25.265625 53.625  Q 29.59375 56 35.59375 56  Q 45.5625 56 51.78125 48.09375  Q 58.015625 40.1875 58.015625 27.296875  Q 58.015625 14.40625 51.78125 6.484375  Q 45.5625 -1.421875 35.59375 -1.421875  Q 29.59375 -1.421875 25.265625 0.953125  Q 20.953125 3.328125 18.109375 8.203125  L 18.109375 0  L 9.078125 0  L 9.078125 75.984375  L 18.109375 75.984375  z " id="DejaVuSans-62"/>
     </defs>
     <g transform="translate(219.9575 72.748562)scale(0.1 -0.1)">
      <use xlink:href="#DejaVuSans-43"/>
      <use x="69.824219" xlink:href="#DejaVuSans-61"/>
      <use x="131.103516" xlink:href="#DejaVuSans-20"/>
      <use x="162.890625" xlink:href="#DejaVuSans-43"/>
      <use x="232.714844" xlink:href="#DejaVuSans-6f"/>
      <use x="293.896484" xlink:href="#DejaVuSans-6e"/>
      <use x="357.275391" xlink:href="#DejaVuSans-63"/>
      <use x="412.255859" xlink:href="#DejaVuSans-65"/>
      <use x="473.779297" xlink:href="#DejaVuSans-6e"/>
      <use x="537.158203" xlink:href="#DejaVuSans-74"/>
      <use x="576.367188" xlink:href="#DejaVuSans-72"/>
      <use x="617.480469" xlink:href="#DejaVuSans-61"/>
      <use x="678.759766" xlink:href="#DejaVuSans-74"/>
      <use x="717.96875" xlink:href="#DejaVuSans-69"/>
      <use x="745.751953" xlink:href="#DejaVuSans-6f"/>
      <use x="806.933594" xlink:href="#DejaVuSans-6e"/>
      <use x="870.3125" xlink:href="#DejaVuSans-20"/>
      <use x="902.099609" xlink:href="#DejaVuSans-49"/>
      <use x="931.591797" xlink:href="#DejaVuSans-6e"/>
      <use x="994.970703" xlink:href="#DejaVuSans-68"/>
      <use x="1058.349609" xlink:href="#DejaVuSans-69"/>
      <use x="1086.132812" xlink:href="#DejaVuSans-62"/>
      <use x="1149.609375" xlink:href="#DejaVuSans-69"/>
      <use x="1177.392578" xlink:href="#DejaVuSans-74"/>
      <use x="1216.601562" xlink:href="#DejaVuSans-6f"/>
      <use x="1277.783203" xlink:href="#DejaVuSans-72"/>
      <use x="1318.896484" xlink:href="#DejaVuSans-79"/>
      <use x="1378.076172" xlink:href="#DejaVuSans-20"/>
      <use x="1409.863281" xlink:href="#DejaVuSans-4e"/>
      <use x="1484.667969" xlink:href="#DejaVuSans-65"/>
      <use x="1546.191406" xlink:href="#DejaVuSans-75"/>
      <use x="1609.570312" xlink:href="#DejaVuSans-72"/>
      <use x="1650.652344" xlink:href="#DejaVuSans-6f"/>
      <use x="1711.833984" xlink:href="#DejaVuSans-6e"/>
      <use x="1775.212891" xlink:href="#DejaVuSans-73"/>
     </g>
    </g>
   </g>
  </g>
  <g id="axes_2">
   <g id="matplotlib.axis_3">
    <g id="ytick_7">
     <g id="line2d_24">
      <defs>
       <path d="M 0 0  L 3.5 0  " id="mc7559ecbc0" style="stroke:#000000;stroke-width:0.8;"/>
      </defs>
      <g>
       <use style="stroke:#000000;stroke-width:0.8;" x="414.72" xlink:href="#mc7559ecbc0" y="307.584"/>
      </g>
     </g>
     <g id="text_20">
      <!-- 0 -->
      <g transform="translate(421.72 311.383219)scale(0.1 -0.1)">
       <use xlink:href="#DejaVuSans-30"/>
      </g>
     </g>
    </g>
    <g id="ytick_8">
     <g id="line2d_25">
      <g>
       <use style="stroke:#000000;stroke-width:0.8;" x="414.72" xlink:href="#mc7559ecbc0" y="254.3616"/>
      </g>
     </g>
     <g id="text_21">
      <!-- 500 -->
      <g transform="translate(421.72 258.160819)scale(0.1 -0.1)">
       <use xlink:href="#DejaVuSans-35"/>
       <use x="63.623047" xlink:href="#DejaVuSans-30"/>
       <use x="127.246094" xlink:href="#DejaVuSans-30"/>
      </g>
     </g>
    </g>
    <g id="ytick_9">
     <g id="line2d_26">
      <g>
       <use style="stroke:#000000;stroke-width:0.8;" x="414.72" xlink:href="#mc7559ecbc0" y="201.1392"/>
      </g>
     </g>
     <g id="text_22">
      <!-- 1000 -->
      <g transform="translate(421.72 204.938419)scale(0.1 -0.1)">
       <use xlink:href="#DejaVuSans-31"/>
       <use x="63.623047" xlink:href="#DejaVuSans-30"/>
       <use x="127.246094" xlink:href="#DejaVuSans-30"/>
       <use x="190.869141" xlink:href="#DejaVuSans-30"/>
      </g>
     </g>
    </g>
    <g id="ytick_10">
     <g id="line2d_27">
      <g>
       <use style="stroke:#000000;stroke-width:0.8;" x="414.72" xlink:href="#mc7559ecbc0" y="147.9168"/>
      </g>
     </g>
     <g id="text_23">
      <!-- 1500 -->
      <g transform="translate(421.72 151.716019)scale(0.1 -0.1)">
       <use xlink:href="#DejaVuSans-31"/>
       <use x="63.623047" xlink:href="#DejaVuSans-35"/>
       <use x="127.246094" xlink:href="#DejaVuSans-30"/>
       <use x="190.869141" xlink:href="#DejaVuSans-30"/>
      </g>
     </g>
    </g>
    <g id="ytick_11">
     <g id="line2d_28">
      <g>
       <use style="stroke:#000000;stroke-width:0.8;" x="414.72" xlink:href="#mc7559ecbc0" y="94.6944"/>
      </g>
     </g>
     <g id="text_24">
      <!-- 2000 -->
      <g transform="translate(421.72 98.493619)scale(0.1 -0.1)">
       <use xlink:href="#DejaVuSans-32"/>
       <use x="63.623047" xlink:href="#DejaVuSans-30"/>
       <use x="127.246094" xlink:href="#DejaVuSans-30"/>
       <use x="190.869141" xlink:href="#DejaVuSans-30"/>
      </g>
     </g>
    </g>
    <g id="ytick_12">
     <g id="line2d_29">
      <g>
       <use style="stroke:#000000;stroke-width:0.8;" x="414.72" xlink:href="#mc7559ecbc0" y="41.472"/>
      </g>
     </g>
     <g id="text_25">
      <!-- 2500 -->
      <g transform="translate(421.72 45.271219)scale(0.1 -0.1)">
       <use xlink:href="#DejaVuSans-32"/>
       <use x="63.623047" xlink:href="#DejaVuSans-35"/>
       <use x="127.246094" xlink:href="#DejaVuSans-30"/>
       <use x="190.869141" xlink:href="#DejaVuSans-30"/>
      </g>
     </g>
    </g>
    <g id="text_26">
     <!-- Connections -->
     <g transform="translate(458.768438 205.424094)rotate(-90)scale(0.1 -0.1)">
      <use xlink:href="#DejaVuSans-43"/>
      <use x="69.824219" xlink:href="#DejaVuSans-6f"/>
      <use x="131.005859" xlink:href="#DejaVuSans-6e"/>
      <use x="194.384766" xlink:href="#DejaVuSans-6e"/>
      <use x="257.763672" xlink:href="#DejaVuSans-65"/>
      <use x="319.287109" xlink:href="#DejaVuSans-63"/>
      <use x="374.267578" xlink:href="#DejaVuSans-74"/>
      <use x="413.476562" xlink:href="#DejaVuSans-69"/>
      <use x="441.259766" xlink:href="#DejaVuSans-6f"/>
      <use x="502.441406" xlink:href="#DejaVuSans-6e"/>
      <use x="565.820312" xlink:href="#DejaVuSans-73"/>
     </g>
    </g>
   </g>
   <g id="line2d_30">
    <path clip-path="url(#p153d8c3b2a)" d="M 73.832727 307.584  L 90.147026 307.584  L 91.778456 307.158221  L 93.409886 282.995251  L 95.041316 238.60777  L 96.672746 225.940838  L 98.304175 228.814848  L 99.935605 236.053094  L 101.567035 244.142899  L 103.198465 250.742477  L 104.829895 256.064717  L 106.461325 262.13207  L 109.724185 268.412314  L 111.355614 270.434765  L 112.987044 267.6672  L 114.618474 265.857638  L 116.249904 264.686746  L 117.881334 265.325414  L 119.512764 264.899635  L 121.144194 265.112525  L 122.775624 264.79319  L 126.038483 263.302963  L 127.669913 263.302963  L 130.932773 258.300058  L 132.564203 255.000269  L 134.195633 252.126259  L 135.827063 249.571584  L 139.089922 242.972006  L 140.721352 240.523776  L 142.352782 236.585318  L 143.984212 233.604864  L 147.247072 224.450611  L 150.509931 216.786586  L 153.772791 207.845222  L 158.667081 196.774963  L 160.298511 194.007398  L 161.929941 190.49472  L 163.56137 187.301376  L 165.1928 184.95959  L 166.82423 181.127578  L 168.45566 177.934234  L 170.08709 176.124672  L 171.71852 172.505549  L 173.34995 169.20576  L 174.98138 164.735078  L 176.61281 161.541734  L 178.244239 159.199949  L 179.875669 157.071053  L 183.138529 150.258586  L 184.769959 148.023245  L 186.401389 145.25568  L 188.032819 143.020339  L 189.664249 139.93344  L 191.295678 138.123878  L 192.927108 134.185421  L 194.558538 131.843635  L 197.821398 128.330957  L 199.452828 127.372954  L 202.715688 123.221606  L 204.347117 122.263603  L 205.978547 120.560486  L 209.241407 118.85737  L 210.872837 119.176704  L 212.504267 117.899366  L 214.135697 117.154253  L 215.767127 116.941363  L 217.398556 116.941363  L 219.029986 116.19625  L 220.661416 117.473587  L 222.292846 119.176704  L 223.924276 121.412045  L 225.555706 125.031168  L 227.187136 127.905178  L 228.818566 129.395405  L 230.449995 132.588749  L 232.081425 133.120973  L 233.712855 135.143424  L 235.344285 135.782093  L 236.975715 136.952986  L 238.607145 137.378765  L 240.238575 140.252774  L 241.870005 142.38167  L 243.501434 143.126784  L 245.132864 143.020339  L 246.764294 143.552563  L 248.395724 143.233229  L 250.027154 143.339674  L 251.658584 142.701005  L 253.290014 141.849446  L 254.921444 142.275226  L 258.184303 142.275226  L 259.815733 143.339674  L 261.447163 143.126784  L 263.078593 143.765453  L 264.710023 142.488115  L 266.341453 142.38167  L 267.972883 141.955891  L 271.235742 139.826995  L 272.867172 139.401216  L 274.498602 139.826995  L 277.761462 138.762547  L 281.024322 135.782093  L 282.655751 135.462758  L 284.287181 134.82409  L 285.918611 134.504755  L 287.550041 132.16297  L 289.181471 130.885632  L 290.812901 131.73719  L 294.075761 130.353408  L 295.70719 129.28896  L 297.33862 129.395405  L 298.97005 130.459853  L 300.60148 130.034074  L 302.23291 130.672742  L 303.86434 130.672742  L 305.49577 131.843635  L 307.1272 132.269414  L 308.75863 133.440307  L 310.390059 134.930534  L 312.021489 137.05943  L 313.652919 138.336768  L 315.284349 138.017434  L 316.915779 138.762547  L 318.547209 138.549658  L 320.178639 139.72055  L 321.810069 139.72055  L 323.441498 140.14633  L 325.072928 141.210778  L 326.704358 141.423667  L 328.335788 140.997888  L 329.967218 140.039885  L 331.598648 140.678554  L 333.230078 140.678554  L 334.861508 140.252774  L 336.492937 140.891443  L 338.124367 139.826995  L 339.755797 139.507661  L 341.387227 138.549658  L 343.018657 139.188326  L 344.650087 140.465664  L 346.281517 139.93344  L 347.912947 140.572109  L 352.807236 139.826995  L 354.438666 139.507661  L 356.070096 138.868992  L 357.701526 138.017434  L 359.332956 136.633651  L 360.964386 134.6112  L 362.595815 134.078976  L 364.227245 132.801638  L 367.490105 132.375859  L 369.121535 131.311411  L 370.752965 130.992077  L 372.384395 130.992077  L 374.015825 130.246963  L 375.647254 130.566298  L 377.278684 130.034074  L 378.910114 130.779187  L 380.541544 130.672742  L 382.172974 131.843635  L 383.804404 132.375859  L 385.435834 132.588749  L 387.067264 133.014528  L 388.698693 132.588749  L 390.330123 132.695194  L 391.961553 133.759642  L 393.592983 135.462758  L 395.224413 135.249869  L 396.855843 137.165875  L 398.487273 136.633651  L 398.487273 136.633651  " style="fill:none;stroke:#bf00bf;stroke-dasharray:7.4,3.2;stroke-dashoffset:0;stroke-width:2;"/>
   </g>
   <g id="line2d_31">
    <path clip-path="url(#p153d8c3b2a)" d="M 73.832727 307.584  L 103.198465 307.584  L 104.829895 307.264666  L 106.461325 304.284211  L 108.092755 295.768627  L 109.724185 290.872166  L 111.355614 288.849715  L 112.987044 287.040154  L 117.881334 286.50793  L 119.512764 286.50793  L 121.144194 286.188595  L 122.775624 284.911258  L 124.407053 279.695462  L 126.038483 274.053888  L 127.669913 270.11543  L 130.932773 267.241421  L 132.564203 266.389862  L 134.195633 265.751194  L 135.827063 265.325414  L 137.458492 265.325414  L 139.089922 264.686746  L 140.721352 262.238515  L 142.352782 258.087168  L 143.984212 254.3616  L 145.615642 250.955366  L 147.247072 249.465139  L 148.878502 248.187802  L 150.509931 247.655578  L 153.772791 245.846016  L 155.404221 245.526682  L 157.035651 244.355789  L 158.667081 242.120448  L 160.298511 238.075546  L 161.929941 234.882202  L 166.82423 230.62441  L 168.45566 229.879296  L 171.71852 227.96329  L 173.34995 227.643955  L 174.98138 226.898842  L 176.61281 225.195725  L 178.244239 222.853939  L 179.875669 221.150822  L 183.138529 218.809037  L 184.769959 217.957478  L 186.401389 217.425254  L 188.032819 216.467251  L 189.664249 216.254362  L 191.295678 215.402803  L 194.558538 214.4448  L 196.189968 213.167462  L 197.821398 213.061018  L 199.452828 212.741683  L 201.084258 212.209459  L 204.347117 212.635238  L 205.978547 211.78368  L 207.609977 211.464346  L 209.241407 211.464346  L 210.872837 211.145011  L 212.504267 211.357901  L 214.135697 211.357901  L 215.767127 211.78368  L 217.398556 211.99657  L 219.029986 211.890125  L 220.661416 212.103014  L 223.924276 213.061018  L 227.187136 213.273907  L 228.818566 213.806131  L 233.712855 214.551245  L 238.607145 215.402803  L 243.501434 216.147917  L 245.132864 216.573696  L 246.764294 216.467251  L 250.027154 217.212365  L 251.658584 217.10592  L 256.552873 217.531699  L 258.184303 217.744589  L 259.815733 218.170368  L 261.447163 218.063923  L 263.078593 217.638144  L 264.710023 216.89303  L 269.604312 216.786586  L 271.235742 216.467251  L 274.498602 216.467251  L 276.130032 216.147917  L 279.392892 216.041472  L 282.655751 215.615693  L 285.918611 215.722138  L 292.444331 214.870579  L 295.70719 214.870579  L 298.97005 215.402803  L 300.60148 215.083469  L 302.23291 215.083469  L 303.86434 215.402803  L 308.75863 215.615693  L 310.390059 216.254362  L 318.547209 217.212365  L 321.810069 217.31881  L 333.230078 218.063923  L 334.861508 217.638144  L 338.124367 217.531699  L 339.755797 217.744589  L 341.387227 217.638144  L 344.650087 217.744589  L 347.912947 217.31881  L 349.544376 217.425254  L 351.175806 216.999475  L 352.807236 216.999475  L 357.701526 216.147917  L 359.332956 216.147917  L 362.595815 215.722138  L 364.227245 215.722138  L 365.858675 215.189914  L 367.490105 215.296358  L 369.121535 215.083469  L 375.647254 215.189914  L 377.278684 214.870579  L 378.910114 215.083469  L 382.172974 215.189914  L 383.804404 215.402803  L 385.435834 215.189914  L 387.067264 215.509248  L 388.698693 215.615693  L 391.961553 216.147917  L 393.592983 216.254362  L 395.224413 216.786586  L 396.855843 216.999475  L 398.487273 216.89303  L 398.487273 216.89303  " style="fill:none;stroke:#000000;stroke-dasharray:7.4,3.2;stroke-dashoffset:0;stroke-width:2;"/>
   </g>
   <g id="patch_8">
    <path d="M 57.6 307.584  L 57.6 41.472  " style="fill:none;stroke:#000000;stroke-linecap:square;stroke-linejoin:miter;stroke-width:0.8;"/>
   </g>
   <g id="patch_9">
    <path d="M 414.72 307.584  L 414.72 41.472  " style="fill:none;stroke:#000000;stroke-linecap:square;stroke-linejoin:miter;stroke-width:0.8;"/>
   </g>
   <g id="patch_10">
    <path d="M 57.6 307.584  L 414.72 307.584  " style="fill:none;stroke:#000000;stroke-linecap:square;stroke-linejoin:miter;stroke-width:0.8;"/>
   </g>
   <g id="patch_11">
    <path d="M 57.6 41.472  L 414.72 41.472  " style="fill:none;stroke:#000000;stroke-linecap:square;stroke-linejoin:miter;stroke-width:0.8;"/>
   </g>
   <g id="legend_2">
    <g id="patch_12">
     <path d="M 261.604375 302.584  L 407.72 302.584  Q 409.72 302.584 409.72 300.584  L 409.72 272.22775  Q 409.72 270.22775 407.72 270.22775  L 261.604375 270.22775  Q 259.604375 270.22775 259.604375 272.22775  L 259.604375 300.584  Q 259.604375 302.584 261.604375 302.584  z " style="fill:#ffffff;opacity:0.8;stroke:#cccccc;stroke-linejoin:miter;"/>
    </g>
    <g id="line2d_32">
     <path d="M 263.604375 278.326187  L 283.604375 278.326187  " style="fill:none;stroke:#bf00bf;stroke-dasharray:7.4,3.2;stroke-dashoffset:0;stroke-width:2;"/>
    </g>
    <g id="line2d_33"/>
    <g id="text_27">
     <!-- Excitatory connections -->
     <g transform="translate(291.604375 281.826187)scale(0.1 -0.1)">
      <use xlink:href="#DejaVuSans-45"/>
      <use x="63.183594" xlink:href="#DejaVuSans-78"/>
      <use x="122.347656" xlink:href="#DejaVuSans-63"/>
      <use x="177.328125" xlink:href="#DejaVuSans-69"/>
      <use x="205.111328" xlink:href="#DejaVuSans-74"/>
      <use x="244.320312" xlink:href="#DejaVuSans-61"/>
      <use x="305.599609" xlink:href="#DejaVuSans-74"/>
      <use x="344.808594" xlink:href="#DejaVuSans-6f"/>
      <use x="405.990234" xlink:href="#DejaVuSans-72"/>
      <use x="447.103516" xlink:href="#DejaVuSans-79"/>
      <use x="506.283203" xlink:href="#DejaVuSans-20"/>
      <use x="538.070312" xlink:href="#DejaVuSans-63"/>
      <use x="593.050781" xlink:href="#DejaVuSans-6f"/>
      <use x="654.232422" xlink:href="#DejaVuSans-6e"/>
      <use x="717.611328" xlink:href="#DejaVuSans-6e"/>
      <use x="780.990234" xlink:href="#DejaVuSans-65"/>
      <use x="842.513672" xlink:href="#DejaVuSans-63"/>
      <use x="897.494141" xlink:href="#DejaVuSans-74"/>
      <use x="936.703125" xlink:href="#DejaVuSans-69"/>
      <use x="964.486328" xlink:href="#DejaVuSans-6f"/>
      <use x="1025.667969" xlink:href="#DejaVuSans-6e"/>
      <use x="1089.046875" xlink:href="#DejaVuSans-73"/>
     </g>
    </g>
    <g id="line2d_34">
     <path d="M 263.604375 293.004312  L 283.604375 293.004312  " style="fill:none;stroke:#000000;stroke-dasharray:7.4,3.2;stroke-dashoffset:0;stroke-width:2;"/>
    </g>
    <g id="line2d_35"/>
    <g id="text_28">
     <!-- Inhibitory connections -->
     <g transform="translate(291.604375 296.504312)scale(0.1 -0.1)">
      <use xlink:href="#DejaVuSans-49"/>
      <use x="29.492188" xlink:href="#DejaVuSans-6e"/>
      <use x="92.871094" xlink:href="#DejaVuSans-68"/>
      <use x="156.25" xlink:href="#DejaVuSans-69"/>
      <use x="184.033203" xlink:href="#DejaVuSans-62"/>
      <use x="247.509766" xlink:href="#DejaVuSans-69"/>
      <use x="275.292969" xlink:href="#DejaVuSans-74"/>
      <use x="314.501953" xlink:href="#DejaVuSans-6f"/>
      <use x="375.683594" xlink:href="#DejaVuSans-72"/>
      <use x="416.796875" xlink:href="#DejaVuSans-79"/>
      <use x="475.976562" xlink:href="#DejaVuSans-20"/>
      <use x="507.763672" xlink:href="#DejaVuSans-63"/>
      <use x="562.744141" xlink:href="#DejaVuSans-6f"/>
      <use x="623.925781" xlink:href="#DejaVuSans-6e"/>
      <use x="687.304688" xlink:href="#DejaVuSans-6e"/>
      <use x="750.683594" xlink:href="#DejaVuSans-65"/>
      <use x="812.207031" xlink:href="#DejaVuSans-63"/>
      <use x="867.1875" xlink:href="#DejaVuSans-74"/>
      <use x="906.396484" xlink:href="#DejaVuSans-69"/>
      <use x="934.179688" xlink:href="#DejaVuSans-6f"/>
      <use x="995.361328" xlink:href="#DejaVuSans-6e"/>
      <use x="1058.740234" xlink:href="#DejaVuSans-73"/>
     </g>
    </g>
   </g>
  </g>
 </g>
 <defs>
  <clipPath id="p153d8c3b2a">
   <rect height="266.112" width="357.12" x="57.6" y="41.472"/>
  </clipPath>
 </defs>
</svg>