<?xml version="1.0" encoding="UTF-8" standalone="no"?>
<!-- Created with Inkscape (http://www.inkscape.org/) -->

<svg
   width="222.418"
   height="166.763"
   viewBox="-1 -1 61.993925 46.481372"
   version="1.1"
   id="svg6286"
   inkscape:version="1.2.2 (b0a8486541, 2022-12-01)"
   sodipodi:docname="synapse_text.svg"
   xmlns:inkscape="http://www.inkscape.org/namespaces/inkscape"
   xmlns:sodipodi="http://sodipodi.sourceforge.net/DTD/sodipodi-0.dtd"
   xmlns="http://www.w3.org/2000/svg"
   xmlns:svg="http://www.w3.org/2000/svg">
  <sodipodi:namedview
     id="namedview6288"
     pagecolor="#ffffff"
     bordercolor="#666666"
     borderopacity="1.0"
     inkscape:showpageshadow="2"
     inkscape:pageopacity="0.0"
     inkscape:pagecheckerboard="0"
     inkscape:deskcolor="#d1d1d1"
     inkscape:document-units="mm"
     showgrid="false"
     inkscape:zoom="2.5877449"
     inkscape:cx="100.86002"
     inkscape:cy="89.846567"
     inkscape:window-width="1504"
     inkscape:window-height="1282"
     inkscape:window-x="26"
     inkscape:window-y="23"
     inkscape:window-maximized="0"
     inkscape:current-layer="layer1" />
  <defs
     id="defs6283">
    <inkscape:path-effect
       effect="simplify"
       id="path-effect1358"
       is_visible="true"
       steps="1"
       threshold="0.00159091"
       smooth_angles="360"
       helper_size="0"
       simplify_individual_paths="false"
       simplify_just_coalesce="false"
       simplifyindividualpaths="false"
       simplifyJustCoalesce="false"
       lpeversion="0" />
    <inkscape:path-effect
       effect="simplify"
       id="path-effect1362"
       is_visible="true"
       steps="1"
       threshold="0.00159091"
       smooth_angles="360"
       helper_size="0"
       simplify_individual_paths="false"
       simplify_just_coalesce="false"
       simplifyindividualpaths="false"
       simplifyJustCoalesce="false"
       lpeversion="0" />
    <inkscape:path-effect
       simplifyJustCoalesce="false"
       simplifyindividualpaths="false"
       simplify_just_coalesce="false"
       simplify_individual_paths="false"
       helper_size="0"
       smooth_angles="360"
       threshold="0.00159091"
       steps="1"
       is_visible="true"
       id="path-effect1366"
       effect="simplify"
       lpeversion="0" />
    <inkscape:path-effect
       effect="simplify"
       id="path-effect1370"
       is_visible="true"
       steps="1"
       threshold="0.00159091"
       smooth_angles="360"
       helper_size="0"
       simplify_individual_paths="false"
       simplify_just_coalesce="false"
       simplifyindividualpaths="false"
       simplifyJustCoalesce="false"
       lpeversion="0" />
    <inkscape:path-effect
       effect="simplify"
       id="path-effect1374"
       is_visible="true"
       steps="1"
       threshold="0.00159091"
       smooth_angles="360"
       helper_size="0"
       simplify_individual_paths="false"
       simplify_just_coalesce="false"
       simplifyindividualpaths="false"
       simplifyJustCoalesce="false"
       lpeversion="0" />
    <inkscape:path-effect
       simplifyJustCoalesce="false"
       simplifyindividualpaths="false"
       simplify_just_coalesce="false"
       simplify_individual_paths="false"
       helper_size="0"
       smooth_angles="360"
       threshold="0.00159091"
       steps="1"
       is_visible="true"
       id="path-effect1378"
       effect="simplify"
       lpeversion="0" />
    <inkscape:path-effect
       effect="simplify"
       id="path-effect1358-3"
       is_visible="true"
       steps="1"
       threshold="0.00159091"
       smooth_angles="360"
       helper_size="0"
       simplify_individual_paths="false"
       simplify_just_coalesce="false"
       simplifyindividualpaths="false"
       simplifyJustCoalesce="false"
       lpeversion="0" />
    <inkscape:path-effect
       effect="simplify"
       id="path-effect1362-6"
       is_visible="true"
       steps="1"
       threshold="0.00159091"
       smooth_angles="360"
       helper_size="0"
       simplify_individual_paths="false"
       simplify_just_coalesce="false"
       simplifyindividualpaths="false"
       simplifyJustCoalesce="false"
       lpeversion="0" />
    <inkscape:path-effect
       simplifyJustCoalesce="false"
       simplifyindividualpaths="false"
       simplify_just_coalesce="false"
       simplify_individual_paths="false"
       helper_size="0"
       smooth_angles="360"
       threshold="0.00159091"
       steps="1"
       is_visible="true"
       id="path-effect1366-7"
       effect="simplify"
       lpeversion="0" />
    <inkscape:path-effect
       effect="simplify"
       id="path-effect1370-5"
       is_visible="true"
       steps="1"
       threshold="0.00159091"
       smooth_angles="360"
       helper_size="0"
       simplify_individual_paths="false"
       simplify_just_coalesce="false"
       simplifyindividualpaths="false"
       simplifyJustCoalesce="false"
       lpeversion="0" />
    <inkscape:path-effect
       effect="simplify"
       id="path-effect1374-3"
       is_visible="true"
       steps="1"
       threshold="0.00159091"
       smooth_angles="360"
       helper_size="0"
       simplify_individual_paths="false"
       simplify_just_coalesce="false"
       simplifyindividualpaths="false"
       simplifyJustCoalesce="false"
       lpeversion="0" />
    <inkscape:path-effect
       simplifyJustCoalesce="false"
       simplifyindividualpaths="false"
       simplify_just_coalesce="false"
       simplify_individual_paths="false"
       helper_size="0"
       smooth_angles="360"
       threshold="0.00159091"
       steps="1"
       is_visible="true"
       id="path-effect1378-5"
       effect="simplify"
       lpeversion="0" />
  </defs>
  <g
     inkscape:label="Layer 1"
     inkscape:groupmode="layer"
     id="layer1"
     transform="translate(32.447351,3.21453)">
    <g
       id="g13408"
       transform="matrix(0.032912,0.08366018,-0.08007435,0.0344515,85.463844,-17.827292)"
       style="stroke-width:3.78693">
      <g
         id="g1286"
         transform="matrix(13.012574,0,0,13.012574,-261.79925,-1075.7274)"
         inkscape:export-xdpi="300"
         inkscape:export-ydpi="300"
         style="display:inline;stroke-width:3.78693">
        <path
           transform="matrix(0.98973031,0,0,-1.0000938,0.03743202,326.65043)"
           inkscape:connector-curvature="0"
           d="m 17.079799,168.18099 c -1.63395,0.24668 -3.306735,0.30428 -4.931128,0.0585 -1.289992,-0.19518 -2.5978869,-0.0718 -3.8959634,-0.1154 -0.6438692,-0.0216 -1.3187756,0.005 -1.9176462,-0.23916 -0.4760163,-0.19407 -0.7796693,-0.63078 -1.1447632,-0.97029 -0.2099108,-0.1952 -0.5055705,-0.36242 -0.8005891,-0.24792 -0.2743766,0.10649 -0.439258,0.36717 -0.5875976,0.60488 -0.3996635,0.64046 -0.6446107,1.37166 -0.7548699,2.11079 -0.1155481,0.77458 0.1198253,1.57167 0.5352248,2.22547 0.1901777,0.29932 0.4381707,0.55521 0.6944265,0.79645 0.7136267,0.6718 1.5724891,1.15772 2.4066601,1.66078 0.8159448,0.49207 1.6692738,0.94552 2.3839988,1.57873 0.5881718,0.52109 1.1909332,1.12347 1.3763862,1.90459 0.110659,0.46609 0.172744,0.94277 0.231814,1.41773 0.06153,0.49475 0.07823,0.99485 0.130435,1.49095 0.05732,0.54468 0.0446,1.12098 0.287691,1.62257 0.07788,0.1607 0.325152,0.1683 0.398783,0.34027 0.245363,0.57307 0.555577,1.15853 1.077142,1.52839 0.389715,0.27636 0.893981,0.2771 1.349387,0.18232 0.354414,-0.0738 0.69324,-0.21331 1.058878,-0.24736 0.196383,-0.0183 0.285383,0.20889 0.492744,0.0524 0.339385,-0.25615 0.4827,-0.68244 0.576389,-1.07893 0.23314,-0.98665 0.256641,-2.00662 0.293329,-3.01531 0.02966,-0.8156 0.02043,-1.63401 0.105177,-2.44691 0.02488,-0.23866 0.154309,-0.45046 0.274306,-0.65265 0.514092,-0.86623 1.352765,-1.47031 2.198421,-1.98515 0.726409,-0.44224 1.508765,-0.79534 2.199201,-1.29318 0.865523,-0.62409 1.731759,-1.32691 2.239474,-2.27671 0.33363,-0.62413 0.450973,-1.34929 0.417986,-2.05057 -0.02769,-0.58873 -0.211735,-1.17323 -0.569024,-1.65072 -0.229957,-0.30732 -0.452004,-0.62525 -0.736049,-0.88905 -0.158583,-0.14728 -0.347323,-0.006 -0.459034,0.1391 -0.158039,0.20549 -0.237648,0.46449 -0.446125,0.63313 -0.440767,0.35655 -1.03501,0.3532 -1.566712,0.45059 -0.24676,0.0452 -0.488128,0.10697 -0.736681,0.14696 -0.721614,0.11609 -1.449177,0.21968 -2.181671,0.21473 z"
           id="path1276"
           style="display:inline;opacity:1;fill:#1281b3;fill-opacity:1;stroke:none;stroke-width:1.00196px;stroke-linecap:butt;stroke-linejoin:miter;stroke-opacity:1"
           sodipodi:nodetypes="cccccccsssccccccccccc"
           inkscape:original-d="m 17.079799,168.18099 c -1.632501,0.24679 -3.291358,0.0893 -4.931128,0.0585 -1.750108,-0.27878 -3.942732,0.093 -5.6673257,-0.31326 -0.9118912,-0.17278 -1.4397048,-1.86196 -2.3341506,-1.10883 -0.6422352,0.69931 -0.8861863,1.64717 -1.0922451,2.52059 -0.1738066,0.94349 0.2536902,2.13101 0.9619482,2.7904 1.0150965,1.19708 3.2833897,2.12271 4.9911211,3.46361 0.2115762,0.18258 0.4247334,0.38305 0.6217543,0.59988 0.197021,0.21683 0.3779058,0.45002 0.5249368,0.69803 0.147031,0.24801 0.260209,0.51084 0.321815,0.78694 0.06161,0.27611 0.382227,2.4097 0.322975,2.71083 0.07284,0.72589 0.09058,1.93179 0.693161,2.03225 1.360069,3.26638 3.157454,0.89115 3.798164,1.60464 1.363086,-0.42776 0.912108,-5.3432 1.177765,-6.77418 0.766738,-1.911 2.952621,-2.68003 4.566345,-3.72826 0.883058,-0.62062 1.73952,-1.38398 2.275906,-2.2574 0.502121,-0.8014 0.736528,-2.5684 0.0083,-3.61933 -1.000672,-1.42075 -1.066825,-1.38648 -1.5743,-0.46079 -0.507115,0.64245 -1.414216,0.49871 -2.129505,0.72402 -0.837278,0.13699 -1.685811,0.27836 -2.535531,0.27229 z"
           inkscape:path-effect="#path-effect1358-3" />
        <g
           transform="matrix(0.99980292,0.01985239,0.01985239,-0.99980292,-2.5177236,327.34229)"
           id="g1284"
           style="stroke:#26d9ff;stroke-width:3.78693;stroke-opacity:1">
          <path
             id="path1278"
             style="fill:#08374d;fill-opacity:1;stroke:#aef1ff;stroke-width:3.78693px;stroke-linecap:round;stroke-linejoin:round;stroke-opacity:1"
             d="m 31.603283,648.51547 c -4.42148,-0.0876 -7.938652,-3.55878 -7.856353,-7.75353 0.01907,-0.9033 0.207823,-1.7958 0.557378,-2.63556 -3.441561,-0.35923 -6.789407,-1.60378 -7.900319,-2.28823 -1.110912,-0.68446 -2.361785,-1.50656 -2.058089,-2.80942 0.335882,-1.10093 2.677681,-1.78245 4.636818,-2.28019 5.308502,-1.38666 10.476002,-2.0173 15.796605,-2.29169 11.257773,-0.57087 20.413111,-0.22379 33.430756,1.55735 6.515464,1.17738 9.834852,2.03449 11.279915,3.59904 0.790967,0.78017 -0.06409,2.0277 -1.388198,2.90073 -1.502693,0.69454 -2.846853,1.21259 -6.577509,1.94542 -8.617699,1.31567 -18.601504,1.48921 -21.498845,1.48889 -2.897341,-3.2e-4 -4.744671,-0.17354 -10.421619,-0.47888 0.11188,0.53019 0.163836,1.07007 0.154986,1.61048 -0.08427,4.19381 -3.734975,7.52225 -8.155526,7.43559 z"
             transform="scale(0.26458333)"
             sodipodi:nodetypes="ccczccccccczccc" />
          <path
             sodipodi:nodetypes="csscssc"
             inkscape:connector-curvature="0"
             d="m 4.7692962,166.95624 c -0.4148,0.12651 -0.8407366,0.24708 -1.2126165,0.47191 -0.1725369,0.10431 -0.3048407,0.26427 -0.4263745,0.42196 -0.4204944,0.5456 -0.6396134,1.21265 -0.8224136,1.86819 -0.1639492,0.58794 -0.2141508,1.21823 -0.057769,1.81428 0.1383779,0.52743 0.391842,1.02641 0.7366473,1.44698 0.5934277,0.72382 1.3753432,1.2591 2.1554388,1.76172 0.9630862,0.62052 1.9830578,1.16093 2.8769222,1.88251 0.4513894,0.36439 0.8523358,0.80158 1.114668,1.3272 0.19467,0.39005 0.2955972,0.81909 0.3371912,1.25245 0.1083968,1.12936 0.2203326,2.25888 0.2885855,3.3914 0.00244,0.0405 0.00476,0.0811 0.00642,0.12162"
             id="path1280"
             style="fill:none;stroke:#aef1ff;stroke-width:1.00196px;stroke-linecap:round;stroke-linejoin:miter;stroke-opacity:1"
             inkscape:original-d="m 4.7692962,166.95624 c -0.4956748,0.1432 -1.1795688,0.41626 -1.3124366,0.53964 -0.4004679,0.37187 -0.7507586,0.87002 -1.0763521,1.96613 -0.2662256,0.89625 -0.4814812,1.94682 0.4660208,3.3333 1.4239175,1.99118 5.2051895,3.13891 6.18882,4.9632 0.2532421,0.46967 0.3610371,0.83879 0.4106412,1.21758 0.049604,0.37878 0.2995313,3.23202 0.3200094,3.74037"
             inkscape:path-effect="#path-effect1362-6" />
          <path
             transform="matrix(-1,0,0,1,24.819498,0.14174107)"
             style="fill:none;stroke:#aef1ff;stroke-width:1.00196px;stroke-linecap:round;stroke-linejoin:round;stroke-opacity:1"
             id="path1282"
             d="m 4.4099472,167.11372 c -0.5619003,0.0579 -1.0508181,0.4144 -1.3791157,0.85986 -0.4911126,0.66638 -0.7376184,1.49088 -0.791444,2.30936 -0.047007,0.71479 0.052065,1.45523 0.3860189,2.09975 0.082431,0.15909 0.2061537,0.29038 0.3087447,0.43506 0.307147,0.43317 0.7361249,0.76063 1.1643266,1.06516 1.3055544,0.92848 2.7419326,1.6683 3.9868383,2.68176 0.5009155,0.40779 0.9779905,0.87828 1.2430565,1.47871 0.171119,0.38762 0.3006031,0.80208 0.3229778,1.22482 0.053671,1.01403 0.078666,2.02939 0.1023321,3.04449 0.00574,0.2463 0.012329,0.49259 0.015246,0.73894"
             inkscape:connector-curvature="0"
             sodipodi:nodetypes="ccssssc"
             inkscape:original-d="m 4.4099472,167.11372 c -2.1125352,0.23901 -2.8497193,4.18899 -1.507752,5.65512 0.8707063,1.38743 5.0310834,3.0965 6.1771079,4.8234 0.058738,0.0885 0.1271067,0.20002 0.196739,0.34037 0.069632,0.14036 0.1405286,0.30955 0.2043218,0.51341 0.063793,0.20386 0.1204836,0.4424 0.1617042,0.72144 0.041221,0.27904 0.1249457,3.51827 0.1268603,3.88417"
             inkscape:path-effect="#path-effect1366-7" />
        </g>
      </g>
      <g
         id="g1302"
         transform="matrix(13.012574,0,0,13.012574,-263.46708,-1068.8415)"
         inkscape:export-xdpi="300"
         inkscape:export-ydpi="300"
         style="display:inline;stroke-width:3.78693">
        <g
           id="g1300"
           style="stroke-width:3.78693">
          <path
             style="display:inline;opacity:1;fill:#1281b3;fill-opacity:1;stroke:none;stroke-width:1.00196px;stroke-linecap:butt;stroke-linejoin:miter;stroke-opacity:1"
             id="path1288"
             d="m 17.095987,168.02079 c -1.669335,0.0435 -3.339938,0.1089 -5.009386,0.064 -1.439807,-0.0388 -2.8788425,-0.17901 -4.2946573,-0.44311 -0.4290388,-0.08 -0.8583356,-0.16205 -1.2810209,-0.26999 -0.5178273,-0.13224 -0.9615002,-0.44195 -1.379928,-0.76866 -0.1520988,-0.11876 -0.3386599,-0.32894 -0.5438089,-0.23467 -0.2535736,0.11652 -0.3917776,0.37064 -0.5523462,0.58381 -0.4041093,0.53649 -0.483456,1.22295 -0.5632076,1.86752 -0.048259,0.39004 -0.1579089,0.77053 -0.1558873,1.16763 0.00392,0.77046 0.3572117,1.5074 0.9012787,2.05723 0.828411,0.83718 1.8584985,1.4298 2.8578861,2.03656 0.6869814,0.41709 1.3984534,0.80886 2.0024206,1.34538 0.5227063,0.46433 1.0467818,0.96348 1.3428068,1.61025 0.163875,0.35804 0.210927,0.75474 0.207915,1.14832 -0.01293,1.68909 -0.113209,3.38948 0.103297,5.067 0.04232,0.32791 0.01266,0.69612 0.196504,0.97578 0.125219,0.19048 0.380022,0.22779 0.58988,0.24496 0.367095,0.03 0.732502,-0.11479 1.094864,-0.0718 0.296057,0.0351 0.574978,-0.12398 0.753868,-0.362 0.194082,-0.25823 0.259956,-0.64434 0.567552,-0.79105 0.285821,-0.13632 0.592699,0.0458 0.823898,0.21249 0.339675,0.24494 0.629953,0.56567 1.026667,0.73165 0.199315,0.0834 0.391659,-0.0292 0.408541,-0.26591 0.04303,-0.60338 -0.190184,-1.18036 -0.206053,-1.78103 -0.02167,-0.82029 -0.03399,-1.64458 0.05026,-2.46096 0.05291,-0.51268 0.08045,-1.02978 0.224176,-1.53064 0.07058,-0.24595 0.22472,-0.45638 0.320775,-0.69069 0.376841,-0.91922 1.109656,-1.63528 1.899604,-2.21269 0.942398,-0.68884 1.973737,-1.23811 2.947087,-1.88124 0.540788,-0.35732 1.069833,-0.74768 1.482847,-1.25228 0.202439,-0.24733 0.409915,-0.49526 0.536123,-0.7941 0.370835,-0.87807 0.495905,-1.8814 0.256577,-2.80883 -0.07946,-0.30793 -0.263484,-0.574 -0.385407,-0.86862 -0.16273,-0.39323 -0.369664,-0.78062 -0.677492,-1.08495 -0.121489,-0.12011 -0.331228,-0.13254 -0.443321,0.0179 -0.120858,0.1622 -0.07299,0.41491 -0.210673,0.5582 -0.46592,0.48491 -1.154066,0.65299 -1.797349,0.73949 -1.025724,0.13793 -2.064201,0.0777 -3.094289,0.14508 z"
             inkscape:connector-curvature="0"
             transform="matrix(0.98973031,0,0,1.0000938,0.1042494,-0.01630641)"
             sodipodi:nodetypes="czcccccccscscssccccccc"
             inkscape:original-d="m 17.095987,168.02079 c -0.960417,0.0302 -3.637363,0.0843 -4.947316,0.065 -1.309953,-0.0192 -3.5369652,-0.22577 -5.2615589,-0.63201 -2.0258177,-0.33981 -1.9129823,-1.85721 -2.7399174,-0.6364 -0.6422352,0.69931 -0.575894,1.71803 -0.7819528,2.59145 -0.1738066,0.94349 0.1104783,1.94204 0.8187363,2.60143 1.4010047,1.46477 3.9517115,2.47703 4.9672525,3.48723 0.8463047,0.73031 1.4314823,1.46351 1.4808963,2.4082 -0.01131,0.62278 -0.01926,2.33941 -0.01926,2.33941 0,0 -0.0097,3.72332 0.365214,4.05034 0.374894,0.32701 1.322794,0.11985 1.610682,0.10363 1.026199,0.0916 0.857645,-1.17743 1.541826,-1.19983 0.68418,-0.0224 1.313401,1.19584 1.953489,0.99078 0.251264,-0.20143 0.02854,-1.0932 -0.06211,-1.61003 -0.08309,-0.47375 -0.03885,-2.52745 0.02752,-3.00266 0.04318,-0.30921 0.0035,-1.29364 0.51458,-2.06989 0.766738,-1.911 2.857147,-2.8193 4.470871,-3.86753 0.883058,-0.62062 1.467037,-0.90832 2.277272,-2.03646 0.619112,-1.15454 0.735162,-2.90745 0.0069,-3.95838 -0.262613,-0.69034 -1.03445,-1.97922 -1.331486,-0.50885 -0.963993,1.02766 -3.311773,0.77221 -4.89167,0.88455 z"
             inkscape:path-effect="#path-effect1370-5" />
          <g
             style="display:inline;stroke-width:3.78693"
             id="g1298"
             transform="translate(1.1197783,-1.1251507)">
            <path
               sodipodi:nodetypes="ccccccccccc"
               inkscape:connector-curvature="0"
               id="path1290"
               transform="scale(0.26458333)"
               d="m 34.779297,628.45703 c -5.320608,0.27439 -10.488367,0.90436 -15.796875,2.29102 -1.959139,0.49774 -3.690261,1.04536 -4.636719,2.28153 -0.790617,1.49026 0.887394,2.00441 2.045202,2.55078 4.123704,1.58341 6.959261,2.57131 13.484933,3.25893 8.950107,0.72593 20.15011,1.10882 20.15011,1.10882 0,0 12.880618,-0.1729 21.498326,-1.48857 3.73066,-0.73283 5.073758,-1.24993 6.576452,-1.94447 1.324114,-0.87303 2.179639,-2.12134 1.388671,-2.90151 -1.445064,-1.56455 -4.76271,-2.42194 -11.278181,-3.59932 -13.017658,-1.78115 -22.174134,-2.12808 -33.431919,-1.55721 z"
               style="fill:#1281b3;fill-opacity:1;stroke:#204244;stroke-width:3.78693px;stroke-linecap:butt;stroke-linejoin:miter;stroke-opacity:1" />
            <path
               sodipodi:nodetypes="csscssc"
               inkscape:connector-curvature="0"
               d="m 5.2718817,166.82168 c -0.5865726,0.16441 -1.1881415,0.32699 -1.7089521,0.65343 -0.4727574,0.29632 -0.7763865,0.79376 -0.9785836,1.29984 -0.3413045,0.85426 -0.4542068,1.80899 -0.277085,2.71352 0.092447,0.47211 0.3340163,0.89443 0.6052822,1.29665 0.3058299,0.45347 0.7367925,0.80392 1.1669322,1.13285 1.3321356,1.01869 2.8160565,1.83458 4.0802959,2.94029 0.345367,0.30206 0.7213319,0.59896 0.9433036,1.00394 0.2534792,0.46246 0.3636321,0.98882 0.4218757,1.50804 0.062411,0.55637 0.050113,1.11727 0.05817,1.67613 0.020195,1.40078 0.030898,2.80175 0.060035,4.20238"
               id="path1292"
               style="fill:none;stroke:#204244;stroke-width:1.00196px;stroke-linecap:round;stroke-linejoin:round;stroke-opacity:1"
               inkscape:original-d="m 5.2718817,166.82168 c -1.3124744,0.35179 -1.8322427,0.64348 -2.1774607,1.07031 -0.345218,0.42683 -0.5934797,0.9888 -0.7337882,1.58912 -0.280617,1.20064 -0.1294213,2.55466 0.5415624,3.28773 0.8707063,1.38743 4.9043822,3.32063 6.1331531,4.98967 0.2414304,0.32794 0.4823373,1.0977 0.5262589,2.07491 0.018392,0.40921 0.055574,4.41815 0.081549,5.41533"
               inkscape:path-effect="#path-effect1374-3" />
            <path
               transform="matrix(-1,0,0,1,24.819498,0.14174107)"
               style="fill:none;stroke:#204244;stroke-width:1.00196px;stroke-linecap:round;stroke-linejoin:round;stroke-opacity:1"
               id="path1294"
               d="m 4.4099472,167.11372 c -0.5800989,0.0597 -1.0800663,0.43684 -1.4100532,0.9018 -0.4968502,0.70008 -0.7372933,1.56118 -0.7686891,2.41152 -0.026404,0.71513 0.073753,1.46967 0.4693632,2.07999 0.098384,0.15178 0.2112419,0.2917 0.3239112,0.43303 0.4578234,0.57429 1.0583141,1.012 1.6555424,1.42944 1.1297616,0.78967 2.3390111,1.4704 3.3980038,2.35765 0.4225121,0.35399 0.7966074,0.76635 1.086018,1.23991 0.3187463,0.52156 0.5684373,1.09285 0.6615185,1.70038 0.1063533,0.69416 0.1572302,1.39603 0.186788,2.09729 0.04616,1.09508 -0.1271547,2.18478 -0.1348921,3.27842 -4.206e-4,0.0594 -1.383e-4,0.11897 0.00431,0.17828"
               inkscape:connector-curvature="0"
               sodipodi:nodetypes="ccsssc"
               inkscape:original-d="m 4.4099472,167.11372 c -2.1125352,0.23901 -2.8497193,4.18899 -1.507752,5.65512 1.0596944,1.62367 5.0239376,3.2389 6.1331531,4.98967 0.5284741,0.83414 0.7083319,1.36203 0.810314,2.03321 0.043719,0.28773 0.1540399,1.26407 0.1747457,2.24932 0.02071,0.98525 -0.1747626,2.71721 -0.1386421,3.18039"
               inkscape:path-effect="#path-effect1378-5" />
            <path
               sodipodi:nodetypes="ccccccccccc"
               inkscape:connector-curvature="0"
               id="path1296"
               d="m 9.8025423,166.5543 c -1.1473238,0.0592 -2.2616875,0.19502 -3.4064021,0.49403 -0.4224643,0.10734 -0.9479627,0.2094 -0.9998515,0.49199 -0.084089,0.35548 0.3349889,0.43223 0.4410227,0.55004 0.9283989,0.45243 1.5006792,0.55447 2.9078602,0.70275 1.9299804,0.15654 4.3451234,0.2391 4.3451234,0.2391 0,0 2.777548,-0.0373 4.63585,-0.32099 0.804472,-0.15802 1.094094,-0.26953 1.418132,-0.4193 0.285529,-0.18826 0.470012,-0.45744 0.299449,-0.62567 -0.31161,-0.33738 -1.027019,-0.52226 -2.432001,-0.77615 -2.807098,-0.38409 -4.78158,-0.4589 -7.2091827,-0.3358 z"
               style="fill:#08374d;fill-opacity:1;stroke:none;stroke-width:0.816606px;stroke-linecap:butt;stroke-linejoin:miter;stroke-opacity:1" />
          </g>
        </g>
      </g>
      <path
         id="path1324"
         style="fill:#08394d;fill-opacity:1;stroke-width:6.12495;stroke-linecap:round;stroke-linejoin:round;stroke-miterlimit:5"
         d="m -80.378133,862.57983 c -5.432895,0.69487 -9.815427,4.27744 -14.106875,7.38074 -3.122896,2.36009 -6.706872,4.37527 -10.692962,4.63741 -3.21039,0.29352 -6.44811,-0.0307 -9.65624,0.13325 -1.51783,0.33651 -1.92275,2.12872 -2.81064,3.20161 -4.4587,6.59314 -8.8201,13.3772 -14.69391,18.8299 -6.75525,7.07568 -12.536,15.17052 -20.34972,21.1695 -7.45275,5.213 -16.291,7.7609 -24.46317,11.5643 -6.94105,3.0419 -14.02935,6.1999 -19.75016,11.2785 -3.28067,3.9197 -4.13905,9.1214 -5.33671,13.9343 -1.52049,7.0459 -1.64627,14.5228 0.61475,21.4287 1.54431,5.5098 3.74642,10.803 5.88075,16.1029 0.92845,1.1093 2.40339,0.1757 3.4661,-0.1915 19.39121,-6.0655 39.74091,-8.0462 59.92701,-9.3389 28.73007,-1.7764 57.563978,-1.491 86.290124,0.2064 17.67479,1.1889 35.42582,3.2513 52.4501102,8.3357 5.2995998,1.6258 10.4996198,3.578 15.5475898,5.8698 4.75175,-13.7821 9.09736,-27.9501 9.68963,-42.6184 0.29045,-6.3986 -2.21407,-13.0164 -7.16091,-17.1922 -6.98453,-6.761 -16.0715698,-10.591 -24.72146977,-14.7095 -8.74071003,-4.0514 -17.43139023,-8.54995 -24.66673023,-15.00769 -9.57286,-7.87844 -18.50289,-16.61565 -26.05374,-26.46923 -1.99645,-2.9803 -3.68823,-6.15808 -5.78775,-9.07059 -5.98185,-3.33737 -11.692944,-7.48501 -18.4332,-9.15981 -1.701178,-0.35431 -3.450045,-0.4894 -5.181877,-0.31501 z"
         sodipodi:nodetypes="cszcssscsscccccccc"
         class="UnoptimicedTransforms" />
      <path
         style="display:inline;fill:#ffffff;fill-opacity:1;stroke:#aef1ff;stroke-width:19.534;stroke-linecap:round;stroke-linejoin:round;stroke-miterlimit:5;stroke-dasharray:none;stroke-opacity:1"
         d="m -168.09153,988.26314 c 0,0 -1.53336,-2.0544 -1.80809,-9.1108 -0.54947,-14.1125 11.27244,-26.0379 26.40491,-26.6361 15.13244,-0.5982 28.87711,11.5367 29.42661,25.6492 -0.0752,2.7951 0.39893,4.7453 0.12851,5.9243"
         id="path1326"
         sodipodi:nodetypes="csscc" />
      <path
         style="display:inline;fill:#eabf17;fill-opacity:1;fill-rule:evenodd;stroke:none;stroke-width:10.2922;stroke-linecap:square;stroke-linejoin:bevel;stroke-miterlimit:4;stroke-dasharray:none;stroke-dashoffset:0;stroke-opacity:1;paint-order:normal"
         id="path1328"
         sodipodi:type="arc"
         sodipodi:cx="-90.569572"
         sodipodi:cy="1057.7286"
         sodipodi:rx="10.650065"
         sodipodi:ry="10.650065"
         sodipodi:start="3.5424948"
         sodipodi:end="3.5395103"
         sodipodi:open="true"
         inkscape:export-xdpi="300"
         inkscape:export-ydpi="300"
         sodipodi:arc-type="arc"
         d="m -100.37519,1053.5725 a 10.650065,10.650065 0 0 1 13.954479,-5.6526 10.650065,10.650065 0 0 1 5.662944,13.9503 10.650065,10.650065 0 0 1 -13.946025,5.6733 10.650065,10.650065 0 0 1 -5.683758,-13.9418" />
      <path
         id="path1338"
         style="fill:#1e6d8e;fill-opacity:1;stroke-width:6.12495;stroke-linecap:round;stroke-linejoin:round;stroke-miterlimit:5"
         d="m -59.236756,868.52882 c 0,0 6.40569,11.25444 14.66629,20.40823 8.26072,9.15379 21.99656,22.07959 33.20606,28.22369 13.8888702,7.6128 34.22004,13.3612 41.16977,27.07 6.94967,13.7087 -0.93276,35.5637 -0.93276,35.5637 0,0 6.54697,-25.1573 -11.60243,-36.3536 -18.14958977,-11.1964 -28.70984,-15.6108 -37.47871,-21.5758 -8.76887,-5.9653 -18.49708,-16.47832 -25.18326,-25.98649 -6.68628,-9.50829 -13.84491,-27.34973 -13.84491,-27.34973 z"
         sodipodi:nodetypes="csszczzzc"
         class="UnoptimicedTransforms" />
      <path
         id="path1340"
         style="fill:#08394d;fill-opacity:1;stroke-width:6.12495;stroke-linecap:round;stroke-linejoin:round;stroke-miterlimit:5"
         d="m -121.46346,1221.1308 c -3.41295,-6.9083 -9.54754,-12.9572 -16.656,-19.5492 -7.10839,-6.5919 -16.98422,-11.3953 -24.2928,-15.2745 -6.99493,-3.7127 -19.2234,-9.9298 -19.2234,-9.9298 10.26384,0.9947 19.91316,2.8984 26.3048,6.0864 13.2737,4.7765 27.10563,13.0707 37.19954,29.932 10.09395,16.8615 5.81564,49.1943 5.81564,49.1943 -0.80697,-11.5635 -4.48158,-32.5974 -9.14778,-40.4592 z"
         sodipodi:nodetypes="csscczcc" />
      <path
         id="path1342"
         style="fill:#fafdfd;fill-opacity:1;stroke-width:6.12495;stroke-linecap:round;stroke-linejoin:round;stroke-miterlimit:5"
         d="m -114.43923,871.57242 c 0,0 -6.40569,11.25445 -14.6663,20.40824 -8.26071,9.15379 -21.99655,22.07959 -33.20604,28.22378 -13.88889,7.6127 -34.22006,13.3611 -41.16977,27.0699 -6.9497,13.7086 0.93274,35.5636 0.93274,35.5636 0,0 -6.54696,-25.1572 11.60244,-36.3535 18.14958,-11.1964 28.70984,-15.6107 37.47871,-21.5758 8.76887,-5.9653 18.49708,-16.47831 25.18325,-25.98648 6.68629,-9.50829 13.84492,-27.34974 13.84492,-27.34974 z"
         sodipodi:nodetypes="csszczzzc"
         class="UnoptimicedTransforms" />
      <path
         id="path1344"
         style="fill:#f9fcfc;fill-opacity:1;stroke-width:6.12495;stroke-linecap:round;stroke-linejoin:round;stroke-miterlimit:5"
         d="m -5.1030658,1185.5899 c 13.91709,-6.858 40.1852198,-14.4029 37.6136698,-34.3041 -12.21279,21.5718 -32.17885977,22.7904 -45.44327,32.6436 -17.64612,12.5597 -31.01688,34.8636 -31.01688,34.8636 0,0 23.76159,-23.6571 38.8464802,-33.2031 z"
         sodipodi:nodetypes="ccccc" />
      <g
         id="g1395"
         transform="matrix(6.4341975,0,0,6.4341975,-657.1717,185.50175)"
         style="stroke-width:3.78693">
        <path
           style="fill:#ffffff;fill-opacity:1;stroke:#aef1ff;stroke-width:2.64706;stroke-linecap:round;stroke-linejoin:round;stroke-miterlimit:5;stroke-dasharray:none;stroke-opacity:1"
           id="path1383"
           sodipodi:type="arc"
           sodipodi:cx="90.395164"
           sodipodi:cy="113.94757"
           sodipodi:rx="3.5438161"
           sodipodi:ry="3.1992784"
           sodipodi:start="3.5424948"
           sodipodi:end="3.5395103"
           sodipodi:open="true"
           sodipodi:arc-type="arc"
           d="m 87.13234,112.69906 a 3.5438161,3.1992784 0 0 1 4.643361,-1.69803 3.5438161,3.1992784 0 0 1 1.884348,4.19066 3.5438161,3.1992784 0 0 1 -4.640549,1.70427 3.5438161,3.1992784 0 0 1 -1.891273,-4.18811" />
      </g>
      <path
         style="display:inline;fill:#eabf17;fill-opacity:1;fill-rule:evenodd;stroke:none;stroke-width:8.1761;stroke-linecap:square;stroke-linejoin:bevel;stroke-miterlimit:4;stroke-dasharray:none;stroke-dashoffset:0;stroke-opacity:1;paint-order:normal"
         id="path9392"
         sodipodi:type="arc"
         sodipodi:cx="-167.0719"
         sodipodi:cy="1007.8701"
         sodipodi:rx="8.4604731"
         sodipodi:ry="8.4604731"
         sodipodi:start="3.5424948"
         sodipodi:end="3.5395103"
         sodipodi:open="true"
         inkscape:export-xdpi="300"
         inkscape:export-ydpi="300"
         sodipodi:arc-type="arc"
         d="m -174.86154,1004.5684 a 8.4604731,8.4604731 0 0 1 11.08552,-4.4904 8.4604731,8.4604731 0 0 1 4.49868,11.0822 8.4604731,8.4604731 0 0 1 -11.07881,4.5069 8.4604731,8.4604731 0 0 1 -4.5152,-11.0754" />
      <path
         style="display:inline;fill:#eabf17;fill-opacity:1;fill-rule:evenodd;stroke:none;stroke-width:7.06862;stroke-linecap:square;stroke-linejoin:bevel;stroke-miterlimit:4;stroke-dasharray:none;stroke-dashoffset:0;stroke-opacity:1;paint-order:normal"
         id="path9394"
         sodipodi:type="arc"
         sodipodi:cx="-89.768753"
         sodipodi:cy="1007.4197"
         sodipodi:rx="7.3143945"
         sodipodi:ry="7.3143945"
         sodipodi:start="3.5424948"
         sodipodi:end="3.5395103"
         sodipodi:open="true"
         inkscape:export-xdpi="300"
         inkscape:export-ydpi="300"
         sodipodi:arc-type="arc"
         d="m -96.503184,1004.5652 a 7.3143945,7.3143945 0 0 1 9.583841,-3.8821 7.3143945,7.3143945 0 0 1 3.889273,9.581 7.3143945,7.3143945 0 0 1 -9.578038,3.8964 7.3143945,7.3143945 0 0 1 -3.903565,-9.5751" />
      <path
         style="display:inline;fill:#eabf17;fill-opacity:1;fill-rule:evenodd;stroke:none;stroke-width:11.0981;stroke-linecap:square;stroke-linejoin:bevel;stroke-miterlimit:4;stroke-dasharray:none;stroke-dashoffset:0;stroke-opacity:1;paint-order:normal"
         id="path9396"
         sodipodi:type="arc"
         sodipodi:cx="-138.48369"
         sodipodi:cy="1026.1392"
         sodipodi:rx="11.483984"
         sodipodi:ry="11.483984"
         sodipodi:start="3.5424948"
         sodipodi:end="3.5395103"
         sodipodi:open="true"
         inkscape:export-xdpi="300"
         inkscape:export-ydpi="300"
         sodipodi:arc-type="arc"
         d="m -149.0571,1021.6575 a 11.483984,11.483984 0 0 1 15.04714,-6.0951 11.483984,11.483984 0 0 1 6.10636,15.0426 11.483984,11.483984 0 0 1 -15.03802,6.1176 11.483984,11.483984 0 0 1 -6.12881,-15.0335" />
      <path
         style="display:inline;fill:#eabf17;fill-opacity:1;fill-rule:evenodd;stroke:none;stroke-width:3.03915;stroke-linecap:square;stroke-linejoin:bevel;stroke-miterlimit:4;stroke-dasharray:none;stroke-dashoffset:0;stroke-opacity:1;paint-order:normal"
         id="path9398"
         sodipodi:type="arc"
         sodipodi:cx="-64.87471"
         sodipodi:cy="1092.6945"
         sodipodi:rx="3.1448047"
         sodipodi:ry="3.1448047"
         sodipodi:start="3.5424948"
         sodipodi:end="3.5395103"
         sodipodi:open="true"
         inkscape:export-xdpi="300"
         inkscape:export-ydpi="300"
         sodipodi:arc-type="arc"
         d="m -67.770161,1091.4672 a 3.1448047,3.1448047 0 0 1 4.120547,-1.6691 3.1448047,3.1448047 0 0 1 1.672183,4.1193 3.1448047,3.1448047 0 0 1 -4.118052,1.6752 3.1448047,3.1448047 0 0 1 -1.678328,-4.1168" />
      <path
         style="display:inline;fill:#eabf17;fill-opacity:1;fill-rule:evenodd;stroke:none;stroke-width:13.2257;stroke-linecap:square;stroke-linejoin:bevel;stroke-miterlimit:4;stroke-dasharray:none;stroke-dashoffset:0;stroke-opacity:1;paint-order:normal"
         id="path9400"
         sodipodi:type="arc"
         sodipodi:cx="-147.73689"
         sodipodi:cy="982.17737"
         sodipodi:rx="13.68567"
         sodipodi:ry="13.68567"
         sodipodi:start="3.5424948"
         sodipodi:end="3.5395103"
         sodipodi:open="true"
         inkscape:export-xdpi="300"
         inkscape:export-ydpi="300"
         sodipodi:arc-type="arc"
         d="m -160.33742,976.83655 a 13.68567,13.68567 0 0 1 17.93194,-7.26369 13.68567,13.68567 0 0 1 7.27707,17.92652 13.68567,13.68567 0 0 1 -17.92109,7.29043 13.68567,13.68567 0 0 1 -7.3038,-17.91563" />
      <path
         style="display:inline;fill:#eabf17;fill-opacity:1;fill-rule:evenodd;stroke:none;stroke-width:5.90269;stroke-linecap:square;stroke-linejoin:bevel;stroke-miterlimit:4;stroke-dasharray:none;stroke-dashoffset:0;stroke-opacity:1;paint-order:normal"
         id="path9402"
         sodipodi:type="arc"
         sodipodi:cx="-121.9306"
         sodipodi:cy="1001.0184"
         sodipodi:rx="6.1079187"
         sodipodi:ry="6.1079187"
         sodipodi:start="3.5424948"
         sodipodi:end="3.5395103"
         sodipodi:open="true"
         inkscape:export-xdpi="300"
         inkscape:export-ydpi="300"
         sodipodi:arc-type="arc"
         d="m -127.55422,998.63476 a 6.1079187,6.1079187 0 0 1 8.00303,-3.24178 6.1079187,6.1079187 0 0 1 3.24776,8.00062 6.1079187,6.1079187 0 0 1 -7.99819,3.2537 6.1079187,6.1079187 0 0 1 -3.25969,-7.99574" />
      <path
         style="display:inline;fill:#eabf17;fill-opacity:1;fill-rule:evenodd;stroke:none;stroke-width:6.26271;stroke-linecap:square;stroke-linejoin:bevel;stroke-miterlimit:4;stroke-dasharray:none;stroke-dashoffset:0;stroke-opacity:1;paint-order:normal"
         id="path9404"
         sodipodi:type="arc"
         sodipodi:cx="-122.48575"
         sodipodi:cy="1090.3975"
         sodipodi:rx="6.4804764"
         sodipodi:ry="6.4804764"
         sodipodi:start="3.5424948"
         sodipodi:end="3.5395103"
         sodipodi:open="true"
         inkscape:export-xdpi="300"
         inkscape:export-ydpi="300"
         sodipodi:arc-type="arc"
         d="m -128.45238,1087.8685 a 6.4804764,6.4804764 0 0 1 8.49118,-3.4396 6.4804764,6.4804764 0 0 1 3.44585,8.4887 6.4804764,6.4804764 0 0 1 -8.48604,3.4521 6.4804764,6.4804764 0 0 1 -3.45851,-8.4834" />
      <path
         style="display:inline;fill:#eabf17;fill-opacity:1;fill-rule:evenodd;stroke:none;stroke-width:14.6102;stroke-linecap:square;stroke-linejoin:bevel;stroke-miterlimit:4;stroke-dasharray:none;stroke-dashoffset:0;stroke-opacity:1;paint-order:normal"
         id="path9406"
         sodipodi:type="arc"
         sodipodi:cx="-99.982979"
         sodipodi:cy="1096.6765"
         sodipodi:rx="15.118111"
         sodipodi:ry="15.118111"
         sodipodi:start="3.5424948"
         sodipodi:end="3.5395103"
         sodipodi:open="true"
         inkscape:export-xdpi="300"
         inkscape:export-ydpi="300"
         sodipodi:arc-type="arc"
         d="m -113.90236,1090.7767 a 15.118111,15.118111 0 0 1 19.808823,-8.024 15.118111,15.118111 0 0 1 8.038732,19.8029 15.118111,15.118111 0 0 1 -19.796835,8.0535 15.118111,15.118111 0 0 1 -8.06827,-19.7908" />
      <g
         id="g41420"
         transform="matrix(3.7795276,0,0,3.7795276,-1278.1891,681.98004)"
         style="fill:#eabf17;fill-opacity:1;stroke-width:3.78693">
        <path
           style="display:inline;fill:#eabf17;fill-opacity:1;fill-rule:evenodd;stroke:none;stroke-width:2.53365;stroke-linecap:square;stroke-linejoin:bevel;stroke-miterlimit:4;stroke-dasharray:none;stroke-dashoffset:0;stroke-opacity:1;paint-order:normal"
           id="path1328-2"
           sodipodi:type="arc"
           sodipodi:cx="319.97525"
           sodipodi:cy="63.79097"
           sodipodi:rx="2.6217451"
           sodipodi:ry="2.6217451"
           sodipodi:start="3.5424948"
           sodipodi:end="3.5395103"
           sodipodi:open="true"
           inkscape:export-xdpi="300"
           inkscape:export-ydpi="300"
           sodipodi:arc-type="arc"
           d="m 317.56139,62.767836 a 2.6217451,2.6217451 0 0 1 3.43519,-1.391494 2.6217451,2.6217451 0 0 1 1.39406,3.434158 2.6217451,2.6217451 0 0 1 -3.43312,1.396619 2.6217451,2.6217451 0 0 1 -1.39918,-3.432074" />
        <path
           style="display:inline;fill:#eabf17;fill-opacity:1;fill-rule:evenodd;stroke:none;stroke-width:1.46752;stroke-linecap:square;stroke-linejoin:bevel;stroke-miterlimit:4;stroke-dasharray:none;stroke-dashoffset:0;stroke-opacity:1;paint-order:normal"
           id="path9404-9"
           sodipodi:type="arc"
           sodipodi:cx="315.3172"
           sodipodi:cy="64.196487"
           sodipodi:rx="1.5185412"
           sodipodi:ry="1.5185412"
           sodipodi:start="3.5424948"
           sodipodi:end="3.5395103"
           sodipodi:open="true"
           inkscape:export-xdpi="300"
           inkscape:export-ydpi="300"
           sodipodi:arc-type="arc"
           d="m 313.91906,63.603878 a 1.5185412,1.5185412 0 0 1 1.98971,-0.805967 1.5185412,1.5185412 0 0 1 0.80745,1.989099 1.5185412,1.5185412 0 0 1 -1.9885,0.808935 1.5185412,1.5185412 0 0 1 -0.81042,-1.987892" />
        <path
           style="display:inline;fill:#eabf17;fill-opacity:1;fill-rule:evenodd;stroke:none;stroke-width:1.46752;stroke-linecap:square;stroke-linejoin:bevel;stroke-miterlimit:4;stroke-dasharray:none;stroke-dashoffset:0;stroke-opacity:1;paint-order:normal"
           id="path9406-6"
           sodipodi:type="arc"
           sodipodi:cx="318.45593"
           sodipodi:cy="60.350491"
           sodipodi:rx="1.5185412"
           sodipodi:ry="1.5185412"
           sodipodi:start="3.5424948"
           sodipodi:end="3.5395103"
           sodipodi:open="true"
           inkscape:export-xdpi="300"
           inkscape:export-ydpi="300"
           sodipodi:arc-type="arc"
           d="m 317.0578,59.757881 a 1.5185412,1.5185412 0 0 1 1.9897,-0.805967 1.5185412,1.5185412 0 0 1 0.80745,1.989099 1.5185412,1.5185412 0 0 1 -1.9885,0.808936 1.5185412,1.5185412 0 0 1 -0.81041,-1.987892" />
      </g>
      <path
         style="display:inline;fill:#eabf17;fill-opacity:1;fill-rule:evenodd;stroke:none;stroke-width:7.06862;stroke-linecap:square;stroke-linejoin:bevel;stroke-miterlimit:4;stroke-dasharray:none;stroke-dashoffset:0;stroke-opacity:1;paint-order:normal"
         id="path14844"
         sodipodi:type="arc"
         sodipodi:cx="-114.78632"
         sodipodi:cy="1061.2074"
         sodipodi:rx="7.3143945"
         sodipodi:ry="7.3143945"
         sodipodi:start="3.5424948"
         sodipodi:end="3.5395103"
         sodipodi:open="true"
         inkscape:export-xdpi="300"
         inkscape:export-ydpi="300"
         sodipodi:arc-type="arc"
         d="m -121.52075,1058.353 a 7.3143945,7.3143945 0 0 1 9.58384,-3.8822 7.3143945,7.3143945 0 0 1 3.88927,9.581 7.3143945,7.3143945 0 0 1 -9.57804,3.8964 7.3143945,7.3143945 0 0 1 -3.90356,-9.5751" />
      <path
         style="display:inline;fill:#eabf17;fill-opacity:1;fill-rule:evenodd;stroke:none;stroke-width:7.06862;stroke-linecap:square;stroke-linejoin:bevel;stroke-miterlimit:4;stroke-dasharray:none;stroke-dashoffset:0;stroke-opacity:1;paint-order:normal"
         id="path14848"
         sodipodi:type="arc"
         sodipodi:cx="-106.03013"
         sodipodi:cy="1024.932"
         sodipodi:rx="7.3143945"
         sodipodi:ry="7.3143945"
         sodipodi:start="3.5424948"
         sodipodi:end="3.5395103"
         sodipodi:open="true"
         inkscape:export-xdpi="300"
         inkscape:export-ydpi="300"
         sodipodi:arc-type="arc"
         d="m -112.76456,1022.0776 a 7.3143945,7.3143945 0 0 1 9.58384,-3.8822 7.3143945,7.3143945 0 0 1 3.889275,9.581 7.3143945,7.3143945 0 0 1 -9.578035,3.8964 7.3143945,7.3143945 0 0 1 -3.90357,-9.5751" />
      <path
         style="display:inline;fill:#eabf17;fill-opacity:1;fill-rule:evenodd;stroke:none;stroke-width:6.26271;stroke-linecap:square;stroke-linejoin:bevel;stroke-miterlimit:4;stroke-dasharray:none;stroke-dashoffset:0;stroke-opacity:1;paint-order:normal"
         id="path14852"
         sodipodi:type="arc"
         sodipodi:cx="-135.18422"
         sodipodi:cy="1049.8065"
         sodipodi:rx="6.4804759"
         sodipodi:ry="6.4804759"
         sodipodi:start="3.5424948"
         sodipodi:end="3.5395103"
         sodipodi:open="true"
         inkscape:export-xdpi="300"
         inkscape:export-ydpi="300"
         sodipodi:arc-type="arc"
         d="m -141.15085,1047.2775 a 6.4804759,6.4804759 0 0 1 8.49118,-3.4395 6.4804759,6.4804759 0 0 1 3.44585,8.4886 6.4804759,6.4804759 0 0 1 -8.48604,3.4522 6.4804759,6.4804759 0 0 1 -3.45852,-8.4835" />
      <path
         style="display:inline;fill:#eabf17;fill-opacity:1;fill-rule:evenodd;stroke:none;stroke-width:7.06862;stroke-linecap:square;stroke-linejoin:bevel;stroke-miterlimit:4;stroke-dasharray:none;stroke-dashoffset:0;stroke-opacity:1;paint-order:normal"
         id="path14854"
         sodipodi:type="arc"
         sodipodi:cx="-147.0107"
         sodipodi:cy="1078.4336"
         sodipodi:rx="7.3143945"
         sodipodi:ry="7.3143945"
         sodipodi:start="3.5424948"
         sodipodi:end="3.5395103"
         sodipodi:open="true"
         inkscape:export-xdpi="300"
         inkscape:export-ydpi="300"
         sodipodi:arc-type="arc"
         d="m -153.74513,1075.5792 a 7.3143945,7.3143945 0 0 1 9.58384,-3.8822 7.3143945,7.3143945 0 0 1 3.88928,9.581 7.3143945,7.3143945 0 0 1 -9.57804,3.8964 7.3143945,7.3143945 0 0 1 -3.90357,-9.5751" />
      <path
         style="display:inline;fill:#eabf17;fill-opacity:1;fill-rule:evenodd;stroke:none;stroke-width:3.7305;stroke-linecap:square;stroke-linejoin:bevel;stroke-miterlimit:4;stroke-dasharray:none;stroke-dashoffset:0;stroke-opacity:1;paint-order:normal"
         id="path14840"
         sodipodi:type="arc"
         sodipodi:cx="-131.02832"
         sodipodi:cy="969.00916"
         sodipodi:rx="3.8602183"
         sodipodi:ry="3.8602183"
         sodipodi:start="3.5424948"
         sodipodi:end="3.5395103"
         sodipodi:open="true"
         inkscape:export-xdpi="300"
         inkscape:export-ydpi="300"
         sodipodi:arc-type="arc"
         d="m -134.58246,967.50271 a 3.8602183,3.8602183 0 0 1 5.05793,-2.04882 3.8602183,3.8602183 0 0 1 2.05259,5.05641 3.8602183,3.8602183 0 0 1 -5.05487,2.05636 3.8602183,3.8602183 0 0 1 -2.06013,-5.05334" />
      <path
         style="display:inline;fill:#eabf17;fill-opacity:1;fill-rule:evenodd;stroke:none;stroke-width:3.03915;stroke-linecap:square;stroke-linejoin:bevel;stroke-miterlimit:4;stroke-dasharray:none;stroke-dashoffset:0;stroke-opacity:1;paint-order:normal"
         id="path14860"
         sodipodi:type="arc"
         sodipodi:cx="-152.43604"
         sodipodi:cy="1040.9916"
         sodipodi:rx="3.1448047"
         sodipodi:ry="3.1448047"
         sodipodi:start="3.5424948"
         sodipodi:end="3.5395103"
         sodipodi:open="true"
         inkscape:export-xdpi="300"
         inkscape:export-ydpi="300"
         sodipodi:arc-type="arc"
         d="m -155.33149,1039.7643 a 3.1448047,3.1448047 0 0 1 4.12055,-1.6691 3.1448047,3.1448047 0 0 1 1.67218,4.1193 3.1448047,3.1448047 0 0 1 -4.11805,1.6753 3.1448047,3.1448047 0 0 1 -1.67833,-4.1168" />
      <path
         style="display:inline;fill:#eabf17;fill-opacity:1;fill-rule:evenodd;stroke:none;stroke-width:3.03915;stroke-linecap:square;stroke-linejoin:bevel;stroke-miterlimit:4;stroke-dasharray:none;stroke-dashoffset:0;stroke-opacity:1;paint-order:normal"
         id="path14864"
         sodipodi:type="arc"
         sodipodi:cx="-111.1572"
         sodipodi:cy="1043.0764"
         sodipodi:rx="3.1448047"
         sodipodi:ry="3.1448047"
         sodipodi:start="3.5424948"
         sodipodi:end="3.5395103"
         sodipodi:open="true"
         inkscape:export-xdpi="300"
         inkscape:export-ydpi="300"
         sodipodi:arc-type="arc"
         d="m -114.05265,1041.8492 a 3.1448047,3.1448047 0 0 1 4.12054,-1.6691 3.1448047,3.1448047 0 0 1 1.67219,4.1193 3.1448047,3.1448047 0 0 1 -4.11806,1.6752 3.1448047,3.1448047 0 0 1 -1.67832,-4.1168" />
      <path
         style="display:inline;fill:#eabf17;fill-opacity:1;fill-rule:evenodd;stroke:none;stroke-width:3.03915;stroke-linecap:square;stroke-linejoin:bevel;stroke-miterlimit:4;stroke-dasharray:none;stroke-dashoffset:0;stroke-opacity:1;paint-order:normal"
         id="path14868"
         sodipodi:type="arc"
         sodipodi:cx="-106.57063"
         sodipodi:cy="1008.8857"
         sodipodi:rx="3.1448047"
         sodipodi:ry="3.1448047"
         sodipodi:start="3.5424948"
         sodipodi:end="3.5395103"
         sodipodi:open="true"
         inkscape:export-xdpi="300"
         inkscape:export-ydpi="300"
         sodipodi:arc-type="arc"
         d="m -109.46608,1007.6584 a 3.1448047,3.1448047 0 0 1 4.12054,-1.6691 3.1448047,3.1448047 0 0 1 1.67219,4.1193 3.1448047,3.1448047 0 0 1 -4.11806,1.6753 3.1448047,3.1448047 0 0 1 -1.67832,-4.1168" />
    </g>
    <text
       xml:space="preserve"
       style="font-size:5.20291px;font-family:'DejaVu Sans';-inkscape-font-specification:'DejaVu Sans';text-align:center;text-anchor:middle;fill:#69625f;stroke:#922c00;stroke-width:1.56333;stroke-linecap:round"
       x="-2.505265"
       y="34.179459"
       id="text11245"><tspan
         sodipodi:role="line"
         id="tspan11243"
         style="font-size:5.20291px;fill:#ff6633;fill-opacity:1;stroke:none;stroke-width:1.56333"
         x="-2.5052662"
         y="34.179459">Create and manage</tspan><tspan
         sodipodi:role="line"
         style="font-size:5.20291px;fill:#ff6633;fill-opacity:1;stroke:none;stroke-width:1.56333"
         x="-2.5052648"
         y="40.683094"
         id="tspan11762"> synapses</tspan></text>
  </g>
</svg>
