<?xml version="1.0" encoding="UTF-8" standalone="no"?>
<!-- Created with Inkscape (http://www.inkscape.org/) -->
<svg width="37.416809mm" height="23.332952mm" viewBox="-1 -1 39.417 24.580262" version="1.1" id="svg6286" inkscape:version="1.2.2 (b0a8486, 2022-12-01)" sodipodi:docname="synapse_illustration.svg" xmlns:inkscape="http://www.inkscape.org/namespaces/inkscape" xmlns:sodipodi="http://sodipodi.sourceforge.net/DTD/sodipodi-0.dtd" xmlns="http://www.w3.org/2000/svg" xmlns:svg="http://www.w3.org/2000/svg">
  <sodipodi:namedview id="namedview6288" pagecolor="#ffffff" bordercolor="#666666" borderopacity="1.0" inkscape:showpageshadow="2" inkscape:pageopacity="0.0" inkscape:pagecheckerboard="0" inkscape:deskcolor="#d1d1d1" inkscape:document-units="mm" showgrid="false" inkscape:zoom="3.659624" inkscape:cx="251.11869" inkscape:cy="134.57667" inkscape:window-width="2560" inkscape:window-height="1411" inkscape:window-x="1080" inkscape:window-y="0" inkscape:window-maximized="1" inkscape:current-layer="layer1"/>
  <defs id="defs6283">
    <inkscape:path-effect effect="simplify" id="path-effect1358" is_visible="true" steps="1" threshold="0.00159091" smooth_angles="360" helper_size="0" simplify_individual_paths="false" simplify_just_coalesce="false" simplifyindividualpaths="false" simplifyJustCoalesce="false" lpeversion="0"/>
    <inkscape:path-effect effect="simplify" id="path-effect1362" is_visible="true" steps="1" threshold="0.00159091" smooth_angles="360" helper_size="0" simplify_individual_paths="false" simplify_just_coalesce="false" simplifyindividualpaths="false" simplifyJustCoalesce="false" lpeversion="0"/>
    <inkscape:path-effect simplifyJustCoalesce="false" simplifyindividualpaths="false" simplify_just_coalesce="false" simplify_individual_paths="false" helper_size="0" smooth_angles="360" threshold="0.00159091" steps="1" is_visible="true" id="path-effect1366" effect="simplify" lpeversion="0"/>
    <inkscape:path-effect effect="simplify" id="path-effect1370" is_visible="true" steps="1" threshold="0.00159091" smooth_angles="360" helper_size="0" simplify_individual_paths="false" simplify_just_coalesce="false" simplifyindividualpaths="false" simplifyJustCoalesce="false" lpeversion="0"/>
    <inkscape:path-effect effect="simplify" id="path-effect1374" is_visible="true" steps="1" threshold="0.00159091" smooth_angles="360" helper_size="0" simplify_individual_paths="false" simplify_just_coalesce="false" simplifyindividualpaths="false" simplifyJustCoalesce="false" lpeversion="0"/>
    <inkscape:path-effect simplifyJustCoalesce="false" simplifyindividualpaths="false" simplify_just_coalesce="false" simplify_individual_paths="false" helper_size="0" smooth_angles="360" threshold="0.00159091" steps="1" is_visible="true" id="path-effect1378" effect="simplify" lpeversion="0"/>
    <inkscape:path-effect effect="simplify" id="path-effect1358-3" is_visible="true" steps="1" threshold="0.00159091" smooth_angles="360" helper_size="0" simplify_individual_paths="false" simplify_just_coalesce="false" simplifyindividualpaths="false" simplifyJustCoalesce="false" lpeversion="0"/>
    <inkscape:path-effect effect="simplify" id="path-effect1362-6" is_visible="true" steps="1" threshold="0.00159091" smooth_angles="360" helper_size="0" simplify_individual_paths="false" simplify_just_coalesce="false" simplifyindividualpaths="false" simplifyJustCoalesce="false" lpeversion="0"/>
    <inkscape:path-effect simplifyJustCoalesce="false" simplifyindividualpaths="false" simplify_just_coalesce="false" simplify_individual_paths="false" helper_size="0" smooth_angles="360" threshold="0.00159091" steps="1" is_visible="true" id="path-effect1366-7" effect="simplify" lpeversion="0"/>
    <inkscape:path-effect effect="simplify" id="path-effect1370-5" is_visible="true" steps="1" threshold="0.00159091" smooth_angles="360" helper_size="0" simplify_individual_paths="false" simplify_just_coalesce="false" simplifyindividualpaths="false" simplifyJustCoalesce="false" lpeversion="0"/>
    <inkscape:path-effect effect="simplify" id="path-effect1374-3" is_visible="true" steps="1" threshold="0.00159091" smooth_angles="360" helper_size="0" simplify_individual_paths="false" simplify_just_coalesce="false" simplifyindividualpaths="false" simplifyJustCoalesce="false" lpeversion="0"/>
    <inkscape:path-effect simplifyJustCoalesce="false" simplifyindividualpaths="false" simplify_just_coalesce="false" simplify_individual_paths="false" helper_size="0" smooth_angles="360" threshold="0.00159091" steps="1" is_visible="true" id="path-effect1378-5" effect="simplify" lpeversion="0"/>
  </defs>
  <g inkscape:label="Layer 1" inkscape:groupmode="layer" id="layer1" transform="translate(32.447351,3.21453)">
    <g id="g13408" transform="matrix(0.02658481,0.06454561,-0.0646804,0.02658007,57.125552,-14.022397)" style="stroke-width:3.78693">
      <g id="g1286" transform="matrix(13.012574,0,0,13.012574,-261.79925,-1075.7274)" inkscape:export-xdpi="300" inkscape:export-ydpi="300" style="display:inline;stroke-width:3.78693">
        <path transform="matrix(0.98973031,0,0,-1.0000938,0.03743202,326.65043)" inkscape:connector-curvature="0" d="m 17.079799,168.18099 c -1.63395,0.24668 -3.30672,0.30418 -4.931128,0.0585 -1.823803,-0.27584 -3.665101,-0.073 -5.5043016,-0.27741 -0.3675573,-0.0408 -0.663761,-0.27611 -0.9283092,-0.52128 -0.3090058,-0.28637 -0.5619851,-0.69878 -0.9907123,-0.80143 -0.3220985,-0.0771 -0.5956304,0.17228 -0.7750643,0.41599 -0.5099896,0.69267 -0.8067515,1.53132 -0.9098765,2.37177 -0.1116049,0.90956 0.20358,1.86481 0.8157865,2.53741 0.3223756,0.35418 0.6681996,0.68779 1.057613,0.96965 1.3474105,0.97528 2.9286069,1.61731 4.1735929,2.72711 0.6193743,0.55212 1.2545555,1.2051 1.3956405,2.04676 0.138221,0.82458 0.332382,1.65147 0.322121,2.48801 -0.0049,0.4033 0.02497,0.81081 0.09874,1.20765 0.06224,0.3348 0.05438,0.87726 0.411192,0.94565 0.243064,0.0466 0.27228,0.29883 0.371548,0.49361 0.284991,0.55919 0.694216,1.13975 1.33336,1.30946 0.561708,0.14915 1.130819,-0.0411 1.650235,-0.23294 0.222438,-0.0822 0.461421,0.17377 0.652207,0.0942 0.40974,-0.17082 0.58553,-0.63056 0.690104,-1.02686 0.261532,-0.99111 0.285376,-2.02422 0.325061,-3.04275 0.03408,-0.87471 -0.116269,-1.77942 0.119047,-2.62413 0.09815,-0.35231 0.300079,-0.67356 0.522945,-0.96097 0.779746,-1.00555 1.925236,-1.61911 3.017841,-2.22077 0.620809,-0.34186 1.225487,-0.71564 1.769736,-1.17291 0.657226,-0.55219 1.331598,-1.15545 1.677256,-1.95008 0.335387,-0.77102 0.416998,-1.6499 0.251245,-2.47368 -0.08492,-0.42204 -0.29321,-0.80566 -0.553546,-1.14566 -0.220668,-0.28819 -0.398242,-0.63837 -0.714966,-0.82695 -0.249599,-0.14861 -0.437815,0.15734 -0.529846,0.34463 -0.109433,0.22271 -0.256733,0.42763 -0.476014,0.55708 -0.548363,0.32373 -1.193559,0.3378 -1.805968,0.43795 -0.838825,0.13717 -1.68299,0.27804 -2.535537,0.27236 z" id="path1276" style="display:inline;opacity:1;fill:#1281b3;fill-opacity:1;stroke:none;stroke-width:1.00196px;stroke-linecap:butt;stroke-linejoin:miter;stroke-opacity:1" sodipodi:nodetypes="cccccccsssccccccccccc" inkscape:original-d="m 17.079799,168.18099 c -1.632501,0.24679 -3.291358,0.0893 -4.931128,0.0585 -1.750108,-0.27878 -3.942732,0.093 -5.6673257,-0.31326 -0.9118912,-0.17278 -1.4397048,-1.86196 -2.3341506,-1.10883 -0.6422352,0.69931 -0.8861863,1.64717 -1.0922451,2.52059 -0.1738066,0.94349 0.2536902,2.13101 0.9619482,2.7904 1.0150965,1.19708 3.2833897,2.12271 4.9911211,3.46361 0.2115762,0.18258 0.4247334,0.38305 0.6217543,0.59988 0.197021,0.21683 0.3779058,0.45002 0.5249368,0.69803 0.147031,0.24801 0.260209,0.51084 0.321815,0.78694 0.06161,0.27611 0.382227,2.4097 0.322975,2.71083 0.07284,0.72589 0.09058,1.93179 0.693161,2.03225 1.360069,3.26638 3.157454,0.89115 3.798164,1.60464 1.363086,-0.42776 0.912108,-5.3432 1.177765,-6.77418 0.766738,-1.911 2.952621,-2.68003 4.566345,-3.72826 0.883058,-0.62062 1.73952,-1.38398 2.275906,-2.2574 0.502121,-0.8014 0.736528,-2.5684 0.0083,-3.61933 -1.000672,-1.42075 -1.066825,-1.38648 -1.5743,-0.46079 -0.507115,0.64245 -1.414216,0.49871 -2.129505,0.72402 -0.837278,0.13699 -1.685811,0.27836 -2.535531,0.27229 z" inkscape:path-effect="#path-effect1358-3"/>
        <g transform="matrix(0.99980292,0.01985239,0.01985239,-0.99980292,-2.5177236,327.34229)" id="g1284" style="stroke:#26d9ff;stroke-width:3.78693;stroke-opacity:1">
          <path id="path1278" style="fill:#08374d;fill-opacity:1;stroke:#aef1ff;stroke-width:3.78693px;stroke-linecap:round;stroke-linejoin:round;stroke-opacity:1" d="m 31.603283,648.51547 c -4.42148,-0.0876 -7.938652,-3.55878 -7.856353,-7.75353 0.01907,-0.9033 0.207823,-1.7958 0.557378,-2.63556 -3.441561,-0.35923 -6.789407,-1.60378 -7.900319,-2.28823 -1.110912,-0.68446 -2.361785,-1.50656 -2.058089,-2.80942 0.335882,-1.10093 2.677681,-1.78245 4.636818,-2.28019 5.308502,-1.38666 10.476002,-2.0173 15.796605,-2.29169 11.257773,-0.57087 20.413111,-0.22379 33.430756,1.55735 6.515464,1.17738 9.834852,2.03449 11.279915,3.59904 0.790967,0.78017 -0.06409,2.0277 -1.388198,2.90073 -1.502693,0.69454 -2.846853,1.21259 -6.577509,1.94542 -8.617699,1.31567 -18.601504,1.48921 -21.498845,1.48889 -2.897341,-3.2e-4 -4.744671,-0.17354 -10.421619,-0.47888 0.11188,0.53019 0.163836,1.07007 0.154986,1.61048 -0.08427,4.19381 -3.734975,7.52225 -8.155526,7.43559 z" transform="scale(0.26458333)" sodipodi:nodetypes="ccczccccccczccc"/>
          <path sodipodi:nodetypes="csscssc" inkscape:connector-curvature="0" d="m 4.7692962,166.95624 c -0.423747,0.13028 -0.8778801,0.22665 -1.2382257,0.4869 -0.2106392,0.15213 -0.3802272,0.35875 -0.5220586,0.57445 -0.3771982,0.57366 -0.5877301,1.23742 -0.7505119,1.89881 -0.1559358,0.63357 -0.1373586,1.31169 0.088419,1.92807 0.2297183,0.62714 0.6226108,1.18635 1.1114405,1.63979 0.9111783,0.84522 2.0088878,1.44609 3.0537974,2.10538 0.751422,0.47411 1.5233109,0.94873 2.1246521,1.61245 0.3705581,0.409 0.6370493,0.91666 0.7515766,1.45424 0.097496,0.45764 0.121742,0.9267 0.1623139,1.3918 0.077543,0.88891 0.160928,1.77765 0.2152991,2.66833" id="path1280" style="fill:none;stroke:#aef1ff;stroke-width:1.00196px;stroke-linecap:round;stroke-linejoin:miter;stroke-opacity:1" inkscape:original-d="m 4.7692962,166.95624 c -0.4956748,0.1432 -1.1795688,0.41626 -1.3124366,0.53964 -0.4004679,0.37187 -0.7507586,0.87002 -1.0763521,1.96613 -0.2662256,0.89625 -0.4814812,1.94682 0.4660208,3.3333 1.4239175,1.99118 5.2051895,3.13891 6.18882,4.9632 0.2532421,0.46967 0.3610371,0.83879 0.4106412,1.21758 0.049604,0.37878 0.2995313,3.23202 0.3200094,3.74037" inkscape:path-effect="#path-effect1362-6"/>
          <path transform="matrix(-1,0,0,1,24.819498,0.14174107)" style="fill:none;stroke:#aef1ff;stroke-width:1.00196px;stroke-linecap:round;stroke-linejoin:round;stroke-opacity:1" id="path1282" d="m 4.4099472,167.11372 c -0.5984475,0.0616 -1.1092784,0.45982 -1.4404166,0.94448 -0.5068009,0.74177 -0.7406352,1.65037 -0.7426496,2.54118 -0.00159,0.70489 0.095082,1.47324 0.5555746,2.02492 0.1551972,0.18593 0.2873949,0.39027 0.4630765,0.55993 0.5916093,0.57133 1.2941678,1.00925 1.9827404,1.45192 1.0441878,0.67129 2.1260053,1.29834 3.0714027,2.10891 0.4544748,0.38966 0.8581193,0.85681 1.0807174,1.42044 0.179886,0.45548 0.268927,0.94284 0.2885257,1.43267 0.046041,1.15071 0.077711,2.30207 0.1000101,3.45346" inkscape:connector-curvature="0" sodipodi:nodetypes="ccssssc" inkscape:original-d="m 4.4099472,167.11372 c -2.1125352,0.23901 -2.8497193,4.18899 -1.507752,5.65512 0.8707063,1.38743 5.0310834,3.0965 6.1771079,4.8234 0.058738,0.0885 0.1271067,0.20002 0.196739,0.34037 0.069632,0.14036 0.1405286,0.30955 0.2043218,0.51341 0.063793,0.20386 0.1204836,0.4424 0.1617042,0.72144 0.041221,0.27904 0.1249457,3.51827 0.1268603,3.88417" inkscape:path-effect="#path-effect1366-7"/>
        </g>
      </g>
      <g id="g1302" transform="matrix(13.012574,0,0,13.012574,-263.46708,-1068.8415)" inkscape:export-xdpi="300" inkscape:export-ydpi="300" style="display:inline;stroke-width:3.78693">
        <g id="g1300" style="stroke-width:3.78693">
          <path style="display:inline;opacity:1;fill:#1281b3;fill-opacity:1;stroke:none;stroke-width:1.00196px;stroke-linecap:butt;stroke-linejoin:miter;stroke-opacity:1" id="path1288" d="m 17.095987,168.02079 c -1.711982,0.0437 -3.425726,0.12084 -5.137427,0.0611 -1.620244,-0.0566 -3.2350052,-0.25619 -4.8257613,-0.57226 -0.4873429,-0.0968 -0.9709245,-0.22685 -1.4121528,-0.47028 -0.320385,-0.17676 -0.5632813,-0.46337 -0.8772761,-0.64666 -0.2378461,-0.13884 -0.4540158,0.0962 -0.5857651,0.2707 -0.191936,0.25417 -0.393313,0.50494 -0.5059715,0.80953 -0.2405191,0.65028 -0.2917893,1.345 -0.4013446,2.02455 -0.1486886,0.92228 0.2024171,1.88055 0.8667349,2.54708 1.0755211,1.0791 2.4462392,1.77981 3.7335688,2.56555 0.4846787,0.29583 0.9321956,0.64553 1.3561934,1.02445 0.6183062,0.55257 1.2442483,1.23867 1.3098643,2.09648 0.03271,0.42758 0.0068,0.85803 0.0037,1.28686 -0.01094,1.49029 -0.09015,2.99446 0.13773,4.46943 0.04006,0.25931 0.0023,0.57473 0.186004,0.76777 0.221016,0.23231 0.574121,0.23014 0.872001,0.22092 0.332456,-0.0103 0.660791,-0.0513 0.992329,-0.0791 0.370522,-0.0311 0.58682,-0.37039 0.742423,-0.67072 0.120246,-0.23209 0.280873,-0.53144 0.579788,-0.52691 0.403557,0.006 0.700415,0.327 0.993279,0.56389 0.256454,0.20744 0.559918,0.56666 0.900232,0.44203 0.232378,-0.0851 0.183265,-0.41479 0.165965,-0.61508 -0.04531,-0.52459 -0.198529,-1.03236 -0.206891,-1.5629 -0.01287,-0.81672 0.01357,-1.63431 0.06631,-2.44985 0.04417,-0.68302 0.151056,-1.37057 0.46826,-1.99653 0.154304,-0.3045 0.296959,-0.61833 0.495809,-0.90006 0.761876,-1.07943 1.916464,-1.77922 3.034702,-2.43413 0.719779,-0.42155 1.431459,-0.86296 2.085441,-1.38085 0.46824,-0.3708 0.941263,-0.78272 1.207162,-1.31686 0.45278,-0.90955 0.599095,-1.97868 0.379004,-2.97331 -0.07612,-0.34399 -0.275878,-0.64147 -0.413434,-0.96331 -0.166425,-0.38939 -0.372897,-0.77676 -0.689472,-1.07077 -0.212633,-0.19748 -0.456942,0.0238 -0.534085,0.25116 -0.06674,0.19667 -0.104178,0.38222 -0.29169,0.5216 -0.614364,0.45665 -1.404546,0.56115 -2.146167,0.6178 -0.848258,0.0648 -1.700548,0.0327 -2.549031,0.0887 z" inkscape:connector-curvature="0" transform="matrix(0.98973031,0,0,1.0000938,0.1042494,-0.01630641)" sodipodi:nodetypes="czcccccccscscssccccccc" inkscape:original-d="m 17.095987,168.02079 c -0.960417,0.0302 -3.637363,0.0843 -4.947316,0.065 -1.309953,-0.0192 -3.5369652,-0.22577 -5.2615589,-0.63201 -2.0258177,-0.33981 -1.9129823,-1.85721 -2.7399174,-0.6364 -0.6422352,0.69931 -0.575894,1.71803 -0.7819528,2.59145 -0.1738066,0.94349 0.1104783,1.94204 0.8187363,2.60143 1.4010047,1.46477 3.9517115,2.47703 4.9672525,3.48723 0.8463047,0.73031 1.4314823,1.46351 1.4808963,2.4082 -0.01131,0.62278 -0.01926,2.33941 -0.01926,2.33941 0,0 -0.0097,3.72332 0.365214,4.05034 0.374894,0.32701 1.322794,0.11985 1.610682,0.10363 1.026199,0.0916 0.857645,-1.17743 1.541826,-1.19983 0.68418,-0.0224 1.313401,1.19584 1.953489,0.99078 0.251264,-0.20143 0.02854,-1.0932 -0.06211,-1.61003 -0.08309,-0.47375 -0.03885,-2.52745 0.02752,-3.00266 0.04318,-0.30921 0.0035,-1.29364 0.51458,-2.06989 0.766738,-1.911 2.857147,-2.8193 4.470871,-3.86753 0.883058,-0.62062 1.467037,-0.90832 2.277272,-2.03646 0.619112,-1.15454 0.735162,-2.90745 0.0069,-3.95838 -0.262613,-0.69034 -1.03445,-1.97922 -1.331486,-0.50885 -0.963993,1.02766 -3.311773,0.77221 -4.89167,0.88455 z" inkscape:path-effect="#path-effect1370-5"/>
          <g style="display:inline;stroke-width:3.78693" id="g1298" transform="translate(1.1197783,-1.1251507)">
            <path sodipodi:nodetypes="ccccccccccc" inkscape:connector-curvature="0" id="path1290" transform="scale(0.26458333)" d="m 34.779297,628.45703 c -5.320608,0.27439 -10.488367,0.90436 -15.796875,2.29102 -1.959139,0.49774 -3.690261,1.04536 -4.636719,2.28153 -0.790617,1.49026 0.887394,2.00441 2.045202,2.55078 4.123704,1.58341 6.959261,2.57131 13.484933,3.25893 8.950107,0.72593 20.15011,1.10882 20.15011,1.10882 0,0 12.880618,-0.1729 21.498326,-1.48857 3.73066,-0.73283 5.073758,-1.24993 6.576452,-1.94447 1.324114,-0.87303 2.179639,-2.12134 1.388671,-2.90151 -1.445064,-1.56455 -4.76271,-2.42194 -11.278181,-3.59932 -13.017658,-1.78115 -22.174134,-2.12808 -33.431919,-1.55721 z" style="fill:#1281b3;fill-opacity:1;stroke:#204244;stroke-width:3.78693px;stroke-linecap:butt;stroke-linejoin:miter;stroke-opacity:1"/>
            <path sodipodi:nodetypes="csscssc" inkscape:connector-curvature="0" d="m 5.2718817,166.82168 c -0.6235817,0.17603 -1.2777778,0.33392 -1.807675,0.72079 -0.4626989,0.33781 -0.7529958,0.8611 -0.9407434,1.39003 -0.3152209,0.88805 -0.4082908,1.87619 -0.1614785,2.79051 0.1028499,0.38101 0.3198855,0.71478 0.5402104,1.04583 0.330034,0.4959 0.8064998,0.87022 1.2765344,1.22495 1.3380049,1.00979 2.8304143,1.81762 4.0749111,2.9458 0.3257905,0.29534 0.6864152,0.58498 0.8829836,0.98283 0.2922204,0.59145 0.4110331,1.25737 0.4249829,1.911 0.03852,1.80489 0.043307,3.61041 0.081549,5.41533" id="path1292" style="fill:none;stroke:#204244;stroke-width:1.00196px;stroke-linecap:round;stroke-linejoin:round;stroke-opacity:1" inkscape:original-d="m 5.2718817,166.82168 c -1.3124744,0.35179 -1.8322427,0.64348 -2.1774607,1.07031 -0.345218,0.42683 -0.5934797,0.9888 -0.7337882,1.58912 -0.280617,1.20064 -0.1294213,2.55466 0.5415624,3.28773 0.8707063,1.38743 4.9043822,3.32063 6.1331531,4.98967 0.2414304,0.32794 0.4823373,1.0977 0.5262589,2.07491 0.018392,0.40921 0.055574,4.41815 0.081549,5.41533" inkscape:path-effect="#path-effect1374-3"/>
            <path transform="matrix(-1,0,0,1,24.819498,0.14174107)" style="fill:none;stroke:#204244;stroke-width:1.00196px;stroke-linecap:round;stroke-linejoin:round;stroke-opacity:1" id="path1294" d="m 4.4099472,167.11372 c -0.6262516,0.0644 -1.1525159,0.49561 -1.4848808,1.00984 -0.5092577,0.78792 -0.7289624,1.74488 -0.6955843,2.67548 0.025375,0.70748 0.2727442,1.39377 0.685264,1.98883 0.4105408,0.59221 0.9958411,1.03309 1.5752491,1.44771 1.2089829,0.86513 2.5224601,1.5863 3.6582691,2.55147 0.4078995,0.34662 0.7565861,0.75776 1.0375992,1.21661 0.3392054,0.55387 0.5817575,1.17045 0.6640878,1.81703 0.1072693,0.84244 0.1835797,1.69198 0.1705457,2.54154 -0.01398,0.91109 -0.1479831,1.81748 -0.1431698,2.72837 2.306e-4,0.0436 0.00111,0.0873 0.00444,0.13083" inkscape:connector-curvature="0" sodipodi:nodetypes="ccsssc" inkscape:original-d="m 4.4099472,167.11372 c -2.1125352,0.23901 -2.8497193,4.18899 -1.507752,5.65512 1.0596944,1.62367 5.0239376,3.2389 6.1331531,4.98967 0.5284741,0.83414 0.7083319,1.36203 0.810314,2.03321 0.043719,0.28773 0.1540399,1.26407 0.1747457,2.24932 0.02071,0.98525 -0.1747626,2.71721 -0.1386421,3.18039" inkscape:path-effect="#path-effect1378-5"/>
            <path sodipodi:nodetypes="ccccccccccc" inkscape:connector-curvature="0" id="path1296" d="m 9.8025423,166.5543 c -1.1473238,0.0592 -2.2616875,0.19502 -3.4064021,0.49403 -0.4224643,0.10734 -0.9479627,0.2094 -0.9998515,0.49199 -0.084089,0.35548 0.3349889,0.43223 0.4410227,0.55004 0.9283989,0.45243 1.5006792,0.55447 2.9078602,0.70275 1.9299804,0.15654 4.3451234,0.2391 4.3451234,0.2391 0,0 2.777548,-0.0373 4.63585,-0.32099 0.804472,-0.15802 1.094094,-0.26953 1.418132,-0.4193 0.285529,-0.18826 0.470012,-0.45744 0.299449,-0.62567 -0.31161,-0.33738 -1.027019,-0.52226 -2.432001,-0.77615 -2.807098,-0.38409 -4.78158,-0.4589 -7.2091827,-0.3358 z" style="fill:#08374d;fill-opacity:1;stroke:none;stroke-width:0.816606px;stroke-linecap:butt;stroke-linejoin:miter;stroke-opacity:1"/>
          </g>
        </g>
      </g>
      <path id="path1324" style="fill:#08394d;fill-opacity:1;stroke-width:6.12495;stroke-linecap:round;stroke-linejoin:round;stroke-miterlimit:5" d="m -80.378133,862.57983 c -5.432895,0.69487 -9.815427,4.27744 -14.106875,7.38074 -3.122896,2.36009 -6.706872,4.37527 -10.692962,4.63741 -3.21039,0.29352 -6.44811,-0.0307 -9.65624,0.13325 -1.51783,0.33651 -1.92275,2.12872 -2.81064,3.20161 -4.4587,6.59314 -8.8201,13.3772 -14.69391,18.8299 -6.75525,7.07568 -12.536,15.17052 -20.34972,21.1695 -7.45275,5.213 -16.291,7.7609 -24.46317,11.5643 -6.94105,3.0419 -14.02935,6.1999 -19.75016,11.2785 -3.28067,3.9197 -4.13905,9.1214 -5.33671,13.9343 -1.52049,7.0459 -1.64627,14.5228 0.61475,21.4287 1.54431,5.5098 3.74642,10.803 5.88075,16.1029 0.92845,1.1093 2.40339,0.1757 3.4661,-0.1915 19.39121,-6.0655 39.74091,-8.0462 59.92701,-9.3389 28.73007,-1.7764 57.563978,-1.491 86.290124,0.2064 17.67479,1.1889 35.42582,3.2513 52.4501102,8.3357 5.2995998,1.6258 10.4996198,3.578 15.5475898,5.8698 4.75175,-13.7821 9.09736,-27.9501 9.68963,-42.6184 0.29045,-6.3986 -2.21407,-13.0164 -7.16091,-17.1922 -6.98453,-6.761 -16.0715698,-10.591 -24.72146977,-14.7095 -8.74071003,-4.0514 -17.43139023,-8.54995 -24.66673023,-15.00769 -9.57286,-7.87844 -18.50289,-16.61565 -26.05374,-26.46923 -1.99645,-2.9803 -3.68823,-6.15808 -5.78775,-9.07059 -5.98185,-3.33737 -11.692944,-7.48501 -18.4332,-9.15981 -1.701178,-0.35431 -3.450045,-0.4894 -5.181877,-0.31501 z" sodipodi:nodetypes="cszcssscsscccccccc" class="UnoptimicedTransforms"/>
      <path style="display:inline;fill:#ffffff;fill-opacity:1;stroke:#aef1ff;stroke-width:19.534;stroke-linecap:round;stroke-linejoin:round;stroke-miterlimit:5;stroke-dasharray:none;stroke-opacity:1" d="m -168.09153,988.26314 c 0,0 -1.53336,-2.0544 -1.80809,-9.1108 -0.54947,-14.1125 11.27244,-26.0379 26.40491,-26.6361 15.13244,-0.5982 28.87711,11.5367 29.42661,25.6492 -0.0752,2.7951 0.39893,4.7453 0.12851,5.9243" id="path1326" sodipodi:nodetypes="csscc"/>
      <path style="display:inline;fill:#eabf17;fill-opacity:1;fill-rule:evenodd;stroke:none;stroke-width:10.2922;stroke-linecap:square;stroke-linejoin:bevel;stroke-miterlimit:4;stroke-dasharray:none;stroke-dashoffset:0;stroke-opacity:1;paint-order:normal" id="path1328" sodipodi:type="arc" sodipodi:cx="-90.569572" sodipodi:cy="1057.7286" sodipodi:rx="10.650065" sodipodi:ry="10.650065" sodipodi:start="3.5424948" sodipodi:end="3.5395103" sodipodi:open="true" inkscape:export-xdpi="300" inkscape:export-ydpi="300" sodipodi:arc-type="arc" d="m -100.37519,1053.5725 a 10.650065,10.650065 0 0 1 13.954479,-5.6526 10.650065,10.650065 0 0 1 5.662944,13.9503 10.650065,10.650065 0 0 1 -13.946025,5.6733 10.650065,10.650065 0 0 1 -5.683758,-13.9418"/>
      <path id="path1338" style="fill:#1e6d8e;fill-opacity:1;stroke-width:6.12495;stroke-linecap:round;stroke-linejoin:round;stroke-miterlimit:5" d="m -59.236756,868.52882 c 0,0 6.40569,11.25444 14.66629,20.40823 8.26072,9.15379 21.99656,22.07959 33.20606,28.22369 13.8888702,7.6128 34.22004,13.3612 41.16977,27.07 6.94967,13.7087 -0.93276,35.5637 -0.93276,35.5637 0,0 6.54697,-25.1573 -11.60243,-36.3536 -18.14958977,-11.1964 -28.70984,-15.6108 -37.47871,-21.5758 -8.76887,-5.9653 -18.49708,-16.47832 -25.18326,-25.98649 -6.68628,-9.50829 -13.84491,-27.34973 -13.84491,-27.34973 z" sodipodi:nodetypes="csszczzzc" class="UnoptimicedTransforms"/>
      <path id="path1340" style="fill:#08394d;fill-opacity:1;stroke-width:6.12495;stroke-linecap:round;stroke-linejoin:round;stroke-miterlimit:5" d="m -121.46346,1221.1308 c -3.41295,-6.9083 -9.54754,-12.9572 -16.656,-19.5492 -7.10839,-6.5919 -16.98422,-11.3953 -24.2928,-15.2745 -6.99493,-3.7127 -19.2234,-9.9298 -19.2234,-9.9298 10.26384,0.9947 19.91316,2.8984 26.3048,6.0864 13.2737,4.7765 27.10563,13.0707 37.19954,29.932 10.09395,16.8615 5.81564,49.1943 5.81564,49.1943 -0.80697,-11.5635 -4.48158,-32.5974 -9.14778,-40.4592 z" sodipodi:nodetypes="csscczcc"/>
      <path id="path1342" style="fill:#fafdfd;fill-opacity:1;stroke-width:6.12495;stroke-linecap:round;stroke-linejoin:round;stroke-miterlimit:5" d="m -114.43923,871.57242 c 0,0 -6.40569,11.25445 -14.6663,20.40824 -8.26071,9.15379 -21.99655,22.07959 -33.20604,28.22378 -13.88889,7.6127 -34.22006,13.3611 -41.16977,27.0699 -6.9497,13.7086 0.93274,35.5636 0.93274,35.5636 0,0 -6.54696,-25.1572 11.60244,-36.3535 18.14958,-11.1964 28.70984,-15.6107 37.47871,-21.5758 8.76887,-5.9653 18.49708,-16.47831 25.18325,-25.98648 6.68629,-9.50829 13.84492,-27.34974 13.84492,-27.34974 z" sodipodi:nodetypes="csszczzzc" class="UnoptimicedTransforms"/>
      <path id="path1344" style="fill:#f9fcfc;fill-opacity:1;stroke-width:6.12495;stroke-linecap:round;stroke-linejoin:round;stroke-miterlimit:5" d="m -5.1030658,1185.5899 c 13.91709,-6.858 40.1852198,-14.4029 37.6136698,-34.3041 -12.21279,21.5718 -32.17885977,22.7904 -45.44327,32.6436 -17.64612,12.5597 -31.01688,34.8636 -31.01688,34.8636 0,0 23.76159,-23.6571 38.8464802,-33.2031 z" sodipodi:nodetypes="ccccc"/>
      <g id="g1395" transform="matrix(6.4341975,0,0,6.4341975,-657.1717,185.50175)" style="stroke-width:3.78693">
        <path style="fill:#ffffff;fill-opacity:1;stroke:#aef1ff;stroke-width:2.64706;stroke-linecap:round;stroke-linejoin:round;stroke-miterlimit:5;stroke-dasharray:none;stroke-opacity:1" id="path1383" sodipodi:type="arc" sodipodi:cx="90.395164" sodipodi:cy="113.94757" sodipodi:rx="3.5438161" sodipodi:ry="3.1992784" sodipodi:start="3.5424948" sodipodi:end="3.5395103" sodipodi:open="true" sodipodi:arc-type="arc" d="m 87.13234,112.69906 a 3.5438161,3.1992784 0 0 1 4.643361,-1.69803 3.5438161,3.1992784 0 0 1 1.884348,4.19066 3.5438161,3.1992784 0 0 1 -4.640549,1.70427 3.5438161,3.1992784 0 0 1 -1.891273,-4.18811"/>
      </g>
      <path style="display:inline;fill:#eabf17;fill-opacity:1;fill-rule:evenodd;stroke:none;stroke-width:8.1761;stroke-linecap:square;stroke-linejoin:bevel;stroke-miterlimit:4;stroke-dasharray:none;stroke-dashoffset:0;stroke-opacity:1;paint-order:normal" id="path9392" sodipodi:type="arc" sodipodi:cx="-167.0719" sodipodi:cy="1007.8701" sodipodi:rx="8.4604731" sodipodi:ry="8.4604731" sodipodi:start="3.5424948" sodipodi:end="3.5395103" sodipodi:open="true" inkscape:export-xdpi="300" inkscape:export-ydpi="300" sodipodi:arc-type="arc" d="m -174.86154,1004.5684 a 8.4604731,8.4604731 0 0 1 11.08552,-4.4904 8.4604731,8.4604731 0 0 1 4.49868,11.0822 8.4604731,8.4604731 0 0 1 -11.07881,4.5069 8.4604731,8.4604731 0 0 1 -4.5152,-11.0754"/>
      <path style="display:inline;fill:#eabf17;fill-opacity:1;fill-rule:evenodd;stroke:none;stroke-width:7.06862;stroke-linecap:square;stroke-linejoin:bevel;stroke-miterlimit:4;stroke-dasharray:none;stroke-dashoffset:0;stroke-opacity:1;paint-order:normal" id="path9394" sodipodi:type="arc" sodipodi:cx="-89.768753" sodipodi:cy="1007.4197" sodipodi:rx="7.3143945" sodipodi:ry="7.3143945" sodipodi:start="3.5424948" sodipodi:end="3.5395103" sodipodi:open="true" inkscape:export-xdpi="300" inkscape:export-ydpi="300" sodipodi:arc-type="arc" d="m -96.503184,1004.5652 a 7.3143945,7.3143945 0 0 1 9.583841,-3.8821 7.3143945,7.3143945 0 0 1 3.889273,9.581 7.3143945,7.3143945 0 0 1 -9.578038,3.8964 7.3143945,7.3143945 0 0 1 -3.903565,-9.5751"/>
      <path style="display:inline;fill:#eabf17;fill-opacity:1;fill-rule:evenodd;stroke:none;stroke-width:11.0981;stroke-linecap:square;stroke-linejoin:bevel;stroke-miterlimit:4;stroke-dasharray:none;stroke-dashoffset:0;stroke-opacity:1;paint-order:normal" id="path9396" sodipodi:type="arc" sodipodi:cx="-138.48369" sodipodi:cy="1026.1392" sodipodi:rx="11.483984" sodipodi:ry="11.483984" sodipodi:start="3.5424948" sodipodi:end="3.5395103" sodipodi:open="true" inkscape:export-xdpi="300" inkscape:export-ydpi="300" sodipodi:arc-type="arc" d="m -149.0571,1021.6575 a 11.483984,11.483984 0 0 1 15.04714,-6.0951 11.483984,11.483984 0 0 1 6.10636,15.0426 11.483984,11.483984 0 0 1 -15.03802,6.1176 11.483984,11.483984 0 0 1 -6.12881,-15.0335"/>
      <path style="display:inline;fill:#eabf17;fill-opacity:1;fill-rule:evenodd;stroke:none;stroke-width:3.03915;stroke-linecap:square;stroke-linejoin:bevel;stroke-miterlimit:4;stroke-dasharray:none;stroke-dashoffset:0;stroke-opacity:1;paint-order:normal" id="path9398" sodipodi:type="arc" sodipodi:cx="-64.87471" sodipodi:cy="1092.6945" sodipodi:rx="3.1448047" sodipodi:ry="3.1448047" sodipodi:start="3.5424948" sodipodi:end="3.5395103" sodipodi:open="true" inkscape:export-xdpi="300" inkscape:export-ydpi="300" sodipodi:arc-type="arc" d="m -67.770161,1091.4672 a 3.1448047,3.1448047 0 0 1 4.120547,-1.6691 3.1448047,3.1448047 0 0 1 1.672183,4.1193 3.1448047,3.1448047 0 0 1 -4.118052,1.6752 3.1448047,3.1448047 0 0 1 -1.678328,-4.1168"/>
      <path style="display:inline;fill:#eabf17;fill-opacity:1;fill-rule:evenodd;stroke:none;stroke-width:13.2257;stroke-linecap:square;stroke-linejoin:bevel;stroke-miterlimit:4;stroke-dasharray:none;stroke-dashoffset:0;stroke-opacity:1;paint-order:normal" id="path9400" sodipodi:type="arc" sodipodi:cx="-147.73689" sodipodi:cy="982.17737" sodipodi:rx="13.68567" sodipodi:ry="13.68567" sodipodi:start="3.5424948" sodipodi:end="3.5395103" sodipodi:open="true" inkscape:export-xdpi="300" inkscape:export-ydpi="300" sodipodi:arc-type="arc" d="m -160.33742,976.83655 a 13.68567,13.68567 0 0 1 17.93194,-7.26369 13.68567,13.68567 0 0 1 7.27707,17.92652 13.68567,13.68567 0 0 1 -17.92109,7.29043 13.68567,13.68567 0 0 1 -7.3038,-17.91563"/>
      <path style="display:inline;fill:#eabf17;fill-opacity:1;fill-rule:evenodd;stroke:none;stroke-width:5.90269;stroke-linecap:square;stroke-linejoin:bevel;stroke-miterlimit:4;stroke-dasharray:none;stroke-dashoffset:0;stroke-opacity:1;paint-order:normal" id="path9402" sodipodi:type="arc" sodipodi:cx="-121.9306" sodipodi:cy="1001.0184" sodipodi:rx="6.1079187" sodipodi:ry="6.1079187" sodipodi:start="3.5424948" sodipodi:end="3.5395103" sodipodi:open="true" inkscape:export-xdpi="300" inkscape:export-ydpi="300" sodipodi:arc-type="arc" d="m -127.55422,998.63476 a 6.1079187,6.1079187 0 0 1 8.00303,-3.24178 6.1079187,6.1079187 0 0 1 3.24776,8.00062 6.1079187,6.1079187 0 0 1 -7.99819,3.2537 6.1079187,6.1079187 0 0 1 -3.25969,-7.99574"/>
      <path style="display:inline;fill:#eabf17;fill-opacity:1;fill-rule:evenodd;stroke:none;stroke-width:6.26271;stroke-linecap:square;stroke-linejoin:bevel;stroke-miterlimit:4;stroke-dasharray:none;stroke-dashoffset:0;stroke-opacity:1;paint-order:normal" id="path9404" sodipodi:type="arc" sodipodi:cx="-122.48575" sodipodi:cy="1090.3975" sodipodi:rx="6.4804764" sodipodi:ry="6.4804764" sodipodi:start="3.5424948" sodipodi:end="3.5395103" sodipodi:open="true" inkscape:export-xdpi="300" inkscape:export-ydpi="300" sodipodi:arc-type="arc" d="m -128.45238,1087.8685 a 6.4804764,6.4804764 0 0 1 8.49118,-3.4396 6.4804764,6.4804764 0 0 1 3.44585,8.4887 6.4804764,6.4804764 0 0 1 -8.48604,3.4521 6.4804764,6.4804764 0 0 1 -3.45851,-8.4834"/>
      <path style="display:inline;fill:#eabf17;fill-opacity:1;fill-rule:evenodd;stroke:none;stroke-width:14.6102;stroke-linecap:square;stroke-linejoin:bevel;stroke-miterlimit:4;stroke-dasharray:none;stroke-dashoffset:0;stroke-opacity:1;paint-order:normal" id="path9406" sodipodi:type="arc" sodipodi:cx="-99.982979" sodipodi:cy="1096.6765" sodipodi:rx="15.118111" sodipodi:ry="15.118111" sodipodi:start="3.5424948" sodipodi:end="3.5395103" sodipodi:open="true" inkscape:export-xdpi="300" inkscape:export-ydpi="300" sodipodi:arc-type="arc" d="m -113.90236,1090.7767 a 15.118111,15.118111 0 0 1 19.808823,-8.024 15.118111,15.118111 0 0 1 8.038732,19.8029 15.118111,15.118111 0 0 1 -19.796835,8.0535 15.118111,15.118111 0 0 1 -8.06827,-19.7908"/>
      <g id="g41420" transform="matrix(3.7795276,0,0,3.7795276,-1278.1891,681.98004)" style="fill:#eabf17;fill-opacity:1;stroke-width:3.78693">
        <path style="display:inline;fill:#eabf17;fill-opacity:1;fill-rule:evenodd;stroke:none;stroke-width:2.53365;stroke-linecap:square;stroke-linejoin:bevel;stroke-miterlimit:4;stroke-dasharray:none;stroke-dashoffset:0;stroke-opacity:1;paint-order:normal" id="path1328-2" sodipodi:type="arc" sodipodi:cx="319.97525" sodipodi:cy="63.79097" sodipodi:rx="2.6217451" sodipodi:ry="2.6217451" sodipodi:start="3.5424948" sodipodi:end="3.5395103" sodipodi:open="true" inkscape:export-xdpi="300" inkscape:export-ydpi="300" sodipodi:arc-type="arc" d="m 317.56139,62.767836 a 2.6217451,2.6217451 0 0 1 3.43519,-1.391494 2.6217451,2.6217451 0 0 1 1.39406,3.434158 2.6217451,2.6217451 0 0 1 -3.43312,1.396619 2.6217451,2.6217451 0 0 1 -1.39918,-3.432074"/>
        <path style="display:inline;fill:#eabf17;fill-opacity:1;fill-rule:evenodd;stroke:none;stroke-width:1.46752;stroke-linecap:square;stroke-linejoin:bevel;stroke-miterlimit:4;stroke-dasharray:none;stroke-dashoffset:0;stroke-opacity:1;paint-order:normal" id="path9404-9" sodipodi:type="arc" sodipodi:cx="315.3172" sodipodi:cy="64.196487" sodipodi:rx="1.5185412" sodipodi:ry="1.5185412" sodipodi:start="3.5424948" sodipodi:end="3.5395103" sodipodi:open="true" inkscape:export-xdpi="300" inkscape:export-ydpi="300" sodipodi:arc-type="arc" d="m 313.91906,63.603878 a 1.5185412,1.5185412 0 0 1 1.98971,-0.805967 1.5185412,1.5185412 0 0 1 0.80745,1.989099 1.5185412,1.5185412 0 0 1 -1.9885,0.808935 1.5185412,1.5185412 0 0 1 -0.81042,-1.987892"/>
        <path style="display:inline;fill:#eabf17;fill-opacity:1;fill-rule:evenodd;stroke:none;stroke-width:1.46752;stroke-linecap:square;stroke-linejoin:bevel;stroke-miterlimit:4;stroke-dasharray:none;stroke-dashoffset:0;stroke-opacity:1;paint-order:normal" id="path9406-6" sodipodi:type="arc" sodipodi:cx="318.45593" sodipodi:cy="60.350491" sodipodi:rx="1.5185412" sodipodi:ry="1.5185412" sodipodi:start="3.5424948" sodipodi:end="3.5395103" sodipodi:open="true" inkscape:export-xdpi="300" inkscape:export-ydpi="300" sodipodi:arc-type="arc" d="m 317.0578,59.757881 a 1.5185412,1.5185412 0 0 1 1.9897,-0.805967 1.5185412,1.5185412 0 0 1 0.80745,1.989099 1.5185412,1.5185412 0 0 1 -1.9885,0.808936 1.5185412,1.5185412 0 0 1 -0.81041,-1.987892"/>
      </g>
      <path style="display:inline;fill:#eabf17;fill-opacity:1;fill-rule:evenodd;stroke:none;stroke-width:7.06862;stroke-linecap:square;stroke-linejoin:bevel;stroke-miterlimit:4;stroke-dasharray:none;stroke-dashoffset:0;stroke-opacity:1;paint-order:normal" id="path14844" sodipodi:type="arc" sodipodi:cx="-114.78632" sodipodi:cy="1061.2074" sodipodi:rx="7.3143945" sodipodi:ry="7.3143945" sodipodi:start="3.5424948" sodipodi:end="3.5395103" sodipodi:open="true" inkscape:export-xdpi="300" inkscape:export-ydpi="300" sodipodi:arc-type="arc" d="m -121.52075,1058.353 a 7.3143945,7.3143945 0 0 1 9.58384,-3.8822 7.3143945,7.3143945 0 0 1 3.88927,9.581 7.3143945,7.3143945 0 0 1 -9.57804,3.8964 7.3143945,7.3143945 0 0 1 -3.90356,-9.5751"/>
      <path style="display:inline;fill:#eabf17;fill-opacity:1;fill-rule:evenodd;stroke:none;stroke-width:7.06862;stroke-linecap:square;stroke-linejoin:bevel;stroke-miterlimit:4;stroke-dasharray:none;stroke-dashoffset:0;stroke-opacity:1;paint-order:normal" id="path14848" sodipodi:type="arc" sodipodi:cx="-106.03013" sodipodi:cy="1024.932" sodipodi:rx="7.3143945" sodipodi:ry="7.3143945" sodipodi:start="3.5424948" sodipodi:end="3.5395103" sodipodi:open="true" inkscape:export-xdpi="300" inkscape:export-ydpi="300" sodipodi:arc-type="arc" d="m -112.76456,1022.0776 a 7.3143945,7.3143945 0 0 1 9.58384,-3.8822 7.3143945,7.3143945 0 0 1 3.889275,9.581 7.3143945,7.3143945 0 0 1 -9.578035,3.8964 7.3143945,7.3143945 0 0 1 -3.90357,-9.5751"/>
      <path style="display:inline;fill:#eabf17;fill-opacity:1;fill-rule:evenodd;stroke:none;stroke-width:6.26271;stroke-linecap:square;stroke-linejoin:bevel;stroke-miterlimit:4;stroke-dasharray:none;stroke-dashoffset:0;stroke-opacity:1;paint-order:normal" id="path14852" sodipodi:type="arc" sodipodi:cx="-135.18422" sodipodi:cy="1049.8065" sodipodi:rx="6.4804759" sodipodi:ry="6.4804759" sodipodi:start="3.5424948" sodipodi:end="3.5395103" sodipodi:open="true" inkscape:export-xdpi="300" inkscape:export-ydpi="300" sodipodi:arc-type="arc" d="m -141.15085,1047.2775 a 6.4804759,6.4804759 0 0 1 8.49118,-3.4395 6.4804759,6.4804759 0 0 1 3.44585,8.4886 6.4804759,6.4804759 0 0 1 -8.48604,3.4522 6.4804759,6.4804759 0 0 1 -3.45852,-8.4835"/>
      <path style="display:inline;fill:#eabf17;fill-opacity:1;fill-rule:evenodd;stroke:none;stroke-width:7.06862;stroke-linecap:square;stroke-linejoin:bevel;stroke-miterlimit:4;stroke-dasharray:none;stroke-dashoffset:0;stroke-opacity:1;paint-order:normal" id="path14854" sodipodi:type="arc" sodipodi:cx="-147.0107" sodipodi:cy="1078.4336" sodipodi:rx="7.3143945" sodipodi:ry="7.3143945" sodipodi:start="3.5424948" sodipodi:end="3.5395103" sodipodi:open="true" inkscape:export-xdpi="300" inkscape:export-ydpi="300" sodipodi:arc-type="arc" d="m -153.74513,1075.5792 a 7.3143945,7.3143945 0 0 1 9.58384,-3.8822 7.3143945,7.3143945 0 0 1 3.88928,9.581 7.3143945,7.3143945 0 0 1 -9.57804,3.8964 7.3143945,7.3143945 0 0 1 -3.90357,-9.5751"/>
      <path style="display:inline;fill:#eabf17;fill-opacity:1;fill-rule:evenodd;stroke:none;stroke-width:3.7305;stroke-linecap:square;stroke-linejoin:bevel;stroke-miterlimit:4;stroke-dasharray:none;stroke-dashoffset:0;stroke-opacity:1;paint-order:normal" id="path14840" sodipodi:type="arc" sodipodi:cx="-131.02832" sodipodi:cy="969.00916" sodipodi:rx="3.8602183" sodipodi:ry="3.8602183" sodipodi:start="3.5424948" sodipodi:end="3.5395103" sodipodi:open="true" inkscape:export-xdpi="300" inkscape:export-ydpi="300" sodipodi:arc-type="arc" d="m -134.58246,967.50271 a 3.8602183,3.8602183 0 0 1 5.05793,-2.04882 3.8602183,3.8602183 0 0 1 2.05259,5.05641 3.8602183,3.8602183 0 0 1 -5.05487,2.05636 3.8602183,3.8602183 0 0 1 -2.06013,-5.05334"/>
      <path style="display:inline;fill:#eabf17;fill-opacity:1;fill-rule:evenodd;stroke:none;stroke-width:3.03915;stroke-linecap:square;stroke-linejoin:bevel;stroke-miterlimit:4;stroke-dasharray:none;stroke-dashoffset:0;stroke-opacity:1;paint-order:normal" id="path14860" sodipodi:type="arc" sodipodi:cx="-152.43604" sodipodi:cy="1040.9916" sodipodi:rx="3.1448047" sodipodi:ry="3.1448047" sodipodi:start="3.5424948" sodipodi:end="3.5395103" sodipodi:open="true" inkscape:export-xdpi="300" inkscape:export-ydpi="300" sodipodi:arc-type="arc" d="m -155.33149,1039.7643 a 3.1448047,3.1448047 0 0 1 4.12055,-1.6691 3.1448047,3.1448047 0 0 1 1.67218,4.1193 3.1448047,3.1448047 0 0 1 -4.11805,1.6753 3.1448047,3.1448047 0 0 1 -1.67833,-4.1168"/>
      <path style="display:inline;fill:#eabf17;fill-opacity:1;fill-rule:evenodd;stroke:none;stroke-width:3.03915;stroke-linecap:square;stroke-linejoin:bevel;stroke-miterlimit:4;stroke-dasharray:none;stroke-dashoffset:0;stroke-opacity:1;paint-order:normal" id="path14864" sodipodi:type="arc" sodipodi:cx="-111.1572" sodipodi:cy="1043.0764" sodipodi:rx="3.1448047" sodipodi:ry="3.1448047" sodipodi:start="3.5424948" sodipodi:end="3.5395103" sodipodi:open="true" inkscape:export-xdpi="300" inkscape:export-ydpi="300" sodipodi:arc-type="arc" d="m -114.05265,1041.8492 a 3.1448047,3.1448047 0 0 1 4.12054,-1.6691 3.1448047,3.1448047 0 0 1 1.67219,4.1193 3.1448047,3.1448047 0 0 1 -4.11806,1.6752 3.1448047,3.1448047 0 0 1 -1.67832,-4.1168"/>
      <path style="display:inline;fill:#eabf17;fill-opacity:1;fill-rule:evenodd;stroke:none;stroke-width:3.03915;stroke-linecap:square;stroke-linejoin:bevel;stroke-miterlimit:4;stroke-dasharray:none;stroke-dashoffset:0;stroke-opacity:1;paint-order:normal" id="path14868" sodipodi:type="arc" sodipodi:cx="-106.57063" sodipodi:cy="1008.8857" sodipodi:rx="3.1448047" sodipodi:ry="3.1448047" sodipodi:start="3.5424948" sodipodi:end="3.5395103" sodipodi:open="true" inkscape:export-xdpi="300" inkscape:export-ydpi="300" sodipodi:arc-type="arc" d="m -109.46608,1007.6584 a 3.1448047,3.1448047 0 0 1 4.12054,-1.6691 3.1448047,3.1448047 0 0 1 1.67219,4.1193 3.1448047,3.1448047 0 0 1 -4.11806,1.6753 3.1448047,3.1448047 0 0 1 -1.67832,-4.1168"/>
    </g>
  </g>
</svg>
