<?xml version="1.0" encoding="UTF-8" standalone="no"?>
<!-- Created with Inkscape (http://www.inkscape.org/) -->

<svg
   width="33.282402mm"
   height="33.970749mm"
   viewBox="0 0 33.282402 33.970749"
   version="1.1"
   id="svg1"
   xml:space="preserve"
   xmlns:inkscape="http://www.inkscape.org/namespaces/inkscape"
   xmlns:sodipodi="http://sodipodi.sourceforge.net/DTD/sodipodi-0.dtd"
   xmlns="http://www.w3.org/2000/svg"
   xmlns:svg="http://www.w3.org/2000/svg"><sodipodi:namedview
     id="namedview1"
     pagecolor="#ffffff"
     bordercolor="#000000"
     borderopacity="0.25"
     inkscape:showpageshadow="2"
     inkscape:pageopacity="0.0"
     inkscape:pagecheckerboard="true"
     inkscape:deskcolor="#d1d1d1"
     inkscape:document-units="mm"
     inkscape:zoom="0.72693603"
     inkscape:cx="396.18342"
     inkscape:cy="561.25984"
     inkscape:window-width="1850"
     inkscape:window-height="1016"
     inkscape:window-x="0"
     inkscape:window-y="0"
     inkscape:window-maximized="1"
     inkscape:current-layer="layer1" /><defs
     id="defs1" /><g
     inkscape:label="Layer 1"
     inkscape:groupmode="layer"
     id="layer1"
     transform="translate(-18.912756,-56.024844)"><path
       style="fill:#ffffff;fill-opacity:1;stroke:none;stroke-width:0.264583"
       d="m 21.055783,61.611235 c -4.265523,-0.52689 -1.225881,1.46519 1.058333,2.11667 v 0.26458 c -1.302663,0.24199 -2.654202,0.0522 -2.910416,1.5875 1.022728,0 3.205506,-0.54102 4.052464,-0.019 1.702302,1.04925 1.660022,4.83094 -0.03675,5.85882 -0.850794,0.51539 -2.995084,-0.019 -4.015714,-0.019 0.256215,1.53528 1.607754,1.34552 2.910417,1.5875 v 0.26459 c -2.284217,0.65148 -5.323853,2.64356 -1.058334,2.11666 -0.05254,0.52827 -0.882623,3.12659 0.440558,2.71159 1.588929,-0.49837 1.170755,-4.11388 3.263609,-5.08262 1.778424,-0.82323 4.072785,1.09992 4.73882,2.63583 1.925747,4.4409 -1.083971,8.55244 3.464297,12.34816 5.73188,4.78393 14.76457,0.45005 15.08022,-6.79212 1.47611,-0.0132 2.84586,-0.24284 3.70178,-1.59893 0.26406,-0.41828 0.97526,-2.6111 -0.2278,-2.39064 -0.82444,0.15102 -1.48432,1.95447 -2.41565,2.40207 0.11404,-0.38653 0.52044,-3.05763 -0.65061,-2.33471 -0.56145,0.34666 -0.71993,1.74098 -0.93689,2.33471 -0.83661,-1.17761 0.12462,-2.65144 -0.54398,-3.52901 -1.16549,-1.53038 -1.67561,2.94867 -1.57269,3.52901 -0.64143,-0.47795 -1.48145,-2.27447 -2.15749,-2.40207 -1.16364,-0.21966 -0.57078,1.96521 -0.29194,2.39064 0.87887,1.34091 2.29703,1.58573 3.77235,1.59893 -0.67098,2.58709 -1.55548,4.76594 -3.96875,6.22326 -4.68389,2.82813 -10.76759,-0.31538 -11.56205,-5.6941 -0.43768,-2.96335 -0.10652,-10.51903 4.94747,-8.83904 1.52754,0.50777 2.43186,3.90832 3.43754,3.90832 1.1561,0 0.42281,-1.92034 0.26662,-2.47761 0.49594,-0.0275 2.28378,-0.22042 1.56464,-1.17102 -0.43312,-0.57253 -1.48717,-0.22037 -2.0938,-0.41198 -1.22,-0.38534 -2.36175,-1.71561 -2.7377,-2.91492 -0.36251,-1.15638 -0.23606,-2.70496 0.52917,-3.67416 1.20136,-1.52162 2.78886,0.71432 3.50898,-0.20516 0.41458,-0.52937 -0.12729,-1.55485 0.076,-2.20609 0.29599,-0.94853 3.75597,-6.40609 0.21109,-3.43958 -0.23691,-0.4802 -2.14035,-2.49137 -2.40208,-0.98362 -0.26418,1.52191 2.41888,2.09912 0.2699,3.63844 -1.82411,1.3066 -7.11993,2.04179 -7.27075,-1.56138 -0.038,-0.90787 1.55287,-1.56065 1.73001,-2.68094 l -2.11667,0.52916 c 0,-1.35128 -1.078493,-4.99124 -1.322915,-1.85208 -0.372055,-0.39944 -1.731087,-2.30614 -2.004984,-0.75333 -0.268658,1.52299 1.391602,2.02492 1.841447,3.1899 0.831876,2.15424 -2.613898,4.81637 -4.575281,4.35441 -1.546331,-0.36422 -2.242793,-1.99144 -2.527432,-3.35161 -0.12827,-0.61304 -0.370126,-1.94823 -1.21674,-1.94823 -1.140687,0 -0.333798,2.15993 -0.248258,2.74219 m 14.287503,4.23334 c -0.53735,1.91214 -0.53735,3.37952 0,5.29166 l -5.29167,2.64584 c -1.174406,-1.52072 -2.748862,-2.03811 -4.497916,-2.64584 v -5.29166 c 1.749028,-0.60772 3.32351,-1.12509 4.497916,-2.64584 l 5.29167,2.64584 m -5.556042,-0.10248 c -3.312503,0.79182 -2.336323,6.16138 1.058122,5.50704 3.66276,-0.70607 2.52349,-6.3632 -1.058122,-5.50704 m 0.278871,1.60055 c 1.493841,-0.46908 2.267191,1.80795 0.750461,2.29552 -1.510979,0.48572 -2.333198,-1.7985 -0.750461,-2.29552 z"
       id="path351" /></g></svg>
