<?xml version="1.0" encoding="UTF-8" standalone="no"?>
<!-- Created with Inkscape (http://www.inkscape.org/) -->

<svg
   version="1.1"
   id="svg217"
   width="128"
   height="128"
   viewBox="0 0 128 128"
   sodipodi:docname="synapse_orange128.svg"
   inkscape:version="1.2 (1:1.2.1+202207142221+cd75a1ee6d)"
   xmlns:inkscape="http://www.inkscape.org/namespaces/inkscape"
   xmlns:sodipodi="http://sodipodi.sourceforge.net/DTD/sodipodi-0.dtd"
   xmlns="http://www.w3.org/2000/svg"
   xmlns:svg="http://www.w3.org/2000/svg">
  <defs
     id="defs221" />
  <sodipodi:namedview
     id="namedview219"
     pagecolor="#ffffff"
     bordercolor="#666666"
     borderopacity="1.0"
     inkscape:showpageshadow="2"
     inkscape:pageopacity="0.0"
     inkscape:pagecheckerboard="0"
     inkscape:deskcolor="#d1d1d1"
     showgrid="false"
     inkscape:zoom="6.3515625"
     inkscape:cx="37.628536"
     inkscape:cy="64"
     inkscape:window-width="1848"
     inkscape:window-height="1016"
     inkscape:window-x="72"
     inkscape:window-y="27"
     inkscape:window-maximized="1"
     inkscape:current-layer="g223" />
  <g
     inkscape:groupmode="layer"
     inkscape:label="Image"
     id="g223">
    <path
       style="fill:#ff6a39;stroke:none"
       d="m 9.2526186,21.484721 c -16.12166,-1.9914 -4.63325,5.5377 4.0000004,8 v 1 c -4.9234504,0.9146 -10.0316304,0.1974 -11.0000004,6 3.86543,0 12.1153004,-2.0448 15.3164004,-0.0718 6.4339,3.9657 6.2741,18.2587 -0.1389,22.1436 -3.2156,1.9479 -11.3200004,-0.0718 -15.1775004,-0.0718 0.96837,5.8026 6.07655,5.0854 11.0000004,6 v 1 c -8.6332604,2.4623 -20.1216504,9.9914 -4.0000004,8 -0.19856,1.9966 -3.3359,11.817 1.6651004,10.2485 6.0054,-1.8836 4.4249,-15.5485 12.3349,-19.2099 6.7216,-3.1114 15.3932,4.1572 17.9105,9.9622 7.2784,16.7845 -4.0969,32.324199 13.0934,46.670199 21.6638,18.081 55.803101,1.701 56.996101,-25.671 5.579,-0.0499 10.756,-0.9178 13.991,-6.043199 0.998,-1.5809 3.686,-9.8687 -0.861,-9.0355 -3.116,0.5708 -5.61,7.387 -9.13,9.0787 0.431,-1.4609 1.967,-11.5564 -2.459,-8.8241 -2.122,1.3102 -2.721,6.5801 -3.541,8.8241 -3.162,-4.4508 0.471,-10.0212 -2.056,-13.338 -4.405,-5.7841 -6.333,11.1446 -5.944,13.338 -2.424301,-1.8064 -5.599201,-8.5964 -8.154301,-9.0787 -4.398,-0.8302 -2.1573,7.4276 -1.1034,9.0355 3.3217,5.067999 8.681701,5.993299 14.257701,6.043199 -2.536,9.778 -5.879,18.013 -15.000001,23.521 -17.7029,10.689 -40.6964,-1.192 -43.6991,-21.521 -1.6542,-11.200099 -0.4026,-39.756999 18.6991,-33.407399 5.7734,1.9191 9.1913,14.7716 12.9923,14.7716 4.3695,0 1.598,-7.258 1.0077,-9.3642 1.8744,-0.1038 8.6316,-0.8331 5.9136,-4.4259 -1.637,-2.1639 -5.6208,-0.8329 -7.9136,-1.5571 -4.611,-1.4564 -8.9263,-6.4842 -10.3472,-11.017 -1.3701,-4.3706 -0.8922,-10.2235 2,-13.8866 4.5406,-5.751 10.5406,2.6998 13.2623,-0.7754 1.5669,-2.0008 -0.4811,-5.8766 0.2871,-8.338 1.1187,-3.585 14.1958,-24.2119799 0.7978,-13 -0.8954,-1.8149 -8.0895,-9.4161799 -9.0787,-3.7176 -0.9985,5.7521 9.1422,7.9337 1.0201,13.7516 -6.8943,4.9383 -26.91,7.717 -27.48,-5.9013 -0.1436,-3.4313 5.8691,-5.8985 6.5386,-10.1327 l -8,2 c 0,-5.1071999 -4.0762,-18.8645301 -5,-6.9999999 -1.4062,-1.5097 -6.5427,-8.7161102 -7.5779,-2.84722 -1.0154,5.75616 5.2596,7.6532199 6.9598,12.0563199 3.1441,8.142 -9.8793,18.2036 -17.2924,16.4576 -5.8444,-1.3766 -8.4767,-7.5267 -9.5525,-12.6675 -0.4848,-2.317 -1.3989,-7.3634 -4.5987,-7.3634 -4.3112604,0 -1.2616004,8.1635 -0.9383004,10.3642 m 54.0000004,16 c -2.0309,7.227 -2.0309,12.773 0,20 l -20,10 c -4.4387,-5.7476 -10.3894,-7.7031 -17,-10 v -20 c 6.6105,-2.2969 12.5613,-4.2523 17,-10 l 20,10 m -20.9992,-0.3873 c -12.5197,2.9927 -8.8302,23.2871 3.9992,20.814 13.8435,-2.6686 9.5376,-24.0499 -3.9992,-20.814 m 1.054,6.0493 c 5.646,-1.7729 8.5689,6.8332 2.8364,8.676 -5.7108,1.8358 -8.8184,-6.7975 -2.8364,-8.676 z"
       id="path351" />
  </g>
</svg>
