<?xml version="1.0" encoding="UTF-8" standalone="no"?>
<!-- Created with Inkscape (http://www.inkscape.org/) -->

<svg
   version="1.1"
   id="svg444"
   width="224.67184"
   height="105.087"
   viewBox="0 0 224.67184 105.087"
   sodipodi:docname="version-control_orange128.svg"
   inkscape:version="1.2 (1:1.2.1+202207142221+cd75a1ee6d)"
   xmlns:inkscape="http://www.inkscape.org/namespaces/inkscape"
   xmlns:sodipodi="http://sodipodi.sourceforge.net/DTD/sodipodi-0.dtd"
   xmlns="http://www.w3.org/2000/svg"
   xmlns:svg="http://www.w3.org/2000/svg">
  <defs
     id="defs448" />
  <sodipodi:namedview
     id="namedview446"
     pagecolor="#ffffff"
     bordercolor="#666666"
     borderopacity="1.0"
     inkscape:showpageshadow="2"
     inkscape:pageopacity="0.0"
     inkscape:pagecheckerboard="0"
     inkscape:deskcolor="#d1d1d1"
     showgrid="false"
     inkscape:zoom="3.3203125"
     inkscape:cx="47.435294"
     inkscape:cy="-19.124706"
     inkscape:window-width="1848"
     inkscape:window-height="1016"
     inkscape:window-x="72"
     inkscape:window-y="27"
     inkscape:window-maximized="1"
     inkscape:current-layer="g450" />
  <g
     inkscape:groupmode="layer"
     inkscape:label="Image"
     id="g450"
     transform="translate(-10.372145,-82.907022)">
    <g
       id="g486"
       transform="translate(-5.9560106,7.907022)">
      <path
         style="fill:#fed9cc;stroke-width:2"
         d="M 217.74488,176.5 215,173 l 3.5,2.74489 c 1.925,1.50969 3.5,3.08469 3.5,3.5 0,1.64607 -1.64238,0.58661 -4.25512,-2.74489 z M 234,179.24489 c 0,-0.41531 1.575,-1.99031 3.5,-3.5 L 241,173 l -2.74488,3.5 C 235.64238,179.8315 234,180.89096 234,179.24489 Z m -18,-18 c 0,-0.41531 1.575,-1.99031 3.5,-3.5 L 223,155 l -2.74488,3.5 C 217.64238,161.8315 216,162.89096 216,161.24489 Z M 235.74488,158.5 233,155 l 3.5,2.74489 c 1.925,1.50969 3.5,3.08469 3.5,3.5 0,1.64607 -1.64238,0.58661 -4.25512,-2.74489 z M 121.74489,136.5 119,133 l 3.5,2.74489 c 3.3315,2.61274 4.39096,4.25511 2.74489,4.25511 -0.41531,0 -1.99031,-1.575 -3.5,-3.5 z M 138,139.24489 c 0,-0.41531 1.575,-1.99031 3.5,-3.5 L 145,133 l -2.74489,3.5 C 139.64237,139.8315 138,140.89096 138,139.24489 Z M 169.74489,136.5 167,133 l 3.5,2.74489 c 1.925,1.50969 3.5,3.08469 3.5,3.5 0,1.64607 -1.64237,0.58661 -4.25511,-2.74489 z m 47.99999,0 L 215,133 l 3.5,2.74489 c 1.925,1.50969 3.5,3.08469 3.5,3.5 0,1.64607 -1.64238,0.58661 -4.25512,-2.74489 z M 234,139.24489 c 0,-0.41531 1.575,-1.99031 3.5,-3.5 L 241,133 l -2.74488,3.5 C 235.64238,139.8315 234,140.89096 234,139.24489 Z m -114,-18 c 0,-0.41531 1.575,-1.99031 3.5,-3.5 L 127,115 l -2.74489,3.5 C 121.64237,121.8315 120,122.89096 120,121.24489 Z m 48,0 c 0,-0.41531 1.575,-1.99031 3.5,-3.5 L 175,115 l -2.74489,3.5 C 169.64237,121.8315 168,122.89096 168,121.24489 Z M 187.74489,118.5 185,115 l 3.5,2.74489 c 3.3315,2.61274 4.39096,4.25511 2.74489,4.25511 -0.41531,0 -1.99031,-1.575 -3.5,-3.5 z M 216,121.24489 c 0,-0.41531 1.575,-1.99031 3.5,-3.5 L 223,115 l -2.74488,3.5 C 217.64238,121.8315 216,122.89096 216,121.24489 Z M 235.74488,118.5 233,115 l 3.5,2.74489 c 3.3315,2.61274 4.39096,4.25511 2.74488,4.25511 -0.4153,0 -1.9903,-1.575 -3.5,-3.5 z m -18,-22 L 215,93 l 3.5,2.74489 c 3.3315,2.612738 4.39096,4.25511 2.74488,4.25511 -0.4153,0 -1.9903,-1.575 -3.5,-3.5 z M 234,99.24489 c 0,-0.415312 1.575,-1.990312 3.5,-3.5 L 241,93 238.25512,96.5 C 235.64238,99.831496 234,100.89096 234,99.24489 Z m -18,-18 c 0,-0.415312 1.575,-1.990312 3.5,-3.5 L 223,75 220.25512,78.5 C 217.64238,81.831496 216,82.890958 216,81.24489 Z M 235.74488,78.5 233,75 l 3.5,2.74489 C 239.8315,80.357628 240.89096,82 239.24488,82 c -0.4153,0 -1.9903,-1.575 -3.5,-3.5 z"
         id="path494" />
      <path
         style="fill:#feb299;stroke-width:2"
         d="m 224.8923,169.82574 c -0.73908,-1.19585 -0.34218,-3.17585 0.88196,-4.4 L 228,163.2 l 2.22574,2.22574 C 232.53358,167.73358 231.08918,172 228,172 c -0.97016,0 -2.36862,-0.97842 -3.1077,-2.17426 z M 230,168 c 0,-1.1 -0.9,-2 -2,-2 -1.1,0 -2,0.9 -2,2 0,1.1 0.9,2 2,2 1.1,0 2,-0.9 2,-2 z M 128.8923,129.82574 c -0.73907,-1.19585 -0.34219,-3.17585 0.88196,-4.4 L 132,123.2 l 2.22574,2.22574 C 136.53358,127.73358 135.08918,132 132,132 c -0.97016,0 -2.36863,-0.97842 -3.1077,-2.17426 z M 134,128 c 0,-1.1 -0.9,-2 -2,-2 -1.1,0 -2,0.9 -2,2 0,1.1 0.9,2 2,2 1.1,0 2,-0.9 2,-2 z m 42.8923,1.82574 c -0.73907,-1.19585 -0.34219,-3.17585 0.88196,-4.4 L 180,123.2 l 2.22574,2.22574 C 184.53358,127.73358 183.08918,132 180,132 c -0.97016,0 -2.36863,-0.97842 -3.1077,-2.17426 z M 182,128 c 0,-1.1 -0.9,-2 -2,-2 -1.1,0 -2,0.9 -2,2 0,1.1 0.9,2 2,2 1.1,0 2,-0.9 2,-2 z m 42.8923,1.82574 c -0.73908,-1.19585 -0.34218,-3.17585 0.88196,-4.4 L 228,123.2 l 2.22574,2.22574 C 232.53358,127.73358 231.08918,132 228,132 c -0.97016,0 -2.36862,-0.97842 -3.1077,-2.17426 z M 230,128 c 0,-1.1 -0.9,-2 -2,-2 -1.1,0 -2,0.9 -2,2 0,1.1 0.9,2 2,2 1.1,0 2,-0.9 2,-2 z m -5.1077,-38.174264 c -0.73908,-1.195846 -0.34218,-3.175846 0.88196,-4.4 L 228,83.2 l 2.22574,2.225736 C 232.53358,87.733584 231.08918,92 228,92 c -0.97016,0 -2.36862,-0.97842 -3.1077,-2.174264 z M 230,88 c 0,-1.1 -0.9,-2 -2,-2 -1.1,0 -2,0.9 -2,2 0,1.1 0.9,2 2,2 1.1,0 2,-0.9 2,-2 z"
         id="path492" />
      <path
         style="fill:#fe8b66;stroke-width:2"
         d="M 192.95308,155.5 177,139 193.5,154.95308 C 208.8247,169.76981 210.91178,172 209.45308,172 c -0.3008,0 -7.7258,-7.425 -16.5,-16.5 z m 6.98914,-5 L 187,137 200.5,149.94222 C 213.03938,161.96351 214.91426,164 213.44222,164 c -0.30678,0 -6.38178,-6.075 -13.5,-13.5 z M 152,105 c 7.08645,-7.15 13.33445,-13 13.88445,-13 0.55,0 -4.798,5.85 -11.88445,13 -7.08645,7.15 -13.33445,13 -13.88445,13 -0.55,0 4.798,-5.85 11.88445,-13 z m -7,-5 c 8.74839,-8.8 16.35616,-16 16.90616,-16 0.55,0 -6.15777,7.2 -14.90616,16 -8.74839,8.8 -16.35616,16 -16.90616,16 -0.55,0 6.15777,-7.2 14.90616,-16 z M 81.942224,88.5 69,75 82.5,87.942224 C 89.925,95.060446 96,101.13545 96,101.44222 96,102.91426 93.963512,101.03937 81.942224,88.5 Z m -6.093596,6 L 71,89 76.5,93.848628 C 81.640578,98.380402 82.917176,100 81.348628,100 c -0.358254,0 -2.833254,-2.475 -5.5,-5.5 z"
         id="path490" />
      <path
         style="fill:#fe6532;stroke-width:2"
         d="M 16.917258,177.50557 C 16.372499,176.08595 16.16826,152.89144 16.463394,125.96222 L 17,77 42.886682,76.437358 68.773366,75.874718 82.386682,89.38372 96,102.89272 V 113.44636 124 h 12 c 13.52729,0 11.7766,1.07845 37.13013,-22.8727 L 163.26027,84 H 189.63013 216 l 4,-4 c 5.09252,-5.09251 10.90748,-5.09251 16,0 5.09252,5.09251 5.09252,10.90749 0,16 -5.09252,5.09251 -10.90748,5.09251 -16,0 l -4,-4 h -25.55778 -25.55777 l -12.52041,12.63269 -12.5204,12.63269 1.29216,3.36731 L 142.42796,124 H 155.21398 168 l 4,-4 c 5.09251,-5.09251 10.90749,-5.09251 16,0 l 4,4 h 12 12 l 4,-4 c 5.09252,-5.09251 10.90748,-5.09251 16,0 5.09252,5.09251 5.09252,10.90749 0,16 -5.09252,5.09251 -10.90748,5.09251 -16,0 l -4,-4 h -12.78602 -12.78602 l -1.29216,3.36731 -1.29216,3.36731 12.5204,12.63269 C 207.25026,158.31529 213.58544,164 214.44222,164 215.299,164 217.8,162.2 220,160 c 2.2,-2.2 5.8,-4 8,-4 5.15112,0 12,6.84887 12,12 0,2.2 -1.8,5.8 -4,8 -5.09252,5.09251 -10.90748,5.09251 -16,0 -2.2,-2.2 -5.06644,-4 -6.36986,-4 -1.30344,0 -10.52844,-7.70728 -20.50001,-17.1273 C 167.7766,130.92155 169.52729,132 156,132 h -12 l -4,4 c -2.2,2.2 -5.8,4 -8,4 -2.2,0 -5.8,-1.8 -8,-4 l -4,-4 H 108.06347 96.126942 L 95.56347,155.5 95,179 56.453864,179.54335 17.907729,180.08669 Z M 88,140.09981 V 108.19962 L 76.5,107.59981 65,107 64.400192,95.5 63.800384,84 H 43.900192 24 v 44 44 H 56 88 Z M 42.4,157.6 c -1.32,-1.32 -2.4,-4.36023 -2.4,-6.75606 0,-2.39583 -2.025,-5.78037 -4.5,-7.52121 l -4.5,-3.16516 4.347442,-3.57878 c 2.391094,-1.96834 4.641094,-5.73688 5,-8.37453 0.358908,-2.63766 2.202786,-5.76744 4.09751,-6.95505 l 3.444954,-2.1593 2.370284,2.37028 2.370284,2.37028 -2.699852,3.25313 c -3.42341,4.12495 -3.52078,21.59052 -0.14306,25.66043 C 54.434132,158.3428 47.621114,162.82111 42.4,157.6 Z m 18.545854,0.31239 c -0.709618,-1.14819 -0.13966,-3.47395 1.266582,-5.16836 3.377722,-4.06991 3.280352,-21.53548 -0.14306,-25.66043 l -2.699852,-3.25313 2.370284,-2.37028 2.370284,-2.37028 3.444954,2.1593 c 1.894724,1.18761 3.738602,4.31739 4.09751,6.95505 0.358906,2.63765 2.608906,6.40619 5,8.37453 L 81,140.15757 l -4.5,3.16516 c -2.475,1.74084 -4.5,5.12538 -4.5,7.52121 0,7.25606 -7.839906,12.2692 -11.054146,7.06845 z M 231.1077,169.82574 c 0.73908,-1.19585 0.34218,-3.17585 -0.88196,-4.4 L 228,163.2 l -2.22574,2.22574 C 223.46642,167.73358 224.91082,172 228,172 c 0.97016,0 2.36862,-0.97842 3.1077,-2.17426 z m -96,-40 c 0.73907,-1.19585 0.34219,-3.17585 -0.88196,-4.4 L 132,123.2 l -2.22574,2.22574 C 127.46642,127.73358 128.91082,132 132,132 c 0.97016,0 2.36863,-0.97842 3.1077,-2.17426 z m 48,0 c 0.73907,-1.19585 0.34219,-3.17585 -0.88196,-4.4 L 180,123.2 l -2.22574,2.22574 C 175.46642,127.73358 176.91082,132 180,132 c 0.97016,0 2.36863,-0.97842 3.1077,-2.17426 z m 48,0 c 0.73908,-1.19585 0.34218,-3.17585 -0.88196,-4.4 L 228,123.2 l -2.22574,2.22574 C 223.46642,127.73358 224.91082,132 228,132 c 0.97016,0 2.36862,-0.97842 3.1077,-2.17426 z M 82,99.348628 C 82,98.990374 79.75,96.58349 77,94 L 72,89.302744 V 94.651372 100 h 5 c 2.75,0 5,-0.293118 5,-0.651372 z m 149.1077,-9.522892 c 0.73908,-1.195846 0.34218,-3.175846 -0.88196,-4.4 L 228,83.2 225.77426,85.425736 C 223.46642,87.733584 224.91082,92 228,92 c 0.97016,0 2.36862,-0.97842 3.1077,-2.174264 z"
         id="path488" />
    </g>
  </g>
</svg>
