<?xml version="1.0" encoding="UTF-8" standalone="no"?>
<!-- Created with Inkscape (http://www.inkscape.org/) -->

<svg
   width="18.940506mm"
   height="24.97143mm"
   viewBox="0 0 18.940506 24.97143"
   version="1.1"
   id="svg319"
   sodipodi:docname="favicon2.svg"
   xml:space="preserve"
   xmlns:inkscape="http://www.inkscape.org/namespaces/inkscape"
   xmlns:sodipodi="http://sodipodi.sourceforge.net/DTD/sodipodi-0.dtd"
   xmlns="http://www.w3.org/2000/svg"
   xmlns:svg="http://www.w3.org/2000/svg"><sodipodi:namedview
     id="namedview321"
     pagecolor="#ffffff"
     bordercolor="#000000"
     borderopacity="0.25"
     inkscape:showpageshadow="2"
     inkscape:pageopacity="0.0"
     inkscape:pagecheckerboard="true"
     inkscape:deskcolor="#d1d1d1"
     inkscape:document-units="mm"
     showgrid="false" /><defs
     id="defs316" /><g
     inkscape:label="Layer 1"
     inkscape:groupmode="layer"
     id="layer1"
     transform="translate(-89.062784,-166.3774)"><path
       id="Copy of  path412-4"
       style="fill:#000000;fill-opacity:1;fill-rule:nonzero;stroke:none;stroke-width:0.352778"
       d="m 97.187343,180.95881 v -2.39137 c 0,-1.87793 -0.719737,-2.81796 -2.27531,-2.81796 -0.908262,0 -1.56868,0.35246 -2.023654,1.04254 v -0.55749 c 0,-0.19232 -0.132598,-0.30797 -0.412189,-0.30797 h -1.216233 c -0.602398,0 -0.895124,0.1902 -0.895124,0.79091 0,0.5147 0.263072,0.77778 0.77778,0.77778 h 0.117344 v 3.46356 h -0.08939 c -0.542665,0 -0.805737,0.26306 -0.805737,0.79262 0,0.58589 0.277899,0.79089 0.895124,0.79089 h 1.774148 c 0.617227,0 0.895124,-0.205 0.895124,-0.79089 0,-0.52956 -0.263059,-0.79262 -0.805737,-0.79262 h -0.08939 v -2.06856 c 0,-1.0129 0.602389,-1.58521 1.350102,-1.58521 0.822677,0 1.042528,0.54266 1.042528,1.58521 v 2.06856 h -0.08936 c -0.542678,0 -0.820561,0.26306 -0.820561,0.79262 0,0.58589 0.292699,0.79089 0.909919,0.79089 h 1.760608 c 0.61595,0 0.893869,-0.205 0.893869,-0.79089 0,-0.52956 -0.263067,-0.79262 -0.806203,-0.79262 z" /><path
       id="Copy of  path416-1"
       style="fill:#000000;fill-opacity:1;fill-rule:nonzero;stroke:none;stroke-width:0.352778"
       d="m 101.76991,177.01061 c 0,0.69814 -0.56597,1.26241 -1.26283,1.26241 -0.696441,0 -1.260713,-0.56427 -1.260713,-1.26241 0,-0.69686 0.564272,-1.26113 1.260713,-1.26113 0.69686,0 1.26283,0.56427 1.26283,1.26113 z" /><path
       id="Copy of  path420-8"
       style="fill:#000000;fill-opacity:1;fill-rule:nonzero;stroke:none;stroke-width:0.352778"
       d="m 106.03923,177.01061 c 0,0.69814 -0.56428,1.26241 -1.26114,1.26241 -0.69644,0 -1.26241,-0.56427 -1.26241,-1.26241 0,-0.69686 0.56597,-1.26113 1.26241,-1.26113 0.69686,0 1.26114,0.56427 1.26114,1.26113 z" /><path
       id="Copy of  path424-5"
       style="fill:#000000;fill-opacity:1;fill-rule:nonzero;stroke:none;stroke-width:0.352778"
       d="m 106.03923,181.28169 c 0,0.69645 -0.56428,1.26072 -1.26114,1.26072 -0.69644,0 -1.26241,-0.56427 -1.26241,-1.26072 0,-0.69686 0.56597,-1.26113 1.26241,-1.26113 0.69686,0 1.26114,0.56427 1.26114,1.26113 z" /><path
       id="Copy of  path428-9"
       style="fill:#000000;fill-opacity:1;fill-rule:nonzero;stroke:none;stroke-width:0.352778"
       d="m 101.76991,181.28169 c 0,0.69645 -0.56597,1.26072 -1.26283,1.26072 -0.696441,0 -1.260713,-0.56427 -1.260713,-1.26072 0,-0.69686 0.564272,-1.26113 1.260713,-1.26113 0.69686,0 1.26283,0.56427 1.26283,1.26113 z"
       inkscape:export-filename="favicon_nest.svg"
       inkscape:export-xdpi="96"
       inkscape:export-ydpi="96" /><path
       style="fill:#000000;fill-opacity:1;stroke:none"
       d="m 89.499679,166.43407 c -0.563766,0.13874 -0.38938,0.94648 -0.38938,1.38488 v 4.23247 13.76767 3.74598 c 0,0.40546 -0.141607,1.14495 0.06411,1.50287 0.200718,0.34921 0.76824,0.2485 1.103463,0.2485 h 3.210836 9.778452 2.96759 c 0.43261,0 0.99552,0.0944 1.41011,-0.0391 0.3692,-0.11891 0.34126,-0.46778 0.34126,-0.78792 v -2.09191 -9.04872 -3.35678 c 0,-0.58852 0.0837,-1.2381 -0.11847,-1.80002 -0.83968,-2.33443 -2.98609,-4.34049 -4.84373,-5.89043 -0.87759,-0.73223 -1.89404,-1.51833 -3.01624,-1.82096 -0.652154,-0.17587 -1.420936,-0.0725 -2.091909,-0.0725 h -3.940572 -3.016241 c -0.458723,0 -1.012587,-0.084 -1.459283,0.0259 m 17.513465,23.90939 H 90.08328 v -22.96235 h 7.540601 c 0.598262,0 1.20236,-0.0245 1.800014,0.002 0.177144,0.008 0.51602,0.0189 0.603085,0.20624 0.16537,0.35588 0.0294,1.05473 0.0294,1.44592 v 3.45408 c 0,0.4475 -0.172468,1.35062 0.15706,1.6957 0.34091,0.357 1.14505,0.20161 1.5943,0.20161 h 3.69733 c 0.32348,0 1.11938,-0.14553 1.38338,0.05 0.22889,0.16953 0.12474,0.7725 0.12474,1.02028 v 2.91894 11.96767 m -5.93518,-22.28128 c 1.49889,0.92497 2.76318,2.26088 3.94057,3.55138 0.43677,0.47872 1.1619,1.15477 1.31353,1.80001 h -3.84328 c -0.31186,0 -1.13304,0.14676 -1.38146,-0.05 -0.21176,-0.16772 -0.078,-1.00863 -0.078,-1.26352 v -2.773 c 0,-0.37673 -0.0975,-0.91658 0.0486,-1.26487 z"
       id="path4-7" /></g></svg>
