<?xml version="1.0" encoding="UTF-8" standalone="no"?>
<!-- Created with Inkscape (http://www.inkscape.org/) -->

<svg
   width="18.94051mm"
   height="24.971432mm"
   viewBox="0 0 18.940509 24.971432"
   version="1.1"
   id="svg319"
   sodipodi:docname="favicon2.svg"
   xml:space="preserve"
   xmlns:inkscape="http://www.inkscape.org/namespaces/inkscape"
   xmlns:sodipodi="http://sodipodi.sourceforge.net/DTD/sodipodi-0.dtd"
   xmlns="http://www.w3.org/2000/svg"
   xmlns:svg="http://www.w3.org/2000/svg"><sodipodi:namedview
     id="namedview321"
     pagecolor="#ffffff"
     bordercolor="#000000"
     borderopacity="0.25"
     inkscape:showpageshadow="2"
     inkscape:pageopacity="0.0"
     inkscape:pagecheckerboard="true"
     inkscape:deskcolor="#d1d1d1"
     inkscape:document-units="mm"
     showgrid="false" /><defs
     id="defs316" /><g
     inkscape:label="Layer 1"
     inkscape:groupmode="layer"
     id="layer1"
     transform="translate(-92.502384,-134.15091)"><path
       id="Copy of  path412-4-5"
       style="fill:#ffffff;fill-opacity:1;fill-rule:nonzero;stroke:none;stroke-width:0.352778"
       d="m 100.62694,148.73232 v -2.39137 c 0,-1.87793 -0.71973,-2.81796 -2.27531,-2.81796 -0.90826,0 -1.56868,0.35246 -2.02365,1.04254 v -0.55749 c 0,-0.19232 -0.1326,-0.30797 -0.41219,-0.30797 h -1.216234 c -0.602398,0 -0.895124,0.1902 -0.895124,0.79091 0,0.5147 0.263072,0.77778 0.77778,0.77778 h 0.117344 v 3.46356 h -0.08939 c -0.542665,0 -0.805737,0.26306 -0.805737,0.79262 0,0.58589 0.277899,0.79089 0.895124,0.79089 H 96.4737 c 0.61723,0 0.89513,-0.205 0.89513,-0.79089 0,-0.52956 -0.26306,-0.79262 -0.80574,-0.79262 h -0.0894 v -2.06856 c 0,-1.0129 0.60239,-1.58521 1.3501,-1.58521 0.82268,0 1.04253,0.54266 1.04253,1.58521 v 2.06856 h -0.0894 c -0.54268,0 -0.82056,0.26306 -0.82056,0.79262 0,0.58589 0.2927,0.79089 0.90992,0.79089 h 1.7606 c 0.61595,0 0.89387,-0.205 0.89387,-0.79089 0,-0.52956 -0.26306,-0.79262 -0.8062,-0.79262 z" /><path
       id="Copy of  path416-1-3"
       style="fill:#ffffff;fill-opacity:1;fill-rule:nonzero;stroke:none;stroke-width:0.352778"
       d="m 105.20951,144.78412 c 0,0.69814 -0.56597,1.26241 -1.26283,1.26241 -0.69644,0 -1.26071,-0.56427 -1.26071,-1.26241 0,-0.69686 0.56427,-1.26113 1.26071,-1.26113 0.69686,0 1.26283,0.56427 1.26283,1.26113 z" /><path
       id="Copy of  path420-8-8"
       style="fill:#ffffff;fill-opacity:1;fill-rule:nonzero;stroke:none;stroke-width:0.352778"
       d="m 109.47883,144.78412 c 0,0.69814 -0.56428,1.26241 -1.26114,1.26241 -0.69644,0 -1.26241,-0.56427 -1.26241,-1.26241 0,-0.69686 0.56597,-1.26113 1.26241,-1.26113 0.69686,0 1.26114,0.56427 1.26114,1.26113 z" /><path
       id="Copy of  path424-5-8"
       style="fill:#ffffff;fill-opacity:1;fill-rule:nonzero;stroke:none;stroke-width:0.352778"
       d="m 109.47883,149.0552 c 0,0.69645 -0.56428,1.26072 -1.26114,1.26072 -0.69644,0 -1.26241,-0.56427 -1.26241,-1.26072 0,-0.69686 0.56597,-1.26113 1.26241,-1.26113 0.69686,0 1.26114,0.56427 1.26114,1.26113 z" /><path
       id="Copy of  path428-9-3"
       style="fill:#ffffff;fill-opacity:1;fill-rule:nonzero;stroke:none;stroke-width:0.352778"
       d="m 105.20951,149.0552 c 0,0.69645 -0.56597,1.26072 -1.26283,1.26072 -0.69644,0 -1.26071,-0.56427 -1.26071,-1.26072 0,-0.69686 0.56427,-1.26113 1.26071,-1.26113 0.69686,0 1.26283,0.56427 1.26283,1.26113 z"
       inkscape:export-filename="favicon_nest.svg"
       inkscape:export-xdpi="96"
       inkscape:export-ydpi="96" /><path
       style="fill:#ffffff;fill-opacity:1;stroke:none"
       d="m 92.939278,134.20758 c -0.563766,0.13874 -0.38938,0.94648 -0.38938,1.38488 v 4.23247 13.76767 3.74598 c 0,0.40546 -0.141607,1.14495 0.06411,1.50287 0.200718,0.34921 0.76824,0.2485 1.103463,0.2485 h 3.210839 9.77845 2.96759 c 0.43261,0 0.99552,0.0944 1.41011,-0.0391 0.3692,-0.11891 0.34126,-0.46778 0.34126,-0.78792 v -2.09191 -9.04872 -3.35678 c 0,-0.58852 0.0837,-1.2381 -0.11847,-1.80002 -0.83968,-2.33443 -2.98609,-4.34049 -4.84373,-5.89043 -0.87759,-0.73223 -1.89404,-1.51833 -3.01624,-1.82096 -0.65215,-0.17587 -1.42094,-0.0725 -2.09191,-0.0725 H 97.4148 94.398557 c -0.458723,0 -1.012587,-0.084 -1.459283,0.0259 M 110.45274,158.1169 H 93.522879 v -22.96235 h 7.540601 c 0.59826,0 1.20236,-0.0245 1.80001,0.002 0.17715,0.008 0.51602,0.0189 0.60309,0.20624 0.16537,0.35588 0.0294,1.05473 0.0294,1.44592 v 3.45408 c 0,0.4475 -0.17247,1.35062 0.15706,1.6957 0.34091,0.357 1.14505,0.20161 1.5943,0.20161 h 3.69733 c 0.32348,0 1.11938,-0.14553 1.38338,0.05 0.22889,0.16953 0.12474,0.7725 0.12474,1.02028 v 2.91894 11.96767 m -5.93518,-22.28128 c 1.49889,0.92497 2.76318,2.26088 3.94057,3.55138 0.43677,0.47872 1.1619,1.15477 1.31353,1.80001 h -3.84328 c -0.31186,0 -1.13304,0.14676 -1.38146,-0.05 -0.21176,-0.16772 -0.078,-1.00863 -0.078,-1.26352 v -2.773 c 0,-0.37673 -0.0975,-0.91658 0.0486,-1.26487 z"
       id="path4-7-1" /></g></svg>
