<?xml version="1.0" encoding="UTF-8"?>
<!DOCTYPE svg PUBLIC "-//W3C//DTD SVG 1.1//EN" "http://www.w3.org/Graphics/SVG/1.1/DTD/svg11.dtd">
<svg version="1.2" width="146.05mm" height="77.61mm" viewBox="0 0 14605 7761" preserveAspectRatio="xMidYMid" fill-rule="evenodd" stroke-width="28.222" stroke-linejoin="round" xmlns="http://www.w3.org/2000/svg" xmlns:ooo="http://xml.openoffice.org/svg/export" xmlns:xlink="http://www.w3.org/1999/xlink" xmlns:presentation="http://sun.com/xmlns/staroffice/presentation" xmlns:smil="http://www.w3.org/2001/SMIL20/" xmlns:anim="urn:oasis:names:tc:opendocument:xmlns:animation:1.0" xml:space="preserve">
 <defs class="ClipPathGroup">
  <clipPath id="presentation_clip_path" clipPathUnits="userSpaceOnUse">
   <rect x="0" y="0" width="14605" height="7761"/>
  </clipPath>
  <clipPath id="presentation_clip_path_shrink" clipPathUnits="userSpaceOnUse">
   <rect x="14" y="7" width="14576" height="7746"/>
  </clipPath>
 </defs>
 <defs class="TextShapeIndex">
  <g ooo:slide="id1" ooo:id-list="id3 id4 id5 id6 id7 id8 id9 id10 id11 id12 id13 id14 id15 id16 id17 id18 id19 id20 id21 id22 id23 id24 id25 id26 id27 id28 id29 id30 id31 id32 id33 id34 id35 id36 id37 id38 id39 id40 id41 id42 id43 id44 id45 id46 id47 id48 id49 id50 id51 id52 id53 id54 id55 id56 id57 id58 id59 id60 id61 id62 id63 id64 id65 id66 id67 id68 id69 id70 id71 id72 id73 id74 id75 id76 id77 id78 id79 id80 id81 id82 id83 id84 id85 id86 id87 id88"/>
 </defs>
 <defs class="EmbeddedBulletChars">
  <g id="bullet-char-template-57356" transform="scale(0.00048828125,-0.00048828125)">
   <path d="M 580,1141 L 1163,571 580,0 -4,571 580,1141 Z"/>
  </g>
  <g id="bullet-char-template-57354" transform="scale(0.00048828125,-0.00048828125)">
   <path d="M 8,1128 L 1137,1128 1137,0 8,0 8,1128 Z"/>
  </g>
  <g id="bullet-char-template-10146" transform="scale(0.00048828125,-0.00048828125)">
   <path d="M 174,0 L 602,739 174,1481 1456,739 174,0 Z M 1358,739 L 309,1346 659,739 1358,739 Z"/>
  </g>
  <g id="bullet-char-template-10132" transform="scale(0.00048828125,-0.00048828125)">
   <path d="M 2015,739 L 1276,0 717,0 1260,543 174,543 174,936 1260,936 717,1481 1274,1481 2015,739 Z"/>
  </g>
  <g id="bullet-char-template-10007" transform="scale(0.00048828125,-0.00048828125)">
   <path d="M 0,-2 C -7,14 -16,27 -25,37 L 356,567 C 262,823 215,952 215,954 215,979 228,992 255,992 264,992 276,990 289,987 310,991 331,999 354,1012 L 381,999 492,748 772,1049 836,1024 860,1049 C 881,1039 901,1025 922,1006 886,937 835,863 770,784 769,783 710,716 594,584 L 774,223 C 774,196 753,168 711,139 L 727,119 C 717,90 699,76 672,76 641,76 570,178 457,381 L 164,-76 C 142,-110 111,-127 72,-127 30,-127 9,-110 8,-76 1,-67 -2,-52 -2,-32 -2,-23 -1,-13 0,-2 Z"/>
  </g>
  <g id="bullet-char-template-10004" transform="scale(0.00048828125,-0.00048828125)">
   <path d="M 285,-33 C 182,-33 111,30 74,156 52,228 41,333 41,471 41,549 55,616 82,672 116,743 169,778 240,778 293,778 328,747 346,684 L 369,508 C 377,444 397,411 428,410 L 1163,1116 C 1174,1127 1196,1133 1229,1133 1271,1133 1292,1118 1292,1087 L 1292,965 C 1292,929 1282,901 1262,881 L 442,47 C 390,-6 338,-33 285,-33 Z"/>
  </g>
  <g id="bullet-char-template-9679" transform="scale(0.00048828125,-0.00048828125)">
   <path d="M 813,0 C 632,0 489,54 383,161 276,268 223,411 223,592 223,773 276,916 383,1023 489,1130 632,1184 813,1184 992,1184 1136,1130 1245,1023 1353,916 1407,772 1407,592 1407,412 1353,268 1245,161 1136,54 992,0 813,0 Z"/>
  </g>
  <g id="bullet-char-template-8226" transform="scale(0.00048828125,-0.00048828125)">
   <path d="M 346,457 C 273,457 209,483 155,535 101,586 74,649 74,723 74,796 101,859 155,911 209,963 273,989 346,989 419,989 480,963 531,910 582,859 608,796 608,723 608,648 583,586 532,535 482,483 420,457 346,457 Z"/>
  </g>
  <g id="bullet-char-template-8211" transform="scale(0.00048828125,-0.00048828125)">
   <path d="M -4,459 L 1135,459 1135,606 -4,606 -4,459 Z"/>
  </g>
  <g id="bullet-char-template-61548" transform="scale(0.00048828125,-0.00048828125)">
   <path d="M 173,740 C 173,903 231,1043 346,1159 462,1274 601,1332 765,1332 928,1332 1067,1274 1183,1159 1299,1043 1357,903 1357,740 1357,577 1299,437 1183,322 1067,206 928,148 765,148 601,148 462,206 346,322 231,437 173,577 173,740 Z"/>
  </g>
 </defs>
 <g>
  <g id="id2" class="Master_Slide">
   <g id="bg-id2" class="Background"/>
   <g id="bo-id2" class="BackgroundObjects"/>
  </g>
 </g>
 <g class="SlideGroup">
  <g>
   <g id="container-id1">
    <g id="id1" class="Slide" clip-path="url(#presentation_clip_path)">
     <g class="Page">
      <g class="OLE2">
       <g id="id3">
        <rect class="BoundingBox" stroke="none" fill="none" x="8515" y="11058" width="2000" height="1000"/>
        <defs>
         <clipPath id="clip_path_1" clipPathUnits="userSpaceOnUse">
          <path d="M 8517,11059 L 10507,11059 10507,12066 8517,12066 8517,11059 Z"/>
         </clipPath>
        </defs>
        <g clip-path="url(#clip_path_1)"/>
       </g>
      </g>
      <g class="com.sun.star.drawing.ConnectorShape">
       <g id="id4">
        <rect class="BoundingBox" stroke="none" fill="none" x="11152" y="5531" width="6622" height="4"/>
       </g>
      </g>
      <g class="com.sun.star.drawing.ConnectorShape">
       <g id="id5">
        <rect class="BoundingBox" stroke="none" fill="none" x="5867" y="2983" width="2846" height="267"/>
        <path fill="none" stroke="rgb(0,0,0)" stroke-width="53" stroke-linejoin="round" stroke-linecap="round" d="M 6114,3116 L 8685,3116"/>
        <path fill="rgb(0,0,0)" stroke="none" d="M 6129,3140 L 6122,3164 6110,3188 6093,3210 6072,3227 6048,3239 6024,3245 5999,3249 5975,3245 5950,3239 5927,3227 5906,3210 5889,3188 5877,3164 5869,3140 5867,3115 5869,3092 5877,3067 5889,3044 5906,3022 5927,3005 5950,2993 5975,2987 5999,2984 6024,2987 6048,2993 6072,3005 6093,3022 6110,3044 6122,3067 6129,3092 6132,3115 6129,3140 Z"/>
       </g>
      </g>
      <g class="com.sun.star.drawing.ConnectorShape">
       <g id="id6">
        <rect class="BoundingBox" stroke="none" fill="none" x="5183" y="1691" width="3511" height="267"/>
        <path fill="none" stroke="rgb(0,0,0)" stroke-width="53" stroke-linejoin="round" stroke-linecap="round" d="M 8340,1824 L 5210,1824"/>
        <path fill="rgb(0,0,0)" stroke="none" d="M 8344,1929 L 8323,1957 8693,1824 8323,1692 8343,1718 8359,1750 8369,1785 8373,1822 8370,1860 8360,1896 8344,1929 Z"/>
       </g>
      </g>
      <g class="com.sun.star.drawing.ConnectorShape">
       <g id="id7">
        <rect class="BoundingBox" stroke="none" fill="none" x="8336" y="3553" width="1216" height="2473"/>
        <path fill="none" stroke="rgb(0,0,0)" stroke-width="53" stroke-linejoin="round" stroke-linecap="round" d="M 8363,5998 L 9397,3871"/>
        <path fill="rgb(0,0,0)" stroke="none" d="M 9493,3914 L 9508,3945 9551,3554 9270,3829 9303,3823 9338,3822 9374,3828 9410,3841 9443,3860 9470,3885 9493,3914 Z"/>
       </g>
      </g>
      <g class="com.sun.star.drawing.ConnectorShape">
       <g id="id8">
        <rect class="BoundingBox" stroke="none" fill="none" x="4991" y="3554" width="1268" height="2473"/>
        <path fill="none" stroke="rgb(0,0,0)" stroke-width="53" stroke-linejoin="round" stroke-linecap="round" d="M 6231,5999 L 5151,3868"/>
        <path fill="rgb(0,0,0)" stroke="none" d="M 5243,3818 L 5278,3824 4992,3554 5041,3944 5056,3914 5077,3886 5103,3860 5135,3840 5170,3825 5207,3819 5243,3818 Z"/>
       </g>
      </g>
      <g class="Group">
       <g class="com.sun.star.drawing.ClosedBezierShape">
        <g id="id9">
         <rect class="BoundingBox" stroke="none" fill="none" x="6418" y="1441" width="1017" height="272"/>
         <path fill="rgb(255,255,255)" stroke="none" d="M 6927,1712 C 6757,1712 6588,1712 6418,1712 6418,1622 6418,1531 6418,1441 6757,1441 7095,1441 7434,1441 7434,1531 7434,1622 7434,1712 7265,1712 7096,1712 6927,1712 Z"/>
        </g>
       </g>
       <g class="com.sun.star.drawing.ClosedBezierShape">
        <g id="id10">
         <rect class="BoundingBox" stroke="none" fill="none" x="6414" y="1424" width="299" height="239"/>
         <path fill="rgb(0,0,0)" stroke="none" d="M 6579,1522 C 6579,1521 6577,1518 6577,1517 6577,1516 6584,1511 6587,1509 6607,1493 6628,1477 6649,1461 6682,1437 6696,1436 6706,1435 6709,1434 6712,1434 6712,1428 6712,1426 6711,1424 6709,1424 6701,1424 6692,1425 6684,1425 6671,1425 6657,1424 6645,1424 6642,1424 6638,1424 6638,1431 6638,1433 6640,1434 6642,1435 6650,1435 6653,1437 6653,1442 6653,1448 6643,1456 6640,1458 6594,1493 6549,1528 6503,1563 6513,1525 6522,1488 6532,1451 6535,1438 6535,1435 6561,1435 6570,1435 6573,1435 6573,1428 6573,1425 6570,1424 6568,1424 6558,1424 6533,1425 6523,1425 6513,1425 6488,1424 6478,1424 6475,1424 6471,1424 6471,1431 6471,1435 6474,1435 6481,1435 6486,1435 6492,1435 6496,1435 6502,1436 6504,1437 6504,1441 6504,1442 6503,1444 6502,1448 6486,1510 6471,1573 6455,1635 6452,1649 6451,1651 6423,1651 6417,1651 6414,1651 6414,1658 6414,1662 6418,1662 6419,1662 6429,1662 6454,1661 6463,1661 6471,1661 6479,1661 6486,1661 6494,1661 6501,1662 6509,1662 6511,1662 6516,1662 6516,1655 6516,1651 6513,1651 6506,1651 6493,1651 6483,1651 6483,1645 6483,1643 6485,1635 6486,1630 6491,1611 6496,1593 6500,1576 6518,1562 6535,1548 6553,1535 6566,1566 6580,1597 6593,1628 6598,1638 6598,1638 6598,1640 6598,1651 6583,1651 6579,1651 6575,1651 6572,1651 6572,1658 6572,1662 6576,1662 6577,1662 6591,1662 6605,1661 6619,1661 6627,1661 6646,1662 6654,1662 6656,1662 6660,1662 6660,1655 6660,1651 6656,1651 6653,1651 6639,1651 6634,1648 6629,1636 6612,1598 6595,1560 6579,1522 Z"/>
        </g>
       </g>
       <g class="com.sun.star.drawing.ClosedBezierShape">
        <g id="id11">
         <rect class="BoundingBox" stroke="none" fill="none" x="6717" y="1546" width="26" height="170"/>
         <path fill="rgb(0,0,0)" stroke="none" d="M 6742,1547 C 6734,1547 6725,1547 6717,1547 6717,1555 6717,1564 6717,1572 6725,1572 6734,1572 6742,1572 6742,1564 6742,1555 6742,1547 Z M 6740,1607 C 6733,1607 6726,1607 6719,1607 6719,1643 6719,1679 6719,1715 6726,1715 6733,1715 6740,1715 6740,1679 6740,1643 6740,1607 Z"/>
        </g>
       </g>
       <g class="com.sun.star.drawing.ClosedBezierShape">
        <g id="id12">
         <rect class="BoundingBox" stroke="none" fill="none" x="6781" y="1603" width="95" height="113"/>
         <path fill="rgb(0,0,0)" stroke="none" d="M 6875,1642 C 6875,1623 6869,1603 6839,1603 6825,1603 6812,1609 6801,1622 6801,1616 6801,1610 6801,1604 6794,1604 6788,1604 6781,1604 6781,1641 6781,1678 6781,1715 6788,1715 6796,1715 6803,1715 6803,1695 6803,1675 6803,1655 6803,1639 6810,1620 6828,1620 6854,1620 6854,1637 6854,1644 6854,1667 6854,1691 6854,1715 6861,1715 6868,1715 6875,1715 6875,1690 6875,1666 6875,1642 Z"/>
        </g>
       </g>
       <g class="com.sun.star.drawing.ClosedBezierShape">
        <g id="id13">
         <rect class="BoundingBox" stroke="none" fill="none" x="6942" y="1625" width="43" height="107"/>
         <path fill="rgb(0,0,0)" stroke="none" d="M 6984,1662 C 6984,1639 6975,1625 6961,1625 6950,1625 6942,1634 6942,1644 6942,1653 6950,1662 6961,1662 6965,1662 6970,1661 6973,1658 6974,1657 6974,1657 6975,1657 6975,1659 6976,1657 6976,1662 6976,1688 6964,1709 6952,1720 6948,1724 6948,1725 6948,1726 6948,1728 6950,1730 6952,1730 6955,1730 6984,1703 6984,1662 Z"/>
        </g>
       </g>
       <g class="com.sun.star.drawing.ClosedBezierShape">
        <g id="id14">
         <rect class="BoundingBox" stroke="none" fill="none" x="7132" y="1423" width="321" height="240"/>
         <path fill="rgb(0,0,0)" stroke="none" d="M 7291,1590 C 7268,1536 7246,1483 7223,1430 7221,1423 7220,1423 7211,1423 7189,1423 7168,1423 7146,1423 7139,1423 7134,1423 7134,1429 7134,1435 7140,1435 7142,1435 7146,1435 7156,1436 7163,1439 7163,1501 7163,1563 7163,1625 7163,1632 7163,1648 7140,1650 7133,1651 7135,1654 7133,1656 7133,1662 7138,1662 7145,1662 7163,1662 7181,1662 7199,1662 7206,1662 7211,1662 7211,1656 7211,1653 7208,1650 7205,1650 7178,1648 7178,1633 7178,1625 7178,1568 7178,1510 7178,1452 L 7179,1451 C 7207,1519 7236,1587 7264,1655 7267,1661 7269,1662 7272,1662 7276,1662 7277,1659 7279,1655 7308,1587 7336,1519 7365,1451 L 7365,1452 C 7365,1510 7365,1568 7365,1625 7365,1632 7365,1648 7341,1650 7334,1651 7336,1654 7334,1656 7334,1662 7340,1662 7346,1662 7377,1662 7408,1662 7440,1662 7447,1662 7452,1662 7452,1656 7452,1653 7449,1650 7446,1650 7419,1648 7419,1633 7419,1625 7419,1570 7419,1515 7419,1460 7419,1453 7419,1438 7443,1435 7447,1435 7450,1433 7450,1429 7450,1423 7444,1423 7438,1423 7415,1423 7392,1423 7370,1423 7361,1423 7360,1423 7357,1431 7335,1484 7313,1537 7291,1590 Z M 7280,1595 C 7283,1601 7283,1601 7287,1603 7282,1616 7277,1628 7272,1640 L 7271,1640 C 7244,1577 7218,1513 7191,1450 7189,1446 7187,1440 7182,1435 7192,1435 7202,1435 7212,1435 7235,1488 7257,1542 7280,1595 Z M 7174,1650 C 7172,1650 7170,1650 7168,1650 7169,1649 7169,1648 7170,1647 7170,1647 7170,1646 7171,1646 7172,1648 7173,1649 7174,1650 Z M 7377,1435 C 7389,1435 7402,1435 7415,1435 7407,1444 7407,1453 7407,1460 7407,1515 7407,1571 7407,1626 7407,1632 7407,1641 7415,1650 7400,1650 7385,1650 7370,1650 7377,1641 7377,1632 7377,1626 7377,1563 7377,1499 7377,1435 Z"/>
        </g>
       </g>
      </g>
      <g class="Group">
       <g class="com.sun.star.drawing.ClosedBezierShape">
        <g id="id15">
         <rect class="BoundingBox" stroke="none" fill="none" x="6291" y="1941" width="1237" height="276"/>
         <path fill="rgb(255,255,255)" stroke="none" d="M 6910,2216 C 6703,2216 6497,2216 6291,2216 6291,2125 6291,2033 6291,1942 6703,1942 7115,1942 7527,1942 7527,2033 7527,2125 7527,2216 7321,2216 7115,2216 6910,2216 Z"/>
        </g>
       </g>
       <g class="com.sun.star.drawing.ClosedBezierShape">
        <g id="id16">
         <rect class="BoundingBox" stroke="none" fill="none" x="6287" y="1928" width="299" height="239"/>
         <path fill="rgb(0,0,0)" stroke="none" d="M 6452,2026 C 6452,2025 6450,2022 6450,2021 6450,2020 6457,2016 6460,2013 6481,1997 6501,1982 6522,1966 6555,1941 6569,1940 6579,1939 6582,1939 6585,1938 6585,1932 6585,1930 6584,1928 6582,1928 6574,1928 6565,1929 6557,1929 6544,1929 6530,1928 6518,1928 6515,1928 6511,1928 6511,1935 6511,1937 6513,1939 6515,1939 6523,1940 6526,1941 6526,1946 6526,1953 6516,1961 6513,1962 6467,1997 6422,2032 6376,2067 6386,2029 6395,1992 6405,1955 6408,1942 6408,1939 6434,1939 6443,1939 6446,1939 6446,1932 6446,1929 6443,1928 6441,1928 6431,1928 6406,1929 6396,1929 6386,1929 6361,1928 6351,1928 6348,1928 6344,1928 6344,1935 6344,1939 6347,1939 6354,1939 6359,1939 6365,1939 6369,1940 6375,1940 6377,1941 6377,1945 6377,1947 6376,1948 6375,1952 6359,2014 6344,2077 6328,2139 6325,2153 6324,2155 6296,2155 6290,2155 6287,2155 6287,2162 6287,2166 6291,2166 6292,2166 6302,2166 6327,2165 6336,2165 6344,2165 6352,2166 6359,2166 6367,2166 6374,2166 6382,2166 6384,2166 6389,2166 6389,2159 6389,2155 6386,2155 6379,2155 6366,2155 6356,2155 6356,2149 6356,2147 6358,2139 6359,2134 6364,2115 6369,2097 6373,2080 6391,2066 6408,2052 6426,2039 6439,2070 6453,2101 6466,2132 6471,2142 6471,2142 6471,2145 6471,2155 6456,2155 6452,2155 6448,2155 6445,2155 6445,2162 6445,2166 6449,2166 6450,2166 6464,2166 6478,2165 6492,2165 6500,2165 6519,2166 6527,2166 6529,2166 6533,2166 6533,2159 6533,2155 6529,2155 6526,2155 6512,2155 6507,2152 6502,2140 6485,2102 6469,2064 6452,2026 Z"/>
        </g>
       </g>
       <g class="com.sun.star.drawing.ClosedBezierShape">
        <g id="id17">
         <rect class="BoundingBox" stroke="none" fill="none" x="6595" y="2050" width="124" height="170"/>
         <path fill="rgb(0,0,0)" stroke="none" d="M 6706,2140 C 6706,2134 6706,2129 6706,2124 6677,2124 6649,2124 6620,2124 6620,2105 6620,2086 6620,2067 6632,2067 6644,2067 6656,2067 6659,2067 6662,2068 6665,2068 6681,2068 6697,2068 6713,2068 6713,2062 6713,2056 6713,2050 6674,2050 6634,2050 6595,2050 6595,2106 6595,2163 6595,2219 6636,2219 6676,2219 6717,2219 6717,2213 6717,2207 6717,2201 6710,2201 6702,2201 6695,2201 6674,2201 6654,2201 6633,2201 6629,2201 6624,2201 6620,2201 6620,2180 6620,2160 6620,2140 6649,2140 6677,2140 6706,2140 Z"/>
        </g>
       </g>
       <g class="com.sun.star.drawing.ClosedBezierShape">
        <g id="id18">
         <rect class="BoundingBox" stroke="none" fill="none" x="6776" y="2129" width="42" height="107"/>
         <path fill="rgb(0,0,0)" stroke="none" d="M 6817,2166 C 6817,2143 6808,2129 6795,2129 6783,2129 6776,2138 6776,2148 6776,2157 6783,2166 6795,2166 6799,2166 6803,2165 6807,2162 6808,2161 6808,2161 6809,2161 6809,2163 6809,2161 6809,2166 6809,2192 6797,2213 6785,2224 6782,2228 6782,2229 6782,2230 6782,2232 6783,2234 6785,2234 6789,2234 6817,2207 6817,2166 Z"/>
        </g>
       </g>
       <g class="com.sun.star.drawing.ClosedBezierShape">
        <g id="id19">
         <rect class="BoundingBox" stroke="none" fill="none" x="6984" y="1928" width="199" height="247"/>
         <path fill="rgb(0,0,0)" stroke="none" d="M 7149,1954 C 7152,1942 7153,1939 7172,1939 7178,1939 7182,1939 7182,1932 7182,1929 7180,1928 7177,1928 7168,1928 7147,1929 7138,1929 7126,1929 7098,1928 7086,1928 7083,1928 7079,1928 7079,1935 7079,1939 7082,1939 7091,1939 7099,1939 7102,1939 7111,1940 7120,1941 7122,1942 7122,1947 7122,1949 7121,1951 7121,1954 7107,2007 7094,2061 7080,2114 7072,2148 7048,2166 7030,2166 7020,2166 7002,2163 6996,2145 6997,2145 6999,2145 7000,2145 7014,2145 7023,2133 7023,2122 7023,2111 7014,2108 7008,2108 7002,2108 6984,2112 6984,2136 6984,2157 7003,2174 7031,2174 7063,2174 7100,2151 7108,2116 7122,2062 7135,2008 7149,1954 Z"/>
        </g>
       </g>
       <g class="com.sun.star.drawing.ClosedBezierShape">
        <g id="id20">
         <rect class="BoundingBox" stroke="none" fill="none" x="7179" y="2129" width="42" height="107"/>
         <path fill="rgb(0,0,0)" stroke="none" d="M 7220,2166 C 7220,2143 7211,2129 7198,2129 7186,2129 7179,2138 7179,2148 7179,2157 7186,2166 7198,2166 7202,2166 7207,2165 7210,2162 7211,2161 7211,2161 7212,2161 7212,2163 7212,2161 7212,2166 7212,2192 7200,2213 7189,2224 7185,2228 7185,2229 7185,2230 7185,2232 7186,2234 7188,2234 7192,2234 7220,2207 7220,2166 Z"/>
        </g>
       </g>
       <g class="com.sun.star.drawing.ClosedBezierShape">
        <g id="id21">
         <rect class="BoundingBox" stroke="none" fill="none" x="7378" y="1924" width="169" height="247"/>
         <path fill="rgb(0,0,0)" stroke="none" d="M 7545,1928 C 7543,1927 7545,1924 7540,1924 7535,1924 7502,1927 7496,1928 7493,1928 7491,1930 7491,1935 7491,1939 7494,1939 7499,1939 7516,1939 7517,1941 7517,1945 7517,1947 7516,1950 7516,1952 7509,1980 7502,2007 7495,2035 7488,2022 7478,2012 7462,2012 7421,2012 7378,2064 7378,2114 7378,2147 7397,2170 7424,2170 7431,2170 7449,2169 7470,2144 7473,2159 7485,2170 7502,2170 7514,2170 7522,2162 7528,2151 7534,2138 7538,2117 7538,2116 7538,2113 7535,2113 7534,2113 7531,2113 7530,2114 7529,2119 7523,2142 7517,2162 7503,2162 7493,2162 7492,2153 7492,2146 7492,2138 7493,2135 7494,2129 7511,2062 7528,1995 7545,1928 Z M 7472,2125 C 7470,2131 7470,2132 7465,2138 7449,2157 7435,2162 7425,2162 7407,2162 7403,2143 7403,2129 7403,2112 7414,2070 7422,2054 7433,2033 7449,2020 7463,2020 7485,2020 7490,2049 7490,2051 7490,2053 7490,2055 7489,2057 7483,2080 7478,2102 7472,2125 Z"/>
        </g>
       </g>
      </g>
      <g class="com.sun.star.drawing.ConnectorShape">
       <g id="id22">
        <rect class="BoundingBox" stroke="none" fill="none" x="3178" y="664" width="1943" height="1835"/>
        <path fill="none" stroke="rgb(0,0,0)" stroke-width="53" stroke-linejoin="round" stroke-linecap="round" d="M 4434,2471 L 3205,2471 3205,691 4987,691 4987,1024"/>
        <path fill="rgb(0,0,0)" stroke="none" d="M 4882,1028 L 4855,1007 4987,1377 5120,1007 5093,1027 5061,1043 5026,1053 4989,1057 4951,1054 4915,1044 4882,1028 Z"/>
       </g>
      </g>
      <g class="com.sun.star.drawing.ConnectorShape">
       <g id="id23">
        <rect class="BoundingBox" stroke="none" fill="none" x="9418" y="664" width="1947" height="1835"/>
        <path fill="none" stroke="rgb(0,0,0)" stroke-width="53" stroke-linejoin="round" stroke-linecap="round" d="M 10633,2471 L 11337,2471 11337,691 9551,691 9551,1138"/>
        <path fill="rgb(0,0,0)" stroke="none" d="M 9575,1123 L 9599,1130 9623,1142 9645,1159 9662,1180 9674,1204 9680,1228 9684,1253 9680,1277 9674,1302 9662,1325 9645,1346 9623,1363 9599,1375 9575,1383 9550,1385 9527,1383 9502,1375 9479,1363 9457,1346 9440,1325 9428,1302 9422,1277 9419,1253 9422,1228 9428,1204 9440,1180 9457,1159 9479,1142 9502,1130 9527,1123 9550,1120 9575,1123 Z"/>
       </g>
      </g>
      <g class="Group">
       <g class="com.sun.star.drawing.ClosedBezierShape">
        <g id="id24">
         <rect class="BoundingBox" stroke="none" fill="none" x="6743" y="2735" width="1017" height="272"/>
         <path fill="rgb(255,255,255)" stroke="none" d="M 7252,3006 C 7082,3006 6913,3006 6743,3006 6743,2916 6743,2825 6743,2735 7082,2735 7420,2735 7759,2735 7759,2825 7759,2916 7759,3006 7590,3006 7421,3006 7252,3006 Z"/>
        </g>
       </g>
       <g class="com.sun.star.drawing.ClosedBezierShape">
        <g id="id25">
         <rect class="BoundingBox" stroke="none" fill="none" x="6739" y="2718" width="299" height="239"/>
         <path fill="rgb(0,0,0)" stroke="none" d="M 6904,2816 C 6904,2815 6902,2812 6902,2811 6902,2810 6909,2805 6912,2803 6932,2787 6953,2771 6974,2755 7007,2731 7021,2730 7031,2729 7034,2728 7037,2728 7037,2722 7037,2720 7036,2718 7034,2718 7026,2718 7017,2719 7009,2719 6996,2719 6982,2718 6970,2718 6967,2718 6963,2718 6963,2725 6963,2727 6965,2728 6967,2729 6975,2729 6978,2731 6978,2736 6978,2742 6968,2750 6965,2752 6919,2787 6874,2822 6828,2857 6838,2819 6847,2782 6857,2745 6860,2732 6860,2729 6886,2729 6895,2729 6898,2729 6898,2722 6898,2719 6895,2718 6893,2718 6883,2718 6858,2719 6848,2719 6838,2719 6813,2718 6803,2718 6800,2718 6796,2718 6796,2725 6796,2729 6799,2729 6806,2729 6811,2729 6817,2729 6821,2729 6827,2730 6829,2731 6829,2735 6829,2736 6828,2738 6827,2742 6811,2804 6796,2867 6780,2929 6777,2943 6776,2945 6748,2945 6742,2945 6739,2945 6739,2952 6739,2956 6743,2956 6744,2956 6754,2956 6779,2955 6788,2955 6796,2955 6804,2955 6811,2955 6819,2955 6826,2956 6834,2956 6836,2956 6841,2956 6841,2949 6841,2945 6838,2945 6831,2945 6818,2945 6808,2945 6808,2939 6808,2937 6810,2929 6811,2924 6816,2905 6821,2887 6825,2870 6843,2856 6860,2842 6878,2829 6891,2860 6905,2891 6918,2922 6923,2932 6923,2932 6923,2934 6923,2945 6908,2945 6904,2945 6900,2945 6897,2945 6897,2952 6897,2956 6901,2956 6902,2956 6916,2956 6930,2955 6944,2955 6952,2955 6971,2956 6979,2956 6981,2956 6985,2956 6985,2949 6985,2945 6981,2945 6978,2945 6964,2945 6959,2942 6954,2930 6937,2892 6920,2854 6904,2816 Z"/>
        </g>
       </g>
       <g class="com.sun.star.drawing.ClosedBezierShape">
        <g id="id26">
         <rect class="BoundingBox" stroke="none" fill="none" x="7042" y="2841" width="26" height="169"/>
         <path fill="rgb(0,0,0)" stroke="none" d="M 7067,2841 C 7059,2841 7050,2841 7042,2841 7042,2849 7042,2858 7042,2866 7050,2866 7059,2866 7067,2866 7067,2858 7067,2849 7067,2841 Z M 7065,2901 C 7058,2901 7051,2901 7044,2901 7044,2937 7044,2973 7044,3009 7051,3009 7058,3009 7065,3009 7065,2973 7065,2937 7065,2901 Z"/>
        </g>
       </g>
       <g class="com.sun.star.drawing.ClosedBezierShape">
        <g id="id27">
         <rect class="BoundingBox" stroke="none" fill="none" x="7105" y="2897" width="96" height="113"/>
         <path fill="rgb(0,0,0)" stroke="none" d="M 7200,2936 C 7200,2917 7194,2897 7164,2897 7150,2897 7137,2903 7126,2916 7126,2910 7126,2904 7126,2898 7119,2898 7113,2898 7106,2898 7106,2935 7106,2972 7106,3009 7113,3009 7121,3009 7128,3009 7128,2989 7128,2969 7128,2949 7128,2933 7135,2914 7153,2914 7179,2914 7179,2931 7179,2938 7179,2961 7179,2985 7179,3009 7186,3009 7193,3009 7200,3009 7200,2984 7200,2960 7200,2936 Z"/>
        </g>
       </g>
       <g class="com.sun.star.drawing.ClosedBezierShape">
        <g id="id28">
         <rect class="BoundingBox" stroke="none" fill="none" x="7267" y="2919" width="43" height="107"/>
         <path fill="rgb(0,0,0)" stroke="none" d="M 7309,2956 C 7309,2933 7300,2919 7286,2919 7275,2919 7267,2928 7267,2938 7267,2947 7275,2956 7286,2956 7290,2956 7295,2955 7298,2952 7299,2951 7299,2951 7300,2951 7300,2953 7301,2951 7301,2956 7301,2982 7289,3003 7277,3014 7273,3018 7273,3019 7273,3020 7273,3022 7275,3024 7277,3024 7280,3024 7309,2997 7309,2956 Z"/>
        </g>
       </g>
       <g class="com.sun.star.drawing.ClosedBezierShape">
        <g id="id29">
         <rect class="BoundingBox" stroke="none" fill="none" x="7457" y="2717" width="321" height="240"/>
         <path fill="rgb(0,0,0)" stroke="none" d="M 7616,2884 C 7593,2830 7571,2777 7548,2724 7546,2717 7545,2717 7536,2717 7514,2717 7493,2717 7471,2717 7464,2717 7459,2717 7459,2723 7459,2729 7465,2729 7467,2729 7471,2729 7481,2730 7488,2733 7488,2795 7488,2857 7488,2919 7488,2926 7488,2942 7465,2944 7458,2945 7460,2948 7458,2950 7458,2956 7463,2956 7470,2956 7488,2956 7506,2956 7524,2956 7531,2956 7536,2956 7536,2950 7536,2947 7533,2944 7530,2944 7503,2942 7503,2927 7503,2919 7503,2862 7503,2804 7503,2746 L 7504,2745 C 7532,2813 7561,2881 7589,2949 7592,2955 7594,2956 7597,2956 7601,2956 7602,2953 7604,2949 7633,2881 7661,2813 7690,2745 L 7690,2746 C 7690,2804 7690,2862 7690,2919 7690,2926 7690,2942 7666,2944 7659,2945 7661,2948 7659,2950 7659,2956 7665,2956 7671,2956 7702,2956 7733,2956 7765,2956 7772,2956 7777,2956 7777,2950 7777,2947 7774,2944 7771,2944 7744,2942 7744,2927 7744,2919 7744,2864 7744,2809 7744,2754 7744,2747 7744,2732 7768,2729 7772,2729 7775,2727 7775,2723 7775,2717 7769,2717 7763,2717 7740,2717 7717,2717 7695,2717 7686,2717 7685,2717 7682,2725 7660,2778 7638,2831 7616,2884 Z M 7605,2889 C 7608,2895 7608,2895 7612,2897 7607,2910 7602,2922 7597,2934 L 7596,2934 C 7569,2871 7543,2807 7516,2744 7514,2740 7512,2734 7507,2729 7517,2729 7527,2729 7537,2729 7560,2782 7582,2836 7605,2889 Z M 7499,2944 C 7497,2944 7495,2944 7493,2944 7494,2943 7494,2942 7495,2941 7495,2941 7495,2940 7496,2940 7497,2942 7498,2943 7499,2944 Z M 7702,2729 C 7714,2729 7727,2729 7740,2729 7732,2738 7732,2747 7732,2754 7732,2809 7732,2865 7732,2920 7732,2926 7732,2935 7740,2944 7725,2944 7710,2944 7695,2944 7702,2935 7702,2926 7702,2920 7702,2857 7702,2793 7702,2729 Z"/>
        </g>
       </g>
      </g>
      <g class="Group">
       <g class="com.sun.star.drawing.ClosedBezierShape">
        <g id="id30">
         <rect class="BoundingBox" stroke="none" fill="none" x="6355" y="3242" width="1607" height="280"/>
         <path fill="rgb(255,255,255)" stroke="none" d="M 6355,3242 C 6890,3242 7425,3242 7960,3242 7960,3335 7960,3427 7960,3520 7425,3520 6890,3520 6355,3520 6355,3427 6355,3335 6355,3242 Z"/>
        </g>
       </g>
       <g class="com.sun.star.drawing.ClosedBezierShape">
        <g id="id31">
         <rect class="BoundingBox" stroke="none" fill="none" x="6350" y="3228" width="300" height="239"/>
         <path fill="rgb(0,0,0)" stroke="none" d="M 6516,3326 C 6515,3325 6514,3322 6514,3321 6514,3320 6520,3315 6524,3313 6545,3297 6565,3281 6586,3265 6619,3241 6632,3240 6643,3239 6646,3238 6649,3238 6649,3232 6649,3230 6648,3228 6645,3228 6638,3228 6629,3229 6620,3229 6608,3229 6594,3228 6581,3228 6579,3228 6575,3228 6575,3235 6575,3237 6577,3238 6579,3239 6587,3239 6590,3241 6590,3246 6590,3252 6579,3260 6577,3262 6531,3297 6486,3332 6440,3367 6449,3329 6459,3292 6468,3255 6472,3242 6472,3239 6498,3239 6507,3239 6510,3239 6510,3232 6510,3229 6507,3228 6505,3228 6495,3228 6470,3229 6460,3229 6450,3229 6425,3228 6415,3228 6412,3228 6408,3228 6408,3235 6408,3239 6411,3239 6418,3239 6422,3239 6429,3239 6433,3239 6439,3240 6441,3241 6441,3245 6441,3246 6440,3247 6439,3252 6423,3314 6408,3377 6392,3439 6389,3453 6388,3455 6360,3455 6354,3455 6350,3455 6350,3462 6350,3466 6355,3466 6356,3466 6365,3466 6390,3465 6400,3465 6408,3465 6415,3465 6423,3465 6430,3465 6438,3466 6446,3466 6448,3466 6453,3466 6453,3459 6453,3455 6449,3455 6443,3455 6430,3455 6420,3455 6420,3449 6420,3447 6422,3439 6423,3434 6428,3415 6433,3397 6437,3380 6454,3366 6472,3352 6489,3339 6503,3370 6516,3401 6530,3432 6534,3442 6534,3442 6534,3444 6534,3455 6519,3455 6516,3455 6512,3455 6508,3455 6508,3462 6508,3466 6511,3465 6513,3466 6527,3466 6542,3465 6556,3465 6564,3465 6583,3466 6591,3466 6592,3466 6597,3466 6597,3459 6597,3455 6593,3455 6590,3455 6576,3455 6571,3452 6566,3440 6549,3402 6533,3364 6516,3326 Z"/>
        </g>
       </g>
       <g class="com.sun.star.drawing.ClosedBezierShape">
        <g id="id32">
         <rect class="BoundingBox" stroke="none" fill="none" x="6659" y="3350" width="26" height="170"/>
         <path fill="rgb(0,0,0)" stroke="none" d="M 6659,3350 C 6667,3350 6676,3350 6684,3350 6684,3406 6684,3463 6684,3519 6676,3519 6667,3519 6659,3519 6659,3463 6659,3406 6659,3350 Z"/>
        </g>
       </g>
       <g class="com.sun.star.drawing.ClosedBezierShape">
        <g id="id33">
         <rect class="BoundingBox" stroke="none" fill="none" x="6756" y="3429" width="42" height="106"/>
         <path fill="rgb(0,0,0)" stroke="none" d="M 6797,3466 C 6797,3443 6788,3429 6774,3429 6763,3429 6756,3438 6756,3448 6756,3457 6763,3466 6774,3466 6779,3466 6783,3465 6787,3462 6788,3461 6788,3461 6788,3461 6789,3461 6789,3461 6789,3466 6789,3492 6777,3513 6765,3524 6761,3528 6761,3529 6761,3530 6761,3532 6763,3534 6765,3534 6769,3534 6797,3507 6797,3466 Z"/>
        </g>
       </g>
       <g class="com.sun.star.drawing.ClosedBezierShape">
        <g id="id34">
         <rect class="BoundingBox" stroke="none" fill="none" x="6969" y="3373" width="216" height="15"/>
         <path fill="rgb(0,0,0)" stroke="none" d="M 7172,3387 C 7178,3387 7184,3387 7184,3380 7184,3373 7178,3373 7172,3373 7109,3373 7045,3373 6982,3373 6976,3373 6969,3373 6969,3380 6969,3387 6976,3387 6982,3387 7045,3387 7109,3387 7172,3387 Z"/>
        </g>
       </g>
       <g class="com.sun.star.drawing.ClosedBezierShape">
        <g id="id35">
         <rect class="BoundingBox" stroke="none" fill="none" x="7218" y="3312" width="162" height="227"/>
         <path fill="rgb(0,0,0)" stroke="none" d="M 7378,3335 C 7378,3333 7379,3331 7379,3329 7379,3323 7375,3319 7369,3319 7365,3319 7356,3322 7354,3334 7348,3321 7336,3312 7322,3312 7282,3312 7238,3361 7238,3412 7238,3446 7259,3467 7285,3467 7305,3467 7322,3451 7325,3447 L 7326,3447 C 7318,3477 7318,3477 7314,3492 7313,3496 7301,3530 7264,3530 7257,3530 7245,3530 7236,3527 7246,3524 7250,3515 7250,3509 7250,3503 7246,3496 7237,3496 7229,3496 7218,3503 7218,3517 7218,3531 7231,3538 7264,3538 7308,3538 7334,3511 7339,3490 7352,3439 7365,3387 7378,3335 Z M 7332,3422 C 7330,3431 7322,3440 7314,3447 7307,3453 7296,3459 7286,3459 7268,3459 7263,3441 7263,3427 7263,3410 7273,3369 7283,3351 7292,3334 7307,3320 7322,3320 7345,3320 7350,3348 7350,3350 7350,3352 7349,3354 7349,3355 7343,3377 7338,3399 7332,3422 Z"/>
        </g>
       </g>
       <g class="com.sun.star.drawing.ClosedBezierShape">
        <g id="id36">
         <rect class="BoundingBox" stroke="none" fill="none" x="7417" y="3228" width="200" height="248"/>
         <path fill="rgb(0,0,0)" stroke="none" d="M 7583,3253 C 7585,3242 7586,3239 7605,3239 7611,3239 7615,3239 7615,3232 7615,3229 7613,3228 7610,3228 7601,3228 7580,3229 7571,3229 7559,3229 7531,3228 7519,3228 7516,3228 7512,3228 7512,3235 7512,3239 7515,3239 7524,3239 7532,3239 7535,3239 7544,3239 7553,3240 7555,3242 7555,3246 7555,3249 7554,3251 7554,3254 7540,3307 7527,3361 7513,3414 7505,3448 7481,3466 7463,3466 7454,3466 7435,3463 7429,3444 7430,3445 7433,3445 7434,3445 7447,3445 7456,3433 7456,3422 7456,3411 7447,3408 7441,3408 7435,3408 7417,3412 7417,3436 7417,3457 7436,3474 7464,3474 7496,3474 7533,3451 7541,3416 7555,3362 7569,3307 7583,3253 Z"/>
        </g>
       </g>
       <g class="com.sun.star.drawing.ClosedBezierShape">
        <g id="id37">
         <rect class="BoundingBox" stroke="none" fill="none" x="7612" y="3429" width="42" height="106"/>
         <path fill="rgb(0,0,0)" stroke="none" d="M 7653,3466 C 7653,3443 7645,3429 7631,3429 7619,3429 7612,3438 7612,3448 7612,3457 7619,3466 7631,3466 7635,3466 7640,3465 7643,3462 7644,3461 7644,3461 7645,3461 7645,3463 7646,3461 7646,3466 7646,3492 7633,3513 7622,3524 7618,3528 7618,3529 7618,3530 7618,3532 7620,3534 7621,3534 7625,3534 7653,3507 7653,3466 Z"/>
        </g>
       </g>
       <g class="com.sun.star.drawing.ClosedBezierShape">
        <g id="id38">
         <rect class="BoundingBox" stroke="none" fill="none" x="7811" y="3224" width="168" height="248"/>
         <path fill="rgb(0,0,0)" stroke="none" d="M 7978,3228 C 7976,3227 7978,3224 7973,3224 7968,3224 7935,3227 7929,3228 7926,3228 7924,3230 7924,3235 7924,3239 7927,3239 7932,3239 7949,3239 7950,3241 7950,3245 7950,3247 7949,3250 7949,3252 7942,3279 7935,3307 7928,3335 7921,3322 7911,3312 7895,3312 7854,3312 7811,3364 7811,3414 7811,3447 7830,3470 7858,3470 7865,3470 7882,3469 7903,3444 7906,3458 7918,3470 7935,3470 7947,3470 7956,3462 7961,3451 7967,3438 7972,3417 7972,3416 7972,3413 7969,3413 7967,3413 7964,3413 7964,3414 7963,3419 7957,3442 7950,3462 7936,3462 7926,3462 7925,3453 7925,3446 7925,3438 7926,3435 7927,3429 7944,3362 7961,3295 7978,3228 Z M 7905,3424 C 7903,3431 7903,3431 7898,3437 7882,3457 7868,3462 7858,3462 7841,3462 7836,3443 7836,3429 7836,3412 7847,3370 7855,3354 7866,3333 7882,3320 7896,3320 7919,3320 7924,3349 7924,3351 7924,3353 7923,3355 7922,3357 7916,3379 7911,3402 7905,3424 Z"/>
        </g>
       </g>
      </g>
      <g class="com.sun.star.drawing.ClosedBezierShape">
       <g id="id39">
        <rect class="BoundingBox" stroke="none" fill="none" x="1200" y="1163" width="1889" height="842"/>
        <path fill="rgb(255,255,255)" stroke="none" d="M 1200,1163 C 1829,1163 2459,1163 3088,1163 3088,1443 3088,1723 3088,2003 2459,2003 1829,2003 1200,2003 1200,1723 1200,1443 1200,1163 Z"/>
       </g>
      </g>
      <g class="com.sun.star.drawing.ClosedBezierShape">
       <g id="id40">
        <rect class="BoundingBox" stroke="none" fill="none" x="1278" y="1152" width="300" height="241"/>
        <path fill="rgb(0,0,0)" stroke="none" d="M 1443,1250 C 1443,1249 1441,1247 1441,1245 1445,1242 1448,1240 1452,1237 1472,1221 1493,1206 1513,1190 1546,1166 1560,1164 1570,1163 1573,1163 1577,1163 1577,1156 1577,1155 1576,1152 1573,1152 1565,1152 1556,1153 1548,1153 1535,1153 1522,1152 1509,1152 1506,1152 1502,1152 1502,1159 1502,1162 1504,1163 1506,1163 1514,1164 1517,1166 1517,1171 1517,1177 1507,1185 1505,1187 1459,1222 1414,1257 1368,1292 1377,1254 1387,1217 1396,1179 1399,1167 1400,1163 1425,1163 1434,1163 1437,1163 1437,1156 1437,1153 1434,1152 1432,1152 1422,1152 1397,1153 1387,1153 1377,1153 1352,1152 1342,1152 1340,1152 1335,1152 1335,1159 1335,1163 1338,1163 1345,1163 1350,1163 1356,1164 1360,1164 1366,1165 1368,1166 1368,1170 1368,1171 1368,1172 1367,1176 1351,1239 1336,1302 1320,1365 1316,1379 1315,1381 1288,1381 1282,1381 1278,1381 1278,1388 1278,1392 1282,1392 1283,1392 1293,1392 1318,1391 1328,1391 1335,1391 1343,1392 1350,1392 1358,1392 1366,1392 1373,1392 1375,1392 1380,1392 1380,1385 1380,1381 1377,1381 1370,1381 1357,1381 1347,1381 1347,1375 1347,1373 1349,1365 1350,1360 1355,1341 1360,1323 1365,1304 1382,1291 1400,1277 1417,1264 1431,1295 1444,1326 1458,1358 1462,1368 1462,1368 1462,1371 1462,1381 1447,1381 1444,1381 1440,1381 1436,1381 1436,1388 1436,1392 1440,1392 1441,1392 1455,1392 1470,1391 1484,1391 1491,1391 1510,1392 1518,1392 1520,1392 1524,1392 1524,1385 1524,1381 1520,1381 1517,1381 1503,1381 1498,1378 1493,1366 1476,1327 1460,1289 1443,1250 Z"/>
       </g>
      </g>
      <g class="com.sun.star.drawing.ClosedBezierShape">
       <g id="id41">
        <rect class="BoundingBox" stroke="none" fill="none" x="1581" y="1275" width="26" height="171"/>
        <path fill="rgb(0,0,0)" stroke="none" d="M 1606,1276 C 1598,1276 1589,1276 1581,1276 1581,1284 1581,1293 1581,1301 1589,1301 1598,1301 1606,1301 1606,1293 1606,1284 1606,1276 Z M 1604,1336 C 1597,1336 1590,1336 1583,1336 1583,1372 1583,1409 1583,1445 1590,1445 1597,1445 1604,1445 1604,1409 1604,1372 1604,1336 Z"/>
       </g>
      </g>
      <g class="com.sun.star.drawing.ClosedBezierShape">
       <g id="id42">
        <rect class="BoundingBox" stroke="none" fill="none" x="1645" y="1333" width="95" height="113"/>
        <path fill="rgb(0,0,0)" stroke="none" d="M 1739,1372 C 1739,1353 1734,1333 1703,1333 1689,1333 1676,1339 1665,1352 1665,1346 1665,1340 1665,1334 1658,1334 1652,1334 1645,1334 1645,1371 1645,1408 1645,1445 1652,1445 1660,1445 1667,1445 1667,1425 1667,1405 1667,1385 1667,1369 1674,1350 1693,1350 1718,1350 1718,1367 1718,1374 1718,1398 1718,1421 1718,1445 1725,1445 1732,1445 1739,1445 1739,1421 1739,1396 1739,1372 Z"/>
       </g>
      </g>
      <g class="com.sun.star.drawing.ClosedBezierShape">
       <g id="id43">
        <rect class="BoundingBox" stroke="none" fill="none" x="1808" y="1355" width="43" height="107"/>
        <path fill="rgb(0,0,0)" stroke="none" d="M 1849,1392 C 1849,1369 1840,1355 1826,1355 1815,1355 1808,1364 1808,1374 1808,1383 1815,1392 1826,1392 1830,1392 1835,1391 1839,1388 1840,1387 1840,1387 1840,1387 1841,1387 1841,1387 1841,1392 1841,1418 1829,1439 1817,1451 1813,1454 1813,1455 1813,1456 1813,1459 1815,1460 1817,1460 1821,1460 1849,1433 1849,1392 Z"/>
       </g>
      </g>
      <g class="com.sun.star.drawing.ClosedBezierShape">
       <g id="id44">
        <rect class="BoundingBox" stroke="none" fill="none" x="2011" y="1267" width="197" height="95"/>
        <path fill="rgb(0,0,0)" stroke="none" d="M 2207,1280 C 2207,1268 2206,1267 2194,1267 2137,1267 2081,1267 2024,1267 2018,1267 2011,1267 2011,1274 2011,1281 2018,1281 2024,1281 2080,1281 2137,1281 2193,1281 2193,1303 2193,1326 2193,1348 2193,1355 2193,1361 2200,1361 2207,1361 2207,1355 2207,1348 2207,1325 2207,1303 2207,1280 Z"/>
       </g>
      </g>
      <g class="com.sun.star.drawing.ClosedBezierShape">
       <g id="id45">
        <rect class="BoundingBox" stroke="none" fill="none" x="2231" y="1145" width="242" height="248"/>
        <path fill="rgb(0,0,0)" stroke="none" d="M 2354,1153 C 2352,1147 2351,1145 2347,1145 2343,1145 2341,1148 2340,1152 2313,1222 2287,1292 2260,1362 2255,1374 2248,1379 2239,1380 2237,1380 2231,1381 2231,1386 2231,1392 2237,1392 2243,1392 2262,1392 2280,1392 2299,1392 2306,1392 2311,1392 2311,1386 2311,1381 2306,1380 2304,1380 2299,1380 2290,1378 2290,1357 2290,1346 2292,1334 2295,1323 2321,1323 2346,1323 2372,1323 2384,1358 2385,1363 2385,1371 2377,1379 2367,1380 2363,1380 2359,1380 2357,1383 2357,1386 2357,1392 2362,1392 2368,1392 2399,1392 2429,1392 2460,1392 2466,1392 2472,1392 2472,1386 2472,1381 2468,1380 2464,1380 2457,1379 2451,1373 2444,1357 2414,1289 2384,1221 2354,1153 Z M 2298,1311 C 2306,1280 2318,1250 2329,1221 2340,1244 2361,1295 2367,1311 2344,1311 2321,1311 2298,1311 Z M 2278,1350 C 2278,1351 2278,1352 2278,1354 2278,1355 2278,1355 2278,1357 2278,1359 2278,1372 2282,1380 2276,1380 2269,1380 2263,1380 2268,1375 2269,1371 2272,1365 2274,1360 2276,1355 2278,1350 Z M 2334,1202 C 2338,1190 2343,1179 2347,1167 2375,1232 2404,1297 2432,1362 2434,1365 2438,1374 2443,1380 2426,1380 2410,1380 2393,1380 2396,1378 2397,1373 2397,1369 2397,1347 2367,1276 2352,1241 2346,1228 2340,1215 2334,1202 Z"/>
       </g>
      </g>
      <g class="com.sun.star.drawing.ClosedBezierShape">
       <g id="id46">
        <rect class="BoundingBox" stroke="none" fill="none" x="2509" y="1355" width="42" height="107"/>
        <path fill="rgb(0,0,0)" stroke="none" d="M 2550,1392 C 2550,1369 2541,1355 2528,1355 2516,1355 2509,1364 2509,1374 2509,1383 2516,1392 2528,1392 2532,1392 2536,1391 2540,1388 2541,1387 2541,1387 2542,1387 2542,1389 2542,1387 2542,1392 2542,1418 2530,1439 2519,1451 2515,1454 2515,1455 2515,1456 2515,1459 2516,1460 2518,1460 2522,1460 2550,1433 2550,1392 Z"/>
       </g>
      </g>
      <g class="com.sun.star.drawing.ClosedBezierShape">
       <g id="id47">
        <rect class="BoundingBox" stroke="none" fill="none" x="2699" y="1152" width="320" height="241"/>
        <path fill="rgb(0,0,0)" stroke="none" d="M 2857,1319 C 2835,1266 2812,1212 2790,1159 2787,1152 2787,1152 2777,1152 2755,1152 2734,1152 2712,1152 2706,1152 2700,1152 2700,1158 2700,1164 2707,1164 2709,1164 2713,1164 2722,1165 2730,1167 2730,1230 2730,1292 2730,1355 2730,1362 2730,1378 2706,1380 2699,1381 2701,1384 2699,1386 2699,1392 2705,1392 2711,1392 2729,1392 2748,1392 2766,1392 2772,1392 2777,1392 2777,1386 2777,1383 2775,1380 2772,1380 2745,1378 2745,1363 2745,1355 2745,1297 2745,1238 2745,1180 2774,1248 2802,1316 2831,1385 2834,1391 2836,1392 2838,1392 2842,1392 2843,1389 2845,1385 2874,1316 2902,1248 2931,1180 L 2932,1180 C 2932,1238 2932,1297 2932,1355 2932,1362 2932,1378 2908,1380 2901,1381 2903,1384 2901,1386 2901,1392 2907,1392 2913,1392 2944,1392 2976,1392 3007,1392 3013,1392 3018,1392 3018,1386 3018,1383 3016,1380 3013,1380 2986,1378 2986,1363 2986,1355 2986,1299 2986,1244 2986,1189 2986,1182 2986,1166 3010,1164 3013,1164 3016,1162 3016,1158 3016,1152 3011,1152 3005,1152 2982,1152 2960,1152 2937,1152 2928,1152 2927,1152 2924,1159 2902,1212 2879,1266 2857,1319 Z M 2847,1325 C 2849,1331 2850,1331 2854,1333 2849,1345 2844,1357 2839,1370 L 2838,1370 C 2811,1306 2785,1243 2758,1179 2756,1174 2753,1168 2748,1164 2758,1164 2769,1164 2779,1164 2802,1218 2824,1271 2847,1325 Z M 2741,1380 C 2739,1380 2737,1380 2735,1380 2735,1379 2736,1378 2737,1377 2737,1376 2737,1376 2737,1376 2738,1377 2740,1378 2741,1380 Z M 2944,1164 C 2956,1164 2969,1164 2981,1164 2973,1173 2973,1182 2973,1188 2973,1244 2973,1300 2973,1356 2973,1362 2973,1371 2981,1380 2966,1380 2951,1380 2936,1380 2944,1371 2944,1362 2944,1356 2944,1292 2944,1228 2944,1164 Z"/>
       </g>
      </g>
      <g class="com.sun.star.drawing.ClosedBezierShape">
       <g id="id48">
        <rect class="BoundingBox" stroke="none" fill="none" x="1195" y="1678" width="300" height="241"/>
        <path fill="rgb(0,0,0)" stroke="none" d="M 1361,1776 C 1360,1775 1359,1772 1359,1771 1362,1768 1365,1766 1369,1763 1390,1747 1410,1732 1431,1716 1464,1692 1477,1690 1488,1689 1491,1689 1494,1688 1494,1682 1494,1681 1493,1678 1490,1678 1483,1678 1474,1679 1465,1679 1453,1679 1439,1678 1426,1678 1424,1678 1420,1678 1420,1685 1420,1688 1422,1689 1424,1689 1432,1690 1435,1692 1435,1697 1435,1703 1424,1711 1422,1713 1376,1748 1331,1783 1285,1818 1294,1780 1304,1743 1313,1705 1317,1693 1317,1689 1343,1689 1352,1689 1355,1689 1355,1682 1355,1679 1352,1678 1350,1678 1340,1678 1315,1679 1305,1679 1295,1679 1270,1678 1260,1678 1257,1678 1253,1678 1253,1685 1253,1689 1256,1689 1263,1689 1267,1689 1274,1689 1278,1690 1283,1691 1286,1692 1286,1695 1286,1697 1285,1698 1284,1702 1268,1765 1253,1828 1237,1891 1234,1904 1233,1907 1205,1907 1199,1907 1195,1907 1195,1914 1195,1918 1200,1918 1201,1918 1210,1918 1235,1917 1245,1917 1253,1917 1260,1917 1268,1917 1275,1917 1283,1918 1291,1918 1293,1918 1298,1918 1298,1911 1298,1907 1294,1907 1288,1907 1275,1907 1265,1907 1265,1901 1265,1898 1267,1891 1268,1885 1273,1867 1278,1849 1282,1830 1299,1817 1317,1803 1334,1790 1348,1821 1361,1852 1375,1884 1379,1894 1379,1894 1379,1896 1379,1907 1364,1907 1361,1907 1357,1907 1353,1907 1353,1914 1353,1918 1356,1916 1358,1918 1372,1918 1387,1917 1401,1917 1409,1917 1428,1918 1436,1918 1437,1918 1442,1918 1442,1911 1442,1907 1438,1907 1435,1907 1420,1907 1416,1904 1411,1891 1394,1852 1378,1814 1361,1776 Z"/>
       </g>
      </g>
      <g class="com.sun.star.drawing.ClosedBezierShape">
       <g id="id49">
        <rect class="BoundingBox" stroke="none" fill="none" x="1504" y="1801" width="124" height="171"/>
        <path fill="rgb(0,0,0)" stroke="none" d="M 1615,1891 C 1615,1885 1615,1880 1615,1874 1586,1874 1558,1874 1529,1874 1529,1855 1529,1837 1529,1818 1541,1818 1553,1818 1565,1818 1568,1818 1571,1818 1574,1818 1590,1818 1606,1818 1622,1818 1622,1812 1622,1807 1622,1801 1583,1801 1543,1801 1504,1801 1504,1858 1504,1914 1504,1971 1545,1971 1585,1971 1626,1971 1626,1964 1626,1958 1626,1952 1619,1952 1611,1952 1604,1952 1583,1952 1562,1952 1542,1952 1538,1952 1533,1952 1529,1952 1529,1932 1529,1911 1529,1891 1558,1891 1586,1891 1615,1891 Z"/>
       </g>
      </g>
      <g class="com.sun.star.drawing.ClosedBezierShape">
       <g id="id50">
        <rect class="BoundingBox" stroke="none" fill="none" x="1685" y="1881" width="43" height="106"/>
        <path fill="rgb(0,0,0)" stroke="none" d="M 1726,1918 C 1726,1895 1717,1881 1703,1881 1692,1881 1685,1890 1685,1900 1685,1909 1692,1918 1703,1918 1708,1918 1712,1917 1716,1914 1717,1913 1717,1913 1717,1913 1718,1913 1718,1913 1718,1918 1718,1944 1706,1965 1694,1976 1690,1980 1690,1981 1690,1982 1690,1985 1692,1986 1694,1986 1698,1986 1726,1959 1726,1918 Z"/>
       </g>
      </g>
      <g class="com.sun.star.drawing.ClosedBezierShape">
       <g id="id51">
        <rect class="BoundingBox" stroke="none" fill="none" x="1894" y="1677" width="198" height="250"/>
        <path fill="rgb(0,0,0)" stroke="none" d="M 2059,1704 C 2062,1692 2063,1689 2082,1689 2088,1689 2091,1689 2091,1682 2091,1679 2089,1678 2086,1678 2078,1678 2056,1679 2048,1679 2036,1679 2007,1678 1996,1678 1993,1678 1989,1678 1989,1685 1989,1689 1991,1689 2000,1689 2009,1689 2012,1689 2021,1690 2029,1691 2032,1692 2032,1697 2032,1699 2031,1701 2030,1704 2017,1758 2003,1811 1990,1865 1981,1900 1958,1918 1939,1918 1930,1918 1912,1915 1906,1896 1907,1897 1909,1897 1910,1897 1924,1897 1933,1885 1933,1874 1933,1863 1924,1859 1918,1859 1911,1859 1894,1864 1894,1888 1894,1909 1913,1926 1940,1926 1973,1926 2009,1903 2018,1868 2032,1813 2045,1759 2059,1704 Z"/>
       </g>
      </g>
      <g class="com.sun.star.drawing.ClosedBezierShape">
       <g id="id52">
        <rect class="BoundingBox" stroke="none" fill="none" x="2075" y="1808" width="76" height="166"/>
        <path fill="rgb(0,0,0)" stroke="none" d="M 2143,1817 C 2143,1813 2141,1808 2134,1808 2127,1808 2120,1814 2120,1821 2120,1826 2123,1831 2130,1831 2137,1831 2143,1824 2143,1817 Z M 2093,1942 C 2092,1945 2091,1948 2091,1952 2091,1964 2101,1973 2114,1973 2139,1973 2150,1939 2150,1936 2150,1932 2147,1932 2146,1932 2143,1932 2142,1934 2141,1937 2136,1956 2125,1966 2115,1966 2110,1966 2109,1963 2109,1958 2109,1952 2111,1947 2113,1942 2115,1935 2118,1929 2121,1922 2123,1917 2132,1894 2133,1891 2134,1889 2134,1886 2134,1883 2134,1872 2125,1862 2111,1862 2087,1862 2075,1896 2075,1900 2075,1903 2079,1903 2080,1903 2083,1903 2083,1902 2084,1899 2090,1878 2101,1869 2110,1869 2114,1869 2116,1871 2116,1878 2116,1884 2115,1887 2109,1902 2104,1915 2098,1929 2093,1942 Z"/>
       </g>
      </g>
      <g class="com.sun.star.drawing.ClosedBezierShape">
       <g id="id53">
        <rect class="BoundingBox" stroke="none" fill="none" x="2162" y="1808" width="109" height="214"/>
        <path fill="rgb(0,0,0)" stroke="none" d="M 2270,1817 C 2270,1813 2267,1808 2260,1808 2253,1808 2247,1815 2247,1821 2247,1825 2249,1831 2256,1831 2263,1831 2270,1824 2270,1817 Z M 2218,1983 C 2214,2000 2201,2014 2186,2014 2183,2014 2180,2014 2177,2013 2184,2010 2186,2004 2186,2000 2186,1994 2181,1991 2176,1991 2169,1991 2162,1998 2162,2006 2162,2015 2172,2021 2187,2021 2201,2021 2230,2012 2238,1982 2245,1953 2253,1923 2260,1894 2261,1891 2261,1889 2261,1886 2261,1872 2249,1862 2235,1862 2207,1862 2192,1897 2192,1900 2192,1903 2195,1903 2196,1903 2199,1903 2199,1902 2201,1899 2207,1885 2220,1869 2234,1869 2240,1869 2242,1873 2242,1881 2242,1884 2242,1887 2242,1889 2234,1920 2226,1952 2218,1983 Z"/>
       </g>
      </g>
      <g class="com.sun.star.drawing.ClosedBezierShape">
       <g id="id54">
        <rect class="BoundingBox" stroke="none" fill="none" x="2345" y="1655" width="82" height="353"/>
        <path fill="rgb(0,0,0)" stroke="none" d="M 2426,2002 C 2426,2001 2426,2001 2420,1995 2377,1950 2365,1884 2365,1830 2365,1769 2379,1708 2422,1664 2426,1660 2426,1659 2426,1658 2426,1656 2425,1655 2423,1655 2419,1655 2388,1679 2367,1723 2349,1762 2345,1801 2345,1830 2345,1858 2349,1900 2368,1940 2389,1983 2419,2006 2423,2006 2425,2006 2426,2005 2426,2002 Z"/>
       </g>
      </g>
      <g class="com.sun.star.drawing.ClosedBezierShape">
       <g id="id55">
        <rect class="BoundingBox" stroke="none" fill="none" x="2455" y="1697" width="109" height="226"/>
        <path fill="rgb(0,0,0)" stroke="none" d="M 2519,1778 C 2530,1778 2541,1778 2552,1778 2559,1778 2563,1778 2563,1771 2563,1767 2559,1767 2553,1767 2543,1767 2532,1767 2522,1767 2535,1717 2536,1710 2536,1708 2536,1702 2532,1698 2526,1698 2525,1698 2515,1699 2512,1711 2507,1730 2503,1748 2498,1767 2487,1767 2476,1767 2465,1767 2458,1767 2455,1767 2455,1773 2455,1778 2458,1778 2465,1778 2475,1778 2486,1778 2496,1778 2470,1877 2469,1883 2469,1890 2469,1909 2482,1922 2501,1922 2537,1922 2557,1871 2557,1868 2557,1864 2554,1864 2553,1864 2550,1864 2549,1865 2548,1869 2532,1906 2514,1914 2502,1914 2495,1914 2491,1910 2491,1898 2491,1890 2492,1887 2493,1881 2502,1846 2510,1812 2519,1778 Z"/>
       </g>
      </g>
      <g class="com.sun.star.drawing.ClosedBezierShape">
       <g id="id56">
        <rect class="BoundingBox" stroke="none" fill="none" x="2594" y="1655" width="82" height="353"/>
        <path fill="rgb(0,0,0)" stroke="none" d="M 2675,1830 C 2675,1803 2671,1760 2652,1721 2631,1678 2601,1655 2597,1655 2595,1655 2594,1656 2594,1658 2594,1659 2594,1660 2600,1666 2635,1701 2655,1757 2655,1830 2655,1890 2642,1952 2598,1996 2594,2001 2594,2001 2594,2002 2594,2005 2595,2006 2597,2006 2601,2006 2632,1982 2653,1937 2671,1899 2675,1860 2675,1830 Z"/>
       </g>
      </g>
      <g class="com.sun.star.drawing.ClosedBezierShape">
       <g id="id57">
        <rect class="BoundingBox" stroke="none" fill="none" x="2740" y="1881" width="42" height="106"/>
        <path fill="rgb(0,0,0)" stroke="none" d="M 2781,1918 C 2781,1895 2773,1881 2759,1881 2747,1881 2740,1890 2740,1900 2740,1909 2747,1918 2759,1918 2763,1918 2768,1917 2771,1914 2772,1913 2772,1913 2773,1913 2773,1915 2774,1913 2774,1918 2774,1944 2761,1965 2750,1976 2746,1980 2746,1981 2746,1982 2746,1985 2748,1986 2749,1986 2753,1986 2781,1959 2781,1918 Z"/>
       </g>
      </g>
      <g class="com.sun.star.drawing.ClosedBezierShape">
       <g id="id58">
        <rect class="BoundingBox" stroke="none" fill="none" x="2939" y="1674" width="168" height="249"/>
        <path fill="rgb(0,0,0)" stroke="none" d="M 3106,1678 C 3104,1677 3106,1674 3101,1674 3096,1674 3063,1678 3057,1678 3054,1679 3052,1680 3052,1685 3052,1689 3055,1689 3060,1689 3077,1689 3078,1692 3078,1695 3078,1697 3077,1700 3077,1702 3070,1730 3063,1757 3056,1785 3049,1772 3039,1763 3023,1763 2982,1763 2939,1815 2939,1866 2939,1899 2958,1922 2986,1922 2993,1922 3010,1921 3031,1896 3034,1910 3046,1922 3063,1922 3075,1922 3084,1914 3089,1903 3095,1890 3100,1869 3100,1868 3100,1864 3097,1864 3095,1864 3092,1864 3092,1866 3091,1871 3085,1894 3078,1914 3064,1914 3054,1914 3053,1905 3053,1898 3053,1890 3054,1887 3055,1881 3072,1813 3089,1746 3106,1678 Z M 3033,1876 C 3031,1883 3031,1883 3026,1889 3010,1909 2996,1914 2986,1914 2969,1914 2964,1895 2964,1881 2964,1864 2975,1821 2983,1804 2994,1784 3010,1771 3024,1771 3047,1771 3052,1799 3052,1802 3052,1804 3051,1806 3051,1808 3045,1830 3039,1853 3033,1876 Z"/>
       </g>
      </g>
      <g class="Group">
       <g class="com.sun.star.drawing.ClosedBezierShape">
        <g id="id59">
         <rect class="BoundingBox" stroke="none" fill="none" x="11498" y="1141" width="1719" height="811"/>
         <path fill="rgb(255,255,255)" stroke="none" d="M 11498,1142 C 12071,1142 12643,1142 13216,1142 13216,1412 13216,1681 13216,1951 12643,1951 12071,1951 11498,1951 11498,1681 11498,1412 11498,1142 Z"/>
        </g>
       </g>
       <g class="com.sun.star.drawing.ClosedBezierShape">
        <g id="id60">
         <rect class="BoundingBox" stroke="none" fill="none" x="11493" y="1131" width="300" height="241"/>
         <path fill="rgb(0,0,0)" stroke="none" d="M 11659,1229 C 11658,1228 11657,1225 11657,1224 11660,1221 11663,1219 11667,1216 11688,1200 11708,1185 11729,1169 11762,1145 11775,1143 11786,1142 11789,1142 11792,1142 11792,1135 11792,1134 11791,1131 11788,1131 11781,1131 11772,1132 11763,1132 11751,1132 11737,1131 11724,1131 11722,1131 11718,1131 11718,1138 11718,1141 11720,1142 11722,1142 11730,1143 11733,1145 11733,1150 11733,1156 11722,1164 11720,1166 11674,1201 11629,1236 11583,1271 11592,1233 11602,1196 11611,1158 11615,1146 11615,1142 11641,1142 11650,1142 11653,1142 11653,1135 11653,1132 11650,1131 11648,1131 11638,1131 11613,1132 11603,1132 11593,1132 11568,1131 11558,1131 11555,1131 11551,1131 11551,1138 11551,1142 11554,1142 11561,1142 11565,1142 11572,1143 11576,1143 11582,1144 11584,1145 11584,1149 11584,1150 11583,1151 11582,1155 11566,1218 11551,1281 11535,1344 11532,1358 11531,1360 11503,1360 11497,1360 11493,1360 11493,1367 11493,1371 11498,1371 11499,1371 11508,1371 11533,1370 11543,1370 11551,1370 11558,1371 11566,1371 11573,1371 11581,1371 11589,1371 11591,1371 11596,1371 11596,1364 11596,1360 11592,1360 11586,1360 11573,1360 11563,1360 11563,1354 11563,1352 11565,1344 11566,1339 11571,1320 11576,1302 11580,1283 11597,1270 11615,1256 11632,1243 11646,1274 11659,1305 11673,1337 11677,1347 11677,1347 11677,1349 11677,1360 11662,1360 11659,1360 11655,1360 11651,1360 11651,1367 11651,1371 11654,1369 11656,1371 11670,1371 11685,1370 11699,1370 11707,1370 11726,1371 11734,1371 11735,1371 11740,1371 11740,1364 11740,1360 11736,1360 11733,1360 11718,1360 11714,1357 11709,1345 11692,1306 11676,1268 11659,1229 Z"/>
        </g>
       </g>
       <g class="com.sun.star.drawing.ClosedBezierShape">
        <g id="id61">
         <rect class="BoundingBox" stroke="none" fill="none" x="11797" y="1254" width="26" height="171"/>
         <path fill="rgb(0,0,0)" stroke="none" d="M 11822,1255 C 11814,1255 11805,1255 11797,1255 11797,1263 11797,1272 11797,1280 11805,1280 11814,1280 11822,1280 11822,1272 11822,1263 11822,1255 Z M 11820,1315 C 11813,1315 11806,1315 11799,1315 11799,1351 11799,1388 11799,1424 11806,1424 11813,1424 11820,1424 11820,1388 11820,1351 11820,1315 Z"/>
        </g>
       </g>
       <g class="com.sun.star.drawing.ClosedBezierShape">
        <g id="id62">
         <rect class="BoundingBox" stroke="none" fill="none" x="11860" y="1312" width="96" height="113"/>
         <path fill="rgb(0,0,0)" stroke="none" d="M 11955,1351 C 11955,1332 11949,1312 11919,1312 11905,1312 11892,1318 11881,1331 11881,1325 11881,1319 11881,1313 11874,1313 11868,1313 11861,1313 11861,1350 11861,1387 11861,1424 11868,1424 11875,1424 11882,1424 11882,1404 11882,1384 11882,1364 11882,1348 11889,1329 11908,1329 11934,1329 11934,1346 11934,1353 11934,1377 11934,1400 11934,1424 11941,1424 11948,1424 11955,1424 11955,1400 11955,1375 11955,1351 Z"/>
        </g>
       </g>
       <g class="com.sun.star.drawing.ClosedBezierShape">
        <g id="id63">
         <rect class="BoundingBox" stroke="none" fill="none" x="12023" y="1334" width="42" height="107"/>
         <path fill="rgb(0,0,0)" stroke="none" d="M 12064,1371 C 12064,1348 12056,1334 12042,1334 12030,1334 12023,1343 12023,1353 12023,1362 12030,1371 12042,1371 12046,1371 12051,1370 12054,1367 12055,1366 12055,1366 12056,1366 12056,1368 12057,1366 12057,1371 12057,1397 12044,1418 12033,1430 12029,1433 12029,1434 12029,1435 12029,1438 12031,1439 12032,1439 12036,1439 12064,1412 12064,1371 Z"/>
        </g>
       </g>
       <g class="com.sun.star.drawing.ClosedBezierShape">
        <g id="id64">
         <rect class="BoundingBox" stroke="none" fill="none" x="12227" y="1246" width="196" height="95"/>
         <path fill="rgb(0,0,0)" stroke="none" d="M 12422,1259 C 12422,1247 12421,1246 12410,1246 12353,1246 12296,1246 12239,1246 12233,1246 12227,1246 12227,1253 12227,1260 12233,1260 12239,1260 12295,1260 12352,1260 12408,1260 12408,1282 12408,1305 12408,1327 12408,1334 12408,1340 12415,1340 12422,1340 12422,1334 12422,1327 12422,1304 12422,1282 12422,1259 Z"/>
        </g>
       </g>
       <g class="com.sun.star.drawing.ClosedBezierShape">
        <g id="id65">
         <rect class="BoundingBox" stroke="none" fill="none" x="12447" y="1124" width="242" height="248"/>
         <path fill="rgb(0,0,0)" stroke="none" d="M 12570,1132 C 12567,1126 12567,1124 12563,1124 12559,1124 12557,1127 12555,1131 12528,1201 12502,1271 12475,1341 12471,1353 12464,1358 12454,1359 12452,1359 12447,1360 12447,1365 12447,1371 12452,1371 12459,1371 12478,1371 12496,1371 12515,1371 12521,1371 12527,1371 12527,1365 12527,1360 12522,1359 12519,1359 12514,1359 12505,1357 12505,1336 12505,1325 12508,1313 12510,1302 12536,1302 12562,1302 12588,1302 12600,1336 12600,1342 12601,1349 12592,1358 12582,1359 12579,1359 12575,1359 12573,1362 12573,1365 12573,1371 12578,1371 12584,1371 12615,1371 12645,1371 12676,1371 12682,1371 12688,1371 12688,1365 12688,1360 12683,1359 12680,1359 12672,1358 12666,1352 12659,1336 12629,1268 12600,1200 12570,1132 Z M 12514,1290 C 12522,1259 12533,1229 12545,1200 12556,1223 12577,1274 12583,1290 12560,1290 12537,1290 12514,1290 Z M 12493,1329 L 12494,1329 C 12494,1330 12494,1331 12494,1333 12493,1334 12493,1334 12493,1336 12493,1338 12493,1351 12498,1359 12492,1359 12485,1359 12479,1359 12484,1354 12485,1350 12487,1344 12489,1339 12491,1334 12493,1329 Z M 12550,1181 C 12554,1169 12559,1158 12563,1146 12591,1211 12620,1276 12648,1341 12649,1344 12653,1353 12658,1359 12641,1359 12625,1359 12608,1359 12612,1357 12613,1352 12613,1348 12613,1326 12582,1255 12567,1220 12561,1207 12556,1194 12550,1181 Z"/>
        </g>
       </g>
       <g class="com.sun.star.drawing.ClosedBezierShape">
        <g id="id66">
         <rect class="BoundingBox" stroke="none" fill="none" x="12725" y="1334" width="42" height="107"/>
         <path fill="rgb(0,0,0)" stroke="none" d="M 12766,1371 C 12766,1348 12757,1334 12743,1334 12732,1334 12725,1343 12725,1353 12725,1362 12732,1371 12743,1371 12748,1371 12752,1370 12756,1367 12757,1366 12757,1366 12757,1366 12758,1366 12758,1366 12758,1371 12758,1397 12746,1418 12734,1430 12730,1433 12730,1434 12730,1435 12730,1438 12732,1439 12734,1439 12738,1439 12766,1412 12766,1371 Z"/>
        </g>
       </g>
       <g class="com.sun.star.drawing.ClosedBezierShape">
        <g id="id67">
         <rect class="BoundingBox" stroke="none" fill="none" x="12915" y="1131" width="320" height="241"/>
         <path fill="rgb(0,0,0)" stroke="none" d="M 13073,1297 C 13051,1244 13028,1191 13006,1138 13003,1131 13003,1131 12993,1131 12971,1131 12950,1131 12928,1131 12921,1131 12916,1131 12916,1137 12916,1143 12922,1143 12924,1143 12928,1143 12938,1144 12946,1146 12946,1209 12946,1271 12946,1334 12946,1341 12946,1357 12922,1359 12915,1360 12917,1363 12915,1365 12915,1371 12921,1371 12927,1371 12945,1371 12963,1371 12981,1371 12988,1371 12993,1371 12993,1365 12993,1362 12990,1359 12987,1359 12960,1357 12960,1342 12960,1334 12960,1275 12960,1217 12960,1159 L 12961,1159 C 12989,1227 13018,1295 13046,1364 13049,1370 13052,1371 13054,1371 13058,1371 13059,1368 13061,1364 13090,1295 13118,1227 13147,1159 13147,1217 13147,1275 13147,1334 13147,1341 13147,1357 13123,1359 13117,1360 13119,1363 13117,1365 13117,1371 13122,1371 13129,1371 13160,1371 13191,1371 13222,1371 13229,1371 13234,1371 13234,1365 13234,1362 13231,1359 13228,1359 13201,1357 13201,1342 13201,1334 13201,1278 13201,1223 13201,1168 13201,1161 13201,1145 13225,1143 13229,1143 13232,1141 13232,1137 13232,1131 13227,1131 13220,1131 13198,1131 13175,1131 13153,1131 13143,1131 13143,1131 13140,1138 13118,1191 13095,1244 13073,1297 Z M 13062,1304 C 13065,1310 13065,1310 13070,1312 13065,1324 13059,1336 13054,1349 L 13053,1349 C 13026,1285 13000,1222 12973,1158 12972,1153 12969,1147 12964,1143 12974,1143 12984,1143 12994,1143 13017,1197 13039,1250 13062,1304 Z M 12956,1359 C 12954,1359 12952,1359 12950,1359 12951,1358 12951,1356 12952,1356 12953,1355 12953,1355 12953,1355 12954,1356 12955,1357 12956,1359 Z M 13160,1143 C 13172,1143 13185,1143 13197,1143 13189,1152 13189,1161 13189,1167 13189,1223 13189,1279 13189,1335 13189,1341 13189,1350 13197,1359 13182,1359 13167,1359 13152,1359 13160,1350 13160,1341 13160,1335 13160,1271 13160,1207 13160,1143 Z"/>
        </g>
       </g>
       <g class="com.sun.star.drawing.ClosedBezierShape">
        <g id="id68">
         <rect class="BoundingBox" stroke="none" fill="none" x="11553" y="1657" width="300" height="241"/>
         <path fill="rgb(0,0,0)" stroke="none" d="M 11718,1755 C 11718,1754 11716,1751 11716,1750 11719,1747 11723,1745 11726,1742 11747,1726 11767,1711 11788,1695 11821,1670 11835,1669 11845,1668 11848,1668 11852,1667 11852,1661 11852,1660 11850,1657 11848,1657 11840,1657 11831,1658 11823,1658 11810,1658 11796,1657 11784,1657 11781,1657 11777,1657 11777,1664 11777,1667 11779,1668 11781,1668 11789,1669 11792,1670 11792,1675 11792,1682 11782,1690 11780,1692 11734,1727 11689,1762 11643,1797 11652,1759 11662,1722 11671,1684 11674,1672 11674,1668 11700,1668 11709,1668 11712,1668 11712,1661 11712,1658 11709,1657 11707,1657 11697,1657 11672,1658 11662,1658 11652,1658 11627,1657 11617,1657 11614,1657 11610,1657 11610,1664 11610,1668 11613,1668 11620,1668 11625,1668 11631,1668 11635,1669 11641,1669 11643,1670 11643,1674 11643,1676 11643,1677 11641,1681 11625,1744 11610,1807 11594,1870 11591,1883 11590,1886 11562,1886 11556,1886 11553,1886 11553,1893 11553,1897 11557,1897 11558,1897 11568,1897 11593,1896 11602,1896 11610,1896 11618,1896 11625,1896 11633,1896 11640,1897 11648,1897 11650,1897 11655,1897 11655,1890 11655,1886 11652,1886 11645,1886 11632,1886 11622,1886 11622,1880 11622,1877 11624,1870 11625,1864 11630,1846 11635,1827 11639,1809 11657,1795 11674,1782 11692,1768 11705,1799 11719,1831 11732,1863 11737,1872 11737,1873 11737,1875 11737,1886 11722,1886 11718,1886 11715,1886 11711,1886 11711,1893 11711,1897 11715,1897 11716,1897 11730,1897 11744,1896 11758,1896 11766,1896 11785,1897 11793,1897 11795,1897 11799,1897 11799,1890 11799,1886 11795,1886 11792,1886 11778,1886 11773,1883 11768,1870 11751,1831 11735,1793 11718,1755 Z"/>
        </g>
       </g>
       <g class="com.sun.star.drawing.ClosedBezierShape">
        <g id="id69">
         <rect class="BoundingBox" stroke="none" fill="none" x="11861" y="1778" width="26" height="173"/>
         <path fill="rgb(0,0,0)" stroke="none" d="M 11861,1779 C 11869,1779 11878,1779 11886,1779 11886,1836 11886,1893 11886,1950 11878,1950 11869,1950 11861,1950 11861,1893 11861,1836 11861,1779 Z"/>
        </g>
       </g>
       <g class="com.sun.star.drawing.ClosedBezierShape">
        <g id="id70">
         <rect class="BoundingBox" stroke="none" fill="none" x="11958" y="1860" width="42" height="106"/>
         <path fill="rgb(0,0,0)" stroke="none" d="M 11999,1897 C 11999,1873 11990,1860 11977,1860 11965,1860 11958,1869 11958,1878 11958,1888 11965,1897 11977,1897 11981,1897 11985,1896 11989,1892 11990,1892 11990,1891 11991,1891 11991,1893 11991,1892 11991,1897 11991,1923 11978,1943 11967,1955 11963,1958 11964,1960 11964,1961 11964,1963 11965,1965 11967,1965 11971,1965 11999,1938 11999,1897 Z"/>
        </g>
       </g>
       <g class="com.sun.star.drawing.ClosedBezierShape">
        <g id="id71">
         <rect class="BoundingBox" stroke="none" fill="none" x="12171" y="1801" width="216" height="16"/>
         <path fill="rgb(0,0,0)" stroke="none" d="M 12374,1816 C 12380,1816 12386,1816 12386,1809 12386,1802 12380,1802 12374,1802 12311,1802 12247,1802 12184,1802 12178,1802 12171,1802 12171,1809 12171,1816 12178,1816 12184,1816 12247,1816 12311,1816 12374,1816 Z"/>
        </g>
       </g>
       <g class="com.sun.star.drawing.ClosedBezierShape">
        <g id="id72">
         <rect class="BoundingBox" stroke="none" fill="none" x="12420" y="1742" width="162" height="229"/>
         <path fill="rgb(0,0,0)" stroke="none" d="M 12580,1765 C 12580,1763 12581,1761 12581,1758 12581,1752 12577,1749 12571,1749 12567,1749 12558,1751 12556,1764 12550,1751 12538,1742 12524,1742 12484,1742 12440,1791 12440,1842 12440,1876 12462,1897 12487,1897 12508,1897 12524,1881 12528,1877 12521,1908 12520,1907 12516,1923 12515,1927 12503,1961 12466,1961 12459,1961 12448,1961 12438,1958 12448,1955 12452,1945 12452,1940 12452,1934 12448,1927 12439,1927 12431,1927 12420,1934 12420,1948 12420,1962 12433,1969 12466,1969 12510,1969 12536,1942 12541,1921 12554,1869 12567,1817 12580,1765 Z M 12534,1852 C 12532,1861 12524,1870 12516,1877 12509,1883 12498,1889 12488,1889 12470,1889 12465,1871 12465,1857 12465,1840 12475,1799 12485,1781 12494,1764 12509,1750 12524,1750 12547,1750 12552,1778 12552,1780 12552,1781 12551,1784 12551,1785 12545,1807 12540,1830 12534,1852 Z"/>
        </g>
       </g>
       <g class="com.sun.star.drawing.ClosedBezierShape">
        <g id="id73">
         <rect class="BoundingBox" stroke="none" fill="none" x="12620" y="1657" width="198" height="249"/>
         <path fill="rgb(0,0,0)" stroke="none" d="M 12785,1683 C 12787,1671 12788,1668 12807,1668 12813,1668 12817,1668 12817,1661 12817,1658 12815,1657 12812,1657 12803,1657 12782,1658 12773,1658 12761,1658 12733,1657 12721,1657 12718,1657 12714,1657 12714,1664 12714,1668 12717,1668 12726,1668 12734,1668 12738,1668 12746,1669 12755,1670 12757,1671 12757,1676 12757,1678 12757,1680 12756,1683 12742,1737 12729,1790 12715,1844 12707,1878 12683,1897 12665,1897 12656,1897 12637,1893 12631,1875 12633,1876 12635,1876 12636,1876 12649,1876 12659,1864 12659,1853 12659,1842 12649,1838 12643,1838 12637,1838 12620,1843 12620,1866 12620,1888 12638,1905 12666,1905 12698,1905 12735,1882 12744,1847 12758,1792 12771,1738 12785,1683 Z"/>
        </g>
       </g>
       <g class="com.sun.star.drawing.ClosedBezierShape">
        <g id="id74">
         <rect class="BoundingBox" stroke="none" fill="none" x="12814" y="1860" width="42" height="106"/>
         <path fill="rgb(0,0,0)" stroke="none" d="M 12855,1897 C 12855,1873 12847,1860 12833,1860 12821,1860 12814,1869 12814,1878 12814,1888 12821,1897 12833,1897 12837,1897 12842,1896 12845,1892 12846,1892 12846,1891 12847,1891 12847,1893 12848,1892 12848,1897 12848,1923 12835,1944 12824,1955 12820,1959 12820,1960 12820,1961 12820,1963 12822,1965 12823,1965 12827,1965 12855,1938 12855,1897 Z"/>
        </g>
       </g>
       <g class="com.sun.star.drawing.ClosedBezierShape">
        <g id="id75">
         <rect class="BoundingBox" stroke="none" fill="none" x="13013" y="1653" width="169" height="249"/>
         <path fill="rgb(0,0,0)" stroke="none" d="M 13180,1657 C 13178,1656 13180,1653 13175,1653 13170,1653 13137,1656 13131,1657 13128,1658 13126,1659 13126,1664 13126,1668 13129,1668 13134,1668 13151,1668 13152,1670 13152,1674 13152,1676 13151,1679 13151,1681 13144,1709 13137,1736 13130,1764 13123,1751 13113,1742 13097,1742 13056,1742 13013,1793 13013,1845 13013,1878 13032,1901 13060,1901 13067,1901 13084,1899 13105,1875 13108,1889 13120,1901 13137,1901 13149,1901 13158,1893 13163,1882 13169,1869 13170,1858 13174,1847 13174,1843 13171,1843 13169,1843 13166,1843 13166,1845 13165,1850 13159,1872 13152,1893 13138,1893 13128,1893 13127,1884 13127,1877 13127,1869 13128,1866 13129,1860 13146,1792 13163,1725 13180,1657 Z M 13107,1855 C 13105,1862 13105,1862 13100,1868 13084,1888 13070,1893 13060,1893 13043,1893 13038,1874 13038,1860 13038,1843 13049,1799 13057,1783 13068,1763 13084,1750 13098,1750 13121,1750 13126,1777 13126,1780 13126,1782 13125,1785 13124,1786 13118,1809 13113,1832 13107,1855 Z"/>
        </g>
       </g>
      </g>
      <g class="Group">
       <g class="com.sun.star.drawing.ClosedBezierShape">
        <g id="id76">
         <rect class="BoundingBox" stroke="none" fill="none" x="4929" y="4886" width="549" height="808"/>
         <path fill="rgb(255,255,255)" stroke="none" d="M 5203,5693 C 5111,5693 5020,5693 4929,5693 4929,5424 4929,5155 4929,4886 5112,4886 5294,4886 5477,4886 5477,5155 5477,5424 5477,5693 5386,5693 5294,5693 5203,5693 Z"/>
        </g>
       </g>
       <g class="com.sun.star.drawing.ClosedBezierShape">
        <g id="id77">
         <rect class="BoundingBox" stroke="none" fill="none" x="5134" y="4868" width="145" height="255"/>
         <path fill="rgb(0,0,0)" stroke="none" d="M 5212,4964 C 5168,4975 5134,5021 5134,5063 5134,5097 5157,5122 5190,5122 5231,5122 5260,5067 5260,5018 5260,4986 5246,4969 5234,4953 5221,4937 5201,4911 5201,4896 5201,4888 5208,4879 5220,4879 5231,4879 5238,4884 5245,4889 5252,4893 5259,4898 5264,4898 5273,4898 5278,4889 5278,4884 5278,4876 5273,4875 5260,4872 5242,4868 5237,4868 5231,4868 5204,4868 5191,4883 5191,4904 5191,4923 5201,4943 5212,4964 Z M 5217,4972 C 5225,4988 5236,5007 5236,5032 5236,5056 5222,5114 5190,5114 5171,5114 5156,5099 5156,5073 5156,5051 5169,4985 5217,4972 Z"/>
        </g>
       </g>
       <g class="com.sun.star.drawing.ClosedBezierShape">
        <g id="id78">
         <rect class="BoundingBox" stroke="none" fill="none" x="4935" y="5403" width="199" height="249"/>
         <path fill="rgb(0,0,0)" stroke="none" d="M 5101,5429 C 5104,5417 5104,5414 5124,5414 5129,5414 5133,5414 5133,5408 5133,5404 5131,5403 5128,5403 5120,5403 5098,5404 5089,5404 5078,5404 5049,5403 5038,5403 5035,5403 5030,5403 5030,5410 5030,5414 5033,5414 5042,5414 5050,5414 5054,5414 5063,5415 5071,5416 5074,5417 5074,5422 5074,5424 5073,5427 5072,5429 5058,5483 5045,5536 5032,5590 5023,5624 5000,5643 4981,5643 4972,5643 4954,5640 4948,5621 4949,5622 4951,5621 4952,5622 4966,5622 4975,5610 4975,5599 4975,5588 4966,5584 4960,5584 4953,5584 4936,5589 4936,5613 4936,5634 4955,5651 4982,5651 5015,5651 5051,5628 5060,5593 5073,5538 5087,5484 5101,5429 Z"/>
        </g>
       </g>
       <g class="com.sun.star.drawing.ClosedBezierShape">
        <g id="id79">
         <rect class="BoundingBox" stroke="none" fill="none" x="5131" y="5606" width="43" height="106"/>
         <path fill="rgb(0,0,0)" stroke="none" d="M 5172,5643 C 5172,5620 5163,5606 5149,5606 5138,5606 5131,5615 5131,5624 5131,5634 5138,5643 5149,5643 5153,5643 5158,5642 5161,5639 5163,5638 5162,5638 5163,5637 5164,5637 5164,5638 5164,5643 5164,5669 5152,5690 5140,5701 5136,5705 5136,5706 5136,5707 5136,5709 5138,5711 5140,5711 5144,5711 5172,5684 5172,5643 Z"/>
        </g>
       </g>
       <g class="com.sun.star.drawing.ClosedBezierShape">
        <g id="id80">
         <rect class="BoundingBox" stroke="none" fill="none" x="5328" y="5400" width="168" height="248"/>
         <path fill="rgb(0,0,0)" stroke="none" d="M 5495,5403 C 5493,5402 5495,5400 5490,5400 5485,5400 5452,5403 5446,5403 5443,5404 5441,5406 5441,5410 5441,5414 5444,5414 5449,5414 5466,5414 5467,5417 5467,5420 5466,5422 5466,5425 5466,5427 5459,5455 5452,5482 5445,5510 5438,5497 5428,5488 5412,5488 5371,5488 5328,5540 5328,5591 5328,5624 5347,5647 5374,5647 5382,5647 5399,5646 5420,5621 5423,5635 5435,5647 5452,5647 5464,5647 5472,5639 5478,5628 5484,5615 5488,5594 5488,5593 5488,5589 5485,5589 5484,5589 5481,5589 5480,5591 5479,5596 5473,5619 5467,5639 5453,5639 5443,5639 5442,5630 5442,5623 5442,5615 5443,5612 5444,5606 5461,5538 5478,5471 5495,5403 Z M 5422,5601 C 5420,5608 5420,5608 5415,5614 5399,5634 5385,5639 5375,5639 5358,5639 5353,5620 5353,5606 5353,5589 5364,5546 5372,5529 5383,5509 5399,5496 5413,5496 5436,5496 5440,5524 5440,5527 5440,5529 5440,5531 5439,5533 5433,5555 5428,5578 5422,5601 Z"/>
        </g>
       </g>
      </g>
      <g class="Group">
       <g class="com.sun.star.drawing.ClosedBezierShape">
        <g id="id81">
         <rect class="BoundingBox" stroke="none" fill="none" x="9050" y="4874" width="549" height="808"/>
         <path fill="rgb(255,255,255)" stroke="none" d="M 9324,5681 C 9232,5681 9141,5681 9050,5681 9050,5412 9050,5143 9050,4874 9233,4874 9415,4874 9598,4874 9598,5143 9598,5412 9598,5681 9507,5681 9415,5681 9324,5681 Z"/>
        </g>
       </g>
       <g class="com.sun.star.drawing.ClosedBezierShape">
        <g id="id82">
         <rect class="BoundingBox" stroke="none" fill="none" x="9255" y="4855" width="145" height="256"/>
         <path fill="rgb(0,0,0)" stroke="none" d="M 9333,4952 C 9289,4963 9255,5009 9255,5051 9255,5085 9278,5110 9311,5110 9352,5110 9381,5055 9381,5006 9381,4974 9367,4957 9355,4941 9342,4925 9322,4899 9322,4884 9322,4876 9329,4867 9341,4867 9352,4867 9359,4872 9366,4877 9373,4881 9380,4886 9385,4886 9394,4886 9399,4877 9399,4872 9399,4864 9394,4863 9381,4860 9363,4856 9358,4856 9352,4856 9325,4856 9312,4871 9312,4892 9312,4911 9322,4931 9333,4952 Z M 9338,4960 C 9346,4976 9357,4995 9357,5020 9357,5044 9343,5102 9311,5102 9292,5102 9277,5087 9277,5061 9277,5039 9290,4973 9338,4960 Z"/>
        </g>
       </g>
       <g class="com.sun.star.drawing.ClosedBezierShape">
        <g id="id83">
         <rect class="BoundingBox" stroke="none" fill="none" x="9056" y="5391" width="199" height="249"/>
         <path fill="rgb(0,0,0)" stroke="none" d="M 9222,5417 C 9225,5405 9225,5402 9245,5402 9250,5402 9254,5402 9254,5396 9254,5392 9252,5391 9249,5391 9241,5391 9219,5392 9210,5392 9199,5392 9170,5391 9159,5391 9156,5391 9151,5391 9151,5398 9151,5402 9154,5402 9163,5402 9171,5402 9175,5402 9184,5403 9192,5404 9195,5405 9195,5410 9195,5412 9194,5415 9193,5417 9179,5471 9166,5524 9153,5578 9144,5612 9121,5631 9102,5631 9093,5631 9075,5628 9069,5609 9070,5610 9072,5609 9073,5610 9087,5610 9096,5598 9096,5587 9096,5576 9087,5572 9081,5572 9074,5572 9057,5577 9057,5601 9057,5622 9076,5639 9103,5639 9136,5639 9172,5616 9181,5581 9194,5526 9208,5472 9222,5417 Z"/>
        </g>
       </g>
       <g class="com.sun.star.drawing.ClosedBezierShape">
        <g id="id84">
         <rect class="BoundingBox" stroke="none" fill="none" x="9252" y="5594" width="42" height="106"/>
         <path fill="rgb(0,0,0)" stroke="none" d="M 9293,5631 C 9293,5608 9284,5594 9270,5594 9259,5594 9252,5603 9252,5612 9252,5622 9259,5631 9270,5631 9274,5631 9279,5630 9282,5627 9284,5626 9283,5626 9284,5625 9285,5625 9285,5626 9285,5631 9285,5657 9273,5678 9261,5689 9257,5693 9257,5694 9257,5695 9257,5697 9259,5699 9261,5699 9265,5699 9293,5672 9293,5631 Z"/>
        </g>
       </g>
       <g class="com.sun.star.drawing.ClosedBezierShape">
        <g id="id85">
         <rect class="BoundingBox" stroke="none" fill="none" x="9449" y="5388" width="169" height="248"/>
         <path fill="rgb(0,0,0)" stroke="none" d="M 9616,5391 C 9614,5390 9616,5388 9611,5388 9606,5388 9573,5391 9567,5391 9564,5392 9562,5394 9562,5398 9562,5402 9565,5402 9570,5402 9587,5402 9588,5405 9588,5408 9587,5410 9587,5413 9587,5415 9580,5443 9573,5470 9566,5498 9559,5485 9549,5476 9533,5476 9492,5476 9449,5528 9449,5579 9449,5612 9468,5635 9495,5635 9503,5635 9520,5634 9541,5609 9544,5623 9556,5635 9573,5635 9585,5635 9593,5627 9599,5616 9605,5603 9609,5582 9609,5581 9609,5577 9606,5577 9605,5577 9602,5577 9601,5579 9600,5584 9594,5607 9588,5627 9574,5627 9564,5627 9563,5618 9563,5611 9563,5603 9564,5600 9565,5594 9582,5526 9599,5459 9616,5391 Z M 9543,5589 C 9541,5596 9541,5596 9536,5602 9520,5622 9506,5627 9496,5627 9479,5627 9474,5608 9474,5594 9474,5577 9485,5534 9493,5517 9504,5497 9520,5484 9534,5484 9557,5484 9561,5512 9561,5515 9561,5517 9561,5519 9560,5521 9554,5543 9549,5566 9543,5589 Z"/>
        </g>
       </g>
      </g>
      <g class="Graphic">
       <g id="id86">
        <rect class="BoundingBox" stroke="none" fill="none" x="3705" y="1191" width="2566" height="2566"/>
        <path fill="none" stroke="rgb(0,0,0)" stroke-width="71" stroke-linejoin="round" d="M 4988,1415 L 6046,3532 3929,3532 4988,1415 4988,1415 Z"/>
        <path fill="rgb(255,255,255)" stroke="none" d="M 4852,2650 C 4938,2650 5024,2650 5110,2650 5110,2767 5110,2884 5110,3000 5024,3000 4938,3000 4852,3000 4852,2884 4852,2767 4852,2650 L 4852,2650 Z"/>
        <path fill="rgb(0,0,0)" stroke="none" d="M 4957,2813 C 4845,2874 4839,2946 4839,2960 4839,3002 4881,3029 4933,3029 5027,3029 5102,2941 5102,2928 5102,2925 5099,2925 5096,2925 5089,2925 5067,2931 5054,2949 5043,2965 5019,2999 4970,2999 4930,2999 4887,2978 4887,2935 4887,2907 4917,2824 5006,2821 5032,2821 5051,2800 5051,2794 5051,2791 5049,2791 5046,2791 4967,2787 4953,2749 4953,2727 4953,2714 4961,2651 5038,2651 5049,2651 5091,2653 5091,2683 5091,2691 5086,2699 5085,2703 5083,2704 5081,2707 5081,2709 5081,2714 5086,2714 5088,2714 5104,2714 5139,2691 5139,2659 5139,2626 5101,2621 5075,2621 4998,2621 4905,2682 4905,2751 4905,2783 4930,2803 4957,2813 L 4957,2813 Z"/>
       </g>
      </g>
      <g class="Graphic">
       <g id="id87">
        <rect class="BoundingBox" stroke="none" fill="none" x="8272" y="1191" width="2566" height="2566"/>
        <path fill="none" stroke="rgb(0,0,0)" stroke-width="71" stroke-linejoin="round" d="M 10613,2474 C 10613,2659 10564,2842 10471,3003 10378,3163 10244,3297 10084,3390 9923,3483 9740,3532 9555,3532 9369,3532 9186,3483 9026,3390 8865,3297 8731,3163 8638,3003 8545,2842 8496,2659 8496,2474 8496,2288 8545,2105 8638,1945 8731,1784 8865,1650 9025,1557 9186,1464 9369,1415 9555,1415 9740,1415 9923,1464 10083,1557 10244,1650 10378,1784 10471,1944 10564,2105 10613,2288 10613,2474 Z"/>
        <path fill="rgb(255,255,255)" stroke="none" d="M 9400,2313 C 9504,2313 9606,2313 9710,2313 9710,2421 9710,2528 9710,2636 9606,2636 9504,2636 9400,2636 9400,2528 9400,2421 9400,2313 L 9400,2313 Z"/>
        <path fill="rgb(0,0,0)" stroke="none" d="M 9582,2284 C 9513,2284 9483,2297 9470,2302 9412,2325 9400,2364 9400,2372 9400,2375 9403,2375 9406,2375 9416,2375 9443,2362 9447,2349 9454,2329 9455,2322 9494,2317 9513,2316 9530,2314 9549,2314 9565,2314 9582,2314 9599,2314 9564,2349 9549,2408 9529,2487 9513,2554 9500,2597 9478,2627 9471,2632 9471,2634 9455,2634 9444,2634 9432,2634 9420,2634 9409,2634 9403,2634 9390,2642 9384,2645 9371,2654 9371,2661 9371,2664 9371,2664 9384,2664 9447,2664 9511,2664 9574,2664 9639,2664 9687,2616 9687,2595 9687,2592 9684,2592 9682,2592 9673,2592 9646,2605 9641,2618 9636,2631 9634,2634 9607,2634 9572,2634 9537,2634 9502,2634 9541,2599 9556,2544 9576,2469 9590,2408 9604,2354 9626,2321 9630,2316 9631,2314 9642,2314 9658,2314 9674,2314 9690,2314 9701,2314 9706,2314 9720,2306 9725,2303 9738,2295 9738,2287 9738,2284 9738,2284 9725,2284 9677,2284 9630,2284 9582,2284 L 9582,2284 Z"/>
       </g>
      </g>
      <g class="Graphic">
       <g id="id88">
        <rect class="BoundingBox" stroke="none" fill="none" x="6020" y="4727" width="2566" height="2566"/>
        <path fill="none" stroke="rgb(0,0,0)" stroke-width="71" stroke-linejoin="round" d="M 6773,4951 L 7831,4951 8361,6010 7831,7068 6773,7068 6244,6010 6773,4951 6773,4951 Z"/>
        <path fill="rgb(255,255,255)" stroke="none" d="M 7157,5859 C 7248,5859 7339,5859 7430,5859 7430,5960 7430,6060 7430,6161 7339,6161 7248,6161 7157,6161 7157,6060 7157,5960 7157,5859 L 7157,5859 Z"/>
        <path fill="rgb(0,0,0)" stroke="none" d="M 7453,5852 C 7459,5846 7459,5844 7459,5843 7459,5840 7457,5836 7453,5836 7450,5836 7446,5840 7443,5843 7401,5890 7358,5937 7316,5985 7294,5914 7289,5900 7277,5870 7270,5857 7259,5830 7210,5830 7176,5830 7162,5859 7162,5867 7165,5869 7162,5873 7170,5873 7175,5873 7175,5868 7176,5867 7184,5844 7203,5843 7207,5843 7223,5843 7240,5884 7250,5910 7267,5953 7285,6017 7285,6019 7283,6021 7285,6020 7280,6025 7237,6072 7195,6119 7152,6167 7146,6173 7146,6175 7146,6176 7146,6179 7149,6183 7152,6183 7157,6183 7159,6179 7162,6176 7204,6129 7247,6082 7289,6034 7306,6092 7312,6113 7327,6144 7333,6162 7346,6189 7395,6189 7427,6189 7443,6160 7443,6152 7443,6151 7442,6146 7437,6146 7431,6146 7430,6149 7429,6154 7424,6168 7410,6176 7399,6176 7370,6176 7333,6042 7320,6000 7364,5951 7409,5902 7453,5852 L 7453,5852 Z"/>
       </g>
      </g>
     </g>
    </g>
   </g>
  </g>
 </g>
</svg>
